<?xml version="1.0" encoding="utf-8"?>
<!-- Generator: Adobe Illustrator 19.0.0, SVG Export Plug-In . SVG Version: 6.00 Build 0)  -->
<svg version="1.1" id="Layer_1" xmlns="http://www.w3.org/2000/svg" xmlns:xlink="http://www.w3.org/1999/xlink" x="0px" y="0px"
	 viewBox="481 -403.2 1062.1 907.2" style="enable-background:new 481 -403.2 1062.1 907.2;" xml:space="preserve">
<style type="text/css">
	.st0{enable-background:new    ;}
	.st1{fill:#2D9905;}
</style>
<title>29 хв</title>
<path d="M1541.8,361.6c-2.8-12.3-5.8-24.4-13.7-34.7c-5.3-6.9-9.1-15.1-16.2-20.7c-2.1-1.6-0.4-2.7,0.9-3.3c2.7-1.3,5.6-2.2,8.3-3.5
	c1.8-0.8,4-1.9,3.2-4.3c-1.7-4.6-3.3-9.3-5.9-13.4c-5-7.9-11.9-14.2-19-20.3c-8.9-7.7-18.2-14.9-27.9-21.6c-4.1-2.8-7.5-6.7-11.8-9
	c-4.5-2.5-8.7-5.2-13.1-7.8c-12-7-23.5-14.6-36.7-19.2c-1.7-0.6-2-1.5-1.7-3.1c1.9-9.4,0.1-18.5-2.1-27.6
	c-2.7-10.9-6.4-21.6-10.9-32c-6.2-14.7-11.6-29.8-18.6-44.2c-0.9-1.7-0.9-3.7-0.1-5.4c1.9-4,1.5-8.7-1.1-12.3
	c-1.2-1.8-2-3.7-2.5-5.7c-2.6-10-6-19.7-11.5-28.5c-1.7-2.6-1.2-4,0.7-5.7c1.7-1.5,3.4-3,5.1-4.4c2.1-1.7,1.4-4.2,1.4-6.3
	c0-1.8-2.2-1-3.4-1.3c-6.9-1.9-14-2.5-21-3.4c-5.1-0.7-9.7-0.7-14.1-5.4c-6.5-6.8-15.9-9.7-25.1-12c-5.1-1.3-10.8-1.8-14.1-7
	c-1.4-2.5-3.7-4.4-6.3-5.5c-1.6-0.6-1-1.9-0.5-3.1c1.3-3.3,3.4-6.9,2.7-10.3c-1.2-5.5-3.1-11.2-6.6-15.6
	c-4.1-5.3-7.8-10.9-11.2-16.6c-1-1.7-2.2-3.7-4.6-4.1c-2.7-0.5-2.9-2.2-2.8-4.7c0.5-9.9,0.8-19.8,1-29.7c0.1-3.4-0.2-6.7-2-9.7
	c-4.5-7.2-9.8-13.9-15.7-20.1c-0.8-0.9-2-1.4-1.5-3c2.2-6.3,0-12.8,0.3-19.2c0.1-2.9-0.8-6.5-3.5-8.7c-7.3-5.6-14.3-5.4-17.9,4
	c-1.9,4.8-3.3,9.6-4.9,14.5c-2.5,7.7-4.7,15.4-3,23.7c1.5,7.3,6.2,11.6,12.7,14.4c1.6,0.8,3.6,0.4,4.8-1c1.5-1.6,2.9-3.4,4.2-5.2
	c1.7-2.7,2.9-1.9,4.5,0c4.4,5,5.2,11,5.2,17.3c0,7.4-1.6,14.6-1,22c0.1,1.4,0.6,4.2-1.1,4.2c-2.6,0.1-1.8-2.7-1.9-4.4
	c-0.5-6.3-5.5-11.4-11.8-11.9c-7.9-0.7-15.9-0.9-23.9-0.8c-2.3,0.1-3.4-0.7-3-3c0.2-1.9-0.2-3.7-1.2-5.3
	c-4.1-8.6-10.9-15.4-16.4-22.9c-3.5-4.8-7.8-9-11.2-13.7c-4.9-6.8-10.8-12.9-15.1-20.2c-1.8-3-2.6-5.5-2.3-8.9
	c0.7-6.5,1.8-12.9,1.3-19.5c-0.7-9.4-5-14.9-14.2-17.2c-9.4-2.3-21,3-25.8,11.4c-3.9,6.9-5.1,13.8-3.2,21.7
	c1.7,6.9,2.8,13.8,6.9,19.8c1.8,2.6,3.5,5.1,6.2,6.9c0.9,0.6,2.9,1.6,2.9-0.3c0-3.8,2.3-3,4.5-3.1c1.7-0.1,3.5-0.4,5.1-0.9
	c2.9-1,4.7-0.1,6.2,2.4c4.2,7,9,13.7,14.5,19.9c3.1,3.5,6.2,7,9.3,10.5c5.1,5.6,8.6,12.3,11.7,19.1c1,2.1,0.1,2.9-1.6,3
	c-2,0.1-4,0-5.9-0.3c-5.8-0.9-11.7-0.3-17.1,1.9c-4.1,1.6-8.1,3.2-12.1,4.9c-6.8,2.8-13.9,3.2-21.2,2.8c-4.3-0.2-7.6-0.7-8.6-5.7
	c-0.4-1.9-2.8-3-4.7-3.2c-6.4-0.8-12.8-1-19.2,0.5c-2.7,0.7-4.5,0.3-5.7-2.9c-3.6-9.2-7.8-18.2-12.5-26.8
	c-2.9-5.4-7.1-10.6-5.8-17.6c1-5.3,1.1-10.9,1.5-16.3c0.9-13-0.3-25.6-6.4-37.3c-1.6-3.1-3.9-6.1-4.5-9.3c-1-6.4-3.4-12.4-6.9-17.9
	c-1.4-2.1-0.2-3,1.5-2.8c4.3,0.5,8.3-1.1,12.5-1.7c5.3-0.7,10.2-2.4,10.8-9.1c0.2-1.8,1.3-2.7,3.2-3c3.1-0.4,6.2-1,9.2-1.7
	c1.2-0.2,2.8-0.6,2.9-2c0.4-4.8,3.3-8.7,4.7-13.1c3.8-11.6,4.3-23.7,5.2-35.7c0.3-4.3,2.1-5.5,5.9-3.3c3.2,1.9,6.6,2.2,10,2.6
	c4,0.4,7.6-3.4,7.8-7.5c0.4-5.8-2.3-11-3-16.6c-0.3-2.6-0.8-5.1-1.5-7.6c-0.5-1.8-0.9-4.4-3-4.6s-1.5-1.3-1.4-2.1
	c0.2-2.5,0-5-0.7-7.3c-2.1-9.5-7.3-16.8-15.5-21.4c-2.5-1.4-4.8-3.4-6.5-5.7c-9-11.2-21.5-16.5-35-19.7c-12-2.9-24.2-2.5-36.4-1.8
	c-8.9,0.6-17.8,2.4-26.3,5.2c-10,3.2-16.8,10.8-23.3,18.4c-4,4.7-8.9,8.7-11.7,14.4c-4.8,9.6-9,19.5-12.6,29.7
	c-1.4,4.2,2.6,12.5,7,13.3c3.4,0.6,4.6,3,6.5,5.3c5,6,4.8,15.1,12,19.6c0.2,0.1,0.3,0.4,0.4,0.6c3.5,7.6,8.2,14.4,12.8,21.4
	c0.8,1.1,0.9,1.9-0.1,2.9c-3.4,3.3-5.4,8.2-11,8.7c-1,0.2-1.9,0.8-2.4,1.6C959.5-208,946-191,932.5-173.9
	c-3.3,4.2-6.6,8.5-10.4,13.4c-0.1-0.7-0.2-1.5-0.2-2.2c-2.3,2.6-4.6,5.1-6.9,7.6c-0.1,0.5-0.2,0.9-0.3,1.4c-0.3,0.7-0.2,1.5,0.3,2.1
	c3.5,4.6,3.7,8.7,2.5,14.7c-0.5,2.7,0.5,5.9,0,8.9c-1,6.3,0.3,12.7-0.2,19c-0.6,7.7-0.3,15.6-1.8,23.2c-0.4,2.9-0.5,5.9-0.3,8.9
	c-0.2,16.7-2.2,33.2-3.3,49.8c-1,14.7-2.6,29.4-4.4,44c-1,7.7-0.3,15.6-1,23.4c-0.4,4.7,1.2,10-3.2,13.9c-0.5,0.5-0.4,1.5,0.3,1.5
	c3.2,0,1.9,1.9,1.7,3.5c-0.5,2.9-0.7,5.9-0.7,8.9c0.2,3.8-1.9,4.6-4.8,4.4c-4.9-0.1-9.7-0.6-14.5-1.2c-11.4-1.9-23-2-34.4-3.7
	c-11.7-1.8-23.7-1.6-35.6-2.5c-8.2-0.6-16.7-0.4-24.4-2.7c-6.3-1.9-12.1-1.2-18.1-1.1c-1.5,0-3,0.2-4-1.2c-1.1-1.4-2.8-2.2-4.6-2.2
	c-5.7-0.4-11.4-1.7-17.1-1.2c-0.1,1.1-0.1,2.1-0.2,3.2c1.6,0,3.2,0,4.8,0c3.1,0.2,6.2-0.2,9.3,0.1c3.8,0.4,7.2,2.5,9.3,5.6
	c0.5,0.7,1.2,1.9,1.8,0.7c1.8-3.5,4.2-1.7,6.4-1c1.7,0.6,3.5,1.4,5.1,2.2c-5,1.6-9.3,0.8-13.5,0c-0.6-0.1-1.1-0.8-1.6-0.8
	c-1.4-0.1-3.2-0.4-3.8,0.8c-0.6,1.2,0.8,2.3,1.9,3.1c8.7,6.4,18.1,11.6,26.7,18.3c8,6.2,17,11.1,25.2,17.2c1.5,1.1,3.8,2.3,4.5,3.4
	c2.3,3.3,4.3,1.8,6.7,0.9c5.8-2.2,11.7-3.9,18-3.9c1.5,0,2.9,0.6,4,1.7c0.5,0.4,1.3,0.3,1.7-0.1c0.7-0.6,0.2-1-0.1-1.6
	c-1.5-2.5-3-4-6.5-3.8c-6.6,0.4-12.9,2.7-19.4,3.5c-1.8,0.4-3.7,0-5.2-1.1c-4.6-3.5-9.1-7.2-14.2-10c-1.3-0.7-3.1-1.6-2.8-3
	c0.4-1.4,2.4-1.4,3.9-1.5c16.7-1,33.4,0,50,1.3c12.4,1,24.5,3.9,36.8,5.6c17.2,2.4,33.5,8.1,50.1,12.8c13.1,3.8,26.4,7.5,38.7,13.5
	c6.8,3.3,13.3,7.2,20,10.8c1.6,0.9,1.3,1.8-0.2,3c6.8-0.8,11.1,3.3,15.8,6.2c0.9,0.5,1.8,1,2.7,1.5c1.5,0.9,4.2,0.3,4.3,3.3
	c0,0.9,1.2,0.4,1.9,0.5c2.2,0.5,4.7,0.5,5.5,3.3c0.2,0.6,0.6,0.7,1.1,0.8c12.8,3.2,19.1,13.3,25,23.8c1.4,2.5,2.8,5,4.4,7.3
	c0.8,1.1,1.6,2.6,3.8,2.3c-3.3-9.7-9.9-17.2-14.1-26c-1.4-3.1-3.4-5.8-7.4-5.5c0.2-1.9,1.7-2.2,2.7-2.6c9.7-3.9,19-8.8,27.7-14.7
	c2.9-2,6.4-2.9,9.9-2.4c6.3,0.9,12.7,0.8,19,0.9c-8.9,6.2-18.7,10.6-27.6,17.7c2.4,0.5,3.2-1,4.5-1.6c8.8-4.2,16.9-9.5,25.3-14.4
	c2.3-1.3,4.9-1.9,7.5-1.8c1,0,2.4-0.8,2.9,0.7s-0.5,2.4-1.5,3.1c-4.4,3-8.8,6.1-13.3,8.8c-4.9,2.9-9.9,5.6-14.8,8.6
	c2.7,0.4,5-1,7.3-2c4.4-1.9,8.7-4.3,13-6.4c0.4-0.2,0.7-0.4,1-0.5c1.7-0.7,4-2.3,5-0.5s-1.6,2.5-3.2,3.6c-6.8,4.5-13.6,9-19.6,14.5
	c5.9-1.8,10.7-5.4,15.6-8.8c1.7-1.2,3.6-3.7,5.3-2.4c1.5,1.1,0,4-0.8,5.8c-1.2,3.3-1.9,6.7-2.3,10.2c-0.4,2.8-1.7,4.3-4.2,5.5
	c-9.9,4.8-17.5,12.7-26,19.3c-0.6,0.5-1.4,1.4-0.4,2.2c1.2,1,3.1,0.8,4.1-0.4c4.8-5.9,11.1-10.2,16.7-15.3c2.2-2.2,4.9-3.7,7.9-4.4
	c-0.4,4.2-1.6,7.2-5.6,9.5c-7.7,4.4-14.9,9.8-20,17.4c-0.3,0.3-0.7,0.6-1.1,0.8c-1.3-0.8,0.1-3.2-1.9-3.3c-1.7-0.1-2.5,1.5-3.4,2.6
	c-3.6,4.2-5.8,9.5-10.3,13.1c-0.8,0.6-1.5,1.7-2.3,1.8c-5.2,0.7-3.9,4.3-3.1,7.2c2.2,7.8,2.1,15.2-1.9,22.5
	c-2.1,3.7-3.7,7.6-5.5,11.4c-1.2,2.4-2.2,3.7-4.2,0.5c-2.7-4.3-2.8-9.4-4.8-13.9c-1.1-2.6-1.5-5.5-2.2-8.3c-0.4-1.7-0.6-3.2,1.1-4.3
	c0.6-0.4,1.2-1,0.8-1.8s-1.3-0.4-2-0.3c-2.2,0.2-4.1-0.7-5.5,2.9c-1.1,2.8-5.5,4.3-8.4,6.5c-12.1,9-25.8,15.3-39,22.4
	c-6.2,3.3-13,5.5-19.5,7.9c-4.2,1.6-7.9,4.1-12.5,4.8c-2.4,0.4-2.6,2.3-1,4.2c3.9,4.5,7.3,9.4,11.8,13.3c0.7,0.6,1.4,1,1.5,2
	c0.2,1.7-0.6,4.6,2.8,1.6c0.5-0.5,4.7,1.8,5.9,3.6c0.9,1.3-1.3,1.4-2.8,1c-5.7-1.5-11.1-4-16.5-6.3c-12-5-24.4-9.4-36.8-13.2
	c-3.4-1-6.3-2.8-9.5-3.9c-0.9-0.3-2.1-0.8-2.6,0.4s0.7,1.7,1.6,2.1c0.9,0.3,1.9,0.6,2.9,0.8c0.6,0.1,1.6,0,1.6,0.7
	c-0.2,6.2,5.3,4.7,8.3,5.6c6.4,1.8,12.7,4.2,18.9,6.5c19.6,7.1,38.8,15.4,58.6,21.8c16.5,5.3,33.3,9,50,13.2
	c10.6,2.6,21.1,6.3,32.1,7.3c0.3,0,0.5,0.1,0.7,0.2c10.7,4.7,22.4,5.7,33.5,8.7c6.7,1.7,13.7,2.6,20.5,4c11,2.3,21.9,5.1,32.9,6.8
	c14.4,2.2,28.9,3.4,43.4,5c14.7,1.6,29.6,1.9,44.3,0.8c6.9-0.5,13.8-1.5,20.4-4c5.9-2.3,9.9-6.3,13.6-11.2
	c11.8-15.5,21.3-32.4,31-49.2c8-13.9,15.4-28.1,23.6-41.9c5.8-9.8,10.8-20.1,16.2-30.1c1.3-2.5,2.9-4.9,4.2-7.5
	c3.3-6.8,2.6-13.3-0.7-20.1c-2.2-4.3-3.5-9-3.8-13.8c-0.2-2.8-0.9-5.6-2.2-8.2c-5.3-12-10.6-24-16.3-35.8c-2.9-6.1-6.5-11.9-10-17.7
	c-6.2-10.4-12.8-20.6-18.8-31.1c-5.6-9.8-13.2-18.1-19.8-27.2c-1-1.4-2.2-2.7-3.5-3.8c-6.8-5.6-9.2-13.7-12-21.6
	c-1.8-5-3.6-9.9-3.3-15.3c0.3-5.4,8.3-13.5,13.5-12.5c2.3,0.4,4.7,0.8,6.8,1.3c7.8,1.7,15.8,3.5,22.6,8.2
	c9.6,6.5,16.3,15.5,22.3,25.1c5.9,9.3,11.2,19,16,29c8.1,16.9,17.4,33.3,23.5,51.2c4.2,12.4,9.7,24.4,14.2,36.7
	c2.4,6.7,5.4,13.4,6.1,20.6c0.7,6.7,1.4,13.6-2.9,19.7c-0.4,0.5-0.5,1.1-0.5,1.7c1,7.1-3.5,12.5-5.5,18.6c-0.3,0.9-0.5,2-1.8,2.1
	c-4.4,0.2-6.3,3.6-8.2,6.8c-7,12-13.6,24.3-20.7,36.2c-8.6,14.4-17.6,28.5-27.1,42.3c-0.9,1.3-1.7,2.7-2.5,4.2
	c-2.4,4.7-5,9.1-10.1,11.5c-2.1,0.7-3.6,2.5-4.1,4.7l4.4-2c-1.3,4.6-5.2,6.6-8.5,9.1c0.8,1.2,1.9-0.8,2.7,0.3
	c-8.8,14.6-19.9,27.5-29.8,41.4c-1.2-0.5-0.3-1.5-0.6-2.2c-0.2-0.7-0.8-1.3-1.6-1.3c-0.7-0.1-1,0.4-1.3,1
	c-4.8,8.7-12.4,14.4-20.3,19.8c-4.3,3-8.8,5.8-13,9.1c7.7-2.3,14.1-6.8,21-10.6c-3,5.3-7.9,8.3-13.2,10.6
	c-12.8,5.6-26.8,7.9-40.7,6.7c-13-1.1-25.8-3.6-38.8-4.1c-16.1-0.6-32.3-1.8-48.4-0.9c-4,0.3-7.9,0-12.4,0c1.8-3.8,5.5-4.8,8.2-7
	c1.8-1.4,3.6-2.6,5.6-3.7c1.4-0.9,0.7-1.8,0.1-2.8c-0.8-1.4-1.6-0.2-2.1,0.2c-4.7,4-10.9,6.4-13.4,12.7c-0.2,0.6-0.8,1-1.5,1
	c-10.6,0.5-21.2,1.1-32.6,1.6c5-5.8,10.9-9.2,16.3-13.2c1.9-1.2,3.6-2.6,5.2-4.2c0.6-0.7,1.1-1.4,0.3-2.3c-0.9-1.1-1.5,0-2.2,0.4
	c-7.7,5.3-15.3,10.7-21.1,18.2c-0.6,0.7-0.9,1.5-1.9,1.6c-6,0.7-12.1,1.1-18.2,1c6.1-4,12.1-8,18.3-12c2-1.2,4-2.6,5.7-4.2
	c0.8-0.8,2.5-1.5,1.1-2.9c-1.1-1.2-2.3-0.2-3.3,0.5c-4.2,3-8.5,6-12.7,9.2c-3.8,2.8-7.3,5.9-11.1,8.8c-3.8,2.9-8.3,2.3-12.7,2.9
	c4-4.8,8.8-8.8,14.1-12c2.8-1.7,4.9-4.2,7.8-5.8c0.8-0.5,1.8-1.2,1-2.4c-0.9-1.4-1.8-0.7-2.8,0c-7.9,5.6-15.6,11.5-22.1,18.9
	c-2.5,2.8-12.3,5.2-16.2,3.8c4.9-4.7,10.5-8.2,15.8-11.9c3-2,5.9-4.2,8.7-6.3c0.5-0.4,1.4-1,0.8-1.8s-1.4-0.6-2.3-0.1
	c-9.2,5.1-17.5,11.7-24.5,19.5c-1.1,1.3-2.2,1.5-6,0.8c0.2-1.6,1.5-2.2,2.5-2.9c5.4-4.4,10.8-8.9,16.9-12.3c0.7-0.3,1.2-0.8,1.7-1.4
	c0.6-1,0.9-2.3,0.1-3.1c-0.7-0.7-1.6,0.3-2.3,0.7c-7.3,5.2-14.4,10.6-20.1,17.6c-0.6,1-1.8,1.4-2.9,1.2c-5.2-1.1-10-2.7-12.5-8.1
	c-2.8-6.1-6.5-11.6-10-17.4c-6.7-11.2-14.1-21.8-21.4-32.6c-2-3-4.7-5.4-6.9-8.2c-1.7-2.1-3-3.8,2.3-4.9c-5.1-1.2-7.3-3.7-9.4-6.5
	c-5.6-7.5-11.9-14.5-17.9-21.8c-10.2-12.4-23-22-35.3-32c-4.1-3.4-8.5-6.5-13-9.8c2.4-1.3,5.1-1.6,7.8-2.2
	c16.6-3.3,32.9-7.9,48.8-13.6c21-7.5,40.8-17.5,60.1-28.5c11-6.3,22.3-11.9,32.6-19.4c7.6-5.5,16.4-9.3,23.9-15.2
	c4.3-3.4,4.2-5.3-0.3-8.3c-12.3-8.2-25.5-14.7-38.3-21.8c-8.6-4.7-17.5-9-26.6-12.9c-11.9-5.1-23.2-11.6-35.5-15.7
	c-9.7-3.3-19.4-6.9-29.8-7.5c-3-0.2-5.5-2.4-8.6-3.2c-10.5-2.6-20.8-5.5-31.6-6.8c-2.1-0.2-5,1.1-6-2.3c-0.4-0.2-0.9-0.3-1.3-0.1
	c-3.1,3-6.7,0-10,0.8c-0.7,0.2-2,0-1.3-1.4c0.5-1,0.5-1.6-0.5-2.1c-0.7-0.4-1.6-0.1-2,0.5c-3.8,4.8-9,2.9-13.8,3
	c-0.8,0-1.9,0.1-1.5-1.4c0.2-0.8,1-1.7-0.3-2.2c-1.1-0.5-1.8,0.2-2.5,1c-3.4,4.1-9.3,5.3-15.3,5.4c-0.4-1.3,1.5-1.5,1.4-2.8
	c-0.1-0.8-0.1-1.5-0.9-1.9c-0.6-0.3-1.3-0.2-1.6,0.4c-6.3,8.1-16,9.8-24.9,13.1c3.5-2.5,6.9-5.2,10.1-8c0.8-0.8,1.8-1.7,1-2.8
	c-0.8-1.1-1.8-0.1-2.6,0.3c-4.7,2.3-8.9,0.8-10.4-4.3c-0.2-1.5-1.3-2.8-2.8-3.3c-0.5-0.1-0.9-0.3-1.3-0.7c-5.9-6.7-14.4-10.2-21-16
	C777.6,87,764.7,81.6,754,73c-0.9-0.6-2-1.1-3-1.4c-0.7-0.3-1.9-0.7-1.9-1c-0.2-2.6-1.6-4.1-3.4-5.4c-0.1,1.2-0.3,2.3-0.4,3.5
	c0.3,0.1,0.5,0.3,0.8,0.4c-0.3,0.2-0.6,0.4-0.9,0.6c-0.2,1.2-0.4,2.4-0.6,3.6c-0.1,0.4-0.2,0.7-0.3,1c0.4,1,0.4,2.1,0.2,3.2
	c0.7,0.2,1.4,0.5,2.1,0.8c7.8,3.7,15.7,7.9,21.5,15.6c-0.9,0.2-1.9,0.4-2.9,0.6c-1.9,0.1-4-0.1-5.9,0.4c-3.3,0.8-5-0.7-6.6-3.3
	c-2.2-3.6-8.4-5.9-12.7-5.5c-8.2,0.9-15.9,3.5-23.5,6.6c-5.8,2.4-10.3,6-12.1,12.2c-1.2,3.9-2.8,7.4-6.1,10.2
	c-7.5,6.2-14.7,12.5-20.5,20.5c-5.5,7.6-12.4,14.2-17.5,22.2c-3.3,5.1-6.2,10.5-9.6,15.5c-2.5,3.6-6.3,6.3-8.3,10.4
	c-6.2,12.9-14.3,24.7-21.3,37.1c-8.3,14.8-17.3,29.3-26.1,43.8c-4.1,6.8-6.6,14.6-11.6,20.8c-3.4,4.1-4,8.7-4.7,13.4
	c-0.8,5.1,1.6,8.9,5.9,9.7c9.3,1.7,18.6,3.2,27.8,5c5.7,1.1,11.4,0.8,17.1,0.8c1.1,0,2.5-0.4,3.2,0.6c0.8,1.2-0.6,2-1.1,2.9
	c-2,3.6-4.5,6.8-6.5,10.5c-3.7,6.9-5.6,14.6-9.6,21.4c-2.7,4.8-4.5,10-5.3,15.5c-2.4,12.6-1.9,25.3,0.4,37.8
	c3.5,18.8,9.2,36.7,22.1,51.7c8.8,10.1,17.1,20.6,28.4,28.3c19.1,13.2,39.3,23.3,62.7,25.9c10.1,1.1,20.3,1.6,30.5,0.2
	c13-1.8,25.4-5.9,38-9.1c8.6-2.2,15.9-7.2,22.9-12.3c12.8-9.3,24.2-20.1,32.6-33.6c4.7-7.6,9.6-15.1,15-22.3c1-1.3,1.7-3.4,3.7-3.3
	c4,0.2,7.8-1.1,11.8-1.4c15.8-1.3,31.4-3.9,46.9-6.5c19.9-3.4,39.6-8.4,59.3-12.9c3.9-0.9,6.5-0.4,8.6,3.4
	c7.9,13.9,21.6,17.8,35.7,16.6c20.8-1.7,41.6-3.6,62.2-7.2c16.1-2.8,32.7-2.6,49.1-3.2c22.9-0.8,45.8,0.8,68.6,2.2
	c12.4,0.8,24.8,0.9,37.2-1.2c3.4-0.6,6.8-1.3,10.3-0.5c2.2,0.4,4.6,0.1,6.6-1c4.7-2.2,9.2-4.9,13.3-8.2c3.9-3.4,7.5-7.2,10.7-11.3
	c0.5-0.7,1.1-1.6,2.1-1.1c0.8,0.3,0.5,1.3,0.6,2c0.3,2.6,0.7,5.2,1.3,7.7c3.4,11.8,8.4,23.1,15,33.5c7.7,12.4,16.1,24.2,26.4,34.4
	c11,10.9,23.9,19.6,38.1,25.6c12.6,5.4,25.9,6.9,39.5,6.4c4.6-0.2,9.3-0.1,14-1.2c9.6-2.3,18.5-6.5,27.8-9.5
	c6.9-2.2,13.9-3.5,20.6-6.5c14-6.2,26.3-14.6,36.4-26c6.2-6.9,11.2-14.9,16.6-22.4c1.7-2.1,3.2-4.5,4.4-6.9
	c6.2-14.7,12.3-29.4,13.3-45.7C1543.1,378.7,1543.8,370.3,1541.8,361.6z M1271.7-33.4c-1.8,0.1-3.7,1.7-4.9-0.4
	c-0.5-1,0.8-1.7,1.7-2C1270.7-36.6,1270.8-34.6,1271.7-33.4z M1222-114.1c0-0.6,0-1.2,0.1-1.9l0,0c1.8-10.4,3.4-20.7,7.1-30.7
	c0.4-1.1,0.7-2.5,2-2.1s0.5,1.8,0.3,2.6c-2.3,10.8-4.7,21.5-7.2,32.3c-0.2,1-0.4,2.7-1.7,2.6C1221.1-111.5,1222.1-113.1,1222-114.1z
	 M1229.8-96.6c-1.4,1-2.5,0.4-3.5-0.9c1.5,0.5,2.5-2.3,4-0.7C1230.7-97.8,1230.4-97,1229.8-96.6z M1230.3-104.4
	c-0.6,2.5-1.9,4.6-5,4.4c-2.3-0.2-3.2-1.6-2-3.6c4-6.7,4-14.5,5.8-21.8c1.4-5.5,2.6-11,3.8-16.6c0.3-1.6,0.6-3.2,0.9-4.7
	c0.1-0.9,0.8-1.6,1.7-1.8c1-0.1,1.5,0.7,1.9,1.5c0.8,2,1,4.2,0.7,6.3l0,0c-1.7,6.9-2.4,14.8-4.8,22.4
	C1231.8-113.7,1231.3-108.9,1230.3-104.4L1230.3-104.4z M1249.7-40.9c2.8,0,3.9,0.8,3.1,3.8c-0.6,2,0.3,4.1,2.1,5.1
	c3.2,1.9,4.8,5.7,3.9,9.3c-0.7,3.9-1,7.9-2.3,11.7c-0.3,0.8-0.2,1.9-1.4,1.9c-0.9,0-1.1-1-1.2-1.7c-0.3-2.7-2-4.8-3.3-7
	c-1.4-2.1-2.1-4.5-1.9-7c0.1-0.9,0-1.9-1.1-2.1c-1.1-0.3-1.4,0.5-1.8,1.4c-0.8,2.1-2.6,2.3-4.6,1.9c-6-1.3-10.7,0.4-13.7,6.1
	c-1.4,2.7-4.1,3.9-6.9,4.6c-14.5,3.6-29.4,5.1-44.3,4.5c-1.5,0.1-2.9,0.3-4.4,0.6c2-3.1,2.7-5.7,6.1-7.7s4.7-7.5,4-12.1
	c-0.5-3.7,1.3-6.2,3.2-8.7c1.1-1.3,2.8-1.8,4.4-1.4c9.5,1.5,19,0,28.5-1C1228.6-39.8,1239.1-40.8,1249.7-40.9L1249.7-40.9z
	 M1239.6,6c1.9-1.4,4-1.3,5.9-1.9c1.2-0.4,1.9,0.1,2.8,1.2c4.4,5.5,8.2,11.5,13.6,16.2c3.7,3.3,7.9,5.9,11.7,9.2
	c2,1.6,3,4.1,2.8,6.7c-4.5-0.7-7.8-3.6-11.6-5.4c-0.5-0.3-1-1-1.5-1c-9-0.7-13.7-8.3-20.3-12.7c-4.2-2.8-8.1-6.1-12.1-9.3
	c-0.8-0.6-1.6-1-2.3-0.3c-1.2,1.2,0.2,1.7,0.9,2.2c6.2,4.6,12.4,9.1,18.5,13.6c2,1.4,4,2.9,5.9,4.4c0.6,0.5,1.9,0.8,1.3,1.9l0,0
	c-0.6,1-2,1.3-2.9,0.6c-2.6-1.2-4.7-3.2-7.2-4.6c-10.7-6-20.8-12.9-30.9-19.8c-0.7-0.5-1.3-1.2-1.7-1.9c-0.5-0.7,0.2-2.3-1.6-1.8
	c-1,0.2-1.8,0.9-2.2,1.9c-0.3,1.3,1,1.5,1.8,2c10.4,6.3,19.7,14.2,30.7,19.6c2.5,1.4,4.9,2.9,7.2,4.6c1.5,0.9,1.7,1.8,0,3
	c-3.6,2.6-5.1,2.9-10.3-1.2c-7.5-5.9-15.6-10.9-22.8-17c-3.1-2.6-7.2-4-9.2-7.8c-0.6-1.1-1.3-0.2-1.9-0.1c-0.9,0-1.7,0.7-1.9,1.6
	s0.5,1.4,1.2,1.7c9.8,4,17.1,11.9,25.8,17.5c3.5,2.1,6.7,4.6,9.7,7.3c0.7,0.6,2.7,0.6,1.7,2.3c-0.8,1.3-2.6,2.2-3.9,1.2
	c-3.8-2.9-8.6-4.1-12.3-7c-6.3-5-12.6-10-18.8-15c-0.5-0.4-0.8-1.1-1.5-0.6c-0.8,0.6-0.3,1.4,0.3,1.9c7.6,6.4,14.5,13.6,23.5,18.2
	c1.2,0.6,2.4,1.3,3.5,2.1c1.2,1,4.4,0.6,3.3,3.2c-1.1,2.6-6.2,3.9-8,2.5c-5.7-4.4-11.5-8.8-16.7-13.9c-1.1-1.1-3.1-3.2-4.1-2
	c-1.3,1.6,1.3,2.8,2.5,3.8c5.2,4.4,10.6,8.6,15.9,12.9c0.7,0.5,2.4,0.5,1.7,1.9c-0.6,1.2-1.8,1.8-3.1,1.7c-2.9-0.2-5.6-1.4-7.7-3.5
	c-3.1-3.2-7-5.5-9.7-9.2c-1.5-2-2.1-4.1-2.9-6.3c-0.3-0.7-1.2-2.7,1.3-2.3c1.2,0.2,1.2-0.8,0.7-1.4c-1-1.2-2.1-2.7-3.4-3.2
	c-3.7-1.4-4.1-5.3-3.8-7.6c0.6-5,1.2-10.6,6.9-13.2c1.6-0.7,3.1-1.6,4.4-2.8c5-4.8,10.3-4,15.8-1.1c0.6,0.4,1.7,1.2,1.6,1.4
	c-1.8,4,1.9,3.1,3.4,3.8c8.4,4.1,16.3,9,23.8,14.5c0.8,0.7,1.8,1.1,2.9,1l0,0C1251.4,13.8,1244.6,10.8,1239.6,6L1239.6,6z
	 M1220.1,316.7c0.1-1.2,0.4-2.7,1.9-2.9c1.7-0.3,1.3,1.6,1.7,2.4c2.3,5.4,4.5,11,6.8,16.4c0.9,2.2,0.8,3.5-1.4,2.8l0,0
	c-4.1-0.7-6.4-1.9-6.5-6c-0.1-3.2-1.4-6.3-2.1-9.4C1220.1,318.9,1220,317.8,1220.1,316.7z M1220.3,330.6c0.1,1.5-0.9,1.7-1.9,1.6
	c-1.4-0.2-3.5-0.4-3-2.4c0.4-1.6,0.4-4.6,2.5-4.4C1220.1,325.7,1219.5,328.8,1220.3,330.6L1220.3,330.6z M1230.6,326.8
	c-1.9-4.9-3.3-10.1-6.1-14.7c-0.9-1.7-0.7-3.4-1-5l0,0c0.3-1.9,1.2-3.7,3-3.9s2,1.7,2.7,3c4.7,10.2,8.9,20.7,12.4,31.5
	c0.3,0.8,1.5,1.7,0.3,2.6c-1,0.7-1.8-0.3-2.7-0.5C1231.9,338.4,1232.5,331.6,1230.6,326.8L1230.6,326.8z M1227.9,295.8
	c-1.4-0.2-3.1-0.8-1.8-3.8c0.9-1.4-0.3-4.9,3.1-5.9c0.8-0.3,3.9,5.1,3.4,6.2C1231.7,294.3,1230.3,296.1,1227.9,295.8L1227.9,295.8z
	 M1221.1,285.9c-3.3,7.5-4.2,15.8-6.8,23.5c-1.4,4.2-2.8,8.5-4.3,12.7c-0.4,1.1-0.9,2.1-2.7,1.5c-3.9-1.3-7.9-2.3-11.9-2.8
	c-6.2-0.7-11.1-4.1-16.3-7c-1.7-0.9-2.4-2.6-2.8-4.6c-0.4-2.3-0.9-4.6-1.7-6.9c-0.7-2.2-1.9-4.3-4.3-4.8c-3-0.7-5-2.6-6.8-4.9
	c-3.3-4.1-6.7-8.3-10.3-12.2c-2-2.2-3-5.1-4.8-7.4c-1.4-1.8-1.4-3.2,0.6-5.3c2.4-2.6,4.2-5.6,5.3-9c1.9-5.5,5.2-10.7,8.4-15.7
	c8.5-12.7,15.7-26.2,23.6-39.2c1.1-1.8,1.7-3.9,4.4-4c1,0,1.1-1.3,1.5-2c4.4-8.3,8.7-16.7,13-25.1c2.6-5.1,6-9.7,9.1-14.5
	c6.4-10.2,12.5-20.5,18.8-30.8c0.5-0.9,0.9-2.2,2-2c1.4,0.2,0.6,1.7,1,2.4c1.9,3.8,3.9,7.5,5.9,11.1c3.2,5.9,6,12,8.3,18.3
	c1.6,4.2,1.6,9,0.9,13.6c-3,22.3-7.8,44.2-13.4,66c-1.3,5.2-4.6,9.7-5.9,15.1C1229,263.4,1226,274.9,1221.1,285.9L1221.1,285.9z
	 M1232.6,81.1c-2.7-3.2-1.9-6.4-2.9-9.6c-0.1,0.4-0.3,0.9-0.3,1.3c-0.3,1.3-1,2.2-2.3,1.9s-1-1.5-0.9-2.5c0.4-3.4,0.5-6.8,0.3-10.1
	c-2.3,1.3-1.1,3.3-1.6,4.9c-0.2,0.8-0.1,1.8-1.2,2.1c-1,0.3-1-0.8-1.5-1.2c-1.5-1.2-3.1-2.4-4.7-3.5c-3.4-2.3-5.3-5.7-6.6-9.5
	c-0.3-0.9-0.2-1.5,0.6-1.9c1.1-0.5,2.3-1,3.1,0.1c1.4,2,4,1.4,5.6,2.3c1.6,0.9,2.1-1.5,3.5-1.3c0.9,1.2-0.3,2-0.3,3.1
	s0.1,2.5,0.8,3.1c0.8,0.8,1.3-0.7,1.9-1.1c0.3-0.2,0.6-0.3,1-0.4c4.6,1.1,9.1-0.1,13.7-0.1c1.4,0,2.2,0.2,2,2.2
	c-1,9-1.7,18.1-2.4,27.1c-0.1,1.4,0.3,2.8-1.6,3.3c-2.1,0.5-1.5-1.5-2.1-2.3C1234.6,86.8,1234.3,83.1,1232.6,81.1z M1227.2,54.7
	c0.9-1.9,1.4-4.5,4.1-4.8c1.1-0.1,1.6,1,1.8,2c-1.1,1.8-1.2,4.5-4.3,4.1C1227.9,55.9,1226.6,55.9,1227.2,54.7L1227.2,54.7z
	 M1242.5,53.4c-1.7,2.8-4.5,2.4-7,2.5c-1.4,0.1-1-1.2-0.4-2.2c2.1-3.5,3.7-7.3,6.3-10.4s6.6-4.6,10.1-6.6c0.8-0.4,1.4,0.3,1.3,1.5
	c-1.7,0.9-2.5,2.7-3.5,4.6C1247.2,46.4,1244.7,49.9,1242.5,53.4L1242.5,53.4z M1243.8,54.5c4.2-6.9,9.9-12.1,12.8-19.2
	c0.7-1.7,2.6-2.5,4.3-1.8c0.2,0.1,0.3,0.1,0.5,0.2c1.7,1,0.7,3.3-0.2,4.2c-4.3,4.4-6.2,10.1-9.4,15
	C1249.8,55.8,1246.9,55.2,1243.8,54.5L1243.8,54.5z M1253.4,52.9c1.5-2.5,3.2-4.9,5-7.3c2-2.2,3.5-4.8,4.5-7.6
	c0.8-2.7,2.4-2.9,4.9-1.9c3,1.2,2.2,3,1,4.7c-2.2,3.1-4.1,6.4-5.7,9.9c-1.8,3.9-5.1,4.2-8.7,4.2C1252.4,55,1252.7,54,1253.4,52.9
	L1253.4,52.9z M1264.5,52.3c2.6-3.5,4.8-7.2,6.8-11.1c0.9-1.9,2.3-1.6,3.7-0.6c2.1,1.5-0.3,1.7-0.8,2.6c-1.2,2.3-2.8,4.3-3.1,7
	c-0.4,3.3-2.5,4.3-4.8,4l0,0C1263.9,54.3,1263.4,53.6,1264.5,52.3L1264.5,52.3z M1171.3,42.7c-16.1-2.2-32.2-5.1-48.5-6.1
	c-2.5-0.3-4.9-0.9-7.2-1.7c-8.3-2.3-16.7-4.8-25-7.1c-4.8-1.4-10.2-0.6-14.8-3.2c-3.8-2.1-7.9-2.7-12.1-3.1c-3.1-0.3-4-1.7-3.6-4.6
	c0.1-1.3,0.2-2.7,0.1-4c0.9-5.5-1.2-10-1.4-14.7c-0.1-3.5,1-4.3,4-3.9c7.4,1.1,14.6,3.2,21.4,6.2c8.8,3.9,18,6.4,27.2,8.6
	c15.4,3.7,31.1,5.1,46.8,7.1c3.6,0.4,7.2,0.3,10.8-0.2c1.6-0.2,3-1.1,4-2.4c2.7-2.9,6-5.1,7.9-9c1.3-2.6,6.5-1.1,7.3,1.9
	c2.2,9.2,6.3,17.7,9.8,26.4c2.6,6.5,3.9,13.6,7.3,19.9c1,1.9-0.1,2.7-1.8,2.4c-3.8-0.6-7.6-1.4-11.3-2.2c-0.9-0.1-1.7-0.6-2.3-1.2
	C1185.2,45.5,1178.3,43.7,1171.3,42.7L1171.3,42.7z M1187.5,58.1c-0.2,1-1.3,1-2.2,1.1c-5.9,0.8-11.9,1-17.8,0.7
	c-6.3-0.9-12.7-0.2-18.9-0.1c-8.5,0-16.4-2.1-24.5-3.9c-0.8-0.3-1.5-0.8-2.1-1.4c-5-4.5-10.7-5.3-17-3.3c-2.6,0.9-5.1-0.1-7.3-1
	c-13.9-5.5-28.4-9.3-42.1-15.4c-2.4-1.1-3.3-4-1.9-7.1c1.1-2.5,2.8-1.3,4.6-0.8c9,2.8,18.2,4.9,27.4,7c12.6,2.9,25.1,5.9,37.3,10.2
	c7.9,2.8,16.7,2.8,25,3.5s16.6,1.4,24.8,2.8c4.9,0.8,9,3.5,13.3,5.6C1186.9,56.5,1187.7,57.1,1187.5,58.1L1187.5,58.1z M1173.4,0.7
	c0.3,0.8,1.8,1.5,0.5,2.5c-0.7,0.6-1.7,1.3-2.7,0.6c-0.8-0.6-2.1-0.8-2.1-2.3c-0.1-1.9,0.4-3.7,1.3-5.3c0.6-0.9,1.4-1.8,2.4-1.5
	c1.5,0.4,0.3,1.6,0.3,2.4C1172.9-1.8,1173-0.5,1173.4,0.7z M1176-4.9c0.5-0.4,1.4-0.4,1.6,0.2c0.4,1.5-0.2,2.8-2,4.2l0,0
	C1175.9-2.3,1174.3-3.6,1176-4.9z M1195.4,0.7c4.3-2.8,9.3-4.7,14.4-5.3c-2.3,2.6-5.3,3.7-8.2,5.1c-2.7,1.3-4.8,3-4.1,6.5
	c0.1,1,0,2-0.3,3c-0.1,0.6-0.5,1.2-1.1,1.3c-0.8,0.1-1.5-0.3-1.8-1C1191.8,6.9,1192,2.9,1195.4,0.7z M1194.5-3.5
	c2.1-3.4,5.1-2.1,7.4-2.9C1200.1-3.9,1197.6-3.9,1194.5-3.5L1194.5-3.5z M1189.7-49c0.3-0.8,1.4-1.9,2.4-1.2
	c1.2,0.8,0.1,1.8-0.4,2.5c-1.3,2-3.1,3.5-4.1,5.7c-0.7,1.6-2.5,1.3-3.9,1.5c-1-0.1-2-0.1-2.2-1.2s0.9-1.3,1.6-1.7
	C1185.8-44.6,1188.4-45.9,1189.7-49L1189.7-49z M1189.3-58.3c0-1,0.9-1.8,1.9-1.9l0,0c1.2,0,1.8,0.3,1.4,1.3c-0.3,1.1-0.7,2.1-2,2.2
	C1189.3-56.5,1189.3-57.4,1189.3-58.3L1189.3-58.3z M1218.4-54.9c0.4,1.5-0.5,2.4-1.8,3.5l0,0c-0.9-1.9-0.4-3,1-3.7
	C1217.7-55.2,1218.4-55,1218.4-54.9L1218.4-54.9z M1215.6-67.3c0.5-0.1,1.2-0.1,1.2,0.5c-0.1,1.6-1.5,2.1-3.1,3.3
	C1214.1-65.4,1213.7-67,1215.6-67.3L1215.6-67.3z M1206.4-60.6c0.1,3.1,2.9,3.2,4.2,4.7l-0.1-0.1c1.6,0.3,3.2-2.1,4.5-0.8
	c1.4,1.5-0.9,2.7-1.4,4.2c-0.8,2.6-1.9,4.8,2.3,5.1c1.3,0.1,2.5,0.9,4.1,1.5c0-2,1-3.8,2.7-4.8c1.1-0.9,2.2-1.3,2.9,0.5
	c0.4,1.1,1.1,1.6,2.2,0.8s2.3-1.8,1.3-3c-2.1-2.5-2.6-6.7-7.4-6.6c-2,0-3.1-2.7-3.3-4.5c-0.2-1.8,2-1.6,3.2-2.2
	c4.6-2.6,8.2,1.3,12.2,1.7c2.5,0.2,4.3,5.2,3,7.4c-1,1.7-0.4,2.5,0.4,3.9c1.4,2.4,1.1,5.4,1.9,8.1c0.5,1.7-2.1,1.9-3.7,2
	c-4.8,0.4-9.7,0.5-14.5,1.2c-10.4,1.5-21,1.4-32.1,1.9C1193.8-47.7,1200.6-53.4,1206.4-60.6L1206.4-60.6z M1197.8-57.6
	c0.4-1.2,1.5-2,2.8-2c0.7,0,1.4,0.3,1.1,1.1c-0.5,1.3-1.7,2.2-3.1,2.2C1197.7-56.3,1197.6-56.9,1197.8-57.6L1197.8-57.6z
	 M1124.9-136.7c-0.4-0.4-1.1-1-1.1-1.5c-0.6-8.4-5.1-17,0.6-25.4c1.7-2.5,2-5.9,3.7-8.5s8.8-6.1,11.6-5.1c1.8,0.6,3.8,2.5,2.8,4.2
	c-2,3.7-1,7.5-1.7,11.2c-0.2,0.9-0.1,2-1.6,2.5c-0.8-0.9,0.1-1.5,0-2.2s-0.2-1.3-1-1.3c-0.8-0.1-1,0.6-0.9,1.3
	c0.5,4.4-1.2,8.8-0.3,14.2l2.6-9.4c3.2,5.1,2.4,10.3,0.8,15.5C1139.2-136.5,1128.6-133.4,1124.9-136.7L1124.9-136.7z M1146.1-140.6
	c-2.1,5.5-6.5,8.4-12.6,8.4c2.2-1.8,5.2-2.4,6.9-4.9c2.2-3.7,3.8-7.7,4.8-11.9c2.3-8.9,2.2-18.3-0.3-27.1c-0.3-1.3-3-2.5-1.1-3.7
	s3.6,0.8,5.1,2.1c0.8,0.6,1.3,1.6,1.3,2.6C1150.8-163.4,1150.3-151.7,1146.1-140.6L1146.1-140.6z M1154.2-128.4
	c-1.7-1.8-3.2-4-5.1-5.4c-2-1.4-1.8-3.4-1-5.4c0.4-1.2,1.5-2.1,2.7-2.3c1.4-0.1,1.3,1.4,1.7,2.1c2.8,6.3,8.9,10.3,12,16.5
	s8.9,10.6,13.4,15.8c5.9,6.8,12.6,12.9,16,21.7c1.7,4.4,1,8.8,1.3,13.3c0.1,1.6,0.1,3.2,0.2,4.8c0.2,1.9-0.6,2.7-2.5,2.9
	c-3.8,0.5-4.7-0.3-4.3-4.1l0,0c0-0.9,0.4-1.8,1-2.4c1.2-1,0.9-2,0.3-3.3C1181.2-94.1,1169.1-112.4,1154.2-128.4L1154.2-128.4z
	 M1132.8-53c0.6-2.3,0.1-5.5,3.3-6.6c1.6-0.6,3.3-0.9,5-1.4c1.2-0.3,1.5,0.3,1.6,1.4c0.1,1.9,0.3,3.8,0.5,5.7l0,0
	c0.8-1.5,1.4-3.2,1.7-4.9c0.3-2.1,1.9-3.8,4.1-4.1c3.1-0.8,3.8-4,5.3-6.3c0.9-1.3,2-1.8,3.1-1.2c1.3,0.7-0.2,1.7-0.2,2.3
	c0.6,5.5-2.6,10.4-1.6,16c0.9-3.6,1.8-7.2,2.8-10.8c0.8-3.3,1.5-6.6,6-7.1c4-0.5,5.4,0.5,4.5,4.5c-0.7,2.5-0.8,5.1-0.5,7.7
	c1.2-2.1,1.9-4.5,2.1-6.9c0.2-1.9,0-4.5,2.8-4.4c2.9,0.1,5.6,1.7,7,4.2c0.6,1-0.7,1.5-1.4,1.8c-6.2,2.4-6.3,7.6-6.2,13
	c0,1.3,0.2,3.2,2.2,2.7c1.3-0.3,2.1-1.5,1.9-2.8c-0.1-0.3-0.2-0.5-0.3-0.8c-2.1-4.1,0.2-6.3,3.2-8.3c1.6-1.1,2.9-0.9,4.2,0.5
	c2.4,2.5,3.9,8.2,2.6,10.6c-1.5,2.7-5.4,3.1-9.8,2.9c-8.2-0.4-15.9-3-23.9-3.9c-5.3-0.6-10.6-1.3-15.8-2.2
	C1135.3-51.6,1132.4-51.7,1132.8-53L1132.8-53z M1173.1-42c0.6,0.1,1.1,0.4,1.5,0.9c0.3,0.6-0.4,1-0.9,1.4c-2.2,2-4.7,1.6-7.6,0.7
	C1168-41.4,1170.4-42,1173.1-42L1173.1-42z M1149.9-43.7c6.3-5.3,12-0.3,18.5-0.5C1163.2-39.5,1157.2-39.4,1149.9-43.7L1149.9-43.7z
	 M1117.3-58.8c4-0.5,7.9-1.9,12.1-1.5c2.3,0.3,2.9,1.2,2.5,3.4c-0.4,2-0.1,4.2-3.2,3.6c-1-0.2-2-0.3-3.4-0.5
	c-2.8,0.9-5.3-2.3-8.4-1.9c-0.7,0.1-1-0.6-1-1.3C1115.7-57.9,1116.4-58.7,1117.3-58.8L1117.3-58.8z M1149.8-47.3
	c-2.3,3-4.7,3.2-7.4,2.8c-8.2-1.4-16.3-3.3-24.3-5.5c-2.5-0.7-5.3-0.6-8.3-3.1C1123.6-51.9,1136.2-48.7,1149.8-47.3L1149.8-47.3z
	 M1090.2-65.2c5.6-0.5,11.1-0.9,17.4-1l0,0c2.5,0.2,4.5,2.3,4.8,4.8c0.9,5.7,1.1,5.6-4.9,4.7c-5.5-0.8-10.9-2.2-16.6-1.3
	c-2.5,0.4-3.5-1-3.8-3.4S1087.5-64.9,1090.2-65.2L1090.2-65.2z M1106-328.5c0.2-0.7,0.4-1.3,1.2-1c0.9,0.5,1.4,1.4,1.5,2.4
	c0.2,0.9-0.6,1-1.2,0.8C1106.5-326.5,1105.8-327.4,1106-328.5z M960.8-292.1c-1.2,0.7-2.6,2.6-4.2,1c-1.6-1.6-3.3-3.4-2.9-6.1
	c0.4-2.2,1.2-4.3,2.3-6.3c2.8-5.8,5.8-11.5,8.8-17.2c7.7-14.4,18.3-26,33.3-33.4c10.7-5.3,22.8-7.4,34.7-6.2c3.2,0.3,6.5,0,9.7,0.2
	c13.9,1,27.4,5.4,39.2,12.9c3.4,2.2,5.8,5.3,8.1,8.5c1.2,1.6,0.3,2.4-1.2,2.5c-2.5,0.3-5,0.4-7.4,0.4c-1.9,0-3.7,0.3-5.4,1
	c-1.5,0.5-2.3,1.6-1.2,3.1c0.8,1.4,1.4,2.9,1.6,4.5c0.9,3.8,0.2,4.5-3.8,4c-0.6-0.1-1.2-0.1-1.8-0.1c-0.2,0-0.3,0.3-0.6,0.6
	c1.8,1.8,3.8,3,6.4,2.2c1.3-0.4,3.4-0.7,3.5,0.9c0.1,2-2.1,1-3.2,1.2c-0.8,0.1-1.7-0.5-2.5,0.7c1.7,2.3,4.8,2.4,7,3.5
	c1,0.5,3.6-3,3.4-5.7c-0.1-3-0.9-5.9-2.2-8.5c-1.5-2.9-0.7-4.4,2.5-3.8c2.3,0.3,4.7,0.2,7-0.3c5.2-0.8,8.6,1.5,11.6,5.6
	c5.7,7.7,9.2,16.3,12.3,25.1c1.9,5.6,2.8,11.4,2.8,17.3c1.8-0.4,1.6-1.5,1.4-2.6c-0.1-0.6,0.1-1.3,0.9-1.3c0.5,0.1,0.9,0.4,1.2,0.8
	c1.1,1.8-0.2,8.1-2.1,9.8c-0.9-0.8,0.2-1.2,0.4-1.7c0.3-0.6,0.1-1.3-0.5-1.6c-0.6-0.3-0.9,0.1-1.2,0.5c-1.4,1.9-3.1,1.5-5,0.9
	c-8.8-2.8-18.2-3.5-27-6.7c-3-1.1-5.5-3.3-7-6.1c-2.8-4.3-5.2-8.8-7.3-13.4c-2.6-6.4-7.9-8.9-14.3-9.6c-4.7-0.5-9.4-0.9-14.1,0.1
	c-1.5,0.2-3-0.1-4.2-0.9c6.4-3.1,14-2.3,19.3-7.7c-2-0.6-4.2-0.5-6.2,0.4c-7.7,2.5-15.8,3.1-23.2,6.8c-2.2,1.1-5.1,1-7.4,2.3
	c-0.7,0.4-1.8,0.8-1.6,1.8c1,5.5,0.1,11.1,0.7,16.6c0.2,0.9,0.5,1.7,0.9,2.5c1.4-5.1,0.6-9.7,1-14.2c0.4-4.3,1.1-5,5.8-5.9
	c-2.2,4.9-1.3,9.9-1.6,15.3c1.3-0.8,1.2-1.8,1.3-2.7c0.2-2.1,0.4-4.3,0.6-6.3c0.2-1.9,0.7-4.4,2.9-4c2.6,0.4,0.5,2.8,0.7,4.3
	c0.1,1.5,0.1,2.9,0.1,4.4l0.9,0.1c0.1-1.6,0.3-3.2,0.4-4.8c-0.1-1.5,0.6-3,1.7-4c0.6-0.5,1.2-1,2-0.6c0.7,0.4,1,1.2,0.8,1.9
	c-0.1,1.3-0.8,2.6,0.3,4.3c0.6-3.1,0.1-7.2,4.2-6.8c3,0.3,0.3,3.7,1.5,5.5c0.9-0.9,0.7-2.2,0.9-3.2c0.2-1.7,1.4-2.7,2.7-2.5
	c6.7,0.8,14.1-1.1,19.3,5c2.8,3.3,4.3,7.5,6.3,11.3c1.1,2,3.7,4.3,0.6,6.9c-0.2,0.1-0.2,2.6,1.3,1.5c2.1-1.6,2.7-0.2,3.7,1.1
	c1.4,1.8,2.6,3.8,5.6,3.1c1.1-0.3,1.6,0.9,2,2.2c0.8,2.6-0.3,5.3,1.4,7.8c0-1.8,0.1-3.6,0.1-5.4c0.1-1.4,0.5-2.6,2-2.7
	s1.8,0.9,2.3,2.3c3.5,9.8,1.8,19.6-0.1,29.3c-1.1,5.7-2.9,11.3-4.3,16.9c-2,8.1-10.3,8.6-15.8,8c-6-0.7-8.6-4.2-10.9-9.2
	c-1.3-2.8-4-5-6.1-7.4c-3.2-3.7-5.2-8.1-7.5-12.3c-1.2-2.2,0.5-2.4,1.9-2.4c3.6-0.1,7.2,0.1,10.8,0.1c0.6,0,1.3,0.2,1.8-0.9
	c-3-1.4-6.2-1-9.2-1.4c-2.4-0.3-3.2-1.2-3-3.6c0.3-3.7,0.6-7.4,0.7-11.1c0-0.9,0.3-2.9-0.3-2.6c-1.4,0.7-2.8-1-4,0.4
	c-3,3.5-7.8,4.1-11.1,7.1c-1.6,1.4-3.3,1.3-5-0.5s-4-3.1-5.5-5c-6.7-8.1-16.5-11.1-25.5-15.3c-6.9-3.2-14.2-5.3-21.7-6.3
	C972.2-296.5,966-295.3,960.8-292.1z M1045.9-268.9c-0.4-0.3-2.2,0.3-0.9-1.2c1-1.2,2.8-0.3,4-1.6c0.5-0.6,0.6,0.4,0.6,0.8
	c-0.1,0.7,0.1,1.8-1.2,1.2S1046.3-270.1,1045.9-268.9z M1045.5-261.9c-0.4,0.3-1,0.2-1.3-0.2c-0.6-0.8-0.8-1.8-0.6-2.7
	c0.2-1.6,1.5-2.5,2.2-3.8c0.3,1.4,0.5,2.8,0.8,4.2C1046.8-263.5,1046.4-262.4,1045.5-261.9L1045.5-261.9z M977.1-262.2
	c-4.1-5.2-5.6-11.6-8.4-17.3c-0.4-0.8-0.2-2-1.2-2.1c-5.1-0.8-3.2-4.7-3-7.3c0.2-2.6,3-2.9,5.1-3.3c7.6-1.5,14.9,0.4,21.9,2.7
	c6.8,2.2,13.3,5.5,19.9,8.3c8,3.4,13.2,10,19.2,15.6c0.6,0.6,1.2,1.9,1.7,1.9c3.2-0.2,4,1.6,3.7,4.4c1.3-0.5,0.9-1.4,1.1-2.1
	c0.3-1,0.6-2.1,1.8-2.1c1.5,0,1.3,1.3,1.3,2.2c0,1.5,1,2.8,2.4,3.2c3.3,1.3,3.8,4.9,5.3,7.7c2.4,4.7,5.5,9.1,9.1,13
	c2.2,2.3,3.5,5.4,5.2,8.1c1.7,2.7,3.4,5.3,6.7,6c1.7,0.3,1.9,1.1,1.3,2.6c-0.7,2,1.3,4.8-1.3,6.2c-3.6,2-6.8,5.2-11.5,4.5
	c-3.5-0.6-7.1-1-10.6-1.8c-2.9-0.7-5.2-2.8-6.1-5.5c-2-5.1-4.9-9.7-7.1-14.7c-0.4-0.8-0.5-2.3-2-1.5c-1.1,0.6-0.5,1.6-0.3,2.6
	c0.4,1.8,1.4,3.5,0.8,5.4c-0.5-0.6-1-1.3-2-2.8c0.3,3.2-2.2,5.3-0.1,7.9c0.3,0.4,0.3,1.1-0.2,1.4c-0.1,0.1-0.2,0.1-0.3,0.2
	c-0.8,0.3-1.8,0.1-2.4-0.5c-3.9-2.8-8.1-5.3-11.7-8.4c-5.1-4.5-11.2-7.8-17.7-9.8c-1.7-0.5-2.8-1-3.1-3c-0.7-3.5-3.8-5.4-5.8-8
	C985.1-253.4,980.8-257.5,977.1-262.2L977.1-262.2z M1037.8-218.3c-0.6,1.6-1.6,0.6-2.3-0.1c-2-2-2.7-4.5-3.2-7.2
	C1034.7-225.2,1038.6-220.3,1037.8-218.3L1037.8-218.3z M986.9-226.8c1-1.2,1.9-2.5,2.4-4c0.8-2.4,2.9-2.3,5.4,0.7
	c-0.1-2.5,0.1-4.6,2.4-4.3c3.5,0.4,1.7,3.9,2.7,5.9c0.3-0.3,0.5-0.6,0.8-1c0.6-1,0.3-2.8,1.9-2.9c1.6-0.1,2.3,1.3,2.7,2.6
	c0.6,1.8,1.2,3.1,3.7,1.8c1.9-1,2.7,1,3.3,2.6c1.1,2.6,0.5,5.7,2.4,8.1c1-1,0.4-2,0.3-2.9c-0.1-1.2-0.2-2.4,1.2-2.8l0,0
	c1.4-0.5,2.9,0.2,3.4,1.6l0,0c1.1,2.5,1.7,5.2,2,7.9c0.1,0.7-0.1,1.5,0.8,1.9c0.8-0.4,0-1.1,0.3-1.6c0.8-1.4-0.6-4.1,1.6-4.5
	s3.6,1.9,5.4,2.9c0.2,0.1,0.3,0.3,0.4,0.6c-2.6,5.8,3.3,4.5,5.3,5.6c2.8,1.6,5.5,3,7.2,5.6c2.4,3.5,5.8,6.5,6.9,10.9
	c0.2,0.8,0.8,1.7,0,2.4s-1.6,0.3-2.4-0.2c-6-3.7-12.7-6.2-19.8-7.1c-2.3-0.4-3.4-1.9-4.5-3.5c-2.4-3.4-5.5-6.8-6.7-10.5
	c-1.2-3.9-4.1-4.5-6.4-6.3c-6.1-4.9-13.8-7.4-21.6-6.9C986.2-224.3,985.7-225.3,986.9-226.8L986.9-226.8z M908.9,34.4
	c4.6-2.8,9.2-5.5,13.7-8.3l0.5,0.8c-4.1,3-8.3,6.1-12.5,9.1c-0.6,0.5-1.4,0.5-2,0c-0.4-0.4-0.4-1,0-1.4
	C908.7,34.5,908.8,34.5,908.9,34.4z M909.8,25.8c1-2.4,4.4-3.5,7.7-2.4c-1.8,2.1-4.3,2.5-6.1,4c-0.4,0.4-1.2,0.7-1.6,0.1
	C909.5,26.9,909.5,26.3,909.8,25.8L909.8,25.8z M909.5,44.3c4.2-5,9.5-8.6,15-12c4.2-2.6,8.3-4.4,14-2c-2.6,1.7-4.8,3.1-7,4.5
	c-6.5,4.1-13,8.2-19.4,12.3c-1.1,0.7-2.5,2-3.6,0.8C907.5,46.8,908.7,45.2,909.5,44.3L909.5,44.3z M907.5,55.6
	c0.3-2.5,1.9-4.7,4.2-5.7c10.1-5.2,19.5-11.8,29.1-17.8c2.9-1.8,4.5,0.6,7.3,1c-13.5,7.7-25,16.6-36.9,25c-1,0.7-1.9,2.2-3.1,1.3
	S907.4,57,907.5,55.6L907.5,55.6z M907,66.1L907,66.1c0.2-2.6,1.7-5,4-6.1c10.4-5.6,19.7-12.9,29.6-19.4c3.1-2,6.8-3,9.5-5.8
	c1-1,2.4-0.4,3.6-0.3c0.6,0.1,1.3,0.1,1.5,0.9c0.2,0.8-0.5,1-1,1.3c-14.9,9.8-28.8,21.1-43.9,30.7c-0.8,0.5-1.6,1.4-2.7,0.9
	C906.5,68,907,66.9,907,66.1L907,66.1z M842,71.2c0.6,0.2,1.2,0.3,1.8,0.3c9-1.9,17.7,1.1,26.5,2.1c2.6,0.3,4.5,3.3,7.7,3.3
	c0.1-2-2.6-1.4-2.8-3.7l27.2,3.6c-0.9,1.4-2.5,1.8-3.2,1.3c-2.1-1.6-4.1-0.6-5.9,0.1c-7.8,3.3-15.5,0.9-23.2-0.1
	c-4.7-0.7-9.3-1.4-14.1-1.7c-0.7,0-1.5,0-2.2-0.3c-6.6-2.8-13.5-1.1-20.3-1.1c-5.2,0-9.2-2.3-13.2-5.3
	C827.6,69.5,834.9,68.6,842,71.2L842,71.2z M796.2,67.5c2,0.6,4.1,0.7,6.2,0.4c6.3-0.8,12,1.6,17.3,4.9c-5.8,0.3-11.7-0.4-17.3-1.9
	c-3.5-0.9-7.1-0.7-10.7-1c-2.9-0.2-5.6-1.5-7.7-3.5C788.1,65.9,792.2,66.3,796.2,67.5L796.2,67.5z M874.7,91.6
	c-5.2-0.6-10.3-1.5-15.5-2c-19.7-2.1-39.4-3.6-59.1-2c-2.9,0.3-5.7-0.7-7.8-2.7c-3.9-3.3-8-6.2-12.3-8.9c-1.3-0.8-2.9-1.8-2.3-3.4
	c0.6-1.6,2.4-0.5,3.7-0.5c3.6,0,7.2,0.3,10.8,1c7.9-0.3,16.3,1.7,24.8,2.6c1.9,0.2,4,0,4.7,2.7c0.2,1,1.5,1.2,2.5,1.3
	c15.8,1.9,31.3,5.7,46.8,8.8c1.3,0.1,2.7,0.4,4,0.7c1,0.4,3.1,0.1,2.9,1.6C877.7,92.4,875.8,91.7,874.7,91.6L874.7,91.6z
	 M838.1,79.2c-1.5,0-2.9-0.7-3.8-1.8c4.9,0.1,9.5-0.2,13.9,0.5c11.1,1.7,22.3,1.9,33.3,4.2c4.3,0.8,8.7,0.4,12.7-1.1
	c1.1-0.4,2.2-1.3,4,0.3c-5,1.6-9.2,3.9-13.5,6c-2.1,1-4.2,0.8-6.5,0.4C864.8,84.8,851.8,80.4,838.1,79.2L838.1,79.2z M880.5,92.1
	L880.5,92.1c2.7-1.8,4.9-0.5,7.7,1.1C885,94.6,882.8,93,880.5,92.1L880.5,92.1z M886,89c9.4-2.2,16.6-11.4,28.3-8.6l0,0
	c-3.7,3.6-8.1,5.3-11.7,8C894.8,94.2,896.7,92.9,886,89L886,89z M898,93.5c4.8-2.6,9.1-4.9,13.3-7.2c2-1.1,4.2-2.1,5.2-4.5
	c0.5-0.9,1.5-1.4,2.5-1.3c3,0.1,6,0.8,8.8,1.9c-6.6,3.1-13,6.9-18.8,11.2C905.5,96,902.1,94.9,898,93.5L898,93.5z M908.8,96.9
	c-0.3-0.2-0.6-0.6-0.5-0.9c0.3-1.1,1.2-1.4,2.1-1.9c4.7-2.3,9.3-4.7,14-7c0.6-0.2,1.1-0.6,1.5-1c4.3-6.3,10.2-3.5,16-2.8
	c-7.8,3.7-15.2,7.7-21.8,13C917.8,98.3,911.2,98.7,908.8,96.9L908.8,96.9z M1027.4,143.7c0.7-1.6,2.1-2,3.4-2.7
	c6-3.1,12.2-5.7,17.9-9.3c0.7-0.3,1.3-0.7,1.9-1.1c1-1,3.6-1.7,2.2-3.6c-1.2-1.5-2.5,0.5-3.7,1.2c-7.2,3.9-14.4,7.9-21.6,11.8
	c-1.2,0.7-2.5,1.1-3.9,1.1c-2,0-4-1.2-4.5-2.6s1.8-1.6,2.9-2.2c6.5-3.5,13-6.7,19.5-10c1-0.5,2.4-1.1,1.8-2.3c-0.7-1.2-2-0.5-3,0
	c-7.2,3.9-14.4,7.8-21.6,11.7c-1,0.7-2.2,1.1-3.4,1.2c-1.2,0-2.4-0.4-2.7-1.6c-0.3-1.2,1-1.5,1.9-1.9c5.5-2.7,11-5.3,16.4-8
	c1.2-0.6,2.9-1.5,1.9-3c-0.8-1.3-2.2,0.2-3.2,0.7c-6,3-12,6-18,9c-2.2,1.3-5,1.1-7-0.5c-6.5-5-14-8.3-21.4-11.7
	c-13.4-6.2-27.7-10.1-41.9-14c-7.3-2-14.5-4.2-21.6-6.3l0,0c-0.3-0.5-0.1-1.1,0.4-1.4c7.8-4.3,15.4-9.1,23.5-12.9
	c4.5-2.1,8.6,0.2,12.9-0.1c-8.2,4.9-16.6,8.9-24.1,14.5c2.3-0.2,4.5-1,6.5-2.2c7.1-3.9,14.9-6.3,21.7-10.7c2.6-1.7,4.3,0.4,5.9,1.6
	c1.4,1-0.3,1.6-1,2c-4.7,2.9-9.4,5.7-14,8.6c-1.3,0.8-2.8,1.6-3.5,3.2c1.2,0.6,2.2-0.2,3.1-0.7c5.3-2.9,10.7-5.8,16-8.8
	c1.6-0.7,2.7-2.2,2.9-3.9c0.3-3-0.5-3.8-3.4-4.3c-14.3-2.5-28.7-3.7-43-6.1c-4.7-0.8-9.4-1.2-14.1-1.7c-1.2-0.1-2.6,0.3-3.2-1.3
	c-0.4-1.4,0.2-2.9,1.5-3.6c3.6-2.6,7.4-5,11.1-7.5c10.5-6.9,20.9-14,30.9-21.6c5.2-4,10.4-7.1,17.7-3.4c6.6,3.3,14,4.9,21,7.3
	c0.4,0.1,0.8,0.4,1.7,0.8C978,56.7,965,63.8,951.5,71.5c2.9,0.6,4.5-0.8,6-1.5c11.8-5.9,23.5-11.9,34.1-19.9
	c1.3-1.2,3.2-1.6,4.9-1.1c4.3,1.5,8.7,2.6,13,4.3c3.9,1.6,8.4,2,12.3,3.8c0.8,0.4,2.2,0.2,2.1,1.6c-0.1,1.1-1.2,1.4-2,2
	c-6,4.1-12.7,7.4-18.3,12.1c-0.6,0.5-1.1,1.2-1.2,2c9.1-4.9,18.4-9.5,26.7-16.3c-5.2-3.5-11-5.4-16.5-7.4c-10-3.7-20-7.5-30.3-10.2
	c-16.4-4.4-32.2-10.9-48.6-15.4c-6.4-1.8-12.5-4.5-19.2-5.5c-1.8-0.3-3.1,0.6-4.9,0.4c-0.3-4.4,1-8.6,1.5-12.8
	c0.3-2.3,2.1-1.9,3.8-1.2c13.4,5.7,27.4,9.6,41.3,13.7c13.9,4.1,27.5,9.4,41.6,12.8c2.7,0.7,5.4,1.8,8.1,2.6
	c0.9,0.3,2.5,0.9,2.9-0.5c0.3-1.2-1.3-1.2-2.1-1.5c-9.9-4.3-20.5-6.5-30.7-10.1c-19.3-6.6-39-11.8-58-19c-0.3-0.1-0.7-0.2-1.1-0.3
	c-5.9-1.6-6.4-2.5-5.1-8.5c1.1-4.8,1.6-9.7,1.5-14.5c-0.2-2.4,0.8-4.8,2.7-6.3c2.2-1.9,3.9-4.2,5-6.9c1.8-3.6,4.6-6.1,8.4-9.3
	c-3.6,0.7-5.6,1.9-7.1,3.9c-1.8,2.4-3.7,4.7-5.5,7.1c-0.5,0.6-1,1.2-1.9,0.8c-0.7-0.3-0.6-1-0.5-1.6c0.3-3,0.6-5.9,0.8-8.9
	c0.1-1.5,1-2.1,2.2-1.8c1.6,0.3,2.3-0.7,2.9-1.8c3.1-5.9,7.3-11.2,12.5-15.5c-3.2,0.6-6.1,2.4-8,5c-2.4,2.9-4.5,6-6.7,9
	c-0.4,0.6-0.7,1.4-1.7,1.2c-0.8-0.2-1.3-1.1-1.1-1.9c0-0.1,0-0.1,0.1-0.2c0.3-1.8,0.4-3.7,0.1-5.6c-0.1-1-0.1-2.2,0.8-2.8
	c4.9-3,6.8-8.3,10.5-12.3c1.5-1.6,3.6-2.6,5.5-4.6c-4.7,0.1-7,3.3-9.6,5.8c-1.1,1.2-2.2,2.4-3.1,3.7c-0.6,0.7-1.1,1.9-2.3,1.3
	c-1-0.5-0.9-1.7-0.8-2.7c0.1-1.6,0.3-3.1,1.8-4.2c2.3-1.6,3-4.5,4.6-6.7c2.2-3.1,4.9-5.7,8-7.8c-1.9-0.2-3.8,0.5-5.1,1.9
	c-1.8,1.6-3.4,3.2-5,5c-0.9,1-1.4,2.9-3,2.3s-0.1-2.4-0.5-3.7c-1.1-3.9,1.9-5.6,3.9-8.2c2.9-3.8,5.6-7.8,8.4-11.8
	c0.8-1.1,1.8-2.1,2.8-2.9c0.9-0.8,3.6-0.7,1.4-3.4c-0.8-1,2.2-2.5,4-4.5c-3.5,0.5-5.2,2.3-6.8,4.1c-3.5,4-6.8,8.2-10.2,12.3
	c-0.6,0.7-1.2,1.9-2.3,1.5c-1.1-0.5-0.4-1.5-0.4-2.3c0.1-3.7,0.5-6.9,3.6-9.9s4.2-7.8,7.2-11.2c2-2.3,3.8-4.9,6.2-6.9
	c1.4-1.3,3.3-2.6,1.5-5c-0.7-0.9,0.5-1.5,1-2.1c2.3-3,5.3-5.1,8.1-7.6c-4.1,1.4-7.8,3.9-10.7,7.2c-4.7,5-9,10.2-13,15.8
	c-0.6,0.8-1.5,2.1-2.7,1.6c-1.2-0.5-0.4-1.8-0.4-2.7c-0.2-4,1.5-7.8,4.6-10.3c4.6-4,7.8-9.6,12.3-13.9c0.6-0.6,1.3-2,0.5-2.6
	c-0.8-0.7-1.9-0.1-2.5,0.8c-0.8,1.3-2.1,2.2-3.5,2.8c1.9-4.7,6.3-7.2,9.3-11c-5,2.1-8.5,5.9-11.7,10.1c-2.2,2.9-5.2,5.1-6.6,8.7l0,0
	c-0.3,0.6-1,0.8-1.6,0.5c-0.8-0.3-0.7-0.9-0.7-1.5c0-4.1,0.6-8.1,4-11.1c3.3-3.2,6.4-6.5,9.3-10.1c0.7-0.8,1.3-1.8,1.8-2.8
	c0.4-0.7,1.2-1.6,0.4-2.4c-0.8-0.8-1.9-0.4-2.8,0.1c-2.9,1.4-4.9,3.8-6.8,6.2c-0.8,1-1.3,2.1-2.1,3.1c-0.5,0.6-1.4,0.6-2.1,0.1
	c-0.8-0.5-0.1-1,0.2-1.5c10.1-14.6,19.2-30,31.5-42.8c8.7-9.1,16.1-19.2,24.6-28.4c3.7-4,7.6-4,11.6-3.4c5,0.8,9.8,2.6,14.8,4
	c1.8,0.5,2.8,2,4.1,3.1c5.5,4.7,10.6,9.9,13.9,16.5c2,3.9,5.1,5.2,9.2,5.9c7.9,1.3,15.6,4,20.3,11.1c2.7,3.7,4.7,7.9,5.9,12.3
	c2.2,9.5,5.7,18.8,6.7,28.6c0.6,6,1.4,11.9-3.3,16.8c-3.7,3.8-0.8,7,1.2,10.1c3.4,5.4,6.4,11.1,8.9,17c2.4,5.8,6,11.1,8.1,17.1
	c2.3,6.4,4.5,12.8,6.9,19.1c0.5,1.3-0.2,1.6-0.8,2.4c-2.5,3.1-5.9,5.3-9,7.7c-1,0.7-1.9,1.6-2.6,2.6c-0.4,0.5-0.4,1.2,0,1.7
	c0.6,0.5,1.1,0.1,1.6-0.3c2.6-2,5.2-3.9,7.6-6c1.5-1.5,3.6-2.1,5.6-1.5c16.3,3,32.1,8,48.2,11.4c9.2,1.9,18.3,4.1,27.5,5.9
	c4.5,0.9,8.8,2,12.7,4.8c2.2,1.5,2.2,2.8,1.4,4.6c-2.5,5.9-4.7,12-7.8,17.5c-2.8,5-3.5,10.5-4.5,15.9c-0.6,3-2,3.6-4.6,3.4
	c-8.8-0.5-17.6-1.5-26.1-4.3c-8.2-2.6-16.8-3.8-24.9-6.4c-14.6-4.7-29.9-6.4-44.3-11.3c-7.6-2.6-14.4-6.7-18.6-14.2
	c-2-3.5-5.5-5.9-8.7-8.5c-4.3-3.5-7.7-7.9-11.3-12.1c-1.7-2-3.8-3.5-5.5-5.4c-5.3-5.9-11.7-11.1-15.5-18.1
	c-2.7-4.9-3.8-10.7-5.2-16.2c-2-7.6-3.4-15.4-5.6-23c-2-7.3-2.6-14.8-4.5-22.2s-1.2-14.9-0.8-22.2c0.4-6.9,1.8-14.3,5.8-20.6
	c1-1.6,1-3-0.7-3.7c-1.7-0.7-2.3,0.6-2.8,2c-4.2,11.6-5.5,23.7-5.7,35.9c-0.1,6.6-0.7,13.1,1.3,19.6c0.1,0.2-0.2,0.6-0.1,0.7
	c4.1,7.1,2.1,15.1,3,22.7c0.4,3.5,1.4,6.8,2,10.1c0.2,0.9,0.9,2.6,2.1,2.2c1.5-0.5,0.3-1.9,0-2.8c-1.8-6.5-2.4-13.2-3.3-19.9
	c0-0.5,0-1,1-1.3c2.2,6,3.8,12.2,4.7,18.5c0.4,2.3,1.3,4.4,1.2,7s0,4.5-3.6,0.9c2.3,6.7,2.3,12.9,5.5,19c1.2-3.3-0.4-5.9,0.7-8.9
	c7,5.7,5.2,13.8,5.8,21c1.1-2,1.1-2,1-4.7c-0.1-1.6,0-3.4,1.6-3.8c1.9-0.4,2.2,1.6,2.6,3c0.8,2.7,0.7,5.6,2,8.3
	c0.3,0.6,0.4,1.2,1.3,1.1c1.1-0.9-0.7-2.1,0.6-3.1c2.9,1.1,1.3,4.8,3.3,6.6c-0.3-1.4-0.7-2.6,0.6-3.6c0.6-0.4,1.3-0.6,1.7,0
	c0.8,1.6,2.5,2.7,2.2,4.9c-0.4,3.5-0.5,7,2,10.1c-0.1-2.3-0.2-4.6-0.2-7c0-0.7-0.3-1.6,0.7-1.9c0.7-0.1,1.5,0.1,2,0.7
	c2.3,2.1,2.8,4.9,2.9,7.7c0.3,5.7,0.7,11.4,1,17.1c0,0.7,0.2,1.5,0.6,2.1c0.6-5.5,0.8-11,0.4-16.4c-0.1-1.3-0.4-2.6,1.1-3.2
	c0.8-0.4,1.8-0.1,2.2,0.7c0.1,0.1,0.1,0.3,0.2,0.5c0.1,1.3,3.2,2,0.6,3.7c-1.1,0.7-0.9,1.7-0.7,2.7c1.9,11-0.7,21.6-2.2,32.3
	c-2.8,20-0.9,40.4,5.7,59.5c2.3,6.7,4.3,13.5,7.9,19.6c0.7,1.2,1.3,2.1,2.7,2c0.8,0.1,1.5-0.5,1.6-1.3c0.3-1.4-0.4-2.1-1.7-2.9
	c-3-1.9-3.7-5.6-4.9-8.5c-1.3-3.2-3-6.5-3.3-10.1c-0.1-1-0.8-2.1,0.5-2.4c1.3-0.4,1.7,1,1.9,1.9c1.1,4.5,3.6,8.5,5.2,12.8
	c0.7,1.8,2.1,3.4,3.1,5.1c0.5,0.8,1.2,1.5,2.1,1c0.8-0.5,0.3-1.3,0.1-2c-0.9-2.2-1.6-4.4-2.6-6.5c-2.3-4.7-3.7-9.7-5.5-14.5
	c-1.1-3-1.9-3.6-4.7-1.9c-1.5,0.9-1.8-0.4-2-1.2c-1.8-6.9-3.8-13.8-4.5-21c-1.8-19.9,2.2-39.1,5.9-58.5c0.2-0.9,0.3-1.7,1.3-2
	s1.5,0.5,2.2,1.1c3.7,3.4,6.7,7.6,11.4,10.5c-5.9,3.5-6.2,9.1-4.8,14.7c2.1,9,0.3,17.8-1.1,26.6c-0.9,5.2,0.1,7.8,5,9.8
	c10.6,4.3,21.4,8,32.2,11.7c3.6,1.2,7.2,2.7,10.7,4.1c0.9,0.4,2.4,0.7,1.3,2.4c-4.8,6.8-6.1,15.2-9.6,22.6
	c-6.6,13.9-13.6,27.6-22.4,40.3c-2.1,3-5.9,5.1-5.4,9.8c0.1,1-1.7,1.9-3,2.5c-8.8,4-17.5,8.4-26,13
	C1031.1,145.2,1029.3,145.3,1027.4,143.7L1027.4,143.7z M1034.5,147.4c-1.5-1.3,0.3-1.8,1.1-2.3c5.1-2.6,10.2-5,15.3-7.6
	c2.2-1.1,4.4-2.3,6.6-3.4c4.7-2.5,4.7-2.5,9.8,0.7h-0.1c-7.2,4.5-14.5,7.9-21.6,11.6c-1.6,0.7-3.1,1.6-4.6,2.4
	C1038.4,150.7,1036.4,148.9,1034.5,147.4L1034.5,147.4z M1051,150.2c-2,0.9-4,1.9-6.1,2.7c-1.1,0.6-2.4,0.1-3-1
	c0-0.1-0.1-0.2-0.1-0.2c-0.4-1.4,1.1-1.5,1.9-1.8c7.9-3.5,15.6-7.7,23.2-11.9c2.7-1.7,5.8-2.6,9-2.5l0,0
	C1067.7,140.6,1059.9,146.4,1051,150.2L1051,150.2z M1074.6,131.9c-1.6-0.3-3.1-0.7-4.7-1c-4.9-0.9-5.8-3.7-2.4-7.6
	c5.5-6.3,9.7-13.5,13.7-20.8c7.7-14,14.3-28.7,19.7-43.8c1.8-5.1,9.7-7,13.7-4.1c1.6,1.1,3.6,1.6,5.3,2.6c3.1,1.7,3.3,2.2,2.6,5.6
	l0,0c-0.2,15-8.7,26.5-16.1,38.3c-5.5,8.7-11.3,17.3-19.4,23.9c-2.6,2.1-5.3,4.1-8,6.1C1077.6,132,1076.1,132.3,1074.6,131.9
	L1074.6,131.9z M1109,132.9c-8,0.3-15.8-0.6-24.6-0.6c2.2-2,3.7-3.3,5.3-4.6c8.9-7.6,14.9-17.5,21.1-27.3c3.3-5.1,6.2-10.4,9.1-15.8
	c2.5-4.6,3.9-9.7,4.2-14.9c0.2-3,3-5.3,2-8.6c-0.1-0.6,1.9-0.9,3-0.5c10.2,3.9,20.8,2.6,31.3,2.7c6.2,0.1,12.4,0.4,18.6,0.1
	c3.7-0.1,7.4-0.5,11.1-0.9c8.3-0.9,16,2,24,3.1c3.3,0.5,5.5,4,7.6,6.7c3,3.9,5.6,8.2,8.5,12.2c0.7,0.8,1.1,1.9,1.1,3
	c0,0.6,0.1,1.6,0.4,1.7c6.1,1.9,3.4,6.6,3.4,10.5c-0.2,10.2-7.2,17.4-11.4,25.7c-12,23.6-26.9,45.6-40,68.6
	c-6.7,11.7-14.8,22.7-21.1,34.6c-6.7,12.7-15.3,24.4-20.8,37.7c-1.5,3.4-1.5,7.4,0,10.8c3.5,7.5,6.3,15.5,12.6,21.4
	c1.4,1.3,1.2,3.5,3,4.6c0.8,0.5-0.1,1.3-0.7,1.7c-6.8,4.7-14.2,8-22.6,8.9c-5.5,0.6-11.1,1.1-16.4,3.1c-1.8,0.6-3.8,0.3-5.4-0.7
	c-8.8-4.4-18.1-7.4-27-11.4c-3-1.4-2.6-2.1-0.8-4.2c8.7-10.3,16.8-21.2,19.9-34.5c5.3-22.6,15-43.5,23.3-65.1
	c5.6-14.4,10.4-29.1,15.5-43.8c3.5-10,8.3-19.1,16.1-26.4c2.8-2.6,6-4.6,8.3-7.7c1.3-1.7,2.6-3.4,3.6-5.3c-3.9,0.7-5.9,3.1-8.2,4.9
	c-3.9,3.1-8.5,5.2-13.4,6.1C1136.2,131.2,1122.6,132.6,1109,132.9L1109,132.9z M1125.4,138.8c-0.9,0.1-2.3,1.5-2.6-0.5
	c-0.3-1.2,0.4-2.4,1.6-2.7c0.2-0.1,0.5-0.1,0.8-0.1c2.3-0.2,4.7-0.3,7-0.6c6.8-0.9,13.6-1.9,20.5-2.9c-1.8,2.4-4.6,3.9-7.7,4
	C1138.3,136.3,1131.9,137.9,1125.4,138.8L1125.4,138.8z M1140,138.7L1140,138.7c-6.4,1.5-12.2,4.6-18.8,5
	C1127,140,1133.7,139.7,1140,138.7L1140,138.7z M1109.4,185.2c2.6-10.5,5.7-20.8,7.7-31.4c0.9-4.7,2.7-7.6,8.1-8.6
	c6.9-1.2,13.6-3.8,20.4-5.8c0.5-0.1,0.9-0.1,1.4,0l0,0c-6,4.7-13.4,6.4-19.6,10.3c5.8-0.8,11.2-3.4,17-4.3c-6.4,5-14.9,6-21.3,11.2
	l18.4-5.7l0.5,1.1c-3.7,3.6-9.1,5-13.4,9.5c3.8-0.6,6-2.2,8.4-3.4c0.9-0.5,2-1.8,2.8-0.4c0.4,1.1,0,2.4-1,3c-1.7,1-3.4,2-5.2,2.8
	c-1.8,0.9-3.8,1.8-5.2,3.8c2.4,0.4,4-1.1,5.8-1.7c0.9-0.3,2.1-1,2.7,0.2s-0.6,1.8-1.4,2.2c-2.7,1.5-5.5,2.9-8.2,4.4
	c-1.1,0.6-2.5,0.7-3,2.3c3.7,0.9,6.5-2.8,11-1.8c-4.6,3.3-9.4,5.2-12.7,9.7c3.8-0.2,6-3.1,9.7-3.6c-1.3,3.5-0.3,7.4-6,8.1
	c-3.1,0.4-5.6,4-8.3,7.7c4.5-1.3,6.7-4.9,11.3-5.9c-2.8,4.1-2.5,8.8-6.2,11.8c-3.3,2.6-7.1,4.5-9.9,7.9c3.4-0.2,5.8-3,9.4-4
	c-2.7,6.9-4.4,13.9-8.1,19.8c-2.4,3.9-7.6,6-12.1,9.3c1.2-8.2,2.2-15.5,3.2-22.9c0.3-2.1,3.7-3.9,0.7-6.4
	C1107.2,198.1,1107.8,191.5,1109.4,185.2L1109.4,185.2z M1086.1,249.5c-0.7,0.4-1.3,1.5-2.2,1c-1.1-0.6-0.4-1.8-0.4-2.7
	c0-0.5,0.1-1,0.4-1.4c3.8-5.2,8.9-9.4,14.8-12c-3.9,14.3-9.7,26.4-15.7,38.5c-1.7-5.5-0.4-10.8,0.3-15.9c0.8-5.5,7.3-7,9.9-12.4
	C1089.9,245.8,1088.3,248.1,1086.1,249.5L1086.1,249.5z M1094.1,234.3c-2.9,0.9-5.4,3.8-7.9,5.9c-0.7,0.6-1.4,1.3-2.3,0.7
	s-0.4-1.6-0.1-2.4c0.2-0.7,0.6-1.3,1.1-1.9c4.1-3.6,8.2-7.2,12.3-10.7c0.8-0.7,1.9-1.1,2.9-1C1100,229.4,1099,232.7,1094.1,234.3
	L1094.1,234.3z M1095,224.9c-3,1.4-5.3,4.3-8,6.5c-1,0.8-1.8,2.1-3.4,1.9l0,0c-1.1-5.1,0.4-9,4.9-12.1c3.5-2.4,6.6-5.6,9.9-8.4
	c1.2-0.9,2.6-1.7,3.9-2.4C1101.3,216.6,1101.3,222.1,1095,224.9L1095,224.9z M1098,210.5c-3.7,2.1-6.7,5.4-10.1,8.1
	c-1.2,1.2-2.8,2.1-4.4,2.5c-0.2-2.1-0.1-3.8,1.4-5.2c5-4.7,9.9-9.4,14.9-14c1.1-1,2.2-2.1,3.8-2C1104,204.8,1102.3,208,1098,210.5
	L1098,210.5z M1081.5,210.2c1.8-2.8,3.9-5.4,6.2-7.8c5.3-5.3,11-10.3,17.9-13.9c-0.7,4-0.3,7.8-5,10.2c-6.2,3.2-11,8.9-16.2,13.6
	c-0.9,0.8-1.6,2.5-3,1.6C1080,213,1080.8,211.2,1081.5,210.2L1081.5,210.2z M1067.1,222.4c0.8-0.9,1.7-1.7,2.6-2.6l0,0
	c0.4,0.5,0.8,1,0.8,1.1c-1,1.8-2,3.6-3.2,5.3c-0.3,0.4-1,0.2-1.2-0.3C1065.8,224.6,1066.2,223.3,1067.1,222.4z M1051.8,284.2
	c3.2-7.9,5-16.4,8.8-24.1c1.1-2.3,2.6-4.4,3.9-6.6l1,0.3c-0.1,7.3,1.3,14.5,2.3,21.8c0.3,1.8,0.7,3.6,1.2,5.4c0.2,0.7,0,1.7,1.2,1.4
	c0.8-0.2,0.9-1,0.8-1.8c-0.5-4.5-1.2-9.1-1.5-13.6c-0.3-5.6-1.1-11.1-1.9-16.6c-0.7-5.1,2.1-9.3,4.5-13.5c0.3-0.7,1.1-1.1,1.9-0.9
	c0.6,0.2,0.6,1,0.8,1.6c1.1,3.2,0.2,6.6,1.6,9.8c0.7,1.5-0.6,3.1-1.7,4.3c-1.4,1.2-2.4,2.9-2.9,4.7c2.1,1.2,2.3-2,4.2-1.6
	c-0.5,6.3-1.5,12.6-1.5,19c0,9.4-3.3,18.2-4.2,27.4c-0.4,3.6-1.3,7.1-0.2,10.8c0.7,2.2-0.9,2.8-2.6,1.8c-6.3-3.5-13.5-2.8-20.3-4.4
	c-2.6-0.6-3.1-1.3-2.7-3.9C1045.5,297.8,1049.1,291.2,1051.8,284.2z M989.3,269.1c0.8-0.9,1.3-2.6,2.7-2s-0.1,2,0,3
	c0,1.1-0.1,2.2-0.2,3.3c-0.9,8.3-3.6,16.2-5.4,24.3c-0.4,1.9-1.5,2.4-3.2,2.1c-2.1-0.3-2-1.7-1.6-3.3c1.6-6,3.1-11.9,4.8-17.9
	C987.2,275.4,987,271.9,989.3,269.1z M970.8,289.3c-0.1,0.5-0.4,0.9-1,0.9c-0.9-0.1-0.9-0.8-0.8-1.4c0.8-3.7,1.6-7.4,2.6-11.1
	c0.2-0.7,0.7-1.8,1.8-1.4c0.9,0.3,0.4,1.2,0.5,2.1C972.9,281.9,971.8,285.5,970.8,289.3L970.8,289.3z M974.6,292
	c-0.1,0.7-0.4,1.6-1.4,1.3s-0.5-1.1-0.3-1.8c1-2.7,2.6-5.3,3.2-8.3C976.3,286.1,975.1,289,974.6,292L974.6,292z M977.4,296.7
	c-1.3-0.4-1.1-1.5-0.8-2.5c0.9-3.7,1.8-7.5,2.7-11.2c0.7-2.8,1.5-5.5,2.1-8.3c0.3-1.8,1.2-2.9,3.6-3.9c-1.5,6.4-2.8,12.3-4.1,18.2
	c-0.4,1.9-0.9,3.8-1.4,5.8C979.2,296,978.9,297.1,977.4,296.7L977.4,296.7z M1071.1,326c1,4.8-1.4,3.5-4.3,2.9
	c-9.9-2.2-19.8-4.6-29.8-6.5c-18.1-3.5-35.8-8.3-52.8-15.6c-0.8-0.3-1.6-0.6-2.4-1s-2.8,0.3-2.2-1.6c0.5-1.5,1.8-2.6,3.5-1.4
	c2.3,1.6,5.1,2.3,7.5,3.6s4.8,1,7.2,0.8c1.6-0.1,2.1-1.2,2.1-2.5c0-1.7-1-2-2.5-1.6c-2.1,0.5-2.4-0.3-1.8-2.4
	c2.7-9.5,5.2-19,7.7-28.5c0.9-3.5,2.5-6.8,1.9-10.8c-2,0.8-2.6,2.4-3,4.2c-2.6,10.7-5.3,21.5-7.9,32.2c-0.2,0.6-0.4,1.2-0.4,1.8
	c0.1,2,0,3.5-2.8,2.9c-2.6-0.6-3.7-1.7-2.9-4.5c1.4-4.5,2.9-9,3.9-13.6c1.3-5.9,3.3-11.7,2.1-17.9c-0.2-1.1,0.9-1.3,1.7-1.7
	c6.1-3.4,12.4-6.7,18.4-10.3c7.3-4.3,14.3-9,21.5-13.4c1-0.6,2.7-2.7,3.4,0.1c2.4,9.1,5.4,18,8.7,26.7c1.4,3.7-0.1,6.7-1.7,9.8
	c-3.9,7.8-6.4,16.1-8.9,24.4c-0.7,2.4,0.4,4.8,0,7.3s-0.9,3.1-3.5,2.3c-8.9-2.8-18.1-4.4-27.3-6c-1.8-0.3-1.9-0.1-4.3,2.7
	c23.8,3.9,46.3,11.7,70,14.9C1071.8,324.1,1070.9,325.1,1071.1,326z M1088.3,330.2L1088.3,330.2c3.3,0.8,5.1,3.6,7.8,5.1
	c1.1,0.7,2.4,3.9,3.6,0c0.2-0.5,1.3-0.3,1.7,0.1c1.8,2.4,4.8,3.6,7.8,3.3c0.2,0,0.4,0.5,0.9,1.1
	C1101.1,339.9,1093.3,338.6,1088.3,330.2L1088.3,330.2z M1114.8,341.4c3.1-1.1,4.9,0.4,6.8,1.9L1114.8,341.4z M1121.1,338.2
	c-15.3-6.6-31.2-11.3-46.4-18c-0.5-0.7,0.4-1.4,0.9-2.4c1.1-2.6,1.9-3.5,5.4-1.7c5.6,3,12.1,4.4,18.2,6.4c2.9,0.8,5.7,1.9,8.3,3.2
	c1.9,1,4.2,1.6,3.9,4.6c-0.1,1.1,1,1.5,1.9,2c2.8,1.6,5.5,3.2,8.3,4.9L1121.1,338.2z M1148.6,349c-2.4-0.5-4.8-1.1-7.2-1.9
	c-0.5-0.1-1.1-0.2-1.4-0.5c-5.9-7.5-15-10.5-22.6-15.7c-0.9-0.6-1.8-1.3-2.7-2c-0.6-0.5-2-0.3-1.4-1.7c0.4-0.9,1.2-0.9,2.3-0.8
	c1.1,0.1,2.2,0.5,3.4-0.7c-10.8-4.9-22.1-7.5-32.8-12c-1.8-0.8-3.6-1.6-5.4-2.6c-1.3-0.9-3-0.8-4.1,0.3c-2,2-2.2,1.3-2.8-1
	c-1.4-5.6,0.6-10.6,2.8-15.4c5.4-12.3,11.2-24.3,16.2-36.8c2.7-6.7,6.4-12.9,7.9-20.1c0.1-0.5,0.3-0.9,0.7-1.3
	c3.5-2.6,7.3-4.9,11.2-6.8c-3,8.3-6.5,15.5-8.5,23.3c-0.5,2.2-2.4,4-4.3,5.5c-1.5,1.2-3.2,2.3-3.6,4.4c1,0.7,1.4-0.1,2.1-0.4
	c0.9-0.4,1.6-2.1,2.8-1.1c0.9,0.8,0.2,2.1-0.1,3.2c-1.9,7.3-6.1,13.6-9.7,20.1c-3.3,5.9-7.5,11.1-11.6,16.3c-1.7,2.3-3,4.8-4,7.4
	c0.5,0.6,1.4,0.7,2,0.2c0.1-0.1,0.3-0.3,0.4-0.4c2.5-3.3,4.8-1.6,7.6-0.2c5.8,2.8,11.8,5.2,17.8,7.7c1.7,0.7,3.4,1.5,5.1,2.2
	c3.3,1.4,6.4,3.2,10.7,0.9c3.8-2,8.7-2.2,13.1-2.6c8.3-0.7,16.4-3.3,23.5-7.7c2.3-1.5,5-2.4,7.7-2.6c1.7-0.1,3.9-0.7,4.4,1.7
	c0.5,2.1-0.8,4.1-2.8,4.7c-5.2,1.6-10,4-15.4,5.3c-7.9,1.9-15.9,4-23.3,7.3c-2.6,1.2-2.6,2.4-0.3,4.1c6.1,4.4,12.4,8.6,18.3,13.4
	c2.1,1.7,4.1,2.7,7.3,2.1c2.8-0.6,4.8,3,8,5C1155.1,351.2,1151.9,349.4,1148.6,349z M1271.9,355.6c-0.3,1.5-1.8,2-3.2,2.2
	c-5.5,0.9-11.1,1.4-16.7,1.7c-19.7,1-39.2-2-58.8-3.3c-4.4-0.3-6.8-2.9-9.7-5.4c-1.7-1.4-3.2-3.1-5.3-4l-0.1-0.1
	c-1-0.5-2.3-0.2-2.8,0.9l0,0c-0.7,1.2,0.4,1.6,1.3,2.1c1.9,1.2,3.6,2.6,5,4.3c-7.7-0.7-15.7,0.4-21.9-6.2
	c-7.3-7.8-16.5-13.3-25.2-19.3c-0.5-0.3-1.2-0.5-1.4-1.7c6-1.9,12.4-3.3,18.2-5.9c5-2.3,10.9-1.4,15.3-5.1c1.1-0.9,3.1-0.3,3.8,0.4
	c2.1,2.2,4.9,3.3,7.1,5.3c8.1,7.4,16.8,14,26.1,19.7c1.9,1.2,4.1,2.3,1.4,5c-0.8,0.9,0.8,2.6,0,3.9c-1.7,0.3-2.8-3.3-4.3-1.2
	c-1.7,2.4,1.5,2.7,2.6,3.9c1.5,1.6,2.7,3.7,3.5-0.6c0.3-1.3,2.3-0.7,2.8,0.9c0.3,1,0.2,2.7,1.7,2.2c1.2-0.3,1.6-1.8,1.4-3.2
	c-0.3-1.6-0.8-3.1-1.3-4.6c-2.2-7.8-7.7-12-14.9-14.9c-3-1.2-5.6-3.4-8.4-5.2c4.5-1.6,7.8,0.6,11.2,1.8c6.7,2.5,13.4,5.1,20.4,6.7
	c4.1,0.9,8,2.7,11.9,4.2c1.3,0.5,2.5,1.8,1.8,3.2c-0.7,1.3-2.1,0.5-3.3,0.2c-4-1-7.7-3.6-12.3-2.7c0.5,2.2,1.6,3.2,3.9,3.8
	c8.8,2.4,18,3.7,26.1,8.4c1.1,0.7,2.4,1,3.7,0.6c-3.4-3.3-7.4-4.7-11.2-6.6c-1.8-0.9-5.1-1.2-4.3-3.7c0.9-2.8,3.5-0.3,5,0.3
	c6.5,2.6,13.3,4.4,19.8,7.2c2.7,1.2,6.1,0.4,8.7,2.4C1270.4,354.3,1272.2,354.2,1271.9,355.6L1271.9,355.6z M1298.5,332.6
	L1298.5,332.6c11.4-22.2,24.5-43.4,37.9-64.5C1324.4,289.9,1312.7,312,1298.5,332.6L1298.5,332.6z M1292.5,65.8
	c0.3,0.4,0.7,1,0.6,1.3c-3.2,6-1.6,12.5-2.2,18.7c-1.7,17.1-4.4,34-7.1,50.9c-2.3,14.8-4.3,29.5-6.4,44.3
	c-1.4,10.2-2.7,20.5-4.2,30.7c-0.3,2.2,0.2,4.3-0.6,6.4c2.2-6.3,2.6-13,3.4-19.5c1.2-10.8,3.5-21.3,5-32c2.4-17.1,5.3-34.1,7.7-51.2
	c1.7-12.3,3.5-24.6,4.3-37.1c0.2-2.3-0.3-4.7,0.6-7c0.7-2,1.7-2.4,3.1-0.5c2.1,2.8,4.2,5.6,6.3,8.3c1.4,2,2.1,4.5,2,7
	c0,3.4,0.1,6.8,0.2,10.3l1.1,0.1c0.1-2.2,0.1-4.3,0.2-6.5c0.1-1.2-0.4-2.7,1.2-3.3c1.6-0.5,2.3,1,2.8,2c3.4,6.8,7.9,12.9,11.7,19.5
	c1.1,1.9,2,3.4,0.3,5.9c-1.2,1.8-0.8,4.8-0.8,7.3c0,3.2,0.3,6.5,1,9.7c0.3-2.9,0.6-5.8,0.7-8.7c0.1-2.1,0.1-4.2,0.1-6.3
	c0-0.8-0.1-1.5,0.8-1.7s1.3,0.6,1.7,1.2c3,3.9,5.5,7.9,4.6,13.3c-0.3,2.5-0.1,5,0.6,7.4c0.3-2.1,0.6-4.2,0.9-6.3
	c0.1-0.6,0.2-1.3,0.9-1.5s1,0.5,1.3,1c2,3,3.9,6,3,10c-0.4,1.5-0.3,3.3,2.3,2c1.2-0.6,1.9,0.5,2.3,1.3c2.6,5.1,5,10.3,4.3,16.3
	c-0.1,1.9,0,3.7,0.3,5.6c0.3-0.2,0.6-0.2,0.6-0.3c0.4-1.6-0.7-4.1,1.5-4.4c1.8-0.2,2.3,2.1,2.9,3.8c0.7,1.9,1.6,3.6,2.6,5.3
	c1.7,3,3.1,5.9,0.7,9.2c-1.1,1.5-0.4,3.2-0.5,4.7c-0.4,12.2-1.7,24.4-3.8,36.4c2.2-2.5,1.9-5.3,2.6-7.8c0.7-2.7,1.2-5.4,1.5-8.1
	c0.4-2.7,0.8-5.4,1-8.2c0.3-4.2,0.4-8.5,0.6-12.7c0.1-1.2,0-2.9,1.4-3.1c1.4-0.2,1.6,1.4,1.8,2.4c1.2,5.3,3.5,10.5,2.7,16.1
	c-0.2,1.3-0.3,2,1.5,2.7c2.8,1,4,8.4,2.7,12.6c-1.9,6.3-5.5,11.7-9.2,16.8c-6,8.2-11.4,16.9-16.8,25.5c-8.4,13.5-16.9,26.9-25,40.6
	c-8.8,14.8-17.3,29.8-25.9,44.8c-0.2,0.4-0.3,0.9-0.5,1.4c1.7,0.5,3,1.2,1.4,3.1c-3.2,3.6-4.7,8.9-10.5,9.7c-1.7,0.2-1.9-0.7-2.4-2
	c-3.7-9.5-7.6-18.9-11.5-28.3c-0.3-0.8-0.5-1.6-1.3-1.9c0.7,5,2.6,9.6,4.2,14.2c1.6,4.5,3.7,8.9,5.6,13.3c-0.8,0.6-1.8,0.6-2.6,0.1
	c-5.4-2.8-11.2-5.1-17.2-5.5c-7.7-0.6-10.8-5.1-12.6-11.8c-2.9-10.3-6.1-20.6-11.3-30.1c-1.2-2.2,0.5-5.1,3.5-6.3
	c2.7-1,2.8,1.6,3.5,2.9c6.5,13,12.1,26.4,17.3,40c0.5,1.3,0.8,4.1,2.5,3.4s-0.3-2.8-0.7-4.2c-3.7-10.8-8.3-21.3-13-31.6
	c-1.6-3.5-3-7.1-5.1-10.3c-2.2-3.3-1.3-6,0.4-8.9c0.3-0.5,0.5-1,0.8-1.6c-0.4-0.2-0.6-0.5-0.7-0.5c-4.5,2.2-5.2,2-8.8-2.1
	c-0.3-0.4-0.4-0.8-0.4-1.3c1.8-9.4,4.5-18.6,9.5-26.8c0.9-1.5,1.9-1.8,2.9,0.1c1.9,3.5,3.9,6.9,5.9,10.4c8.1,14.5,14.4,29.8,20.7,45
	c1.5,3.6,2.8,7.4,5.5,11c0.3-3.2-1.6-4.9-2.4-7c-4.2-10.8-8.2-21.6-12.7-32.2c-2.6-6-5.5-11.9-8.8-17.5c-2.6-4.6-4.1-9.8-8.2-13.6
	c-1.1-1-1.2-3.2-0.6-4.9c0.3-1.2,0.7-2.4,1.2-3.5c0.8-1.7-0.4-4.8,2.1-5c2.1-0.2,2.2,2.9,3.3,4.4c7.5,10.4,13.6,21.6,19.3,33.1
	c1,2,1.9,4.1,4.8,5.5c-1.5-3.4-2.6-6.3-3.9-9.1c-6.2-12.9-12.9-25.5-21.1-37.3c-2.8-4.1-2.5-5.7,0.7-10.1c3.6,4.1,5,9.4,7.5,14
	c0.9,1.6,2.1,3.1,3.4,4.5l0,0c0.4,0.5,1.2,0.5,1.7,0.1c0.8-0.6,0.1-1-0.2-1.5c-3.9-7.3-6.4-15.2-11.5-21.8c-0.4-0.5-0.8-0.9-0.7-1.6
	c1.4-6.1,0.9-12.6,3.8-18.6c1.4-3,1.4-6.5,2.1-9.8c2.8-12.7,6.2-25.3,4.3-38.5c-0.7-5-4.6-8.4-6.6-12.8c-4.3-9.5-9.2-18.7-13.9-27.9
	c-0.4-0.7-0.5-1.6-0.2-2.4c4-13.4,4.6-27.3,6.1-41c0.9-9.1,0.7-9.1,9.7-9.5c4-0.2,8,0,11.9-0.7c5.4-0.9,9.6,1.8,14,3.9
	c1.7,0.8,1.2,2.5,0.9,3.6c-1.7,7.8-1.6,15.8-2.3,23.7c-1,11.5-2.8,22.9-4.1,34.4c3.2-13.6,5.3-27.4,6.3-41.3
	c0.2-3.2,0.9-6.5,0.7-9.7c-0.2-3.8,3.2-4.9,4.6-7.5C1285.8,63.6,1291.8,64.8,1292.5,65.8z M1277.9,43.2c0.8,0,1.4,0.6,1.6,1.3
	c2.2,5.9,3.9,11.9,8.2,16.9l0,0c-5.6-1.6-10.4-4.4-15.2-7.1c-0.9-0.5-0.3-1.4,0.1-2c1.8-2.2,2.4-4.8,3.2-7.4
	C1275.9,43.9,1276.8,43.1,1277.9,43.2z M1286,11.7c-6.7,1.3-10.2,5.3-10.9,12c-0.1,1.2,0.5,3-1.4,3.4c-1.7,0.4-2.3-1-3.2-2
	c-3.3-3.8-7.7-6.1-11-9.9c-3.5-4-5.3-9.3-9.9-12.3c-0.8-0.5,0.1-1.3,0.5-1.9c0.8-1,2.2-1.9,1.1-3.1c-1.1-1.3-2.1,0.5-3.2,0.8
	c-1.8,0.6-3.4,1.5-5.2,2.1c-4.1,1.3-10-1.2-11.5-4.7c-3.3-7.6-2.2-12,3.9-15.5c3.7-2.1,8.6-0.2,12.3,3.2c3.2,3,1.7,6.7,3,9.9
	c0.6,1.3,0.1,3.2,2.3,2.9c2-0.3,4.7,0.8,5.7-2.2c2.3-6.5,3.5-13.3,3.3-20.2c0-3.3-1.6-6.4-4.3-8.2c-1.5-1-1.7-2.2-1.9-3.7
	c-0.5-6.1-1-6.5-7-6.3c-0.6,0-1.4,0.1-1.7-0.3c-0.6-0.7,0.1-1.4,0.6-1.9c1.8-1.6,1.2-3.2,0.7-5.4c-0.6-3,0.5-6.4,0.7-9.6
	c0.6-9.3,1.8-18.5,1.8-27.9c0-4.6-1.7-9.1-4.8-12.5c-3.3-3.8-6.2-7.9-10.3-11c-2.2-1.7-0.3-4.1,0.4-6.1c0.3-0.7,0.7-1.3,1.1-1.9l0,0
	c6.9,5.6,10.7,13.2,15.7,19.8c1.4,2.1,2.1,4.6,2,7.1c0.4,10.7,1.5,21.3-0.1,32c-0.5,3.3-1.6,6.3-1,9.9c0.5,2.6,1.8,3.1,3.7,3
	c1.6-0.1,2.9-0.5,4.4,0.9c2.3,2.1,4.2,4.6,5.7,7.3c0.6,1.3-1.3,1.8-2.3,2.4c-2.4,1.6-3,4.4-0.8,5.9c2,1.4,2.9,3.2,4.1,5
	c0.3,0.4,0.5,1.2,0.8,1.2c5.1,0.8,2.3,3.9,1.6,6c-1.5,4.7-4.9,8.2-8.5,11.5c-1.4,1.3-2.7,2.7-2.8,4.7c-0.1,1.6-0.6,3.4,1.3,4.3
	c1.8,1,3.9,1,5.8,0.1c1.1-0.5,1.6-1.7,1.2-2.8c-0.4-1.7-1.5-0.7-2.4-0.5c-1.1,0.3-2.3,1.3-3.1,0c-0.7-1.3,0.9-1.8,1.7-2.5
	c4-3.9,7.5-8.3,10.5-13c0.6-1,1.3-2.6,2.8-1.6c1.3,0.8,1,2.3,0.2,3.3c-1.7,2.2-0.9,6.1-5,6.5c-0.8,0.1-0.7,0.9-0.3,1.5
	c1,1.5,1.6,3.3,3.3,4.4c4.7,2.8,8.3,6.9,12.3,10.6C1290,8.3,1289.2,11,1286,11.7L1286,11.7z M1353.8,32.5c0.8,0.1,2,0,1.8,1.3
	c-0.1,1.1-1.2,1.4-1.9,1.8l0,0c-0.9,0.1-1.7-0.7-1.8-1.6c0-0.1,0-0.1,0-0.2C1352,32.8,1352.8,32.4,1353.8,32.5z M1368.7,86.5
	c-1.9,0.8-1.9-1-2.4-2c-7.5-14.6-14.5-29.5-23-43.6c-1.7-2.4-3.6-4.8-5.6-6.9c-0.7-0.9-2.6-1.1-1.8-2.8c0.7-1.4,2.2-0.6,3.3-0.5l0,0
	c8.6-0.1,11.3,6.2,13.5,12.7c3,8.9,7.2,17.1,11.3,25.5c2.3,4.6,3.4,9.5,5.7,14.1C1370.4,84.5,1370.3,85.8,1368.7,86.5z M916,299.6
	c4.8,3,8.5,7.3,12.4,11.5C924.2,307.3,919.2,304.4,916,299.6L916,299.6z M808,130c2.7-1.4,4.9-3.7,8.2-4.1c-2.6,1.6-4.5,3.9-6.8,5.9
	c-0.7,0.6-1.7,1.6-2.5,0.5C806.1,131.3,807.3,130.4,808,130z M756.2,100.8c7.2-1.4,14.6-1.7,21.9-0.9l2.6,0.2c2.2,0.2,5-0.3,6.5,0.9
	c1.3,0.9,0.9,4,1.9,5.7c3.6,6.4,5.9,13.7,12,18.5c-1.5-5.2-5.3-9.1-7.5-13.9c-0.5-1.1-1.2-2.2-1.7-3.3c-0.4-0.9-0.8-2.1,0.4-2.6
	c1.2-0.6,1.2,1,1.8,1.4c6,4.1,8.8,10.5,11.8,16.7c0.6,1.3,2.2,2.8,0.3,4.2s-3.2,0.1-4.4-1.3l-0.7-0.9c-0.5,3.6-4,1.3-5.1,2.5
	c-1.4,1.5-1.8,4.4-4.6,3.9c-2-0.4-2.8,0.1-3.9,1.6c-1.4,1.9-3.1,2-4.3-0.5c-0.6-1.5-1.6-2.8-2.9-3.9c-6.2-4.7-10.5-11.2-16.2-16.3
	c-3.4-3-6-6.8-9.6-9.8C753,101.3,755.2,101,756.2,100.8L756.2,100.8z M801.8,131.4c-4.8,3.9-9.2,8.3-14.9,10.9
	c-0.7,0.3-1.5,1-2.5,0.3c0.5-2.1,2.6-2.2,3.9-3.2c3.9-3.2,7.9-6.3,11.9-9.5c0.6-0.4,1.2-1.1,1.9-0.4
	C802.9,130.2,802.4,130.9,801.8,131.4L801.8,131.4z M712.8,102.3c1.2-3.8,4-5.5,7.8-5.9c7.2-0.8,14.3-2.1,21.5-1.7
	c1.6,0.3,3.1,0.8,3.3,2.8c0.1,2.1-1.8,1.7-3,1.8c-9.2,1-18.1,3.3-26.9,5.8c-1.1,0.3-2.6,1.1-3.5,0.1S712.4,103.3,712.8,102.3
	L712.8,102.3z M592.1,300.4c-6-1.5-5.7-1.4-2.6-6.8c7.5-12.8,15.3-25.4,22.1-38.7c6.8-13.3,15-25.9,22.3-39
	c10.4-18.6,22.6-35.9,35-53.1c4.9-6.9,9.1-14.3,14.5-20.8c8-9.5,14.8-20,25-27.5c0.3-0.2,0.9-0.4,0.9-0.6c0.8-5.1,5.2-4.2,8.5-5.2
	c7.6-2.2,15.3-4.3,23.3-4.9c6.2-0.5,11,2,15,5.5c8.2,7.2,15.7,15.2,23.4,22.8c1.3,1.3,1,2.3-0.4,3.3c-1.9,1.5-4.7,1.5-6.6,0
	c-5.9-4.3-12.7-6.7-19.7-8.5c-6.5-1.6-9.6,0.2-12.6,6.2c-3.3,6.5-5.8,13.4-7.3,20.5c-0.6,3.2-1.4,6.5-0.9,9.6c0.5,2.8-1,3.3-2.8,4.3
	c-5.3,2.8-11.5,4.3-15.5,9.2c-0.1,0.2-0.2,0.5-0.2,0.8c1.7,1.1,3.2,0.4,4.7-0.2c3.8-1.9,7.4-4.4,11.4-5.3c4.9-1.2,8.8-3.6,13.1-5.9
	c10.3-5.4,21.6-8.9,31.9-14.3c10.6-5.6,21.6-10,32.7-14.2c7.4-2.8,14.9-5.4,22.4-8c5.9-1.9,11.8-3.5,17.9-4.7
	c11.5-2.6,23-1.8,34.5-1.8c0.3,1.8-1.6,1.8-1.6,3.2c0.7,0.7,1.9,0.8,2.6,0.1c3.4-2.6,7.1-2.2,11-1.8c13.2,1.4,25.8,5.4,38.5,8.7
	c7.9,2,15.9,4.2,23.8,6.3c12.4,3.4,23.8,9.4,35.4,14.6c14,6.2,27.5,13.2,41.1,20.2c10.3,5.3,20.2,11.1,29.9,17.3
	c2.6,1.6,2.6,2.5,0.1,4c-9,5.5-18,11-26.9,16.7c-13.7,8.8-28.1,16.3-42.4,24c-30.5,16.5-62.8,27.7-96.8,34.6
	c-8.4,1.7-13.5,0.7-17.6-6.8c-4.9-9-13.4-13.1-23-15.8c-4.1-1.1-7.3-4.3-11.7-5.5c-16-4.1-32.5-6.5-49-7
	c-19.3-0.4-38.5,1.2-57.4,4.7c-18.5,3.3-36.3,9.3-53.4,17.1c-19.6,8.8-37.7,20.5-55.8,32c-4.6,2.9-9.6,5.4-14.1,8.3
	C607.5,303.1,599.9,302.3,592.1,300.4z M776.5,143.4c-0.7,3.3-1.2,3.8-4.7,5.1C772.8,146.1,774,144.4,776.5,143.4z M735.2,158.7
	c1.2-7.9,2.8-15.8,6.8-22.9c0.5-0.9,1-2.3,2.4-1.7c1.2,0.5,0.6,1.8,0.4,2.7c-1.8,8.3-4.2,16.4-7,24.4c-0.3,1-0.5,2.2-1.8,2
	c-1.6-0.2-1.1-1.6-1.1-2.7C735.1,159.9,735.2,159.3,735.2,158.7L735.2,158.7z M744.2,151.6c0.5-1.5,1.5-2.8,2.8-3.7
	c3.9-3.3,5.3-7.9,6-12.8c0.2-1.5-0.1-3.5,2.1-3.1c1.8,0.3,1.6,2.3,1.3,3.8c-0.8,2.9-1.8,5.7-2.6,8.5c-0.4,1.1-0.8,2.4,0.6,2.8
	c1.4,0.5,1.3-1,1.8-1.8c1.5-2.7,2.5-5.7,3-8.8c0.2-1.9,1.3-3.1,3.2-2.7c2.2,0.5,1.1,2.1,0.8,3.3c-0.7,2.2-1.2,4.5-1.5,6.9
	c-0.3,2.6-1.8,4.9-4.1,6.1c-4,2.4-7.7,5.4-11.5,8.2c-1.2,0.8-2.3,1.9-4.2,1.3C742.6,157,743.4,154.3,744.2,151.6z M764,149.8
	c0.6-0.5,1.5-1.4,2.2-0.4c0.7,1-0.2,1.9-1.1,2.4c-3.6,2-7.1,4.4-11.9,5.6l0,0C756.5,153.6,760.8,152.5,764,149.8L764,149.8z
	 M764.1,145.1c0-2.7,1.3-4.5,1.8-6.4l0,0c0.4-1.1,1.6-1.7,2.7-1.3c1,0.1,1.9,0.8,2.3,1.7c0.4,1.2-0.8,1.7-1.5,2.2
	C767.7,142.6,766.1,143.7,764.1,145.1L764.1,145.1z M625.1,305.7c-3.7-0.2-7.4-0.6-12.2-1l0,0c4.8-4,9.5-5.8,13.6-8.6
	c8.1-5.7,16.6-10.8,25.1-15.9c3.4-2,7.4-3,10.5-5.3c9.8-7.3,20.7-13,32.3-17c14.6-5,29.1-10.4,44.5-13c19.2-3.4,38.7-4.9,58.1-4.5
	c15.9,0.5,31.5,2.4,46.7,6.9c5.6,1.6,10.9,4.1,15.7,7.4c2.4,1.7,5.7,1.2,8,3.4c4.5,4.1,8.5,8.7,12.2,13.6c1.2,1.6,1.9,3.4,4.4,3.5
	c1.3,0,2.5,1.2,3.3,2.3c5.4,7.2,12.5,12.6,19.3,18.3c1.7,1.5,3.3,3,4.8,4.6c8.5,8.9,18,16.7,27.3,24.7c4.2,3.5,8.1,7.4,11.5,11.7
	c1.5,2.1,3.1,4.1,4.8,6c-21,0.6-41.7-1-62.7-2.5c0.5-1.7,2.1-1.7,3.1-2.4c4.2-2.6,4.8-6.2,1.4-9.7c-13.7-14.2-30.1-25.7-48.1-33.8
	c-13.3-6-27.4-9.6-41.4-13.4c-20.6-5.5-41.6-8.7-62.8-10.7c-3.2-0.3-6.2,1.4-8.8,1.4c-3.9-0.1-6.6,1.4-9.6,3
	c-4.6,2.5-8.3,6.2-11.8,10.1c-4.5,5.1-9.8,9.3-15.2,13.4c-3.2,2.4-5.5,5.7-6.6,9.6c-0.6,2.1-1.6,2.3-3.4,2.5
	c-5.8,0.4-11.4-0.5-17.1-0.9C656.4,308.1,640.7,306.9,625.1,305.7z M640.5,330c-0.1-1.5,1.7-2.8,2.7-2.5c1.7,0.6,4,1.3,3.9,3.7
	c0.1,1-0.7,1.9-1.7,1.9c-0.3,0-0.6,0-0.9-0.2C642.5,332.8,640.6,332.3,640.5,330L640.5,330z M643.4,338.8c-0.3,1.7-0.5,4-3.5,3.3
	c-1.3-1.1-4.9,0-4.2-3.6c0.4-2,1.1-4.8,3.5-4.4C641.1,334.5,644,335.7,643.4,338.8L643.4,338.8z M645.1,324.7c0-0.7,0.6-1.3,1.3-1.3
	c0.2,0,0.5,0.1,0.6,0.2c1,0.5,2.4,0.9,2.6,2.3c-0.4,0.9-1.1,1.4-1.8,0.9C646.9,326.2,645.1,326.3,645.1,324.7L645.1,324.7z
	 M648.7,333.5c1.2-1.8,2.7-1.1,4.2-0.3c8.2,4.5,15.7,10.3,24.1,14.6c1.6,0.8,3,1.6,4.6,2.4l-0.1,0.8c-4.4-1.5-8.9-2.6-13-4.6
	c-6.1-2.8-12-6.2-18-9.3C649,336.3,647.3,335.6,648.7,333.5L648.7,333.5z M650.2,317.7c1-1.1,1.9-2.4,3.6-2.1
	c1.2,0.3,2.4,0.7,3.6,1.2c-1,1-2.1,1.9-3.2,2.8c-1.2,0.7-2.7,0.7-3.9-0.1C649.5,319.1,649.6,318.3,650.2,317.7L650.2,317.7z
	 M653,329.5c-0.6-0.4-1.6-0.6-1.3-1.6c0.3-1,1.4-1,2.2-0.9c1.5,0.1,2.7,1.2,4,1.8c8.9,4.4,17.8,8.7,26.7,13c1.4,0.7,3.1,0.9,4.6,1.5
	c0.7,0.2,1.3,0.8,1.3,1.6c-0.3,3.1-4.4,5.3-7.3,3.8C672.6,343.5,662.7,336.6,653,329.5L653,329.5z M687,358.3c1-4.4,3.6-5.1,7.5-5.2
	c17.6-0.7,35.2-1.2,52.7-4.2c2-0.5,4,0.1,5.4,1.5c1.7,1.5,3.5,2.8,5.3,4c-8.1,2-15.7,2.7-23.4,3.3l-44.8,4.1
	C685.9,362.2,686.1,362.2,687,358.3L687,358.3z M680.8,337.7l0.3-1.1l12.2,3.6l-0.3,1.1C688.3,342.5,684.9,338.7,680.8,337.7
	L680.8,337.7z M685.5,335.5c-8.7-3.6-17.4-7.3-26-11.2c-1.1-0.5-3.9-0.8-3.1-2.8c0.7-2.1,3-2.9,5.6-2.7c2.2,1.1,4.8,2.3,7.3,3.5
	c8.3,3.9,16.6,7.9,24.9,11.8c0.8,0.4,2.3,0.3,2,1.7c-0.2,1.2-1.3,2-2.5,1.9c-0.1,0-0.2,0-0.3-0.1C690.7,337.2,688,336.5,685.5,335.5
	L685.5,335.5z M685.9,327.5c-6.2-3.3-12.5-6.5-19-9.2c-0.6-0.2-1.5-0.4-1.6-0.8c-1.3-3.3-4-3.8-7.2-3.8c3.3-1.9,7.4-1.8,10.6,0.2
	c9.1,5.3,18,10.9,27.7,15c0.7,0.3,1.3,0.7,1.9,1.2c0.5,0.5,1.4,0.9,1,1.8c-0.4,0.8-1.3,1.1-2.1,0.7c0,0-0.1,0-0.1-0.1
	C693.3,330.8,689.5,329.4,685.9,327.5L685.9,327.5z M674.1,313.9c0.3-0.7,1.1-1.1,1.8-0.9c1.9,0.3,3.7,0.7,6.3,1.2
	c-2.7,1.2-4.5,2.4-6.8,1.1C674.8,314.9,673.8,314.9,674.1,313.9L674.1,313.9z M680.7,318.4L680.7,318.4c3.3-1,5.6,0.9,8.1,1.9
	c4,1.5,7.9,3.3,11.9,5.1c0.8,0.3,2.3,0.3,1.5,1.8c-0.5,1.1-1.8,1.6-2.9,1.2C693.1,325,686.9,321.7,680.7,318.4L680.7,318.4z
	 M695.9,313.5c-2-1.8-1.5-3.4,0-4.6c2.2-1.7,3.4-3.9,4.9-6c4.9-6.6,11.4-11.7,17.2-17.3c4.7-4.6,10.5-7.4,15.9-11
	c2.9-2,6.3-1,9.3-0.7c17,1.6,34,3.5,50.5,7.7c15.3,3.8,30.6,7.2,45.3,13.1c17.3,7.1,33.5,17,47.7,29.1c2.5,2.1,4.5,4.6,6.8,6.9
	c0.5,0.4,0.8,1,0.8,1.7c-0.2,1.7-1.2,2.1-2,2.8c-4.4,3.4-8.6,1.9-13.3,0.6c-16.4-4.4-33-7.6-50-8.2c-11.3-0.4-22.6,0.1-34-0.1
	c-3.2,0.1-6.4,0.4-9.6,1c-14.6,2-29.5,2.6-43.8,6.5c-3.1,0.9-6.5,0.3-9.2-1.6c-8.2-5.3-17.6-8-26-12.9
	C702.8,318.2,699.1,316.3,695.9,313.5L695.9,313.5z M861.5,397.3c-1.4,0.1-3.3-0.9-3.7,1.4s1.6,2.3,3.1,2.3
	c-3.5,5.8-7.2,11.1-7.2,17.9c0.1,1.1-0.2,2.2-0.6,3.3c-5.9,11.1-10.4,23-18.5,32.7c-12.8,15.2-27.9,27.5-46.9,34.5
	c-9.2,3.4-18.5,6.7-28.2,8.2c-7.9,1.3-15.9,0.9-23.8,1.3c-0.5,0-1.2,0.2-1.9-1.4c14.7,1.1,28-2.8,40.5-9.4
	c-40.5,14.2-53.6,6.4-69.6,5.5c0-1.1,1.3-0.4,1.6-1.2l-3.5-2c0.6,3.5-1.1,2.8-3,2c-9.1-3.8-17.7-8.5-25.9-14
	c-12.1-8-22.2-18-32-28.7c-10.8-11.8-16-26.1-20.3-41c-3.4-11.8-4.8-24.2-4.1-36.5c0.6-11.2,4.3-21.8,9.5-31.8
	c4.5-8.9,9.8-17.4,15.9-25.3c1.3-1.5,2.9-2.8,4.7-3.6c0.8-0.5,1.8-0.2,2.3,0.6c0.8,0.9,0.1,1.6-0.6,2.2c-8.1,6.4-12.3,15.5-17,24.3
	c-7.6,14.3-9.7,41.1-4.1,54c1.6-0.4,0.7-1.6,0.6-2.4c-1.5-12.9-1.9-25.8,2.3-38.4c0.6-1.5,0.9-3.1,1.6-4.6c1.6-3.7,4-4.3,7.3-1.9
	c1.5,1,0.8,2.3,0.5,3.4c-1.9,6.3-1.4,12.8-1.7,19.2c-0.1,1.3,0.6,2.6,1,4.1c1.4-1.3,1.2-2.7,1.2-4c0-5.4,0.4-10.7,1.3-16
	c0.6-4.4,1.5-4.8,5.5-3.4c7,2.5,13.9,5.3,20.7,8.4c2,0.9,4,1.9,6.6,1.2c-2.5-1.3-4.9-2.7-7.5-3.8c-6.9-3.2-13.8-6.2-20.8-9.2
	c-1.8-0.8-2.8-1.8-2-3.7c0.8-1.9,2.2-2.7,4.2-1.4c6.6,4.2,14.2,6.3,21.2,9.8c3.5,1.8,7.5,2.6,11.3,3.9c1.9,0.6,2.5,1.2,1.6,3.7
	c-2.8,8-3.7,16.5-2.6,24.8c0.5,4,1.4,7.8,1.9,11.8c1,7.6,5.4,13.6,9.8,19.4c7,9.4,15.3,17.8,24.5,25c14,10.8,30.3,12.8,47.5,8.3
	c5.8-1.5,11.1-3.5,15.4-7.8c1.3-1.3,2.6-2.6,2-4.7c-0.4-1.5,1-1.4,1.7-1.8c4.6-3.1,10.2-4.7,13.4-9.7c0.2-0.3,0.7-0.5,0.7-0.8
	c0.6-6.9,4.3-2.8,7-2c5.2,1.5,9.9,4.4,15.6,4.8c14.1,1.1,24.6-10.3,25.2-22.3c0.1-1.6,0.2-3.2,0.3-4.8c0.1-1.8-0.3-3.4-2.4-3.5
	c-2.3-0.1-2.1,2-2.3,3.5c-0.1,0.7,0,1.5,0.1,2.2c0.5,2.4,0.2,4.4-2,5.9c-1.5,1-1.6,2.8-2.2,4.2c-3.2,8.3-6.8,11.1-15.7,10.2
	c-8.2-0.9-15.9-4.2-22.3-9.3c-5.2-4-4.9-10-4.1-15.7c0.4-2.7,1.6-5.2,2.5-7.8c0.2-0.9,0.8-1.6,1.7-1.9c6.5-2,12.5-5.5,19.3-6.5
	c0.5-0.1,1.1-0.3,1.5-0.1c2,1.3,4.1,0.7,4.4-1.3c0.3-2.1-2.6-1.9-3.8-1.9c-8.1-0.1-16.1,0.3-23,5.4c-0.9,0.7-1.7,3-2.5-0.1
	c-0.2-0.7-1.1-0.1-1.5,0.3c-3.2,3.4-5.9,7.1-7,11.8c-1.2,5.3-2.6,10.5-1.2,16c0.4,1.3-0.2,2-1.4,1.8c-1.6-0.2-4.6,0.3-4.5-1.2
	c0.4-5.6-0.5-11.1-0.3-16.7c0.1-3.8,1.8-6.7,3.9-9.6c0.5-0.7,1.2-1.6,0.3-2.3c-0.9-0.7-1.5,0.4-2.2,0.7c-4.4,2-5.5,5.7-5.7,10.1
	c-0.3,5.9-0.9,11.8,0.7,17.9c-1.3,0.5-2.8,0.2-4.2-0.1c-5.6-1.1-11.2-2.2-16.8-3.6c-1.9-0.5-4.5-0.5-2.7-4.5
	c2.1-4.7,2.3-10.1,5-14.7c1.3-2.2,1.1-3.9-2.4-3.8c-7.5,0.1-14.9,0.2-22.2,1.8c-1.3,0.3-2.7,0.6-3.1,2.6c7.7-0.8,15.2-2.4,22.8-1
	c-1.1,4.4-3.2,8.3-3.2,12.7c0,1.7,0.3,3.3-1.5,4.7c-1.3,1-0.4,2,0.7,3c4.3,4.1,10,4.1,15.1,5.6c9.5,2.8,19.5,2.6,29.1,4.5
	c0.9,0.2,2.1-0.3,2.5,1c0.3,1.1-0.2,2.3-1.1,3c-2,1.8-4.5,2.7-7.1,2.8c-10.1,0.6-20.1,1.5-30.1,2.3c-0.4,0-0.8,0.3-0.9,0.7
	c9.7,1.9,19.2,0.3,29.8,0.1c-2.6,2.1-4.3,3.4-6,4.8c-1.9,1.5-3.7,3.2-5.1,5.2c-2.4,3.3-6.6,3.8-10.3,4.8c-12.6,3.6-25,3.5-37.1-2
	c-1.7-0.7-3.2-1.8-4.5-3.3l0.1,0.1c-6.5-3.2-11.5-8.3-15.6-13.9c-4.4-5.9-9.7-10.8-14.2-16.5c-4.8-6.2-6.7-13.8-7.8-21.4
	c-0.9-5.7-0.9-11.4-0.1-17.1c0.4-2.6,1.2-3.8,4.2-4c19.3-1,38.5-1.7,57.7-4c3.3-0.4,6.7-0.9,9.9-1.6c6-1.3,10.2,1.5,14.1,5.4
	l-0.1-0.1c2.3,0.9,4.6,1.9,6.9,2.7c1,0.4,2.2,0.7,3.2-0.2c0.7-0.7,0.5-1.6,0.3-2.5c-0.4-1.5-1.6-0.8-2.6-1c-3.7-0.5-6.9-2.7-9.3-5
	c-3.8-3.6-8.9-5.1-12.7-8.5c-1.8-1.6-3.1-4.2-6.1-3.2c-2.3,0.8-4.6,0.6-6.9,0.8c-10.1,1-20.2,2.3-30.4,3.3
	c-7.2,0.7-14.3,1.1-21.6,1.7c2-7.8,8.7-12.9,16.7-12c4.5,0.5,8.2-2.5,12.6-2c0.9,0.1,1.2-0.7,1-1.6c-0.3-1.5-1.3-1.8-2.5-1.6
	c-3.2,0.6-6.4,1.2-9.5,1.9c-2.4,0.6-4.9,0.3-7.2-0.7c4.3-3.4,9.4-4.3,13.7-4.8c5.2-0.5,9.4,4.1,14.2,6.3l-0.1,1.2l-31.9,4.2l0.1,1.3
	c4.3-0.1,8.6-0.1,12.9-0.4c6.9-0.5,13.9-1.4,20.8-1.9c4.1-0.3,7.4-2.9,11.5-3.6c24.2-4.2,48.4-6.9,73-6.8
	c19.2,0.1,37.9,2.7,56.5,6.9c1.5,0.4,2.8,0.9,4.5,1.4c-0.7,0.9-1.9,1.3-3,1.1c-15.8,0.2-31.6,0.4-47.3,0.7c-3.7,0-7.5,0.1-11.2,0.2
	c-0.5,0-1.1,0.2-1.5,0c-3.6-1.7-7-1.2-10.4,0.6c-0.6,0.3-1.2,0.3-1.8,0c-5.4-3.6-9.6,1.8-14.5,1.8c-0.8,0-1.2,0.7-1.5,1.3
	c2.1,0.3,4.1-0.3,6.3,1.9c4.4,4,9.5,7.3,15,9.5c1,0.4,2.1,0.3,3-0.2l-10-7.1c-0.9-0.5-1.7-1.1-2.4-1.7c-0.7-0.7-2.7-0.9-1.7-2.3
	c1-1.1,2.6-1.3,3.7-0.3c3.3,2.2,6.6,4.5,9.9,6.6c2.6,1.6,5.1,3.4,8.6,3l-13.5-9.4c3-1,5.3-1.2,7.8,0.1c6.6,3.3,12.3,7.9,18.7,11.4
	c0.8,0.4,1.6,1.3,3.2,0.4c-5.1-4.3-11.2-7.1-16-11.8c2.4-1.3,4.1-0.5,6.1,0.8c14.7,8.8,27.2,20.7,41.8,29.7c1.1,0.7,2.2,1.7,4.3,1.1
	c-14.3-10.3-27.2-21.9-41.6-31.2c1.8-1.5,5.4-2.1,7-0.5c5.9,6,13.6,9.5,20.3,14.3c10,7.2,19.5,14.9,29.1,22.5c4.1,3.2,4.2,3.3,0.2,7
	c-1.7,1.6-3.5,3.1-4.7,5.2c-0.9,1.6-2.6,1.8-4.2,2C872.4,396.3,866.9,396.8,861.5,397.3z M792.7,411.3c-3.5-0.3-4.1-1.8-3.5-10
	L792.7,411.3z M869.1,418.4c-1.3-0.6-0.2-1.5,0.2-2.1c2.4-4,3.8-8.7,8-11.6c-2.1,4.2-4.1,8.3-6.2,12.5
	C870.7,418.1,869.9,418.8,869.1,418.4L869.1,418.4z M876.4,417.3c-0.4,1-1.5,1.6-2.6,1.2c-0.1,0-0.2-0.1-0.2-0.1
	c-1-0.7,0.1-1.6,0.5-2.2c3.5-6,5.9-12.6,10.3-18.1c0.6-0.9,1.5-1.5,2.5-1.7C884,403.9,879.7,410.4,876.4,417.3z M878.7,418.2
	L878.7,418.2c3.2-5.9,6.1-11.6,9.3-17.2c1.2-2.2,2.2-4.4,3.1-6.7c0.6-1.6,1.4-3.2,2.3-4.7l0,0c0.5-1,1.8-1.5,2.8-1l0,0
	c1.5,0.7,0.9,1.6,0.3,2.7c-2.9,5.7-5.8,11.5-8.7,17.3c-1,2-2.4,3.9-3,6C883.9,417.9,881.7,418.3,878.7,418.2L878.7,418.2z
	 M962.2,392.9c-6.7,1-11.9,5.6-18.2,7.4c-4.8,1.4-12.5,0.9-13.9-5.4c9.5,2.2,18.5,1,27.2-2.2c1.5-0.4,2.7-1.3,3.5-2.6
	c0.4-0.8,0.9-1.7,1.9-1.6c0.5,0.1,0.8,0.5,0.7,0.9c0,0.1,0,0.1-0.1,0.2C962.8,390.7,963.8,392.7,962.2,392.9L962.2,392.9z
	 M955.1,388.9c-7,3-14.7,3.8-22.2,2.3c-2.1-0.4-3.9-1.8-4.8-3.7c-2.6-4.9-2.8-10.2-2.9-15.6c0-1.2,0.8-2.9-1-3.6
	c-1.1-0.5-1.4-3-3.1-1.8c-2,1.4,0.6,2.1,0.8,3.2c0.4,2,0.5,4.1,0.4,6.2c-0.3,3.8,0,7.7,1,11.5c-1.9-2.6-4-5-6.4-7.2
	c-2.7-2.5-5.9-4.5-10.1-3.8c-2.4,0.3-4.8-0.5-6.4-2.2c-7.3-6.5-14.6-13-23.3-17.6c-0.7-0.2-1.2-0.9-1.2-1.7
	c5.8-0.1,11.3,1.3,16.8,2.3c6.5,1.2,13,1.9,19.4,3.7c13.6,3.7,27.7,5.5,40.7,11.4c1.3,0.6,2.6,1.4,3.8,2.2
	C962.3,378.6,961.7,386,955.1,388.9L955.1,388.9z M900.3,382.3c-0.9,2-0.6,4-3,4.5c-0.7,0.1-1.4-0.5-1.3-1
	C896.6,383.9,897.9,382.8,900.3,382.3L900.3,382.3z M990.7,397.4c-9.6,0.4-18.7,3.6-28,5.7c-22.1,4.9-44,10.4-66.6,12.9
	c-2.5,0.3-4.8,1-7.3,1.3c-2,0.3-2.5-0.4-1.4-2.3c4.1-6.8,7.5-14.1,11.5-20.9c1.9-3.3,2.8-6.8,4.6-10c1.6-2.9,6.2-3.5,8.2-1l-0.1-0.1
	c1.2,0.4,2.3,1,3.3,1.7c2.1,1.7,3.5,3.2,1.6,6.5c-3.2,5.6-5.6,11.6-8.3,17.5c-0.4,1.1-0.8,2.3-1.1,3.5c2.5-0.5,3.3-2,4.1-3.6
	c2.4-5.1,4.8-10.1,7.2-15.1c0.9-1.9,1.9-2.5,3.6-0.9c1.5,1.4,4.7,0.8,3.9,4.8c-0.5,2.7,5.9,6.6,8.9,7.3c8.1,1.8,14.8-1.1,21.3-5.3
	c3.9-2.5,8.4-1.8,12.7-1.4c1.3,0.1,2.7,0.6,4-0.6c-0.5-0.4-0.8-1-1.2-1c-5.1-0.5-5.7-3.8-5.3-8c1.2-12.3-7.3-18.3-16.4-21.3
	c-23.9-7.9-48.5-12.8-73.4-16.3c-5.9-0.8-11.7-2.5-17.5-3.8c-1-0.2-2.6-1.5-2.7,0.8c-0.1,1.4-0.5,2.8,2.1,3
	c5.9,0.5,10.8,3.3,15.8,6.6c8.4,5.6,16.3,11.8,24.3,17.8c1.6,1.2,2.2,2-0.1,3c-0.9,0.5-1.7,1-2.5,1.7c-4.6,3.4-4.9,3.4-9-0.5
	c-13-12-27.7-21.7-42.1-31.9c-1.3-0.7-2.3-1.6-3.1-2.8c5-0.1,9.6-0.3,14.3-0.3c6.7,0,13.4,0.1,20.2,0.1c2.5,0,4.9,0.2,7.3-1.2
	c1-0.4,2.2-0.5,3.3-0.3c15.6,1.4,31.1,3.8,46.7,4.2c7.3,0.2,14.7,1.1,21.8,1.1c5.6,0,6.5,3.1,8.9,5.7c5,5.4,9.4,11.5,13,17.9
	c3.8,6.5,9.1,11.9,12.1,18.8c0.9,1.5,1.8,3,2.8,4.5C992.9,396.7,992.3,397.3,990.7,397.4L990.7,397.4z M1341,309.8
	c6.8-9,12.9-18.5,18.5-28.3c3.2-5.7,7.5-10.5,10.4-16.3c5.7-11.6,13.2-22.2,18.7-33.9c0.9-1.9,1.8-3.5,4.3-3.5
	c1.7,0,2.5-1.3,3.1-2.8c1.6-3.9,3.5-7.7,5.1-11.6c0.8-2,1.6-2.1,3.6-1.5c16.4,4.7,31.2,13.1,45.2,22.3
	c15.4,10.1,31.3,19.7,44.6,32.7c6.8,6.4,12.9,13.4,18.2,21.1c0.8,1.1,1.8,2.3,0.8,3.7c-0.8,1.2-2,1.3-3.3,1.1c-1.7-0.2-3.5,0.2-5,1
	c-15.3,6.3-30.8,12.4-47.3,15.2c-9,1.5-18.3,1.7-27.1,5.4c1.5,0.2,2.9,0.8,4.2,0.5c7.1-1.3,8.8,4,11.3,8.7c1.8,3.3,4.5,6,6.5,9.3
	c5.7,9.1,10.4,18.6,12.7,29.1c4.8,22.8-0.9,43.4-12.9,62.8c-8.1,13-20.7,17.7-35.2,19.2c-7.7,0.8-15.4,2.1-23.1,3.1
	c-2,0.1-4-0.3-5.8-1.2c-1.7-0.8-3.4-1.6-5.1-2.2c-6.9-1.9-12-6.7-17.4-10.9c-18.4-14.3-30.4-32.8-34.7-55.8c-1-5.5-0.7-11.2-1-16.8
	c-0.1-1.7,0.9-2.1,2.1-2.7c2.9-1.3,5.9-2.3,8-5.1c0.7-0.9,2.8,0.5,4.5-0.3c7-3.2,13.8-6.7,20.7-10.2c3.5-1.9,6.5-5.1,11-4.9
	c0,1.8-1.6,2.8-2.6,4.8c3.8-0.7,6.2-0.5,5.2,4c-0.3,1.2,2.2,0.5,3,2c4.3,8.2,9,16.2,12.3,25c2.8,7.5,5.2,15.2,9.6,23.2
	c0.1-3.4,1.5-3.3,3-2.2c6.8,5.2,14.3,3.6,21.8,2.1c5.3-1,7.6-5.2,10.3-9c0.6-0.7,0.5-1.8-0.2-2.4c-6.6-6.5-8.6-15.4-12.5-23.3
	c-3.4-6.8-6.7-13.5-10.1-20.3c-3.1-6.4-6.2-12.8-9.3-19.3c-1.1-2.2-0.3-3.2,2.1-3.4c3.8-0.3,7.7-0.6,11.5-0.9
	c1.6-0.1,3.1-0.4,2.7-2.5c-0.4-2.4-1.9-0.7-2.9-0.6c-16,1.1-32,2.3-48,3.5c-9.3,0.9-18.6,1-27.9,0.3c-3.4-0.4-6.8,0.5-9.5,2.5
	C1336.6,316.7,1338.6,313.1,1341,309.8L1341,309.8z M1473.1,432.5c-1.6,3.5-4.6,5.1-7.4,7.2c-0.7-1.3-0.1-1.6,0.3-2
	c0.9-0.9,1.3-2.1,0.4-3c-1.1-1.1-1.5,0.8-2.4,1c-2.5,0.6-3.9,2.9-5,4.7c-3.2,5.1-7.9,7.6-13.6,9s-11.4,2.6-17.1,3.7
	c-8,1.5-16.2,0.6-23.8-2.3c-2.2-0.8-4.7-0.8-7.7-2.7l0,0c5.2-0.4,10.3-0.5,15.5-0.3c16.2,0.6,30.2-4,40.8-16.6
	c5.2-6.2,8.5-13.5,11.3-20.8c3.9-10.5,6-21.6,6-32.8c0.3-10.1-1.6-20.2-5.5-29.6c-1-2.3-0.6-3.6,1.6-4.8c2.7-1.4,3.7,0.7,4.2,2.2
	c3.9,10.9,9.1,21.4,10.7,33.2c0.9,6.8,2.1,13.6,2.3,20.4c0.3,7.7-0.3,15.6-6.5,21.8c-2.4,2.4-3.4,6.1-6.8,8.5
	C1474.6,429.5,1474.4,429.4,1473.1,432.5L1473.1,432.5z M1450.1,318.1c0.1,0.6-1.1,1.1-1.8,0.9c-1.5-0.5-2.7-1.7-3.2-3.3
	c-0.4-1.2,0.2-1.7,1.1-1.9c3.2-0.5,6.4-0.9,9.7-1.4c-0.1,1.7-1,2-1.9,2.4C1452.3,315.4,1449.2,314.3,1450.1,318.1z M1450.6,321.5
	c0.5-0.5,1.3-0.8,2-0.6l0,0c1.4,0.2,4.5,4.5,4.1,5.8c-0.3,0.7-0.8,1.2-1.4,1.5c-0.7,0.3-1.4-0.1-1.8-0.8c-0.8-1.3-1.7-2.7-2.5-4
	C1450.6,322.8,1449.8,322.3,1450.6,321.5L1450.6,321.5z M1456.5,317.2c1.3-2.7,8.3-6.5,10.8-6.2c-2.7,2.6-5.6,5.3-8.4,7.9
	c-0.5,0.6-1.4,0.7-2,0.3C1456.2,318.8,1456,317.9,1456.5,317.2L1456.5,317.2z M1474.7,309.5c-0.1-0.2,0.3-0.7,0.6-0.8
	c3.8-1.2,7.6-2.4,11.4-3.6l0.4,0.9c-5.9,4.2-11.7,8.4-17.6,12.6c-2.2,1.6-4.6,3-6.8,4.5c-1.2,0.8-2.4,1-3.3-0.2s0.3-2,1.3-2.6
	c4.1-2.3,7.5-5.7,11.7-7.8C1473.3,311.9,1475.7,311.8,1474.7,309.5L1474.7,309.5z M1500,306.2c0.4,1.2-0.9,1.3-1.5,1.8
	c-9.7,7.6-19.9,14.7-30.5,21.1c-2.3,1.4-3.3,0.3-4.5-1.3c-1.4-1.9-0.5-2.8,1.2-4c8.6-5.8,17.9-10.7,26.1-17.1c1.8-1.4,4-2.2,6.3-2.4
	l0,0C1498.6,304.5,1499.6,305,1500,306.2L1500,306.2z M1458.9,329.2c1.7,0.1,2.7,1.5,3.4,3c-0.6,1.4-1.4,2.6-2.8,2.6
	c-2.1,0-2.3-2-2.5-3.5c-0.2-1,0.5-1.9,1.5-2.1C1458.5,329.1,1458.7,329.1,1458.9,329.2L1458.9,329.2z M1463.3,335.3
	c1.6,0.1,4.5,3.5,3.9,4.9c-0.6,1.7-2.3,3.2-3.9,2.9c-2.5-0.4-2.6-3-2.8-5C1460.4,336.5,1461.8,335.5,1463.3,335.3L1463.3,335.3z
	 M1469.2,335.3c-0.7-1.7-2.6-3.2,0.6-4.9c10.8-5.7,21-12.3,30.6-19.8c1.1-0.9,2.5-1.6,3.8-0.9c1.4,0.7,2.2,2.3,3,3.6
	c-0.1,0.9-0.7,1.7-1.5,2.1c-10.8,7.1-21.6,14.1-32.3,21.2C1471.3,337.7,1470.1,337.2,1469.2,335.3L1469.2,335.3z M1330.1,356.3
	c1.3-2.2,4-1.8,5.8-3.2C1334.6,355.2,1332.4,355.7,1330.1,356.3z M1381.8,341.9c-1.1-0.2-1.2-1.3-0.8-2.2c0.9-2.5,3.1-3,5.3-3.2
	c1.1-0.2,1.4,0.9,1.4,1.8C1387.6,339.6,1383.7,342.2,1381.8,341.9L1381.8,341.9z M1376.7,336.8c1.6-2.7,4-3.6,8-3.6
	C1381.8,335.6,1379,335.8,1376.7,336.8L1376.7,336.8z M1383.7,344.9c0.9-2.3,3.3-1.7,4.9-2.6l0,0c2,0.7,3.3,2.5,3.2,4.6
	c-0.2,1.9-2.7,2.5-4.5,3C1386.6,350.2,1383.4,345.8,1383.7,344.9L1383.7,344.9z M1392.6,350.5c1.5,0.5,2.3,2,1.8,3.5
	c-0.3,1.7-1.1,3.6-3.2,3.3c-1.9-0.3-2.3-2.3-2.3-3.7C1388.9,351.5,1390.9,351,1392.6,350.5L1392.6,350.5z M1395.4,358.1
	c1.2-0.1,2.3,0.8,2.4,2c0,0.2,0,0.5,0,0.7c-0.3,1.8-1.8,3.1-3.6,3.2c-1.9,0.1-1.6-1.4-1.7-2.7
	C1392.6,359.5,1393.4,358.1,1395.4,358.1L1395.4,358.1z M1396.4,365.9c1.1-0.7,2.3-1.9,3.6-0.6c1.1,1.2,2.2,2.6,3.1,3.9
	c-1.6,0.2-3.1,0.5-4.6,0.9c-1,0.3-2.2,1.3-2.8-0.2C1395.2,368.6,1394.7,367,1396.4,365.9L1396.4,365.9z M1402.3,370.5
	c1,0.1,1.8,0.8,2.1,1.7c0.4,1.2,1,2.2,1.7,3.3c1.7,2.3,2,3.9-1.3,4.8c-1.4,0.4-2.8,3-4,1.7c-1.6-1.9-2.6-4.2-2.9-6.7
	C1397.7,372.4,1401.4,372.6,1402.3,370.5L1402.3,370.5z M1409.4,386.5c0.6-0.6,1.7-2.5,3.1-0.2c1.5,2.5,2.4,5.4,5.6,8.2
	c-4.9,0-7.6-2.7-10.5-4.4C1405.9,389.1,1408.3,387.4,1409.4,386.5L1409.4,386.5z M1406.5,369.9c-2.8-5.3-5.8-10.5-8.4-15.9
	c-3-5.9-5.5-11.9-7.5-18.1c-0.8-2.7,0.4-5.6-3.6-7.2c-2.1-0.9-2-5.4-6-7.3c1.1,2.8-0.3,5.1,1.8,6.9c0.5,0.5,0.5,1.3,0,1.9
	c-0.1,0.1-0.3,0.3-0.5,0.3c-2.9,1.5-5.9,2.9-8.9,4.1c1.5-2.1,4.3-2.2,5.8-4.2c0.5-0.6,1.8-1,1.2-2c-0.7-1.3-1.8-0.4-2.6,0
	c-6.6,3.3-12.9,6.9-19,11c-2.4,1.6-4.9,3.2-7.4,4.8l-0.7-0.9c3.4-2.6,6.8-5.4,10.3-7.9c3.8-2.6,6.9-6.1,10.6-8.8
	c0.7-0.4,1.1-1.1,1.2-1.8c0.1-3.4,2.2-4.5,5.2-4.6c6.8-0.3,13.5-0.6,20.3-0.9c3.3-0.2,4.8,1.2,6.1,4.5c2.7,6.7,6.3,13.1,9.8,19.5
	c5.9,10.9,10.7,22.4,16.1,33.5c0.9,2.1,2,4.2,3.2,6.2c1.2,1.5,1.1,3.8-0.4,5.1c-3,3-6.6,5.2-11.3,4.9c-1,0-1.9-0.5-2.4-1.4
	C1414.8,384.6,1410.5,377.3,1406.5,369.9L1406.5,369.9z M1332.6,332.6c6.8-1.6,13.2-5,19.8-7.6c0.8-0.3,1.9-0.6,1.4-1.8
	c-0.4-1-1.4-0.9-2.3-0.5l-13.9,5.4c-3,1.2-5.9,2.9-9.6,3.1c1.8-5,5.9-6.5,10-7.9c7.6-2.6,15.4-2.3,23.3-2c3.2,0.1,6.3-1.5,10.3,0.1
	c-18.1,9.5-36.8,16.3-54,26.1C1321.3,341.1,1324.1,334.5,1332.6,332.6L1332.6,332.6z M1396.1,500.6c8.8,0,17.6-0.5,26.4-1.6
	C1413.9,502.2,1405,501.7,1396.1,500.6L1396.1,500.6z M1532.7,394.8c-1.7,10.2-4.8,20-10.1,28.7c-5.4,9-11.8,17.4-20.1,24.1
	c-6.4,5.1-11.7,11.4-16.8,17.8c-5.8,7.4-13.5,12.2-21.8,15.7c-11.9,5-24.3,8.8-37.4,9.5c-18.5,1-36.9,0.9-54.5-5.6
	c-8.9-3.5-17.4-7.9-25.3-13.3c-14.8-9.6-26.8-22.8-34.9-38.5c-8.6-16.5-15.5-33.6-17.3-52.4c-0.3-2.7,2-3.9,3.2-5.6
	c4.5-6.8,9.7-13.2,14-20.2c2.5-4.1,6.3-5.9,10.2-7.7c9.2-4.1,18.4-8.1,27.4-12.5c4.7-2.3,9.6-4.2,14.6-5.9
	c-13.5,13.1-30.7,20.9-45.5,33.3c2.5,0,4.2,0,5.7-1c2.4-1.6,2.9-0.5,2.9,1.9c-0.7,13.2,2.2,26.4,8.4,38.1
	c8,15.3,19.6,28.5,33.8,38.4c13.9,9.7,29.8,13.2,45.8,16.9c6.8,1.6,13.4,0.1,20-1.4c10.5-2.5,20.9-5.4,30.2-11.2
	c4-2.5,7.9-5.3,10.5-9.3c0.9-1.5,2.5-3,0.5-4.9c-0.5-0.5-0.4-1.5,0.3-1.6c5.3-0.9,5.3-6,6.7-9.4c2.1-5.2,4-10.9,4.4-16.4
	c0.5-5.7,0.9-11.6,0.2-17.5c-1-8.8-5-16.5-7.8-24.6c-1.8-5.2-3.1-10.7-5.6-15.7c-2.6-5.1-2.5-5,2.5-8.1c9.7-6,19.9-11.2,29.2-18
	c3.6-2.7,6.9-1.4,7.9,2.9c0.4,1.8-1.2,2-2.1,2.6c-9.8,6.9-19.3,14-28.5,21.6c-0.2,0.1-0.2,0.4-0.3,0.7c4.8-1.7,8.5-4.9,12.5-7.7
	c5.8-4.1,11.5-8.3,17.3-12.4c2.5-1.8,4-0.1,5.5,1.8c6.6,8,10.3,17.5,13.4,27.2C1535.7,368.3,1534.9,381.5,1532.7,394.8L1532.7,394.8
	z"/>
<path d="M648.5,54.1c-0.1,1-0.3,2-0.6,3.1c0.1,0,0.3-0.1,0.4-0.1c0.5-0.1,1.1-0.2,1.6-0.4c0.4-0.9,0.7-1.7,0.9-2.7
	c-0.6,0-1.7,0-2,0.1C648.8,54,648.7,54,648.5,54.1z"/>
<path d="M722.7,436.4c0.1-0.9,0.5-1.5,1.4-1.2c5.1,1.3,10.4,0.8,15.6,1.7c-5.8,1.5-11.5-0.3-17.2-0.6L722.7,436.4z"/>
<path d="M919.2-11.7c6,1.5,11.9,4.1,18,6.1c20.7,6.6,40.7,15.2,61.4,21.8c5.6,1.8,10.9,4.2,16.4,6.1c1.4,0.5,1.8,1.3,1.6,2.4
	c-0.3,1.8-1.8,1-2.7,0.7c-9.2-3.6-18.4-7.3-27.8-10.4c-12.1-4-24-8.6-36-12.9c-10.5-3.7-21.1-7.3-31.6-11c-1-0.4-3-0.3-2.6-2
	C916.2-12.3,917.8-11.6,919.2-11.7z"/>
<path d="M1040.2-71.6c-0.8-5.6-2-11.1,0.8-16.5c0.7-1.4-0.5-3.1-1-4.6c-0.2-0.5-0.8-0.7-1.3-0.5c-1.2,0.3-1.4,1.4-1.5,2.3
	c-0.3,4.8-0.7,9.6-0.9,14.5c0.1,1.2-0.2,2.5-1,3.4c-1.6-4.6-0.4-8.8-0.4-12.9c0-2,0.7-4.1,0.2-5.9c-1-3.3,3.2-4.4,2.6-7.5
	c-0.1-0.6,1.2-0.2,2,0.8c3.2,3.7,4.3,8.4,5.7,12.7c4,11.5,8.4,22.8,11.7,34.5c1.2,4.1,3.2,7.9,3.3,13.2c-3-3.1-3.1-6.6-4.2-9.5
	c-1.6-3.9-2.6-2.9-4.9,0.7c0.2-2.8,0.2-4.6,0.6-6.1c1.3-4.7-1-8.8-2.3-13c-0.1-0.6-0.6-1.1-1.3-1.2c-1,0-1.1,0.8-1.3,1.5
	c-1,2.7-1.1,5.6-1.5,8.4c-0.1,0.8,0.3,2.4-1.2,2.2c-1.2-0.2-0.5-1.4-0.4-2.2c0.7-5.3,0.9-10.6,2-15.9c0.8-4-1.9-6.8-2.6-10.2
	c0-0.4-0.4-0.7-0.8-0.6c-0.1,0-0.2,0.1-0.3,0.1c-0.8,0.5-1.2,1.3-1.3,2.2C1040.8-78.3,1040.5-75,1040.2-71.6z"/>
<path d="M1019.7-101.3c0-5.8,1.3-11.4,2.4-17.1c0.4-2.2,1.6-3.9-0.4-6.4c-1.5-1.8-0.1-5.3,1.3-7.4c2-2.9,2-5.7,1.5-8.8
	c-0.1-0.5-0.2-1-0.3-1.5c-0.2-1.4,1.2-3.3-0.3-4.2c-1.8-1.1-1.5,2.3-3.3,2.2c0.3-5,4.3-9.5,2.2-15.2c-3.4,2.6-1,6.9-4.1,9.9
	c0.4-4.1,1.2-8.2,2.4-12.1c0.3-1,1.3-1.6,2.4-1.4c1.2,0.1,1.7,1,1.8,2.1c0.3,3,0.6,5.9,0.9,8.9c1.5,15.9-0.6,31.4-4.6,46.7
	c-0.4,1.4-0.6,2.9-0.8,4.3L1019.7-101.3z"/>
<path d="M922.1,75.4c3.8-4.5,8.8-7.1,13.5-10.1c10.3-6.5,20.4-13.3,30.1-20.6c0.4-0.3,0.8-0.6,1.2-0.9c0.8-0.4,1.6-1.6,2.5-0.4
	c0.7,1-0.4,1.6-1,2.1c-3.4,2.9-6.6,6.1-10.4,8.5c-11.1,7-22.5,13.7-33.8,20.5C923.6,74.9,922.9,75.2,922.1,75.4z"/>
<path d="M975.3,77.1c3-3.5,6.8-5.8,10.6-7.8c7.2-3.9,14.1-8.3,20.8-13c0.9-0.7,2.2-2.1,3.2-0.9c1.2,1.4-0.6,2.5-1.5,3.2
	c-7.3,5.6-15.5,9.7-23.6,13.9C981.5,74,978.4,75.5,975.3,77.1z"/>
<path d="M1052.3,50c2.1,9.2,5,18.2,8.9,26.8c0.9,2,1.7,3.5-0.2,5.5c-1.2,1.3-1.5,3.3-2.4,5c-0.6,1.2-1.3,2.5-2.9,2.6
	c-0.5,0.1-0.9,0-1.3-0.3c-0.5-0.4-0.2-1,0.2-1.3c2.4-2,1.8-5.8,4.6-7.7c1-0.7,1-2.3,0.5-3.5c-2.9-6.7-5.4-13.6-7.3-20.6
	C1051.7,54.4,1051.7,52.1,1052.3,50z"/>
<path d="M957.5,106.6c4.5-2.7,9-5.4,13.6-8c1.3-0.8,2.6-1.4,3.9-2.1c0.8-0.5,1.5-1.6,2.5-0.4s-0.3,2.1-1.1,2.6
	c-5.7,3.6-11.8,6.6-18.2,8.8L957.5,106.6z"/>
<path d="M1008.8,127.3c2.5-1.4,5-2.9,7.6-4.2c2.8-1.5,5.8-2.9,8.6-4.3c0.8-0.4,1.7-0.9,2.3,0.1c0.6,1,0,1.6-0.7,2.3
	c-2.8,2.6-6.6,3.4-10,4.7c-2.4,0.9-4.6,2.5-7.3,2.5L1008.8,127.3z"/>
<path d="M971.9,112.3c2.3-3.4,6.1-4.8,9.4-6.7c1.6-0.9,3.5-1.3,4.8-2.7c0.9-0.9,2.3-1.7,3.2-0.4c1,1.5-0.6,2-1.6,2.7
	C982.9,108.4,977.4,110.3,971.9,112.3z"/>
<path d="M998.5,123.2c3.8-3.9,8.7-6.1,13.4-8.5c0.6-0.4,1.4-0.3,1.8,0.3c0,0.1,0.1,0.1,0.1,0.2c0.7,1.2-0.1,1.9-0.9,2.4
	C1008.4,120.4,1003.3,121.3,998.5,123.2z"/>
<path d="M979.6,115.6c1.6-2.2,4.1-3.1,6.3-4.3c2.4-1.3,4.9-2.2,7.1-4c0.5-0.6,1.4-0.6,2-0.1c0.1,0.1,0.2,0.2,0.2,0.3
	c0.6,0.9,0.3,1.5-0.5,2.2C990.4,113.5,984.9,114.3,979.6,115.6z"/>
<path d="M1031.3,62.6c-4,2.9-8.3,5.5-12.8,7.6c-0.6,0.3-1.2,0.5-1.7,0s-0.1-1.2,0.3-1.5c3.5-2.8,7.2-5.2,11.1-7.4
	C1029.1,60.8,1030.3,61.4,1031.3,62.6z"/>
<path d="M990.2,117.9c3-4.3,7.9-5.6,12-8.1c0.8-0.5,1.7,0,2.2,0.8c0.8,1.3-0.4,1.5-1,1.9C999.3,114.8,994.8,116.6,990.2,117.9z"/>
<path d="M1068,63c-2.2-3.1-4-6.2-4.6-9.9c-0.1-0.8-0.3-1.9,0.9-2c1.2-0.1,0.8,1,1,1.8C1066.1,56.3,1067.1,59.7,1068,63z"/>
<path d="M1060.8,66.9c-1.8-4-3.8-8-4.8-12.4c-0.2-1.1-0.6-2.2,0.3-3.2c0.3-0.1,0.7-0.1,1,0.1c1.1,0.9,0.1,1.8,0.1,2.7
	c0,2.7,1.2,5.1,2.2,7.4C1060.5,63.2,1060.9,65.1,1060.8,66.9z"/>
<path d="M1073.3,59.8c-3.7-2.3-4.1-5.4-4.7-8.5c0-0.5,0.3-0.9,0.7-1.1c0.8-0.3,1.1,0.3,1.2,1C1070.7,54,1072.1,56.4,1073.3,59.8z"/>
<path d="M1319.2,51.9c1,2,1.3,4.3,0.8,6.5c-0.5,1.8-0.6,3.9,1.4,4.3c2.4,0.4,1.9-2.1,2.2-3.5c0.3-1.8-0.2-4.1,2.7-4.8
	c0,2.9-1.1,5.3-1.6,7.8c-0.6,2.5-1.2,4.9,0.8,7c0.9,0.9,1.8,1.4,3,0.9s1.2-1.5,0.9-2.5s-0.2-2,0.4-2.8c0.3-0.5,1-0.7,1.5-0.5
	c0.8,0.3,0.5,0.8,0.4,1.5c-0.5,2.8-1.8,5.4-0.9,8.3c0.4,1.4,1,2.8,2.4,3c1.8,0.3,1.7-1.2,2-2.5c0.1-0.8,0.8-1.4,1.6-1.3
	c0.1,0,0.2,0,0.3,0.1c0.8,0.3,1.1,1.2,0.8,2c0,0.1-0.1,0.2-0.1,0.2c-1,1.6-1.5,3.5-1.3,5.3c0.1,1.6,0.8,3,2.4,3.4
	c2,0.5,2.2-0.8,2.1-2.4c0.1-0.7,0.7-1.1,1.4-1c0.7,0.1,1.1,0.7,1,1.4c0,0.1-0.1,0.3-0.1,0.4c-2.5,6,1.3,9.9,4.5,14.3
	c5.6,7.7,9.8,16.3,13.8,25c4.2,8.8,7.6,18,10.2,27.4c1.3,4.5,2.4,9.1,3.2,13.8c-1.8-2-2.2-4.6-3-7c-5.8-18.3-13.7-35.9-23.4-52.5
	c-2-3.4-4.9-6.4-7.2-9.6c-2.3-3.2-4.6-6.5-6.9-9.8c-4.5-6.4-10.4-11.5-15.1-17.7c-4.3-5.4-8.3-11.1-11.9-16.9
	c-2.3-3.8-4.9-7.2-5.3-11.8c-0.2-2.3,0.1-4.8-0.7-7.1c-0.4-1.3,0.5-2.6,2-3.1c1.7-0.5,3.7-1.2,5,0.1c1.5,1.5,3.3,3.1,2.7,6
	c-0.5,3.7-0.7,7.4-0.6,11.1c0,2.6-1.1,6,3.5,6.3c1.3,0.1,0.4,1.5,0.7,2.2c0.6,1.5,0.1,4,2.4,4c2.2,0,1.1-2.4,1.7-3.6
	C1319,53.1,1319.1,52.5,1319.2,51.9z M1309.5,38.1c0.2-2.3,0.4-3.6,0.4-4.9c0-0.8-0.1-1.9-1.2-2c-0.9,0-1,1-1.1,1.6
	c-0.3,1.5-0.4,2.9-0.4,4.4c0.2,1.8-1.5,5,0.8,5.1C1310.7,42.5,1309.2,39,1309.5,38.1L1309.5,38.1z M1306,29.8c0,2-3.2,3.2-0.9,6
	C1305.6,33.6,1306.9,31.9,1306,29.8L1306,29.8z"/>
<path d="M866.8,105.9c2.7-1.5,5.9-1.6,8.7-0.4c9.6,3.9,20,4.4,29.9,7.5c6.6,2.1,13.4,3.8,20,5.7c0.8,0.3,1.5,0.8,2.2,1.4
	c1,0.9,2.4,2.3,1.6,3.3c-1.1,1.5-2.6,0.5-3.8-0.6c-1.2-1.1-2.9-1.4-4.4-1.9c-13-4.2-26.3-7.1-39.6-10
	C876.6,109.8,872.1,107.7,866.8,105.9z"/>
<path d="M1106,167.9c-1.9,2.2-4.1,2.4-5.7,3.4c-8.1,5.3-15.9,10.9-22.8,17.7c-0.8,0.9-2.1,1.3-3.3,0.9c-0.8-0.2-1.5-0.5-1.6-1.3
	c-0.1-1.4,1.2-1.8,2.1-2.4c7.2-4.8,13.9-10.4,21.3-14.9C1099,169.5,1102.1,168.8,1106,167.9z"/>
<path d="M1242.7,410.4c6.5-8,13.8-15.5,21.5-22.3c1-0.9,2.4-2,3.6-0.5c1.4,1.7-0.7,2.3-1.5,3c-6.8,6.3-13.7,12.5-20.6,18.7
	C1244.9,410.1,1244.3,411.3,1242.7,410.4z"/>
<path d="M1058.4,156.9c6.5-5.5,14.5-8.6,21.5-13.2c2.7-1.8,5.5-3.3,8.3-5c1.8-1.1,3.6-1.6,5.7-0.1
	C1082.5,145.5,1070.7,151.6,1058.4,156.9z"/>
<path d="M1034.4,397.9c-0.6,0.8-1.3,1.6-2,2.3c-6,4.6-12.1,9.1-18.1,13.7c-0.6,0.5-1.3,1.5-2.2,0.6s0-1.8,0.6-2.3
	c6-5.2,12-10.3,18.2-15.3C1032,395.9,1033.4,396.4,1034.4,397.9z"/>
<path d="M1095.4,408.2c6.3-5.2,12.8-10,19.6-14.5c0.7-0.4,1.4-0.5,2.2-0.3c1.1,0.2,2.1,1,0.7,2c-6.7,4.9-13.7,9.4-21,13.4
	C1096.6,408.9,1096.2,408.5,1095.4,408.2z"/>
<path d="M1082.4,155.8c-5.6,2-9.5,6-14,8.9c-1.6,1-3.2,2-4.8,2.8c-0.9,0.5-2.1,0.1-2.5-0.8v-0.1c-0.4-0.6-0.2-1.5,0.4-1.9l0,0
	c0,0,0.1,0,0.1-0.1c6-3.4,11.9-7.2,18.3-9.8C1080.4,154.7,1081.4,154.7,1082.4,155.8z"/>
<path d="M1087,167.5c0.1,0.8-0.4,1.5-1.1,1.6h-0.1c-5,1.3-8.4,5-12.4,7.8c-1.6,1.1-4,3.4-5.4,1.5c-1.3-1.7,2-2.4,3.3-3.5
	c4.2-3.5,8.5-6.7,14.1-7.7C1085.9,167.2,1086.4,166.9,1087,167.5z"/>
<path d="M1220.5,399.3c-2.9,5.2-8.7,6.8-11.9,11.9C1208.3,406,1215,399.5,1220.5,399.3z"/>
<path d="M1233.4,411.1c-1.3-2.5,0.3-3.3,1-4.5c2-3.2,5.1-5.3,8.1-7.4c0.6-0.4,1.2-1.1,1.9-0.3c0.6,0.7,0.6,1.7,0,2.4
	c-0.1,0.2-0.3,0.4-0.5,0.5C1240.1,404.3,1236.2,406.7,1233.4,411.1z"/>
<path d="M1161.1,395.7c1,0.3,1.7,0.5,2,1.3s-0.4,1.1-0.9,1.5c-2.8,2.2-5.7,4.3-8.6,6.4c-0.5,0.4-1.1,0.7-1.6,0.1
	c-0.4-0.4-0.4-1,0-1.3l0,0c2.7-2.5,5.3-5.1,8-7.5C1160.2,395.7,1160.8,395.7,1161.1,395.7z"/>
<path d="M1219.8,411c-1.2-0.2-1.2-0.8-0.7-1.6c2.1-2.7,4.6-5.1,7.4-7.1c0.8-0.6,1.9-0.4,2.5,0.3c0,0.1,0.1,0.1,0.1,0.2
	c0.7,1,0.1,1.7-0.6,2.2c-2.5,1.8-5,3.6-7.5,5.4C1220.6,410.7,1220.2,410.9,1219.8,411z"/>
<path d="M1133.8,406.7c2.3-3.3,5.8-5.4,8.8-7.9c0.9-0.8,1.9,0.2,2.6,0.9c1.1,1-0.2,1.6-0.7,1.9c-3.3,2.1-6.6,4.1-9.9,6.1
	L1133.8,406.7z"/>
<path d="M1207.4,401.7c-0.7,1.8-2.3,3.2-4.1,3.7c-1.6,0.5-3.3,3.4-4.7,1.3c-1.1-1.6,2-2.2,2.9-3.5s2.3-2.3,3.8-2.7
	C1206.6,400.1,1207,400.8,1207.4,401.7z"/>
<path d="M1178,398.9c-0.3,1.7-6.2,6.7-7.5,6.6s-1.2-1.1-0.7-1.8c1.7-2.3,3.7-4.3,6.1-5.9C1177.1,397.1,1178,397.6,1178,398.9z"/>
<path d="M1187.8,399.5c0.6,0,1.2,0.4,1.4,1c0.4,0.7,0,1.2-0.5,1.6c-1.7,1.4-3.5,2.8-5.3,4.1c-0.5,0.4-1.1,0.7-1.7,0.1
	c-0.3-0.4-0.5-0.8-0.5-1.3C1181.3,403.9,1186.6,399.4,1187.8,399.5z"/>
<path d="M1315.4,37.9c-0.2,3.3,1.6,6.6-0.4,9.8C1314.6,44.5,1314.3,41.2,1315.4,37.9z"/>
<path d="M845,213.1l-19.3-17.6c-1-0.9-1.6-2.2-1.7-3.6c0-0.6,0.4-1.2,1-1.4c0.5-0.2,0.8,0.2,1.2,0.6c6,6.8,13.4,12.1,19.6,18.6
	c5.2,5.4,11.6,7.7,18.2,10c0.5,0.2,1,0.2,1.5,0.3c0.3-0.1,0.6-0.2,0.9-0.3c-4.5-4.6-9.6-8.3-14.3-12.4c-4.9-4.4-9.9-8.7-14.8-13.1
	c-1.1-1-2.5-2.4-1.1-3.8s2.5,0.2,3.6,1.3c7.6,7.9,16.2,14.7,24.2,22c6.4,5.9,13,11.4,21,15.2c3,1.4,6.4,1.9,9.8,4.6
	c-0.8-3.1-2.9-4-4.3-5.2c-7.8-6.5-15.6-13-23.1-19.9c-2.6-2.3-5-4.8-7.3-7.4c-0.9-1.1-1.7-2.6-0.7-3.5s1.6,0.8,2.5,1.5
	c8.9,8,17.9,15.8,26.7,23.8c6.3,5.7,12.5,11.6,18.7,17.4c2.7,2.5,6.1,3.9,9.1,5.8c2.4,1.5,4.6-0.5,6.3-2c0.9-0.8-0.8-1.8-1.5-2.5
	c-5.1-4.9-10.3-9.7-15.5-14.5c-8.7-8.1-17.5-16.1-26.9-23.4c-2.1-1.8-4-3.7-5.9-5.7c-0.8-0.8-1.8-1.7-0.8-2.9
	c1.1-1.3,2.5-0.5,3.2,0.4c4.3,5.4,10.3,8.8,15.1,13.7c2.1,2.2,3.8,6.5,8.3,3.5c0.6-0.4,1.1,0.6,1.6,1.2c3.6,4.2,7.5,8.1,11.8,11.6
	c5.6,4.5,10.5,9.8,14.3,15.9c0.3,0.9,1.4,1.4,2.3,1c0.1,0,0.1,0,0.2-0.1c2.2-0.8,4.4-1.7,6.5-2.8c1.9-1,0.3-1.8-0.4-2.5
	c-4.6-4.2-9.3-8.2-13.8-12.5c-6.9-6.5-14.7-11.8-21.8-18c-1.8-1.5-1.1-2.5-0.3-3.7c1.4-1.8,2,0,2.8,0.8c8.3,8.2,17.6,15.2,26.2,22.8
	c1.4-1.2-1.7-1.9,0.2-2.8c1.1-0.7,2.5-0.5,3.4,0.3c2.7,2.2,4.3,5.1,6,8c2.6,4.2,3.9,4.6,8.2,2.7c-7.2-7.2-13.2-15.4-21-21.9
	c-2.2-1.8-4.4-3.6-6.6-5.4c-0.6-0.6-1.2-1.2-1.7-1.9c-0.8-1-1.1-2.1,0-3c1.3-1.1,1.9,0.1,2.7,0.9c4.8,5.2,11.2,8.7,15.4,14.7
	c1.4,2,3.6,4.2,6.9,3.6c1.3-0.2,1.5,1.2,1.9,2c1,2.1,2.2,4.2,3.6,6.1c3.6,4.3,4.3,4.4,8.8,0.3c-6.5-5.6-12.3-11.8-19.3-16.7
	c-0.9-0.6-1.1-1.9-0.5-2.8l0.1-0.1c0.8-1.2,1.8-0.4,2.8,0.3c6.3,4.5,11,10.6,16.4,16c2,2,3.8,2.7,6.4,1.2c3.5-1.9,7.1-3.6,10.6-5.3
	c1.7-0.8,2.4-1.7,0.2-2.7c-3.7-1.7-6-5.2-9.6-7c-0.9-0.5-2-1.2-1.7-2.6c0.2-0.6,0.6-1,1.2-1.3c1.7-0.7,1.5,1.1,2.3,1.8
	c3.1,2.7,6.1,5.4,9.3,8c1.8,1.5,7.9,0.3,9.1-1.6c0.6-1-0.1-1.5-0.8-1.7c-2.2-0.8-3.5-3.2-6-3.6c-0.7-0.1-1.4-1-2-1.6
	c-0.5-0.5-0.5-1.3,0-1.8c0.1-0.1,0.1-0.1,0.2-0.2c0.7-0.6,1.2-0.3,1.8,0.3c2.6,2.1,5.5,3.8,8,6c2.9,2.6,5.4,0.8,7.8-0.5
	c1.4-0.7,0.5-1.4-0.7-1.9c-1.2-0.5-3.7-1-2.8-2.6s2.8-0.3,4,0.7c1.2,1,3.5,1.1,4.8,2.9c-9.7,6.2-19.9,10.8-29.9,16
	c-5,2.7-10,5.4-15,8.3c-0.7,0.4-1.5,0.7-2.3,0.9c-2.6,0.7-6.2,0-6.7,4.2c-0.1,0.6-0.8,0.5-1.2,0.3c-4.8-1.5-8.3,0.2-11.2,3.9
	c-0.5,0.6-1.1,1.1-1.9,0.8c-3.3-1.2-5.9,1.3-8.9,1.8c-2.1,0.3-0.5,1.9-0.7,2.8c-1.9-0.3-3.6-1.1-5.1-2.2
	c-14.4-9-29.1-17.4-44.7-24.1c-1.8-0.8-3.9-2.3-6.2-0.5c-1,0.7-2.1,0-3-0.8c-7.5-5.9-16.5-6.8-25.3-6.8c-4.2,0-8.9,1.1-12.4-0.6
	c-4-2-8.7-2.1-12.8-0.3c-8.9,4-18.3,3.2-27.4,4.3c-2.7,0.2-5.5,0.1-8.2-0.1c-0.6,0-1.3,0-1.6-0.7c-0.3-1,0.5-1.2,1.2-1.6
	c2-1.3,4.3-1,6.5-1.3c8.7-1.1,17.4-2.5,26.1-3.7c4-0.5,8.2,0.3,12.5-1.5c-1.6-1.5-3-2.9-4.5-4.1c-1-0.6-1.5-1.7-1.2-2.8
	c0.1-0.8,0.7-1.4,1.5-1.6c1.4-0.2,1.7,1,2.3,1.9c3.1,5,6.9,6.8,12.6,5.5c-3.6-2.5-7-5.3-10.2-8.3c-1.3-1.3-2.8-2.5-3.4-4.3
	c-0.2-0.7-1.8-1-0.5-2c0.7-0.6,1.8-0.6,2.4,0.1c0.1,0.1,0.1,0.2,0.2,0.3c3.6,4.4,8.1,7.9,12.3,11.7C835,212.4,838.3,213.8,845,213.1
	z"/>
<path d="M947.4,171.5l-5.2-0.4c-0.6,0-1.3-0.1-1.5-0.8c-0.2-0.7,0.3-1.1,0.9-1.4c1.5-0.6,2.9-1.4,4.6-1.2c18.1,2.1,35,7.9,51.3,15.9
	c4,2.1,7.8,4.8,11,7.9c0.8,0.8,2.4,1.7,1.1,3s-2-0.2-3-0.9c-5.5-3.9-11-8-17.4-10.4C975.6,178.2,962.1,172.7,947.4,171.5z"/>
<path d="M950.2,210.4c6.4,2.9,12.1,7.2,16.6,12.7C960.8,219.6,954.6,216.2,950.2,210.4z"/>
<path d="M783.7,451.3c0,2.7-1.4,4-3.1,4.2c-7.6,0.7-14.5,4-21.8,5.6c-4.7,1.1-9.6,1.4-14.4,0.8c-3.3-0.4-6.6-0.9-10-0.1
	c-2,0.5-4.1-0.1-5.5-1.5c-1.2-1.1-2.7-1.9-4.3-2.1c-21.9-4.7-36.6-18.5-48.2-36.7c-6.8-10.2-11.2-21.8-13-33.9
	c-0.2-1.2-0.5-2.3,0.8-2.8c1.5-0.6,1.5,1.1,1.8,1.8c2.8,6,3.8,12.5,6.3,18.6c4.5,10.9,11.1,20.8,19.4,29.3
	c5.1,5.2,11.4,9.3,17.6,13.2c7.7,4.8,16.3,6.8,25,8.9c13.4,3.3,26.4,1.3,39-3.3C776.8,451.8,780.6,454.7,783.7,451.3z"/>
<path d="M763.9,372.3c-4.4,3.8-10,3-15.3,4.6c3.5,1.6,7.1,0.1,10.5,1.2c-9.7,3.8-19.9,1.3-29.8,2.9c2.1-2.8,5.3-1.9,8.1-2.9
	c-2.5-0.8-5.1,0.7-7.4-1.2C741.3,375.7,752.5,373.2,763.9,372.3z"/>
<path d="M770.8,363.3c0.1,2.1-1.8,2.3-3.1,2.6c-6.2,1.5-12.7,2.1-19.1,1.7c-3-0.2-6.5,1.1-9.8,1.3c-8.3,0.4-16.6,1-25.3,0.3
	c1.3-2,3-1.5,4.2-1.5c17.5-0.4,34.9-2.3,52.3-4.2c0.2,0,0.5,0,0.8,0V363.3z"/>
<path d="M744.8,414.6c-0.2,1.6-2,1.4-1.6,3c2.7,0.4,5.5-0.9,8.5,0.3c-0.5,1.2-1.7,2-3.1,2.1c-5.5,0.1-10.9,1.2-16.3,1.8
	c-2.3,0.3-3.7-0.1-1.6-2.8c-3.1-0.2-5.8,0.5-8.5,0.9c-1,0.1-2.2,0.4-2.5-0.9c-0.3-1.2,1-1.7,1.9-1.8
	C729.1,415.9,736.7,414.3,744.8,414.6z"/>
<path d="M791.8,361.9c-2.9,1.7-5.2,0.4-7.1-0.7c-8.6-4.9-17-10.1-25.6-15.2c-1.1-0.7-2.4-1.5-1.6-2.8c1-1.7,2.3-0.4,3.5,0.2
	c8.4,4.4,15.9,10.1,23.9,15.1C787.1,359.7,789.3,360.6,791.8,361.9z"/>
<path d="M707.1,414.9c2.1-2.2,4-2,5.6-2c9.3-0.3,18.4-2.7,27.6-3.5c1-0.1,2.5-0.9,2.9,0.6c0.4,1.7-1.3,1.8-2.4,2.1
	C729.8,414.6,718.5,415.5,707.1,414.9z"/>
<path d="M786.5,345.1c0.1,0.9,0.3,1.8,1.1,2.2c6.8,2.9,11,9.6,17.6,12.7c0.5,0.3,1.6,0.7,1.1,1.6s-1.5,0.5-2.3,0
	c-2.9-1.5-5.6-3.1-8.2-5c-5.5-4-11-7.9-16.5-11.9c-0.8-0.6-2.6-1.2-1.4-2.8s2.5-0.3,3.5,0.5c1.6,1.2,2.9,2.7,5,2.9L786.5,345.1z"/>
<path d="M744,404.9c-0.4,1.7-2.2,1.9-3.7,2.1c-4.1,0.4-8.2,0.7-12.3,0.7c-4.6,0-9.2-0.2-13.7,0.5c-0.9,0.2-1.5,0-1.7-0.9
	c-0.3-1.2,0.5-1.6,1.4-1.6c8.3-0.6,16.6-1.3,24.9-1.8c1.2-0.1,2.5,0.3,3.7-0.2C743.3,403.4,744,403.5,744,404.9z"/>
<path d="M747.9,423.4c-0.8,0.1-1.7-0.1-1.6-1c0.1-0.9,1-1,1.7-1c9-0.6,18.1-1.2,27.1-1.8c0.5,0,0.9,0.1,1.3,0.4
	c0.4,0.6-0.1,1.1-0.5,1.6c-1,0.8-2.2,1.2-3.4,1.3C764.2,423.6,756,423.8,747.9,423.4z"/>
<path d="M715,402.4c-0.3,0-1.7-0.2-3-0.5c-0.8-0.2-2.1-0.2-1.8-1.3c0.2-1,1.3-0.9,2.2-0.8c6.5,0.7,12.9-0.3,19.3-0.7
	c1.6-0.1,3.2-0.4,4.8-0.5c0.7-0.1,1.6-0.1,1.8,0.8c0.2,0.9-0.7,1.2-1.3,1.6c-3.1,1.8-6.5,1.3-9.8,1.5
	C723.5,402.7,719.7,402.4,715,402.4z"/>
<path d="M767.9,391.6c1.5,0.3,2.4,1.2,1.5,2.6c-1.7,2.5-2.4,5.5-2,8.4c0.1,1.5-0.3,2.9-2,3.1c-1.7,0.2-1.5-1.6-1.9-2.7
	c-1.6-3.6-0.2-6.8,1.7-9.8C765.6,392.1,766.8,391.5,767.9,391.6z"/>
<path d="M1343,235.9c-1.5,4.5-4.1,8.2-6.3,12.2c-9.2,16.5-18.3,33-27.4,49.5c-5.7,10.3-10.6,21-16.4,31.2c-0.6,1-1,1.7-2.1,1.6
	c-0.5,0-0.9-0.3-1.2-0.7c-0.4-1.1,1-1.3,1.3-1.9c1.6-3.3,3.1-6.7,4.6-10c4.4-9.7,9.9-18.9,15.1-28.2c6.2-11,12.5-22,18.8-33
	c3.7-6.3,7.5-12.6,11.3-18.9C1341,236.7,1341.9,236,1343,235.9z"/>
<path d="M1264.3,322.7c-1-0.7-1.8-1.7-2.2-2.9c-6.9-16.3-15.2-32-24.6-47c-0.6-1-1.7-1.8-0.5-2.8s2.1,0.3,2.7,1.1
	c4.3,5.4,7.4,11.5,10.5,17.7c5.4,10.7,10.1,21.7,14,33c0,0.4,0,0.7-0.1,1.1L1264.3,322.7z"/>
<path d="M1325.6,246.3c-4.3,10.2-10.3,19.3-15.7,28.7c-3.5,6.1-7.1,12.2-10.8,18.2c-0.8,1.4-2.2,4-3.4,3.3c-1.8-1.1,0.4-3.1,1.2-4.3
	c9-14.7,18-29.3,27.2-43.9C1324.5,247.6,1325.1,247,1325.6,246.3z"/>
<path d="M1264.8,62.3c-0.2,21.9-4.5,43.2-9.6,64.4C1258.9,105.3,1263.3,84,1264.8,62.3z"/>
<path d="M1249.7,96.8c0.8-11.1,1.1-22.1,1.7-33.1c0.1-1.1,0-2.5,1.6-2.3c1.1,0.1,0.9,1.3,0.7,2.1c-2.1,10.7-1.5,21.6-3.8,32.3
	C1249.9,96.1,1249.8,96.5,1249.7,96.8z"/>
<path d="M1304.1,125.8c-0.6-9,0.6-17.8,1.4-26.6C1305.8,108.1,1306,117,1304.1,125.8z"/>
<path d="M1315.3,105.3l-1.4,16.1l-0.9-0.1c0.7-5.4-1-10.9,1.2-16.2L1315.3,105.3z"/>
<path d="M1345.1,182.6l1.3-15.6C1348,172.4,1345.8,177.5,1345.1,182.6z"/>
<path d="M1424.2,288.5c8.8-2.2,16.9-4.3,25.1-6.2c5.1-1,10.1-2.5,15-4.5c1-0.5,2.8-0.1,2.9-1.7c0.1-1.2-1.4-1.7-2.2-2.4
	c-1-1-2.2-0.3-3.4,0.2c-8.7,2.8-17.7,4.6-26.8,5.2c8.7-2.8,17.2-6,26.6-7.4c-2.1-3.1-4.1-4-7.6-3.6c-8.2,0.8-16.2,2.5-24.3,3.2
	c-0.5,0-1-0.3-1.4-0.7c7-2.7,14.4-3.6,21.9-5.5c-1.9-2.5-4.8-3.5-6.9-5.5c-0.5-0.5-1.3,0-2.1,0.3c-5.4,2.2-11.2,2.1-16.9,3.1
	c3.7-4,8.9-3.8,14.4-5.3c-4-2.7-7.6-4.1-11.2-5.7c-1.9-0.9-4-1.5-5.8-2.5c-1.3-0.7-2.6-2.1-1.8-3.6c0.8-1.5,2.1-0.4,3.3,0.1
	c14.4,7.1,29.5,13.1,42.5,22.8c2.7,1.9,4.7,4.6,5.7,7.8c2,5.9-1.6,4.3-4,4.8c-12.5,2.7-25,5.3-37.5,7.8
	C1428.3,289.5,1426.7,290.3,1424.2,288.5z"/>
<path d="M1442.3,305.7c-3.6,3.2-7.5,3.5-11.2,4.3c-11.8,2.5-24,2-36,2.5c-9.4,0.4-18.4,2.7-27.7,3.1c-5.9,0.3-11.8,1.7-17.8,0.8
	c-1.2-0.2-2.9-0.2-2.8-1.7c0.1-1.6,1.7-1.6,2.9-1.6c18.5-0.3,36.6-4.8,55.1-4.8c11.6-0.1,23.3-1,34.8-2.8
	C1440.4,305.5,1441.4,305.5,1442.3,305.7z"/>
<path d="M1401.4,428.7c-0.3-5.7-0.6-11.5,1.9-16.8c1-2.3,3.6-3.1,5.7-3.8c7.5-2.6,15-3,22.3,0.8c1.2,0.4,2,1.5,2.2,2.8
	c0.7,6.8-0.9,12.7-6.5,17.3c-5.6,4.6-11.7,5.4-18.3,2.4C1406.4,430.3,1404.2,428.5,1401.4,428.7L1401.4,428.7z M1430.3,416.3
	c0.6-2.8-0.6-4.8-3.4-5.5c-5.2-1.2-10.7-1-15.7,0.8c-5.4,1.9-6.9,4.7-6.1,10.5c0.3,1.9,0.6,3.8,2.3,4.9
	C1418,433.6,1429.8,424.2,1430.3,416.3z"/>
<path d="M1368.4,429c-1.3,1-2,0.3-2.7-0.4c-10.7-9.8-20.3-20.4-25.9-34c-2.9-6.6-4.7-13.6-5.5-20.7c-0.3-3.2-0.5-6.2,1.8-9.2
	s4.9-3.6,8.1-3.4c-5.4,4.3-8,9.2-6.9,16.8c2.6,16.5,11.3,29.4,22.2,41.3C1362.3,422.6,1365.4,425.8,1368.4,429z"/>
<path d="M1354.7,372.1c1-9.9,13.3-23,22.3-24.4c2.1-0.3,2.5,0.9,2.2,2.4c-1,4.8-1.6,9.7-3.5,14.3c-0.3,0.8-0.3,2.3-1.7,1.9
	c-1.4-0.4-0.8-1.7-0.7-2.6c0.4-2.7,1-5.3,1.5-8c0.2-0.9,1.4-1.9,0.1-2.6c-0.9-0.5-1.8,0.4-2.7,0.9c-8.1,4.2-11.8,11.7-14.6,19.8
	c-0.4,1.1,0.6,3.4-1.6,3c-1.7-0.3-1.2-2.4-1.2-3.8C1354.7,372.7,1354.7,372.4,1354.7,372.1z"/>
<path d="M1401.4,428.7c-4.3,1.9-8.1-0.6-11.7-1.9c-10.9-4-20.4-10.1-27.2-19.9c-0.6-0.9-1.5-1.7-0.8-3c0.2-0.4,0.7-0.7,1.2-0.6
	c1.5,0.2,1.4,1.2,1.5,2.4c0.1,1.5,1.4,2.5,2.6,3.5c9,8,19,14.4,30.7,17.7C1399,427.4,1400.2,428,1401.4,428.7L1401.4,428.7z"/>
<path d="M1373.8,386c0.4-1.4,0.5-3.4,2.5-3.5c2.2-0.2,1.4,2.1,2.1,3.2c2.9,4.2,6,8.1,9.1,12.1c0.6,0.7,1.9,1.1,1.5,2.3
	c-0.4,1.1-1.4,1.8-2.5,2c-1.2,0.2-2.4,0-2.7-1.4c-0.4-1.9-3.8-2.6-2.2-5.3c-0.7-0.3-1.4-0.5-2-0.8
	C1376.3,393,1373.4,388.9,1373.8,386z"/>
<path d="M1452.4,392.8c-0.3,6.9-4.6,10.8-10.4,10.3c-0.7-0.1-1.7,0.2-1.9-0.7c-0.3-1.2,0.7-1.3,1.6-1.5c5-1,6.8-4.9,7.9-9.2
	c0.3-1.1-0.2-3.1,1.3-3c1.7,0.1,1.5,2.2,1.6,3.6C1452.4,392.7,1452.3,393.2,1452.4,392.8z"/>
<path d="M1440,330.3c1.5,0.3,2.5,0.5,3.5,0.6c1.2,0.1,2.2,1.1,2.1,2.4l0,0c0,0.1,0,0.1,0,0.2c-0.2,1.4-1.6,1.3-2.7,1.1
	c-5.3-0.9-10.7-2.5-16,0c-0.4,0.2-0.9,0-1.1-0.4c0-0.1-0.1-0.2-0.1-0.2c-0.2-0.6,0.1-1.3,0.7-1.6c1.5-1.1,3.3-1.7,5.2-1.9
	C1434.5,330.4,1437.5,330.4,1440,330.3z"/>
<path d="M1459.4,368.5l-5.8-17C1457.9,353.6,1460.7,361.8,1459.4,368.5z"/>
<path d="M1104.2,278.6c0.5,2.2,2.2,2.9,3.8,3.7c2,1,3.5,2.8,4.3,4.9c0.6,2.2,2.2,3.9,4.4,4.7c1.8,0.6,2.5,2.2,3,4c0.3,1,0.1,1.9-1,2
	c-3.9,0.4-7.7,2-11.8,0.9c-1.4-0.2-2.5-1.1-3-2.5C1102.1,290.4,1103.6,284.6,1104.2,278.6z M1113.9,295.7c-2.1-1.1-3.7-2.9-4.5-5.2
	c-0.2-0.6-0.8-1.1-1.5-1c-0.8,0.2-0.6,0.9-0.7,1.5C1106.8,295.2,1108.1,296.3,1113.9,295.7L1113.9,295.7z"/>
<path d="M1047.9-288.9c1.7-1.6,3.5-1.4,5.1-1c4.3,1,8.3-0.1,12.4-1s6.1,1.1,5.5,5.2c-0.4,2.1-0.3,4.2,0.3,6.2c0.3,0.9,0.3,1.9-0.9,2
	c-1.4,0.2-1.2-0.9-1.2-1.8c0-2.1-0.9-4.1-0.4-6.3c0.5-2.2-0.3-2.7-2.4-1.8c-5.8,2.8-8.7,7.5-8.6,13.9c0.1,3.9,0,7.8,0,12.6
	c-2.3-2.3-3.4-4-3.1-6.4c0.2-1.4,0.1-2.7,0.2-4.1c0.1-3.2,1.5-7-4.7-7.2c3-2.6,5.3-4.6,7.5-6.7c0.7-0.6,2-1.1,1.4-2.3
	c-0.4-0.9-1.5-0.8-2.3-0.7C1053.8-287.5,1051.1-288,1047.9-288.9z"/>
<path d="M1072.1-227.8c-1.6-5.6-0.4-8,4.6-10.2c1.7-0.7,1.9-2.1,1.6-3.7c-1-6.4-1.8-12.8-2.8-19.1c-0.1-0.9-1-2.1,0.7-2.2
	c1.4-0.1,1.6,1.1,1.7,2c0.3,7.1,2.6,13.9,2.8,21c0.1,1.8-0.3,3-1.8,3.6C1075.3-234.7,1072.8-232.1,1072.1-227.8z"/>
<path d="M1061.8-268.5c-1.1-2.7-0.7-4.9-0.6-7c0.1-1-0.3-2.3,0.9-3c0.7-0.4,1.2,0.3,1.3,0.9c0.2,1.2,2.4,2.3,0.3,3.7
	C1062.1-272.7,1063.1-270.6,1061.8-268.5z"/>
<path d="M1046.4-215.7l-10.4-22l1-0.5c5.3,6.5,7.1,14.6,10.5,22L1046.4-215.7z"/>
<path d="M911.6,382.8c-1.6,8.1-5.8,15.2-9.6,22.4c-1.6,3.1-2.5,6.6-5.5,9.7c-0.7-2.7,0.2-4.3,1-5.9c3.9-7.4,7-15.1,10.3-22.7
	c0.8-1.8,1.6-3.4,3.9-3.4L911.6,382.8z"/>
<path d="M1023.9,254.5c-2,7.4-3.9,14.7-5.9,22c-1.6,6.1-3.2,12.2-4.9,18.3c-0.3,1,0.3,3.1-1.5,2.8c-1.8-0.3-0.6-2-0.4-3.1
	c2.3-12.3,6.1-24.3,9-36.5c0.3-1.3,0.5-2.7,0.9-4c0.3-1,0.8-2,2-1.7C1024.1,252.6,1023.9,253.7,1023.9,254.5z"/>
<path d="M1002.8,298.6c-1-3.8,0.6-6.9,1.3-9.9c2.4-9.9,5.1-19.7,7.7-29.5c0.3-1,0.2-2.7,1.8-2.2c1.3,0.3,1.1,1.8,0.8,2.9
	c-2.7,10.4-5.3,20.9-8.8,31.1C1004.8,293.4,1005.2,296.2,1002.8,298.6z"/>
<path d="M1255.3,357.9c-1.9,0.8-3.4-0.1-4.9-0.3c-9.6-1.5-19.1-3.1-28.7-4.7c-1.3-0.2-2.7-0.5-2.5-2.1c0.2-1.9,1.8-1.3,2.9-1.2
	c3.9,0.2,7.5,1.5,11.3,2.4c6.4,1.5,12.8,2.9,19.2,4.4C1253.8,356.5,1254.7,357.1,1255.3,357.9z"/>
<path d="M1195.1,348.4c-0.4,0.8-1.3,1.2-2.2,0.8c-0.1-0.1-0.2-0.1-0.3-0.2c-2.4-1.3-4.5-3.2-6.1-5.3c-0.6-0.7-0.7-1.7,0.4-2.2
	C1187.9,341,1195.2,347.3,1195.1,348.4z"/>
<path d="M1231.3-27.2c0.6-2,2.2-3.5,4.2-3.9c0.6-0.2,1.3,0.1,1.6,0.6c0.3,0.8-0.4,1.1-1,1.3C1234.6-28.5,1233.1-27.9,1231.3-27.2z"
	/>
<path d="M1228.1,8c-4.6-0.1-6.9-3.5-10.3-4.5c-0.6-0.3-0.8-0.9-0.5-1.5c0.1-0.1,0.2-0.3,0.3-0.4c0.6-0.7,1.7-0.7,2.3,0l0,0l0,0
	C1222.4,3.6,1225.4,4.8,1228.1,8z"/>
<path d="M918.7,373.7l-21.6-11.9l0.5-1c8.5,1.5,14.8,7.3,21.8,11.5L918.7,373.7z"/>
<path d="M790.5,117.7l-7.3-15C787.2,105.4,790.8,112.3,790.5,117.7z"/>
<path d="M790,129.5c-3.7-4.2-5.6-9.3-7.5-14.4C786.5,119.2,787.8,124.6,790,129.5z"/>
<path d="M1210.6-55.9c0.3,3.7-3,6-4,9.3c-0.5,1.7-2.3-1-3.8-0.4c-0.6,0.3-1.2-0.7-0.9-1.2c1.5-2.4,1.8-5.6,4.4-7.4
	c1.7,1.3-0.4,2.6,0.6,4C1208.5-52.7,1208.2-55.7,1210.6-55.9L1210.6-55.9z"/>
<path d="M1230.8,65.7c-1.2-0.2-1.2-0.9-1.1-1.7c0.3-1.5,0.6-3,2.7-2.7c0.9,0.1,1.8,0.4,1.7,1.5C1233.9,64.8,1231.9,64.7,1230.8,65.7
	z"/>
<path d="M957.4-223.9c-0.8-0.9-1.7-1.7-2.6-2.5c0.2,1.8,0.4,3.6,0.9,5.3C955.9-222.1,956.6-223.1,957.4-223.9z"/>
<path d="M759.9,66c-1.1,0.3-2.3,0.7-3.4,1.2c0.4,0.3,0.9,0.5,1.3,0.7c0.3,0,0.5,0,0.8,0c0.4-0.5,0.9-1,1.3-1.5
	C759.9,66.2,759.9,66.1,759.9,66z"/>
<path d="M783,66.1c0,0.1,0,0.3,0,0.4c2-0.2,4-0.5,6-0.8c-0.1-0.2-0.2-0.4-0.3-0.6C786.8,65.3,784.9,65.6,783,66.1z"/>
<path d="M834,47c1.2-0.4,2.4-0.8,3.6-1.1c-1.9-0.2-3.8-0.3-5.7-0.5c0.2,0.5,0.4,1.1,0.4,1.7L834,47z"/>
<path d="M716.1-275.6c0.9,0.9,1.4,2.2,1.3,3.4v15.2c0,2.7-2.2,4.8-4.9,4.8c-1.2,0-2.4-0.5-3.3-1.3c-0.9-0.9-1.4-2.1-1.4-3.4v-11.5
	h-54.9v11.5c0,2.7-2.2,4.8-4.9,4.8c-1.2,0-2.4-0.5-3.3-1.3c-0.9-0.9-1.4-2.1-1.4-3.4V-272c0-1.3,0.5-2.5,1.4-3.4s2.1-1.4,3.4-1.3
	h2.7l25.1-59.9c0.6-1.9,2.5-3.2,4.5-3.2c2.1-0.1,3.9,1.2,4.5,3.2l25.1,59.9h2.6C713.9-277,715.1-276.5,716.1-275.6z M660.6-277h40.3
	l-20.3-49.4L660.6-277z"/>
<path d="M743-272.3c-5.4-3-9.9-7.6-12.9-13c-3.1-5.8-4.7-12.4-4.6-19c-0.1-6.6,1.5-13.1,4.6-19c3-5.5,7.4-10,12.9-13
	c11.8-6.2,25.9-6.2,37.7,0c5.4,3,9.9,7.5,12.9,13c3.1,5.8,4.7,12.3,4.6,19c0.1,6.6-1.5,13.2-4.6,19c-3,5.5-7.4,10-12.9,13
	C768.9-266.1,754.8-266.1,743-272.3z M775.9-279.9c4.1-2.4,7.5-5.9,9.7-10.1c4.6-9,4.6-19.6,0-28.6c-2.2-4.2-5.6-7.7-9.7-10.1
	c-8.7-4.9-19.4-4.9-28.1,0c-4.1,2.4-7.4,5.9-9.7,10.1c-4.6,9-4.6,19.6,0,28.6c2.2,4.2,5.6,7.7,9.7,10.1
	C756.6-275,767.2-275,775.9-279.9L775.9-279.9z"/>
<path d="M716.8,19.8c0.6,0.9,1,2,1,3.1c0,1.2-0.4,2.3-1.2,3.2c-0.8,0.9-2,1.4-3.2,1.4c-1.4,0-2.8-0.6-3.7-1.7L689.9-1.8l-21.1,27.9
	c-0.9,0.9-2.1,1.4-3.3,1.4c-1.2,0.1-2.3-0.4-3.2-1.3c-0.8-0.9-1.2-2-1.1-3.1c0-1.2,0.4-2.4,1.1-3.3l21.3-28.4l-20.1-27.9
	c-0.6-0.8-0.9-1.8-0.9-2.8c0-1.2,0.4-2.4,1.2-3.3c0.8-0.9,2-1.4,3.2-1.4c1.3-0.1,2.6,0.4,3.4,1.4l19.7,27.2l20.5-27.3
	c0.9-0.9,2.1-1.4,3.4-1.4c1.2-0.1,2.3,0.4,3.1,1.3c0.8,0.9,1.2,2,1.1,3.1c0,1.1-0.4,2.2-1,3.1L696.3-8.8L716.8,19.8z"/>
<path d="M732.8,26.1c-0.9-0.9-1.4-2.1-1.4-3.4v-62c0-1.3,0.5-2.5,1.4-3.4s2.1-1.4,3.4-1.3H758c3.8-0.1,7.5,0.8,10.9,2.4
	c6.3,3.1,10.3,9.6,10.2,16.6c0,2.9-0.8,5.7-2.4,8.1c-1.7,2.4-4,4.4-6.6,5.8c8.1,1.5,13.8,8.8,13.4,17c0.1,3.9-1,7.8-3,11.2
	c-2,3.3-4.9,6-8.3,7.7c-3.8,1.9-7.9,2.8-12.1,2.7h-23.8C734.9,27.5,733.7,27,732.8,26.1z M758-14.7c3.1,0.2,6.2-0.8,8.7-2.7
	c2.2-1.8,3.2-4.3,3.3-7.7c0-3.4-1.1-5.9-3.3-7.6c-2.5-1.8-5.6-2.8-8.7-2.6h-17.1v20.6L758-14.7z M760,18.7c4.3,0,7.7-1.1,10.3-3.3
	s3.9-5.4,3.9-9.5c0-3.8-1.3-6.7-3.9-8.7c-2.6-2-6.1-3-10.4-3h-19v24.5H760z"/>
<path d="M940.1-258.1c-18.1-37-45.5-68.8-79.4-92.2c-51.2-34.9-113.9-48.4-174.9-37.9c-2.5,0.4-5,0.9-7.5,1.5s-5,1-7.4,1.6
	c-4.9,1.3-9.9,2.5-14.7,4.1c-29.1,9.1-56.2,23.9-79.6,43.4l-2.9,2.4l-1.5,1.2l-1.4,1.3l-5.6,5.1l-1.4,1.3l-1.3,1.3l-2.7,2.7
	c-1.8,1.8-3.6,3.5-5.3,5.5l-5.1,5.6c-0.9,0.9-1.7,1.9-2.5,2.9l-2.4,2.9c-3.3,3.8-6.2,8-9.2,12c-5.9,8.2-11.2,16.9-15.9,25.8
	c-2.5,4.4-4.5,9-6.7,13.6c-0.6,1.1-1,2.3-1.5,3.5l-1.4,3.5c-0.9,2.3-2,4.6-2.8,7l-2.5,7.1l-0.6,1.8l-0.5,1.8l-1.1,3.6l-1.1,3.6
	c-0.4,1.2-0.7,2.4-1,3.6l-1.8,7.3c-0.7,2.4-1.1,4.9-1.6,7.4s-1,4.9-1.4,7.4l-1,7.5l-0.5,3.7l-0.3,3.8l-0.7,7.5
	c-0.2,2.5-0.2,5-0.4,7.5c-0.3,5-0.1,10.1-0.1,15.1c0,0.6,0,1.3,0,1.9l0.1,1.9l0.2,3.8l0.2,3.8l0.1,1.9c0.1,0.6,0.1,1.3,0.2,1.9
	c0.6,5,1,10,1.9,15c1.5,9.9,3.6,19.8,6.4,29.5c1.5,4.8,2.8,9.7,4.6,14.4c0.9,2.4,1.6,4.8,2.6,7.1l2.9,7
	C535.7-6.6,580.6,38.4,637,62.8c1.2,0.6,2.3,1,3.5,1.5l3.6,1.4l3.6,1.4l1.8,0.7l1.8,0.6l7.3,2.5l1.8,0.6c0.6,0.2,1.2,0.4,1.8,0.5
	l3.7,1.1l3.7,1.1c1.2,0.3,2.5,0.7,3.7,1l7.5,1.8c1.3,0.3,2.5,0.6,3.8,0.9l3.8,0.7L696,80l-0.1,1.1c-10.3-0.9-20.6-2.5-30.7-4.8
	c-5.1-1-10.1-2.5-15.1-3.9l-1.9-0.5l-1.9-0.6l-3.7-1.2l-3.7-1.2c-1.2-0.4-2.5-0.8-3.7-1.3c-19.6-7.3-38.1-17.2-55.1-29.5
	c-8.5-6.1-16.6-12.8-24.3-20c-3.7-3.7-7.6-7.3-11.1-11.2L542,4l-1.3-1.4l-1.3-1.5l-5.1-6c-6.6-8.2-12.7-16.8-18.2-25.7
	c-2.9-4.4-5.3-9.1-7.9-13.7c-0.7-1.1-1.2-2.3-1.8-3.5l-1.7-3.5c-1.1-2.4-2.4-4.7-3.4-7.1C484-97.2,477.5-139.9,482.5-182
	c2.4-20.9,7.5-41.5,15.2-61.1c0.9-2.5,2-4.9,3-7.3l1.6-3.6c0.5-1.2,1-2.4,1.6-3.6c2.3-4.7,4.5-9.5,7.2-14
	c5.1-9.2,10.7-18.1,16.9-26.5c3.2-4.2,6.3-8.4,9.7-12.4l2.5-3c0.8-1,1.7-2,2.6-3l5.3-5.8c1.7-2,3.7-3.7,5.5-5.6l2.8-2.8l1.4-1.4
	l1.5-1.3l5.9-5.2l1.5-1.3l1.5-1.2l3.1-2.5c24.4-19.8,52.5-34.7,82.7-43.7c5-1.6,10.1-2.7,15.1-4.1c2.5-0.6,5.1-1.1,7.7-1.6
	c2.6-0.5,5.1-1.1,7.7-1.4c20.6-3.4,41.6-4,62.4-1.9c10.4,1,20.7,2.6,30.8,5c71.9,16.7,132.1,65.7,163.2,132.7L940.1-258.1z"/>
<g class="st0">
	<path class="st1" d="M714.2-99.6c1.9,1.9,2.9,4.3,2.9,7c0,2.7-1,5-2.9,7c-1.9,1.9-4.3,2.9-7.2,2.9h-71.8c-2.8,0-5.2-1-7.1-2.9
		c-1.9-1.9-2.8-4.3-2.8-7c0-2.8,0.9-5.2,2.7-7l55.1-64.4c8.1-9.3,12.2-17.4,12.2-24.3c0-8.4-2.2-15.1-6.5-20.2
		c-4.3-5-10.3-7.6-17.8-7.6c-4.8,0-9.2,1.3-13.2,3.8c-4,2.5-7.1,5.9-9.4,10.2c-2.3,4.3-3.4,8.9-3.4,13.8c0,2.6-0.9,4.9-2.8,6.8
		c-1.9,1.9-4.2,2.9-7.1,2.9c-2.7,0-5-1-7-2.9s-2.9-4.2-2.9-6.8c0-8.7,2-16.5,6-23.5c4-7,9.5-12.5,16.4-16.5c6.9-4,14.7-6,23.4-6
		c8.7,0,16.3,1.9,22.8,5.6c6.5,3.8,11.6,9.1,15.1,16c3.6,6.9,5.3,15,5.3,24.3c0,5.7-1.6,11.6-4.9,17.8c-3.3,6.1-7.4,12-12.3,17.6
		l-44.4,50.4H707C709.8-102.5,712.2-101.5,714.2-99.6z"/>
	<path class="st1" d="M757.5-148.2c-6.9-3.9-12.3-9.4-16.2-16.4c-3.9-7-5.8-14.9-5.8-23.9c0-8.8,1.9-16.7,5.8-23.7
		s9.3-12.4,16.2-16.4c6.9-3.9,14.8-5.9,23.6-5.9c8.9,0,16.8,2,23.8,5.9c6.9,3.9,12.3,9.4,16.2,16.4s5.8,14.9,5.8,23.7
		c0,10-2.5,18.8-7.4,26.6l-44,73.3c-2.3,3.6-5.3,5.4-8.9,5.4c-3,0-5.4-1-7.4-2.9c-1.9-1.9-2.9-4.3-2.9-7c0-1.9,0.5-3.7,1.6-5.2
		l26.6-44h-3.3C772.3-142.3,764.4-144.3,757.5-148.2z M761.7-209c-5,5.3-7.6,12.2-7.6,20.6c0,8.4,2.5,15.3,7.6,20.7
		c5,5.4,11.6,8.1,19.6,8.1c7.9,0,14.4-2.7,19.4-8.1c5-5.4,7.6-12.3,7.6-20.7c0-8.4-2.5-15.3-7.5-20.6c-5-5.3-11.5-8-19.5-8
		C773.3-217,766.7-214.3,761.7-209z"/>
</g>
</svg>
