<?xml version="1.0" encoding="utf-8"?>
<!-- Generator: Adobe Illustrator 19.0.0, SVG Export Plug-In . SVG Version: 6.00 Build 0)  -->
<svg version="1.1" id="Layer_1" xmlns="http://www.w3.org/2000/svg" xmlns:xlink="http://www.w3.org/1999/xlink" x="0px" y="0px"
	 viewBox="481 -403.2 1062.1 907.2" style="enable-background:new 481 -403.2 1062.1 907.2;" xml:space="preserve">
<style type="text/css">
	.st0{enable-background:new    ;}
	.st1{fill:#B70606;}
</style>
<title>59 хв</title>
<path d="M1541.8,358.6c-2.8-12.3-5.8-24.4-13.7-34.7c-5.3-6.9-9.1-15.1-16.2-20.7c-2.1-1.6-0.4-2.7,0.9-3.3c2.7-1.3,5.6-2.2,8.3-3.5
	c1.8-0.8,4-1.9,3.2-4.3c-1.7-4.6-3.3-9.3-5.9-13.4c-5-7.9-11.9-14.2-19-20.3c-8.9-7.7-18.2-14.9-27.9-21.6c-4.1-2.8-7.5-6.7-11.8-9
	c-4.5-2.5-8.7-5.2-13.1-7.8c-12-7-23.5-14.6-36.7-19.2c-1.7-0.6-2-1.5-1.7-3.1c1.9-9.4,0.1-18.5-2.1-27.6
	c-2.7-10.9-6.4-21.6-10.9-32c-6.2-14.7-11.6-29.8-18.6-44.2c-0.9-1.7-0.9-3.7-0.1-5.4c1.9-4,1.5-8.7-1.1-12.3
	c-1.2-1.8-2-3.7-2.5-5.7c-2.6-10-6-19.7-11.5-28.5c-1.7-2.6-1.2-4,0.7-5.7c1.7-1.5,3.4-3,5.1-4.4c2.1-1.7,1.4-4.2,1.4-6.3
	c0-1.8-2.2-1-3.4-1.3c-6.9-1.9-14-2.5-21-3.4c-5.1-0.7-9.7-0.7-14.1-5.4c-6.5-6.8-15.9-9.7-25.1-12c-5.1-1.3-10.8-1.8-14.1-7
	c-1.4-2.5-3.7-4.4-6.3-5.5c-1.6-0.6-1-1.9-0.5-3.1c1.3-3.3,3.4-6.9,2.7-10.3c-1.2-5.5-3.1-11.2-6.6-15.6
	c-4.1-5.3-7.8-10.9-11.2-16.6c-1-1.7-2.2-3.7-4.6-4.1c-2.7-0.5-2.9-2.2-2.8-4.7c0.5-9.9,0.8-19.8,1-29.7c0.1-3.4-0.2-6.7-2-9.7
	c-4.5-7.2-9.8-13.9-15.7-20.1c-0.8-0.9-2-1.4-1.5-3c2.2-6.3,0-12.8,0.3-19.2c0.1-2.9-0.8-6.5-3.5-8.7c-7.3-5.6-14.3-5.4-17.9,4
	c-1.9,4.8-3.3,9.6-4.9,14.5c-2.5,7.7-4.7,15.4-3,23.7c1.5,7.3,6.2,11.6,12.7,14.4c1.6,0.8,3.6,0.4,4.8-1c1.5-1.6,2.9-3.4,4.2-5.2
	c1.7-2.7,2.9-1.9,4.5,0c4.4,5,5.2,11,5.2,17.3c0,7.4-1.6,14.6-1,22c0.1,1.4,0.6,4.2-1.1,4.2c-2.6,0.1-1.8-2.7-1.9-4.4
	c-0.5-6.3-5.5-11.4-11.8-11.9c-7.9-0.7-15.9-0.9-23.9-0.8c-2.3,0.1-3.4-0.7-3-3c0.2-1.9-0.2-3.7-1.2-5.3
	c-4.1-8.6-10.9-15.4-16.4-22.9c-3.5-4.8-7.8-9-11.2-13.7c-4.9-6.8-10.8-12.9-15.1-20.2c-1.8-3-2.6-5.5-2.3-8.9
	c0.7-6.5,1.8-12.9,1.3-19.5c-0.7-9.4-5-14.9-14.2-17.2c-9.4-2.3-21,3-25.8,11.4c-3.9,6.9-5.1,13.8-3.2,21.7
	c1.7,6.9,2.8,13.8,6.9,19.8c1.8,2.6,3.5,5.1,6.2,6.9c0.9,0.6,2.9,1.6,2.9-0.3c0-3.8,2.3-3,4.5-3.1c1.7-0.1,3.5-0.4,5.1-0.9
	c2.9-1,4.7-0.1,6.2,2.4c4.2,7,9,13.7,14.5,19.9c3.1,3.5,6.2,7,9.3,10.5c5.1,5.6,8.6,12.3,11.7,19.1c1,2.1,0.1,2.9-1.6,3
	c-2,0.1-4,0-5.9-0.3c-5.8-0.9-11.7-0.3-17.1,1.9c-4.1,1.6-8.1,3.2-12.1,4.9c-6.8,2.8-13.9,3.2-21.2,2.8c-4.3-0.2-7.6-0.7-8.6-5.7
	c-0.4-1.9-2.8-3-4.7-3.2c-6.4-0.8-12.8-1-19.2,0.5c-2.7,0.7-4.5,0.3-5.7-2.9c-3.6-9.2-7.8-18.2-12.5-26.8
	c-2.9-5.4-7.1-10.6-5.8-17.6c1-5.3,1.1-10.9,1.5-16.3c0.9-13-0.3-25.6-6.4-37.3c-1.6-3.1-3.9-6.1-4.5-9.3c-1-6.4-3.4-12.4-6.9-17.9
	c-1.4-2.1-0.2-3,1.5-2.8c4.3,0.5,8.3-1.1,12.5-1.7c5.3-0.7,10.2-2.4,10.8-9.1c0.2-1.8,1.3-2.7,3.2-3c3.1-0.4,6.2-1,9.2-1.7
	c1.2-0.2,2.8-0.6,2.9-2c0.4-4.8,3.3-8.7,4.7-13.1c3.8-11.6,4.3-23.7,5.2-35.7c0.3-4.3,2.1-5.5,5.9-3.3c3.2,1.9,6.6,2.2,10,2.6
	c4,0.4,7.6-3.4,7.8-7.5c0.4-5.8-2.3-11-3-16.6c-0.3-2.6-0.8-5.1-1.5-7.6c-0.5-1.8-0.9-4.4-3-4.6s-1.5-1.3-1.4-2.1
	c0.2-2.5,0-5-0.7-7.3c-2.1-9.5-7.3-16.8-15.5-21.4c-2.5-1.4-4.8-3.4-6.5-5.7c-9-11.2-21.5-16.5-35-19.7c-12-2.9-24.2-2.5-36.4-1.8
	c-8.9,0.6-17.8,2.4-26.3,5.2c-10,3.2-16.8,10.8-23.3,18.4c-4,4.7-8.9,8.7-11.7,14.4c-4.8,9.6-9,19.5-12.6,29.7
	c-1.4,4.2,2.6,12.5,7,13.3c3.4,0.6,4.6,3,6.5,5.3c5,6,4.8,15.1,12,19.6c0.2,0.1,0.3,0.4,0.4,0.6c3.5,7.6,8.2,14.4,12.8,21.4
	c0.8,1.1,0.9,1.9-0.1,2.9c-3.4,3.3-5.4,8.2-11,8.7c-1,0.2-1.9,0.8-2.4,1.6C959.5-211,946-194,932.5-176.9
	c-3.3,4.2-6.6,8.5-10.4,13.4c-0.1-0.7-0.2-1.5-0.2-2.2c-2.3,2.6-4.6,5.1-6.9,7.6c-0.1,0.5-0.2,0.9-0.3,1.4c-0.3,0.7-0.2,1.5,0.3,2.1
	c3.5,4.6,3.7,8.7,2.5,14.7c-0.5,2.7,0.5,5.9,0,8.9c-1,6.3,0.3,12.7-0.2,19c-0.6,7.7-0.3,15.6-1.8,23.2c-0.4,2.9-0.5,5.9-0.3,8.9
	c-0.2,16.7-2.2,33.2-3.3,49.8c-1,14.7-2.6,29.4-4.4,44c-1,7.7-0.3,15.6-1,23.4c-0.4,4.7,1.2,10-3.2,13.9c-0.5,0.5-0.4,1.5,0.3,1.5
	c3.2,0,1.9,1.9,1.7,3.5c-0.5,2.9-0.7,5.9-0.7,8.9c0.2,3.8-1.9,4.6-4.8,4.4c-4.9-0.1-9.7-0.6-14.5-1.2c-11.4-1.9-23-2-34.4-3.7
	c-11.7-1.8-23.7-1.6-35.6-2.5c-8.2-0.6-16.7-0.4-24.4-2.7c-6.3-1.9-12.1-1.2-18.1-1.1c-1.5,0-3,0.2-4-1.2c-1.1-1.4-2.8-2.2-4.6-2.2
	c-5.7-0.4-11.4-1.7-17.1-1.2c-0.1,1.1-0.1,2.1-0.2,3.2c1.6,0,3.2,0,4.8,0c3.1,0.2,6.2-0.2,9.3,0.1c3.8,0.4,7.2,2.5,9.3,5.6
	c0.5,0.7,1.2,1.9,1.8,0.7c1.8-3.5,4.2-1.7,6.4-1c1.7,0.6,3.5,1.4,5.1,2.2c-5,1.6-9.3,0.8-13.5,0c-0.6-0.1-1.1-0.8-1.6-0.8
	c-1.4-0.1-3.2-0.4-3.8,0.8c-0.6,1.2,0.8,2.3,1.9,3.1c8.7,6.4,18.1,11.6,26.7,18.3c8,6.2,17,11.1,25.2,17.2c1.5,1.1,3.8,2.3,4.5,3.4
	c2.3,3.3,4.3,1.8,6.7,0.9c5.8-2.2,11.7-3.9,18-3.9c1.5,0,2.9,0.6,4,1.7c0.5,0.4,1.3,0.3,1.7-0.1c0.7-0.6,0.2-1-0.1-1.6
	c-1.5-2.5-3-4-6.5-3.8c-6.6,0.4-12.9,2.7-19.4,3.5c-1.8,0.4-3.7,0-5.2-1.1c-4.6-3.5-9.1-7.2-14.2-10c-1.3-0.7-3.1-1.6-2.8-3
	c0.4-1.4,2.4-1.4,3.9-1.5c16.7-1,33.4,0,50,1.3c12.4,1,24.5,3.9,36.8,5.6c17.2,2.4,33.5,8.1,50.1,12.8c13.1,3.8,26.4,7.5,38.7,13.5
	c6.8,3.3,13.3,7.2,20,10.8c1.6,0.9,1.3,1.8-0.2,3c6.8-0.8,11.1,3.3,15.8,6.2c0.9,0.5,1.8,1,2.7,1.5c1.5,0.9,4.2,0.3,4.3,3.3
	c0,0.9,1.2,0.4,1.9,0.5c2.2,0.5,4.7,0.5,5.5,3.3c0.2,0.6,0.6,0.7,1.1,0.8c12.8,3.2,19.1,13.3,25,23.8c1.4,2.5,2.8,5,4.4,7.3
	c0.8,1.1,1.6,2.6,3.8,2.3c-3.3-9.7-9.9-17.2-14.1-26c-1.4-3.1-3.4-5.8-7.4-5.5c0.2-1.9,1.7-2.2,2.7-2.6c9.7-3.9,19-8.8,27.7-14.7
	c2.9-2,6.4-2.9,9.9-2.4c6.3,0.9,12.7,0.8,19,0.9c-8.9,6.2-18.7,10.6-27.6,17.7c2.4,0.5,3.2-1,4.5-1.6c8.8-4.2,16.9-9.5,25.3-14.4
	c2.3-1.3,4.9-1.9,7.5-1.8c1,0,2.4-0.8,2.9,0.7s-0.5,2.4-1.5,3.1c-4.4,3-8.8,6.1-13.3,8.8c-4.9,2.9-9.9,5.6-14.8,8.6
	c2.7,0.4,5-1,7.3-2c4.4-1.9,8.7-4.3,13-6.4c0.4-0.2,0.7-0.4,1-0.5c1.7-0.7,4-2.3,5-0.5s-1.6,2.5-3.2,3.6c-6.8,4.5-13.6,9-19.6,14.5
	c5.9-1.8,10.7-5.4,15.6-8.8c1.7-1.2,3.6-3.7,5.3-2.4c1.5,1.1,0,4-0.8,5.8c-1.2,3.3-1.9,6.7-2.3,10.2c-0.4,2.8-1.7,4.3-4.2,5.5
	c-9.9,4.8-17.5,12.7-26,19.3c-0.6,0.5-1.4,1.4-0.4,2.2c1.2,1,3.1,0.8,4.1-0.4c4.8-5.9,11.1-10.2,16.7-15.3c2.2-2.2,4.9-3.7,7.9-4.4
	c-0.4,4.2-1.6,7.2-5.6,9.5c-7.7,4.4-14.9,9.8-20,17.4c-0.3,0.3-0.7,0.6-1.1,0.8c-1.3-0.8,0.1-3.2-1.9-3.3c-1.7-0.1-2.5,1.5-3.4,2.6
	c-3.6,4.2-5.8,9.5-10.3,13.1c-0.8,0.6-1.5,1.7-2.3,1.8c-5.2,0.7-3.9,4.3-3.1,7.2c2.2,7.8,2.1,15.2-1.9,22.5
	c-2.1,3.7-3.7,7.6-5.5,11.4c-1.2,2.4-2.2,3.7-4.2,0.5c-2.7-4.3-2.8-9.4-4.8-13.9c-1.1-2.6-1.5-5.5-2.2-8.3c-0.4-1.7-0.6-3.2,1.1-4.3
	c0.6-0.4,1.2-1,0.8-1.8s-1.3-0.4-2-0.3c-2.2,0.2-4.1-0.7-5.5,2.9c-1.1,2.8-5.5,4.3-8.4,6.5c-12.1,9-25.8,15.3-39,22.4
	c-6.2,3.3-13,5.5-19.5,7.9c-4.2,1.6-7.9,4.1-12.5,4.8c-2.4,0.4-2.6,2.3-1,4.2c3.9,4.5,7.3,9.4,11.8,13.3c0.7,0.6,1.4,1,1.5,2
	c0.2,1.7-0.6,4.6,2.8,1.6c0.5-0.5,4.7,1.8,5.9,3.6c0.9,1.3-1.3,1.4-2.8,1c-5.7-1.5-11.1-4-16.5-6.3c-12-5-24.4-9.4-36.8-13.2
	c-3.4-1-6.3-2.8-9.5-3.9c-0.9-0.3-2.1-0.8-2.6,0.4s0.7,1.7,1.6,2.1c0.9,0.3,1.9,0.6,2.9,0.8c0.6,0.1,1.6,0,1.6,0.7
	c-0.2,6.2,5.3,4.7,8.3,5.6c6.4,1.8,12.7,4.2,18.9,6.5c19.6,7.1,38.8,15.4,58.6,21.8c16.5,5.3,33.3,9,50,13.2
	c10.6,2.6,21.1,6.3,32.1,7.3c0.3,0,0.5,0.1,0.7,0.2c10.7,4.7,22.4,5.7,33.5,8.7c6.7,1.7,13.7,2.6,20.5,4c11,2.3,21.9,5.1,32.9,6.8
	c14.4,2.2,28.9,3.4,43.4,5c14.7,1.6,29.6,1.9,44.3,0.8c6.9-0.5,13.8-1.5,20.4-4c5.9-2.3,9.9-6.3,13.6-11.2
	c11.8-15.5,21.3-32.4,31-49.2c8-13.9,15.4-28.1,23.6-41.9c5.8-9.8,10.8-20.1,16.2-30.1c1.3-2.5,2.9-4.9,4.2-7.5
	c3.3-6.8,2.6-13.3-0.7-20.1c-2.2-4.3-3.5-9-3.8-13.8c-0.2-2.8-0.9-5.6-2.2-8.2c-5.3-12-10.6-24-16.3-35.8c-2.9-6.1-6.5-11.9-10-17.7
	c-6.2-10.4-12.8-20.6-18.8-31.1c-5.6-9.8-13.2-18.1-19.8-27.2c-1-1.4-2.2-2.7-3.5-3.8c-6.8-5.6-9.2-13.7-12-21.6
	c-1.8-5-3.6-9.9-3.3-15.3c0.3-5.4,8.3-13.5,13.5-12.5c2.3,0.4,4.7,0.8,6.8,1.3c7.8,1.7,15.8,3.5,22.6,8.2
	c9.6,6.5,16.3,15.5,22.3,25.1c5.9,9.3,11.2,19,16,29c8.1,16.9,17.4,33.3,23.5,51.2c4.2,12.4,9.7,24.4,14.2,36.7
	c2.4,6.7,5.4,13.4,6.1,20.6c0.7,6.7,1.4,13.6-2.9,19.7c-0.4,0.5-0.5,1.1-0.5,1.7c1,7.1-3.5,12.5-5.5,18.6c-0.3,0.9-0.5,2-1.8,2.1
	c-4.4,0.2-6.3,3.6-8.2,6.8c-7,12-13.6,24.3-20.7,36.2c-8.6,14.4-17.6,28.5-27.1,42.3c-0.9,1.3-1.7,2.7-2.5,4.2
	c-2.4,4.7-5,9.1-10.1,11.5c-2.1,0.7-3.6,2.5-4.1,4.7l4.4-2c-1.3,4.6-5.2,6.6-8.5,9.1c0.8,1.2,1.9-0.8,2.7,0.3
	c-8.8,14.6-19.9,27.5-29.8,41.4c-1.2-0.5-0.3-1.5-0.6-2.2c-0.2-0.7-0.8-1.3-1.6-1.3c-0.7-0.1-1,0.4-1.3,1
	c-4.8,8.7-12.4,14.4-20.3,19.8c-4.3,3-8.8,5.8-13,9.1c7.7-2.3,14.1-6.8,21-10.6c-3,5.3-7.9,8.3-13.2,10.6
	c-12.8,5.6-26.8,7.9-40.7,6.7c-13-1.1-25.8-3.6-38.8-4.1c-16.1-0.6-32.3-1.8-48.4-0.9c-4,0.3-7.9,0-12.4,0c1.8-3.8,5.5-4.8,8.2-7
	c1.8-1.4,3.6-2.6,5.6-3.7c1.4-0.9,0.7-1.8,0.1-2.8c-0.8-1.4-1.6-0.2-2.1,0.2c-4.7,4-10.9,6.4-13.4,12.7c-0.2,0.6-0.8,1-1.5,1
	c-10.6,0.5-21.2,1.1-32.6,1.6c5-5.8,10.9-9.2,16.3-13.2c1.9-1.2,3.6-2.6,5.2-4.2c0.6-0.7,1.1-1.4,0.3-2.3c-0.9-1.1-1.5,0-2.2,0.4
	c-7.7,5.3-15.3,10.7-21.1,18.2c-0.6,0.7-0.9,1.5-1.9,1.6c-6,0.7-12.1,1.1-18.2,1c6.1-4,12.1-8,18.3-12c2-1.2,4-2.6,5.7-4.2
	c0.8-0.8,2.5-1.5,1.1-2.9c-1.1-1.2-2.3-0.2-3.3,0.5c-4.2,3-8.5,6-12.7,9.2c-3.8,2.8-7.3,5.9-11.1,8.8c-3.8,2.9-8.3,2.3-12.7,2.9
	c4-4.8,8.8-8.8,14.1-12c2.8-1.7,4.9-4.2,7.8-5.8c0.8-0.5,1.8-1.2,1-2.4c-0.9-1.4-1.8-0.7-2.8,0c-7.9,5.6-15.6,11.5-22.1,18.9
	c-2.5,2.8-12.3,5.2-16.2,3.8c4.9-4.7,10.5-8.2,15.8-11.9c3-2,5.9-4.2,8.7-6.3c0.5-0.4,1.4-1,0.8-1.8s-1.4-0.6-2.3-0.1
	c-9.2,5.1-17.5,11.7-24.5,19.5c-1.1,1.3-2.2,1.5-6,0.8c0.2-1.6,1.5-2.2,2.5-2.9c5.4-4.4,10.8-8.9,16.9-12.3c0.7-0.3,1.2-0.8,1.7-1.4
	c0.6-1,0.9-2.3,0.1-3.1c-0.7-0.7-1.6,0.3-2.3,0.7c-7.3,5.2-14.4,10.6-20.1,17.6c-0.6,1-1.8,1.4-2.9,1.2c-5.2-1.1-10-2.7-12.5-8.1
	c-2.8-6.1-6.5-11.6-10-17.4c-6.7-11.2-14.1-21.8-21.4-32.6c-2-3-4.7-5.4-6.9-8.2c-1.7-2.1-3-3.8,2.3-4.9c-5.1-1.2-7.3-3.7-9.4-6.5
	c-5.6-7.5-11.9-14.5-17.9-21.8c-10.2-12.4-23-22-35.3-32c-4.1-3.4-8.5-6.5-13-9.8c2.4-1.3,5.1-1.6,7.8-2.2
	c16.6-3.3,32.9-7.9,48.8-13.6c21-7.5,40.8-17.5,60.1-28.5c11-6.3,22.3-11.9,32.6-19.4c7.6-5.5,16.4-9.3,23.9-15.2
	c4.3-3.4,4.2-5.3-0.3-8.3c-12.3-8.2-25.5-14.7-38.3-21.8c-8.6-4.7-17.5-9-26.6-12.9c-11.9-5.1-23.2-11.6-35.5-15.7
	c-9.7-3.3-19.4-6.9-29.8-7.5c-3-0.2-5.5-2.4-8.6-3.2c-10.5-2.6-20.8-5.5-31.6-6.8c-2.1-0.2-5,1.1-6-2.3c-0.4-0.2-0.9-0.3-1.3-0.1
	c-3.1,3-6.7,0-10,0.8c-0.7,0.2-2,0-1.3-1.4c0.5-1,0.5-1.6-0.5-2.1c-0.7-0.4-1.6-0.1-2,0.5c-3.8,4.8-9,2.9-13.8,3
	c-0.8,0-1.9,0.1-1.5-1.4c0.2-0.8,1-1.7-0.3-2.2c-1.1-0.5-1.8,0.2-2.5,1c-3.4,4.1-9.3,5.3-15.3,5.4c-0.4-1.3,1.5-1.5,1.4-2.8
	c-0.1-0.8-0.1-1.5-0.9-1.9c-0.6-0.3-1.3-0.2-1.6,0.4c-6.3,8.1-16,9.8-24.9,13.1c3.5-2.5,6.9-5.2,10.1-8c0.8-0.8,1.8-1.7,1-2.8
	c-0.8-1.1-1.8-0.1-2.6,0.3c-4.7,2.3-8.9,0.8-10.4-4.3c-0.2-1.5-1.3-2.8-2.8-3.3c-0.5-0.1-0.9-0.3-1.3-0.7c-5.9-6.7-14.4-10.2-21-16
	C777.6,84,764.7,78.6,754,70c-0.9-0.6-2-1.1-3-1.4c-0.7-0.3-1.9-0.7-1.9-1c-0.2-2.6-1.6-4.1-3.4-5.4c-0.1,1.2-0.3,2.3-0.4,3.5
	c0.3,0.1,0.5,0.3,0.8,0.4c-0.3,0.2-0.6,0.4-0.9,0.6c-0.2,1.2-0.4,2.4-0.6,3.6c-0.1,0.4-0.2,0.7-0.3,1c0.4,1,0.4,2.1,0.2,3.2
	c0.7,0.2,1.4,0.5,2.1,0.8c7.8,3.7,15.7,7.9,21.5,15.6c-0.9,0.2-1.9,0.4-2.9,0.6c-1.9,0.1-4-0.1-5.9,0.4c-3.3,0.8-5-0.7-6.6-3.3
	c-2.2-3.6-8.4-5.9-12.7-5.5c-8.2,0.9-15.9,3.5-23.5,6.6c-5.8,2.4-10.3,6-12.1,12.2c-1.2,3.9-2.8,7.4-6.1,10.2
	c-7.5,6.2-14.7,12.5-20.5,20.5c-5.5,7.6-12.4,14.2-17.5,22.2c-3.3,5.1-6.2,10.5-9.6,15.5c-2.5,3.6-6.3,6.3-8.3,10.4
	c-6.2,12.9-14.3,24.7-21.3,37.1c-8.3,14.8-17.3,29.3-26.1,43.8c-4.1,6.8-6.6,14.6-11.6,20.8c-3.4,4.1-4,8.7-4.7,13.4
	c-0.8,5.1,1.6,8.9,5.9,9.7c9.3,1.7,18.6,3.2,27.8,5c5.7,1.1,11.4,0.8,17.1,0.8c1.1,0,2.5-0.4,3.2,0.6c0.8,1.2-0.6,2-1.1,2.9
	c-2,3.6-4.5,6.8-6.5,10.5c-3.7,6.9-5.6,14.6-9.6,21.4c-2.7,4.8-4.5,10-5.3,15.5c-2.4,12.6-1.9,25.3,0.4,37.8
	c3.5,18.8,9.2,36.7,22.1,51.7c8.8,10.1,17.1,20.6,28.4,28.3c19.1,13.2,39.3,23.3,62.7,25.9c10.1,1.1,20.3,1.6,30.5,0.2
	c13-1.8,25.4-5.9,38-9.1c8.6-2.2,15.9-7.2,22.9-12.3c12.8-9.3,24.2-20.1,32.6-33.6c4.7-7.6,9.6-15.1,15-22.3c1-1.3,1.7-3.4,3.7-3.3
	c4,0.2,7.8-1.1,11.8-1.4c15.8-1.3,31.4-3.9,46.9-6.5c19.9-3.4,39.6-8.4,59.3-12.9c3.9-0.9,6.5-0.4,8.6,3.4
	c7.9,13.9,21.6,17.8,35.7,16.6c20.8-1.7,41.6-3.6,62.2-7.2c16.1-2.8,32.7-2.6,49.1-3.2c22.9-0.8,45.8,0.8,68.6,2.2
	c12.4,0.8,24.8,0.9,37.2-1.2c3.4-0.6,6.8-1.3,10.3-0.5c2.2,0.4,4.6,0.1,6.6-1c4.7-2.2,9.2-4.9,13.3-8.2c3.9-3.4,7.5-7.2,10.7-11.3
	c0.5-0.7,1.1-1.6,2.1-1.1c0.8,0.3,0.5,1.3,0.6,2c0.3,2.6,0.7,5.2,1.3,7.7c3.4,11.8,8.4,23.1,15,33.5c7.7,12.4,16.1,24.2,26.4,34.4
	c11,10.9,23.9,19.6,38.1,25.6c12.6,5.4,25.9,6.9,39.5,6.4c4.6-0.2,9.3-0.1,14-1.2c9.6-2.3,18.5-6.5,27.8-9.5
	c6.9-2.2,13.9-3.5,20.6-6.5c14-6.2,26.3-14.6,36.4-26c6.2-6.9,11.2-14.9,16.6-22.4c1.7-2.1,3.2-4.5,4.4-6.9
	c6.2-14.7,12.3-29.4,13.3-45.7C1543.1,375.7,1543.8,367.3,1541.8,358.6z M1271.7-36.4c-1.8,0.1-3.7,1.7-4.9-0.4
	c-0.5-1,0.8-1.7,1.7-2C1270.7-39.6,1270.8-37.6,1271.7-36.4z M1222-117.1c0-0.6,0-1.2,0.1-1.9l0,0c1.8-10.4,3.4-20.7,7.1-30.7
	c0.4-1.1,0.7-2.5,2-2.1s0.5,1.8,0.3,2.6c-2.3,10.8-4.7,21.5-7.2,32.3c-0.2,1-0.4,2.7-1.7,2.6C1221.1-114.5,1222.1-116.1,1222-117.1z
	 M1229.8-99.6c-1.4,1-2.5,0.4-3.5-0.9c1.5,0.5,2.5-2.3,4-0.7C1230.7-100.8,1230.4-100,1229.8-99.6z M1230.3-107.4
	c-0.6,2.5-1.9,4.6-5,4.4c-2.3-0.2-3.2-1.6-2-3.6c4-6.7,4-14.5,5.8-21.8c1.4-5.5,2.6-11,3.8-16.6c0.3-1.6,0.6-3.2,0.9-4.7
	c0.1-0.9,0.8-1.6,1.7-1.8c1-0.1,1.5,0.7,1.9,1.5c0.8,2,1,4.2,0.7,6.3l0,0c-1.7,6.9-2.4,14.8-4.8,22.4
	C1231.8-116.7,1231.3-111.9,1230.3-107.4L1230.3-107.4z M1249.7-43.9c2.8,0,3.9,0.8,3.1,3.8c-0.6,2,0.3,4.1,2.1,5.1
	c3.2,1.9,4.8,5.7,3.9,9.3c-0.7,3.9-1,7.9-2.3,11.7c-0.3,0.8-0.2,1.9-1.4,1.9c-0.9,0-1.1-1-1.2-1.7c-0.3-2.7-2-4.8-3.3-7
	c-1.4-2.1-2.1-4.5-1.9-7c0.1-0.9,0-1.9-1.1-2.1c-1.1-0.3-1.4,0.5-1.8,1.4c-0.8,2.1-2.6,2.3-4.6,1.9c-6-1.3-10.7,0.4-13.7,6.1
	c-1.4,2.7-4.1,3.9-6.9,4.6c-14.5,3.6-29.4,5.1-44.3,4.5c-1.5,0.1-2.9,0.3-4.4,0.6c2-3.1,2.7-5.7,6.1-7.7s4.7-7.5,4-12.1
	c-0.5-3.7,1.3-6.2,3.2-8.7c1.1-1.3,2.8-1.8,4.4-1.4c9.5,1.5,19,0,28.5-1C1228.6-42.8,1239.1-43.8,1249.7-43.9L1249.7-43.9z
	 M1239.6,3c1.9-1.4,4-1.3,5.9-1.9c1.2-0.4,1.9,0.1,2.8,1.2c4.4,5.5,8.2,11.5,13.6,16.2c3.7,3.3,7.9,5.9,11.7,9.2
	c2,1.6,3,4.1,2.8,6.7c-4.5-0.7-7.8-3.6-11.6-5.4c-0.5-0.3-1-1-1.5-1c-9-0.7-13.7-8.3-20.3-12.7c-4.2-2.8-8.1-6.1-12.1-9.3
	c-0.8-0.6-1.6-1-2.3-0.3c-1.2,1.2,0.2,1.7,0.9,2.2c6.2,4.6,12.4,9.1,18.5,13.6c2,1.4,4,2.9,5.9,4.4c0.6,0.5,1.9,0.8,1.3,1.9l0,0
	c-0.6,1-2,1.3-2.9,0.6c-2.6-1.2-4.7-3.2-7.2-4.6c-10.7-6-20.8-12.9-30.9-19.8c-0.7-0.5-1.3-1.2-1.7-1.9c-0.5-0.7,0.2-2.3-1.6-1.8
	c-1,0.2-1.8,0.9-2.2,1.9c-0.3,1.3,1,1.5,1.8,2c10.4,6.3,19.7,14.2,30.7,19.6c2.5,1.4,4.9,2.9,7.2,4.6c1.5,0.9,1.7,1.8,0,3
	c-3.6,2.6-5.1,2.9-10.3-1.2c-7.5-5.9-15.6-10.9-22.8-17c-3.1-2.6-7.2-4-9.2-7.8c-0.6-1.1-1.3-0.2-1.9-0.1c-0.9,0-1.7,0.7-1.9,1.6
	s0.5,1.4,1.2,1.7c9.8,4,17.1,11.9,25.8,17.5c3.5,2.1,6.7,4.6,9.7,7.3c0.7,0.6,2.7,0.6,1.7,2.3c-0.8,1.3-2.6,2.2-3.9,1.2
	c-3.8-2.9-8.6-4.1-12.3-7c-6.3-5-12.6-10-18.8-15c-0.5-0.4-0.8-1.1-1.5-0.6c-0.8,0.6-0.3,1.4,0.3,1.9c7.6,6.4,14.5,13.6,23.5,18.2
	c1.2,0.6,2.4,1.3,3.5,2.1c1.2,1,4.4,0.6,3.3,3.2c-1.1,2.6-6.2,3.9-8,2.5c-5.7-4.4-11.5-8.8-16.7-13.9c-1.1-1.1-3.1-3.2-4.1-2
	c-1.3,1.6,1.3,2.8,2.5,3.8c5.2,4.4,10.6,8.6,15.9,12.9c0.7,0.5,2.4,0.5,1.7,1.9c-0.6,1.2-1.8,1.8-3.1,1.7c-2.9-0.2-5.6-1.4-7.7-3.5
	c-3.1-3.2-7-5.5-9.7-9.2c-1.5-2-2.1-4.1-2.9-6.3c-0.3-0.7-1.2-2.7,1.3-2.3c1.2,0.2,1.2-0.8,0.7-1.4c-1-1.2-2.1-2.7-3.4-3.2
	c-3.7-1.4-4.1-5.3-3.8-7.6c0.6-5,1.2-10.6,6.9-13.2c1.6-0.7,3.1-1.6,4.4-2.8c5-4.8,10.3-4,15.8-1.1c0.6,0.4,1.7,1.2,1.6,1.4
	c-1.8,4,1.9,3.1,3.4,3.8c8.4,4.1,16.3,9,23.8,14.5c0.8,0.7,1.8,1.1,2.9,1l0,0C1251.4,10.8,1244.6,7.8,1239.6,3L1239.6,3z
	 M1220.1,313.7c0.1-1.2,0.4-2.7,1.9-2.9c1.7-0.3,1.3,1.6,1.7,2.4c2.3,5.4,4.5,11,6.8,16.4c0.9,2.2,0.8,3.5-1.4,2.8l0,0
	c-4.1-0.7-6.4-1.9-6.5-6c-0.1-3.2-1.4-6.3-2.1-9.4C1220.1,315.9,1220,314.8,1220.1,313.7z M1220.3,327.6c0.1,1.5-0.9,1.7-1.9,1.6
	c-1.4-0.2-3.5-0.4-3-2.4c0.4-1.6,0.4-4.6,2.5-4.4C1220.1,322.7,1219.5,325.8,1220.3,327.6L1220.3,327.6z M1230.6,323.8
	c-1.9-4.9-3.3-10.1-6.1-14.7c-0.9-1.7-0.7-3.4-1-5l0,0c0.3-1.9,1.2-3.7,3-3.9s2,1.7,2.7,3c4.7,10.2,8.9,20.7,12.4,31.5
	c0.3,0.8,1.5,1.7,0.3,2.6c-1,0.7-1.8-0.3-2.7-0.5C1231.9,335.4,1232.5,328.6,1230.6,323.8L1230.6,323.8z M1227.9,292.8
	c-1.4-0.2-3.1-0.8-1.8-3.8c0.9-1.4-0.3-4.9,3.1-5.9c0.8-0.3,3.9,5.1,3.4,6.2C1231.7,291.3,1230.3,293.1,1227.9,292.8L1227.9,292.8z
	 M1221.1,282.9c-3.3,7.5-4.2,15.8-6.8,23.5c-1.4,4.2-2.8,8.5-4.3,12.7c-0.4,1.1-0.9,2.1-2.7,1.5c-3.9-1.3-7.9-2.3-11.9-2.8
	c-6.2-0.7-11.1-4.1-16.3-7c-1.7-0.9-2.4-2.6-2.8-4.6c-0.4-2.3-0.9-4.6-1.7-6.9c-0.7-2.2-1.9-4.3-4.3-4.8c-3-0.7-5-2.6-6.8-4.9
	c-3.3-4.1-6.7-8.3-10.3-12.2c-2-2.2-3-5.1-4.8-7.4c-1.4-1.8-1.4-3.2,0.6-5.3c2.4-2.6,4.2-5.6,5.3-9c1.9-5.5,5.2-10.7,8.4-15.7
	c8.5-12.7,15.7-26.2,23.6-39.2c1.1-1.8,1.7-3.9,4.4-4c1,0,1.1-1.3,1.5-2c4.4-8.3,8.7-16.7,13-25.1c2.6-5.1,6-9.7,9.1-14.5
	c6.4-10.2,12.5-20.5,18.8-30.8c0.5-0.9,0.9-2.2,2-2c1.4,0.2,0.6,1.7,1,2.4c1.9,3.8,3.9,7.5,5.9,11.1c3.2,5.9,6,12,8.3,18.3
	c1.6,4.2,1.6,9,0.9,13.6c-3,22.3-7.8,44.2-13.4,66c-1.3,5.2-4.6,9.7-5.9,15.1C1229,260.4,1226,271.9,1221.1,282.9L1221.1,282.9z
	 M1232.6,78.1c-2.7-3.2-1.9-6.4-2.9-9.6c-0.1,0.4-0.3,0.9-0.3,1.3c-0.3,1.3-1,2.2-2.3,1.9s-1-1.5-0.9-2.5c0.4-3.4,0.5-6.8,0.3-10.1
	c-2.3,1.3-1.1,3.3-1.6,4.9c-0.2,0.8-0.1,1.8-1.2,2.1c-1,0.3-1-0.8-1.5-1.2c-1.5-1.2-3.1-2.4-4.7-3.5c-3.4-2.3-5.3-5.7-6.6-9.5
	c-0.3-0.9-0.2-1.5,0.6-1.9c1.1-0.5,2.3-1,3.1,0.1c1.4,2,4,1.4,5.6,2.3c1.6,0.9,2.1-1.5,3.5-1.3c0.9,1.2-0.3,2-0.3,3.1
	s0.1,2.5,0.8,3.1c0.8,0.8,1.3-0.7,1.9-1.1c0.3-0.2,0.6-0.3,1-0.4c4.6,1.1,9.1-0.1,13.7-0.1c1.4,0,2.2,0.2,2,2.2
	c-1,9-1.7,18.1-2.4,27.1c-0.1,1.4,0.3,2.8-1.6,3.3c-2.1,0.5-1.5-1.5-2.1-2.3C1234.6,83.8,1234.3,80.1,1232.6,78.1z M1227.2,51.7
	c0.9-1.9,1.4-4.5,4.1-4.8c1.1-0.1,1.6,1,1.8,2c-1.1,1.8-1.2,4.5-4.3,4.1C1227.9,52.9,1226.6,52.9,1227.2,51.7L1227.2,51.7z
	 M1242.5,50.4c-1.7,2.8-4.5,2.4-7,2.5c-1.4,0.1-1-1.2-0.4-2.2c2.1-3.5,3.7-7.3,6.3-10.4s6.6-4.6,10.1-6.6c0.8-0.4,1.4,0.3,1.3,1.5
	c-1.7,0.9-2.5,2.7-3.5,4.6C1247.2,43.4,1244.7,46.9,1242.5,50.4L1242.5,50.4z M1243.8,51.5c4.2-6.9,9.9-12.1,12.8-19.2
	c0.7-1.7,2.6-2.5,4.3-1.8c0.2,0.1,0.3,0.1,0.5,0.2c1.7,1,0.7,3.3-0.2,4.2c-4.3,4.4-6.2,10.1-9.4,15
	C1249.8,52.8,1246.9,52.2,1243.8,51.5L1243.8,51.5z M1253.4,49.9c1.5-2.5,3.2-4.9,5-7.3c2-2.2,3.5-4.8,4.5-7.6
	c0.8-2.7,2.4-2.9,4.9-1.9c3,1.2,2.2,3,1,4.7c-2.2,3.1-4.1,6.4-5.7,9.9c-1.8,3.9-5.1,4.2-8.7,4.2C1252.4,52,1252.7,51,1253.4,49.9
	L1253.4,49.9z M1264.5,49.3c2.6-3.5,4.8-7.2,6.8-11.1c0.9-1.9,2.3-1.6,3.7-0.6c2.1,1.5-0.3,1.7-0.8,2.6c-1.2,2.3-2.8,4.3-3.1,7
	c-0.4,3.3-2.5,4.3-4.8,4l0,0C1263.9,51.3,1263.4,50.6,1264.5,49.3L1264.5,49.3z M1171.3,39.7c-16.1-2.2-32.2-5.1-48.5-6.1
	c-2.5-0.3-4.9-0.9-7.2-1.7c-8.3-2.3-16.7-4.8-25-7.1c-4.8-1.4-10.2-0.6-14.8-3.2c-3.8-2.1-7.9-2.7-12.1-3.1c-3.1-0.3-4-1.7-3.6-4.6
	c0.1-1.3,0.2-2.7,0.1-4c0.9-5.5-1.2-10-1.4-14.7c-0.1-3.5,1-4.3,4-3.9c7.4,1.1,14.6,3.2,21.4,6.2c8.8,3.9,18,6.4,27.2,8.6
	c15.4,3.7,31.1,5.1,46.8,7.1c3.6,0.4,7.2,0.3,10.8-0.2c1.6-0.2,3-1.1,4-2.4c2.7-2.9,6-5.1,7.9-9c1.3-2.6,6.5-1.1,7.3,1.9
	c2.2,9.2,6.3,17.7,9.8,26.4c2.6,6.5,3.9,13.6,7.3,19.9c1,1.9-0.1,2.7-1.8,2.4c-3.8-0.6-7.6-1.4-11.3-2.2c-0.9-0.1-1.7-0.6-2.3-1.2
	C1185.2,42.5,1178.3,40.7,1171.3,39.7L1171.3,39.7z M1187.5,55.1c-0.2,1-1.3,1-2.2,1.1c-5.9,0.8-11.9,1-17.8,0.7
	c-6.3-0.9-12.7-0.2-18.9-0.1c-8.5,0-16.4-2.1-24.5-3.9c-0.8-0.3-1.5-0.8-2.1-1.4c-5-4.5-10.7-5.3-17-3.3c-2.6,0.9-5.1-0.1-7.3-1
	c-13.9-5.5-28.4-9.3-42.1-15.4c-2.4-1.1-3.3-4-1.9-7.1c1.1-2.5,2.8-1.3,4.6-0.8c9,2.8,18.2,4.9,27.4,7c12.6,2.9,25.1,5.9,37.3,10.2
	c7.9,2.8,16.7,2.8,25,3.5s16.6,1.4,24.8,2.8c4.9,0.8,9,3.5,13.3,5.6C1186.9,53.5,1187.7,54.1,1187.5,55.1L1187.5,55.1z M1173.4-2.3
	c0.3,0.8,1.8,1.5,0.5,2.5c-0.7,0.6-1.7,1.3-2.7,0.6c-0.8-0.6-2.1-0.8-2.1-2.3c-0.1-1.9,0.4-3.7,1.3-5.3c0.6-0.9,1.4-1.8,2.4-1.5
	c1.5,0.4,0.3,1.6,0.3,2.4C1172.9-4.8,1173-3.5,1173.4-2.3z M1176-7.9c0.5-0.4,1.4-0.4,1.6,0.2c0.4,1.5-0.2,2.8-2,4.2l0,0
	C1175.9-5.3,1174.3-6.6,1176-7.9z M1195.4-2.3c4.3-2.8,9.3-4.7,14.4-5.3c-2.3,2.6-5.3,3.7-8.2,5.1c-2.7,1.3-4.8,3-4.1,6.5
	c0.1,1,0,2-0.3,3c-0.1,0.6-0.5,1.2-1.1,1.3c-0.8,0.1-1.5-0.3-1.8-1C1191.8,3.9,1192-0.1,1195.4-2.3z M1194.5-6.5
	c2.1-3.4,5.1-2.1,7.4-2.9C1200.1-6.9,1197.6-6.9,1194.5-6.5L1194.5-6.5z M1189.7-52c0.3-0.8,1.4-1.9,2.4-1.2
	c1.2,0.8,0.1,1.8-0.4,2.5c-1.3,2-3.1,3.5-4.1,5.7c-0.7,1.6-2.5,1.3-3.9,1.5c-1-0.1-2-0.1-2.2-1.2s0.9-1.3,1.6-1.7
	C1185.8-47.6,1188.4-48.9,1189.7-52L1189.7-52z M1189.3-61.3c0-1,0.9-1.8,1.9-1.9l0,0c1.2,0,1.8,0.3,1.4,1.3c-0.3,1.1-0.7,2.1-2,2.2
	C1189.3-59.5,1189.3-60.4,1189.3-61.3L1189.3-61.3z M1218.4-57.9c0.4,1.5-0.5,2.4-1.8,3.5l0,0c-0.9-1.9-0.4-3,1-3.7
	C1217.7-58.2,1218.4-58,1218.4-57.9L1218.4-57.9z M1215.6-70.3c0.5-0.1,1.2-0.1,1.2,0.5c-0.1,1.6-1.5,2.1-3.1,3.3
	C1214.1-68.4,1213.7-70,1215.6-70.3L1215.6-70.3z M1206.4-63.6c0.1,3.1,2.9,3.2,4.2,4.7l-0.1-0.1c1.6,0.3,3.2-2.1,4.5-0.8
	c1.4,1.5-0.9,2.7-1.4,4.2c-0.8,2.6-1.9,4.8,2.3,5.1c1.3,0.1,2.5,0.9,4.1,1.5c0-2,1-3.8,2.7-4.8c1.1-0.9,2.2-1.3,2.9,0.5
	c0.4,1.1,1.1,1.6,2.2,0.8s2.3-1.8,1.3-3c-2.1-2.5-2.6-6.7-7.4-6.6c-2,0-3.1-2.7-3.3-4.5c-0.2-1.8,2-1.6,3.2-2.2
	c4.6-2.6,8.2,1.3,12.2,1.7c2.5,0.2,4.3,5.2,3,7.4c-1,1.7-0.4,2.5,0.4,3.9c1.4,2.4,1.1,5.4,1.9,8.1c0.5,1.7-2.1,1.9-3.7,2
	c-4.8,0.4-9.7,0.5-14.5,1.2c-10.4,1.5-21,1.4-32.1,1.9C1193.8-50.7,1200.6-56.4,1206.4-63.6L1206.4-63.6z M1197.8-60.6
	c0.4-1.2,1.5-2,2.8-2c0.7,0,1.4,0.3,1.1,1.1c-0.5,1.3-1.7,2.2-3.1,2.2C1197.7-59.3,1197.6-59.9,1197.8-60.6L1197.8-60.6z
	 M1124.9-139.7c-0.4-0.4-1.1-1-1.1-1.5c-0.6-8.4-5.1-17,0.6-25.4c1.7-2.5,2-5.9,3.7-8.5s8.8-6.1,11.6-5.1c1.8,0.6,3.8,2.5,2.8,4.2
	c-2,3.7-1,7.5-1.7,11.2c-0.2,0.9-0.1,2-1.6,2.5c-0.8-0.9,0.1-1.5,0-2.2s-0.2-1.3-1-1.3c-0.8-0.1-1,0.6-0.9,1.3
	c0.5,4.4-1.2,8.8-0.3,14.2l2.6-9.4c3.2,5.1,2.4,10.3,0.8,15.5C1139.2-139.5,1128.6-136.4,1124.9-139.7L1124.9-139.7z M1146.1-143.6
	c-2.1,5.5-6.5,8.4-12.6,8.4c2.2-1.8,5.2-2.4,6.9-4.9c2.2-3.7,3.8-7.7,4.8-11.9c2.3-8.9,2.2-18.3-0.3-27.1c-0.3-1.3-3-2.5-1.1-3.7
	s3.6,0.8,5.1,2.1c0.8,0.6,1.3,1.6,1.3,2.6C1150.8-166.4,1150.3-154.7,1146.1-143.6L1146.1-143.6z M1154.2-131.4
	c-1.7-1.8-3.2-4-5.1-5.4c-2-1.4-1.8-3.4-1-5.4c0.4-1.2,1.5-2.1,2.7-2.3c1.4-0.1,1.3,1.4,1.7,2.1c2.8,6.3,8.9,10.3,12,16.5
	s8.9,10.6,13.4,15.8c5.9,6.8,12.6,12.9,16,21.7c1.7,4.4,1,8.8,1.3,13.3c0.1,1.6,0.1,3.2,0.2,4.8c0.2,1.9-0.6,2.7-2.5,2.9
	c-3.8,0.5-4.7-0.3-4.3-4.1l0,0c0-0.9,0.4-1.8,1-2.4c1.2-1,0.9-2,0.3-3.3C1181.2-97.1,1169.1-115.4,1154.2-131.4L1154.2-131.4z
	 M1132.8-56c0.6-2.3,0.1-5.5,3.3-6.6c1.6-0.6,3.3-0.9,5-1.4c1.2-0.3,1.5,0.3,1.6,1.4c0.1,1.9,0.3,3.8,0.5,5.7l0,0
	c0.8-1.5,1.4-3.2,1.7-4.9c0.3-2.1,1.9-3.8,4.1-4.1c3.1-0.8,3.8-4,5.3-6.3c0.9-1.3,2-1.8,3.1-1.2c1.3,0.7-0.2,1.7-0.2,2.3
	c0.6,5.5-2.6,10.4-1.6,16c0.9-3.6,1.8-7.2,2.8-10.8c0.8-3.3,1.5-6.6,6-7.1c4-0.5,5.4,0.5,4.5,4.5c-0.7,2.5-0.8,5.1-0.5,7.7
	c1.2-2.1,1.9-4.5,2.1-6.9c0.2-1.9,0-4.5,2.8-4.4c2.9,0.1,5.6,1.7,7,4.2c0.6,1-0.7,1.5-1.4,1.8c-6.2,2.4-6.3,7.6-6.2,13
	c0,1.3,0.2,3.2,2.2,2.7c1.3-0.3,2.1-1.5,1.9-2.8c-0.1-0.3-0.2-0.5-0.3-0.8c-2.1-4.1,0.2-6.3,3.2-8.3c1.6-1.1,2.9-0.9,4.2,0.5
	c2.4,2.5,3.9,8.2,2.6,10.6c-1.5,2.7-5.4,3.1-9.8,2.9c-8.2-0.4-15.9-3-23.9-3.9c-5.3-0.6-10.6-1.3-15.8-2.2
	C1135.3-54.6,1132.4-54.7,1132.8-56L1132.8-56z M1173.1-45c0.6,0.1,1.1,0.4,1.5,0.9c0.3,0.6-0.4,1-0.9,1.4c-2.2,2-4.7,1.6-7.6,0.7
	C1168-44.4,1170.4-45,1173.1-45L1173.1-45z M1149.9-46.7c6.3-5.3,12-0.3,18.5-0.5C1163.2-42.5,1157.2-42.4,1149.9-46.7L1149.9-46.7z
	 M1117.3-61.8c4-0.5,7.9-1.9,12.1-1.5c2.3,0.3,2.9,1.2,2.5,3.4c-0.4,2-0.1,4.2-3.2,3.6c-1-0.2-2-0.3-3.4-0.5
	c-2.8,0.9-5.3-2.3-8.4-1.9c-0.7,0.1-1-0.6-1-1.3C1115.7-60.9,1116.4-61.7,1117.3-61.8L1117.3-61.8z M1149.8-50.3
	c-2.3,3-4.7,3.2-7.4,2.8c-8.2-1.4-16.3-3.3-24.3-5.5c-2.5-0.7-5.3-0.6-8.3-3.1C1123.6-54.9,1136.2-51.7,1149.8-50.3L1149.8-50.3z
	 M1090.2-68.2c5.6-0.5,11.1-0.9,17.4-1l0,0c2.5,0.2,4.5,2.3,4.8,4.8c0.9,5.7,1.1,5.6-4.9,4.7c-5.5-0.8-10.9-2.2-16.6-1.3
	c-2.5,0.4-3.5-1-3.8-3.4S1087.5-67.9,1090.2-68.2L1090.2-68.2z M1106-331.5c0.2-0.7,0.4-1.3,1.2-1c0.9,0.5,1.4,1.4,1.5,2.4
	c0.2,0.9-0.6,1-1.2,0.8C1106.5-329.5,1105.8-330.4,1106-331.5z M960.8-295.1c-1.2,0.7-2.6,2.6-4.2,1c-1.6-1.6-3.3-3.4-2.9-6.1
	c0.4-2.2,1.2-4.3,2.3-6.3c2.8-5.8,5.8-11.5,8.8-17.2c7.7-14.4,18.3-26,33.3-33.4c10.7-5.3,22.8-7.4,34.7-6.2c3.2,0.3,6.5,0,9.7,0.2
	c13.9,1,27.4,5.4,39.2,12.9c3.4,2.2,5.8,5.3,8.1,8.5c1.2,1.6,0.3,2.4-1.2,2.5c-2.5,0.3-5,0.4-7.4,0.4c-1.9,0-3.7,0.3-5.4,1
	c-1.5,0.5-2.3,1.6-1.2,3.1c0.8,1.4,1.4,2.9,1.6,4.5c0.9,3.8,0.2,4.5-3.8,4c-0.6-0.1-1.2-0.1-1.8-0.1c-0.2,0-0.3,0.3-0.6,0.6
	c1.8,1.8,3.8,3,6.4,2.2c1.3-0.4,3.4-0.7,3.5,0.9c0.1,2-2.1,1-3.2,1.2c-0.8,0.1-1.7-0.5-2.5,0.7c1.7,2.3,4.8,2.4,7,3.5
	c1,0.5,3.6-3,3.4-5.7c-0.1-3-0.9-5.9-2.2-8.5c-1.5-2.9-0.7-4.4,2.5-3.8c2.3,0.3,4.7,0.2,7-0.3c5.2-0.8,8.6,1.5,11.6,5.6
	c5.7,7.7,9.2,16.3,12.3,25.1c1.9,5.6,2.8,11.4,2.8,17.3c1.8-0.4,1.6-1.5,1.4-2.6c-0.1-0.6,0.1-1.3,0.9-1.3c0.5,0.1,0.9,0.4,1.2,0.8
	c1.1,1.8-0.2,8.1-2.1,9.8c-0.9-0.8,0.2-1.2,0.4-1.7c0.3-0.6,0.1-1.3-0.5-1.6c-0.6-0.3-0.9,0.1-1.2,0.5c-1.4,1.9-3.1,1.5-5,0.9
	c-8.8-2.8-18.2-3.5-27-6.7c-3-1.1-5.5-3.3-7-6.1c-2.8-4.3-5.2-8.8-7.3-13.4c-2.6-6.4-7.9-8.9-14.3-9.6c-4.7-0.5-9.4-0.9-14.1,0.1
	c-1.5,0.2-3-0.1-4.2-0.9c6.4-3.1,14-2.3,19.3-7.7c-2-0.6-4.2-0.5-6.2,0.4c-7.7,2.5-15.8,3.1-23.2,6.8c-2.2,1.1-5.1,1-7.4,2.3
	c-0.7,0.4-1.8,0.8-1.6,1.8c1,5.5,0.1,11.1,0.7,16.6c0.2,0.9,0.5,1.7,0.9,2.5c1.4-5.1,0.6-9.7,1-14.2c0.4-4.3,1.1-5,5.8-5.9
	c-2.2,4.9-1.3,9.9-1.6,15.3c1.3-0.8,1.2-1.8,1.3-2.7c0.2-2.1,0.4-4.3,0.6-6.3c0.2-1.9,0.7-4.4,2.9-4c2.6,0.4,0.5,2.8,0.7,4.3
	c0.1,1.5,0.1,2.9,0.1,4.4l0.9,0.1c0.1-1.6,0.3-3.2,0.4-4.8c-0.1-1.5,0.6-3,1.7-4c0.6-0.5,1.2-1,2-0.6c0.7,0.4,1,1.2,0.8,1.9
	c-0.1,1.3-0.8,2.6,0.3,4.3c0.6-3.1,0.1-7.2,4.2-6.8c3,0.3,0.3,3.7,1.5,5.5c0.9-0.9,0.7-2.2,0.9-3.2c0.2-1.7,1.4-2.7,2.7-2.5
	c6.7,0.8,14.1-1.1,19.3,5c2.8,3.3,4.3,7.5,6.3,11.3c1.1,2,3.7,4.3,0.6,6.9c-0.2,0.1-0.2,2.6,1.3,1.5c2.1-1.6,2.7-0.2,3.7,1.1
	c1.4,1.8,2.6,3.8,5.6,3.1c1.1-0.3,1.6,0.9,2,2.2c0.8,2.6-0.3,5.3,1.4,7.8c0-1.8,0.1-3.6,0.1-5.4c0.1-1.4,0.5-2.6,2-2.7
	s1.8,0.9,2.3,2.3c3.5,9.8,1.8,19.6-0.1,29.3c-1.1,5.7-2.9,11.3-4.3,16.9c-2,8.1-10.3,8.6-15.8,8c-6-0.7-8.6-4.2-10.9-9.2
	c-1.3-2.8-4-5-6.1-7.4c-3.2-3.7-5.2-8.1-7.5-12.3c-1.2-2.2,0.5-2.4,1.9-2.4c3.6-0.1,7.2,0.1,10.8,0.1c0.6,0,1.3,0.2,1.8-0.9
	c-3-1.4-6.2-1-9.2-1.4c-2.4-0.3-3.2-1.2-3-3.6c0.3-3.7,0.6-7.4,0.7-11.1c0-0.9,0.3-2.9-0.3-2.6c-1.4,0.7-2.8-1-4,0.4
	c-3,3.5-7.8,4.1-11.1,7.1c-1.6,1.4-3.3,1.3-5-0.5s-4-3.1-5.5-5c-6.7-8.1-16.5-11.1-25.5-15.3c-6.9-3.2-14.2-5.3-21.7-6.3
	C972.2-299.5,966-298.3,960.8-295.1z M1045.9-271.9c-0.4-0.3-2.2,0.3-0.9-1.2c1-1.2,2.8-0.3,4-1.6c0.5-0.6,0.6,0.4,0.6,0.8
	c-0.1,0.7,0.1,1.8-1.2,1.2S1046.3-273.1,1045.9-271.9z M1045.5-264.9c-0.4,0.3-1,0.2-1.3-0.2c-0.6-0.8-0.8-1.8-0.6-2.7
	c0.2-1.6,1.5-2.5,2.2-3.8c0.3,1.4,0.5,2.8,0.8,4.2C1046.8-266.5,1046.4-265.4,1045.5-264.9L1045.5-264.9z M977.1-265.2
	c-4.1-5.2-5.6-11.6-8.4-17.3c-0.4-0.8-0.2-2-1.2-2.1c-5.1-0.8-3.2-4.7-3-7.3c0.2-2.6,3-2.9,5.1-3.3c7.6-1.5,14.9,0.4,21.9,2.7
	c6.8,2.2,13.3,5.5,19.9,8.3c8,3.4,13.2,10,19.2,15.6c0.6,0.6,1.2,1.9,1.7,1.9c3.2-0.2,4,1.6,3.7,4.4c1.3-0.5,0.9-1.4,1.1-2.1
	c0.3-1,0.6-2.1,1.8-2.1c1.5,0,1.3,1.3,1.3,2.2c0,1.5,1,2.8,2.4,3.2c3.3,1.3,3.8,4.9,5.3,7.7c2.4,4.7,5.5,9.1,9.1,13
	c2.2,2.3,3.5,5.4,5.2,8.1c1.7,2.7,3.4,5.3,6.7,6c1.7,0.3,1.9,1.1,1.3,2.6c-0.7,2,1.3,4.8-1.3,6.2c-3.6,2-6.8,5.2-11.5,4.5
	c-3.5-0.6-7.1-1-10.6-1.8c-2.9-0.7-5.2-2.8-6.1-5.5c-2-5.1-4.9-9.7-7.1-14.7c-0.4-0.8-0.5-2.3-2-1.5c-1.1,0.6-0.5,1.6-0.3,2.6
	c0.4,1.8,1.4,3.5,0.8,5.4c-0.5-0.6-1-1.3-2-2.8c0.3,3.2-2.2,5.3-0.1,7.9c0.3,0.4,0.3,1.1-0.2,1.4c-0.1,0.1-0.2,0.1-0.3,0.2
	c-0.8,0.3-1.8,0.1-2.4-0.5c-3.9-2.8-8.1-5.3-11.7-8.4c-5.1-4.5-11.2-7.8-17.7-9.8c-1.7-0.5-2.8-1-3.1-3c-0.7-3.5-3.8-5.4-5.8-8
	C985.1-256.4,980.8-260.5,977.1-265.2L977.1-265.2z M1037.8-221.3c-0.6,1.6-1.6,0.6-2.3-0.1c-2-2-2.7-4.5-3.2-7.2
	C1034.7-228.2,1038.6-223.3,1037.8-221.3L1037.8-221.3z M986.9-229.8c1-1.2,1.9-2.5,2.4-4c0.8-2.4,2.9-2.3,5.4,0.7
	c-0.1-2.5,0.1-4.6,2.4-4.3c3.5,0.4,1.7,3.9,2.7,5.9c0.3-0.3,0.5-0.6,0.8-1c0.6-1,0.3-2.8,1.9-2.9c1.6-0.1,2.3,1.3,2.7,2.6
	c0.6,1.8,1.2,3.1,3.7,1.8c1.9-1,2.7,1,3.3,2.6c1.1,2.6,0.5,5.7,2.4,8.1c1-1,0.4-2,0.3-2.9c-0.1-1.2-0.2-2.4,1.2-2.8l0,0
	c1.4-0.5,2.9,0.2,3.4,1.6l0,0c1.1,2.5,1.7,5.2,2,7.9c0.1,0.7-0.1,1.5,0.8,1.9c0.8-0.4,0-1.1,0.3-1.6c0.8-1.4-0.6-4.1,1.6-4.5
	s3.6,1.9,5.4,2.9c0.2,0.1,0.3,0.3,0.4,0.6c-2.6,5.8,3.3,4.5,5.3,5.6c2.8,1.6,5.5,3,7.2,5.6c2.4,3.5,5.8,6.5,6.9,10.9
	c0.2,0.8,0.8,1.7,0,2.4s-1.6,0.3-2.4-0.2c-6-3.7-12.7-6.2-19.8-7.1c-2.3-0.4-3.4-1.9-4.5-3.5c-2.4-3.4-5.5-6.8-6.7-10.5
	c-1.2-3.9-4.1-4.5-6.4-6.3c-6.1-4.9-13.8-7.4-21.6-6.9C986.2-227.3,985.7-228.3,986.9-229.8L986.9-229.8z M908.9,31.4
	c4.6-2.8,9.2-5.5,13.7-8.3l0.5,0.8c-4.1,3-8.3,6.1-12.5,9.1c-0.6,0.5-1.4,0.5-2,0c-0.4-0.4-0.4-1,0-1.4
	C908.7,31.5,908.8,31.5,908.9,31.4z M909.8,22.8c1-2.4,4.4-3.5,7.7-2.4c-1.8,2.1-4.3,2.5-6.1,4c-0.4,0.4-1.2,0.7-1.6,0.1
	C909.5,23.9,909.5,23.3,909.8,22.8L909.8,22.8z M909.5,41.3c4.2-5,9.5-8.6,15-12c4.2-2.6,8.3-4.4,14-2c-2.6,1.7-4.8,3.1-7,4.5
	c-6.5,4.1-13,8.2-19.4,12.3c-1.1,0.7-2.5,2-3.6,0.8C907.5,43.8,908.7,42.2,909.5,41.3L909.5,41.3z M907.5,52.6
	c0.3-2.5,1.9-4.7,4.2-5.7c10.1-5.2,19.5-11.8,29.1-17.8c2.9-1.8,4.5,0.6,7.3,1c-13.5,7.7-25,16.6-36.9,25c-1,0.7-1.9,2.2-3.1,1.3
	S907.4,54,907.5,52.6L907.5,52.6z M907,63.1L907,63.1c0.2-2.6,1.7-5,4-6.1c10.4-5.6,19.7-12.9,29.6-19.4c3.1-2,6.8-3,9.5-5.8
	c1-1,2.4-0.4,3.6-0.3c0.6,0.1,1.3,0.1,1.5,0.9c0.2,0.8-0.5,1-1,1.3c-14.9,9.8-28.8,21.1-43.9,30.7c-0.8,0.5-1.6,1.4-2.7,0.9
	C906.5,65,907,63.9,907,63.1L907,63.1z M842,68.2c0.6,0.2,1.2,0.3,1.8,0.3c9-1.9,17.7,1.1,26.5,2.1c2.6,0.3,4.5,3.3,7.7,3.3
	c0.1-2-2.6-1.4-2.8-3.7l27.2,3.6c-0.9,1.4-2.5,1.8-3.2,1.3c-2.1-1.6-4.1-0.6-5.9,0.1c-7.8,3.3-15.5,0.9-23.2-0.1
	c-4.7-0.7-9.3-1.4-14.1-1.7c-0.7,0-1.5,0-2.2-0.3c-6.6-2.8-13.5-1.1-20.3-1.1c-5.2,0-9.2-2.3-13.2-5.3
	C827.6,66.5,834.9,65.6,842,68.2L842,68.2z M796.2,64.5c2,0.6,4.1,0.7,6.2,0.4c6.3-0.8,12,1.6,17.3,4.9c-5.8,0.3-11.7-0.4-17.3-1.9
	c-3.5-0.9-7.1-0.7-10.7-1c-2.9-0.2-5.6-1.5-7.7-3.5C788.1,62.9,792.2,63.3,796.2,64.5L796.2,64.5z M874.7,88.6
	c-5.2-0.6-10.3-1.5-15.5-2c-19.7-2.1-39.4-3.6-59.1-2c-2.9,0.3-5.7-0.7-7.8-2.7c-3.9-3.3-8-6.2-12.3-8.9c-1.3-0.8-2.9-1.8-2.3-3.4
	c0.6-1.6,2.4-0.5,3.7-0.5c3.6,0,7.2,0.3,10.8,1c7.9-0.3,16.3,1.7,24.8,2.6c1.9,0.2,4,0,4.7,2.7c0.2,1,1.5,1.2,2.5,1.3
	c15.8,1.9,31.3,5.7,46.8,8.8c1.3,0.1,2.7,0.4,4,0.7c1,0.4,3.1,0.1,2.9,1.6C877.7,89.4,875.8,88.7,874.7,88.6L874.7,88.6z
	 M838.1,76.2c-1.5,0-2.9-0.7-3.8-1.8c4.9,0.1,9.5-0.2,13.9,0.5c11.1,1.7,22.3,1.9,33.3,4.2c4.3,0.8,8.7,0.4,12.7-1.1
	c1.1-0.4,2.2-1.3,4,0.3c-5,1.6-9.2,3.9-13.5,6c-2.1,1-4.2,0.8-6.5,0.4C864.8,81.8,851.8,77.4,838.1,76.2L838.1,76.2z M880.5,89.1
	L880.5,89.1c2.7-1.8,4.9-0.5,7.7,1.1C885,91.6,882.8,90,880.5,89.1L880.5,89.1z M886,86c9.4-2.2,16.6-11.4,28.3-8.6l0,0
	c-3.7,3.6-8.1,5.3-11.7,8C894.8,91.2,896.7,89.9,886,86L886,86z M898,90.5c4.8-2.6,9.1-4.9,13.3-7.2c2-1.1,4.2-2.1,5.2-4.5
	c0.5-0.9,1.5-1.4,2.5-1.3c3,0.1,6,0.8,8.8,1.9c-6.6,3.1-13,6.9-18.8,11.2C905.5,93,902.1,91.9,898,90.5L898,90.5z M908.8,93.9
	c-0.3-0.2-0.6-0.6-0.5-0.9c0.3-1.1,1.2-1.4,2.1-1.9c4.7-2.3,9.3-4.7,14-7c0.6-0.2,1.1-0.6,1.5-1c4.3-6.3,10.2-3.5,16-2.8
	c-7.8,3.7-15.2,7.7-21.8,13C917.8,95.3,911.2,95.7,908.8,93.9L908.8,93.9z M1027.4,140.7c0.7-1.6,2.1-2,3.4-2.7
	c6-3.1,12.2-5.7,17.9-9.3c0.7-0.3,1.3-0.7,1.9-1.1c1-1,3.6-1.7,2.2-3.6c-1.2-1.5-2.5,0.5-3.7,1.2c-7.2,3.9-14.4,7.9-21.6,11.8
	c-1.2,0.7-2.5,1.1-3.9,1.1c-2,0-4-1.2-4.5-2.6s1.8-1.6,2.9-2.2c6.5-3.5,13-6.7,19.5-10c1-0.5,2.4-1.1,1.8-2.3c-0.7-1.2-2-0.5-3,0
	c-7.2,3.9-14.4,7.8-21.6,11.7c-1,0.7-2.2,1.1-3.4,1.2c-1.2,0-2.4-0.4-2.7-1.6c-0.3-1.2,1-1.5,1.9-1.9c5.5-2.7,11-5.3,16.4-8
	c1.2-0.6,2.9-1.5,1.9-3c-0.8-1.3-2.2,0.2-3.2,0.7c-6,3-12,6-18,9c-2.2,1.3-5,1.1-7-0.5c-6.5-5-14-8.3-21.4-11.7
	c-13.4-6.2-27.7-10.1-41.9-14c-7.3-2-14.5-4.2-21.6-6.3l0,0c-0.3-0.5-0.1-1.1,0.4-1.4c7.8-4.3,15.4-9.1,23.5-12.9
	c4.5-2.1,8.6,0.2,12.9-0.1c-8.2,4.9-16.6,8.9-24.1,14.5c2.3-0.2,4.5-1,6.5-2.2c7.1-3.9,14.9-6.3,21.7-10.7c2.6-1.7,4.3,0.4,5.9,1.6
	c1.4,1-0.3,1.6-1,2c-4.7,2.9-9.4,5.7-14,8.6c-1.3,0.8-2.8,1.6-3.5,3.2c1.2,0.6,2.2-0.2,3.1-0.7c5.3-2.9,10.7-5.8,16-8.8
	c1.6-0.7,2.7-2.2,2.9-3.9c0.3-3-0.5-3.8-3.4-4.3c-14.3-2.5-28.7-3.7-43-6.1c-4.7-0.8-9.4-1.2-14.1-1.7c-1.2-0.1-2.6,0.3-3.2-1.3
	c-0.4-1.4,0.2-2.9,1.5-3.6c3.6-2.6,7.4-5,11.1-7.5c10.5-6.9,20.9-14,30.9-21.6c5.2-4,10.4-7.1,17.7-3.4c6.6,3.3,14,4.9,21,7.3
	c0.4,0.1,0.8,0.4,1.7,0.8C978,53.7,965,60.8,951.5,68.5c2.9,0.6,4.5-0.8,6-1.5c11.8-5.9,23.5-11.9,34.1-19.9
	c1.3-1.2,3.2-1.6,4.9-1.1c4.3,1.5,8.7,2.6,13,4.3c3.9,1.6,8.4,2,12.3,3.8c0.8,0.4,2.2,0.2,2.1,1.6c-0.1,1.1-1.2,1.4-2,2
	c-6,4.1-12.7,7.4-18.3,12.1c-0.6,0.5-1.1,1.2-1.2,2c9.1-4.9,18.4-9.5,26.7-16.3c-5.2-3.5-11-5.4-16.5-7.4c-10-3.7-20-7.5-30.3-10.2
	c-16.4-4.4-32.2-10.9-48.6-15.4c-6.4-1.8-12.5-4.5-19.2-5.5c-1.8-0.3-3.1,0.6-4.9,0.4c-0.3-4.4,1-8.6,1.5-12.8
	c0.3-2.3,2.1-1.9,3.8-1.2c13.4,5.7,27.4,9.6,41.3,13.7c13.9,4.1,27.5,9.4,41.6,12.8c2.7,0.7,5.4,1.8,8.1,2.6
	c0.9,0.3,2.5,0.9,2.9-0.5c0.3-1.2-1.3-1.2-2.1-1.5c-9.9-4.3-20.5-6.5-30.7-10.1c-19.3-6.6-39-11.8-58-19c-0.3-0.1-0.7-0.2-1.1-0.3
	c-5.9-1.6-6.4-2.5-5.1-8.5c1.1-4.8,1.6-9.7,1.5-14.5c-0.2-2.4,0.8-4.8,2.7-6.3c2.2-1.9,3.9-4.2,5-6.9c1.8-3.6,4.6-6.1,8.4-9.3
	c-3.6,0.7-5.6,1.9-7.1,3.9c-1.8,2.4-3.7,4.7-5.5,7.1c-0.5,0.6-1,1.2-1.9,0.8c-0.7-0.3-0.6-1-0.5-1.6c0.3-3,0.6-5.9,0.8-8.9
	c0.1-1.5,1-2.1,2.2-1.8c1.6,0.3,2.3-0.7,2.9-1.8c3.1-5.9,7.3-11.2,12.5-15.5c-3.2,0.6-6.1,2.4-8,5c-2.4,2.9-4.5,6-6.7,9
	c-0.4,0.6-0.7,1.4-1.7,1.2c-0.8-0.2-1.3-1.1-1.1-1.9c0-0.1,0-0.1,0.1-0.2c0.3-1.8,0.4-3.7,0.1-5.6c-0.1-1-0.1-2.2,0.8-2.8
	c4.9-3,6.8-8.3,10.5-12.3c1.5-1.6,3.6-2.6,5.5-4.6c-4.7,0.1-7,3.3-9.6,5.8c-1.1,1.2-2.2,2.4-3.1,3.7c-0.6,0.7-1.1,1.9-2.3,1.3
	c-1-0.5-0.9-1.7-0.8-2.7c0.1-1.6,0.3-3.1,1.8-4.2c2.3-1.6,3-4.5,4.6-6.7c2.2-3.1,4.9-5.7,8-7.8c-1.9-0.2-3.8,0.5-5.1,1.9
	c-1.8,1.6-3.4,3.2-5,5c-0.9,1-1.4,2.9-3,2.3s-0.1-2.4-0.5-3.7c-1.1-3.9,1.9-5.6,3.9-8.2c2.9-3.8,5.6-7.8,8.4-11.8
	c0.8-1.1,1.8-2.1,2.8-2.9c0.9-0.8,3.6-0.7,1.4-3.4c-0.8-1,2.2-2.5,4-4.5c-3.5,0.5-5.2,2.3-6.8,4.1c-3.5,4-6.8,8.2-10.2,12.3
	c-0.6,0.7-1.2,1.9-2.3,1.5c-1.1-0.5-0.4-1.5-0.4-2.3c0.1-3.7,0.5-6.9,3.6-9.9s4.2-7.8,7.2-11.2c2-2.3,3.8-4.9,6.2-6.9
	c1.4-1.3,3.3-2.6,1.5-5c-0.7-0.9,0.5-1.5,1-2.1c2.3-3,5.3-5.1,8.1-7.6c-4.1,1.4-7.8,3.9-10.7,7.2c-4.7,5-9,10.2-13,15.8
	c-0.6,0.8-1.5,2.1-2.7,1.6c-1.2-0.5-0.4-1.8-0.4-2.7c-0.2-4,1.5-7.8,4.6-10.3c4.6-4,7.8-9.6,12.3-13.9c0.6-0.6,1.3-2,0.5-2.6
	c-0.8-0.7-1.9-0.1-2.5,0.8c-0.8,1.3-2.1,2.2-3.5,2.8c1.9-4.7,6.3-7.2,9.3-11c-5,2.1-8.5,5.9-11.7,10.1c-2.2,2.9-5.2,5.1-6.6,8.7l0,0
	c-0.3,0.6-1,0.8-1.6,0.5c-0.8-0.3-0.7-0.9-0.7-1.5c0-4.1,0.6-8.1,4-11.1c3.3-3.2,6.4-6.5,9.3-10.1c0.7-0.8,1.3-1.8,1.8-2.8
	c0.4-0.7,1.2-1.6,0.4-2.4c-0.8-0.8-1.9-0.4-2.8,0.1c-2.9,1.4-4.9,3.8-6.8,6.2c-0.8,1-1.3,2.1-2.1,3.1c-0.5,0.6-1.4,0.6-2.1,0.1
	c-0.8-0.5-0.1-1,0.2-1.5c10.1-14.6,19.2-30,31.5-42.8c8.7-9.1,16.1-19.2,24.6-28.4c3.7-4,7.6-4,11.6-3.4c5,0.8,9.8,2.6,14.8,4
	c1.8,0.5,2.8,2,4.1,3.1c5.5,4.7,10.6,9.9,13.9,16.5c2,3.9,5.1,5.2,9.2,5.9c7.9,1.3,15.6,4,20.3,11.1c2.7,3.7,4.7,7.9,5.9,12.3
	c2.2,9.5,5.7,18.8,6.7,28.6c0.6,6,1.4,11.9-3.3,16.8c-3.7,3.8-0.8,7,1.2,10.1c3.4,5.4,6.4,11.1,8.9,17c2.4,5.8,6,11.1,8.1,17.1
	c2.3,6.4,4.5,12.8,6.9,19.1c0.5,1.3-0.2,1.6-0.8,2.4c-2.5,3.1-5.9,5.3-9,7.7c-1,0.7-1.9,1.6-2.6,2.6c-0.4,0.5-0.4,1.2,0,1.7
	c0.6,0.5,1.1,0.1,1.6-0.3c2.6-2,5.2-3.9,7.6-6c1.5-1.5,3.6-2.1,5.6-1.5c16.3,3,32.1,8,48.2,11.4c9.2,1.9,18.3,4.1,27.5,5.9
	c4.5,0.9,8.8,2,12.7,4.8c2.2,1.5,2.2,2.8,1.4,4.6c-2.5,5.9-4.7,12-7.8,17.5c-2.8,5-3.5,10.5-4.5,15.9c-0.6,3-2,3.6-4.6,3.4
	c-8.8-0.5-17.6-1.5-26.1-4.3c-8.2-2.6-16.8-3.8-24.9-6.4c-14.6-4.7-29.9-6.4-44.3-11.3c-7.6-2.6-14.4-6.7-18.6-14.2
	c-2-3.5-5.5-5.9-8.7-8.5c-4.3-3.5-7.7-7.9-11.3-12.1c-1.7-2-3.8-3.5-5.5-5.4c-5.3-5.9-11.7-11.1-15.5-18.1
	c-2.7-4.9-3.8-10.7-5.2-16.2c-2-7.6-3.4-15.4-5.6-23c-2-7.3-2.6-14.8-4.5-22.2s-1.2-14.9-0.8-22.2c0.4-6.9,1.8-14.3,5.8-20.6
	c1-1.6,1-3-0.7-3.7c-1.7-0.7-2.3,0.6-2.8,2c-4.2,11.6-5.5,23.7-5.7,35.9c-0.1,6.6-0.7,13.1,1.3,19.6c0.1,0.2-0.2,0.6-0.1,0.7
	c4.1,7.1,2.1,15.1,3,22.7c0.4,3.5,1.4,6.8,2,10.1c0.2,0.9,0.9,2.6,2.1,2.2c1.5-0.5,0.3-1.9,0-2.8c-1.8-6.5-2.4-13.2-3.3-19.9
	c0-0.5,0-1,1-1.3c2.2,6,3.8,12.2,4.7,18.5c0.4,2.3,1.3,4.4,1.2,7s0,4.5-3.6,0.9c2.3,6.7,2.3,12.9,5.5,19c1.2-3.3-0.4-5.9,0.7-8.9
	c7,5.7,5.2,13.8,5.8,21c1.1-2,1.1-2,1-4.7c-0.1-1.6,0-3.4,1.6-3.8c1.9-0.4,2.2,1.6,2.6,3c0.8,2.7,0.7,5.6,2,8.3
	c0.3,0.6,0.4,1.2,1.3,1.1c1.1-0.9-0.7-2.1,0.6-3.1c2.9,1.1,1.3,4.8,3.3,6.6c-0.3-1.4-0.7-2.6,0.6-3.6c0.6-0.4,1.3-0.6,1.7,0
	c0.8,1.6,2.5,2.7,2.2,4.9c-0.4,3.5-0.5,7,2,10.1c-0.1-2.3-0.2-4.6-0.2-7c0-0.7-0.3-1.6,0.7-1.9c0.7-0.1,1.5,0.1,2,0.7
	c2.3,2.1,2.8,4.9,2.9,7.7c0.3,5.7,0.7,11.4,1,17.1c0,0.7,0.2,1.5,0.6,2.1c0.6-5.5,0.8-11,0.4-16.4c-0.1-1.3-0.4-2.6,1.1-3.2
	c0.8-0.4,1.8-0.1,2.2,0.7c0.1,0.1,0.1,0.3,0.2,0.5c0.1,1.3,3.2,2,0.6,3.7c-1.1,0.7-0.9,1.7-0.7,2.7c1.9,11-0.7,21.6-2.2,32.3
	c-2.8,20-0.9,40.4,5.7,59.5c2.3,6.7,4.3,13.5,7.9,19.6c0.7,1.2,1.3,2.1,2.7,2c0.8,0.1,1.5-0.5,1.6-1.3c0.3-1.4-0.4-2.1-1.7-2.9
	c-3-1.9-3.7-5.6-4.9-8.5c-1.3-3.2-3-6.5-3.3-10.1c-0.1-1-0.8-2.1,0.5-2.4c1.3-0.4,1.7,1,1.9,1.9c1.1,4.5,3.6,8.5,5.2,12.8
	c0.7,1.8,2.1,3.4,3.1,5.1c0.5,0.8,1.2,1.5,2.1,1c0.8-0.5,0.3-1.3,0.1-2c-0.9-2.2-1.6-4.4-2.6-6.5c-2.3-4.7-3.7-9.7-5.5-14.5
	c-1.1-3-1.9-3.6-4.7-1.9c-1.5,0.9-1.8-0.4-2-1.2c-1.8-6.9-3.8-13.8-4.5-21c-1.8-19.9,2.2-39.1,5.9-58.5c0.2-0.9,0.3-1.7,1.3-2
	s1.5,0.5,2.2,1.1c3.7,3.4,6.7,7.6,11.4,10.5c-5.9,3.5-6.2,9.1-4.8,14.7c2.1,9,0.3,17.8-1.1,26.6c-0.9,5.2,0.1,7.8,5,9.8
	c10.6,4.3,21.4,8,32.2,11.7c3.6,1.2,7.2,2.7,10.7,4.1c0.9,0.4,2.4,0.7,1.3,2.4c-4.8,6.8-6.1,15.2-9.6,22.6
	c-6.6,13.9-13.6,27.6-22.4,40.3c-2.1,3-5.9,5.1-5.4,9.8c0.1,1-1.7,1.9-3,2.5c-8.8,4-17.5,8.4-26,13
	C1031.1,142.2,1029.3,142.3,1027.4,140.7L1027.4,140.7z M1034.5,144.4c-1.5-1.3,0.3-1.8,1.1-2.3c5.1-2.6,10.2-5,15.3-7.6
	c2.2-1.1,4.4-2.3,6.6-3.4c4.7-2.5,4.7-2.5,9.8,0.7h-0.1c-7.2,4.5-14.5,7.9-21.6,11.6c-1.6,0.7-3.1,1.6-4.6,2.4
	C1038.4,147.7,1036.4,145.9,1034.5,144.4L1034.5,144.4z M1051,147.2c-2,0.9-4,1.9-6.1,2.7c-1.1,0.6-2.4,0.1-3-1
	c0-0.1-0.1-0.2-0.1-0.2c-0.4-1.4,1.1-1.5,1.9-1.8c7.9-3.5,15.6-7.7,23.2-11.9c2.7-1.7,5.8-2.6,9-2.5l0,0
	C1067.7,137.6,1059.9,143.4,1051,147.2L1051,147.2z M1074.6,128.9c-1.6-0.3-3.1-0.7-4.7-1c-4.9-0.9-5.8-3.7-2.4-7.6
	c5.5-6.3,9.7-13.5,13.7-20.8c7.7-14,14.3-28.7,19.7-43.8c1.8-5.1,9.7-7,13.7-4.1c1.6,1.1,3.6,1.6,5.3,2.6c3.1,1.7,3.3,2.2,2.6,5.6
	l0,0c-0.2,15-8.7,26.5-16.1,38.3c-5.5,8.7-11.3,17.3-19.4,23.9c-2.6,2.1-5.3,4.1-8,6.1C1077.6,129,1076.1,129.3,1074.6,128.9
	L1074.6,128.9z M1109,129.9c-8,0.3-15.8-0.6-24.6-0.6c2.2-2,3.7-3.3,5.3-4.6c8.9-7.6,14.9-17.5,21.1-27.3c3.3-5.1,6.2-10.4,9.1-15.8
	c2.5-4.6,3.9-9.7,4.2-14.9c0.2-3,3-5.3,2-8.6c-0.1-0.6,1.9-0.9,3-0.5c10.2,3.9,20.8,2.6,31.3,2.7c6.2,0.1,12.4,0.4,18.6,0.1
	c3.7-0.1,7.4-0.5,11.1-0.9c8.3-0.9,16,2,24,3.1c3.3,0.5,5.5,4,7.6,6.7c3,3.9,5.6,8.2,8.5,12.2c0.7,0.8,1.1,1.9,1.1,3
	c0,0.6,0.1,1.6,0.4,1.7c6.1,1.9,3.4,6.6,3.4,10.5c-0.2,10.2-7.2,17.4-11.4,25.7c-12,23.6-26.9,45.6-40,68.6
	c-6.7,11.7-14.8,22.7-21.1,34.6c-6.7,12.7-15.3,24.4-20.8,37.7c-1.5,3.4-1.5,7.4,0,10.8c3.5,7.5,6.3,15.5,12.6,21.4
	c1.4,1.3,1.2,3.5,3,4.6c0.8,0.5-0.1,1.3-0.7,1.7c-6.8,4.7-14.2,8-22.6,8.9c-5.5,0.6-11.1,1.1-16.4,3.1c-1.8,0.6-3.8,0.3-5.4-0.7
	c-8.8-4.4-18.1-7.4-27-11.4c-3-1.4-2.6-2.1-0.8-4.2c8.7-10.3,16.8-21.2,19.9-34.5c5.3-22.6,15-43.5,23.3-65.1
	c5.6-14.4,10.4-29.1,15.5-43.8c3.5-10,8.3-19.1,16.1-26.4c2.8-2.6,6-4.6,8.3-7.7c1.3-1.7,2.6-3.4,3.6-5.3c-3.9,0.7-5.9,3.1-8.2,4.9
	c-3.9,3.1-8.5,5.2-13.4,6.1C1136.2,128.2,1122.6,129.6,1109,129.9L1109,129.9z M1125.4,135.8c-0.9,0.1-2.3,1.5-2.6-0.5
	c-0.3-1.2,0.4-2.4,1.6-2.7c0.2-0.1,0.5-0.1,0.8-0.1c2.3-0.2,4.7-0.3,7-0.6c6.8-0.9,13.6-1.9,20.5-2.9c-1.8,2.4-4.6,3.9-7.7,4
	C1138.3,133.3,1131.9,134.9,1125.4,135.8L1125.4,135.8z M1140,135.7L1140,135.7c-6.4,1.5-12.2,4.6-18.8,5
	C1127,137,1133.7,136.7,1140,135.7L1140,135.7z M1109.4,182.2c2.6-10.5,5.7-20.8,7.7-31.4c0.9-4.7,2.7-7.6,8.1-8.6
	c6.9-1.2,13.6-3.8,20.4-5.8c0.5-0.1,0.9-0.1,1.4,0l0,0c-6,4.7-13.4,6.4-19.6,10.3c5.8-0.8,11.2-3.4,17-4.3c-6.4,5-14.9,6-21.3,11.2
	l18.4-5.7l0.5,1.1c-3.7,3.6-9.1,5-13.4,9.5c3.8-0.6,6-2.2,8.4-3.4c0.9-0.5,2-1.8,2.8-0.4c0.4,1.1,0,2.4-1,3c-1.7,1-3.4,2-5.2,2.8
	c-1.8,0.9-3.8,1.8-5.2,3.8c2.4,0.4,4-1.1,5.8-1.7c0.9-0.3,2.1-1,2.7,0.2s-0.6,1.8-1.4,2.2c-2.7,1.5-5.5,2.9-8.2,4.4
	c-1.1,0.6-2.5,0.7-3,2.3c3.7,0.9,6.5-2.8,11-1.8c-4.6,3.3-9.4,5.2-12.7,9.7c3.8-0.2,6-3.1,9.7-3.6c-1.3,3.5-0.3,7.4-6,8.1
	c-3.1,0.4-5.6,4-8.3,7.7c4.5-1.3,6.7-4.9,11.3-5.9c-2.8,4.1-2.5,8.8-6.2,11.8c-3.3,2.6-7.1,4.5-9.9,7.9c3.4-0.2,5.8-3,9.4-4
	c-2.7,6.9-4.4,13.9-8.1,19.8c-2.4,3.9-7.6,6-12.1,9.3c1.2-8.2,2.2-15.5,3.2-22.9c0.3-2.1,3.7-3.9,0.7-6.4
	C1107.2,195.1,1107.8,188.5,1109.4,182.2L1109.4,182.2z M1086.1,246.5c-0.7,0.4-1.3,1.5-2.2,1c-1.1-0.6-0.4-1.8-0.4-2.7
	c0-0.5,0.1-1,0.4-1.4c3.8-5.2,8.9-9.4,14.8-12c-3.9,14.3-9.7,26.4-15.7,38.5c-1.7-5.5-0.4-10.8,0.3-15.9c0.8-5.5,7.3-7,9.9-12.4
	C1089.9,242.8,1088.3,245.1,1086.1,246.5L1086.1,246.5z M1094.1,231.3c-2.9,0.9-5.4,3.8-7.9,5.9c-0.7,0.6-1.4,1.3-2.3,0.7
	s-0.4-1.6-0.1-2.4c0.2-0.7,0.6-1.3,1.1-1.9c4.1-3.6,8.2-7.2,12.3-10.7c0.8-0.7,1.9-1.1,2.9-1C1100,226.4,1099,229.7,1094.1,231.3
	L1094.1,231.3z M1095,221.9c-3,1.4-5.3,4.3-8,6.5c-1,0.8-1.8,2.1-3.4,1.9l0,0c-1.1-5.1,0.4-9,4.9-12.1c3.5-2.4,6.6-5.6,9.9-8.4
	c1.2-0.9,2.6-1.7,3.9-2.4C1101.3,213.6,1101.3,219.1,1095,221.9L1095,221.9z M1098,207.5c-3.7,2.1-6.7,5.4-10.1,8.1
	c-1.2,1.2-2.8,2.1-4.4,2.5c-0.2-2.1-0.1-3.8,1.4-5.2c5-4.7,9.9-9.4,14.9-14c1.1-1,2.2-2.1,3.8-2C1104,201.8,1102.3,205,1098,207.5
	L1098,207.5z M1081.5,207.2c1.8-2.8,3.9-5.4,6.2-7.8c5.3-5.3,11-10.3,17.9-13.9c-0.7,4-0.3,7.8-5,10.2c-6.2,3.2-11,8.9-16.2,13.6
	c-0.9,0.8-1.6,2.5-3,1.6C1080,210,1080.8,208.2,1081.5,207.2L1081.5,207.2z M1067.1,219.4c0.8-0.9,1.7-1.7,2.6-2.6l0,0
	c0.4,0.5,0.8,1,0.8,1.1c-1,1.8-2,3.6-3.2,5.3c-0.3,0.4-1,0.2-1.2-0.3C1065.8,221.6,1066.2,220.3,1067.1,219.4z M1051.8,281.2
	c3.2-7.9,5-16.4,8.8-24.1c1.1-2.3,2.6-4.4,3.9-6.6l1,0.3c-0.1,7.3,1.3,14.5,2.3,21.8c0.3,1.8,0.7,3.6,1.2,5.4c0.2,0.7,0,1.7,1.2,1.4
	c0.8-0.2,0.9-1,0.8-1.8c-0.5-4.5-1.2-9.1-1.5-13.6c-0.3-5.6-1.1-11.1-1.9-16.6c-0.7-5.1,2.1-9.3,4.5-13.5c0.3-0.7,1.1-1.1,1.9-0.9
	c0.6,0.2,0.6,1,0.8,1.6c1.1,3.2,0.2,6.6,1.6,9.8c0.7,1.5-0.6,3.1-1.7,4.3c-1.4,1.2-2.4,2.9-2.9,4.7c2.1,1.2,2.3-2,4.2-1.6
	c-0.5,6.3-1.5,12.6-1.5,19c0,9.4-3.3,18.2-4.2,27.4c-0.4,3.6-1.3,7.1-0.2,10.8c0.7,2.2-0.9,2.8-2.6,1.8c-6.3-3.5-13.5-2.8-20.3-4.4
	c-2.6-0.6-3.1-1.3-2.7-3.9C1045.5,294.8,1049.1,288.2,1051.8,281.2z M989.3,266.1c0.8-0.9,1.3-2.6,2.7-2s-0.1,2,0,3
	c0,1.1-0.1,2.2-0.2,3.3c-0.9,8.3-3.6,16.2-5.4,24.3c-0.4,1.9-1.5,2.4-3.2,2.1c-2.1-0.3-2-1.7-1.6-3.3c1.6-6,3.1-11.9,4.8-17.9
	C987.2,272.4,987,268.9,989.3,266.1z M970.8,286.3c-0.1,0.5-0.4,0.9-1,0.9c-0.9-0.1-0.9-0.8-0.8-1.4c0.8-3.7,1.6-7.4,2.6-11.1
	c0.2-0.7,0.7-1.8,1.8-1.4c0.9,0.3,0.4,1.2,0.5,2.1C972.9,278.9,971.8,282.5,970.8,286.3L970.8,286.3z M974.6,289
	c-0.1,0.7-0.4,1.6-1.4,1.3s-0.5-1.1-0.3-1.8c1-2.7,2.6-5.3,3.2-8.3C976.3,283.1,975.1,286,974.6,289L974.6,289z M977.4,293.7
	c-1.3-0.4-1.1-1.5-0.8-2.5c0.9-3.7,1.8-7.5,2.7-11.2c0.7-2.8,1.5-5.5,2.1-8.3c0.3-1.8,1.2-2.9,3.6-3.9c-1.5,6.4-2.8,12.3-4.1,18.2
	c-0.4,1.9-0.9,3.8-1.4,5.8C979.2,293,978.9,294.1,977.4,293.7L977.4,293.7z M1071.1,323c1,4.8-1.4,3.5-4.3,2.9
	c-9.9-2.2-19.8-4.6-29.8-6.5c-18.1-3.5-35.8-8.3-52.8-15.6c-0.8-0.3-1.6-0.6-2.4-1s-2.8,0.3-2.2-1.6c0.5-1.5,1.8-2.6,3.5-1.4
	c2.3,1.6,5.1,2.3,7.5,3.6s4.8,1,7.2,0.8c1.6-0.1,2.1-1.2,2.1-2.5c0-1.7-1-2-2.5-1.6c-2.1,0.5-2.4-0.3-1.8-2.4
	c2.7-9.5,5.2-19,7.7-28.5c0.9-3.5,2.5-6.8,1.9-10.8c-2,0.8-2.6,2.4-3,4.2c-2.6,10.7-5.3,21.5-7.9,32.2c-0.2,0.6-0.4,1.2-0.4,1.8
	c0.1,2,0,3.5-2.8,2.9c-2.6-0.6-3.7-1.7-2.9-4.5c1.4-4.5,2.9-9,3.9-13.6c1.3-5.9,3.3-11.7,2.1-17.9c-0.2-1.1,0.9-1.3,1.7-1.7
	c6.1-3.4,12.4-6.7,18.4-10.3c7.3-4.3,14.3-9,21.5-13.4c1-0.6,2.7-2.7,3.4,0.1c2.4,9.1,5.4,18,8.7,26.7c1.4,3.7-0.1,6.7-1.7,9.8
	c-3.9,7.8-6.4,16.1-8.9,24.4c-0.7,2.4,0.4,4.8,0,7.3s-0.9,3.1-3.5,2.3c-8.9-2.8-18.1-4.4-27.3-6c-1.8-0.3-1.9-0.1-4.3,2.7
	c23.8,3.9,46.3,11.7,70,14.9C1071.8,321.1,1070.9,322.1,1071.1,323z M1088.3,327.2L1088.3,327.2c3.3,0.8,5.1,3.6,7.8,5.1
	c1.1,0.7,2.4,3.9,3.6,0c0.2-0.5,1.3-0.3,1.7,0.1c1.8,2.4,4.8,3.6,7.8,3.3c0.2,0,0.4,0.5,0.9,1.1
	C1101.1,336.9,1093.3,335.6,1088.3,327.2L1088.3,327.2z M1114.8,338.4c3.1-1.1,4.9,0.4,6.8,1.9L1114.8,338.4z M1121.1,335.2
	c-15.3-6.6-31.2-11.3-46.4-18c-0.5-0.7,0.4-1.4,0.9-2.4c1.1-2.6,1.9-3.5,5.4-1.7c5.6,3,12.1,4.4,18.2,6.4c2.9,0.8,5.7,1.9,8.3,3.2
	c1.9,1,4.2,1.6,3.9,4.6c-0.1,1.1,1,1.5,1.9,2c2.8,1.6,5.5,3.2,8.3,4.9L1121.1,335.2z M1148.6,346c-2.4-0.5-4.8-1.1-7.2-1.9
	c-0.5-0.1-1.1-0.2-1.4-0.5c-5.9-7.5-15-10.5-22.6-15.7c-0.9-0.6-1.8-1.3-2.7-2c-0.6-0.5-2-0.3-1.4-1.7c0.4-0.9,1.2-0.9,2.3-0.8
	c1.1,0.1,2.2,0.5,3.4-0.7c-10.8-4.9-22.1-7.5-32.8-12c-1.8-0.8-3.6-1.6-5.4-2.6c-1.3-0.9-3-0.8-4.1,0.3c-2,2-2.2,1.3-2.8-1
	c-1.4-5.6,0.6-10.6,2.8-15.4c5.4-12.3,11.2-24.3,16.2-36.8c2.7-6.7,6.4-12.9,7.9-20.1c0.1-0.5,0.3-0.9,0.7-1.3
	c3.5-2.6,7.3-4.9,11.2-6.8c-3,8.3-6.5,15.5-8.5,23.3c-0.5,2.2-2.4,4-4.3,5.5c-1.5,1.2-3.2,2.3-3.6,4.4c1,0.7,1.4-0.1,2.1-0.4
	c0.9-0.4,1.6-2.1,2.8-1.1c0.9,0.8,0.2,2.1-0.1,3.2c-1.9,7.3-6.1,13.6-9.7,20.1c-3.3,5.9-7.5,11.1-11.6,16.3c-1.7,2.3-3,4.8-4,7.4
	c0.5,0.6,1.4,0.7,2,0.2c0.1-0.1,0.3-0.3,0.4-0.4c2.5-3.3,4.8-1.6,7.6-0.2c5.8,2.8,11.8,5.2,17.8,7.7c1.7,0.7,3.4,1.5,5.1,2.2
	c3.3,1.4,6.4,3.2,10.7,0.9c3.8-2,8.7-2.2,13.1-2.6c8.3-0.7,16.4-3.3,23.5-7.7c2.3-1.5,5-2.4,7.7-2.6c1.7-0.1,3.9-0.7,4.4,1.7
	c0.5,2.1-0.8,4.1-2.8,4.7c-5.2,1.6-10,4-15.4,5.3c-7.9,1.9-15.9,4-23.3,7.3c-2.6,1.2-2.6,2.4-0.3,4.1c6.1,4.4,12.4,8.6,18.3,13.4
	c2.1,1.7,4.1,2.7,7.3,2.1c2.8-0.6,4.8,3,8,5C1155.1,348.2,1151.9,346.4,1148.6,346z M1271.9,352.6c-0.3,1.5-1.8,2-3.2,2.2
	c-5.5,0.9-11.1,1.4-16.7,1.7c-19.7,1-39.2-2-58.8-3.3c-4.4-0.3-6.8-2.9-9.7-5.4c-1.7-1.4-3.2-3.1-5.3-4l-0.1-0.1
	c-1-0.5-2.3-0.2-2.8,0.9l0,0c-0.7,1.2,0.4,1.6,1.3,2.1c1.9,1.2,3.6,2.6,5,4.3c-7.7-0.7-15.7,0.4-21.9-6.2
	c-7.3-7.8-16.5-13.3-25.2-19.3c-0.5-0.3-1.2-0.5-1.4-1.7c6-1.9,12.4-3.3,18.2-5.9c5-2.3,10.9-1.4,15.3-5.1c1.1-0.9,3.1-0.3,3.8,0.4
	c2.1,2.2,4.9,3.3,7.1,5.3c8.1,7.4,16.8,14,26.1,19.7c1.9,1.2,4.1,2.3,1.4,5c-0.8,0.9,0.8,2.6,0,3.9c-1.7,0.3-2.8-3.3-4.3-1.2
	c-1.7,2.4,1.5,2.7,2.6,3.9c1.5,1.6,2.7,3.7,3.5-0.6c0.3-1.3,2.3-0.7,2.8,0.9c0.3,1,0.2,2.7,1.7,2.2c1.2-0.3,1.6-1.8,1.4-3.2
	c-0.3-1.6-0.8-3.1-1.3-4.6c-2.2-7.8-7.7-12-14.9-14.9c-3-1.2-5.6-3.4-8.4-5.2c4.5-1.6,7.8,0.6,11.2,1.8c6.7,2.5,13.4,5.1,20.4,6.7
	c4.1,0.9,8,2.7,11.9,4.2c1.3,0.5,2.5,1.8,1.8,3.2c-0.7,1.3-2.1,0.5-3.3,0.2c-4-1-7.7-3.6-12.3-2.7c0.5,2.2,1.6,3.2,3.9,3.8
	c8.8,2.4,18,3.7,26.1,8.4c1.1,0.7,2.4,1,3.7,0.6c-3.4-3.3-7.4-4.7-11.2-6.6c-1.8-0.9-5.1-1.2-4.3-3.7c0.9-2.8,3.5-0.3,5,0.3
	c6.5,2.6,13.3,4.4,19.8,7.2c2.7,1.2,6.1,0.4,8.7,2.4C1270.4,351.3,1272.2,351.2,1271.9,352.6L1271.9,352.6z M1298.5,329.6
	L1298.5,329.6c11.4-22.2,24.5-43.4,37.9-64.5C1324.4,286.9,1312.7,309,1298.5,329.6L1298.5,329.6z M1292.5,62.8
	c0.3,0.4,0.7,1,0.6,1.3c-3.2,6-1.6,12.5-2.2,18.7c-1.7,17.1-4.4,34-7.1,50.9c-2.3,14.8-4.3,29.5-6.4,44.3
	c-1.4,10.2-2.7,20.5-4.2,30.7c-0.3,2.2,0.2,4.3-0.6,6.4c2.2-6.3,2.6-13,3.4-19.5c1.2-10.8,3.5-21.3,5-32c2.4-17.1,5.3-34.1,7.7-51.2
	c1.7-12.3,3.5-24.6,4.3-37.1c0.2-2.3-0.3-4.7,0.6-7c0.7-2,1.7-2.4,3.1-0.5c2.1,2.8,4.2,5.6,6.3,8.3c1.4,2,2.1,4.5,2,7
	c0,3.4,0.1,6.8,0.2,10.3l1.1,0.1c0.1-2.2,0.1-4.3,0.2-6.5c0.1-1.2-0.4-2.7,1.2-3.3c1.6-0.5,2.3,1,2.8,2c3.4,6.8,7.9,12.9,11.7,19.5
	c1.1,1.9,2,3.4,0.3,5.9c-1.2,1.8-0.8,4.8-0.8,7.3c0,3.2,0.3,6.5,1,9.7c0.3-2.9,0.6-5.8,0.7-8.7c0.1-2.1,0.1-4.2,0.1-6.3
	c0-0.8-0.1-1.5,0.8-1.7s1.3,0.6,1.7,1.2c3,3.9,5.5,7.9,4.6,13.3c-0.3,2.5-0.1,5,0.6,7.4c0.3-2.1,0.6-4.2,0.9-6.3
	c0.1-0.6,0.2-1.3,0.9-1.5s1,0.5,1.3,1c2,3,3.9,6,3,10c-0.4,1.5-0.3,3.3,2.3,2c1.2-0.6,1.9,0.5,2.3,1.3c2.6,5.1,5,10.3,4.3,16.3
	c-0.1,1.9,0,3.7,0.3,5.6c0.3-0.2,0.6-0.2,0.6-0.3c0.4-1.6-0.7-4.1,1.5-4.4c1.8-0.2,2.3,2.1,2.9,3.8c0.7,1.9,1.6,3.6,2.6,5.3
	c1.7,3,3.1,5.9,0.7,9.2c-1.1,1.5-0.4,3.2-0.5,4.7c-0.4,12.2-1.7,24.4-3.8,36.4c2.2-2.5,1.9-5.3,2.6-7.8c0.7-2.7,1.2-5.4,1.5-8.1
	c0.4-2.7,0.8-5.4,1-8.2c0.3-4.2,0.4-8.5,0.6-12.7c0.1-1.2,0-2.9,1.4-3.1c1.4-0.2,1.6,1.4,1.8,2.4c1.2,5.3,3.5,10.5,2.7,16.1
	c-0.2,1.3-0.3,2,1.5,2.7c2.8,1,4,8.4,2.7,12.6c-1.9,6.3-5.5,11.7-9.2,16.8c-6,8.2-11.4,16.9-16.8,25.5c-8.4,13.5-16.9,26.9-25,40.6
	c-8.8,14.8-17.3,29.8-25.9,44.8c-0.2,0.4-0.3,0.9-0.5,1.4c1.7,0.5,3,1.2,1.4,3.1c-3.2,3.6-4.7,8.9-10.5,9.7c-1.7,0.2-1.9-0.7-2.4-2
	c-3.7-9.5-7.6-18.9-11.5-28.3c-0.3-0.8-0.5-1.6-1.3-1.9c0.7,5,2.6,9.6,4.2,14.2c1.6,4.5,3.7,8.9,5.6,13.3c-0.8,0.6-1.8,0.6-2.6,0.1
	c-5.4-2.8-11.2-5.1-17.2-5.5c-7.7-0.6-10.8-5.1-12.6-11.8c-2.9-10.3-6.1-20.6-11.3-30.1c-1.2-2.2,0.5-5.1,3.5-6.3
	c2.7-1,2.8,1.6,3.5,2.9c6.5,13,12.1,26.4,17.3,40c0.5,1.3,0.8,4.1,2.5,3.4s-0.3-2.8-0.7-4.2c-3.7-10.8-8.3-21.3-13-31.6
	c-1.6-3.5-3-7.1-5.1-10.3c-2.2-3.3-1.3-6,0.4-8.9c0.3-0.5,0.5-1,0.8-1.6c-0.4-0.2-0.6-0.5-0.7-0.5c-4.5,2.2-5.2,2-8.8-2.1
	c-0.3-0.4-0.4-0.8-0.4-1.3c1.8-9.4,4.5-18.6,9.5-26.8c0.9-1.5,1.9-1.8,2.9,0.1c1.9,3.5,3.9,6.9,5.9,10.4c8.1,14.5,14.4,29.8,20.7,45
	c1.5,3.6,2.8,7.4,5.5,11c0.3-3.2-1.6-4.9-2.4-7c-4.2-10.8-8.2-21.6-12.7-32.2c-2.6-6-5.5-11.9-8.8-17.5c-2.6-4.6-4.1-9.8-8.2-13.6
	c-1.1-1-1.2-3.2-0.6-4.9c0.3-1.2,0.7-2.4,1.2-3.5c0.8-1.7-0.4-4.8,2.1-5c2.1-0.2,2.2,2.9,3.3,4.4c7.5,10.4,13.6,21.6,19.3,33.1
	c1,2,1.9,4.1,4.8,5.5c-1.5-3.4-2.6-6.3-3.9-9.1c-6.2-12.9-12.9-25.5-21.1-37.3c-2.8-4.1-2.5-5.7,0.7-10.1c3.6,4.1,5,9.4,7.5,14
	c0.9,1.6,2.1,3.1,3.4,4.5l0,0c0.4,0.5,1.2,0.5,1.7,0.1c0.8-0.6,0.1-1-0.2-1.5c-3.9-7.3-6.4-15.2-11.5-21.8c-0.4-0.5-0.8-0.9-0.7-1.6
	c1.4-6.1,0.9-12.6,3.8-18.6c1.4-3,1.4-6.5,2.1-9.8c2.8-12.7,6.2-25.3,4.3-38.5c-0.7-5-4.6-8.4-6.6-12.8c-4.3-9.5-9.2-18.7-13.9-27.9
	c-0.4-0.7-0.5-1.6-0.2-2.4c4-13.4,4.6-27.3,6.1-41c0.9-9.1,0.7-9.1,9.7-9.5c4-0.2,8,0,11.9-0.7c5.4-0.9,9.6,1.8,14,3.9
	c1.7,0.8,1.2,2.5,0.9,3.6c-1.7,7.8-1.6,15.8-2.3,23.7c-1,11.5-2.8,22.9-4.1,34.4c3.2-13.6,5.3-27.4,6.3-41.3
	c0.2-3.2,0.9-6.5,0.7-9.7c-0.2-3.8,3.2-4.9,4.6-7.5C1285.8,60.6,1291.8,61.8,1292.5,62.8z M1277.9,40.2c0.8,0,1.4,0.6,1.6,1.3
	c2.2,5.9,3.9,11.9,8.2,16.9l0,0c-5.6-1.6-10.4-4.4-15.2-7.1c-0.9-0.5-0.3-1.4,0.1-2c1.8-2.2,2.4-4.8,3.2-7.4
	C1275.9,40.9,1276.8,40.1,1277.9,40.2z M1286,8.7c-6.7,1.3-10.2,5.3-10.9,12c-0.1,1.2,0.5,3-1.4,3.4c-1.7,0.4-2.3-1-3.2-2
	c-3.3-3.8-7.7-6.1-11-9.9c-3.5-4-5.3-9.3-9.9-12.3c-0.8-0.5,0.1-1.3,0.5-1.9c0.8-1,2.2-1.9,1.1-3.1c-1.1-1.3-2.1,0.5-3.2,0.8
	c-1.8,0.6-3.4,1.5-5.2,2.1c-4.1,1.3-10-1.2-11.5-4.7c-3.3-7.6-2.2-12,3.9-15.5c3.7-2.1,8.6-0.2,12.3,3.2c3.2,3,1.7,6.7,3,9.9
	c0.6,1.3,0.1,3.2,2.3,2.9c2-0.3,4.7,0.8,5.7-2.2c2.3-6.5,3.5-13.3,3.3-20.2c0-3.3-1.6-6.4-4.3-8.2c-1.5-1-1.7-2.2-1.9-3.7
	c-0.5-6.1-1-6.5-7-6.3c-0.6,0-1.4,0.1-1.7-0.3c-0.6-0.7,0.1-1.4,0.6-1.9c1.8-1.6,1.2-3.2,0.7-5.4c-0.6-3,0.5-6.4,0.7-9.6
	c0.6-9.3,1.8-18.5,1.8-27.9c0-4.6-1.7-9.1-4.8-12.5c-3.3-3.8-6.2-7.9-10.3-11c-2.2-1.7-0.3-4.1,0.4-6.1c0.3-0.7,0.7-1.3,1.1-1.9l0,0
	c6.9,5.6,10.7,13.2,15.7,19.8c1.4,2.1,2.1,4.6,2,7.1c0.4,10.7,1.5,21.3-0.1,32c-0.5,3.3-1.6,6.3-1,9.9c0.5,2.6,1.8,3.1,3.7,3
	c1.6-0.1,2.9-0.5,4.4,0.9c2.3,2.1,4.2,4.6,5.7,7.3c0.6,1.3-1.3,1.8-2.3,2.4c-2.4,1.6-3,4.4-0.8,5.9c2,1.4,2.9,3.2,4.1,5
	c0.3,0.4,0.5,1.2,0.8,1.2c5.1,0.8,2.3,3.9,1.6,6c-1.5,4.7-4.9,8.2-8.5,11.5c-1.4,1.3-2.7,2.7-2.8,4.7c-0.1,1.6-0.6,3.4,1.3,4.3
	c1.8,1,3.9,1,5.8,0.1c1.1-0.5,1.6-1.7,1.2-2.8c-0.4-1.7-1.5-0.7-2.4-0.5c-1.1,0.3-2.3,1.3-3.1,0c-0.7-1.3,0.9-1.8,1.7-2.5
	c4-3.9,7.5-8.3,10.5-13c0.6-1,1.3-2.6,2.8-1.6c1.3,0.8,1,2.3,0.2,3.3c-1.7,2.2-0.9,6.1-5,6.5c-0.8,0.1-0.7,0.9-0.3,1.5
	c1,1.5,1.6,3.3,3.3,4.4c4.7,2.8,8.3,6.9,12.3,10.6C1290,5.3,1289.2,8,1286,8.7L1286,8.7z M1353.8,29.5c0.8,0.1,2,0,1.8,1.3
	c-0.1,1.1-1.2,1.4-1.9,1.8l0,0c-0.9,0.1-1.7-0.7-1.8-1.6c0-0.1,0-0.1,0-0.2C1352,29.8,1352.8,29.4,1353.8,29.5z M1368.7,83.5
	c-1.9,0.8-1.9-1-2.4-2c-7.5-14.6-14.5-29.5-23-43.6c-1.7-2.4-3.6-4.8-5.6-6.9c-0.7-0.9-2.6-1.1-1.8-2.8c0.7-1.4,2.2-0.6,3.3-0.5l0,0
	c8.6-0.1,11.3,6.2,13.5,12.7c3,8.9,7.2,17.1,11.3,25.5c2.3,4.6,3.4,9.5,5.7,14.1C1370.4,81.5,1370.3,82.8,1368.7,83.5z M916,296.6
	c4.8,3,8.5,7.3,12.4,11.5C924.2,304.3,919.2,301.4,916,296.6L916,296.6z M808,127c2.7-1.4,4.9-3.7,8.2-4.1c-2.6,1.6-4.5,3.9-6.8,5.9
	c-0.7,0.6-1.7,1.6-2.5,0.5C806.1,128.3,807.3,127.4,808,127z M756.2,97.8c7.2-1.4,14.6-1.7,21.9-0.9l2.6,0.2c2.2,0.2,5-0.3,6.5,0.9
	c1.3,0.9,0.9,4,1.9,5.7c3.6,6.4,5.9,13.7,12,18.5c-1.5-5.2-5.3-9.1-7.5-13.9c-0.5-1.1-1.2-2.2-1.7-3.3c-0.4-0.9-0.8-2.1,0.4-2.6
	c1.2-0.6,1.2,1,1.8,1.4c6,4.1,8.8,10.5,11.8,16.7c0.6,1.3,2.2,2.8,0.3,4.2s-3.2,0.1-4.4-1.3l-0.7-0.9c-0.5,3.6-4,1.3-5.1,2.5
	c-1.4,1.5-1.8,4.4-4.6,3.9c-2-0.4-2.8,0.1-3.9,1.6c-1.4,1.9-3.1,2-4.3-0.5c-0.6-1.5-1.6-2.8-2.9-3.9c-6.2-4.7-10.5-11.2-16.2-16.3
	c-3.4-3-6-6.8-9.6-9.8C753,98.3,755.2,98,756.2,97.8L756.2,97.8z M801.8,128.4c-4.8,3.9-9.2,8.3-14.9,10.9c-0.7,0.3-1.5,1-2.5,0.3
	c0.5-2.1,2.6-2.2,3.9-3.2c3.9-3.2,7.9-6.3,11.9-9.5c0.6-0.4,1.2-1.1,1.9-0.4C802.9,127.2,802.4,127.9,801.8,128.4L801.8,128.4z
	 M712.8,99.3c1.2-3.8,4-5.5,7.8-5.9c7.2-0.8,14.3-2.1,21.5-1.7c1.6,0.3,3.1,0.8,3.3,2.8c0.1,2.1-1.8,1.7-3,1.8
	c-9.2,1-18.1,3.3-26.9,5.8c-1.1,0.3-2.6,1.1-3.5,0.1S712.4,100.3,712.8,99.3L712.8,99.3z M592.1,297.4c-6-1.5-5.7-1.4-2.6-6.8
	c7.5-12.8,15.3-25.4,22.1-38.7c6.8-13.3,15-25.9,22.3-39c10.4-18.6,22.6-35.9,35-53.1c4.9-6.9,9.1-14.3,14.5-20.8
	c8-9.5,14.8-20,25-27.5c0.3-0.2,0.9-0.4,0.9-0.6c0.8-5.1,5.2-4.2,8.5-5.2c7.6-2.2,15.3-4.3,23.3-4.9c6.2-0.5,11,2,15,5.5
	c8.2,7.2,15.7,15.2,23.4,22.8c1.3,1.3,1,2.3-0.4,3.3c-1.9,1.5-4.7,1.5-6.6,0c-5.9-4.3-12.7-6.7-19.7-8.5c-6.5-1.6-9.6,0.2-12.6,6.2
	c-3.3,6.5-5.8,13.4-7.3,20.5c-0.6,3.2-1.4,6.5-0.9,9.6c0.5,2.8-1,3.3-2.8,4.3c-5.3,2.8-11.5,4.3-15.5,9.2c-0.1,0.2-0.2,0.5-0.2,0.8
	c1.7,1.1,3.2,0.4,4.7-0.2c3.8-1.9,7.4-4.4,11.4-5.3c4.9-1.2,8.8-3.6,13.1-5.9c10.3-5.4,21.6-8.9,31.9-14.3
	c10.6-5.6,21.6-10,32.7-14.2c7.4-2.8,14.9-5.4,22.4-8c5.9-1.9,11.8-3.5,17.9-4.7c11.5-2.6,23-1.8,34.5-1.8c0.3,1.8-1.6,1.8-1.6,3.2
	c0.7,0.7,1.9,0.8,2.6,0.1c3.4-2.6,7.1-2.2,11-1.8c13.2,1.4,25.8,5.4,38.5,8.7c7.9,2,15.9,4.2,23.8,6.3c12.4,3.4,23.8,9.4,35.4,14.6
	c14,6.2,27.5,13.2,41.1,20.2c10.3,5.3,20.2,11.1,29.9,17.3c2.6,1.6,2.6,2.5,0.1,4c-9,5.5-18,11-26.9,16.7
	c-13.7,8.8-28.1,16.3-42.4,24c-30.5,16.5-62.8,27.7-96.8,34.6c-8.4,1.7-13.5,0.7-17.6-6.8c-4.9-9-13.4-13.1-23-15.8
	c-4.1-1.1-7.3-4.3-11.7-5.5c-16-4.1-32.5-6.5-49-7c-19.3-0.4-38.5,1.2-57.4,4.7c-18.5,3.3-36.3,9.3-53.4,17.1
	c-19.6,8.8-37.7,20.5-55.8,32c-4.6,2.9-9.6,5.4-14.1,8.3C607.5,300.1,599.9,299.3,592.1,297.4z M776.5,140.4
	c-0.7,3.3-1.2,3.8-4.7,5.1C772.8,143.1,774,141.4,776.5,140.4z M735.2,155.7c1.2-7.9,2.8-15.8,6.8-22.9c0.5-0.9,1-2.3,2.4-1.7
	c1.2,0.5,0.6,1.8,0.4,2.7c-1.8,8.3-4.2,16.4-7,24.4c-0.3,1-0.5,2.2-1.8,2c-1.6-0.2-1.1-1.6-1.1-2.7
	C735.1,156.9,735.2,156.3,735.2,155.7L735.2,155.7z M744.2,148.6c0.5-1.5,1.5-2.8,2.8-3.7c3.9-3.3,5.3-7.9,6-12.8
	c0.2-1.5-0.1-3.5,2.1-3.1c1.8,0.3,1.6,2.3,1.3,3.8c-0.8,2.9-1.8,5.7-2.6,8.5c-0.4,1.1-0.8,2.4,0.6,2.8c1.4,0.5,1.3-1,1.8-1.8
	c1.5-2.7,2.5-5.7,3-8.8c0.2-1.9,1.3-3.1,3.2-2.7c2.2,0.5,1.1,2.1,0.8,3.3c-0.7,2.2-1.2,4.5-1.5,6.9c-0.3,2.6-1.8,4.9-4.1,6.1
	c-4,2.4-7.7,5.4-11.5,8.2c-1.2,0.8-2.3,1.9-4.2,1.3C742.6,154,743.4,151.3,744.2,148.6z M764,146.8c0.6-0.5,1.5-1.4,2.2-0.4
	c0.7,1-0.2,1.9-1.1,2.4c-3.6,2-7.1,4.4-11.9,5.6l0,0C756.5,150.6,760.8,149.5,764,146.8L764,146.8z M764.1,142.1
	c0-2.7,1.3-4.5,1.8-6.4l0,0c0.4-1.1,1.6-1.7,2.7-1.3c1,0.1,1.9,0.8,2.3,1.7c0.4,1.2-0.8,1.7-1.5,2.2
	C767.7,139.6,766.1,140.7,764.1,142.1L764.1,142.1z M625.1,302.7c-3.7-0.2-7.4-0.6-12.2-1l0,0c4.8-4,9.5-5.8,13.6-8.6
	c8.1-5.7,16.6-10.8,25.1-15.9c3.4-2,7.4-3,10.5-5.3c9.8-7.3,20.7-13,32.3-17c14.6-5,29.1-10.4,44.5-13c19.2-3.4,38.7-4.9,58.1-4.5
	c15.9,0.5,31.5,2.4,46.7,6.9c5.6,1.6,10.9,4.1,15.7,7.4c2.4,1.7,5.7,1.2,8,3.4c4.5,4.1,8.5,8.7,12.2,13.6c1.2,1.6,1.9,3.4,4.4,3.5
	c1.3,0,2.5,1.2,3.3,2.3c5.4,7.2,12.5,12.6,19.3,18.3c1.7,1.5,3.3,3,4.8,4.6c8.5,8.9,18,16.7,27.3,24.7c4.2,3.5,8.1,7.4,11.5,11.7
	c1.5,2.1,3.1,4.1,4.8,6c-21,0.6-41.7-1-62.7-2.5c0.5-1.7,2.1-1.7,3.1-2.4c4.2-2.6,4.8-6.2,1.4-9.7c-13.7-14.2-30.1-25.7-48.1-33.8
	c-13.3-6-27.4-9.6-41.4-13.4c-20.6-5.5-41.6-8.7-62.8-10.7c-3.2-0.3-6.2,1.4-8.8,1.4c-3.9-0.1-6.6,1.4-9.6,3
	c-4.6,2.5-8.3,6.2-11.8,10.1c-4.5,5.1-9.8,9.3-15.2,13.4c-3.2,2.4-5.5,5.7-6.6,9.6c-0.6,2.1-1.6,2.3-3.4,2.5
	c-5.8,0.4-11.4-0.5-17.1-0.9C656.4,305.1,640.7,303.9,625.1,302.7z M640.5,327c-0.1-1.5,1.7-2.8,2.7-2.5c1.7,0.6,4,1.3,3.9,3.7
	c0.1,1-0.7,1.9-1.7,1.9c-0.3,0-0.6,0-0.9-0.2C642.5,329.8,640.6,329.3,640.5,327L640.5,327z M643.4,335.8c-0.3,1.7-0.5,4-3.5,3.3
	c-1.3-1.1-4.9,0-4.2-3.6c0.4-2,1.1-4.8,3.5-4.4C641.1,331.5,644,332.7,643.4,335.8L643.4,335.8z M645.1,321.7c0-0.7,0.6-1.3,1.3-1.3
	c0.2,0,0.5,0.1,0.6,0.2c1,0.5,2.4,0.9,2.6,2.3c-0.4,0.9-1.1,1.4-1.8,0.9C646.9,323.2,645.1,323.3,645.1,321.7L645.1,321.7z
	 M648.7,330.5c1.2-1.8,2.7-1.1,4.2-0.3c8.2,4.5,15.7,10.3,24.1,14.6c1.6,0.8,3,1.6,4.6,2.4l-0.1,0.8c-4.4-1.5-8.9-2.6-13-4.6
	c-6.1-2.8-12-6.2-18-9.3C649,333.3,647.3,332.6,648.7,330.5L648.7,330.5z M650.2,314.7c1-1.1,1.9-2.4,3.6-2.1
	c1.2,0.3,2.4,0.7,3.6,1.2c-1,1-2.1,1.9-3.2,2.8c-1.2,0.7-2.7,0.7-3.9-0.1C649.5,316.1,649.6,315.3,650.2,314.7L650.2,314.7z
	 M653,326.5c-0.6-0.4-1.6-0.6-1.3-1.6c0.3-1,1.4-1,2.2-0.9c1.5,0.1,2.7,1.2,4,1.8c8.9,4.4,17.8,8.7,26.7,13c1.4,0.7,3.1,0.9,4.6,1.5
	c0.7,0.2,1.3,0.8,1.3,1.6c-0.3,3.1-4.4,5.3-7.3,3.8C672.6,340.5,662.7,333.6,653,326.5L653,326.5z M687,355.3c1-4.4,3.6-5.1,7.5-5.2
	c17.6-0.7,35.2-1.2,52.7-4.2c2-0.5,4,0.1,5.4,1.5c1.7,1.5,3.5,2.8,5.3,4c-8.1,2-15.7,2.7-23.4,3.3l-44.8,4.1
	C685.9,359.2,686.1,359.2,687,355.3L687,355.3z M680.8,334.7l0.3-1.1l12.2,3.6l-0.3,1.1C688.3,339.5,684.9,335.7,680.8,334.7
	L680.8,334.7z M685.5,332.5c-8.7-3.6-17.4-7.3-26-11.2c-1.1-0.5-3.9-0.8-3.1-2.8c0.7-2.1,3-2.9,5.6-2.7c2.2,1.1,4.8,2.3,7.3,3.5
	c8.3,3.9,16.6,7.9,24.9,11.8c0.8,0.4,2.3,0.3,2,1.7c-0.2,1.2-1.3,2-2.5,1.9c-0.1,0-0.2,0-0.3-0.1C690.7,334.2,688,333.5,685.5,332.5
	L685.5,332.5z M685.9,324.5c-6.2-3.3-12.5-6.5-19-9.2c-0.6-0.2-1.5-0.4-1.6-0.8c-1.3-3.3-4-3.8-7.2-3.8c3.3-1.9,7.4-1.8,10.6,0.2
	c9.1,5.3,18,10.9,27.7,15c0.7,0.3,1.3,0.7,1.9,1.2c0.5,0.5,1.4,0.9,1,1.8c-0.4,0.8-1.3,1.1-2.1,0.7c0,0-0.1,0-0.1-0.1
	C693.3,327.8,689.5,326.4,685.9,324.5L685.9,324.5z M674.1,310.9c0.3-0.7,1.1-1.1,1.8-0.9c1.9,0.3,3.7,0.7,6.3,1.2
	c-2.7,1.2-4.5,2.4-6.8,1.1C674.8,311.9,673.8,311.9,674.1,310.9L674.1,310.9z M680.7,315.4L680.7,315.4c3.3-1,5.6,0.9,8.1,1.9
	c4,1.5,7.9,3.3,11.9,5.1c0.8,0.3,2.3,0.3,1.5,1.8c-0.5,1.1-1.8,1.6-2.9,1.2C693.1,322,686.9,318.7,680.7,315.4L680.7,315.4z
	 M695.9,310.5c-2-1.8-1.5-3.4,0-4.6c2.2-1.7,3.4-3.9,4.9-6c4.9-6.6,11.4-11.7,17.2-17.3c4.7-4.6,10.5-7.4,15.9-11
	c2.9-2,6.3-1,9.3-0.7c17,1.6,34,3.5,50.5,7.7c15.3,3.8,30.6,7.2,45.3,13.1c17.3,7.1,33.5,17,47.7,29.1c2.5,2.1,4.5,4.6,6.8,6.9
	c0.5,0.4,0.8,1,0.8,1.7c-0.2,1.7-1.2,2.1-2,2.8c-4.4,3.4-8.6,1.9-13.3,0.6c-16.4-4.4-33-7.6-50-8.2c-11.3-0.4-22.6,0.1-34-0.1
	c-3.2,0.1-6.4,0.4-9.6,1c-14.6,2-29.5,2.6-43.8,6.5c-3.1,0.9-6.5,0.3-9.2-1.6c-8.2-5.3-17.6-8-26-12.9
	C702.8,315.2,699.1,313.3,695.9,310.5L695.9,310.5z M861.5,394.3c-1.4,0.1-3.3-0.9-3.7,1.4s1.6,2.3,3.1,2.3
	c-3.5,5.8-7.2,11.1-7.2,17.9c0.1,1.1-0.2,2.2-0.6,3.3c-5.9,11.1-10.4,23-18.5,32.7c-12.8,15.2-27.9,27.5-46.9,34.5
	c-9.2,3.4-18.5,6.7-28.2,8.2c-7.9,1.3-15.9,0.9-23.8,1.3c-0.5,0-1.2,0.2-1.9-1.4c14.7,1.1,28-2.8,40.5-9.4
	c-40.5,14.2-53.6,6.4-69.6,5.5c0-1.1,1.3-0.4,1.6-1.2l-3.5-2c0.6,3.5-1.1,2.8-3,2c-9.1-3.8-17.7-8.5-25.9-14
	c-12.1-8-22.2-18-32-28.7c-10.8-11.8-16-26.1-20.3-41c-3.4-11.8-4.8-24.2-4.1-36.5c0.6-11.2,4.3-21.8,9.5-31.8
	c4.5-8.9,9.8-17.4,15.9-25.3c1.3-1.5,2.9-2.8,4.7-3.6c0.8-0.5,1.8-0.2,2.3,0.6c0.8,0.9,0.1,1.6-0.6,2.2c-8.1,6.4-12.3,15.5-17,24.3
	c-7.6,14.3-9.7,41.1-4.1,54c1.6-0.4,0.7-1.6,0.6-2.4c-1.5-12.9-1.9-25.8,2.3-38.4c0.6-1.5,0.9-3.1,1.6-4.6c1.6-3.7,4-4.3,7.3-1.9
	c1.5,1,0.8,2.3,0.5,3.4c-1.9,6.3-1.4,12.8-1.7,19.2c-0.1,1.3,0.6,2.6,1,4.1c1.4-1.3,1.2-2.7,1.2-4c0-5.4,0.4-10.7,1.3-16
	c0.6-4.4,1.5-4.8,5.5-3.4c7,2.5,13.9,5.3,20.7,8.4c2,0.9,4,1.9,6.6,1.2c-2.5-1.3-4.9-2.7-7.5-3.8c-6.9-3.2-13.8-6.2-20.8-9.2
	c-1.8-0.8-2.8-1.8-2-3.7c0.8-1.9,2.2-2.7,4.2-1.4c6.6,4.2,14.2,6.3,21.2,9.8c3.5,1.8,7.5,2.6,11.3,3.9c1.9,0.6,2.5,1.2,1.6,3.7
	c-2.8,8-3.7,16.5-2.6,24.8c0.5,4,1.4,7.8,1.9,11.8c1,7.6,5.4,13.6,9.8,19.4c7,9.4,15.3,17.8,24.5,25c14,10.8,30.3,12.8,47.5,8.3
	c5.8-1.5,11.1-3.5,15.4-7.8c1.3-1.3,2.6-2.6,2-4.7c-0.4-1.5,1-1.4,1.7-1.8c4.6-3.1,10.2-4.7,13.4-9.7c0.2-0.3,0.7-0.5,0.7-0.8
	c0.6-6.9,4.3-2.8,7-2c5.2,1.5,9.9,4.4,15.6,4.8c14.1,1.1,24.6-10.3,25.2-22.3c0.1-1.6,0.2-3.2,0.3-4.8c0.1-1.8-0.3-3.4-2.4-3.5
	c-2.3-0.1-2.1,2-2.3,3.5c-0.1,0.7,0,1.5,0.1,2.2c0.5,2.4,0.2,4.4-2,5.9c-1.5,1-1.6,2.8-2.2,4.2c-3.2,8.3-6.8,11.1-15.7,10.2
	c-8.2-0.9-15.9-4.2-22.3-9.3c-5.2-4-4.9-10-4.1-15.7c0.4-2.7,1.6-5.2,2.5-7.8c0.2-0.9,0.8-1.6,1.7-1.9c6.5-2,12.5-5.5,19.3-6.5
	c0.5-0.1,1.1-0.3,1.5-0.1c2,1.3,4.1,0.7,4.4-1.3c0.3-2.1-2.6-1.9-3.8-1.9c-8.1-0.1-16.1,0.3-23,5.4c-0.9,0.7-1.7,3-2.5-0.1
	c-0.2-0.7-1.1-0.1-1.5,0.3c-3.2,3.4-5.9,7.1-7,11.8c-1.2,5.3-2.6,10.5-1.2,16c0.4,1.3-0.2,2-1.4,1.8c-1.6-0.2-4.6,0.3-4.5-1.2
	c0.4-5.6-0.5-11.1-0.3-16.7c0.1-3.8,1.8-6.7,3.9-9.6c0.5-0.7,1.2-1.6,0.3-2.3c-0.9-0.7-1.5,0.4-2.2,0.7c-4.4,2-5.5,5.7-5.7,10.1
	c-0.3,5.9-0.9,11.8,0.7,17.9c-1.3,0.5-2.8,0.2-4.2-0.1c-5.6-1.1-11.2-2.2-16.8-3.6c-1.9-0.5-4.5-0.5-2.7-4.5
	c2.1-4.7,2.3-10.1,5-14.7c1.3-2.2,1.1-3.9-2.4-3.8c-7.5,0.1-14.9,0.2-22.2,1.8c-1.3,0.3-2.7,0.6-3.1,2.6c7.7-0.8,15.2-2.4,22.8-1
	c-1.1,4.4-3.2,8.3-3.2,12.7c0,1.7,0.3,3.3-1.5,4.7c-1.3,1-0.4,2,0.7,3c4.3,4.1,10,4.1,15.1,5.6c9.5,2.8,19.5,2.6,29.1,4.5
	c0.9,0.2,2.1-0.3,2.5,1c0.3,1.1-0.2,2.3-1.1,3c-2,1.8-4.5,2.7-7.1,2.8c-10.1,0.6-20.1,1.5-30.1,2.3c-0.4,0-0.8,0.3-0.9,0.7
	c9.7,1.9,19.2,0.3,29.8,0.1c-2.6,2.1-4.3,3.4-6,4.8c-1.9,1.5-3.7,3.2-5.1,5.2c-2.4,3.3-6.6,3.8-10.3,4.8c-12.6,3.6-25,3.5-37.1-2
	c-1.7-0.7-3.2-1.8-4.5-3.3l0.1,0.1c-6.5-3.2-11.5-8.3-15.6-13.9c-4.4-5.9-9.7-10.8-14.2-16.5c-4.8-6.2-6.7-13.8-7.8-21.4
	c-0.9-5.7-0.9-11.4-0.1-17.1c0.4-2.6,1.2-3.8,4.2-4c19.3-1,38.5-1.7,57.7-4c3.3-0.4,6.7-0.9,9.9-1.6c6-1.3,10.2,1.5,14.1,5.4
	l-0.1-0.1c2.3,0.9,4.6,1.9,6.9,2.7c1,0.4,2.2,0.7,3.2-0.2c0.7-0.7,0.5-1.6,0.3-2.5c-0.4-1.5-1.6-0.8-2.6-1c-3.7-0.5-6.9-2.7-9.3-5
	c-3.8-3.6-8.9-5.1-12.7-8.5c-1.8-1.6-3.1-4.2-6.1-3.2c-2.3,0.8-4.6,0.6-6.9,0.8c-10.1,1-20.2,2.3-30.4,3.3
	c-7.2,0.7-14.3,1.1-21.6,1.7c2-7.8,8.7-12.9,16.7-12c4.5,0.5,8.2-2.5,12.6-2c0.9,0.1,1.2-0.7,1-1.6c-0.3-1.5-1.3-1.8-2.5-1.6
	c-3.2,0.6-6.4,1.2-9.5,1.9c-2.4,0.6-4.9,0.3-7.2-0.7c4.3-3.4,9.4-4.3,13.7-4.8c5.2-0.5,9.4,4.1,14.2,6.3l-0.1,1.2l-31.9,4.2l0.1,1.3
	c4.3-0.1,8.6-0.1,12.9-0.4c6.9-0.5,13.9-1.4,20.8-1.9c4.1-0.3,7.4-2.9,11.5-3.6c24.2-4.2,48.4-6.9,73-6.8
	c19.2,0.1,37.9,2.7,56.5,6.9c1.5,0.4,2.8,0.9,4.5,1.4c-0.7,0.9-1.9,1.3-3,1.1c-15.8,0.2-31.6,0.4-47.3,0.7c-3.7,0-7.5,0.1-11.2,0.2
	c-0.5,0-1.1,0.2-1.5,0c-3.6-1.7-7-1.2-10.4,0.6c-0.6,0.3-1.2,0.3-1.8,0c-5.4-3.6-9.6,1.8-14.5,1.8c-0.8,0-1.2,0.7-1.5,1.3
	c2.1,0.3,4.1-0.3,6.3,1.9c4.4,4,9.5,7.3,15,9.5c1,0.4,2.1,0.3,3-0.2l-10-7.1c-0.9-0.5-1.7-1.1-2.4-1.7c-0.7-0.7-2.7-0.9-1.7-2.3
	c1-1.1,2.6-1.3,3.7-0.3c3.3,2.2,6.6,4.5,9.9,6.6c2.6,1.6,5.1,3.4,8.6,3l-13.5-9.4c3-1,5.3-1.2,7.8,0.1c6.6,3.3,12.3,7.9,18.7,11.4
	c0.8,0.4,1.6,1.3,3.2,0.4c-5.1-4.3-11.2-7.1-16-11.8c2.4-1.3,4.1-0.5,6.1,0.8c14.7,8.8,27.2,20.7,41.8,29.7c1.1,0.7,2.2,1.7,4.3,1.1
	c-14.3-10.3-27.2-21.9-41.6-31.2c1.8-1.5,5.4-2.1,7-0.5c5.9,6,13.6,9.5,20.3,14.3c10,7.2,19.5,14.9,29.1,22.5c4.1,3.2,4.2,3.3,0.2,7
	c-1.7,1.6-3.5,3.1-4.7,5.2c-0.9,1.6-2.6,1.8-4.2,2C872.4,393.3,866.9,393.8,861.5,394.3z M792.7,408.3c-3.5-0.3-4.1-1.8-3.5-10
	L792.7,408.3z M869.1,415.4c-1.3-0.6-0.2-1.5,0.2-2.1c2.4-4,3.8-8.7,8-11.6c-2.1,4.2-4.1,8.3-6.2,12.5
	C870.7,415.1,869.9,415.8,869.1,415.4L869.1,415.4z M876.4,414.3c-0.4,1-1.5,1.6-2.6,1.2c-0.1,0-0.2-0.1-0.2-0.1
	c-1-0.7,0.1-1.6,0.5-2.2c3.5-6,5.9-12.6,10.3-18.1c0.6-0.9,1.5-1.5,2.5-1.7C884,400.9,879.7,407.4,876.4,414.3z M878.7,415.2
	L878.7,415.2c3.2-5.9,6.1-11.6,9.3-17.2c1.2-2.2,2.2-4.4,3.1-6.7c0.6-1.6,1.4-3.2,2.3-4.7l0,0c0.5-1,1.8-1.5,2.8-1l0,0
	c1.5,0.7,0.9,1.6,0.3,2.7c-2.9,5.7-5.8,11.5-8.7,17.3c-1,2-2.4,3.9-3,6C883.9,414.9,881.7,415.3,878.7,415.2L878.7,415.2z
	 M962.2,389.9c-6.7,1-11.9,5.6-18.2,7.4c-4.8,1.4-12.5,0.9-13.9-5.4c9.5,2.2,18.5,1,27.2-2.2c1.5-0.4,2.7-1.3,3.5-2.6
	c0.4-0.8,0.9-1.7,1.9-1.6c0.5,0.1,0.8,0.5,0.7,0.9c0,0.1,0,0.1-0.1,0.2C962.8,387.7,963.8,389.7,962.2,389.9L962.2,389.9z
	 M955.1,385.9c-7,3-14.7,3.8-22.2,2.3c-2.1-0.4-3.9-1.8-4.8-3.7c-2.6-4.9-2.8-10.2-2.9-15.6c0-1.2,0.8-2.9-1-3.6
	c-1.1-0.5-1.4-3-3.1-1.8c-2,1.4,0.6,2.1,0.8,3.2c0.4,2,0.5,4.1,0.4,6.2c-0.3,3.8,0,7.7,1,11.5c-1.9-2.6-4-5-6.4-7.2
	c-2.7-2.5-5.9-4.5-10.1-3.8c-2.4,0.3-4.8-0.5-6.4-2.2c-7.3-6.5-14.6-13-23.3-17.6c-0.7-0.2-1.2-0.9-1.2-1.7
	c5.8-0.1,11.3,1.3,16.8,2.3c6.5,1.2,13,1.9,19.4,3.7c13.6,3.7,27.7,5.5,40.7,11.4c1.3,0.6,2.6,1.4,3.8,2.2
	C962.3,375.6,961.7,383,955.1,385.9L955.1,385.9z M900.3,379.3c-0.9,2-0.6,4-3,4.5c-0.7,0.1-1.4-0.5-1.3-1
	C896.6,380.9,897.9,379.8,900.3,379.3L900.3,379.3z M990.7,394.4c-9.6,0.4-18.7,3.6-28,5.7c-22.1,4.9-44,10.4-66.6,12.9
	c-2.5,0.3-4.8,1-7.3,1.3c-2,0.3-2.5-0.4-1.4-2.3c4.1-6.8,7.5-14.1,11.5-20.9c1.9-3.3,2.8-6.8,4.6-10c1.6-2.9,6.2-3.5,8.2-1l-0.1-0.1
	c1.2,0.4,2.3,1,3.3,1.7c2.1,1.7,3.5,3.2,1.6,6.5c-3.2,5.6-5.6,11.6-8.3,17.5c-0.4,1.1-0.8,2.3-1.1,3.5c2.5-0.5,3.3-2,4.1-3.6
	c2.4-5.1,4.8-10.1,7.2-15.1c0.9-1.9,1.9-2.5,3.6-0.9c1.5,1.4,4.7,0.8,3.9,4.8c-0.5,2.7,5.9,6.6,8.9,7.3c8.1,1.8,14.8-1.1,21.3-5.3
	c3.9-2.5,8.4-1.8,12.7-1.4c1.3,0.1,2.7,0.6,4-0.6c-0.5-0.4-0.8-1-1.2-1c-5.1-0.5-5.7-3.8-5.3-8c1.2-12.3-7.3-18.3-16.4-21.3
	c-23.9-7.9-48.5-12.8-73.4-16.3c-5.9-0.8-11.7-2.5-17.5-3.8c-1-0.2-2.6-1.5-2.7,0.8c-0.1,1.4-0.5,2.8,2.1,3
	c5.9,0.5,10.8,3.3,15.8,6.6c8.4,5.6,16.3,11.8,24.3,17.8c1.6,1.2,2.2,2-0.1,3c-0.9,0.5-1.7,1-2.5,1.7c-4.6,3.4-4.9,3.4-9-0.5
	c-13-12-27.7-21.7-42.1-31.9c-1.3-0.7-2.3-1.6-3.1-2.8c5-0.1,9.6-0.3,14.3-0.3c6.7,0,13.4,0.1,20.2,0.1c2.5,0,4.9,0.2,7.3-1.2
	c1-0.4,2.2-0.5,3.3-0.3c15.6,1.4,31.1,3.8,46.7,4.2c7.3,0.2,14.7,1.1,21.8,1.1c5.6,0,6.5,3.1,8.9,5.7c5,5.4,9.4,11.5,13,17.9
	c3.8,6.5,9.1,11.9,12.1,18.8c0.9,1.5,1.8,3,2.8,4.5C992.9,393.7,992.3,394.3,990.7,394.4L990.7,394.4z M1341,306.8
	c6.8-9,12.9-18.5,18.5-28.3c3.2-5.7,7.5-10.5,10.4-16.3c5.7-11.6,13.2-22.2,18.7-33.9c0.9-1.9,1.8-3.5,4.3-3.5
	c1.7,0,2.5-1.3,3.1-2.8c1.6-3.9,3.5-7.7,5.1-11.6c0.8-2,1.6-2.1,3.6-1.5c16.4,4.7,31.2,13.1,45.2,22.3
	c15.4,10.1,31.3,19.7,44.6,32.7c6.8,6.4,12.9,13.4,18.2,21.1c0.8,1.1,1.8,2.3,0.8,3.7c-0.8,1.2-2,1.3-3.3,1.1c-1.7-0.2-3.5,0.2-5,1
	c-15.3,6.3-30.8,12.4-47.3,15.2c-9,1.5-18.3,1.7-27.1,5.4c1.5,0.2,2.9,0.8,4.2,0.5c7.1-1.3,8.8,4,11.3,8.7c1.8,3.3,4.5,6,6.5,9.3
	c5.7,9.1,10.4,18.6,12.7,29.1c4.8,22.8-0.9,43.4-12.9,62.8c-8.1,13-20.7,17.7-35.2,19.2c-7.7,0.8-15.4,2.1-23.1,3.1
	c-2,0.1-4-0.3-5.8-1.2c-1.7-0.8-3.4-1.6-5.1-2.2c-6.9-1.9-12-6.7-17.4-10.9c-18.4-14.3-30.4-32.8-34.7-55.8c-1-5.5-0.7-11.2-1-16.8
	c-0.1-1.7,0.9-2.1,2.1-2.7c2.9-1.3,5.9-2.3,8-5.1c0.7-0.9,2.8,0.5,4.5-0.3c7-3.2,13.8-6.7,20.7-10.2c3.5-1.9,6.5-5.1,11-4.9
	c0,1.8-1.6,2.8-2.6,4.8c3.8-0.7,6.2-0.5,5.2,4c-0.3,1.2,2.2,0.5,3,2c4.3,8.2,9,16.2,12.3,25c2.8,7.5,5.2,15.2,9.6,23.2
	c0.1-3.4,1.5-3.3,3-2.2c6.8,5.2,14.3,3.6,21.8,2.1c5.3-1,7.6-5.2,10.3-9c0.6-0.7,0.5-1.8-0.2-2.4c-6.6-6.5-8.6-15.4-12.5-23.3
	c-3.4-6.8-6.7-13.5-10.1-20.3c-3.1-6.4-6.2-12.8-9.3-19.3c-1.1-2.2-0.3-3.2,2.1-3.4c3.8-0.3,7.7-0.6,11.5-0.9
	c1.6-0.1,3.1-0.4,2.7-2.5c-0.4-2.4-1.9-0.7-2.9-0.6c-16,1.1-32,2.3-48,3.5c-9.3,0.9-18.6,1-27.9,0.3c-3.4-0.4-6.8,0.5-9.5,2.5
	C1336.6,313.7,1338.6,310.1,1341,306.8L1341,306.8z M1473.1,429.5c-1.6,3.5-4.6,5.1-7.4,7.2c-0.7-1.3-0.1-1.6,0.3-2
	c0.9-0.9,1.3-2.1,0.4-3c-1.1-1.1-1.5,0.8-2.4,1c-2.5,0.6-3.9,2.9-5,4.7c-3.2,5.1-7.9,7.6-13.6,9s-11.4,2.6-17.1,3.7
	c-8,1.5-16.2,0.6-23.8-2.3c-2.2-0.8-4.7-0.8-7.7-2.7l0,0c5.2-0.4,10.3-0.5,15.5-0.3c16.2,0.6,30.2-4,40.8-16.6
	c5.2-6.2,8.5-13.5,11.3-20.8c3.9-10.5,6-21.6,6-32.8c0.3-10.1-1.6-20.2-5.5-29.6c-1-2.3-0.6-3.6,1.6-4.8c2.7-1.4,3.7,0.7,4.2,2.2
	c3.9,10.9,9.1,21.4,10.7,33.2c0.9,6.8,2.1,13.6,2.3,20.4c0.3,7.7-0.3,15.6-6.5,21.8c-2.4,2.4-3.4,6.1-6.8,8.5
	C1474.6,426.5,1474.4,426.4,1473.1,429.5L1473.1,429.5z M1450.1,315.1c0.1,0.6-1.1,1.1-1.8,0.9c-1.5-0.5-2.7-1.7-3.2-3.3
	c-0.4-1.2,0.2-1.7,1.1-1.9c3.2-0.5,6.4-0.9,9.7-1.4c-0.1,1.7-1,2-1.9,2.4C1452.3,312.4,1449.2,311.3,1450.1,315.1z M1450.6,318.5
	c0.5-0.5,1.3-0.8,2-0.6l0,0c1.4,0.2,4.5,4.5,4.1,5.8c-0.3,0.7-0.8,1.2-1.4,1.5c-0.7,0.3-1.4-0.1-1.8-0.8c-0.8-1.3-1.7-2.7-2.5-4
	C1450.6,319.8,1449.8,319.3,1450.6,318.5L1450.6,318.5z M1456.5,314.2c1.3-2.7,8.3-6.5,10.8-6.2c-2.7,2.6-5.6,5.3-8.4,7.9
	c-0.5,0.6-1.4,0.7-2,0.3C1456.2,315.8,1456,314.9,1456.5,314.2L1456.5,314.2z M1474.7,306.5c-0.1-0.2,0.3-0.7,0.6-0.8
	c3.8-1.2,7.6-2.4,11.4-3.6l0.4,0.9c-5.9,4.2-11.7,8.4-17.6,12.6c-2.2,1.6-4.6,3-6.8,4.5c-1.2,0.8-2.4,1-3.3-0.2s0.3-2,1.3-2.6
	c4.1-2.3,7.5-5.7,11.7-7.8C1473.3,308.9,1475.7,308.8,1474.7,306.5L1474.7,306.5z M1500,303.2c0.4,1.2-0.9,1.3-1.5,1.8
	c-9.7,7.6-19.9,14.7-30.5,21.1c-2.3,1.4-3.3,0.3-4.5-1.3c-1.4-1.9-0.5-2.8,1.2-4c8.6-5.8,17.9-10.7,26.1-17.1c1.8-1.4,4-2.2,6.3-2.4
	l0,0C1498.6,301.5,1499.6,302,1500,303.2L1500,303.2z M1458.9,326.2c1.7,0.1,2.7,1.5,3.4,3c-0.6,1.4-1.4,2.6-2.8,2.6
	c-2.1,0-2.3-2-2.5-3.5c-0.2-1,0.5-1.9,1.5-2.1C1458.5,326.1,1458.7,326.1,1458.9,326.2L1458.9,326.2z M1463.3,332.3
	c1.6,0.1,4.5,3.5,3.9,4.9c-0.6,1.7-2.3,3.2-3.9,2.9c-2.5-0.4-2.6-3-2.8-5C1460.4,333.5,1461.8,332.5,1463.3,332.3L1463.3,332.3z
	 M1469.2,332.3c-0.7-1.7-2.6-3.2,0.6-4.9c10.8-5.7,21-12.3,30.6-19.8c1.1-0.9,2.5-1.6,3.8-0.9c1.4,0.7,2.2,2.3,3,3.6
	c-0.1,0.9-0.7,1.7-1.5,2.1c-10.8,7.1-21.6,14.1-32.3,21.2C1471.3,334.7,1470.1,334.2,1469.2,332.3L1469.2,332.3z M1330.1,353.3
	c1.3-2.2,4-1.8,5.8-3.2C1334.6,352.2,1332.4,352.7,1330.1,353.3z M1381.8,338.9c-1.1-0.2-1.2-1.3-0.8-2.2c0.9-2.5,3.1-3,5.3-3.2
	c1.1-0.2,1.4,0.9,1.4,1.8C1387.6,336.6,1383.7,339.2,1381.8,338.9L1381.8,338.9z M1376.7,333.8c1.6-2.7,4-3.6,8-3.6
	C1381.8,332.6,1379,332.8,1376.7,333.8L1376.7,333.8z M1383.7,341.9c0.9-2.3,3.3-1.7,4.9-2.6l0,0c2,0.7,3.3,2.5,3.2,4.6
	c-0.2,1.9-2.7,2.5-4.5,3C1386.6,347.2,1383.4,342.8,1383.7,341.9L1383.7,341.9z M1392.6,347.5c1.5,0.5,2.3,2,1.8,3.5
	c-0.3,1.7-1.1,3.6-3.2,3.3c-1.9-0.3-2.3-2.3-2.3-3.7C1388.9,348.5,1390.9,348,1392.6,347.5L1392.6,347.5z M1395.4,355.1
	c1.2-0.1,2.3,0.8,2.4,2c0,0.2,0,0.5,0,0.7c-0.3,1.8-1.8,3.1-3.6,3.2c-1.9,0.1-1.6-1.4-1.7-2.7
	C1392.6,356.5,1393.4,355.1,1395.4,355.1L1395.4,355.1z M1396.4,362.9c1.1-0.7,2.3-1.9,3.6-0.6c1.1,1.2,2.2,2.6,3.1,3.9
	c-1.6,0.2-3.1,0.5-4.6,0.9c-1,0.3-2.2,1.3-2.8-0.2C1395.2,365.6,1394.7,364,1396.4,362.9L1396.4,362.9z M1402.3,367.5
	c1,0.1,1.8,0.8,2.1,1.7c0.4,1.2,1,2.2,1.7,3.3c1.7,2.3,2,3.9-1.3,4.8c-1.4,0.4-2.8,3-4,1.7c-1.6-1.9-2.6-4.2-2.9-6.7
	C1397.7,369.4,1401.4,369.6,1402.3,367.5L1402.3,367.5z M1409.4,383.5c0.6-0.6,1.7-2.5,3.1-0.2c1.5,2.5,2.4,5.4,5.6,8.2
	c-4.9,0-7.6-2.7-10.5-4.4C1405.9,386.1,1408.3,384.4,1409.4,383.5L1409.4,383.5z M1406.5,366.9c-2.8-5.3-5.8-10.5-8.4-15.9
	c-3-5.9-5.5-11.9-7.5-18.1c-0.8-2.7,0.4-5.6-3.6-7.2c-2.1-0.9-2-5.4-6-7.3c1.1,2.8-0.3,5.1,1.8,6.9c0.5,0.5,0.5,1.3,0,1.9
	c-0.1,0.1-0.3,0.3-0.5,0.3c-2.9,1.5-5.9,2.9-8.9,4.1c1.5-2.1,4.3-2.2,5.8-4.2c0.5-0.6,1.8-1,1.2-2c-0.7-1.3-1.8-0.4-2.6,0
	c-6.6,3.3-12.9,6.9-19,11c-2.4,1.6-4.9,3.2-7.4,4.8l-0.7-0.9c3.4-2.6,6.8-5.4,10.3-7.9c3.8-2.6,6.9-6.1,10.6-8.8
	c0.7-0.4,1.1-1.1,1.2-1.8c0.1-3.4,2.2-4.5,5.2-4.6c6.8-0.3,13.5-0.6,20.3-0.9c3.3-0.2,4.8,1.2,6.1,4.5c2.7,6.7,6.3,13.1,9.8,19.5
	c5.9,10.9,10.7,22.4,16.1,33.5c0.9,2.1,2,4.2,3.2,6.2c1.2,1.5,1.1,3.8-0.4,5.1c-3,3-6.6,5.2-11.3,4.9c-1,0-1.9-0.5-2.4-1.4
	C1414.8,381.6,1410.5,374.3,1406.5,366.9L1406.5,366.9z M1332.6,329.6c6.8-1.6,13.2-5,19.8-7.6c0.8-0.3,1.9-0.6,1.4-1.8
	c-0.4-1-1.4-0.9-2.3-0.5l-13.9,5.4c-3,1.2-5.9,2.9-9.6,3.1c1.8-5,5.9-6.5,10-7.9c7.6-2.6,15.4-2.3,23.3-2c3.2,0.1,6.3-1.5,10.3,0.1
	c-18.1,9.5-36.8,16.3-54,26.1C1321.3,338.1,1324.1,331.5,1332.6,329.6L1332.6,329.6z M1396.1,497.6c8.8,0,17.6-0.5,26.4-1.6
	C1413.9,499.2,1405,498.7,1396.1,497.6L1396.1,497.6z M1532.7,391.8c-1.7,10.2-4.8,20-10.1,28.7c-5.4,9-11.8,17.4-20.1,24.1
	c-6.4,5.1-11.7,11.4-16.8,17.8c-5.8,7.4-13.5,12.2-21.8,15.7c-11.9,5-24.3,8.8-37.4,9.5c-18.5,1-36.9,0.9-54.5-5.6
	c-8.9-3.5-17.4-7.9-25.3-13.3c-14.8-9.6-26.8-22.8-34.9-38.5c-8.6-16.5-15.5-33.6-17.3-52.4c-0.3-2.7,2-3.9,3.2-5.6
	c4.5-6.8,9.7-13.2,14-20.2c2.5-4.1,6.3-5.9,10.2-7.7c9.2-4.1,18.4-8.1,27.4-12.5c4.7-2.3,9.6-4.2,14.6-5.9
	c-13.5,13.1-30.7,20.9-45.5,33.3c2.5,0,4.2,0,5.7-1c2.4-1.6,2.9-0.5,2.9,1.9c-0.7,13.2,2.2,26.4,8.4,38.1
	c8,15.3,19.6,28.5,33.8,38.4c13.9,9.7,29.8,13.2,45.8,16.9c6.8,1.6,13.4,0.1,20-1.4c10.5-2.5,20.9-5.4,30.2-11.2
	c4-2.5,7.9-5.3,10.5-9.3c0.9-1.5,2.5-3,0.5-4.9c-0.5-0.5-0.4-1.5,0.3-1.6c5.3-0.9,5.3-6,6.7-9.4c2.1-5.2,4-10.9,4.4-16.4
	c0.5-5.7,0.9-11.6,0.2-17.5c-1-8.8-5-16.5-7.8-24.6c-1.8-5.2-3.1-10.7-5.6-15.7c-2.6-5.1-2.5-5,2.5-8.1c9.7-6,19.9-11.2,29.2-18
	c3.6-2.7,6.9-1.4,7.9,2.9c0.4,1.8-1.2,2-2.1,2.6c-9.8,6.9-19.3,14-28.5,21.6c-0.2,0.1-0.2,0.4-0.3,0.7c4.8-1.7,8.5-4.9,12.5-7.7
	c5.8-4.1,11.5-8.3,17.3-12.4c2.5-1.8,4-0.1,5.5,1.8c6.6,8,10.3,17.5,13.4,27.2C1535.7,365.3,1534.9,378.5,1532.7,391.8L1532.7,391.8
	z"/>
<path d="M722.7,433.4c0.1-0.9,0.5-1.5,1.4-1.2c5.1,1.3,10.4,0.8,15.6,1.7c-5.8,1.5-11.5-0.3-17.2-0.6L722.7,433.4z"/>
<path d="M919.2-14.7c6,1.5,11.9,4.1,18,6.1c20.7,6.6,40.7,15.2,61.4,21.8c5.6,1.8,10.9,4.2,16.4,6.1c1.4,0.5,1.8,1.3,1.6,2.4
	c-0.3,1.8-1.8,1-2.7,0.7c-9.2-3.6-18.4-7.3-27.8-10.4c-12.1-4-24-8.6-36-12.9c-10.5-3.7-21.1-7.3-31.6-11c-1-0.4-3-0.3-2.6-2
	C916.2-15.3,917.8-14.6,919.2-14.7z"/>
<path d="M1040.2-74.6c-0.8-5.6-2-11.1,0.8-16.5c0.7-1.4-0.5-3.1-1-4.6c-0.2-0.5-0.8-0.7-1.3-0.5c-1.2,0.3-1.4,1.4-1.5,2.3
	c-0.3,4.8-0.7,9.6-0.9,14.5c0.1,1.2-0.2,2.5-1,3.4c-1.6-4.6-0.4-8.8-0.4-12.9c0-2,0.7-4.1,0.2-5.9c-1-3.3,3.2-4.4,2.6-7.5
	c-0.1-0.6,1.2-0.2,2,0.8c3.2,3.7,4.3,8.4,5.7,12.7c4,11.5,8.4,22.8,11.7,34.5c1.2,4.1,3.2,7.9,3.3,13.2c-3-3.1-3.1-6.6-4.2-9.5
	c-1.6-3.9-2.6-2.9-4.9,0.7c0.2-2.8,0.2-4.6,0.6-6.1c1.3-4.7-1-8.8-2.3-13c-0.1-0.6-0.6-1.1-1.3-1.2c-1,0-1.1,0.8-1.3,1.5
	c-1,2.7-1.1,5.6-1.5,8.4c-0.1,0.8,0.3,2.4-1.2,2.2c-1.2-0.2-0.5-1.4-0.4-2.2c0.7-5.3,0.9-10.6,2-15.9c0.8-4-1.9-6.8-2.6-10.2
	c0-0.4-0.4-0.7-0.8-0.6c-0.1,0-0.2,0.1-0.3,0.1c-0.8,0.5-1.2,1.3-1.3,2.2C1040.8-81.3,1040.5-78,1040.2-74.6z"/>
<path d="M1019.7-104.3c0-5.8,1.3-11.4,2.4-17.1c0.4-2.2,1.6-3.9-0.4-6.4c-1.5-1.8-0.1-5.3,1.3-7.4c2-2.9,2-5.7,1.5-8.8
	c-0.1-0.5-0.2-1-0.3-1.5c-0.2-1.4,1.2-3.3-0.3-4.2c-1.8-1.1-1.5,2.3-3.3,2.2c0.3-5,4.3-9.5,2.2-15.2c-3.4,2.6-1,6.9-4.1,9.9
	c0.4-4.1,1.2-8.2,2.4-12.1c0.3-1,1.3-1.6,2.4-1.4c1.2,0.1,1.7,1,1.8,2.1c0.3,3,0.6,5.9,0.9,8.9c1.5,15.9-0.6,31.4-4.6,46.7
	c-0.4,1.4-0.6,2.9-0.8,4.3L1019.7-104.3z"/>
<path d="M922.1,72.4c3.8-4.5,8.8-7.1,13.5-10.1c10.3-6.5,20.4-13.3,30.1-20.6c0.4-0.3,0.8-0.6,1.2-0.9c0.8-0.4,1.6-1.6,2.5-0.4
	c0.7,1-0.4,1.6-1,2.1c-3.4,2.9-6.6,6.1-10.4,8.5c-11.1,7-22.5,13.7-33.8,20.5C923.6,71.9,922.9,72.2,922.1,72.4z"/>
<path d="M975.3,74.1c3-3.5,6.8-5.8,10.6-7.8c7.2-3.9,14.1-8.3,20.8-13c0.9-0.7,2.2-2.1,3.2-0.9c1.2,1.4-0.6,2.5-1.5,3.2
	c-7.3,5.6-15.5,9.7-23.6,13.9C981.5,71,978.4,72.5,975.3,74.1z"/>
<path d="M1052.3,47c2.1,9.2,5,18.2,8.9,26.8c0.9,2,1.7,3.5-0.2,5.5c-1.2,1.3-1.5,3.3-2.4,5c-0.6,1.2-1.3,2.5-2.9,2.6
	c-0.5,0.1-0.9,0-1.3-0.3c-0.5-0.4-0.2-1,0.2-1.3c2.4-2,1.8-5.8,4.6-7.7c1-0.7,1-2.3,0.5-3.5c-2.9-6.7-5.4-13.6-7.3-20.6
	C1051.7,51.4,1051.7,49.1,1052.3,47z"/>
<path d="M957.5,103.6c4.5-2.7,9-5.4,13.6-8c1.3-0.8,2.6-1.4,3.9-2.1c0.8-0.5,1.5-1.6,2.5-0.4s-0.3,2.1-1.1,2.6
	c-5.7,3.6-11.8,6.6-18.2,8.8L957.5,103.6z"/>
<path d="M1008.8,124.3c2.5-1.4,5-2.9,7.6-4.2c2.8-1.5,5.8-2.9,8.6-4.3c0.8-0.4,1.7-0.9,2.3,0.1c0.6,1,0,1.6-0.7,2.3
	c-2.8,2.6-6.6,3.4-10,4.7c-2.4,0.9-4.6,2.5-7.3,2.5L1008.8,124.3z"/>
<path d="M971.9,109.3c2.3-3.4,6.1-4.8,9.4-6.7c1.6-0.9,3.5-1.3,4.8-2.7c0.9-0.9,2.3-1.7,3.2-0.4c1,1.5-0.6,2-1.6,2.7
	C982.9,105.4,977.4,107.3,971.9,109.3z"/>
<path d="M998.5,120.2c3.8-3.9,8.7-6.1,13.4-8.5c0.6-0.4,1.4-0.3,1.8,0.3c0,0.1,0.1,0.1,0.1,0.2c0.7,1.2-0.1,1.9-0.9,2.4
	C1008.4,117.4,1003.3,118.3,998.5,120.2z"/>
<path d="M979.6,112.6c1.6-2.2,4.1-3.1,6.3-4.3c2.4-1.3,4.9-2.2,7.1-4c0.5-0.6,1.4-0.6,2-0.1c0.1,0.1,0.2,0.2,0.2,0.3
	c0.6,0.9,0.3,1.5-0.5,2.2C990.4,110.5,984.9,111.3,979.6,112.6z"/>
<path d="M1031.3,59.6c-4,2.9-8.3,5.5-12.8,7.6c-0.6,0.3-1.2,0.5-1.7,0s-0.1-1.2,0.3-1.5c3.5-2.8,7.2-5.2,11.1-7.4
	C1029.1,57.8,1030.3,58.4,1031.3,59.6z"/>
<path d="M990.2,114.9c3-4.3,7.9-5.6,12-8.1c0.8-0.5,1.7,0,2.2,0.8c0.8,1.3-0.4,1.5-1,1.9C999.3,111.8,994.8,113.6,990.2,114.9z"/>
<path d="M1068,60c-2.2-3.1-4-6.2-4.6-9.9c-0.1-0.8-0.3-1.9,0.9-2c1.2-0.1,0.8,1,1,1.8C1066.1,53.3,1067.1,56.7,1068,60z"/>
<path d="M1060.8,63.9c-1.8-4-3.8-8-4.8-12.4c-0.2-1.1-0.6-2.2,0.3-3.2c0.3-0.1,0.7-0.1,1,0.1c1.1,0.9,0.1,1.8,0.1,2.7
	c0,2.7,1.2,5.1,2.2,7.4C1060.5,60.2,1060.9,62.1,1060.8,63.9z"/>
<path d="M1073.3,56.8c-3.7-2.3-4.1-5.4-4.7-8.5c0-0.5,0.3-0.9,0.7-1.1c0.8-0.3,1.1,0.3,1.2,1C1070.7,51,1072.1,53.4,1073.3,56.8z"/>
<path d="M1319.2,48.9c1,2,1.3,4.3,0.8,6.5c-0.5,1.8-0.6,3.9,1.4,4.3c2.4,0.4,1.9-2.1,2.2-3.5c0.3-1.8-0.2-4.1,2.7-4.8
	c0,2.9-1.1,5.3-1.6,7.8c-0.6,2.5-1.2,4.9,0.8,7c0.9,0.9,1.8,1.4,3,0.9s1.2-1.5,0.9-2.5s-0.2-2,0.4-2.8c0.3-0.5,1-0.7,1.5-0.5
	c0.8,0.3,0.5,0.8,0.4,1.5c-0.5,2.8-1.8,5.4-0.9,8.3c0.4,1.4,1,2.8,2.4,3c1.8,0.3,1.7-1.2,2-2.5c0.1-0.8,0.8-1.4,1.6-1.3
	c0.1,0,0.2,0,0.3,0.1c0.8,0.3,1.1,1.2,0.8,2c0,0.1-0.1,0.2-0.1,0.2c-1,1.6-1.5,3.5-1.3,5.3c0.1,1.6,0.8,3,2.4,3.4
	c2,0.5,2.2-0.8,2.1-2.4c0.1-0.7,0.7-1.1,1.4-1c0.7,0.1,1.1,0.7,1,1.4c0,0.1-0.1,0.3-0.1,0.4c-2.5,6,1.3,9.9,4.5,14.3
	c5.6,7.7,9.8,16.3,13.8,25c4.2,8.8,7.6,18,10.2,27.4c1.3,4.5,2.4,9.1,3.2,13.8c-1.8-2-2.2-4.6-3-7c-5.8-18.3-13.7-35.9-23.4-52.5
	c-2-3.4-4.9-6.4-7.2-9.6c-2.3-3.2-4.6-6.5-6.9-9.8c-4.5-6.4-10.4-11.5-15.1-17.7c-4.3-5.4-8.3-11.1-11.9-16.9
	c-2.3-3.8-4.9-7.2-5.3-11.8c-0.2-2.3,0.1-4.8-0.7-7.1c-0.4-1.3,0.5-2.6,2-3.1c1.7-0.5,3.7-1.2,5,0.1c1.5,1.5,3.3,3.1,2.7,6
	c-0.5,3.7-0.7,7.4-0.6,11.1c0,2.6-1.1,6,3.5,6.3c1.3,0.1,0.4,1.5,0.7,2.2c0.6,1.5,0.1,4,2.4,4c2.2,0,1.1-2.4,1.7-3.6
	C1319,50.1,1319.1,49.5,1319.2,48.9z M1309.5,35.1c0.2-2.3,0.4-3.6,0.4-4.9c0-0.8-0.1-1.9-1.2-2c-0.9,0-1,1-1.1,1.6
	c-0.3,1.5-0.4,2.9-0.4,4.4c0.2,1.8-1.5,5,0.8,5.1C1310.7,39.5,1309.2,36,1309.5,35.1L1309.5,35.1z M1306,26.8c0,2-3.2,3.2-0.9,6
	C1305.6,30.6,1306.9,28.9,1306,26.8L1306,26.8z"/>
<path d="M866.8,102.9c2.7-1.5,5.9-1.6,8.7-0.4c9.6,3.9,20,4.4,29.9,7.5c6.6,2.1,13.4,3.8,20,5.7c0.8,0.3,1.5,0.8,2.2,1.4
	c1,0.9,2.4,2.3,1.6,3.3c-1.1,1.5-2.6,0.5-3.8-0.6c-1.2-1.1-2.9-1.4-4.4-1.9c-13-4.2-26.3-7.1-39.6-10
	C876.6,106.8,872.1,104.7,866.8,102.9z"/>
<path d="M1106,164.9c-1.9,2.2-4.1,2.4-5.7,3.4c-8.1,5.3-15.9,10.9-22.8,17.7c-0.8,0.9-2.1,1.3-3.3,0.9c-0.8-0.2-1.5-0.5-1.6-1.3
	c-0.1-1.4,1.2-1.8,2.1-2.4c7.2-4.8,13.9-10.4,21.3-14.9C1099,166.5,1102.1,165.8,1106,164.9z"/>
<path d="M1242.7,407.4c6.5-8,13.8-15.5,21.5-22.3c1-0.9,2.4-2,3.6-0.5c1.4,1.7-0.7,2.3-1.5,3c-6.8,6.3-13.7,12.5-20.6,18.7
	C1244.9,407.1,1244.3,408.3,1242.7,407.4z"/>
<path d="M1058.4,153.9c6.5-5.5,14.5-8.6,21.5-13.2c2.7-1.8,5.5-3.3,8.3-5c1.8-1.1,3.6-1.6,5.7-0.1
	C1082.5,142.5,1070.7,148.6,1058.4,153.9z"/>
<path d="M1034.4,394.9c-0.6,0.8-1.3,1.6-2,2.3c-6,4.6-12.1,9.1-18.1,13.7c-0.6,0.5-1.3,1.5-2.2,0.6s0-1.8,0.6-2.3
	c6-5.2,12-10.3,18.2-15.3C1032,392.9,1033.4,393.4,1034.4,394.9z"/>
<path d="M1095.4,405.2c6.3-5.2,12.8-10,19.6-14.5c0.7-0.4,1.4-0.5,2.2-0.3c1.1,0.2,2.1,1,0.7,2c-6.7,4.9-13.7,9.4-21,13.4
	C1096.6,405.9,1096.2,405.5,1095.4,405.2z"/>
<path d="M1082.4,152.8c-5.6,2-9.5,6-14,8.9c-1.6,1-3.2,2-4.8,2.8c-0.9,0.5-2.1,0.1-2.5-0.8v-0.1c-0.4-0.6-0.2-1.5,0.4-1.9l0,0
	c0,0,0.1,0,0.1-0.1c6-3.4,11.9-7.2,18.3-9.8C1080.4,151.7,1081.4,151.7,1082.4,152.8z"/>
<path d="M1087,164.5c0.1,0.8-0.4,1.5-1.1,1.6h-0.1c-5,1.3-8.4,5-12.4,7.8c-1.6,1.1-4,3.4-5.4,1.5c-1.3-1.7,2-2.4,3.3-3.5
	c4.2-3.5,8.5-6.7,14.1-7.7C1085.9,164.2,1086.4,163.9,1087,164.5z"/>
<path d="M1220.5,396.3c-2.9,5.2-8.7,6.8-11.9,11.9C1208.3,403,1215,396.5,1220.5,396.3z"/>
<path d="M1233.4,408.1c-1.3-2.5,0.3-3.3,1-4.5c2-3.2,5.1-5.3,8.1-7.4c0.6-0.4,1.2-1.1,1.9-0.3c0.6,0.7,0.6,1.7,0,2.4
	c-0.1,0.2-0.3,0.4-0.5,0.5C1240.1,401.3,1236.2,403.7,1233.4,408.1z"/>
<path d="M1161.1,392.7c1,0.3,1.7,0.5,2,1.3s-0.4,1.1-0.9,1.5c-2.8,2.2-5.7,4.3-8.6,6.4c-0.5,0.4-1.1,0.7-1.6,0.1
	c-0.4-0.4-0.4-1,0-1.3l0,0c2.7-2.5,5.3-5.1,8-7.5C1160.2,392.7,1160.8,392.7,1161.1,392.7z"/>
<path d="M1219.8,408c-1.2-0.2-1.2-0.8-0.7-1.6c2.1-2.7,4.6-5.1,7.4-7.1c0.8-0.6,1.9-0.4,2.5,0.3c0,0.1,0.1,0.1,0.1,0.2
	c0.7,1,0.1,1.7-0.6,2.2c-2.5,1.8-5,3.6-7.5,5.4C1220.6,407.7,1220.2,407.9,1219.8,408z"/>
<path d="M1133.8,403.7c2.3-3.3,5.8-5.4,8.8-7.9c0.9-0.8,1.9,0.2,2.6,0.9c1.1,1-0.2,1.6-0.7,1.9c-3.3,2.1-6.6,4.1-9.9,6.1
	L1133.8,403.7z"/>
<path d="M1207.4,398.7c-0.7,1.8-2.3,3.2-4.1,3.7c-1.6,0.5-3.3,3.4-4.7,1.3c-1.1-1.6,2-2.2,2.9-3.5s2.3-2.3,3.8-2.7
	C1206.6,397.1,1207,397.8,1207.4,398.7z"/>
<path d="M1178,395.9c-0.3,1.7-6.2,6.7-7.5,6.6s-1.2-1.1-0.7-1.8c1.7-2.3,3.7-4.3,6.1-5.9C1177.1,394.1,1178,394.6,1178,395.9z"/>
<path d="M1187.8,396.5c0.6,0,1.2,0.4,1.4,1c0.4,0.7,0,1.2-0.5,1.6c-1.7,1.4-3.5,2.8-5.3,4.1c-0.5,0.4-1.1,0.7-1.7,0.1
	c-0.3-0.4-0.5-0.8-0.5-1.3C1181.3,400.9,1186.6,396.4,1187.8,396.5z"/>
<path d="M1315.4,34.9c-0.2,3.3,1.6,6.6-0.4,9.8C1314.6,41.5,1314.3,38.2,1315.4,34.9z"/>
<path d="M845,210.1l-19.3-17.6c-1-0.9-1.6-2.2-1.7-3.6c0-0.6,0.4-1.2,1-1.4c0.5-0.2,0.8,0.2,1.2,0.6c6,6.8,13.4,12.1,19.6,18.6
	c5.2,5.4,11.6,7.7,18.2,10c0.5,0.2,1,0.2,1.5,0.3c0.3-0.1,0.6-0.2,0.9-0.3c-4.5-4.6-9.6-8.3-14.3-12.4c-4.9-4.4-9.9-8.7-14.8-13.1
	c-1.1-1-2.5-2.4-1.1-3.8s2.5,0.2,3.6,1.3c7.6,7.9,16.2,14.7,24.2,22c6.4,5.9,13,11.4,21,15.2c3,1.4,6.4,1.9,9.8,4.6
	c-0.8-3.1-2.9-4-4.3-5.2c-7.8-6.5-15.6-13-23.1-19.9c-2.6-2.3-5-4.8-7.3-7.4c-0.9-1.1-1.7-2.6-0.7-3.5s1.6,0.8,2.5,1.5
	c8.9,8,17.9,15.8,26.7,23.8c6.3,5.7,12.5,11.6,18.7,17.4c2.7,2.5,6.1,3.9,9.1,5.8c2.4,1.5,4.6-0.5,6.3-2c0.9-0.8-0.8-1.8-1.5-2.5
	c-5.1-4.9-10.3-9.7-15.5-14.5c-8.7-8.1-17.5-16.1-26.9-23.4c-2.1-1.8-4-3.7-5.9-5.7c-0.8-0.8-1.8-1.7-0.8-2.9
	c1.1-1.3,2.5-0.5,3.2,0.4c4.3,5.4,10.3,8.8,15.1,13.7c2.1,2.2,3.8,6.5,8.3,3.5c0.6-0.4,1.1,0.6,1.6,1.2c3.6,4.2,7.5,8.1,11.8,11.6
	c5.6,4.5,10.5,9.8,14.3,15.9c0.3,0.9,1.4,1.4,2.3,1c0.1,0,0.1,0,0.2-0.1c2.2-0.8,4.4-1.7,6.5-2.8c1.9-1,0.3-1.8-0.4-2.5
	c-4.6-4.2-9.3-8.2-13.8-12.5c-6.9-6.5-14.7-11.8-21.8-18c-1.8-1.5-1.1-2.5-0.3-3.7c1.4-1.8,2,0,2.8,0.8c8.3,8.2,17.6,15.2,26.2,22.8
	c1.4-1.2-1.7-1.9,0.2-2.8c1.1-0.7,2.5-0.5,3.4,0.3c2.7,2.2,4.3,5.1,6,8c2.6,4.2,3.9,4.6,8.2,2.7c-7.2-7.2-13.2-15.4-21-21.9
	c-2.2-1.8-4.4-3.6-6.6-5.4c-0.6-0.6-1.2-1.2-1.7-1.9c-0.8-1-1.1-2.1,0-3c1.3-1.1,1.9,0.1,2.7,0.9c4.8,5.2,11.2,8.7,15.4,14.7
	c1.4,2,3.6,4.2,6.9,3.6c1.3-0.2,1.5,1.2,1.9,2c1,2.1,2.2,4.2,3.6,6.1c3.6,4.3,4.3,4.4,8.8,0.3c-6.5-5.6-12.3-11.8-19.3-16.7
	c-0.9-0.6-1.1-1.9-0.5-2.8l0.1-0.1c0.8-1.2,1.8-0.4,2.8,0.3c6.3,4.5,11,10.6,16.4,16c2,2,3.8,2.7,6.4,1.2c3.5-1.9,7.1-3.6,10.6-5.3
	c1.7-0.8,2.4-1.7,0.2-2.7c-3.7-1.7-6-5.2-9.6-7c-0.9-0.5-2-1.2-1.7-2.6c0.2-0.6,0.6-1,1.2-1.3c1.7-0.7,1.5,1.1,2.3,1.8
	c3.1,2.7,6.1,5.4,9.3,8c1.8,1.5,7.9,0.3,9.1-1.6c0.6-1-0.1-1.5-0.8-1.7c-2.2-0.8-3.5-3.2-6-3.6c-0.7-0.1-1.4-1-2-1.6
	c-0.5-0.5-0.5-1.3,0-1.8c0.1-0.1,0.1-0.1,0.2-0.2c0.7-0.6,1.2-0.3,1.8,0.3c2.6,2.1,5.5,3.8,8,6c2.9,2.6,5.4,0.8,7.8-0.5
	c1.4-0.7,0.5-1.4-0.7-1.9c-1.2-0.5-3.7-1-2.8-2.6s2.8-0.3,4,0.7c1.2,1,3.5,1.1,4.8,2.9c-9.7,6.2-19.9,10.8-29.9,16
	c-5,2.7-10,5.4-15,8.3c-0.7,0.4-1.5,0.7-2.3,0.9c-2.6,0.7-6.2,0-6.7,4.2c-0.1,0.6-0.8,0.5-1.2,0.3c-4.8-1.5-8.3,0.2-11.2,3.9
	c-0.5,0.6-1.1,1.1-1.9,0.8c-3.3-1.2-5.9,1.3-8.9,1.8c-2.1,0.3-0.5,1.9-0.7,2.8c-1.9-0.3-3.6-1.1-5.1-2.2
	c-14.4-9-29.1-17.4-44.7-24.1c-1.8-0.8-3.9-2.3-6.2-0.5c-1,0.7-2.1,0-3-0.8c-7.5-5.9-16.5-6.8-25.3-6.8c-4.2,0-8.9,1.1-12.4-0.6
	c-4-2-8.7-2.1-12.8-0.3c-8.9,4-18.3,3.2-27.4,4.3c-2.7,0.2-5.5,0.1-8.2-0.1c-0.6,0-1.3,0-1.6-0.7c-0.3-1,0.5-1.2,1.2-1.6
	c2-1.3,4.3-1,6.5-1.3c8.7-1.1,17.4-2.5,26.1-3.7c4-0.5,8.2,0.3,12.5-1.5c-1.6-1.5-3-2.9-4.5-4.1c-1-0.6-1.5-1.7-1.2-2.8
	c0.1-0.8,0.7-1.4,1.5-1.6c1.4-0.2,1.7,1,2.3,1.9c3.1,5,6.9,6.8,12.6,5.5c-3.6-2.5-7-5.3-10.2-8.3c-1.3-1.3-2.8-2.5-3.4-4.3
	c-0.2-0.7-1.8-1-0.5-2c0.7-0.6,1.8-0.6,2.4,0.1c0.1,0.1,0.1,0.2,0.2,0.3c3.6,4.4,8.1,7.9,12.3,11.7C835,209.4,838.3,210.8,845,210.1
	z"/>
<path d="M947.4,168.5l-5.2-0.4c-0.6,0-1.3-0.1-1.5-0.8c-0.2-0.7,0.3-1.1,0.9-1.4c1.5-0.6,2.9-1.4,4.6-1.2c18.1,2.1,35,7.9,51.3,15.9
	c4,2.1,7.8,4.8,11,7.9c0.8,0.8,2.4,1.7,1.1,3s-2-0.2-3-0.9c-5.5-3.9-11-8-17.4-10.4C975.6,175.2,962.1,169.7,947.4,168.5z"/>
<path d="M950.2,207.4c6.4,2.9,12.1,7.2,16.6,12.7C960.8,216.6,954.6,213.2,950.2,207.4z"/>
<path d="M783.7,448.3c0,2.7-1.4,4-3.1,4.2c-7.6,0.7-14.5,4-21.8,5.6c-4.7,1.1-9.6,1.4-14.4,0.8c-3.3-0.4-6.6-0.9-10-0.1
	c-2,0.5-4.1-0.1-5.5-1.5c-1.2-1.1-2.7-1.9-4.3-2.1c-21.9-4.7-36.6-18.5-48.2-36.7c-6.8-10.2-11.2-21.8-13-33.9
	c-0.2-1.2-0.5-2.3,0.8-2.8c1.5-0.6,1.5,1.1,1.8,1.8c2.8,6,3.8,12.5,6.3,18.6c4.5,10.9,11.1,20.8,19.4,29.3
	c5.1,5.2,11.4,9.3,17.6,13.2c7.7,4.8,16.3,6.8,25,8.9c13.4,3.3,26.4,1.3,39-3.3C776.8,448.8,780.6,451.7,783.7,448.3z"/>
<path d="M763.9,369.3c-4.4,3.8-10,3-15.3,4.6c3.5,1.6,7.1,0.1,10.5,1.2c-9.7,3.8-19.9,1.3-29.8,2.9c2.1-2.8,5.3-1.9,8.1-2.9
	c-2.5-0.8-5.1,0.7-7.4-1.2C741.3,372.7,752.5,370.2,763.9,369.3z"/>
<path d="M770.8,360.3c0.1,2.1-1.8,2.3-3.1,2.6c-6.2,1.5-12.7,2.1-19.1,1.7c-3-0.2-6.5,1.1-9.8,1.3c-8.3,0.4-16.6,1-25.3,0.3
	c1.3-2,3-1.5,4.2-1.5c17.5-0.4,34.9-2.3,52.3-4.2c0.2,0,0.5,0,0.8,0V360.3z"/>
<path d="M744.8,411.6c-0.2,1.6-2,1.4-1.6,3c2.7,0.4,5.5-0.9,8.5,0.3c-0.5,1.2-1.7,2-3.1,2.1c-5.5,0.1-10.9,1.2-16.3,1.8
	c-2.3,0.3-3.7-0.1-1.6-2.8c-3.1-0.2-5.8,0.5-8.5,0.9c-1,0.1-2.2,0.4-2.5-0.9c-0.3-1.2,1-1.7,1.9-1.8
	C729.1,412.9,736.7,411.3,744.8,411.6z"/>
<path d="M791.8,358.9c-2.9,1.7-5.2,0.4-7.1-0.7c-8.6-4.9-17-10.1-25.6-15.2c-1.1-0.7-2.4-1.5-1.6-2.8c1-1.7,2.3-0.4,3.5,0.2
	c8.4,4.4,15.9,10.1,23.9,15.1C787.1,356.7,789.3,357.6,791.8,358.9z"/>
<path d="M707.1,411.9c2.1-2.2,4-2,5.6-2c9.3-0.3,18.4-2.7,27.6-3.5c1-0.1,2.5-0.9,2.9,0.6c0.4,1.7-1.3,1.8-2.4,2.1
	C729.8,411.6,718.5,412.5,707.1,411.9z"/>
<path d="M786.5,342.1c0.1,0.9,0.3,1.8,1.1,2.2c6.8,2.9,11,9.6,17.6,12.7c0.5,0.3,1.6,0.7,1.1,1.6s-1.5,0.5-2.3,0
	c-2.9-1.5-5.6-3.1-8.2-5c-5.5-4-11-7.9-16.5-11.9c-0.8-0.6-2.6-1.2-1.4-2.8s2.5-0.3,3.5,0.5c1.6,1.2,2.9,2.7,5,2.9L786.5,342.1z"/>
<path d="M744,401.9c-0.4,1.7-2.2,1.9-3.7,2.1c-4.1,0.4-8.2,0.7-12.3,0.7c-4.6,0-9.2-0.2-13.7,0.5c-0.9,0.2-1.5,0-1.7-0.9
	c-0.3-1.2,0.5-1.6,1.4-1.6c8.3-0.6,16.6-1.3,24.9-1.8c1.2-0.1,2.5,0.3,3.7-0.2C743.3,400.4,744,400.5,744,401.9z"/>
<path d="M747.9,420.4c-0.8,0.1-1.7-0.1-1.6-1c0.1-0.9,1-1,1.7-1c9-0.6,18.1-1.2,27.1-1.8c0.5,0,0.9,0.1,1.3,0.4
	c0.4,0.6-0.1,1.1-0.5,1.6c-1,0.8-2.2,1.2-3.4,1.3C764.2,420.6,756,420.8,747.9,420.4z"/>
<path d="M715,399.4c-0.3,0-1.7-0.2-3-0.5c-0.8-0.2-2.1-0.2-1.8-1.3c0.2-1,1.3-0.9,2.2-0.8c6.5,0.7,12.9-0.3,19.3-0.7
	c1.6-0.1,3.2-0.4,4.8-0.5c0.7-0.1,1.6-0.1,1.8,0.8c0.2,0.9-0.7,1.2-1.3,1.6c-3.1,1.8-6.5,1.3-9.8,1.5
	C723.5,399.7,719.7,399.4,715,399.4z"/>
<path d="M767.9,388.6c1.5,0.3,2.4,1.2,1.5,2.6c-1.7,2.5-2.4,5.5-2,8.4c0.1,1.5-0.3,2.9-2,3.1c-1.7,0.2-1.5-1.6-1.9-2.7
	c-1.6-3.6-0.2-6.8,1.7-9.8C765.6,389.1,766.8,388.5,767.9,388.6z"/>
<path d="M1343,232.9c-1.5,4.5-4.1,8.2-6.3,12.2c-9.2,16.5-18.3,33-27.4,49.5c-5.7,10.3-10.6,21-16.4,31.2c-0.6,1-1,1.7-2.1,1.6
	c-0.5,0-0.9-0.3-1.2-0.7c-0.4-1.1,1-1.3,1.3-1.9c1.6-3.3,3.1-6.7,4.6-10c4.4-9.7,9.9-18.9,15.1-28.2c6.2-11,12.5-22,18.8-33
	c3.7-6.3,7.5-12.6,11.3-18.9C1341,233.7,1341.9,233,1343,232.9z"/>
<path d="M1264.3,319.7c-1-0.7-1.8-1.7-2.2-2.9c-6.9-16.3-15.2-32-24.6-47c-0.6-1-1.7-1.8-0.5-2.8s2.1,0.3,2.7,1.1
	c4.3,5.4,7.4,11.5,10.5,17.7c5.4,10.7,10.1,21.7,14,33c0,0.4,0,0.7-0.1,1.1L1264.3,319.7z"/>
<path d="M1325.6,243.3c-4.3,10.2-10.3,19.3-15.7,28.7c-3.5,6.1-7.1,12.2-10.8,18.2c-0.8,1.4-2.2,4-3.4,3.3c-1.8-1.1,0.4-3.1,1.2-4.3
	c9-14.7,18-29.3,27.2-43.9C1324.5,244.6,1325.1,244,1325.6,243.3z"/>
<path d="M1264.8,59.3c-0.2,21.9-4.5,43.2-9.6,64.4C1258.9,102.3,1263.3,81,1264.8,59.3z"/>
<path d="M1249.7,93.8c0.8-11.1,1.1-22.1,1.7-33.1c0.1-1.1,0-2.5,1.6-2.3c1.1,0.1,0.9,1.3,0.7,2.1c-2.1,10.7-1.5,21.6-3.8,32.3
	C1249.9,93.1,1249.8,93.5,1249.7,93.8z"/>
<path d="M1304.1,122.8c-0.6-9,0.6-17.8,1.4-26.6C1305.8,105.1,1306,114,1304.1,122.8z"/>
<path d="M1315.3,102.3l-1.4,16.1l-0.9-0.1c0.7-5.4-1-10.9,1.2-16.2L1315.3,102.3z"/>
<path d="M1345.1,179.6l1.3-15.6C1348,169.4,1345.8,174.5,1345.1,179.6z"/>
<path d="M1424.2,285.5c8.8-2.2,16.9-4.3,25.1-6.2c5.1-1,10.1-2.5,15-4.5c1-0.5,2.8-0.1,2.9-1.7c0.1-1.2-1.4-1.7-2.2-2.4
	c-1-1-2.2-0.3-3.4,0.2c-8.7,2.8-17.7,4.6-26.8,5.2c8.7-2.8,17.2-6,26.6-7.4c-2.1-3.1-4.1-4-7.6-3.6c-8.2,0.8-16.2,2.5-24.3,3.2
	c-0.5,0-1-0.3-1.4-0.7c7-2.7,14.4-3.6,21.9-5.5c-1.9-2.5-4.8-3.5-6.9-5.5c-0.5-0.5-1.3,0-2.1,0.3c-5.4,2.2-11.2,2.1-16.9,3.1
	c3.7-4,8.9-3.8,14.4-5.3c-4-2.7-7.6-4.1-11.2-5.7c-1.9-0.9-4-1.5-5.8-2.5c-1.3-0.7-2.6-2.1-1.8-3.6c0.8-1.5,2.1-0.4,3.3,0.1
	c14.4,7.1,29.5,13.1,42.5,22.8c2.7,1.9,4.7,4.6,5.7,7.8c2,5.9-1.6,4.3-4,4.8c-12.5,2.7-25,5.3-37.5,7.8
	C1428.3,286.5,1426.7,287.3,1424.2,285.5z"/>
<path d="M1442.3,302.7c-3.6,3.2-7.5,3.5-11.2,4.3c-11.8,2.5-24,2-36,2.5c-9.4,0.4-18.4,2.7-27.7,3.1c-5.9,0.3-11.8,1.7-17.8,0.8
	c-1.2-0.2-2.9-0.2-2.8-1.7c0.1-1.6,1.7-1.6,2.9-1.6c18.5-0.3,36.6-4.8,55.1-4.8c11.6-0.1,23.3-1,34.8-2.8
	C1440.4,302.5,1441.4,302.5,1442.3,302.7z"/>
<path d="M1401.4,425.7c-0.3-5.7-0.6-11.5,1.9-16.8c1-2.3,3.6-3.1,5.7-3.8c7.5-2.6,15-3,22.3,0.8c1.2,0.4,2,1.5,2.2,2.8
	c0.7,6.8-0.9,12.7-6.5,17.3c-5.6,4.6-11.7,5.4-18.3,2.4C1406.4,427.3,1404.2,425.5,1401.4,425.7L1401.4,425.7z M1430.3,413.3
	c0.6-2.8-0.6-4.8-3.4-5.5c-5.2-1.2-10.7-1-15.7,0.8c-5.4,1.9-6.9,4.7-6.1,10.5c0.3,1.9,0.6,3.8,2.3,4.9
	C1418,430.6,1429.8,421.2,1430.3,413.3z"/>
<path d="M1368.4,426c-1.3,1-2,0.3-2.7-0.4c-10.7-9.8-20.3-20.4-25.9-34c-2.9-6.6-4.7-13.6-5.5-20.7c-0.3-3.2-0.5-6.2,1.8-9.2
	s4.9-3.6,8.1-3.4c-5.4,4.3-8,9.2-6.9,16.8c2.6,16.5,11.3,29.4,22.2,41.3C1362.3,419.6,1365.4,422.8,1368.4,426z"/>
<path d="M1354.7,369.1c1-9.9,13.3-23,22.3-24.4c2.1-0.3,2.5,0.9,2.2,2.4c-1,4.8-1.6,9.7-3.5,14.3c-0.3,0.8-0.3,2.3-1.7,1.9
	c-1.4-0.4-0.8-1.7-0.7-2.6c0.4-2.7,1-5.3,1.5-8c0.2-0.9,1.4-1.9,0.1-2.6c-0.9-0.5-1.8,0.4-2.7,0.9c-8.1,4.2-11.8,11.7-14.6,19.8
	c-0.4,1.1,0.6,3.4-1.6,3c-1.7-0.3-1.2-2.4-1.2-3.8C1354.7,369.7,1354.7,369.4,1354.7,369.1z"/>
<path d="M1401.4,425.7c-4.3,1.9-8.1-0.6-11.7-1.9c-10.9-4-20.4-10.1-27.2-19.9c-0.6-0.9-1.5-1.7-0.8-3c0.2-0.4,0.7-0.7,1.2-0.6
	c1.5,0.2,1.4,1.2,1.5,2.4c0.1,1.5,1.4,2.5,2.6,3.5c9,8,19,14.4,30.7,17.7C1399,424.4,1400.2,425,1401.4,425.7L1401.4,425.7z"/>
<path d="M1373.8,383c0.4-1.4,0.5-3.4,2.5-3.5c2.2-0.2,1.4,2.1,2.1,3.2c2.9,4.2,6,8.1,9.1,12.1c0.6,0.7,1.9,1.1,1.5,2.3
	c-0.4,1.1-1.4,1.8-2.5,2c-1.2,0.2-2.4,0-2.7-1.4c-0.4-1.9-3.8-2.6-2.2-5.3c-0.7-0.3-1.4-0.5-2-0.8
	C1376.3,390,1373.4,385.9,1373.8,383z"/>
<path d="M1452.4,389.8c-0.3,6.9-4.6,10.8-10.4,10.3c-0.7-0.1-1.7,0.2-1.9-0.7c-0.3-1.2,0.7-1.3,1.6-1.5c5-1,6.8-4.9,7.9-9.2
	c0.3-1.1-0.2-3.1,1.3-3c1.7,0.1,1.5,2.2,1.6,3.6C1452.4,389.7,1452.3,390.2,1452.4,389.8z"/>
<path d="M1440,327.3c1.5,0.3,2.5,0.5,3.5,0.6c1.2,0.1,2.2,1.1,2.1,2.4l0,0c0,0.1,0,0.1,0,0.2c-0.2,1.4-1.6,1.3-2.7,1.1
	c-5.3-0.9-10.7-2.5-16,0c-0.4,0.2-0.9,0-1.1-0.4c0-0.1-0.1-0.2-0.1-0.2c-0.2-0.6,0.1-1.3,0.7-1.6c1.5-1.1,3.3-1.7,5.2-1.9
	C1434.5,327.4,1437.5,327.4,1440,327.3z"/>
<path d="M1459.4,365.5l-5.8-17C1457.9,350.6,1460.7,358.8,1459.4,365.5z"/>
<path d="M1104.2,275.6c0.5,2.2,2.2,2.9,3.8,3.7c2,1,3.5,2.8,4.3,4.9c0.6,2.2,2.2,3.9,4.4,4.7c1.8,0.6,2.5,2.2,3,4c0.3,1,0.1,1.9-1,2
	c-3.9,0.4-7.7,2-11.8,0.9c-1.4-0.2-2.5-1.1-3-2.5C1102.1,287.4,1103.6,281.6,1104.2,275.6z M1113.9,292.7c-2.1-1.1-3.7-2.9-4.5-5.2
	c-0.2-0.6-0.8-1.1-1.5-1c-0.8,0.2-0.6,0.9-0.7,1.5C1106.8,292.2,1108.1,293.3,1113.9,292.7L1113.9,292.7z"/>
<path d="M1047.9-291.9c1.7-1.6,3.5-1.4,5.1-1c4.3,1,8.3-0.1,12.4-1s6.1,1.1,5.5,5.2c-0.4,2.1-0.3,4.2,0.3,6.2c0.3,0.9,0.3,1.9-0.9,2
	c-1.4,0.2-1.2-0.9-1.2-1.8c0-2.1-0.9-4.1-0.4-6.3c0.5-2.2-0.3-2.7-2.4-1.8c-5.8,2.8-8.7,7.5-8.6,13.9c0.1,3.9,0,7.8,0,12.6
	c-2.3-2.3-3.4-4-3.1-6.4c0.2-1.4,0.1-2.7,0.2-4.1c0.1-3.2,1.5-7-4.7-7.2c3-2.6,5.3-4.6,7.5-6.7c0.7-0.6,2-1.1,1.4-2.3
	c-0.4-0.9-1.5-0.8-2.3-0.7C1053.8-290.5,1051.1-291,1047.9-291.9z"/>
<path d="M1072.1-230.8c-1.6-5.6-0.4-8,4.6-10.2c1.7-0.7,1.9-2.1,1.6-3.7c-1-6.4-1.8-12.8-2.8-19.1c-0.1-0.9-1-2.1,0.7-2.2
	c1.4-0.1,1.6,1.1,1.7,2c0.3,7.1,2.6,13.9,2.8,21c0.1,1.8-0.3,3-1.8,3.6C1075.3-237.7,1072.8-235.1,1072.1-230.8z"/>
<path d="M1061.8-271.5c-1.1-2.7-0.7-4.9-0.6-7c0.1-1-0.3-2.3,0.9-3c0.7-0.4,1.2,0.3,1.3,0.9c0.2,1.2,2.4,2.3,0.3,3.7
	C1062.1-275.7,1063.1-273.6,1061.8-271.5z"/>
<path d="M1046.4-218.7l-10.4-22l1-0.5c5.3,6.5,7.1,14.6,10.5,22L1046.4-218.7z"/>
<path d="M911.6,379.8c-1.6,8.1-5.8,15.2-9.6,22.4c-1.6,3.1-2.5,6.6-5.5,9.7c-0.7-2.7,0.2-4.3,1-5.9c3.9-7.4,7-15.1,10.3-22.7
	c0.8-1.8,1.6-3.4,3.9-3.4L911.6,379.8z"/>
<path d="M1023.9,251.5c-2,7.4-3.9,14.7-5.9,22c-1.6,6.1-3.2,12.2-4.9,18.3c-0.3,1,0.3,3.1-1.5,2.8c-1.8-0.3-0.6-2-0.4-3.1
	c2.3-12.3,6.1-24.3,9-36.5c0.3-1.3,0.5-2.7,0.9-4c0.3-1,0.8-2,2-1.7C1024.1,249.6,1023.9,250.7,1023.9,251.5z"/>
<path d="M1002.8,295.6c-1-3.8,0.6-6.9,1.3-9.9c2.4-9.9,5.1-19.7,7.7-29.5c0.3-1,0.2-2.7,1.8-2.2c1.3,0.3,1.1,1.8,0.8,2.9
	c-2.7,10.4-5.3,20.9-8.8,31.1C1004.8,290.4,1005.2,293.2,1002.8,295.6z"/>
<path d="M1255.3,354.9c-1.9,0.8-3.4-0.1-4.9-0.3c-9.6-1.5-19.1-3.1-28.7-4.7c-1.3-0.2-2.7-0.5-2.5-2.1c0.2-1.9,1.8-1.3,2.9-1.2
	c3.9,0.2,7.5,1.5,11.3,2.4c6.4,1.5,12.8,2.9,19.2,4.4C1253.8,353.5,1254.7,354.1,1255.3,354.9z"/>
<path d="M1195.1,345.4c-0.4,0.8-1.3,1.2-2.2,0.8c-0.1-0.1-0.2-0.1-0.3-0.2c-2.4-1.3-4.5-3.2-6.1-5.3c-0.6-0.7-0.7-1.7,0.4-2.2
	C1187.9,338,1195.2,344.3,1195.1,345.4z"/>
<path d="M1231.3-30.2c0.6-2,2.2-3.5,4.2-3.9c0.6-0.2,1.3,0.1,1.6,0.6c0.3,0.8-0.4,1.1-1,1.3C1234.6-31.5,1233.1-30.9,1231.3-30.2z"
	/>
<path d="M1228.1,5c-4.6-0.1-6.9-3.5-10.3-4.5c-0.6-0.3-0.8-0.9-0.5-1.5c0.1-0.1,0.2-0.3,0.3-0.4c0.6-0.7,1.7-0.7,2.3,0l0,0l0,0
	C1222.4,0.6,1225.4,1.8,1228.1,5z"/>
<path d="M918.7,370.7l-21.6-11.9l0.5-1c8.5,1.5,14.8,7.3,21.8,11.5L918.7,370.7z"/>
<path d="M790.5,114.7l-7.3-15C787.2,102.4,790.8,109.3,790.5,114.7z"/>
<path d="M790,126.5c-3.7-4.2-5.6-9.3-7.5-14.4C786.5,116.2,787.8,121.6,790,126.5z"/>
<path d="M1210.6-58.9c0.3,3.7-3,6-4,9.3c-0.5,1.7-2.3-1-3.8-0.4c-0.6,0.3-1.2-0.7-0.9-1.2c1.5-2.4,1.8-5.6,4.4-7.4
	c1.7,1.3-0.4,2.6,0.6,4C1208.5-55.7,1208.2-58.7,1210.6-58.9L1210.6-58.9z"/>
<path d="M1230.8,62.7c-1.2-0.2-1.2-0.9-1.1-1.7c0.3-1.5,0.6-3,2.7-2.7c0.9,0.1,1.8,0.4,1.7,1.5C1233.9,61.8,1231.9,61.7,1230.8,62.7
	z"/>
<path d="M759.9,63c-1.1,0.3-2.3,0.7-3.4,1.2c0.4,0.3,0.9,0.5,1.3,0.7c0.3,0,0.5,0,0.8,0c0.4-0.5,0.9-1,1.3-1.5
	C759.9,63.2,759.9,63.1,759.9,63z"/>
<path d="M783,63.1c0,0.1,0,0.3,0,0.4c2-0.2,4-0.5,6-0.8c-0.1-0.2-0.2-0.4-0.3-0.6C786.8,62.3,784.9,62.6,783,63.1z"/>
<path d="M716.1-278.6c0.9,0.9,1.4,2.2,1.3,3.4v15.2c0,2.7-2.2,4.8-4.9,4.8c-1.2,0-2.4-0.5-3.3-1.3c-0.9-0.9-1.4-2.1-1.4-3.4v-11.5
	h-54.9v11.5c0,2.7-2.2,4.8-4.9,4.8c-1.2,0-2.4-0.5-3.3-1.3c-0.9-0.9-1.4-2.1-1.4-3.4V-275c0-1.3,0.5-2.5,1.4-3.4s2.1-1.4,3.4-1.3
	h2.7l25.1-59.9c0.6-1.9,2.5-3.2,4.5-3.2c2.1-0.1,3.9,1.2,4.5,3.2l25.1,59.9h2.6C713.9-280,715.1-279.5,716.1-278.6z M660.6-280h40.3
	l-20.3-49.4L660.6-280z"/>
<path d="M743-275.3c-5.4-3-9.9-7.6-12.9-13c-3.1-5.8-4.7-12.4-4.6-19c-0.1-6.6,1.5-13.1,4.6-19c3-5.5,7.4-10,12.9-13
	c11.8-6.2,25.9-6.2,37.7,0c5.4,3,9.9,7.5,12.9,13c3.1,5.8,4.7,12.3,4.6,19c0.1,6.6-1.5,13.2-4.6,19c-3,5.5-7.4,10-12.9,13
	C768.9-269.1,754.8-269.1,743-275.3z M775.9-282.9c4.1-2.4,7.5-5.9,9.7-10.1c4.6-9,4.6-19.6,0-28.6c-2.2-4.2-5.6-7.7-9.7-10.1
	c-8.7-4.9-19.4-4.9-28.1,0c-4.1,2.4-7.4,5.9-9.7,10.1c-4.6,9-4.6,19.6,0,28.6c2.2,4.2,5.6,7.7,9.7,10.1
	C756.6-278,767.2-278,775.9-282.9L775.9-282.9z"/>
<path d="M716.8,16.8c0.6,0.9,1,2,1,3.1c0,1.2-0.4,2.3-1.2,3.2c-0.8,0.9-2,1.4-3.2,1.4c-1.4,0-2.8-0.6-3.7-1.7L689.9-4.8l-21.1,27.9
	c-0.9,0.9-2.1,1.4-3.3,1.4c-1.2,0.1-2.3-0.4-3.2-1.3c-0.8-0.9-1.2-2-1.1-3.1c0-1.2,0.4-2.4,1.1-3.3l21.3-28.4l-20.1-27.9
	c-0.6-0.8-0.9-1.8-0.9-2.8c0-1.2,0.4-2.4,1.2-3.3c0.8-0.9,2-1.4,3.2-1.4c1.3-0.1,2.6,0.4,3.4,1.4l19.7,27.2l20.5-27.3
	c0.9-0.9,2.1-1.4,3.4-1.4c1.2-0.1,2.3,0.4,3.1,1.3c0.8,0.9,1.2,2,1.1,3.1c0,1.1-0.4,2.2-1,3.1l-20.9,27.8L716.8,16.8z"/>
<path d="M732.8,23.1c-0.9-0.9-1.4-2.1-1.4-3.4v-62c0-1.3,0.5-2.5,1.4-3.4s2.1-1.4,3.4-1.3H758c3.8-0.1,7.5,0.8,10.9,2.4
	c6.3,3.1,10.3,9.6,10.2,16.6c0,2.9-0.8,5.7-2.4,8.1c-1.7,2.4-4,4.4-6.6,5.8c8.1,1.5,13.8,8.8,13.4,17c0.1,3.9-1,7.8-3,11.2
	c-2,3.3-4.9,6-8.3,7.7c-3.8,1.9-7.9,2.8-12.1,2.7h-23.8C734.9,24.5,733.7,24,732.8,23.1z M758-17.7c3.1,0.2,6.2-0.8,8.7-2.7
	c2.2-1.8,3.2-4.3,3.3-7.7c0-3.4-1.1-5.9-3.3-7.6c-2.5-1.8-5.6-2.8-8.7-2.6h-17.1v20.6L758-17.7z M760,15.7c4.3,0,7.7-1.1,10.3-3.3
	s3.9-5.4,3.9-9.5c0-3.8-1.3-6.7-3.9-8.7c-2.6-2-6.1-3-10.4-3h-19v24.5H760z"/>
<path d="M940.1-261.1c-18.1-37-45.5-68.8-79.4-92.2c-51.2-34.9-113.9-48.4-174.9-37.9c-2.5,0.4-5,0.9-7.5,1.5s-5,1-7.4,1.6
	c-4.9,1.3-9.9,2.5-14.7,4.1c-29.1,9.1-56.2,23.9-79.6,43.4l-2.9,2.4l-1.5,1.2l-1.4,1.3l-5.6,5.1l-1.4,1.3l-1.3,1.3l-2.7,2.7
	c-1.8,1.8-3.6,3.5-5.3,5.5l-5.1,5.6c-0.9,0.9-1.7,1.9-2.5,2.9l-2.4,2.9c-3.3,3.8-6.2,8-9.2,12c-5.9,8.2-11.2,16.9-15.9,25.8
	c-2.5,4.4-4.5,9-6.7,13.6c-0.6,1.1-1,2.3-1.5,3.5l-1.4,3.5c-0.9,2.3-2,4.6-2.8,7l-2.5,7.1l-0.6,1.8l-0.5,1.8l-1.1,3.6l-1.1,3.6
	c-0.4,1.2-0.7,2.4-1,3.6l-1.8,7.3c-0.7,2.4-1.1,4.9-1.6,7.4s-1,4.9-1.4,7.4l-1,7.5l-0.5,3.7l-0.3,3.8l-0.7,7.5
	c-0.2,2.5-0.2,5-0.4,7.5c-0.3,5-0.1,10.1-0.1,15.1c0,0.6,0,1.3,0,1.9l0.1,1.9l0.2,3.8l0.2,3.8l0.1,1.9c0.1,0.6,0.1,1.3,0.2,1.9
	c0.6,5,1,10,1.9,15c1.5,9.9,3.6,19.8,6.4,29.5c1.5,4.8,2.8,9.7,4.6,14.4c0.9,2.4,1.6,4.8,2.6,7.1l2.9,7
	C535.7-9.6,580.6,35.4,637,59.8c1.2,0.6,2.3,1,3.5,1.5l3.6,1.4l3.6,1.4l1.8,0.7l1.8,0.6l7.3,2.5l1.8,0.6c0.6,0.2,1.2,0.4,1.8,0.5
	l3.7,1.1l3.7,1.1c1.2,0.3,2.5,0.7,3.7,1l7.5,1.8c1.3,0.3,2.5,0.6,3.8,0.9l3.8,0.7L696,77l-0.1,1.1c-10.3-0.9-20.6-2.5-30.7-4.8
	c-5.1-1-10.1-2.5-15.1-3.9l-1.9-0.5l-1.9-0.6l-3.7-1.2l-3.7-1.2c-1.2-0.4-2.5-0.8-3.7-1.3c-19.6-7.3-38.1-17.2-55.1-29.5
	c-8.5-6.1-16.6-12.8-24.3-20c-3.7-3.7-7.6-7.3-11.1-11.2L542,1l-1.3-1.4l-1.3-1.5l-5.1-6c-6.6-8.2-12.7-16.8-18.2-25.7
	c-2.9-4.4-5.3-9.1-7.9-13.7c-0.7-1.1-1.2-2.3-1.8-3.5l-1.7-3.5c-1.1-2.4-2.4-4.7-3.4-7.1c-17.3-38.8-23.8-81.5-18.8-123.6
	c2.4-20.9,7.5-41.5,15.2-61.1c0.9-2.5,2-4.9,3-7.3l1.6-3.6c0.5-1.2,1-2.4,1.6-3.6c2.3-4.7,4.5-9.5,7.2-14
	c5.1-9.2,10.7-18.1,16.9-26.5c3.2-4.2,6.3-8.4,9.7-12.4l2.5-3c0.8-1,1.7-2,2.6-3l5.3-5.8c1.7-2,3.7-3.7,5.5-5.6l2.8-2.8l1.4-1.4
	l1.5-1.3l5.9-5.2l1.5-1.3l1.5-1.2l3.1-2.5c24.4-19.8,52.5-34.7,82.7-43.7c5-1.6,10.1-2.7,15.1-4.1c2.5-0.6,5.1-1.1,7.7-1.6
	c2.6-0.5,5.1-1.1,7.7-1.4c20.6-3.4,41.6-4,62.4-1.9c10.4,1,20.7,2.6,30.8,5c71.9,16.7,132.1,65.7,163.2,132.7L940.1-261.1z"/>
<g class="st0">
	<path class="st1" d="M694-164.3c7.6,4.3,13.5,10.3,17.8,17.8c4.3,7.6,6.5,15.9,6.5,25.1c0,9.2-2.2,17.6-6.5,25.1
		c-4.3,7.6-10.3,13.5-17.8,17.8c-7.6,4.3-15.9,6.5-25.1,6.5c-9.2,0-17.6-2.2-25.1-6.5c-7.6-4.3-13.5-10.2-17.8-17.8
		c-4.3-7.5-6.4-15.9-6.4-25.2c0-2.8,0.9-5.2,2.7-7.1c1.8-1.9,4.1-2.8,7-2.8c2.8,0,5.2,0.9,7.2,2.8c1.9,1.9,2.9,4.2,2.9,7.1
		c0,5.6,1.3,10.6,3.9,15.1c2.6,4.5,6.1,8.1,10.6,10.7c4.5,2.6,9.5,3.9,15,3.9c5.6,0,10.6-1.3,15.1-3.9c4.5-2.6,8.1-6.1,10.7-10.7
		c2.6-4.5,3.9-9.6,3.9-15.1c0-5.6-1.3-10.6-3.9-15.1c-2.6-4.5-6.1-8.1-10.7-10.7c-4.5-2.6-9.6-3.9-15.1-3.9h-32.4
		c-2.8,0-5.2-0.9-7-2.8c-1.8-1.9-2.7-4.2-2.7-7.1v-52.4c0-2.8,0.9-5.2,2.7-7.2c1.8-1.9,4.1-2.9,7-2.9h64.8c2.7,0,5,1,7,3
		c1.9,2,2.9,4.4,2.9,7.1c0,2.6-0.9,4.8-2.8,6.8c-1.9,1.9-4.2,2.9-7.1,2.9h-54.9v32.8h22.5C678.1-170.8,686.5-168.6,694-164.3z"/>
	<path class="st1" d="M759.8-137.3c-6.9-3.9-12.3-9.4-16.2-16.4c-3.9-7-5.8-14.9-5.8-23.9c0-8.8,1.9-16.7,5.8-23.7
		s9.3-12.4,16.2-16.4c6.9-3.9,14.8-5.9,23.6-5.9c8.9,0,16.8,2,23.8,5.9c6.9,3.9,12.3,9.4,16.2,16.4s5.8,14.9,5.8,23.7
		c0,10-2.5,18.8-7.4,26.6l-44,73.3c-2.3,3.6-5.3,5.4-8.9,5.4c-3,0-5.4-1-7.4-2.9c-1.9-1.9-2.9-4.3-2.9-7c0-1.9,0.5-3.7,1.6-5.2
		l26.6-44h-3.3C774.6-131.4,766.7-133.4,759.8-137.3z M764-198.2c-5,5.3-7.6,12.2-7.6,20.6c0,8.4,2.5,15.3,7.6,20.7
		c5,5.4,11.6,8.1,19.6,8.1c7.9,0,14.4-2.7,19.4-8.1c5-5.4,7.6-12.3,7.6-20.7c0-8.4-2.5-15.3-7.5-20.6c-5-5.3-11.5-8-19.5-8
		C775.5-206.1,769-203.5,764-198.2z"/>
</g>
</svg>
