<?xml version="1.0" encoding="utf-8"?>
<!-- Generator: Adobe Illustrator 19.0.0, SVG Export Plug-In . SVG Version: 6.00 Build 0)  -->
<svg version="1.1" xmlns="http://www.w3.org/2000/svg" xmlns:xlink="http://www.w3.org/1999/xlink" x="0px" y="0px"
	 viewBox="0 0 72.1 75.2" style="enable-background:new 0 0 72.1 75.2;" xml:space="preserve">
<style type="text/css">
	.st0{display:none;}
	.st1{fill:#FFFFFF;}
</style>
<g id="Layer_1" class="st0">
</g>
<g id="Layer_4">
	<g id="XMLID_3_">
		<g id="XMLID_6_">
			<path id="XMLID_10_" class="st1" d="M71.8,43.6C70.4,37.7,66.4,33,61.2,30c-2.5-1.5-5.3-2.5-8.2-3.1c-1.7-0.4-3.5-0.6-5.2-0.7
				c1-0.3,2-0.6,3-1c3.5-1.4,6.8-3.5,9.4-6.2c0.4-0.5,0.2-1.3-0.5-1.3c-5.8-0.1-12.1,1.7-16.6,5.5c1-1.2,2.1-2.4,3.3-3.4
				c2.1-1.8,4.4-3.3,6.8-4.6c1.2-0.7,2.4-1.3,3.7-1.9c1.1-0.5,2.3-1.1,3-2.2c1-1.7,0.2-3.3-1.3-4c0-0.2-0.1-0.3-0.2-0.4
				c-1.8-1.8-5.1,0-6.9,1c-2.3,1.3-4.4,2.9-6.2,4.8c-1.9,2-3.6,4.2-4.9,6.6c-0.1,0.1-0.1,0.2-0.2,0.3c0.5-2.3,0.5-4.7,0.4-7
				c-0.3-4.3-1.5-8.3-3.5-12c-0.3-0.5-1-0.4-1.2,0.1c-1.4,4-2,8.3-1.6,12.6c0.2,2.1,0.6,4.1,1.2,6.1c0.2,0.7,0.5,1.4,0.7,2.1
				c-1.2-1.8-2.6-3.5-4-5.1c-2.5-2.8-5.5-5.6-9.2-6.7c-0.5-0.1-0.8,0.2-1,0.6c-0.7,1.6,0.8,3.5,1.6,4.8c1.1,1.7,2.3,3.3,3.8,4.7
				c1.4,1.4,2.9,2.6,4.5,3.7c0.3,0.2,0.6,0.4,1,0.6c-2.1-0.5-4.1-1.1-6.2-1.6c-1.8-0.5-3.6-0.9-5.4-1.1c-1.7-0.1-3.4,0.2-5,0.8
				c-6.1,2.4-10.7,8-13.2,14C0.8,41.7,0.1,48,1.5,53.9c1.4,6.3,5.1,11.7,10.4,15.4c11.9,8.3,27.2,6.2,40.5,3
				c3.3-0.8,6.6-1.6,9.6-3.2c2.8-1.6,5-3.8,6.6-6.5C71.9,57.1,73.2,49.9,71.8,43.6z M49.7,21c2.6-1,5.4-1.6,8.2-1.8
				c-2.1,2-4.6,3.5-7.3,4.6c-1.6,0.7-3.3,1.2-5,1.5c-0.9,0.2-1.8,0.3-2.7,0.4c-0.4,0-0.9,0-1.4,0.1C44,23.9,46.7,22.2,49.7,21z
				 M38.9,25.5C38.9,25.5,38.9,25.5,38.9,25.5c1.3-1.8,2.3-3.6,3.6-5.3c1.4-1.7,2.9-3.3,4.6-4.8c1.6-1.4,3.4-2.7,5.2-3.7
				c0.9-0.5,1.9-1,2.9-1.5c0.9-0.4,1.9-0.8,2.7-1.3C58,8.8,58,8.6,57.8,8.7c-2.1,0.2-4.3,1.5-6.1,2.5c-1.9,1.1-3.7,2.4-5.4,3.9
				c-1.2,1.1-2.3,2.2-3.3,3.4c1-1.4,2-2.7,3.1-4c1.6-1.7,3.4-3.3,5.4-4.5c1-0.6,1.9-1.1,3-1.5C55.1,8.2,55.6,8,56.2,8
				c0.4,0,0.9,0,1.3,0c0.5,0.5,1,1.1,0.8,1.8c-0.3,1-2,1.5-2.8,1.9c-2.2,1-4.4,2.2-6.4,3.5c-3.9,2.5-8,5.8-9.6,10.3
				c0,0.1,0,0.2-0.1,0.2C39.2,25.6,39,25.6,38.9,25.5C38.8,25.6,38.9,25.5,38.9,25.5z M36.8,18.6c-0.5-1.9-0.9-3.9-1-5.9
				c-0.2-3.5,0.1-6.9,0.9-10.3c1.5,3.2,2.4,6.8,2.5,10.3c0.1,3.3-0.6,6.4-1.3,9.5c0,0,0,0,0,0c-0.1-1.5-0.1-3.1,0-4.6
				c0-1.4,0.2-2.9,0-4.3c0-0.2-0.3-0.2-0.3,0c-0.4,1.5-0.4,3.2-0.4,4.8c0,0.8,0,1.7,0.1,2.5C37.1,19.9,36.9,19.3,36.8,18.6z
				 M29.3,19.3c-1.3-1.2-2.5-2.5-3.5-3.9c-0.5-0.7-1-1.4-1.4-2.1c-0.2-0.4-0.7-1-0.9-1.6c2.8,1.5,5.2,3.9,7.4,6.1
				c0.5,0.5,1,1,1.4,1.5c-0.7-0.6-1.4-1.3-2.2-1.7c-0.2-0.1-0.3,0.1-0.2,0.3c0.8,1.1,1.9,2,2.9,2.9c0.9,0.9,1.8,1.7,2.7,2.5
				c0.2,0.2,0.3,0.5,0.5,0.7c-0.1,0-0.1-0.1-0.2-0.1c-0.8-0.4-1.5-0.8-2.2-1.3C32.1,21.6,30.7,20.5,29.3,19.3z M64.7,64.6
				c-2.2,2.3-4.9,3.7-7.9,4.6c-3.1,0.9-6.4,1.7-9.6,2.3c-3.2,0.7-6.5,1.2-9.8,1.5c-6.5,0.6-13.1,0.2-19.1-2.4
				c-5.7-2.4-10.6-6.5-13.1-12.2C3,53.4,2.4,47.8,3.5,42.3c1.1-5.9,4.3-11.7,9.1-15.5c2.5-2,5.3-3.4,8.5-3.5
				c2.1-0.1,4.3,0.3,6.3,0.6c1.8,0.2,8.5,2.5,9,2.7c3.2,0.9,6.6,1,9.8,1.2c3.1,0.2,6,0.5,9,1.5c5.2,1.7,10.1,5,12.8,9.9
				c2.9,5.3,2.7,12.1,1,17.7C68.1,59.7,66.7,62.4,64.7,64.6z"/>
			<path id="XMLID_9_" class="st1" d="M48.7,22.6c-1.6,0.3-3,1.1-4.3,2c-0.1,0.1,0,0.2,0.1,0.2c1.4-0.7,3-1.1,4.3-1.9
				C48.9,22.7,48.8,22.5,48.7,22.6z"/>
			<path id="XMLID_8_" class="st1" d="M8.1,56.6c-0.5-2-1.3-3.9-1.8-5.8c-0.5-1.9-0.7-3.8-0.7-5.7c0-4,1.4-7.9,4.1-10.8
				c0.2-0.2-0.1-0.4-0.3-0.3C6.3,37,5,41.1,5,45.3c0,3.8,0.8,8.2,2.8,11.5C7.9,56.9,8.1,56.8,8.1,56.6z"/>
			<path id="XMLID_7_" class="st1" d="M61.5,34.7c-0.2-0.1-0.4,0.2-0.2,0.3c1.5,1,2.5,2.5,3.1,4.2c0.7,1.9,0.4,3.7,0.4,5.7
				c0,0.2,0.3,0.2,0.3,0C66.3,41,65.2,36.9,61.5,34.7z"/>
		</g>
		<path id="XMLID_5_" class="st1" d="M56.2,66.5c-1.9,0.3-3.7,0.9-5.5,1.3c-1.7,0.4-3.4,0.8-5.2,1.1c-3.5,0.6-7.1,1.2-10.6,1.4
			c-7,0.4-14.4-0.4-20.2-4.7c-0.2-0.1-0.4,0.1-0.3,0.3c8.7,7.5,21.8,5.6,32.2,3.6c3.2-0.6,6.6-1.2,9.6-2.5
			C56.6,66.9,56.5,66.4,56.2,66.5z"/>
		<path id="XMLID_4_" class="st1" d="M44.7,30.3c-1.9,0.4-3.6,0.8-5.6,0.6c-1.8-0.2-3.6-0.7-5.1-1.6c-0.2-0.1-0.3,0.1-0.1,0.2
			c3,2.1,7.6,2.9,11,1C45,30.5,44.9,30.2,44.7,30.3z"/>
	</g>
</g>
</svg>
