<?xml version="1.0" encoding="utf-8"?>
<!-- Generator: Adobe Illustrator 19.0.0, SVG Export Plug-In . SVG Version: 6.00 Build 0)  -->
<svg version="1.1" id="Layer_1" xmlns="http://www.w3.org/2000/svg" xmlns:xlink="http://www.w3.org/1999/xlink" x="0px" y="0px"
	 viewBox="-28 -2.2 72.1 75.2" style="enable-background:new -28 -2.2 72.1 75.2;" xml:space="preserve">
<style type="text/css">
	.st0{display:none;}
</style>
<g id="Layer_1_1_" class="st0">
</g>
<g id="Layer_4">
	<g id="XMLID_3_">
		<g id="XMLID_6_">
			<path id="XMLID_10_" d="M43.8,41.4c-1.4-5.9-5.4-10.6-10.6-13.6c-2.5-1.5-5.3-2.5-8.2-3.1c-1.7-0.4-3.5-0.6-5.2-0.7
				c1-0.3,2-0.6,3-1c3.5-1.4,6.8-3.5,9.4-6.2c0.4-0.5,0.2-1.3-0.5-1.3c-5.8-0.1-12.1,1.7-16.6,5.5c1-1.2,2.1-2.4,3.3-3.4
				c2.1-1.8,4.4-3.3,6.8-4.6c1.2-0.7,2.4-1.3,3.7-1.9c1.1-0.5,2.3-1.1,3-2.2c1-1.7,0.2-3.3-1.3-4c0-0.2-0.1-0.3-0.2-0.4
				c-1.8-1.8-5.1,0-6.9,1c-2.3,1.3-4.4,2.9-6.2,4.8c-1.9,2-3.6,4.2-4.9,6.6c-0.1,0.1-0.1,0.2-0.2,0.3c0.5-2.3,0.5-4.7,0.4-7
				c-0.3-4.3-1.5-8.3-3.5-12c-0.3-0.5-1-0.4-1.2,0.1c-1.4,4-2,8.3-1.6,12.6C6.5,13,6.9,15,7.5,17c0.2,0.7,0.5,1.4,0.7,2.1
				c-1.2-1.8-2.6-3.5-4-5.1C1.7,11.2-1.3,8.4-5,7.3c-0.5-0.1-0.8,0.2-1,0.6c-0.7,1.6,0.8,3.5,1.6,4.8c1.1,1.7,2.3,3.3,3.8,4.7
				c1.4,1.4,2.9,2.6,4.5,3.7c0.3,0.2,0.6,0.4,1,0.6c-2.1-0.5-4.1-1.1-6.2-1.6c-1.8-0.5-3.6-0.9-5.4-1.1c-1.7-0.1-3.4,0.2-5,0.8
				c-6.1,2.4-10.7,8-13.2,14c-2.3,5.7-3,12-1.6,17.9c1.4,6.3,5.1,11.7,10.4,15.4c11.9,8.3,27.2,6.2,40.5,3c3.3-0.8,6.6-1.6,9.6-3.2
				c2.8-1.6,5-3.8,6.6-6.5C43.9,54.9,45.2,47.7,43.8,41.4z M21.7,18.8c2.6-1,5.4-1.6,8.2-1.8c-2.1,2-4.6,3.5-7.3,4.6
				c-1.6,0.7-3.3,1.2-5,1.5c-0.9,0.2-1.8,0.3-2.7,0.4c-0.4,0-0.9,0-1.4,0.1C16,21.7,18.7,20,21.7,18.8z M10.9,23.3L10.9,23.3
				c1.3-1.8,2.3-3.6,3.6-5.3c1.4-1.7,2.9-3.3,4.6-4.8c1.6-1.4,3.4-2.7,5.2-3.7c0.9-0.5,1.9-1,2.9-1.5c0.9-0.4,1.9-0.8,2.7-1.3
				C30,6.6,30,6.4,29.8,6.5C27.7,6.7,25.5,8,23.7,9c-1.9,1.1-3.7,2.4-5.4,3.9C17.1,14,16,15.1,15,16.3c1-1.4,2-2.7,3.1-4
				c1.6-1.7,3.4-3.3,5.4-4.5c1-0.6,1.9-1.1,3-1.5c0.6-0.3,1.1-0.5,1.7-0.5c0.4,0,0.9,0,1.3,0c0.5,0.5,1,1.1,0.8,1.8
				c-0.3,1-2,1.5-2.8,1.9c-2.2,1-4.4,2.2-6.4,3.5c-3.9,2.5-8,5.8-9.6,10.3c0,0.1,0,0.2-0.1,0.2C11.2,23.4,11,23.4,10.9,23.3
				C10.8,23.4,10.9,23.3,10.9,23.3z M8.8,16.4c-0.5-1.9-0.9-3.9-1-5.9C7.6,7,7.9,3.6,8.7,0.2c1.5,3.2,2.4,6.8,2.5,10.3
				c0.1,3.3-0.6,6.4-1.3,9.5l0,0c-0.1-1.5-0.1-3.1,0-4.6c0-1.4,0.2-2.9,0-4.3c0-0.2-0.3-0.2-0.3,0c-0.4,1.5-0.4,3.2-0.4,4.8
				c0,0.8,0,1.7,0.1,2.5C9.1,17.7,8.9,17.1,8.8,16.4z M1.3,17.1c-1.3-1.2-2.5-2.5-3.5-3.9c-0.5-0.7-1-1.4-1.4-2.1
				c-0.2-0.4-0.7-1-0.9-1.6c2.8,1.5,5.2,3.9,7.4,6.1c0.5,0.5,1,1,1.4,1.5c-0.7-0.6-1.4-1.3-2.2-1.7c-0.2-0.1-0.3,0.1-0.2,0.3
				c0.8,1.1,1.9,2,2.9,2.9c0.9,0.9,1.8,1.7,2.7,2.5c0.2,0.2,0.3,0.5,0.5,0.7c-0.1,0-0.1-0.1-0.2-0.1c-0.8-0.4-1.5-0.8-2.2-1.3
				C4.1,19.4,2.7,18.3,1.3,17.1z M36.7,62.4c-2.2,2.3-4.9,3.7-7.9,4.6c-3.1,0.9-6.4,1.7-9.6,2.3c-3.2,0.7-6.5,1.2-9.8,1.5
				C2.9,71.4-3.7,71-9.7,68.4c-5.7-2.4-10.6-6.5-13.1-12.2c-2.2-5-2.8-10.6-1.7-16.1c1.1-5.9,4.3-11.7,9.1-15.5
				c2.5-2,5.3-3.4,8.5-3.5c2.1-0.1,4.3,0.3,6.3,0.6c1.8,0.2,8.5,2.5,9,2.7c3.2,0.9,6.6,1,9.8,1.2c3.1,0.2,6,0.5,9,1.5
				c5.2,1.7,10.1,5,12.8,9.9c2.9,5.3,2.7,12.1,1,17.7C40.1,57.5,38.7,60.2,36.7,62.4z"/>
			<path id="XMLID_9_" d="M20.7,20.4c-1.6,0.3-3,1.1-4.3,2c-0.1,0.1,0,0.2,0.1,0.2c1.4-0.7,3-1.1,4.3-1.9
				C20.9,20.5,20.8,20.3,20.7,20.4z"/>
			<path id="XMLID_8_" d="M-19.9,54.4c-0.5-2-1.3-3.9-1.8-5.8c-0.5-1.9-0.7-3.8-0.7-5.7c0-4,1.4-7.9,4.1-10.8
				c0.2-0.2-0.1-0.4-0.3-0.3c-3.1,3-4.4,7.1-4.4,11.3c0,3.8,0.8,8.2,2.8,11.5C-20.1,54.7-19.9,54.6-19.9,54.4z"/>
			<path id="XMLID_7_" d="M33.5,32.5c-0.2-0.1-0.4,0.2-0.2,0.3c1.5,1,2.5,2.5,3.1,4.2c0.7,1.9,0.4,3.7,0.4,5.7c0,0.2,0.3,0.2,0.3,0
				C38.3,38.8,37.2,34.7,33.5,32.5z"/>
		</g>
		<path id="XMLID_5_" d="M28.2,64.3c-1.9,0.3-3.7,0.9-5.5,1.3c-1.7,0.4-3.4,0.8-5.2,1.1c-3.5,0.6-7.1,1.2-10.6,1.4
			c-7,0.4-14.4-0.4-20.2-4.7c-0.2-0.1-0.4,0.1-0.3,0.3c8.7,7.5,21.8,5.6,32.2,3.6c3.2-0.6,6.6-1.2,9.6-2.5
			C28.6,64.7,28.5,64.2,28.2,64.3z"/>
		<path id="XMLID_4_" d="M16.7,28.1c-1.9,0.4-3.6,0.8-5.6,0.6C9.3,28.5,7.5,28,6,27.1c-0.2-0.1-0.3,0.1-0.1,0.2c3,2.1,7.6,2.9,11,1
			C17,28.3,16.9,28,16.7,28.1z"/>
	</g>
</g>
</svg>
