<?xml version="1.0" encoding="utf-8"?>
<!-- Generator: Adobe Illustrator 19.0.0, SVG Export Plug-In . SVG Version: 6.00 Build 0)  -->
<svg version="1.1" xmlns="http://www.w3.org/2000/svg" xmlns:xlink="http://www.w3.org/1999/xlink" x="0px" y="0px"
	 viewBox="0 0 38.6 53" style="enable-background:new 0 0 38.6 53;" xml:space="preserve">
<style type="text/css">
	.st0{display:none;}
	.st1{fill:#010202;}
</style>
<g id="Layer_1" class="st0">
</g>
<g id="Layer_3">
	<g id="XMLID_53_">
		<g id="XMLID_105_">
			<path id="XMLID_109_" class="st1" d="M1.7,47.6c2.9-0.4,5.9-1.5,7.6-4.1c2.5-4,2.1-9.1,4.6-13.1c2.9-4.6,9.9-2.6,14.6-4.2
				c3.2-1,6.6-2.1,8.5-5c0.8-1.2-1-2.5-2-1.5c-2.6,2.6-6.5,4.7-8.5,7.8c-1.5,2.3-2,5.4-2.1,8.1c-0.1,2,0.1,4.6-0.5,6.5
				c-1.2,3.6-5.3,5.4-8.8,5.6c-4.4,0.3-9-1.7-13.4-2.4c-1.6-0.2-2.3,2.2-0.7,2.4C9,48.8,17.8,53,24.3,46c2.6-2.8,2.3-6.3,2.6-9.8
				c0.3-3.5,0.5-6.6,3.3-9.1c2.2-2,4.5-3.7,6.6-5.7c-0.7-0.5-1.3-1-2-1.5c-4.9,7.5-16,2-22,7.1c-6.2,5.4-1.1,16.6-11.7,18.2
				C-0.5,45.4,0.2,47.8,1.7,47.6L1.7,47.6z"/>
		</g>
	</g>
	<g id="XMLID_94_">
		<g id="XMLID_112_">
			<path id="XMLID_116_" class="st1" d="M28.7,24.7c-3.1,0.8-5.7,3.8-7.4,6.3c-1.7,2.4-2.9,5-4.6,7.3c-1.2,1.7-2.6,4.8-4.8,5.2
				c-1.6,0.3-0.9,2.7,0.7,2.4c3.4-0.7,4.9-4.3,6.8-7c2.8-3.8,4.9-10.5,10-11.8C30.9,26.7,30.3,24.3,28.7,24.7L28.7,24.7z"/>
		</g>
	</g>
	<g id="XMLID_95_">
		<g id="XMLID_119_">
			<path id="XMLID_123_" class="st1" d="M20.1,33.2c-0.6,1.4-1.3,2.9-1.6,4.3c-0.3,1.8,0,3.6-0.4,5.4c-0.3,1.6,2.1,2.2,2.4,0.7
				c0.3-1.6,0.3-3.1,0.4-4.7c0-1.4,0.8-3.1,1.4-4.4C22.9,33,20.8,31.7,20.1,33.2L20.1,33.2z"/>
		</g>
	</g>
	<g id="XMLID_96_">
		<g id="XMLID_126_">
			<path id="XMLID_130_" class="st1" d="M20.9,30.8c-0.8,0.9-1.7,1.3-2.8,1.7c-1.2,0.4-2.3,1-3.4,1.5c-1.5,0.7-0.2,2.8,1.3,2.2
				c2.2-1,5-1.6,6.7-3.5C23.7,31.3,21.9,29.5,20.9,30.8L20.9,30.8z"/>
		</g>
	</g>
	<g id="XMLID_97_">
		<g id="XMLID_133_">
			<path id="XMLID_137_" class="st1" d="M12.8,10c-1.1-0.6-2.5-0.3-3.2,0.7c-0.8,1.1-0.4,2.6,0.9,3.2c1,0.4,2.3,0.2,3-0.8
				c0.3-0.4,0.5-0.9,0.4-1.3c0-0.8-0.7-1.4-1.5-1.4c-1.6,0-1.6,2.5,0,2.5c-0.1,0-0.3-0.1-0.4-0.1c-0.1-0.1-0.3-0.3-0.4-0.4
				c-0.1-0.2-0.1-0.4-0.1-0.6c0-0.1,0.1-0.2,0,0c0,0,0,0.1-0.1,0.1c-0.1,0.1-0.1,0.1,0,0c0.1-0.1,0.1-0.1,0,0c-0.1,0.1,0,0,0.2-0.1
				c0.5-0.3,0.1,0,0-0.1c-0.1,0-0.1,0,0,0c0.1,0,0.1,0,0,0c0,0-0.2,0-0.1,0c0.1,0,0.1,0,0,0c-0.1,0-0.1,0,0,0
				c0.1,0.1,0.2,0.2,0.2,0.3c0,0.1,0,0.1-0.1,0.2c0-0.1,0.1-0.1,0,0c0,0.1-0.1,0,0,0c-0.3,0.1,0.2,0,0,0c-0.2,0,0.2,0,0,0
				c-0.1,0-0.3-0.1,0,0C13,12.9,14.2,10.8,12.8,10L12.8,10z"/>
		</g>
	</g>
	<g id="XMLID_98_">
		<g id="XMLID_140_">
			<path id="XMLID_144_" class="st1" d="M27,1.9c-1,0-1.9,0.5-2.3,1.4c-0.5,1-0.4,2.3,0.6,2.9c1.8,1.1,4.6-0.9,3.2-2.9
				c-0.4-0.6-1.1-0.8-1.7-0.4C26.3,3.1,26,4,26.4,4.5c0.2,0.3,0-0.2,0.1-0.4C26.5,4,26.5,4,26.6,4c0.1-0.1,0.1,0-0.1,0
				c0.1,0,0.1,0,0,0c0.1,0,0.1,0,0,0c-0.1,0-0.1,0,0.1,0c-0.2-0.1-0.1,0,0.1,0.1c0.1,0.1,0.2,0.2,0.1,0.4c0,0,0-0.1,0-0.1
				c0,0.1,0,0.1,0,0.1c0.1-0.1,0.1-0.2,0-0.1c0,0,0.1-0.1,0.1-0.1c-0.1,0.1-0.1,0.1,0,0c-0.1,0.1-0.1,0.1,0,0c-0.1,0-0.1,0,0.1,0
				C28.6,4.3,28.7,1.8,27,1.9L27,1.9z"/>
		</g>
	</g>
</g>
</svg>
