<?xml version="1.0" encoding="utf-8"?>
<!-- Generator: Adobe Illustrator 19.0.0, SVG Export Plug-In . SVG Version: 6.00 Build 0)  -->
<svg version="1.1" xmlns="http://www.w3.org/2000/svg" xmlns:xlink="http://www.w3.org/1999/xlink" x="0px" y="0px"
	 viewBox="0 0 127 53" style="enable-background:new 0 0 127 53;" xml:space="preserve">
<style type="text/css">
	.st0{display:none;}
	.st1{fill:#FDFDFD;}
</style>
<g id="Layer_1" class="st0">
</g>
<g id="Layer_3">
	<g id="XMLID_53_">
		<g id="XMLID_117_">
			<path id="XMLID_121_" class="st1" d="M6.3,45.1c1.5-2,2.2-4.6,3.4-6.8c2.1-3.9,4.3-7.8,6.7-11.5c5.7-8.7,13.9-12.4,23.1-16.4
				c17.3-7.5,37.8-8.1,56.5-6.5c9,0.8,21.8,3.9,24.7,13.8c2.8,9.6-3.7,16-12.4,18.5c-8.3,2.3-18.3,3-26.9,2c-5-0.6-9.7-2.5-14.6-3.3
				c-4.2-0.6-8.3-1.3-12.4-2.1c-9.6-1.8-19.4-2-29.2-1.6c-8.7,0.3-12.6,8.8-19.7,12.2c-1.5,0.7-0.2,2.8,1.3,2.2
				c3.9-1.9,6.7-5.8,10.2-8.3c5-3.5,9.8-3.6,15.6-3.6c5.3,0,10.4,0,15.6,0.7c5.2,0.8,10.4,1.9,15.6,2.6c5.4,0.7,10.4,2.5,15.7,3.4
				c5.1,0.9,10.7,0.6,15.8,0.2c7.5-0.5,16-1.5,22.3-6c5.1-3.7,7.1-9.5,6-15.7c-1.4-7.6-6.6-11.4-13.4-14.1c-9.9-4.1-20.5-3.8-31-3.7
				C69.1,1,58.8,1.5,49,4c-5.1,1.3-9.9,3.7-14.7,5.8c-4.8,2.1-9.6,4.4-13.6,7.8c-3.9,3.3-6.6,7.7-9.2,12.1c-1.4,2.4-2.8,4.9-4.1,7.3
				c-0.9,1.7-1.8,4.8-3,6.3C3.5,44.6,5.3,46.3,6.3,45.1L6.3,45.1z"/>
		</g>
	</g>
</g>
</svg>
