<svg xmlns="http://www.w3.org/2000/svg" viewBox="0 0 378.2 134.9" enable-background="new 0 0 378.2 134.9"><style type="text/css">.st0{fill:#FFFFFF;}</style><title>LOGO FINAL prost</title><path d="M6.5 55.5" class="st0"/><path d="M41.4 79.9l.3-2.9-.2-3-1.6-1.1-3.6-.6-3.5.1-1.7-.2-2.5.1-2.6-.4-2.3.4-4.6-.2-2.2.4-2.2-.6-2.3-.4-1.1-3.9-.1-3.8.1-1.8-.2-2.2.1-2.3.1-2.2v-2l.2-2.6-.5-2.2v-2.2l.4-3.4-.1-3.5-.3-2.3-.1-2.5.1-2.3.3-2.7.2-1.8-.1-2-.1-2.5v-2.5l-.3-2-.2-2.2.1-2.6.2-3.5-.6-3.1-2-1.7-2.7-.4-3.1.5L1 7.5.1 11l.4 3.6.1 2.2-.3 2v2.5l-.1 2.3V26l.1 2.6.2 2.2-.4 2 .4 2.6L.3 38l.1 2.6-.4 2v1.8l.4 2.3v2.5l-.1 3.6-.3 3.5.6 3.6v3.5l-.1 2.1-.3 2.7.3 2.5L.1 73l.3 3 1 3.5L3.1 81l2.8.6 3.8.6 2-.3 2.5.3 2.9-.3 2 .6 2.3-.1 2.3.1 2.7-.3 2.5-.1 2 .4h2.5l3.7-.3 3.1-.7 1.2-1.6zM5.5 11.6l.7-.1.3.2.2-.1h.6l.7.6-.3.3-.3.2h-.3l-.6.1-.6-.1-.2-.4v-.7h-.2zm1.6 4.5l-.3.1-.1-.9.1-.3-.2-.7.2-.3h.8v.8l.3.4-.8.9zm.6 1.5l-.2.4-.2.6-.3-.7.2-.7.5.4zm-1 9l-.4 1-.6.4-.4-.8.1-.7H6l.7.1zm-1.8-5.5l.2-.2.4.2.3-.3.6.6-.2.6.2 1h-.6l-.8.2v-.9l.4-.3-.6.1-.7-.1-.1-.6.9-.3zM4 55.6l.8-.3.3.2.4-.5-.9-.4-1.3-.8.1-1 1.7-.8 1.3.3-.2 1.7-.2.3.6.2.1.8-.2.1 1 .1.6.2-.1.7-.7.1-.4.1-.2-1.1-.1.1h-1v.9l-.2.3.2.8-.6-.1h-.3l.1-.8-.3-.2-.5-.9zm1.2-15.3l-.1.2-1-.3.4-.7h.7l.1-.2.3.3.3-.2.3.3-.1.8.2.3.1.7-.4.2-.9-.1.2-.6-.1-.7zm.4-4.5l-.2-.2.2-.6v-.3l.4.1.2.3.1 1-.1.3.3.4-.1 1.2-.7.2-.3-.8.1-.3v-.2l-.5-.3-.3.6-.4-.6-.1-.6 1-.4-.1.4.5-.2zM5.5 45l.1.4-.2.6 1.3.2-.2.9-.5.3-.8-.4-.2-.6h-.3l-.8-.7.1-.6.8-.1h.7zm2 3.4l.1.4.2.1-.9.6-.2-.1-.1-.6.9-.4zM6.3 33.3l-.1.3-.3.3-.9.8-1-.6v-.4l.8-.4.9-.6.4-.2.7.1.1.6-.6.1zm-1.7 8.2l.4.4.1.3-.3.7-.7-.3-.3-.4.8-.7zM8 54.6V54l.8.1.1 1-.3.3-.6-.8zm-.8 6l-1 .1h-1L5 59.6l.9-.3 1 .8.3.5zm-2.7 1.7l-.1-1 .8.4.3.2-.8.1-.2.3zm1.1 4.2l-.1-.7.2-.4.9.6-.3 1-.7-.5zm.6 2l.7-.3 1.7.7-.2 1.2-1.1.3-1.1-.8v-1.1zm2.2 5l-1.2-.3-.4-1.1 1.1-.4 1.3.3.1 1-.9.5zm-.1-8l-1-.3.1-1 1-.3.6.3.4.9-1.1.4zm-.1-33.2l-.8-.1-.3-.9.1-.2h-.4v-.6l-.1-.6-.3-.1-.1.9-1.3.7-.9-.4-.2-1.7 1-.4.9.3h.9v.1l.1-.4.1-.6.3-.3h.9L8 29h-.3l.3.9-.2.8h.3l.3-.2.8.7.3.6-1.3.5zM11 75.9l-.1.3-.9-.3.1-.9.2-.1.7.1c0-.1 0 .9 0 .9zm4 .3l-.7-.8-.3-1.1 1.1-.6 1 .4.3 1.3-1.4.8zm9.5-.1l-.6-.1v-.6l.2-.7.6.2-.2 1.2zm5.2-.4l-.7.3-.7-.3.3-.2.4-.6.7.2v.6zM5.4 55.6l-.3-.2v.2zM98.6 70.9l.8 1.9.9 2.6 1.2 2.8 1.6 2.7 3.4 1.1 2.7-.2 2.1-1.8.6-2.3-.2-3.1-.6-2.6-.8-2.7-1.9-4.4-.7-1.6-.3-2.3-1-2.5-.8-2.2-.6-2.3-.8-2.2-.7-1.9-.7-2.2-.7-2.6-.4-2-.8-2.3-1.2-2.3-.2-2-.7-1.8-1.2-2.5-.2-2.3-1-1.8-.4-2.5-1-2.1-.7-2.2-.9-2.1-.6-2-.6-2.2-.9-3.2-2.5-3.7-2.7-2-1.9-.8-3-.6-3.2.4-1.5.7L75 7l-2 2-.9 2.7-1.6 3.1-.3 2.2-.7 2.2-.5 1.9-1.2 2.7-.3 2.2-1.1 2-.3 2.3-.9 2-.7 2-.7 2.5-.6 2.5-1.6 4.4-1.1 2.2-.6 2.1-.8 2.1-.6 2.5-.6 2.2-.9 1.7-.6 2.6-1.2 2.5-.4 1.9-.6 1.9-.6 2.5-.9 1.9-.7 2.3-.8 3-.4 3.1 1.3 2.1 3.6 1.7 3.2-.8 1.7-2.5.9-3.7.6-1.6 1-2.2.8-2 .4-2.2.7-2.5.2-2.2 2.1-2.1 3-1.5 3.5.1 3.5-.1 2.6-.1 2.1.4 2.3-.2 3.9.2 1.9-.1 4.1 1.5 1.9 1.9.6 2.1.9 2.2.4 2.2.6 2.1zm7-.1l.3-.3.1.3.3.3-.2.6-1.1-.6.6-.3zm-3.7-.8l-.9.6h-.3l.3-.9.3-.3.7.1-.1.5zm-.4-17.5l.2.2.1 1.2-.6.2-.8-.3-.2-.3 1.3-1zm-1.8 3l.9.3-.1.9-.2-.2-.6-.4v-.6c-.1 0 0 0 0 0zm-42.6 7.2l.4-.6.6.8.2.6-.8.3-.6-.6.2-.5zm.8 7.9l-1.9-.8.2-1.2 1-.1 1.1.7.7 1-1.1.4zm2-6.2l-.8.2.1-.4.6-.6.4.2.2.4-.5.2zm1-7l-.1.4-.2-.2-.1-.9.4-.6.4.4-.4.9zm0-4.4l-.8.1.3-.7.2-.2h1l-.3.6-.4.2zm1.1 1.6l-.4-.3.1-.7.4-.4h.7l.1 1.1-.9.3zm37.2-6.2l.2.7-.6.8-.8-.4.3-.9.9-.2zm-1.9-5.1l-.3.8-.3-.2-.3.2-.3-1 .9-.2.3.4zm-1.1 6.4h.4l.2.8h.2v.7l.1.7-.7.2-.6-.1.2-.6.1-.7.1-1zm-1-12.3V37l-.1-.7.4-.4.6.2-.1 1.1.3.3-.2.6-.3.1-.9-.1.3-.7zm-1-4.2l-.8.6-.3-.7-.4-1v-.3l.8-.2.2.2.1.3.1.8.3.3zm-.3 2.6l-.6.8-.3.7-.1-.1-.3-.7.7-.8.6.1zm-2.4-11.2l.8-.1.4.2-.2.7-.1.1.9.3v1l-.6.6.7.6.2.8-.5.2-.4-.4-.1-.3-.7-.3-.3.2-.4.6.4.7-.2.4-.3.3-.6-.3h-.2l-.7.7-.6-.4v-.7l.7-.4.7.2.3-.2.1-.8-.1-.4v-1.6l.7-.6.1-1.1zm-2.3 2.6l.3-.8.6.8-.1.8-.4.1-.4-.9zM91 23v.8l.3.6-.6.1-.2-.3h-.3l.1.3v1H90l-1-.2.1-.6.4-.4-.3-.8.3.1h.4l.7-.1.4-.5zm-.5-2.9l-.3.8H90l-.8-.2v-.1l.7-.6.6.1zm-1-3l-.1 1-.3.4.4.2-.1.8-.7.1-.9-.6v-.1l.7-.4-.7-.1.2-.9.3-.2 1.2-.2zM88.3 22h-.8l-.9-.2.1-.7.4-.4-.3-.4.4-.4 1 1-.3.6.4.5zM87 18.8v.6l-.3.4-1.1-.2V19l.4-.6v-.8l.4-.3.9.4-.4.7.1.4zm1.5-3.4l.4.2.1.1-.3.4-.4-.1.2-.6zm-.5-.6l-1.6.7-1-.2-.6-.2-.1-.3.1-.3.2-.8 1.1-.8 1.1 1 .8.9zm-3.5-.9l-.7.2-.1-.3-.2-.9.7-.1.7.4-.4.7zm1.4-4.5l.6.1.7.6-.5.9-.7-.6v-1zm-2.8-.5l1.2-.3 1.2.7-.3.7-.7.3.2.7-.2.8h-.2l-.4-.3-.2-.5-.3-.4-.8-.2.5-1.5zm-1.2 1.5l.6.3-.1.8-.7.2-.3-.1-.2-.8.7-.4zm-1.7-.5v-.6l.8.1.2 1.1-.7.2-.7-.2.4-.6zm-4.5.7l.6-.3v.7h.3l.7-.1.6.2v.3l-.6.1-.4.1-.1-.1-.4.4-.9-.4.2-.9zm-1.4 2.5l.8.5.6.2h.4l.6.6-.7.7-.9-.4v-.3l-.1-.1-.6.2-.3-.2.2-1.2zm-1.2 3.6l.2-.3.7.2.4.3.1.4.8-.2-.3-.7h1l.4.2v.3l-.2.6h-.7l.1 1.1-.9.4-.6-.4-.1-.7-.7-.3-.7-.1.5-.8zm-.9 2.1l1.2.2.6.6 1 .3-.1 1 .1.2.1.9-.4-.1-.2-.2-.2-.1v-.8l-.1-.7-.6.4-.8.6V21l-.1.9-1-.2.3-1-.7-.4-.6-1 1.5-.5zm.2 5.5l-.2-.2-.2-.7.7-.3.3.7.4.6h-1v-.1zm.7 4.1l-.2.2-.3.2-.4-.3-.3-.8.7-.1.5.8zm-.2-5.3v-.6l.6-.7.8.3-.1.7-.8.3h-.5zm-5.5 8.5l.6-.6.4.4.3.8-1 .1-.8-.2.5-.5zm-3.5 17.2l.3-.7.9.7-.3.9-1.1-.3.2-.6zm.5 5.7l-.8-.4.6-.3.3-.6.3.4.3.8-.7.1zm1.7-4.2l-.6.4-.8-.7h.6l.7.1.1.2zm.2-4.6l-.9.4H65l-.1-1.1.7.1.8.1v.5h-.1zm-.3-5l.1.4-.1.3-.6.1v-.6l-.4-.1-.2-.8.7-.8.6.9.2.6H66zm1.1-4.4l.6-.4-.3-.3-.8.6-.2-.6V35l.4-.1h.2l.2.3 1-.7.1.6.3.7-.4.1-.2.9-.2.1h-.6l-.1-.6zm.2 16l.4-.1.6.3.1.3-.3.4-.8-.9zm2.5 2.6l-1 .4-.4-.2-.2-1.1 1.2-.3.9.6-.5.6zm.4-20.3h-.3v-.8l.1-.2.3.6.4.8-.5-.4zm3.9 20.8l-.4.2-.4-.4v-.3l.2-.4.9.6-.3.3zm4.5-1.6l-.3.3-.8-.2.4-.3.2-.9.4.4v.7h.1zm12.5-5L89 50.4l-2-.2-2.1-.2-2.5.4-2.7-.2-2.1-.1-2.2.3-2.6.1-1.8-1.3-.6-2.1.9-1.9.2-2.5 1-1.9.9-2.6.6-2 .6-2.6.4-2.3.3-1.6 1-2.2.4-2.8 1-2 .4-2 .7-2.7.8-2.6.7-2 1.3 2 .6 2.8.6 2 .7 2.3.9 2.5 1 3.4 1.1 3.1.7 2.5v2.1l.8 2.2 1.8 4.4.4 2.6.6 1.6.3 1.9zm.2-9.7l.1-1 .9.1.4.7.6.2.4.1v.1l.1-1 .9.4.1.4v.2h.2l.3-.2h.6l.3.7-.8.3-.4.1-.4-.1-.2.3-.6-.3-.8.7-.7-1.3H92l-.7-.4zm2 16.1l-.4.2-.4-.8 1-.1h.2l-.4.7zm1-8.9l-1.3-.7.2-1 1.5-.7 1 .8.1.4.3.1-.1.4-1 .6-.7.1zm3 7.4l-.6.7-1-.4-.1-.7.7-.4 1.3.6-.3.2zm.5-10.8l-.4-.3.1-.4.2-.2.3.3.2.4-.4.2zm.2 10.3h1l.1.2v.2l-.1.6-1-.1v-.9zM206.6 79.6l.6-3.2.4-3-.1-2.2-.2-2.2.1-2.6-.1-2.6.1-2.3-.4-1.8.3-2.1.2-2.6-.2-2.9.1-2.2V48l.1-2.1-.1-2.3v-4.9l.1-2.2-.4-2.3.6-2.2-.2-2.3.1-2.2-.3-2.6.4-2 .1-2.5-.2-2.5-.2-2 .1-2-.4-3.9-.3-2.9-1.6-2-3.5-.9-2.2.8-3.8-.1h-2.3l-1.9-.1-2.2.2-2.7-.3-1.8.3-5-.2-2.3.1-1.9-.2-2.8.2h-2.1l-2.6-.3h-4.7l-2.3-.1-3.1.3-3.2 1.2-1.6 1.1-1 3.2.3 3.4-.1 2.7-.4 2.3.2 2.3-.2 2v2l.3 2.4.1 2.7-.1 2 .2 2.2-.1 2.6-.3 2.3.1 2.2.1 2.8.2 2.1-.3 2.1.3 2.1-.2 2.9-.2 1.9.1 2.3.4 2.6-.2 2.3.1 3v3.7l-.3 2.6-.1 2.1.4 2.9.6 3.1 1.9 1.5 2.5.3 2.7-.4 1.7-1.5.7-2.7.4-4.1-.1-2.6.2-2.6.2-2.3v-4.1l-.1-2.1-.2-2.9.3-2.2-.3-2.5.1-1.8v-2.7l.3-2.5v-2.2l-.1-2.5v-2.4l-.2-2.2.4-3-.3-4-.1-2.3v-1.9l.3-2.6-.1-2.5-.2-2 1-2.6 2.6-1 1.7-.1 2.8.1h2.1l1.9-.2 4 .2 2.8-.6h2.5l3.7.6 3.1-.3h2.1l2.1 1.5L197 17l-.1 2.5-.2 1.8.4 2.7-.1 2.5v2.3l-.1 2.3-.3 2.3.1 1.9.4 2.8-.3 1.8.2 2.7-.2 2.2.3 2.5-.4 2.5v2.3l.3 2.1.2 2.5-.2 2.3-.6 2.2v4.5l.2 2.7.3 2.2.2 2.1-.3 4 .8 2.7 1.3 1.5 3.2.4 3.2-.1 1.3-1.6zM157 8.7l.7-.6v.2h.2l.9-.2.2.3V9l-.2.4-.8-.1-.2-.3v.3l-.8-.1v-.5zm-.6 2.9l.2.4.7-.1.4-.3v.1h.7l.4-.3.4.1v.8l-.9.4h-.1l-.6-.2-.4.4v-.3h-.4l-.2.3-.8-.3.2-.6.4-.4zm.4 17.1l-.6-.8v-.8l1.2-.4 1.2.3-.1 1.3.1.2.3.6-.2.7h-.6l-.2-.2-.6.2h-.2v-.7l-.3-.4zm-1-7.6l.7-.2.3.1-.1 1-.6-.1-.7-.4.4-.4zm-.3-3l.4-.3.6-.1.2.3.3.1-.7.3-.8-.3zm2.8 3.9l.2.2.3-.3.3.9v.3l-.6-.3-.1.4h-.3l-.4.1-.8-.8V22h1.4zm-1.5 2.4l.2.9-.3.3-.7-.6h-.3l-.2.2-.8-.1.2-.7v-.2h.7l.2.1.3-.2.7.3zm2.5 8.1l.8-.3.6.6-.3.1-.4.2h-.9l.2-.6zm.8-14.4l-.1.2-.3.3-.6-.3-.6.3-.3-.3v-.4l.4-.3.3-.1.4.1.2-.1.7.1-.1.5zm-.9-2.6l-.2.4h-.8v-.7l.1-.3v-1h.7l.1.2.3.6.1.8h-.3zm-4-6.3l.7.6-.1.4h-.9l-.1-.3.4-.7zm-.3 12.9l.3-.2h.6l-.2.7-.4.7-.6-.7.3-.5zm.6 7.8l.2.7v.4h-.8l-.2-.2-.4-.6 1.2-.3zm-.8 7l.3-.1.8.3v.6l-.7.7-.8-.8.4-.7zm3.8 4.1l-.8.4-.7-.3-.1.3h-.4l-1-.3.3-.8.6-.3v-.7l.7.3.1-.4.4-.2.6.6v1.5h.3V41zm-3.1 3.9l.2.3v.8l-.4.1-.3-.2-.2-.4.7-.6zm-.8-1.7l.4-.6 1 .6-.1.2-1 .2-.1.3-.2-.7zm.9 3.9v.7h.2l-.6.3h-.1l-.3-.7.8-.3zm.9 9.6l.7.3h-.1l-.3.4h-.4l-.3-.3.4-.4zm1-9.7l-.6.1.6-.9.7-.1-.2.6-.5.3zm.4 3.7v.3l-.7-.2-.1-.6.1-.4.6.4.1.5zm-.2 8.9l.8.7-.4.7-.6.3-.7-1-.2-.2 1.1-.5zm.8 2.1l.9.7-.2.6-.9.3-.3-1.1.5-.5zm.4-10h-.4v-.9l.2.1.9.3.1.3-.8.2zm0-5.9l-.4.2-.3-.1.3-.7.2-.2.6.3-.4.5zm-4.1 14.1l-.1-1h1.2l.1 1-.4.4-.8-.4zm.8 1.9v-.3l.8-.3.6.1-.1 1-.3.1-1-.6zm1.8 10.8l-.7-.4.2-.3.7-.6.3.4.4.8-.9.1zm2.4-3.1l-1 1.1-.8-.8-.2-1.3 1-.8 1 .7v1.1zm1.1-33.3l-.8.6-.9-.6-.2-.4-.6-.2-.3.1V36l.1.7-.4.7h.2l.4-.4.6.2.6.7-1 .1-.1-.1-.4.1-.3.3-.8-.3.2-1 .1-.3-.2-.2v-.4h.1l-.7-.3-.6-.1-.1-.6.1-.2-.3-.6.2-.8-.2-.1.3-.4.7-.3.6.2-.1.3.2.3.7.9v.4l.1.4h.2l.4-.7.7.1.2.6 1.2.1.1.9zm3.3-27.5l-.6.6v.4l.2.6-.1.6v.8l-.9-.3-1.1-.1-1 .4-.3-.1-.4.2-.3-.8.4-.2.6-.2.6-.9.9-.3.1-.9-.2-.9 1.6-.8 1.2.7-.7 1.2zm1.6-.4l-.2.1-.6-.2-.1-.7.8-.3.4.1-.3 1zm2.1.1l-.9-.3.2-.9.9.1.7-.2.1.9-1 .4zm6.4-.6l-.3.2-.6-.2-.1-.6.2-.7.8.9v.4zm3.2 3.9l-.4.1-.4-.7.1-.2.3-.3.8.2-.4.9zm8.8-1.2l-.7-.4.8-.7.2.7.1-.1-.4.5zm2.7-.2l-.3.2-.8-.4.1-.4.4-.7 1 .8-.4.5zm4.8-1.2l-.6.9-.8.2-1.3-.2-.3-.8h-.1l-.1-.4.6-.2 1.9-.4.8.3.2.6h-.3zm2.6-.3l-.4.6-1.1-.7.2-.6.8-.6.8 1-.3.3zm5.7 10.9l.6.1.2.7-.1.2-1.1-.2.6-.6-.2-.2zm-.4-.1h-.2l-.6-.3.2-.2v-.8l.6.2v1.1zm-.3 3.3l.8.4v.4l-1 .3-.8-.1.1-.9.9-.1zm0 2l.7.7.1.4-.9.1-.6-.6.7-.6zm1.4 3.8l.3.1-.1.7-.7.7-.2-.7.7-.8zm-1-5.9l.1-.3.7-.7.2.8.3.7-1.3-.5zm.4-8.8l-1.1-.9-.1-.6-.1-.3.2-.1.3-.4 1.3.2.8.6-.1.9-1.2.6zm-.8-6.1l1.2.7.2 1.3-1.7.2-.8-.3-.4-1.2 1.5-.7zm-3.2 6.1l-.6.1-.4-.3.4-.9.4-.3.6.6-.4.8zm.1-2.6l-.1-.7 1.9-.2v.9l-.9.2-.9-.2zm1.2 1.3l.6.2.7.1-.1.6v.7l.7-.3.4-.1v1h-.7l-.6-.2-.2.2-.3-.3-.3-.7-.4-.3.2-.9zm.3 16.4h.8l.4.6-.6.4-.8-.4.2-.6zm2.2 38.7l-.6.2-.6-.3-.2-.6.8-.6.7.4-.1.9zm-.1-11.2l-.9-.4-.4-.8 1-.1.7.2-.4 1.1zm.9-5.8l-.1-.1-.3-.2-.4-.8h.8l.7.6-.7.5zm-.5-6.7l.1.6h-1.5v-.9l.1-.6.2-.8.8-1-.2-.5.6-.6 1 .7-.2.3-.2.4.6.3.2 1-1.5 1.1zM231.2 20.1l1.9-3.7.7-2.5.1-1.7.2-3.6-.2-3.5-.4-1.6-1.3-1.6L231 .2l-3.4-.2-3.6.8-1.7.9-1.3 1.6-.2 3.5.7 3.2 1.8 1.7 3.1.6 2.3.2v1.3l-2.6 3.9-2.1 4.1.9 2.3 2.7-.9 2.1-2 1.5-1.1zm-3.4-13.9l-.8-.3-.4-.2 1-.3.9.2-.3.4-.4.2zm.5 2.3v-.9l.7-.7.8.3-.1.8-.7.7-.7-.2zM292.6 78.5l.8-3.1-1.2-2.8-2.5-1.3-3.2.6-2.1.7-2.7.4-3.5 1.1-7.2-.7-2.3-.4-2.5-.1-2.5-1-1.6-1.3-1.6-1.1-1.9-1.5-1.6-2.1-1.3-1.6-1.3-2.2-1-1.9-1.2-2.6-.6-1.9-.1-2.6-.6-1.8-.4-2.5-.1-1.7h.1l3.1.1 2.7.3h4l6.8-.3 2.3.4h2l3.6-.6 2.7-.9.8-2.8-.8-3.1-2.6-.6-3.7-.6-1.9-.2h-2.3l-2.3.1-2.5-.1-2.5.1-2-.1-2.5.4-2-.3h-3l-.4.2.3-2.2.4-2 .3-1.8.4-2.7.7-2.3.8-2 1-2 1.2-2 1-1.8 2-1.7 1-1.5 1.7-1.5 2.1-1 2.3-.4 2.1-.9 2-.6h3.6l3.5.3 2.7.1 2.1.2 2 .7 2.7.9 3.6.7 2.6-1.3.7-3.1-2-3.8-3.7-1.9-2.6-.3-2.3-.7-2-.3-2.1-.2-3.5-.3h-3.2l-2.5.3-2.7.2-2.6.7-2.6.6-2 .7-2.1 1.2-1.9.4-1.8 1.3-1.7 1.6-2.1 1.6L248 14l-1.6 1.6-1 1.8-1.2 2.2-.8 1.7-1 2.7-1.1 1.7-.2 2.2-.7 2.2-.3 2.3-.3 2.6-.3 2.7-.5 2.3.1 3.5-.1 3.5.6 2.1.1 2.7.1 2.2.4 2.3.9 2.1.3 2.6.6 2.3 1.3 1.5 1.1 2.2.6 2.5 1.6 1.6 1.3 1.8 1.6 1.7 2.1 1.7 1.1 1.5 2 .6 1.9 1.5 2.5.9 2.5.7 2 .4 2.8.2 1.9.4 2.5.2h3.2l3.9.3 2.6-.4 2.3-.6h3.1l4.5-1.5 2.2-2zm-20.7-37.2l.3.2.1.6-.7.7-.3-.6-.2-.8.8-.1zm-1.9 1.6l.8-.2.4-.2-.1.7-.7.7-.6-.7.2-.3zm-13-1.2l.8-.4.2.7.1.1-.3.7-.8-.6v-.5zm29.9-31.9v-.3l.9-.4 1.3-.1.8.7-.1.2-.2.1-.1.9-.9.1h-1.3l-.4-1v-.2zm-2.8-.3l1.2-.4.3.7-.4.7-1.2-.4.1-.6zm-4.6.3l-.4.4-.3-.2v-.7h1.3l-.6.5zM277 6.5l1.1-1 1.2 1.1v.9l-1.6.6-1.2-.7.5-.9zm-4.2-.5l.4-.2.9.2-.3.4-.7.6-.4-.2.1-.8zm-6.5 1.6l.7.8-.1.7-.4.1-.1-.2-.3-.8.2-.6zm-3.8.1l.3-.6.1-.6.8.3.2.9-.2.6-.4.1-.3.4h-.4l.1-.8-.2-.3zm-1 3.6l.3-.2.8.3.1 1.1-1.1-.1-.1-.4v-.7zm-2.2-3.4h.8l.1.9-.6.2-.4-.3-.1-.6.2-.2zm-7 12.8l-.1.4-.4.6-.6.7-.7.4-.9-.4-.1-.6 1.2-1.1h.3l.1-.8-.4-.2.9-.3.7.1.2.6-.6.8.4-.2zm-3.2 6.5l.6.7-.2 1.1-.9-.4-.2-1 .7-.4zm-1.3.5l-.3-.6.2-.8.3-.3.2.7.2.4-.6.6zm5.5-12.8h.3l.8.4v1l.1-.2h.2l.2-.9-.7-.2.2-.2v-.6l.3-.4-.3-.4v-1.2l1.2-.8.9.2-.1-.3.1-.9.7.2.4.8-.7.2v.6l.3.9.3.2-.3.4-.7-.1.2.4.1 1.3-1.3.6-.1.8h-.1l-.6.3-.3-.1-.3.1-.4.2-.6-.4-.2-.6.1-.8.3-.5zm-3.8-.8l.8-.6h1.1l.3-.1.2-.7.3-.1.4.1.3.6-.8.2.1.8-.2.9-.1.6-.4.6.1.9.2.8-.7.4-.7-.6.4-.6-.4-.8.4-.1-.8-.7-1.1-.7-.2-.6.8-.3zm-3.2 5.2l.7.1.2-.1-.1 1.1v.3l-1-.4.2-1zm-.4 3.5v.6h.4l.2-.4.3.3.1.3.3.8.9-.1h.4l-.4.4-.2.7-.8-.4.1.1h-.3l-.7-.2-.3-.4.3-.2-.3-.1-.1.1-.9-.4-.2-.6 1.2-.5zm-3.8 7.9l.7-.7.6-.8v-1l1.1-.6.8.4.7.8.2.2.7-.3.4-.1.4.2.6.6.1.7.2.3-.6.4-.8-.4-.2-.6.3-.1-.4-.3-.1.3h-.6l-1 .3-.3.7-.2.2-.1.8-1.2.1-1.2-.3-.1-.8zm2 11.8l-.3.3.1.9-.4-.2h-.1l-.3-.8.1-.4-.1-.4-.1-.7.2-.6.9-.2-.2.7v.2l.4.2.3-.1h.3l.2 1.1-.7-.1-.4-.3.1.4zm1.7 4.6l-.7.1-.2-.7.8-.6.3.4.1.3-.3.5zm.7 3.2l-.7.4-.7-.8-.2-.6h.6l.7.2.3.8zm-.5 1.6l-.1.3.1.4-.7.2-.1-.3-.3-.7h1.1v.1zm-.8 4.7l.4-.3.4.4.2.3-.8.2-.3-.1v-.5h.1zm.9-.7l.8-.4h.4l.2.8-.7-.1-.2-.1-.5-.2zm0-18.6l-.3-.4-.2-.1h-.3l-.2-.3v.9l.2.3.1-.1.8.8.1.8h-.1l-1.1-.3.2-.3-.2-.7-.4.4-.2-.2-.6-.4.1.4-.9-.2-.1-.8h.6l.3-.1.3.3.2-.6-.1-1-.7-.3-1-.6.1-.2.4-.3V34l.2-.3.4-.2.2.3.8-.1.2-.2-.2.9.2.4v.8l-.1.1.2.1.6-.1.4.6h1.2l1-.3.2.2v.3l-.4.6-.4-.1v.6l-.6.2-.9-.5zm1.6-3.8l-.6.4-.4.7-.4-.7.2-.1.1-.7-.4-.1-.3-.9-.2-.1h-.7v-.7l1-.7.1.6.7.4.7-.1.3.9-.7.7.6.4zM242 46.4l.7-.1.1-.3.4.3V46l.8.3.1.6-.9.1-.3.2-.7-.3-.6.3.4-.8zm-.5 4.5l.8-.4.6.4v.3l-.8.7-.3-.4-.3-.6zm3.2 5.6l-.6-.2-.3-.6-.7-.1-1.2-.8.3-1 .8-.8 1.2.7.1.9.6.6.2 1-.4.3zm3.3 6.2l-1 .6-1.7-.9-.1-1 1.7-.3 1.1.4v1.2zm1.7-8.8l-.7-.1-.3.1.1.7-.9.6-.6-.4v-.7l.7-.1.3-.1.1-.9.7-.1.6.2v.8zm3.6 17.1l-.7.1h-.6l-.1-.9 1.1-.2.2.6v.4h.1zm.4-5.2l-.9.4.1.4v.3l.1.4-1.1.1.1-.4-.6-.2-1-.8-.2-1 .4-.4.4-.8-.6-.2.4-.4.7.6.2.3-.1.3.9-.4.3-.6.7.3.8 1 .1.3-.7.8zm4 6.5l-1.1-.2h.4l.7-.8.1.2.3.4-.4.4zm10.1 5l-.7-.4-.2-.6.7-.4.6.3.2.4-.6.7zM248.4 54l.2-.2h-.2zM316.4 51l.1.1-.1-.3zM377.8 83.7l-.3-2.3.2-3.2-.8-3.5-1.7-1.9-3-.4-3.6-1.2-.7-2.5-.2-2.2V64l.2-3-.3-3.5-.1-2.7V52l.2-2.1.2-2.2-.1-2.3-.2-4.4.1-3.6.1-3.5.3-2.5-.7-2.6.3-2-.2-2.5.1-2.2-.2-2.2.2-2.6-.2-2 .3-2.6-.8-3.5-.2-3.1-1.7-1.3-3-.4-3 .8-1.5 1.1-.6 3.4-.2 3.1-.2 2.8.2 2.5.1 2.5-.4 2 .1 1.8-.3 2.7.2 2.3.4 2.7-.6 3.4.4 3.5-.1 2-.1 2.8v2.5l.1 2.1.4 1.9-.3 2.3-.1 2.1v2.9l-.1 2.6v1.6l.1 2.2-.1 2.7-.1 2.3-.8 2.5-2.5 1-2.3.2-2-.1-2.6.2h-2.5l-2.1-.2-2 .2-2.2-.3-3.8-.3h-2l-3.6.3h-2.1l-2-.6-1.2-2.7.2-2.3-.3-2.3v-4.7l.2-2.5-.1-1.9-.3-2.8.1-2.2.1-2.7.1-2.1-.3-2.6.6-2 .1-2-.3-2.8-.3-1.9v-2.7l.2-2.2-.2-2.3.1-1.9.2-2.3-.1-2.6.1-2.2-.1-2.3v-2.2l.1-4-1-3.2-1-1.1-3.2-.7-3.6 1.3-1.1 1-.6 3-.1 3.5v2.3l-.1 2.5v2.3l-.6 2.5.2 1.7v2.6l.2 2.3-.2 2.2.1 2.6v2l-.1 2.5.2 2.5-.3 2.1.6 2.3-.1 2.1-.1 1.9v2.6l-.4 1.8.6 2.5v2.7l-.1 2.1.1 2.3-.3 1.9.1 2.8.1 2.1-.2 2.6.4 2.9.7 3.4 1.2 2.1 3.4.1 3.4.2 2.5.6 2.1-.8 2.1.4h2.7l2.5.3 2.6-.2 2.1-.1 1.9.1h2.6l4.7.2 2.3-.4h4.6l2.5-.1 2.5.3 2.1.1 2.7-.2 2.3-.2 2.5 1.3 1.2 1.8-.2 2.5V90l-.1 2.1.2 2.6 1.3 3.5 2.9.4 3-1 1.3-3 .3-3.2.2-2.3.1-2.7-.6-2.7zm-61-25.2l-.7.6-1-.1.1-.4.4-.8-.4-.9 1.1-.2.2.6.2.7-.1.4.2.1zm-2.5 3.7l.3-1 .8.4v.6l-.2.6-.1.8-.1.3-.9-.3.3-1-.1-.4zm.6-2.1l-.7-.3-.1-.3.6-.3.7.4v.4l-.5.1zm-.9-6.3l.4-.2.8-.2.3.8-.7.3-.8-.1v-.6zm2.5 2.8l-.3-.8.1-.6.7-.7h-.5l.3-.7V53h-.2l-.7.4-.3-.2.2-1-.6-.7.2-.1.2-.3-.7-.8-.1-.6.8-.6.9-.1.1-.1h.6l-.2.7.7.4-.2.9-.7.3-.1-.1-.2.1.1.2-.3.4.3.8.1-.1.1-.3.3.4.2.3.2.6.3-.1.6.6-.1.1-.1.4-.4-.3h-.2v.6l-.1.8-.1.4.1.4-.6.1-.4.1zm1.7-5.7l.4.3-.2.6-.1.4-.9-.3.2-.7.6-.3zm0 10.4l.2.3.6.9-.8.1-.7-.6-.1-.7h.8zm-3.3-21.5l-.9-.8.2-.1.2-.7.3-.4 1-.3 1.1-.3.7.3v.8l-.4.1.2.1.1.3.2-.2.2-.1h.8l.1.9h-.7l-.4.2-.4-.1-.9.3h-1.4zm.4 4l-.4.1-.9.1.1-1.1.4-.3.3.4.5.8zm.1-12.8h.2l.6-.4.2.2-.2.3-.1.2-.7-.3zm2.2 2.3l.2-.8.7.6-.1.4.4.7-.2.6-.1.3-.9-.4V34l.3-.6-.3-.1zm.4 2.6l.7.7-.4.9-.8-.4.2-.9.3-.3zm.4-4.8l-.1.3-1-.1.2-.3.2-.8.7.1.6.4-.6.4zm-2.8-21.5l1.6.8-.1.8-1.3.4-.8-.1-.4-1.7 1-.2zm.8 7.3l-.1.9-.1 1.1-1.1-.4.1-.3.2-.6.2-.9.2-.3.6.5zm-2 11.6l.7-.2.6-.2.4.2h.6l.4-.4.1.6.4-.3h.6l.1.6-.4.4h-.1l-.6.1.3.2-.2.9-1.2-.3.4-.6.1-.7-.1.1h-.7l-.4.4.2.7h-.8l-1-.1-.1-.6.7-.8zm.3 15.7l.3.8.8.1.2-.3-.4-1.3 1-.4 1.1.9.4.8-.4.7.6.4.2.3v.8l-.8.6-.6-.1.1-.2.4-.6-.2-.2-.4.1.1.3-1.3.9-1-.2-.7-.1.2-.8-.1.1-.2-.1-.2-.6-.1-.6 1-1.3zm1.5 28.6l.1 1 .1.3-.6.4-1 .4-1.2-.2-.1-1.3 1.1-.4.8-.6-.3-.4.7-.1.9.2-.7.2.2.5zm1-3.2l-1.2 1.1-1.1-.4v-1.5l1.1-.7 1.2.8v.7zm1.5 3l-.4.1-.7-.2-.3-.6 1-.3.6.6-.2.4zm.8-.9l-.2.2-.7-.4.3-.4.4-.2.4.2-.2.6zm-.1-4.8l-.8-.2.3-.2.6-.4h.2l.3.4-.6.4zM331 77l-.2.3-.9-.1.1-.7h1.1l-.1.5zm-.2-1.8l-.4-.2.3-.7.3-.2.2.6.3.4-.7.1zm4.5 1h-.7l.4-.9.7-.3.2.2.1.8-.7.2zm2.9-1.5l-.7.3-.7-.7.8-.3.8.4-.2.3zm1.9 1.5l-.6-.4-.3-.4.1-.1.2-.8h.7l.2.1.1.7v.1l.1.7-.5.1zm2 1.1l-.2.1.2-.6-.3-.4-.1-.8.4-.6.6.6-.1.4.2.3.3.7-1 .3zm2.7 0l-1-.1.1-.7h.8l.6.1.3.7h-.8zm1.5 0l-.1-1 1-.3.3.9.2.4h-1.4zm5-.2v-.8h.2l.3.4.1.6-.6-.2zm2.8 0l-.2.4-.3-.3-.3-.2.6-.4 1-.2-.8.7zm2.4-1.8l-.2-.2-.8.1.4-.6-.3-.6.3-1.1.6.1v2.3zm8.8-38.4l-.2 1.2-.8.4-.2-.6-.7.2.1.2-.8-.4-.3-.6 1-.3v.1l.3.1.7-.6.9.3zm-1.6-9.3l-.7.3-.1.8.1.8-.7.9.2.1.1.6-1 .1-.1-.1v-.3l-.1-.8-.7-.6-.3-.4.1-.3.1-.2.9-.4.7-.1.4-.6.6-.8-.1.4.6.6zm0 6.8l-.6.7-.8-.8v-.6l.2-.2v-.8l.9-.2.3.7-.3 1.1.3.1zm-1.8 1.3l.4.8.4.2-.9.6-.3-1 .4-.6zm2.5-23.4v.7l-.7-.1v-.6l.6-.3.1.3zm-1.4-1.5l.6-.3.1 1-.6.4-.6-.6-.2-.3.7-.2zm-.7 10.6l1-.2 1 .2.1.7.3.7-.4.2-.4.7-1.3-.2-.7-.8.4-1.3zm-1.5 2.2l.8.4-.1.1-.3.2.7.2h.7l1.3-.3-.1.2.7.1.3.1-.4 1.1-.3-.6-.4.4-.3-.3-.7-.1-.7.9-1 .4-1-.2-.6-.9-.1-.4.3-.1.8-.1-.2-.6.4-.8.2.3zm-1.8-6.9l.3-.3.3-1 .6.3-.6.4.4.9.1.6-.9-.2-.4.2.2-.9zm-.1 3.1l.4-.8.6-.1.1.4-.3.9.1.7h-.2l-.7-.3.3-.6-.3-.2zm.8 10.8h.8l-.1.3-.9.7-.4-.4-.2-.4.8-.2zm.4 3.6l-.3.7-.7-.4.8-.7.1.3.1.1zm-.5 10l.8.3.1.6h-.4l-1-.2-.1-.7h.6zm3.8 9.3l-.4-.2-.6-1 .7-.2.9.7-.1.6-.5.1zm.3 3.2l-.3.3-.6-1.2.3-.2.3.6.3.5zm-1.3-1.7v.4l-.3.2-1-.4-.2.3-.7-.2.1-.9.3.1.9.2.2-.2.2-.3.5.8zm0-8.3l.7-.6.6.8-.3.8-.6-.3-.4-.7zm1-1.7l-.1.2h-.2l-.3-.2-.4-.6.9-.1.2.1.2-.3h1.2l-.2.8-.3.3-1-.2zm-.6.5l-.2.7-1 .6-.4-.7.2-.8.2-.3 1.2.5zm-1.4 6.4l.2 1.1-.9.6-.3-.3-.1-1 .6-.3h.5v-.1zm-2-5.2h.9l-.3.8-.4.3-.6-.6.4-.5zm.3 28.8l-.7-.7.1-.7.4-.3.3 1.1-.1.6zm.2-15.8l.4-.3-.3-.3.7-.6.6-.6.1-.2-.1-.6h.3l.4-.1.2.4.4.6.9.1-.1.8-.2.3-.4.3.1.7 1.1-.2h.7l-.4.7-.1.6-.7-.3h-.2l.1.7-.1.3-.7.7-.2-.6v-1.3l.1-.4-.3-.3-.7.4-.2.8h-.3l-.9-.3.1-.3-.3-1zm5 3l-.2.7-.4.1h-.7l.1-1 .4-.3.8.5zm-2.3 4.4h-.6l-.7-.6.6-.3.6-.1.1 1zm.3 2.7l-.6.2-.6.6-.9-.1v-.9l1.2-.3.2-.1.3-.7.6-.1.2.2.1.4-.5.8zm1.6 4.2l-.4-.4.1-.6.9.4-.6.6zm-.2-32.1l-.9.4-1.2.6-1.3-.2-.6-.3v-.3l.6-.9-.1-.9-.4.2-.4-.5.1-.7.6-.4.2-.3.6.3.3-.2.6-.1.2.4-.3.7-.2-.1-.6-.1-.2.1.2.1v.5l.9.1.7.1-.4-.3.2-.1.9-.8 1 .2.7 1.1.2 1-1.4.4zm3.4 35.8l-.8-.4.1.3.1.9-.8.2-.7-.4-.1-.2 1.1-.4-.2-.6.3-1.1h.6l.8.2.3 1.3-.7.2zm1.7-2.8l-.7.3-.4-.8.1-.4.7-.2h.4l-.1 1.1zm2-.1h-.6v.3l-.1-1 .8-.2.1.7-.2.2zm2.3 10.6l-.2-.1-.4.1-.1-.8.8-.1.4.1-.5.8zm.1-1.8l-.8-.3-.3-.3.3-.7.9.6.3.2-.4.5zM16.1 119.6v-.7l-.1-.6v-.7l.1-.6v-.8l-.1-.5v-.7l-.1-.6v-1.1l-.3-1-1.1-.1-.9.1-.4.7-.2.5-.6-.1-.4-.5-.5-.4-.7-.1-.6-.2-.7-.2-1-.1-1 .1-1.5.1-.6.2-.6.4-.6.5-.4.5-.4.4-.5.7-.3.5-.2.6-.1.7-.1.7v.9l-.2 1.5-.1 1.1.2.7v.6l.2.6.1.6.3.7.3.5.3.6.4.5.3.6.4.4.8.5.9.4.5.1.7.2.9-.1 1 .2.8-.3.5-.2.5-.3.6-.3.4-.4h.4l.3.6v1.1l-.1.7-.3.6-.4.6-.3.5-.4.5-.6.2-.8.2-.5.2h-2l-.7-.2H6l-.6-.3-.6-.2-.7-.5-.9-.2-.6.4-.4.9.5 1.1.9.3.6.3.7.1.5.3.7.1 1 .2h2.5l.6-.1.8-.2.5-.2.7-.2.8-.6.8-.6.5-.4.4-.5.2-.6.3-.7.2-.6.2-.8.1-.7.1-1v-1.1l-.1-.5-.1-.7.1-.7v-.7l.1-.6-.1-.6v-1.3l.1-.7.3-.2zM6.3 133l-.4.1-.3-.1v-.5l.3.1.5.1-.1.3zm7.6-7.5l-.2-.1.1-.1.2-.1.1.1.1.1-.3.1zm.2 3.4v.2l-.2.1-.2-.1.1-.2h.3zm.3-11.4l.1.1-.2.1-.2.1v-.3l-.2-.1-.2-.1v-.4l.5-.2.3.2-.1.2v.4zm-.7 4.4l.2-.2.2.3v.3l-.1.1h-.2l-.2-.1.1-.2v-.2zm0 3l.3-.3.1.2-.1.2-.3-.1zm.2-1.2l-.1.1v-.3l.2-.1h.2l-.1.2-.2.1zm.2-2.6h.3v.3l-.1.1-.1-.1-.1-.3zm.3.7l.1-.1.1.1v.3l.1.2h-.3l-.1-.2.1-.3zm.2-2.9l-.1-.1-.1-.2.2-.1.1.1.2.3h-.3zm-.4-5.5l.1.1.1.2h-.1l-.3-.1.2-.2zm-.8.1l.1-.2v-.2l.2-.2.1.1v.2l-.2.2v.3l-.1.1-.1-.1h-.1l.1-.2zm0 1l.2-.1.1.1.1.2.1-.1v-.1l-.1-.1v-.2l.1-.2h.2v.3l.3.1.2.2.2.2v.2h.1l.1.2-.1.2-.4-.1.2-.3-.1-.1h-.4l-.2-.1h-.3l-.1-.1.1-.2h-.3zm-.1 1.2l.3-.2.4.3-.1.2-.3.1-.4-.2.1-.2zm-.6-1v-.1l.1-.1.2.1-.1.1.1.2-.3.3-.1-.1.2-.1-.1-.3zM8 112.3h.2v.2l-.2.2-.1-.1v-.2l.1-.1zm-1.5.1l.3-.2.2.3-.2.1h-.3v-.2zm-.9 1l.1.1.1-.2.2.2v.1h-.4l-.1.1-.2-.2-.1-.2.4.1zm-1.1.3l-.4-.2H4l.2-.2.2-.2.6-.1-.1.2v.2l-.1.2h.4l.2.1-.1.2-.1.1v.1l-.2.1-.1.3-.3.2h-.4l-.3-.2v-.2l.2-.2.1-.1v-.1l.2-.1.1-.1zm-1.2 1.2l.3-.1h.1v.2l.1.1v.2l-.1.3.1.1-.2.1-.1-.1v-.2l-.1-.2.1-.1v-.2l-.2-.1zm-.7 1.8l.2-.1h.3l.3.1v.1l-.1.2v.2l-.3.1h-.3l-.4-.1v-.2l.3-.3zm.6 3.8l.1.2.2.1-.1.2v.1l-.1.1-.1.1h-.1l-.2.1h-.3l.1-.3.1-.2.2.2h.2l-.1-.3-.1-.1-.2-.1-.2-.2v-.1l.1-.2v-.1l.1-.2.3.2-.1-.1.2-.1.2.2-.1.2h-.1l-.1.1.1.2zm-.7-.8l-.1-.2.1-.2h.2l.1.1v.3h-.3zm.8-1.1l-.2-.1v-.2h.2l.1.2v.1h-.1zm-1-.2h.2l.1-.1.2.2-.2.1h-.1l-.2-.2zm.2 3.4l-.1-.1v-.3l.2.1v.2l-.1.1zm1 .6l-.1.2.1.1-.1.2-.2-.1H3l-.3-.1.1-.1.1-.1.1.1h.2l-.2-.1v-.2l.1-.1-.1-.2.2-.1h.1l.1.3.1.2zm.2-.7h-.2l-.1-.1.1-.2.3.2v.1h-.1zm.1-4.4l-.1-.1-.2.1h-.1l-.1-.2h.5v-.1l.1-.1.1.2.1.3h-.2l-.1-.1zm.9 8.3l-.2-.1-.1-.2.1-.2-.3-.1h.4l.1.6zm-.1-1.8l-.2-.2-.2-.2H4v-.5l.3-.2.5.3.2.1v.2l.1.3-.5.2zm4.1 3.1l-.1.1-.3-.1v-.2l.1-.2.3.2v.2zm4.3-4.3l-.2.6-.2.8-.3.5-.5.6-.5.3-.5.4-.7.2-2-.1-.7-.1-.6-.3-.6-.5-.3-.5-.3-.7-.2-.5-.3-.7v-.6l-.1-.8v-1l.1-1-.1-.9.1-.5.2-.7.3-.6.6-1.3.5-.4.7-.3.6-.2 1-.3 1 .2.7.2.5.4.9.9.4.6.1.6.2.7.3.7.1.7-.1 1.1.1 1-.1.5-.1 1zm.2 2.6v-.1l.1-.2h.2v.2l-.3.1zm.2 4.7l.2-.2.3.1v.2l-.2.1-.2-.1-.1-.1zm.7 1.5l-.4-.1v-.3l.3-.2h.3v.3l-.2.3zm.3-1.7l-.1.1-.1-.1v-.3l.1.1.1.1v.1zm.2-5.6l-.4-.2.1-.3.2-.2.4.2.1.3-.4.2zM13.9 115l-.1-.2.1-.1-.1.1zM35.2 119.5l-.1-.6v-.8l-.3-.6-.4-1.3-.2-.7-.3-.5-.2-.7-.7-.6-.8-.8-.6-.3-.6-.4-.6-.2-.6-.1-.8-.1-.9.1h-1.8l-1.3.4-.6.2-.7.5-.5.4-1 .9-.2.7-.6 1.2-.2.5-.3.6v1l-.2 1 .1 1.1-.1 1 .1.7.1.6.3.7.2.7.3.5.2.6.1.8.6.8.6.8.5.4.6.3.6.3.6.3.6.1h.7l1 .1H29l.7-.2.6-.2.6-.2.6-.2.6-.3.5-.3.5-.6.4-.4.4-.7.4-.6.2-.5.2-.7.2-.7.3-.7v-1.3l-.1-1 .1-1zm-2.3-4.2l.4-.1.4.1v.3l-.3.3-.5-.2v-.4zm.9 1.1l-.1.1-.1-.2.1-.1.1.2zm-2.1-3l.2-.1.2.2.1.1-.2.1.1.1-.1.1-.1.1-.1-.1.1-.2h-.1l-.1-.1v-.2zm-.9-.3h.2v.3l.1.2-.1.1.1.1.1-.1.1.1-.2.1-.1.1v-.1h-.4v-.2h.1l-.2-.1.1-.2.1-.1.1-.2zm-.8-.4l.3.1.1-.1h.1l-.1-.2.2-.1v.1h.1l.1.1-.1.2v.1l-.2.1h-.2l.1.1.1.3-.4.1-.3-.1-.1-.1v-.4l.3-.2zm-6.5.4l.2-.1.1.1.1-.1.1.1.1.1.1.2.1.1-.1.2-.2-.1-.1-.1-.2-.1h-.2l-.2-.1.2-.2zm-.1.8l.1-.1.1-.2.1.1v.3l.1.3h-.2l-.2-.1v-.3zm-1.6 1.7h.2l-.1.1h-.2l.1-.1zm-.2 1.1l.1-.3v-.2l.2-.1.2.1v.9l-.2.1-.1-.2v-.2l-.2-.1zm.4 1.9v.3l-.2.1-.1-.2v-.2h.3zm-.6-.5l.3.2.1.2h-.2l-.2-.1-.2-.1.2-.2zm-.2 2.3l.3-.1.4.2.1.3v.3l.2-.1v.3l-.3.1-.1-.1v-.2l-.1-.1-.5-.2v-.4zm1.1 3.1h.2l-.1.3-.2.1-.2-.2.1-.1.2-.1zm-.7-1.6l-.1.3-.3.2-.4-.2.1-.4.3-.1h.3l.3.1-.2.1zm.7 3.9l-.5-.1.1-.3h.7l.1.4h-.4zm.6-1.7l-.1.1.1.1-.3.1h-.3v-.3l.2-.1.1-.1.2-.1h.2v.2l-.1.1zm.1-8.6l-.1.2-.2.1-.1.1-.4-.2v-.1l-.2-.1.1-.2.1-.2.1.1.2.1h.2l.1-.1h.2v.3zm.2-.6h-.5l-.3-.1v-.3h.1l-.1-.1-.1-.2.1-.1.3-.1h.1l.1-.1.1-.2.2-.2h.3v.1l-.1.2-.1-.1h-.1l.1.1-.1.2.1.1.2.2v.1l.1.2-.4.3zm.3 11.4l-.1-.1v-.3l.2-.2.2.2v.1l-.3.3zm7.8 0h-.2l-.1-.1.2-.2.1.2v.1zm.8-4.6l-.1.5-.2.8-.1.5-.3.6-.2.7-.3.7-.5.4-.5.4-.6.3-.9.1h-1.6l-.7-.1-.5-.2-.5-.6-.5-.5-.3-.5-.3-.7-.2-.5-.2-.8v-.5l-.1-.8v-1l-.1-.9-.1-.8.2-.7.1-.5.2-.7.4-.5.4-.4.4-.7.5-.4.8-.3 1.3-.3h.9l.5.3.7.3.6.4.2.5.5.6.2.6.2.7.2.6.1.5.1.8-.1.9.4 1.2zm-.1-6.2l-.1-.1-.1-.3.1-.1h.1l.1-.1h.2l.2.2-.1.1-.2-.1.1.1-.3.3zm.4 1.1l.1-.1-.1-.3.4-.1.2.2.3.1v.1h.2l.1.1v.2h-.3l-.1.1h-.4v-.1l-.3.1-.1-.3zm.6 4.4l.2.1v.3h-.1l-.1.3v.1h-.2v-.6l.2-.2zm.6 1.8h-.3l-.1.2v.4h-.3l-.3-.1-.1-.3.4-.2.1-.2.2-.1.2.1v.2h.2zm-.4-4.2l-.2-.2-.1-.2.3-.2.5.2-.1.1.2.2h-.1l-.1.2-.4-.1zm.6 2.4v-.4l.3-.1.2.1v.4h-.5zm.5-.8l-.1.1h-.4l.1-.2.1-.2-.2-.1.3-.2.2.1-.1.2.1.3zM50.1 126.6l-.8.1-.8.1-.7.3h-.9l-2.3-.4-.5-.4-.6-.4-.4-.4-.3-.7-.3-.6-.2-.6-.2-.6-.1-.7-.2-.5v-1l.1-1 .1-.8v-1l.2-.6.4-.5.2-.6.4-.6.5-.4.6-.4.5-.3.7-.1 1.1-.1h1.1l.7.2.6.1.9.1.6-.2.2-.8-.6-1-1-.4-.6-.2-.5-.1h-.7l-.9-.1-2.1.3-.9.1-.7.2-.6.4-.5.4-.4.4-.5.5-.3.5-.3.5-.5.5-.2.6-.1.7-.2.5-.3.8-.1.6v2.8l.1.6.1.7.1.6.1.7.3.8.3.6.4.4.3.6.5.5.5.5.5.4.8.4.5.2.5.2.8.2.6.1 1.1.2h1l.6-.1h.7l.6-.2 1-.4.6-1.1-.1-1-.5-.1zm-1.2-13.9l.2-.2.1.2-.2.1-.1-.1zm-.7.2h.3l-.1.3-.2-.1v-.2zm-2.4-.7l.3-.2h.5v.4l-.3.2-.4-.2-.1-.2zm-.6 0h.2v.2h-.2l-.2.1-.1-.3h.3zm-1.1.4l.2.2h-.1l-.1-.2zm-2 .5l.2.1.1.1h.4l.1-.1v-.2l.2-.2.1.3h.1l-.1.3h.1v.1l-.2.2-.3.2-.3-.2-.1-.2-.1-.1v.1l-.1.1-.2-.1v-.1l.1-.3zm-1.5 1.4v-.2l.2-.1.2.2-.1.3v.1l-.1.2-.2.1-.1-.1v-.3l.1-.2zm-.3.9l.4.2.2-.2.3-.2-.1.1.1.3-.1.1-.1.2h-.2l-.2-.2v-.1l-.2-.1-.1.1v-.2zm-.1 3.8l-.2-.2-.1-.1.2-.1h.2l-.1.4zm.1.8v.2l-.1.1-.1-.2-.2-.1.3-.1.1.1zm0 .2h.3v.2h-.1l-.1.1v-.3h-.1zm-.5-3.8h.4l-.1.1h-.3v-.1zm-.2.3h.2l.1.3-.1.1h.6l-.2.2-.1.1-.1-.1-.1.1-.2-.1v-.3l-.1-.1v-.2zm.1 1.6l.1.4h-.1l-.2-.1-.1-.1.3-.2zm-.6.7l.1-.2.2-.1.1.1v.3l-.1.1-.1.1-.1-.1.1-.1-.2-.1zm.8 3.2l-.3.1v-.3l-.1-.2.1-.2h.2l.1.2v.4zm0-.7l-.1-.3-.2.1-.1.1h-.1v.2l-.1-.3v-.1l-.1-.2v-.3l.4-.1.3.1.1.4v.2l.1.1v.1l-.1.1-.1-.1zm.2.4l.1-.2.2-.1.1.1v.2l-.3.1-.1-.1zm.1 2v-.3h.2l.3.1v.2l-.3.1-.2-.1zm.8.3v.2l-.2.1-.2.1-.1-.1v-.3l.3-.1.2.1.1-.1v-.1l.2.1.1.1H41zm.4-9.2l-.1-.2.1-.2.2.2h.1l-.1-.1v-.4l-.1-.1.3-.1.1.1h.1l.1-.1h.2l-.1.3H42l.1.2-.1.3.2-.1h.3l-.2.2-.1.2H42l.1-.1-.1.1h-.4l-.2-.2zm.6 11.4l-.2-.1h-.2l-.1-.3.3-.1.2.1v.4zm.7 1.4l-.2-.2v-.3l.2-.3.3.2.2.3-.5.3zM56.2 113.7l.1.1v.1l.1-.2-.1-.1zM76.9 123.2l.1-.6.1-.7-.2-.7.1-.7v-.6l-.1-.6v-2.9l-.1-.7-.3-.7-.2-.7-.4-.6-.4-.5-.4-.5-.7-.4-.5-.2-.6-.2-1.1-.1-.9.2-.7.1-.8.2-.6.3-.5.2-.9.7-.6.9-.2.1-.3-.4-.7-.8-.7-.8-.7-.5-.6-.1-1-.1-1.1-.1-.6.1-.5.4-.6.3-.6.3-.3.4-.4.4-.4.2-.4-.6-.5-.9-.9-.3-1 .3-.4 1.1v3.1l.1.7-.1.7.1.6v.7l-.1.6.1.6.1.8-.1.6.1.8-.1.6v2.1l.2.6-.1.6v1.1l.3.7.3.5.9.1.8-.2.3-.2.3-1 .2-.9-.1-.6v-3.5l.1-.7v-1.7l-.1-1.1.2-.7.1-.6.2-.7.6-.9.5-.8.6-.4.6-.2.9-.1 1.1.1.6.3.5.4.2.6.2.6v.6l.1.6.2 1v1l-.1.7.1.7-.1.6.1 1.1v2.1l.1.8v2.1l.1.9.4.3 1 .3.7-.3.5-.4.1-.7v-1.7l.1-.6v-.7l-.8-1.1.1-.7v-4.1l.2-.6.1-.8.1-.7.3-.6.3-.7.4-.5.5-.4.6-.2 2.1-.1.6.4.4.3.3.5.3.6v.6l.2.7.1.9-.1 1.1.1 1.2v.9l-.1.6v.7l-.1.7v.8l.1.5-.1.7v1.7l.2.8.5.5.8.2.8.1.5-.6.2-.8.1-1v-1.2l.1-.6-.1-.8.1-.8zm-20.6-10.6v.2l-.2.1H56l-.1-.2h.4v-.1zm-.8 10.1l-.1.1-.2-.2.1-.2h.1l.2-.1-.1.4zm.1-6.2l.1-.1.1.2.1.2v.2h.1l.2-.1.1.2h.1l-.3.2-.1-.2-.1.1v.3h-.1l-.3-.1v-.4l.1-.2v-.3zm.9 2.1l-.3-.1.1-.2.2-.2v.5zm.1.6l-.1.3v.1l-.2-.1v-.1l.3-.2zm-.2-3l-.2-.2h-.1v.2l.1.1-.2.1h-.2l-.1-.3v-.3l.3-.1v.1h.2v-.1l.2.1.1.2-.1.2zm-.8 4.7l-.1.3-.2.2v-.1l-.1-.2h.1l.3-.2zm.2.8l-.2-.1v-.2l.1-.1.2.2-.1.2zm0-3.1l.2-.1h.2v.2l-.1.1-.3-.2zm.4 7.9l-.2-.1-.1-.1.1-.1h.2l.1.1-.1.2zm.2-2.7l-.1-.1.1-.2v-.1l.2.1.2.2-.4.1zm.8-8.5v.3l-.1.1-.2-.1-.1.1-.3-.1v-.3l-.2-.1v.1H56v.1l.1.2h-.2l-.1-.2v-.3l.1-.1-.1-.1h-.2l.1-.3.2-.2h.2l.1.1.1-.1.1.1h.1l.1.3-.1.2h.1l.3-.1.3.1h.1l.2-.1v.4h-.3zm.2-.7h-.7v-.2l-.1-.1h-.1l-.1-.2.1-.2h-.3l-.1-.1-.3.1-.3-.1-.2-.2h-.1v-.3l.3-.1h.2l.1.2h.3l.2.1.2-.2.1.2v.1l.1.3h.2l.1.1v-.2l.2-.1.1.1-.1.1.1.2h.1l.1.3.1.1-.2.1zm.8 0l-.1-.1-.1-.2h.2l.1.1.1.2h-.2zm2.6-1.3l-.1-.1h-.1l-.1-.1v-.6l.3-.1.1.1-.1.2.2.3-.2.3zm.6 0l-.3-.2.1-.2.2-.2.3.2.1.2-.4.2zm1-.7h-.2l.1-.3.2-.1.1.2-.2.2zm1.2.3l-.1.1-.3-.2.1-.3h.3v.4zm2.1 1.5h.2v.1h-.1l-.1-.1zm-.6-.7l.2.1v.1l-.1.1-.2-.1-.1-.2h.2zm-.9-.5l.1-.3v-.1l.3.1v.3l-.2.1-.2-.1zm.2 1.8l-.1-.1v-.1l.1-.1.2.2-.2.1zm.3 1.2l-.1-.3h.1l-.1-.1v-.1l.1-.2h.2l.1.1.1.2v-.6l.2-.2.1-.2.2-.1v.1l.1.2.2.1.1.1h.1l-.1-.2v-.1l.2-.1v.2l-.1.4v.2l-.2-.1-.1.3.1.1v.4h-.2l-.1-.1v-.2l-.1-.1-.1.1.1.3.1.1v.2h-.2l-.3.1-.4-.5zm.8.9l-.2.1v-.1h-.2l-.1-.1-.1-.2h.1l.2.1h.2l.2-.1v-.2l-.1-.1.3-.1h.1v.2l-.3.1-.1.4zm.1.5v.2-.2l-.2-.1.2-.1v.2zm-.3 5.3l-.1.1-.3-.1v-.2l.3-.1.2.1-.1.2zm0-1.4v-.2l.1-.1.1.1.1.2h-.3zm.4 3l-.1-.1.1-.4h-.1l.1-.2.1-.2.2.1v.2l-.1.1.1.2.1.2-.4.1zm.5-6l-.3.1-.2-.1.1-.2v-.1l-.1-.1.1-.2.3.1.1.5zm.3-1.5l-.2.1H66l-.1-.2h.5v.1h.1zm.9-1.3l-.2.2-.1-.1v-.3l.2.1.1.1zm.4-.8l-.1.1h-.3l.1-.2.1-.1.2.2zm3-1.7l-.1.1-.1-.1v-.2h.3l-.1.2zm.8-.6l-.1.1-.3-.2.1-.2.2-.1.1.1v.3zm2.3 2h-.3v-.1l.2-.2.1.1v.2zm.3.9H74v-.3l.2-.1v.4zm-.1-1.5l-.3.1-.3.1-.3.1-.4-.1v-.4h.4l.3-.3v-.1h-.1v-.1l-.1.1h-.5l.1.2h-.3l.1-.2.1-.2-.3-.2.1-.3h.4l.4.2.1.1v.2l.1-.2.2.1h.1v-.3l.1-.2.2.1v.6l.2.2v.2h.1l.1.2-.5.1zm.3-.5v-.1l.2-.2.1.1-.1.2h-.2zm.7 11.6l-.1.1-.2-.1-.1-.2.2-.1.2.1v.2zm-.1-6.3l-.3.1.2-.3v-.1l.1.3zm0 5.6h-.3v-.2h.2v.1l.1.1zm0-6.3l-.3-.1v-.3h.3l.1.1-.1.3zm.5-.9l.1.3-.2.1-.1-.2-.1-.1.3-.1zm.3 9.3h-.2l-.2-.1v-.1l.2-.2.2.2v.2zM94.5 126.7l-.6-.5-.3-.8-.1-1v-1.6l.1-.7v-1.3l.1-.7-.1-.8-.1-.6.2-.7-.1-1.1-.2-1.2-.4-1.2-.3-.6-.4-.5-.5-.3-.6-.3-.6-.3-.7-.3-2.5-.2-.9.1-.8-.1-.6.2h-.7l-.6.2-.5.2-.9.3-.8.9.3 1 .7.3.8-.1.8-.3.7-.1.5-.3.6-.1 1.1-.1 1.1.1.7.2.8.5.3.6.3.6.1 1v.9l-.4.5-.6.3-.5.1-.9-.1-1 .1-.8.1h-.8l-.7.3-.6.2-1.1.2-.7.6-.5.4-.4.6-.3.6-.1.6-.3.6v1l.1 1.2.1.7.4.6.4.9.7.7.6.4.6.3.7.1.7.2.9.1 1.1-.1.7-.2h.5l1-.6.8-.6.4-.5.3.2.5.7.9.7.6.2 1 .1 1-.3.3-.9v-.9l-.5-.4zm-11.2-13.2l-.2-.1-.1-.2.1-.2.1-.1.1.6zm1-.8v.2l-.1.2h-.5l.1-.3.1-.2.2-.1h.2v.2zm1.8-.2v-.2l.3-.2.2.2-.1.1h-.4v.1zm.7.3l-.2-.1v-.3h.2l.1.1-.1.3zm1 .1l-.3-.1v-.3h-.1l-.1-.1v-.3l.1.2.1.1.1.2h.2v.3zm.9-.5l-.3.1-.4-.2.1-.2.1-.1h.5l.1.1-.1.3zm.6.7l-.2.1v-.3l.2.1v.1zm-6 11.4l-.3.1-.3-.1v-.1l.4-.1.2.1v.1zm-.2.9h-.2l-.2-.2v-.1l.1-.1.2.1.1.3zm-.1-4.1v.4l-.2-.1-.1-.2.3-.1zm-.5.4l.2-.1v.3h-.4l.2-.2zm-.7 2.1l-.3.2h-.2l-.1-.1.3-.1h.3zm-.1-1.9l.1-.2v-.1l.2.1v.2l-.1.1-.2-.1zm.4.9h.4v.2l-.1.2h-.3v-.4zm.2 2.1h-.2l-.1-.1.3-.2.1.1v.2h-.1zm.1-1.2l.1-.1h.3v.3l-.1.1-.2-.1-.1-.2zm.8 3.3l-.3.1-.3-.2v-.2l.4-.2.3.2-.1.3zm.7-6.3l-.2.1-.1-.1.2-.1.2-.1-.1.2zm1.5 7h-.7l-.1-.5.3-.1h.2l.3.2v.4zm5-4.3l-.2.9-.3.7-.4.6-.3.5-.6.3-.5.2-.6.3h-1l-.9-.2-.6-.3-.4-.7-.3-.7-.1-.9V123l.3-.5.4-.5.5-.4.7-.4.7-.1 1.6-.2 1 .1.7.4.5 1.2-.2.8zm-.2-9.8l-.4-.2.1-.4.2-.1.4-.1.1.2v.2h.1v.1l.1-.1h.1l.2.2.2.1.1.3-.1.1h.2l.2-.1h.1l.1.2-.3.2-.1-.1-.1.1-.1-.2-.1-.1v-.2l-.1-.1h-.9zm.4 6.8v-.4h.4l.1.2.1.2-.3.1-.3-.1zm.6.2v-.1h.2l.1.2-.2.2-.1-.3zm.9-3.1l-.1.1v.1l-.2-.1v-.2l.3.1zm0-.3l.2-.1.1.3v.1l-.2-.2-.1-.1zm0 1.2l-.1.1h.1v.2l-.3.1v-.2l.1-.1-.1-.3.3-.1.1.1-.1.2zm.2.4l.1.1v.1l-.2.1-.2-.2v-.1h.3zm-.5-2.2l-.2.1-.1-.1v-.1h.5l-.2.1zm-.3 2.3l.1-.1.2.1v.1l-.2.1-.2-.1.1-.1zm.3 2.8v.1l-.1.2-.1-.3v-.1l.2.1zm-.2 4.8l-.2-.2.1-.1h.1l.1.2-.1.1zm.2-.8l-.2.1-.1-.2.2-.2.2.1-.1.2zm.3-1.2l-.1.1h-.4l.1-.2v-.4l.4.1-.1.2.1.2zm.2-1.9H92l.1-.2.1-.2.2.2.1.1-.2.1zm.1-2.8h-.1l-.1-.1h-.1l.3-.2h.1l-.1.3zm-.1-1.8H92v-.2l.2-.1.3.1-.2.2zm-.1-2.3l-.2.1-.5.2-.3-.2v-.3l.2-.2h.1l.1-.3h.2v.2l.1.1h.3l.2-.1.2.1.1.2-.5.2zm1.3 12l-.1.1h-.2l.1-.2.2-.1v.2zM112.6 120.1l-.5-1.1-.5-.9-.7-.7-.5-.5-.5-.3-.6-.3-.5-.2h-.8l-.5-.1.5-.2.4-.2.8-.2.9-.6.7-.6.4-.6.3-.6.2-.6v-.7l.2-.8-.1-1.1-.1-.6-.2-.6-.2-.6-.5-.5-.4-.5-.3-.5-.6-.4-.6-.3-.6-.3-.5-.1-.8-.2-.6-.1h-1l-1.1-.1-.7.1-.7.4-.7.2-.9.1-.4.3-.6.4-.5.6-.4.6-.1.5-.2.6-.2.6-.2.5-.1.8v2.8l.1.6v1.2l-.1.7.1.8v.5l-.1.5-.1.7.1.8v.7l-.1 1.1.1.6-.1.7v.9l.1.8.2.7.3.6.2.6.2.6.3.5.5.5.6.4.6.4.6.3.6.2.7.1.6.1h2.6l.8-.2.7-.1.6-.2.7-.2.7-.7.9-.6.3-.5.4-.5.3-.6.1-.7.2-.6.1-.6.1-1v-1l-.1-.7.2-.8zm-3.8-3l.1-.2.2.1-.1.2h-.3l.1-.1zm-.1.5h.2v.2l-.2.1-.2-.2v-.1h.2zm-1.1-1.4l.3.1h.2l.1.2-.2.1-.4-.1-.2-.1h-.1l.3-.2zm.2-1.5l-.1.1h-.2l.1-.2.1-.2.1.3zm1.3-.7l-.2.1-.1-.3.3-.1.1.2.1.1h-.2zm-.2-1.5l.1-.2v.5h-.1v-.3zm.7 1.3l-.1.1-.1-.2.2-.2h.2l-.2.3zm-.3-.7l.1-.2v-.1l.2.2-.1.2-.2-.1zm0-.8v-.2l.2-.1.1.1.1.1-.4.1zm.1-1.4l.1-.2.2-.1v.6l-.2.1-.2-.2-.1-.2h.2zm-.1-2.4l.1-.2.2.2v.1l-.1.1h-.3l.1-.2zm1 4.6h-.2v-.4l.3.2-.1.2zm.3-1.1l-.1.1h-.5l-.1-.1v-.1l.2-.1.2.1v-.1h.1l.3.1-.1.1zm-.3-2.6l.3-.2.1.1-.1.3h-.1l-.3-.1.1-.1zm.1.5l.5.3-.1.4-.3.1-.3-.2-.2-.5.4-.1zm-.5 0l.1.2-.1.1.1.2.1.1h.1l.1.2-.2.1-.2-.1-.2-.2-.1-.1.1-.2v-.1l-.1-.1v-.2l.2-.2.1.3zm-.1-.7l.1.2-.1.2-.1.1-.1-.2-.1-.1v-.5l.2-.1.1.4zm-.6-1.7l.3.1.1.1-.1.2-.2.1h-.1l-.1-.1-.1.1-.2-.1v-.2l.2-.1v.1l.2-.2zm-.6-1.3l.2-.1.2.1v.2l-.1.2v.1h-.2l.1-.3-.2-.2zm.1 7h.1v.3h-.4l.1-.3h.2zm-.6-6.5l.2.1-.1.1h-.2l-.1-.1v-.1h.2zm-.7-.7v-.2l.3-.1.1.2v.5h.1l-.2.1h-.2l.1-.3-.2-.2zm-2.1-1.1l.4.1.2.1-.1.1-.3.2h-.3l-.1-.4.2-.1zm-3.8 1.6l.1-.5.3-.1.1-.2.1-.2.1.1.1.3h-.1l-.3.1v.4l-.1.2v.3l-.1.1-.3-.3.1-.2zm-.1 5.2v-.9l.1-.8.2-.8.4-.8.5-.7.6-.4.7-.2h1l1.2-.1.5.2.6.4.4.6.4.5.1.7v2.1l-.2.7-.2.6-.3.6-.4.4-.6.5-.5.2-1.1.2-1 .4h-.6l-.8.1-.6-.3-.5-.5v-.6l.1-.6.1-.6-.1-.9zm5 4.5h-.2v-.2l.2-.1h.1l-.1.3zm-1.5 0v-.2h.1l.2-.1.1.2-.1.1h-.3zm.2.3l-.2.1-.3-.1.1-.2h.3l.1.2zm-3.8-.9l-.2.1-.1-.1v.3l-.3.1-.2-.2-.1-.2v-.1h-.3l.1.2-.1.1v.2l.1-.1h.2l.1.1.2.2-.2.1-.2-.1v.2l-.1.2v.2l.1.1v.2l-.2.1-.2-.1h-.1v-.2h-.2l-.1-.2v-.2l.2.1.1-.1.1-.1h-.1v-.3l-.1-.2.1-.2-.2.2-.1-.2v-.1l.1-.3v-.3h-.1v-.3l.2-.2h.5v.5l.1.1h.4l.2.2.1-.1.1-.1.3.1-.1.4zm-1.6 5.5l-.1.1-.1.2-.2-.1h-.1v-.1l.1-.1v-.2l-.1-.3.5-.2.3.2-.1.3v.2l.1.1.1.2h-.1l-.2-.1.1-.2h-.2zm.3-1.9l-.2-.1.1-.2.2-.1h.2l-.1.3-.2.1zm.1.6l-.1.2h-.1l.2-.2v-.1.1zm-.3-2.2l-.2-.1v-.3l.2.2v.2zm-.1.7l.1.3-.2.1-.1-.1v-.1l.2-.2zm-.1.5l-.1.3h-.1l-.1-.1v-.1l.2-.1h.1zm-.1-2.5l-.3-.1v-.3h.1l.2.1v.3zm.7 3.8h.2l.1.1v.2h-.1l-.2-.2v-.1zm.2-.3l-.2-.2-.1-.2h.3l.1.2-.1.2zm.2-11.3v-.3l.2.1v.2h-.2zm.6-.4l-.1.2-.3-.2.1-.1.2.1h.1zm-.6-1.9l.3.1h-.1l-.2.2v-.3zm-.1 2.8l-.1.3.1.1-.1.1.1.2-.1.2-.1.1-.1-.1h.1l-.2-.4.1-.2v-.2l.1-.2.2.1zm-.3 2.4v.2l-.1.2-.2-.1-.1-.1.1-.3.3.1zm-.3-3h.2l.1.1-.1.1-.2-.1v-.1zm-.3.5l.1.1.2.3-.2.1-.1-.3v-.2zm-.1 1.2l.2-.1v.1l.1.1-.1.2-.2-.1v-.2zm-.1 1.9l.1.1.1-.1.1.1v.1l-.1.1h-.1l-.1.1-.1-.1h-.2l-.1-.2.4-.1zm-.3 1.7l.1-.2.2-.1h.2l.1.1.1-.2-.1-.3.3-.1h.4l-.1.3.1.3.1.1v.5h-.1l-.2-.1.1-.2h-.1l-.2.1-.3.2h-.4l.1-.2v-.1h-.2l-.1-.1zm.6 8.6l-.3.2-.4-.2v-.4l.4-.1h.2v-.2l.2-.1v.6l-.1.2zm.5 2.5l-.1.1h-.2l.1-.2.1-.2.1.3zm0-1.9l-.2.3-.2-.2v-.3l.2-.1.3.1-.1.2zm.5 1.7l-.3-.1v-.3h.3l.2.1v.3h-.2zm.2-8.7h.4l.4.2v.4h.1l.1.1.1.3h-.3l-.1-.1-.1-.1-.1-.1-.4-.2-.1-.5zm1 10.2l-.2.1h-.2l-.1-.2.2-.1.3.2zm1.1 1.4l-.3.2-.3-.3v-.3l.4-.2.3.1-.1.5zm5.9-3l-.2.6-.5.7-.4.3-.6.3-.6.3h-1l-1.2-.1-.5-.2-.6-.3-.6-.5-.4-.4-.2-.7-.1-.6-.2-.6-.1-1.2v-.9l.1-.8-.2-.6.1-.8.3-.7.7-.6.7.1.6-.1 2.2-.1.7.2.7.2.5.5.4.5.3.6.3.7.1.7.1 1.1-.1 1.1-.2.6-.1.7zm.5 1l-.2.1v-.2l.2-.1.1.1-.1.1zm.1-6.5h-.4l-.1-.2.3-.1.2.1v.2zm.1-1l.1-.2.1.2.1.2h-.3v-.2zm.5 5.9l-.2-.2.1-.1.1-.1.2.1.1.3h-.3zm.8-2.8l.3.1v.3l-.2.2h-.1l-.1-.2.1-.2v-.2zm-.3-1.9l.2-.2.1.1-.1.2-.2-.1zm0 .6l.2-.1.1.1-.1.2h-.3l.1-.2zm-.3 3l.3.1v.1l-.3.1v-.3zm.4 3.3l-.4-.2v-.4l.4-.1.3.3.1.3-.4.1zm.7-2.8l-.3.1-.2.1v.1l-.2.2-.2-.3.3-.2v-.4l.3-.1.3.2v.3zM128.4 126.1l-.5-.5-.3-.6-.4-1-.5-.8-.4-.5-.2-.7-.4-.5-.3-.6-.1-1 .1-.9.4-.5.3-.5.5-.7.4-.6.5-.8.6-1 .4-.9.3-1-.2-.5-1-.2-.9.1-.8.7-.5.9-.2.5-.4.5-.4.5-.3.6-.4.5-.4.7-.2.4-.7.5-.8.4-.5-.1-.8-.4-.2-.7V116l.1-.7v-.6l-.1-.6v-3.6l-.1-1 .1-.7v-1.1l-.1-.9-.3-.9-.2-.5-.9-.2-.8.2-.3.4-.4.8.1 1.1.1.7v1.4l-.1.7v.6l-.1.7v2.3l.1.6-.1.6v3.6l.1.7v.7l-.2.5v.7l.1.7v.7l-.1.6v.7l.1.7-.1.7.1.5v.7l.2.9.2.9.4.4.8.2.8-.2.3-.4.3-.8.1-.9v-2.1l-.1-.6V123l.1-.7.4-.7.8-.4.9.3.7.6.2.7.3.7.4.6.6 1.2.4.6.3.5.3.6.3.7.5.7.5.7.8.2.9-.2.3-.4.2-.9-.1-.9-.5-.8zm-1.5-13l.2-.1.1.1v-.1h.2l-.1.3h-.1l-.1-.1h-.1l-.2-.1h.1zm-1 1.3l.1.2h-.2l.1-.2zm-6.7 5.4v.1h-.1l-.1-.1-.1-.1.2-.1.1.2zm-1.1-8.8l.1-.1.2.2.1.2h-.2v.1l.2-.2.2.2.1.1h-.3l-.1.1h-.4l.1-.1.1-.1-.1-.4zm-.1-.7l-.2-.1.2-.3.1.1v.1l-.1.2zm.7-.1h-.1l-.1-.2h.3v.1l-.1.1zm.1.8h-.2l-.1-.1-.1-.2.2-.1.1.1.1.3zm-.2-1.5l-.1-.1v-.1l.2-.2.2.1v.2l-.3.1zm0-1l-.1-.1-.2.1-.2-.2.2-.1h.4l.1.1.1.2h-.3zm-.3 4.2l.4.2.1.1h.1v.3l-.1.2v.1h-.1v-.1l-.2-.2v.5l-.3.1-.4.1-.1-.2h-.1l.1-.1.1-.4.3-.1v-.4l.2-.1zm.1 4.5l-.1-.1-.1-.1-.1.1-.2-.2.1-.1-.1-.2v-.4l.3.1-.1.2-.1.1.2-.1h.3v.2l-.1.5zm.1 1.7l-.2-.1-.1.1.1-.3h.2l.1.1-.1.2zm-.8-4l-.1-.2.4-.1.2-.1.1-.2.1.2.1.2-.1.2-.1.2-.1-.1v.1h-.1l.1.1v.1h-.2l-.2-.1v-.2h.1l-.2-.1zm.4 1v-.3h.4v1l-.3-.1.1-.2v-.1l-.2-.3zm-.6 2.7l.3.1-.1.2h-.4v-.1l.2-.2zm.1 1.8l.3-.3.5.2-.1.4v.2h.3l-.1.2-.2.1-.1-.1v-.1l-.2-.1-.4-.2v-.3zm.8-.4l.2-.2.1.1.2.1-.3.2-.2-.2zm-.1-12.8l.3-.1.3.1v.4l-.3.1-.4-.2-.1-.1-.1-.1.1-.2.2.1zm-.3-.3l.1.2h-.2v-.3l.1.1zm-.3.6h.1l.1-.1.1-.1.2.3-.2.1v.1l-.2-.1-.1.1h-.1l-.1-.2.2-.1zm.1 3.8v.2l-.1.1h-.1v-.3h.2zm-.5.8l.3-.2.3.1.1.3-.5.1-.2-.1v-.2zm.6 10.4l-.2.2v.2l-.1-.2v-.1h-.1l-.1-.1v-.5l.3-.3h.4l.1.2h.1l-.1.2-.2.1-.1.1v.2zm.3.2h.3l.2-.1v.4l-.3.1-.3-.1.1-.3zm.8.8l.1.2-.2.1h-.2v-.2l.3-.1zm-.9 1.1l.1-.1.1-.2.2.1v.3h-.3l-.1-.1zm1 1.1l-.4.1h-.3l-.1-.4.3-.3.4.2.1.4zm-.2-5.2v-.2h.2l.2.2h-.4zm.6-.9h-.2v-.1l.2-.1h.1v.3l-.1-.1zm.4.2v.2l-.2-.2v-.3l.3.1-.1.2zm.8-.3l-.2-.1.2-.1.3.1v.2l-.1.1-.2-.2zm.5.4l-.2-.1v-.1l.1-.1.2.1h.1l-.2.2zm1.1.4l-.2-.1.2-.2h.1l-.1.3zm2.9 1.8h.1l.1.1h-.4v-.1h.2zm.1-5h.1l-.1.2-.2.2v-.1l-.1.1h-.3l-.1-.1-.1-.2.8-.1zm-.5-.6h.2l.1.1v.1l-.2.1h-.2l.1-.3zm-.3.4l.2-.1.1.1.1.2-.2.1-.3-.1.1-.2zm-1.2 1.4l.1-.1.1.1.1.2h-.3v-.2zm-.3 1.6v-.2h.2l.1.1-.1.1h-.2zm.7 1.4h-.2l-.1-.2-.1-.2.1-.1h.3l-.1.1v.2l.1.2zm.7-.4v.2l-.1.1v.1l-.2-.2.1-.1-.1-.2.1-.2.1-.1.2.1-.1.3zm0-1.7l-.1.2-.2.2v-.1l-.1.1-.1.3-.2-.1v-.1l-.1-.1h-.3l.1-.3.1-.2.3-.2h.4l.1.1.1.2zm.2 3.1l-.1.1v-.4l.3.1-.1.2h-.1zm.2.7l.2.1v.3l-.1.1-.1-.1v-.4zm.8 1.9l-.3.2-.3-.1-.1-.3.3-.2-.1-.1.1-.2v-.2l-.1-.2.3-.1v.2l.1.2v.1l.1.2.1.2-.1.3zm.4.2l-.1-.2.1-.1.2.1v.2h-.2zM146 126.7l-.6-.5-.3-.8-.1-1v-1.6l.1-.7v-1.3l.1-.7-.1-.8-.1-.6.2-.7-.1-1.1-.2-1.2-.4-1.2-.3-.6-.4-.5-.5-.3-.6-.3-.6-.3-.7-.3-2.5-.2-.9.1-.8-.2-.6.2h-.7l-.6.2-.5.2-.9.3-.8.9.3 1 .7.3.8-.1.8-.3.7-.1.5-.3.6-.1 1.1-.1 1.1.1.7.2.8.5.3.6.3.6.1 1v.9l-.4.5-.6.3-.5.1-.9-.1-1 .1-.8.1h-.7l-.7.3-.6.2-1.1.2-.7.6-.5.4-.4.6-.3.6-.1.6-.3.6v1l.1 1.2.1.7.4.6.4.9.7.7.6.4.6.3.7.1.7.2.9.1 1.1-.1.7-.2h.5l1-.6.8-.6.4-.5.3.2.5.7.9.7.6.2 1 .1 1-.3.3-.9v-.9l-.6-.3zm-11.2-13.2h-.1l-.1-.1-.1-.2.1-.2.1-.1v.5l.1.1zm1-.8v.2l-.1.2h-.5l.1-.3.1-.2.2-.1h.2v.2zm1.7-.2v-.2l.3-.2.2.2-.1.1h-.4v.1zm.7.3l-.2-.1v-.3h.2l.1.1-.1.3zm1 .1l-.3-.1v-.3h-.1l-.1-.1v-.3l.1.2.1.1.1.2h.2v.3zm1-.5l-.3.1-.4-.2.1-.2.1-.1h.5l.1.1-.1.3zm.5.7h-.1l-.1.1v-.3l.2.1v.1zm-6.1 11.4l-.3.1-.3-.1v-.1l.4-.1.2.1v.1zm-.1.8h-.2l-.2-.2v-.1l.1-.1.2.1.1.3zm-.1-4.1v.4l-.2-.1-.1-.2.3-.1zm-.6.5l.2-.1v.3h-.3l.1-.2zm-.7 2.1l-.2.1h-.1l-.1-.1.3-.1.1.1zm0-1.9l.1-.2v-.1l.2.1v.2l-.1.1-.2-.1zm.4.9h.4v.2l-.1.2h-.3v-.4zm.2 2.1h-.2l-.1-.1.3-.2.1.1v.2h-.1zm.1-1.2l.1-.1h.3v.3l-.1.1-.2-.1-.1-.2zm.8 3.3l-.3.1-.3-.2v-.2l.4-.2.3.2-.1.3zm.6-6.3l-.3.1-.1-.1.2-.1.2-.1v.2zm1.5 7h-.7l-.1-.5.3-.1h.2l.3.2v.4zm5.1-4.3l-.2.9-.3.7-.4.6-.3.5-.6.3-.5.2-.6.3h-1l-.9-.2-.6-.3-.4-.7-.3-.7-.1-.9V123l.3-.5.4-.5.5-.4.7-.4.7-.1 1.6-.2 1 .1.7.4.5 1.2-.2.8zm-.2-9.8l-.4-.2.1-.4.2-.1.4-.1.1.2v.2h.1v.1l.1-.1h.1l.2.2.2.1.1.3-.1.1h.2l.2-.1h.1l.1.2-.3.2-.1-.1-.1.1h-.1l-.1-.2-.1-.1v-.2l-.1-.1h-.8zm.4 6.8v-.4h.4l.1.2.1.2-.3.1-.3-.1zm.5.2v-.1h.2l.1.2-.2.2-.1-.3zm1-3.1l-.1.1v.1l-.2-.1v-.2h.2l.1.1zm-.1-.3l.2-.1.1.3v.1l-.2-.2-.1-.1zm.1 1.2l-.1.1h.1v.2l-.4.1v-.2l.1-.1-.1-.3.3-.1.1.1v.2zm.2.4l.1.1v.1l-.2.1-.2-.2v-.1h.3zm-.5-2.2l-.2.1-.1-.1v-.1h.5l-.2.1zm-.3 2.3l.1-.1.2.1v.1l-.2.1-.2-.1.1-.1zm.2 2.8v.1l-.1.2-.1-.3v-.1l.2.1zm-.1 4.8l-.2-.2.1-.1h.1l.1.2-.1.1zm.1-.8l-.2.1-.1-.2.2-.2.2.1-.1.2zm.4-1.2l-.1.1h-.4l.1-.2v-.4l.4.1-.1.2.1.2zm.2-1.9h-.3l.1-.2.1-.2.2.2.1.1-.2.1zm.1-2.8h-.1l-.1-.1h-.1l.3-.2h.1l-.1.3zm-.1-1.9h-.3v-.2l.2-.1.3.1-.2.2zm-.1-2.2h-.1l-.1.1-.5.2-.3-.2v-.3l.2-.2h.1l.1-.3h.2v.2l.1.1h.3l.2-.1.2.1.1.2-.5.2zm1.2 12l-.1.1h-.2l.1-.2.2-.1v.2zM171.3 121.1v-4.2l-.3-.6-.1-.7-.1-.6-.4-.5-.2-.6-.4-.5-.5-.4-.6-.3-.4-.4-.6-.1-.6-.2-1.1-.2-1 .1h-.6l-.7.3-.6.3-.5.3-.6.4-.5.5-.6.2-.3-.8-.4-.7-1.1-.2-.8.2-.4.9v1.2l-.1.7.1.6v1.3l-.1.7v.7l.1.6-.1.6v1.5l.1.6v.6l-.1.8.1.7v1.2l.1.8-.1.6v1.1l.3.8.3.5.9.1.9-.2.4-.3.3-1.1v-.9l.1-.7-.1-.7v-1.5l.1-.6v-1.3l.1-.6-.1-1.1v-1l.2-.6.1-.6.3-.7.3-.6.2-.5.4-.5.5-.5.6-.4.5-.3h1l1.1.1.5.3.5.5.3.5.5.6.2.6v.7l.1 1.1-.1.7.1 1v1.4l-.1 1-.1 1.1.2.5v.8l-.1.7v.7l.1.9.2 1.1.4.4.7.1.8-.2.5-.3.2-.9.1-.9v-1.5l-.1-.6.1-.6v-.7l.1-.7-.1-.7v-.9zm-12.1-8.4l.2.3h-.3l-.2-.2.3-.1zm-.9.5l.2-.1.1.1h.4l.3.1h.3v.2l-.2.1-.1-.1-.2.3-.3.2-.5-.1v-.3h-.2l.2-.4zm.5 3.6l-.1-.3.1-.2.1.1v.5l.2-.2.2.2v.2l-.3.1v-.1l-.1-.1v.1l.1.2-.2.1h-.3l.1-.3.1-.1.1-.2zm.6-.4l-.1.1-.1-.1v-.3l-.1-.1.1-.1.1-.1.2-.1h.2l.1.2v.1h-.2v.1l-.2.3zm-.1 4.6l-.1.1-.1.1-.1-.2.3-.2v.2zm-.5-2.5h-.5l-.1-.2.2-.2.2.1v-.1h.1l.1.1v.3zm0 .7l-.3.1-.2-.1-.1-.1.2-.1.1.1.3.1zm-.4-1.3v-.2l.1-.1.2.1v.2h-.3zm0 1.7h.3l.1.3h-.5l.1-.3zm.2 4.1l-.2-.1v-.1h.1l.1.2zm.2-1.9l.2-.1h.1v.2l-.2.1-.1-.2zm.1 1l.1-.2.4-.1.3.2v.2l-.3.2-.5-.3zm.8.9h-.4v-.2l.2-.1.2.1v.2zm.5-7.9h-.1l.1-.1-.3.1-.3-.2-.1-.1h-.4v-.1l-.2.1v.2l-.1.1-.1-.1.1-.3v-.2l-.1-.3v-.2l.2-.1h.2l-.1.2h.2v.1l.3.2-.1.2.1.1.1-.1.2.1.3.1h.1l.2.2v.1l.1.1-.3-.1zm.5-1.3l-.2.2h-.5l-.3-.3.1-.1.1-.2.3-.2.3.1.1.1.1.4zm3-1.3l-.1-.1v-.1l.1-.2.1.2v.1h-.1v.1zm.9.2l-.4-.3.1-.1.2-.1h.3l.1.2-.3.3zm.7-.2h-.2l-.1-.2v-.1h.3v.3zm.8-.2v-.2l-.1-.2h.3v.3l-.2.1zm1.7.2l-.3.1h-.3l-.4-.2v-.5l-.1-.2.1-.2.1.1.1.1.2.2.3-.1.2.2h-.1l-.1.1.2.2v.2h.1zm1 1.2v-.2l.2.2v.1l-.2.2v-.3zm-.9-1.3l.2-.1.1-.1.1.2.1.1h.1l.1.1v.2l-.1.1v.2l-.1.1h-.2v-.3l-.1-.1h-.2v-.4zm.7 2.7l-.3-.1-.1-.4v-.3h-.1v-.1l.1-.2.1.1h.4l.1.2v.2h.1l.1-.1.1-.2v-.1h.1l.1.4v.2h-.2l-.1.1h-.2l-.1.2v.2l.3.1-.1.1-.3.1h-.1l.1-.4zm1 1.1l-.1.1-.1.1-.2-.2.2-.1.2.1zm-.9-.2v-.2h.4v.2l-.1.2-.3-.2zm.5.8l.1-.1.3.1v.2l-.1.1h-.3v-.3zm.5 5.5h-.3l.1-.2.1-.1.1.1v.2zm-.1-1.3l-.1-.2v-.3l.3.1v.2l-.2.2zm.6-1.9l-.3.1-.1-.1v-.1l.1-.2h.3v.3zm-.4-.6v-.2l.1-.1.2.1-.1.2h-.2zm.4-2.8h-.1v.2l-.2.2-.1-.1v-.5l.2-.1.2.2v.1zM179.2 107l-.1-.2-.2-.4-.2-.3-.3-.1-.4-.1h-1.2l-.3.1-.3.1-.2.2-.3.3-.2.3-.1.4.2.5v.4l.2.4.2.3.3.2.4.1h.3l.4.2.5.1.8-.3.2-.2.3-.1.1-.4.2-.2-.1-.4.1-.6-.3-.3zm-2-.5h.2v.3l-.1.1-.2-.1v-.2l.1-.1zm.7 1.9l-.2.1h-.2v-.3l.1-.2-.3-.2-.2-.1-.2-.3.4-.1.4.2.1.3v.4l.1.2zM177.1 118.7l-.1-.1zM178.7 112.5l-.3-.4-.2-.1-.2-.2h-1.4l-.2.2-.3.2-.1.2-.1.3-.1.6v1.2l-.1.4.1.3v.3l-.1.3.1.2.1.6-.1.6v.7l.1.3-.1.3v.4l-.1.2.1.2.1.5-.1.4v.4l-.1.3-.1.4.1.2.1.3v.3l-.1.5v1.6l-.1.3.1.4-.1.5.1.5v.3l-.1.3-.1.5.1.6.2.4.2.3.2.2.2.1.4.2.5-.1h.3l.3-.2.1-.3.2-.2.2-.4-.1-.4v-.5l.1-.6v-.6l.1-.4v-1l.1-.3-.1-.4v-1.1l.1-.4-.1-.4v-1l.1-.7v-.2l-.1-.4.1-.4v-1.2l.1-.3v-.3l-.1-.4v-.6l.1-.2-.1-.5v-.5l-.1-.5.2-.3v-.4l-.2-.4.2-.7zm-.7.2l.1.3v.1l-.2-.1-.1-.1.2-.2zm-.2.8l.3-.1.1.2-.4-.1zm-.9 5.4l-.2-.1-.1-.1.3-.3.1.1v-.1l.2-.2.2.1v.3h-.3l.1.1-.3.2zm.1 2.4v.1h-.2v-.2l.1-.2h.1v.3zm-.3-4.4l.1-.2.2.2v.1l-.1.2-.3-.1.1-.2zm0-1.1l.1-.2h.2v.1l-.1.2-.2-.1zm.3.1l.2-.1.1.2v.3l-.2-.2-.1-.2zm.5 5.5v.2l-.2.2-.1-.3.1-.2.2.1zm-.1 2.1l.1.2-.2.1-.1-.1-.1-.3.2-.1.1.2zm.3.5l.1.1v.2l-.2.2h-.3v-.3l.4-.2zm0-2.7l-.1-.1-.2.1v-.3h.4l-.1.3zm0-.7h-.2l-.1-.3.1-.1.2.2v.2zm-.2-.6l.1-.3.1-.1.1.1.1.2-.1.1h-.3zm.2-1.8l.1-.3.2.1.1.1-.4.1zm.2-2.7v.1l-.1.2-.3.1-.3-.2-.1-.2-.1-.1.1-.2.1-.1.1.2.3.1h.1l.2-.2h.1v.1l-.1.2zm-.5-.9l.3-.1.1.1-.1.2h-.1l-.2-.2zm-.9-1.7l.4-.1.2.1v.6l.1.1v.1h-.2l.1-.3h-.2l-.3-.1-.1-.4zm.1 9.9l.3-.3.1.2.1.3-.3.2-.2-.2v-.2zm.3 3.8l-.1.1-.2-.2v-.1h.2l.1.2zm1 .2l-.3.2-.4-.2v-.4l.4-.1.3.2v.3zm0-5.8l-.3-.1v-.1l.1-.2.2.1.1.2-.1.1zm0-.6l-.2-.1v-.2l.1-.1h.1l.1.2-.1.2zM200 128.6l-.3-1.1-1-.4-.9-.2-.5-.5-.2-1-.1-1v-1.5l.1-.6-.1-.7v-2.1l.1-.7-.1-.6v-3.3l-.1-1.4-.4-.9-.6-.4h-.7l-.8.4-.3 1-.2 1.1v.6l.1.7-.1.5.1.6.1.8-.1.7.1.6-.1.7.1 1-.1.9-.2.7-.2.5v.7l-.3.6-.4.7-.5.4-.4.5-.5.4-.6.3h-1l-1-.1-.7-.3-.4-.4-.4-.5-.3-.6-.1-.5-.3-.7v-1.1l-.1-.9.1-.8-.1-.5.1-.7-.1-.7v-.8l.1-.8-.1-1.5v-2.4l-.4-1-.6-.2-.8-.1-.7.4-.4 1v2.5l.1.5v.7l-.1.5.1.8v1.3l-.1.6.1.7v.6l-.1 1.2v.9l.2.7.1.6.1.6.3.7.4.6.4.6.4.4.5.3.5.4.6.2.6.2.9-.1 1.1.1.5-.3.6-.2 1.1-.4.7-.6.5-.5.4-.2.5.4.4.7.4.4.6.3.7.1.7.3.2.7.1.6v.9l.4 1 1 .1.9-.2.4-.9.1-1.3-.1-.9.1-.4zm-14.7-15l.2.1v.2l-.2.1v-.4zm-.5 1.5v.1l.2.1h-.2l-.1.1-.1-.3h.2zm-.7.1l.2-.1h.1l-.1.2-.1.1h-.1v-.2zm-.2.7l.3-.3.3.1.2.1-.1.1-.1.1v.1l-.3.2-.3-.1v-.3zm0 1.5v-.3l.4-.2h.1l.2.1-.1-.1v-.3l.3-.3.4.2.1.4v.4l-.2.1-.1-.1.1-.2-.1-.1v.2l-.1.3-.2.1-.4-.2-.1-.2-.3.2zm.3 4.8l.1-.1h.1v.1l-.2.1h-.2l.2-.1zm.1.8l-.2.1-.1-.1v-.2l.2-.1.1.1v.2zm.1-2.3l-.1-.1.3-.2.1.1h.1l-.1-.1v-.2l.1-.2.1.2v.5l-.2.1-.1-.1h-.2zm.6-1.1l.3-.1v.3l-.1.1h-.1l-.1-.1h-.3v-.2l-.1-.1.1-.1.1-.2.2.4zm-.4 2.9h.5l-.2.1h-.3v-.1zm.1 2.4l.1-.3.2.1.1.2h-.4zm.6.6l-.2-.2v-.1l.3-.1.1.3-.2.1zm.1-6.4l-.2.2-.2-.3-.1-.2v.1l-.2-.1-.1.1-.1.1v.1l-.1.1-.1-.3v-.1l-.2-.1.1-.1.1-.2.1-.1.3.1h-.1l.1.1h.1l.2.1v.1l.2.2.2.1v.1zm1.7 8.3l-.1.3-.3.1-.4-.2h-.2l-.2.1-.2-.3.2-.1.2.1.2-.2.2-.1h.6v.3zm1.1.2l-.2.2-.3.1h-.4l-.1-.5.2-.2.3-.1.2-.1.2.1.2.2v.1l-.1.2zm6.7-11.9v-.2l.2-.1.1-.1.1-.1.3-.1.3.1.1.2-.2.2-.1.1v.1l-.1.3.1.1-.1.1h-.3l.1-.3v-.3l-.2-.1h-.1l-.2.1.1.1v.1l-.2.1h-.1l.2-.3zm1 4.7l-.2.2-.1-.2.1-.3v-.3l.1.1v.3l.1.2zm-.1-2.1l-.2.1-.1-.1v-.2h.4l-.1.2zm-.1-1.3h-.2l-.2-.1v.1l-.2-.2v-.2h.1l.2.1h.4v.1l-.1.2zm-.6 3.8h-.3l.2-.1.2.3-.1-.2zm.1 1.7l-.2.1-.3-.1.1-.2h.2l.2.2zm-.4-5.2v-.1l.2-.2.1.1v.3l-.1.1.1.1-.1.2-.1-.1-.2-.1.1-.1v-.2zm.3 1.5l-.1.1-.1-.2.1-.1.1-.2.1.2v-.1h.2v.1l.1.2-.1.1-.1-.1h-.2zm-.1-2.4l.1.2v.2h-.1l-.1-.2-.1-.1.2-.1zm-.5 9.3l-.2.1-.2-.1.1-.2-.1-.1.1-.1.2-.2.1.1v.5zm.3-2.1h-.1l-.2.1v-.2l.2-.1.1.2zm.2 2.4h.2l.1.1h-.3v-.1zm.4.9l-.3-.1v-.3h.2l.2.1v.2l-.1.1zm.7 1h-.2v-.3h.2l.1.1.1.2h-.2zm0-.7l-.4-.2-.1-.3.4-.1.3.2.1.4h-.3zm2.3 2.4h-.1v-.2l.3-.1.1.1.1.1-.4.1zM216.4 117.6l-.1-.7v-1.2l-.1-.8.1-.6v-1.1l-.3-.8-.3-.5-.9-.1-.9.2-.4.3-.3 1v.9l-.1.7.1.7v1.5l-.1.6v1.3l-.1.6.1 1.1v1.1l-.2.6-.1.6-.3.7-.3.6-.2.5-.4.5-.5.5-.6.4-.5.3h-1l-1.1-.1-.5-.3-.5-.5-.3-.5-.5-.6-.2-.6v-.7l-.1-1.1.1-.7-.1-1V119l.1-1 .1-1.1-.2-.5v-.8l.1-.7v-.7l-.1-.9-.2-1-.4-.4-.7-.1-.8.2-.5.3-.2.9-.1.9v1.5l.1.6-.1.6v.7l-.1.7.1.7-.1.7v4.2l.3.6.1.7.1.6.4.5.2.6.4.5.5.4.6.3.4.4.6.1.6.2 1.1.2 1-.1h.6l.7-.3.6-.3.5-.3.6-.4.5-.5.6-.2.3.8.4.7 1.1.2.8-.2.4-.9v-1.3l.1-.7-.1-.6v-1.3l.1-.7v-.7l-.1-.6.1-.6v-1.5l-.1-.6v-.6l.2-.6zm-12.8-4.6l.3-.1h.3l.4.2v.5l.1.2-.1.2-.1-.1-.1-.1-.2-.2-.3.1-.2-.2h.1l.1-.1-.2-.2v-.2h-.1zm-.3 1.2h.2l.1.2v.1h-.3v-.3zm.1 5.1l-.1.1-.1-.1v-.1l.1-.1h.3l-.2.2zm.3 3.9h-.1v-.3l.2-.2v.2l.1.2-.2.1zm.2-5l-.1.1-.2-.1.1-.2h.3v.2h-.1zm0-.7l-.1.2h-.3l.1-.2.3-.1.1.1h-.1zm0-1.5v-.2h-.1l-.1.1-.1.2v.1h-.1l-.1-.4v-.2h.2l.1-.1h.2l.1-.2v-.2l-.3-.1.1-.1.3-.1h.1v.3h.1l.3.1.1.4v.3h.1v.1l-.1.2-.1-.1h-.4l-.3-.1zm.9 4.9l-.3-.1v-.2l.1-.1h.3l-.1.2v.2zm.1.6l-.2.1-.2-.1.1-.1.1-.1.2.2zm-.4-4.4v.3l-.2-.2v-.1l.2-.2v.2zm-.2 2.6l-.3-.1v-.2l.2-.2.1.2v.3zm.5 4.7v.3l-.2.1-.2-.2v-.2h.1v-.2l.2-.2.1.1v.3zm.4-2.5h-.4v-.2l.1-.2.3.1v.3zm-.1-3.2l-.1.1-.1-.2-.1-.1h-.1l-.1-.1v-.2l.1-.1v-.2l.1-.1h.2v.3l.1.1h.2v.2l.1.3h-.3zm-.1-3.4h.2l.1.1v.1l-.1.2-.1-.2-.1-.2zm.3-.6l-.2.1h-.3l-.1-.2.2-.3.4.4zm9.6-2h.3l-.1.2h-.3l.1-.2zm-1.3 1.9v-.4l.1-.1.3-.1.3.2.2.2.1.1-.3.3h-.4l-.3-.2zm.5 1.2l-.2-.2.1-.1v-.1l.2-.2h.1l.3-.1.2-.1.1.1v-.1l-.1-.2.3-.2v-.1h.2l-.1-.2h.2l.2.1h.1v.1l-.1.1-.1.3v.2l.1.3-.1.1-.2-.1v-.2l-.1-.1v.1h-.4l-.1.1-.3.2-.3-.1.1.1-.1.3zm.7 4.8l.1-.3h.3l.1.3h-.5zm.4 1.3l-.1.2-.1-.1-.1-.1.1-.2.2.2zm0-2l-.1.1-.3-.1.2-.1.1-.1.2.1-.1.1zm-.1-1.7l.1-.2v-.1l-.1.1-.1.1-.3-.1v-.2l.2-.2.2.2v-.5l.1-.1.1.2v.3l-.1.2.2.1v.3h-.3v-.1zm-.3-1.8h-.1v-.2l.1-.2h.2l.2.1v.1l.1.1-.1.1v.3l-.1.1-.2-.1-.1-.3zm-.5 2.8v-.2l.1-.1h.1v.1l.2-.1.2.2-.1.2-.5-.1zm.6 5.6h-.4l-.1-.2.3-.1.2.1v.2zm.1-.9l-.3-.2v-.2l.3-.2.3.1.1.2-.4.3zm.4-1.1l-.1-.1v-.2h.1l.2.1-.2.2zm.4 2.3l-.2.1v-.1l.1-.2h.1v.2zm.1-6.5h-.3v-.2l.2-.1.1.1v.2zm-.1-4.9v.3l-.4.1-.4-.2-.1-.3v-.1l-.1.1-.3-.1v-.2h.3l.3-.1h.4l.2-.1.2.1v.3l-.1.2zM242.2 117.6l-.1-.7V115l-.1-.8-.1-.9-.2-.9-.2-.3-.9-.2-.8.2-.5.4-.2.9-.2.9.2.7v.7l-.1.6.1.7-.1.6.1.6-.5.7-.9.3H236l-.9-.1-1.1.1h-.5l-.7.1-.7-.4-.2-.5v-.9l.1-.7-.1-.6v-.7l-.1-.6.1-.6-.2-1-.1-.8-.5-.4-.8-.1-.8.1-.5.3-.2.9-.1.9.1.7v.6l.1.7v1.2l-.1.8v4.2l.1.6.1.6v.7l-.1 1v1.9l.3.9.4.4.8.2.7-.2.4-.4.3-.8.2-.9-.2-.6.1-.9v-1.1l.1-.6-.1-.5.3-.6.7-.4h2l.7-.1h.7l.7.1.6.1.6-.1.7.4.3.7v1.2l.1.7-.1.5-.2.6.1.7v1l.2.8.5.4.9.2.8-.3.3-.4.3-.9v-2.4l-.1-.6.1-.6v-1.6l.1-.7-.1-.7.1-.6v-.6l-.1-.7.1-.7v-.5zm-11.4 1.9l.2.1-.1.2-.1.1-.2-.1v-.2l.2-.1zm-.5-4.7v.3l.1.1.2-.1h.1v.2l-.1.1-.1-.1-.2.1-.1.1-.2-.1.1-.2v-.2h-.1l-.2.1-.4-.2.1-.3h.1v-.2l.1-.1.1.2.1.1h.1v.2h.3zm.3 3.7l-.1.1-.3-.2.1-.1h.2l.2-.1-.1.3zm.1 1l-.2.1-.1-.1v-.3h.1l.2.3zm-.3-3.8l-.1.3h-.3l.1-.2v-.3l.3.2zm-.7 1.2v-.1h.3l.1-.1h-.1v-.2l.2-.1v.5l-.1.1-.2.1v-.1h-.1v.2l.1.3-.2.1-.2-.1.1-.3.1-.3zm.2 1.8l.2-.2.2.1.1.2-.2.1-.3-.1v-.1zm.4 2.6l.1.1h.2l-.2.2-.2-.1.1-.2zm0-1.1l.1-.3.2-.1.1.1v.1l-.4.2zm.4-6.4l-.3.1-.1-.1h.1l.1-.1h.2v.1zm-.2-.9l.2.1v.2l-.1.1-.2-.1.1-.3zm-1.3.7v-.3l.2-.2.2.2h.5l.1.1v.3l-.2.2-.3.2-.3-.3-.2-.2zm.4 4.5v.3h-.1l-.2-.1.3-.2zm-.1 2.3l.4-.3.3.1-.1.4v.2h.1v.2l-.1.2-.2-.1.1-.1-.2-.1-.4-.1.1-.4zm.3 1.5h-.2l.1-.2.1-.1h.2v.1l-.2.2zm.3 5.7l-.1-.2-.1-.1.2-.1.1.1.1.2-.2.1zm.7-2.1l-.2.2-.5-.1.2-.3.3-.3.2.3v.2zm.5-4.7l-.2.1-.2-.1.1.4-.1.1h-.2l-.1-.3.3-.2v-.2l.2-.1.3.1-.1.2zm.2-.8l-.2-.1v-.2l.2-.1h.1l-.1.2v.2zm.5.8l-.2.1-.2-.1v-.1h.3l.1-.1v.2zm4.9 0l-.2.2-.1-.2-.1-.1.3-.1.2.1-.1.1zm2.3-.2l-.1-.1-.1-.2.2-.2h.2v.1l-.2.4zm.3 1.4h-.2v-.4l-.1-.1h.3l.1.2v.1l.1.1-.2.1zm1.3-9l.2.1-.1.2-.2-.1-.1.1-.1-.3h.3zm.3 1.4l.1.2-.3.1-.2-.1-.1-.3h.5v.1zm-.5 1.7l.2-.1.2.1v.3l-.1.1-.1.2h-.2l.1-.2-.1-.4zm-.1 1.3l.2.1.1.3h.1l.1.3h-.4l.1-.1v-.1l-.2-.1h-.1l-.1-.2.2-.2zm-.5 2l.2-.3.1.2v.2h-.1l-.2-.1zm.3 3.4l.2-.1.2.1v.2l-.3.1-.1-.3zm1 2.9l-.3.2-.3-.2v-.3h.3l.4.1-.1.2zM259.8 126.7l-.6-.5-.3-.8-.1-1v-1.6l.1-.7v-1.3l.1-.7-.1-.8-.1-.6.2-.7-.1-1.1-.2-1.2-.4-1.2-.3-.6-.4-.5-.5-.3-.6-.3-.6-.3-.7-.3-2.5-.2-.9.1-.8-.2-.6.2h-.7l-.6.2-.5.2-.9.3-.8.9.3 1 .7.3.8-.1.8-.3.7-.1.5-.3.6-.1 1.1-.1 1.1.1.7.2.8.5.3.6.3.6.1 1v.9l-.4.6-.6.3-.5.1-.9-.1-1 .1-.8.1h-.7l-.7.3-.6.2-1.1.2-.7.6-.5.4-.4.6-.3.6-.1.6-.3.6v1l.1 1.2.1.7.4.6.4.9.7.7.6.4.6.3.7.1.7.2.9.1 1.1-.1.7-.2h.5l1-.6.8-.6.4-.5.3.2.5.7.9.7.6.2 1 .1 1-.3.3-.9v-.9l-.6-.4zm-11.2-13.2h-.1l-.1-.1-.1-.2.1-.2.1-.1v.5l.1.1zm1-.8v.2l-.1.2h-.5l.1-.3.1-.2.2-.1h.2v.2zm1.8-.2v-.2l.3-.2.2.2-.1.1h-.4v.1zm.7.3l-.2-.1v-.3h.2l.1.1-.1.3zm1 .1l-.3-.1v-.3h-.1l-.1-.1v-.3l.1.2.1.1.1.2h.2v.3zm.9-.5l-.3.1-.4-.2.1-.2.1-.1h.5l.1.1-.1.3zm.5.7h-.1l-.1.1v-.3l.2.1v.1zm-6 11.4l-.3.1-.3-.1v-.1l.4-.1.2.1v.1zm-.1.8h-.2l-.2-.2v-.1l.1-.1.2.1.1.3zm-.1-4v.4l-.2-.1-.1-.2.3-.1zm-.5.4l.2-.1v.3h-.3l.1-.2zm-.8 2.1l-.2.1h-.1l-.1-.1.3-.1.1.1zm0-1.9l.1-.2v-.1l.2.1v.2l-.1.1-.2-.1zm.4.9h.4v.2l-.1.2h-.3v-.4zm.2 2.2h-.2l-.1-.1.3-.2.1.1v.2h-.1zm.1-1.3l.1-.1h.3v.3l-.1.1-.2-.1-.1-.2zm.8 3.3l-.3.1-.3-.2v-.2l.4-.2.3.2-.1.3zm.7-6.2l-.3.1-.1-.1.2-.1.2-.1v.2zm1.4 7h-.7l-.1-.5.3-.1h.2l.3.2v.4zm5.1-4.4l-.2.9-.3.7-.4.6-.3.5-.6.3-.5.2-.6.3h-1l-.9-.2-.6-.3-.4-.7-.3-.7-.1-.9V123l.3-.5.4-.5.5-.4.7-.4.7-.1 1.6-.2 1 .1.7.4.5 1.2-.2.8zm-.2-9.8l-.4-.2.1-.4.2-.1.4-.1.1.2v.2h.1v.1l.1-.1h.1l.2.2.2.1.1.3-.1.1h.2l.2-.1h.1l.1.2-.3.2-.1-.1-.1.1h-.1l-.1-.2-.1-.1v-.2l-.1-.1h-.8zm.4 6.9v-.5h.4l.1.2.1.2-.3.1h-.3zm.5.2v-.1h.2l.1.2-.2.2-.1-.3zm1-3.1l-.1.1v.1l-.2-.1v-.2h.2l.1.1zm-.1-.3l.2-.1.1.3v.1l-.2-.2-.1-.1zm.1 1.1l-.1.1h.1v.2l-.4.1v-.2l.1-.1-.1-.3.3-.1.1.1v.2zm.2.4l.1.1v.1l-.2.1-.2-.2v-.1h.3zm-.5-2.1l-.2.1-.1-.1v-.1h.5l-.2.1zm-.3 2.2l.1-.1.2.1v.1l-.2.1-.2-.1.1-.1zm.2 2.8v.1l-.1.2-.1-.3v-.1l.2.1zm-.1 4.8l-.2-.2.1-.1h.1l.1.2-.1.1zm.1-.8l-.2.1-.1-.2.2-.2.2.1-.1.2zm.4-1.1l-.1.1h-.4l.1-.2v-.4l.4.1-.1.2.1.2zm.2-2h-.3l.1-.2.1-.2.2.2.1.1-.2.1zm.1-2.7h-.1l-.1-.1h-.1l.3-.2h.1l-.1.3zm-.1-1.9h-.3v-.2l.2-.1.3.1-.2.2zm-.1-2.3h-.1l-.1.1-.5.2-.3-.2v-.3l.2-.2h.1l.1-.3h.2v.2l.1.1h.3l.2-.1.2.1.1.2-.5.2zm1.3 12l-.1.1h-.2l.1-.2.2-.1v.2zM282.6 115V114.7l-.1.1zM284.9 119.6v-.7l-.1-.6v-.7l.1-.6v-.8l-.1-.5v-.7l-.1-.6v-1.1l-.3-1-1.1-.1-.9.1-.4.7-.2.5-.6-.1-.4-.5-.5-.4-.7-.1-.6-.2-.7-.2-1-.1-1 .1-1.3.2-.6.2-.6.4-.6.5-.4.5-.4.4-.5.7-.3.5-.2.6-.1.7-.1.7v.9l-.1 1.4-.1 1.1.2.7v.6l.2.6.1.6.3.7.3.5.4.6.4.5.3.6.4.4.8.5.9.4.5.1.7.2.9-.1 1 .2.8-.3.5-.2.5-.3.6-.3.4-.4h.4l.3.6v1.1l-.1.7-.3.6-.4.6-.3.5-.4.5-.7.8-.8.2-.5.2h-2l-.7-.2h-.7l-.6-.3-.6-.2-.7-.5-.9-.2-.6.4-.4.9.5 1.1.9.3.6.3.7.1.5.3.7.1 1 .2h2.4l.6-.1.8-.2.5-.2.7-.2.8-.6.8-.6.5-.4.4-.5.2-.6.3-.7.2-.6.2-.8.1-.7.1-1v-1.2l-.1-.5-.1-.7.1-.7v-.7l.1-.6-.1-.6V121l.1-.7.2-.7zm-9.8 13.4l-.4.1-.3-.1v-.5l.3.1.5.1-.1.3zm7.6-7.4l-.2-.1.1-.1.2-.1.1.1.1.1-.3.1zm.3 3.3v.2l-.2.1-.2-.1.1-.2h.3zm.2-11.3l.1.1-.2.1-.2.1v-.3l-.2-.1-.2-.1v-.4l.5-.2.3.2-.1.2v.4zm-.6 4.3l.2-.2.2.3v.3l-.1.1h-.2l-.2-.1.1-.2v-.2zm-.1 3l.3-.3.1.2-.2.2-.2-.1zm.2-1.2l-.1.1v-.3l.2-.1h.2l-.1.2-.2.1zm.2-2.6h.3v.3l-.1.1-.1-.1-.1-.3zm.4.7l.1-.1.1.1v.3l.1.2h-.3l-.1-.2.1-.3zm.1-2.9l-.1-.1-.1-.2.2-.1.1.1.2.3h-.3zm-.3-5.5l.1.1.1.2h-.1l-.3-.1.2-.2zm-.8.1l.1-.2v-.2l.2-.2.1.1v.2l-.2.2v.3l-.1.1-.1-.1h-.1l.1-.2zm-.2 1l.2-.1.1.1.1.2.1-.1v-.1l-.1-.1v-.2l.1-.2h.2v.3l.3.1.2.2.2.2v.2h.1l.1.2-.1.2-.3-.1.2-.3-.1-.1h-.4l-.2-.1h-.3l-.1-.1.1-.2h-.4zm-.1 1.2l.3-.2.4.3-.1.2-.3.1-.4-.2.1-.2zm-.5-1v-.1l.1-.1.2.1-.1.1.1.2-.3.3-.1-.1.2-.1-.1-.3zm-4.8-2.4h.2v.2l-.2.2-.1-.1v-.2l.1-.1zm-1.5.1l.3-.2.2.3-.2.1h-.3v-.2zm-.7 1l.1.1.1-.2.2.2-.1.1h-.3l-.1.1-.2-.2-.1-.2.4.1zm-1.3.3l-.4-.2h-.1l.2-.2.2-.2.6-.1-.1.2v.2l-.1.2h.4l.2.1-.1.2v.2l-.2.1-.1.3-.3.2h-.4l-.3-.2v-.2l.2-.2.1-.1v-.1l.2-.1v-.1zm-1.2 1.1l.3-.1h.1v.2l.1.1v.2l-.1.3.1.1-.2.1-.1-.1v-.2l-.1-.2.1-.1v-.2l-.2-.1zm-.7 1.9l.2-.1h.3l.3.1v.1l-.1.2v.2l-.3.1h-.3l-.3-.1v-.3l.2-.2zm.6 3.8l.1.2.2.1-.1.2v.1l-.1.1-.1.1h-.1l-.2.1h-.3l.1-.3.1-.2.2.2h.2l-.1-.3-.1-.1-.2-.1-.2-.2v-.1l.1-.2v-.1l.1-.2.3.2-.1-.1.2-.1.2.2-.1.2h-.1l-.1.1.1.2zm-.7-.9l-.1-.2.1-.2h.2l.1.1v.3h-.3zm.8-1.1l-.2-.1v-.1h.2l.1.2v.1l-.1-.1zm-1-.2h.2l.1-.1.2.2-.2.1h-.1l-.2-.2zm.2 3.4l-.1-.1v-.3l.2.1v.2l-.1.1zm.9.6l-.1.2.1.1-.1.2-.2-.1h-.2l-.3-.1.1-.1.1-.1.1.1h.2l-.1-.1v-.1l.1-.1-.1-.2.2-.1h.1l.1.3v.1zm.2-.7h-.2l-.1-.1.1-.2.3.2v.1h-.1zm.2-4.4l-.1-.1-.2.1h-.1l-.1-.2h.5v-.1l.1-.1.1.2.1.3h-.2l-.1-.1zm1 8.3l-.2-.1-.1-.2.1-.2-.2-.1h.4v.6zm-.2-1.7l-.2-.2-.2-.2h-.2v-.5l.3-.2.5.3.2.1v.2l.1.3-.5.2zm4.1 3l-.1.1-.3-.1v-.2l.1-.2.3.2v.2zm4.3-4.3l-.2.6-.2.8-.3.5-.5.6-.5.3-.5.4-.7.2-2-.1-.7-.1-.6-.3-.5-.6-.3-.5-.3-.7-.2-.5-.3-.7v-.6l-.1-.7v-1l.1-1-.1-.8.1-.5.2-.7.3-.6.6-1.3.5-.4.7-.3.6-.2.9-.2 1 .2.7.2.5.4.9.9.4.6.1.6.2.7.3.7.1.7-.1 1.2.1 1-.1.5-.1.7zm.2 2.6v-.1l.1-.2h.2v.2l-.2.1h-.1zm.3 4.7l.2-.2.3.1v.2l-.2.1-.2-.1-.1-.1zm.6 1.5l-.5-.1v-.2l.3-.2h.3v.3l-.1.2zm.3-1.7l-.1.1-.1-.1v-.3l.1.1.1.1v.1zm.2-5.5l-.4-.2.1-.3.2-.2.4.2.1.3-.4.2zM304.3 118.9v-.6l-.2-.7v-.8l-.1-.6-.4-.7-.2-.8-.3-.5-.4-.5-.6-.5-.8-.6-1.5-.6h-.6l-1.1-.1h-1.9l-.8.3-.6.4-.4.4-.6.5-.5.2-.3-.6-.4-.7-1-.3-.8.3-.4.9-.2 1 .1.7-.1.6.1.7v1.3l-.1.6-.1.7.1.8v1.3l.1.7v2.8l-.1.8.1.6-.1.7.1.7v.7l.1.9-.1 1-.1.8v.5l.1.7.1.9.2 1.1.4.4.7.1.8-.1.5-.5.1-.7.1-1 .1-.9v-3.7l.3-.4.6.2.4.5 1.2.7.7.3.7.1 1.1-.1.9.1.7-.1.6-.2.6-.3.7-.4.5-.5.4-.5.5-.7.4-.7.3-.6v-.6l.2-.7.3-.7v-.6l.1-.6.1-1-.1-1-.2-.8zm-1.1-3.3l.2.1-.1.2h-.1l-.2-.1-.1-.1.3-.1zm-.4 1l.3-.1.3.2.1.4-.4.1h-.4l-.1-.1-.3.3v-.1l-.1-.1.2-.2.2.1v-.2l.1-.1.1-.2zm.2 3.5v-.1l.2.2v.2h-.1l-.2.1-.1-.1v.2l.1.1-.1.2h.1v-.1l.2.1v.4l-.1.2h-.3l.1-.1h-.2l-.1-.1v-.4l-.1-.2v-.2l.1-.4.2-.1v.2l.3-.1zm-.5-.3l-.2-.1v-.2l.1-.1.2.1v.3h-.1zm-.3-4.2l.1-.5.2-.2.1-.1v.6l-.1.2.1.1-.1.1h-.1l-.2-.1v-.1zm.1.5l.1.1h-.2l-.2-.1v-.2l.1-.1.2.3zm-2-2.3v.1l.1.2v.1l.2-.1.2-.2v-.2l.1-.1-.1-.2h.1l.5-.1.1.1.1.3h.1v.2h-.4v.2l.2.2.1.2.1.1h.2v.3l-.2.2h-.3l-.3-.1h-.1l-.3.1-.3-.2v-.5l-.2.1.2-.3-.1-.4zm-.5-.2h.4v.2l-.2.1-.1-.2-.1-.1zm-.5-1.3l.2.1v.3h-.1l-.2-.1v-.1l.1-.2zm-.9-.1h.2l.1-.1.1.2-.1.2-.3-.1v-.2zm-.5.2h.1l.1.1v.2l-.2.1v-.4zm-.4 0v.3h-.2l-.1-.3h.3zm-2.1.7l-.1.3h-.4v-.1l.2-.2h.3zm-.9-.1l.2-.1.2.1-.1.2-.3.3-.3-.1.3-.4zm-2.7.8l.2-.1.3.1v.2l-.1.1.1.2h-.3l-.1-.1-.1-.2h.1l-.1-.2zm.1 1l.3.1v-.3l.1-.1.1.1v.2h-.1v.5l-.2-.1h-.3l-.1-.2-.1-.2h.3zm.9.8l-.1.3-.3.3-.3-.1v-.3l.3-.3.4.1zm-1.5 1.3h.2l-.1.3-.1.1.1.3v.1h-.5v-.3l.1-.1.1.1v-.3l.2-.2zm0 1.3v.1h-.2l-.1-.2.2-.2.1.3zm-.4-2.7l.2.2v.2h-.3l.1-.4zm-.1.9l.2-.1.1.1v.2h.1v.1l-.1.2-.2-.1v-.1l-.1-.3zm-.1 2.5l.3-.3.3.1.1.1v.1l.1.1-.1.2.1.2v.4l.2.2-.1.1h-.1l-.2-.1.1-.1v-.2l-.2-.1-.4-.2-.1-.5zm.8 8.2l.1-.1-.1-.1.1-.1.2.1v.1l.2.6-.3.2-.4-.3-.1-.2.3-.2zm-.1-3.6l.1-.2.1-.1.1.1v.2h-.3zm.3 4.8l.3.2v.5l-.2-.1h-.4l-.1-.3.4-.3zm.1.8l.1-.1v.1l.1.1.1-.1v.3l-.1.1h-.2v-.4zm.2-4.5l.1.1v.2h-.3l.2-.3zm-.2-6.2v-.3l.2-.1.1.1v.2l-.2.1h-.1zm0 4.1h-.7v-.2h.1l.1-.1h.2l.2.1v.2h.1zm-.1-2.4l.1.1-.2.1-.1-.1v-.2l.2.1zm-.6.1v.1l-.1.1h-.1l.1-.3.1-.1v.2zm-.2 1.6v-.3l.1-.1-.1-.3.2-.1.1-.1v-.1l.1-.1.3.2-.1.1h.1l.1.2v.3l-.4.2h-.2v.3l.1.1.1.2h-.3l-.1-.1v-.4zm0 5.7v-.2l.3.1-.1.3h-.1v-.1l-.1-.1zm.1 1.9l-.1.1h-.1v-.2l.3-.1-.1.2zm.3 1.1l-.1-.1v-.2l.1-.1.2.2-.2.2zm.1-.9l.2-.1.1.1.1.1-.2.2-.1-.1-.1-.2zm1 1.8l-.3.3-.4-.2.1-.4.4-.2.2.2v.3zm.1-14l-.3.2-.2.3h.1l-.3.1h-.1l-.1-.3.2-.1v-.6l.1-.1-.3-.1.1-.1h.2l.2-.1v.3h.2l.3.3-.1.2zm.4 7.2h-.1l-.1-.1-.1-.2h.2l.2.1-.1.2zm4.5 3.9l-.2-.1v-.2l.1-.2.1.2v.3zm3.7-6.3l-.1.6v.7l-.2.7-.3.7-.3.6-.3.4-.4.4-.6.5-.8.2-.9.2-1-.1-.7-.3-.5-.3-.5-.5-.5-.6-.2-.7-.3-.5-.2-.7v-.8l-.3-.7v-2.1l.1-.6.1-.7.1-.7.2-.7.3-.5.3-.7.3-.5.6-.4.5-.3.7-.3h.9l.9.1.6.2.6.4.5.5.5.6.2.5.3.6.2.7.1.7.1.6.1 1.2-.2.9.1.7zm.3 4.3l-.1-.2.1-.2h.2l.1.3-.3.1zm.4-1.2l-.2-.1-.1.1h-.2v-.2l.2-.1h.1l.1-.1.1.1.1.2-.1.1zm.2-6.3l-.1-.2h.6l.1.2-.2.1-.1-.1-.2.1-.1-.1zm.2 2.7l.2-.2.1.2v.1h-.2l-.2.1.1-.2zm.4 4.2l-.2.1-.1-.1.2-.2.1-.1.1.2-.1.1zm.7-1.7l-.2.1-.1.3h-.1l-.3-.1-.1-.3.3-.1h.2v-.1l.2-.1.1.1v.2zm-.2-1.6v-.1l-.2.1h.1v.2l-.1.1-.1-.1v-.2l-.1-.1.1-.3-.1-.1.3-.1v.2l-.1.2h.2l.1-.2.1.1.1.2-.3.1zm.5-2.9l-.1.1-.1-.2-.1-.1h.3v.2zm-.2-1.3l-.3-.2-.1-.1.1-.1-.1-.1h.1l.3-.1.4.1.1.4-.5.1zM322.7 119.5l-.1-.6v-.8l-.3-.6-.4-1.3-.2-.7-.3-.5-.2-.7-.7-.6-.8-.8-.6-.3-.6-.4-.6-.2-.6-.1-.8-.1-.9.1h-1.9l-1.3.4-.6.2-.7.5-.5.4-1 .9-.2.7-.6 1.2-.2.5-.3.6v1l-.2 1 .1 1.1-.1 1 .1.7.1.6.3.7.2.7.3.5.2.6.4.7.6.8.6.8.5.4.6.3.6.3.6.3.6.1h.6l1 .1h1.1l.7-.2.6-.2.6-.2.6-.2.6-.3.5-.3.5-.6.4-.4.4-.7.4-.6.2-.5.2-.7.2-.7.3-.7v-1.3l-.1-1 .1-.9zm-2.3-4.2l.4-.1.4.1v.3l-.3.3-.5-.2v-.4zm.8 1.1l-.1.1-.1-.2.1-.1.1.2zm-2-3l.2-.1.2.2.1.1-.2.1.1.1-.1.1-.1.1-.1-.1.1-.2h-.1l-.1-.1v-.2zm-.8-.3h.2v.3l.1.2-.1.1.1.1.1-.1.1.1-.2.1-.1.1v-.1h-.4v-.2h.1l-.2-.1.1-.2.1-.1.1-.2zm-1-.4l.3.1.1-.1h.1l-.1-.2.2-.1v.1h.1l.1.1-.1.2v.1l-.1.1h-.2l.1.1.1.3-.4.1-.3-.1-.1-.1v-.4l.2-.2zm-6.4.4l.2-.1.1.1.1-.1.1.1.1.1.1.2.1.1-.1.2-.2-.1-.1-.1-.2-.1h-.2l-.2-.1.2-.2zm-.1.8l.1-.1.1-.2.1.1v.3l.1.3h-.2l-.2-.1v-.3zm-1.7 1.7h.2l-.1.1h-.2l.1-.1zm-.1 1.1l.1-.3v-.2l.2-.1.2.1v.9l-.2.1-.1-.2v-.2l-.2-.1zm.5 2v.3l-.2.1-.1-.2v-.2h.3zm-.8-.6l.3.2.1.2h-.2l-.2-.1-.2-.1.2-.2zm-.2 2.3l.3-.1.4.2.1.3v.3l.2-.1v.3l-.3.1-.1-.1v-.2l-.1-.1-.4-.2v-.4h-.1zm1.2 3.1h.2l-.1.3-.2.1-.2-.2.1-.1.2-.1zm-.7-1.6l-.1.3-.3.2-.4-.2.1-.4.3-.1h.3l.3.1-.2.1zm.7 3.9l-.5-.1.1-.3h.7l.1.4h-.4zm.6-1.7l-.1.1.1.1-.3.1h-.3v-.3l.2-.1.1-.1.2-.1h.2v.2l-.1.1zm.1-8.6l-.1.2-.2.1-.1.1-.4-.2v-.1l-.2-.1.1-.2.1-.2.1.1.2.1h.2l.1-.1h.2v.3zm.2-.6h-.5l-.3-.1v-.3h.1l-.1-.1-.1-.2.1-.1.3-.1h.1l.1-.1.1-.2.2-.2h.3v.1l-.1.2-.1-.1h-.1l.1.1-.1.2.1.1.2.2v.1l.1.2-.4.3zm.3 11.5l-.1-.1v-.3l.2-.2.2.2v.1l-.3.3zm7.8-.1h-.2l-.1-.1.2-.2.1.2.1.1h-.1zm.7-4.7l-.1.5-.2.8-.1.5-.3.6-.2.7-.3.7-.5.4-.5.4-.6.3-.9.1h-1.5l-.7-.1-.5-.2-.5-.5-.5-.5-.3-.5-.3-.7-.2-.5-.2-.8v-.5l-.1-.8v-1l-.1-.9-.1-.8.2-.7.1-.5.2-.7.4-.5.4-.4.4-.7.5-.4.8-.3 1.3-.3h.9l.5.3.7.3.6.4.2.5.5.6.2.6.2.7.2.6.1.5.1.8-.1.9.3 1.1zm0-6.1l-.1-.1-.1-.3.1-.1h.1l.1-.1h.2l.2.2-.1.1-.2-.1.1.1-.3.3zm.4 1.1l.1-.1-.1-.3.4-.1.2.2.3.1v.1h.2l.1.1v.2h-.2l-.1.1h-.4v-.1l-.3.1-.2-.3zm.5 4.4l.2.1v.3h-.1l-.1.3v.1h-.2v-.6l.2-.2zm.6 1.8h-.2l-.1.2v.4h-.3l-.3-.1-.1-.3.4-.2.1-.2.2-.1.2.1v.2h.1zm-.4-4.2l-.2-.2-.1-.2.3-.2.5.2-.1.1.2.2h-.1l-.1.2-.4-.1zm.7 2.4v-.4l.3-.1.2.1v.4h-.5zm.5-.8l-.1.1h-.4l.1-.2.1-.2-.2-.1.3-.2.2.1-.1.2.1.3zM340.6 120.1l-.5-1.1-.5-.9-.7-.7-.5-.5-.5-.3-.6-.3-.5-.2h-.8l-.5-.1.5-.2.4-.2.8-.2.9-.6.7-.6.4-.6.3-.6.2-.6v-.7l.2-.8-.1-1.1-.1-.6-.2-.6-.2-.6-.5-.5-.4-.5-.3-.5-.6-.4-.6-.3-.6-.3-.5-.1-.8-.2-.6-.1h-1l-1.1-.1-.7.1-.7.4-.7.2-.6.3h-.6l-.6.4-.5.6-.4.6-.1.5-.2.6-.2.6-.2.5-.1.8v2.8l.1.6v1.2l-.1.7.1.8v.5l-.1.5-.1.7.1.8v.7l-.1 1.1.1.6-.1.7v.9l.1.8.2.7.3.6.2.6.2.6.3.5.5.5.6.4.6.4.6.3.6.2.7.1.6.1h2.6l.8-.2.7-.1.6-.2.7-.2.7-.7.9-.6.3-.5.4-.5.3-.6.1-.7.2-.6.1-.6.1-1v-1l-.1-.7.1-.7zm-3.7-3l.1-.2.2.1-.1.2h-.3l.1-.1zm-.2.5h.2v.2l-.2.1-.2-.2v-.1h.2zm-1-1.4l.3.1h.2l.1.2-.2.1-.4-.1-.2-.1h-.1l.3-.2zm.1-1.5l-.1.1h-.2l.1-.2.1-.2.1.3zm1.4-.7l-.2.1-.1-.3.3-.1.1.2.1.1h-.2zm-.2-1.5l.1-.2v.5h-.1v-.3zm.6 1.3l-.1.1-.1-.2.2-.2h.2l-.2.3zm-.3-.7l.1-.2v-.1l.2.2-.1.2-.2-.1zm0-.8v-.2l.2-.1.1.1.1.1-.4.1zm.1-1.4l.1-.2.2-.1v.6l-.2.1-.2-.2-.1-.2h.2zm-.1-2.4l.1-.2.2.2v.1l-.1.1h-.3l.1-.2zm1 4.6h-.2v-.4l.3.2-.1.2zm.3-1.1l-.1.1h-.4l-.1-.1v-.1l.2-.1.2.1v-.1h.1l.3.1-.2.1zm-.3-2.6l.3-.2.1.1-.1.3h-.1l-.3-.1.1-.1zm.1.5l.5.3-.1.4-.3.1-.3-.2-.1-.5.3-.1zm-.4 0l.1.2-.1.1.1.2.1.1h.1l.1.2-.2.1-.2-.1-.2-.2-.1-.1.1-.2v-.1l-.1-.1v-.2l.2-.2.1.3zm-.1-.7l.1.2-.1.2-.1.1-.1-.2-.1-.1v-.5l.2-.1.1.4zm-.7-1.7l.3.1.1.1-.1.2-.2.1h-.1l-.1-.1-.1.1-.2-.1v-.2l.2-.1v.1l.2-.2zm-.6-1.2l.2-.1.2.1v.2l-.1.2v.1h-.2l.1-.3-.2-.2zm.2 7h.1v.3h-.4l.1-.3h.2zm-.7-6.6l.2.1-.1.1h-.2l-.1-.1v-.1h.2zm-.6-.6v-.2l.3-.1.1.2v.5h.1l-.2.1h-.2l.1-.3-.2-.2zm-2.1-1.1l.4.1.2.1-.1.1-.3.2h-.3l-.1-.4.2-.1zm-3.9 1.6l.1-.1v-.4l.3-.1.1-.2.1-.2.1.1.1.3h-.1l-.3.1v.4l-.1.2v.3l-.1.1-.3-.3.1-.2zm-.1 5.1v-.9l.1-.8.2-.8.4-.8.5-.7.6-.4.7-.2h1l1.2-.1.5.2.6.4.4.6.4.5.1.7v2.1l-.2.7-.2.6-.3.6-.4.4-.6.5-.5.2-1.1.2-1 .4h-.6l-.8.1-.6-.3-.5-.5v-.6l.1-.6.1-.6-.1-.9zm5 4.6h-.2v-.2l.2-.1h.1l-.1.3zm-1.4 0v-.2h.1l.2-.1.1.2-.1.1h-.3zm.1.3l-.2.1-.3-.1.1-.2h.3l.1.2zm-3.8-1l-.2.1-.1-.1v.3l-.3.1-.2-.2-.1-.2v-.1h-.2l.1.2-.1.1v.2l.1-.1h.2l.1.1.2.2-.2.1-.2-.1v.2l-.1.2v.2l.1.1v.2l-.2.1-.2-.1h-.1v-.1h-.2l-.1-.2v-.2l.2.1.1-.1.1-.1h-.1v-.3l-.1-.2.1-.2-.2.2-.1-.2v-.1l.1-.3v-.4h-.1v-.3l.2-.2h.5v.5l.1.1h.4l.2.2.1-.1.1-.1.3.1-.2.4zm-1.6 5.6l-.1.1-.1.2-.2-.1h-.1v-.1l.1-.1v-.2l-.1-.3.5-.2.3.2-.1.3v.2l.1.1.1.2h-.1l-.2-.1.1-.2h-.2zm.3-2l-.2-.1.1-.2.2-.1h.2l-.1.3-.2.1zm.1.6l-.1.2h-.1l.1-.1.1-.2v.1zm-.2-2.1l-.2-.1v-.3l.2.2v.2zm-.1.7l.1.3-.2.1-.1-.1v-.1l.2-.2zm-.2.4l-.1.3h-.1l-.1-.1v-.1l.2-.1h.1zm-.1-2.4l-.3-.1v-.3h.1l.2.1v.3zm.7 3.8h.2l.1.1v.2h-.1l-.2-.2v-.1zm.3-.4l-.2-.2-.1-.2h.3l.1.2-.1.2zm.2-11.2v-.3l.2.1v.2h-.2zm.5-.4l-.1.2-.3-.2.1-.1.2.1h.1zm-.5-1.9l.3.1h-.1l-.2.2v-.3zm-.2 2.8l-.1.3.1.1-.1.1.1.2-.1.2-.1.1-.1-.1h.1l-.1-.3.1-.2v-.2l.1-.2h.1zm-.3 2.3v.2l-.1.2-.2-.1-.1-.1.1-.3.3.1zm-.2-3h.2l.1.1-.1.1-.2-.1v-.1zm-.3.5l.1.1.2.3-.2.1-.1-.3v-.2zm-.2 1.2l.2-.1v.1l.1.1-.1.2-.2-.1v-.2zm-.1 2l.1.1.1-.1.1.1v.1l-.1.1h-.1l-.1.1-.1-.1h-.2l-.1-.2.4-.1zm-.3 1.6l.1-.2.2-.1h.2l.1.1.1-.2-.1-.3.3-.1h.4l-.1.3.1.3.1.1v.5h-.2l-.2-.1.1-.2h-.1l-.2.1-.3.2h-.4l.1-.2v-.1h-.2v-.1zm.6 8.6l-.3.2-.4-.2v-.4l.4-.1h.2v-.2l.2-.1v.6l-.1.2zm.6 2.5l-.2.1h-.2l.1-.2.1-.2.2.3zm0-1.8l-.2.3-.2-.2v-.3l.2-.1.3.1-.1.2zm.4 1.6l-.3-.1v-.3h.3l.2.1v.3h-.2zm.2-8.6h.4l.4.2v.4h.1l.1.1.1.3h-.3l-.1-.1-.1-.1-.1-.1-.4-.2-.1-.5zm1 10.1l-.2.1h-.2l-.1-.2.2-.1.3.2zm1.2 1.5l-.3.2-.3-.3v-.3l.4-.2.3.1-.1.5zm5.9-3l-.2.6-.5.7-.4.3-.6.3-.6.3h-1l-1.2-.1-.5-.2-.6-.3-.6-.5-.4-.4-.2-.7-.2-.6-.2-.6-.1-1.2v-.9l.1-.8-.2-.6.1-.8.3-.7.7-.6.7.1.6-.1 2.1-.1.7.2.7.2.5.5.4.5.3.6.3.7.1.7.1 1.1-.1 1.1-.2.6.1.7zm.5 1l-.2.1v-.2l.2-.1.1.1-.1.1zm.1-6.6h-.4l-.1-.2.3-.1.2.1v.2zm0-.9l.1-.2.1.2.1.2h-.3v-.2zm.5 5.8l-.2-.2.1-.1.1-.1.2.1.1.3h-.3zm1-2.7l.3.1v.3l-.2.2h-.1l-.1-.2.1-.2v-.2zm-.4-2l.2-.2.1.1-.1.2-.2-.1zm0 .6l.2-.1.1.1-.1.2h-.3l.1-.2zm-.2 3l.3.1v.1l-.3.1v-.3zm.3 3.3l-.4-.2v-.4l.4-.1.3.3.1.3-.4.1zm.7-2.8l-.3.1-.2.1v.1l-.2.2-.2-.3.3-.2v-.4l.3-.1.3.2v.3zM357.9 126.7l-.6-.5-.3-.8-.1-1v-1.6l.1-.7v-1.3l.1-.7-.1-.8-.1-.6.2-.7-.1-1.1-.2-1.2-.4-1.2-.3-.6-.4-.5-.5-.3-.6-.3-.6-.3-.7-.3-2.5-.2-.9.1-.8-.1-.6.2h-.7l-.6.2-.5.2-.9.3-.8.9.3 1 .7.3.8-.1.8-.3.7-.1.5-.3.6-.1 1.1-.1 1.1.1.7.2.8.5.3.6.3.6.1 1v.9l-.4.5-.6.3-.5.1-.9-.1-1 .1-.8.1h-.7l-.7.3-.6.2-1.1.2-.7.6-.5.4-.4.6-.3.6-.1.6-.3.6v1l.1 1.2.1.7.4.6.4.9.7.7.6.4.6.3.7.1.7.2.9.1 1.1-.1.7-.2h.5l1-.6.8-.6.4-.5.3.2.5.7.9.7.6.2 1 .1 1-.3.3-.9v-.9l-.6-.4zm-11.2-13.2h-.1l-.1-.1-.1-.2.1-.2.1-.1v.5l.1.1zm.9-.8v.2l-.1.2h-.5l.1-.3.1-.2.2-.1h.2v.2zm1.9-.2v-.2l.3-.2.2.2-.1.1h-.4v.1zm.6.3l-.2-.1v-.3h.2l.1.1-.1.3zm1 .1l-.3-.1v-.3h-.1l-.1-.1v-.3l.1.2.1.1.1.2h.2v.3zm1-.5l-.3.1-.4-.2.1-.2.1-.1h.5l.1.1-.1.3zm.5.7h-.1l-.1.1v-.3l.2.1v.1zm-6.1 11.4l-.3.1-.3-.1v-.1l.4-.1.2.1v.1zm-.1.8h-.2l-.2-.2v-.1l.1-.1.2.1.1.3zm-.1-4v.4l-.2-.1-.1-.2.3-.1zm-.6.4l.2-.1v.3h-.3l.1-.2zm-.7 2.1l-.3.2h-.1l-.1-.1.3-.1h.2zm0-1.9l.1-.2v-.1l.2.1v.2l-.1.1-.2-.1zm.4.9h.4v.2l-.1.2h-.5v-.3l.2-.1zm.1 2.2h-.2l-.1-.1.3-.2.1.1v.2h-.1zm.2-1.3l.1-.1h.3v.3l-.1.1-.2-.1-.1-.2zm.7 3.3l-.3.1-.3-.2v-.2l.4-.2.3.2-.1.3zm.6-6.2l-.2.1-.1-.1.2-.1.2-.1v.2h-.1zm1.6 7h-.7l-.1-.5.3-.1h.2l.3.2v.4zm5.1-4.4l-.2.9-.3.7-.4.6-.3.5-.6.3-.5.2-.6.3h-1l-.9-.2-.6-.3-.4-.7-.3-.7-.1-.9V123l.3-.5.4-.5.5-.4.7-.4.7-.1 1.6-.2 1 .1.7.4.5 1.2-.2.8zm-.3-9.8l-.4-.2.1-.4.2-.1.4-.1.1.2v.2h.1v.1l.1-.1h.1l.2.2.2.1.1.3-.1.1h.2l.2-.1h.1l.1.2-.3.2-.1-.1-.1.1h-.1l-.1-.2-.1-.1v-.2l-.1-.1h-.8zm.4 6.9v-.5h.4l.1.2.1.2-.3.1h-.3zm.6.2v-.1h.2l.1.2-.2.2-.1-.3zm1-3.1l-.1.1v.1l-.2-.1v-.2h.2l.1.1zm0-.3l.2-.1.1.3v.1l-.2-.2-.1-.1zm0 1.1l-.1.1h.1v.2l-.3.1v-.2l.1-.1-.1-.3.3-.1.1.1-.1.2zm.2.4l.1.1v.1l-.2.1-.2-.2v-.1h.3zm-.6-2.1l-.2.1-.1-.1v-.1h.6l-.3.1zm-.3 2.2l.1-.1.2.1v.1l-.2.1-.2-.1.1-.1zm.3 2.8v.1l-.1.2-.1-.3v-.1l.2.1zm-.2 4.8l-.2-.2.1-.1h.1l.1.2-.1.1zm.2-.8l-.2.1-.1-.2.2-.2.2.1-.1.2zm.4-1.1l-.1.1h-.4l.1-.2v-.4l.4.1-.1.2.1.2zm.3-2h-.3l.1-.2.1-.2.2.2.1.1-.2.1zm0-2.8h-.1l-.1-.1h-.1l.3-.2h.1l-.1.3zm0-1.8h-.3v-.2l.2-.1.3.1-.2.2zm-.2-2.3h-.1l-.1.1-.5.2-.3-.3v-.3l.2-.2h.1l.1-.3h.2v.2l.1.1h.3l.2-.1.2.1.1.2-.5.3zm1.2 12l-.1.1h-.2l.1-.2.2-.1v.2zM374.3 126.6l-.4-.6-.4-.5-.3-.6-.3-.5-.5-.5-.3-.6-.3-.6-.5-.6-.4-.5-.2-.4-.2-.7.2-.8.5-.6.5-.6.3-.6.5-.5.4-.5.4-.6.3-.6.5-.6.5-.8.3-.8-.5-.7-.8-.3-1 .5-.6.7-.3.5-.5.7-.4.6-.4.5-.3.6-.5.6-.4.4-.6.4-.5-.4-.3-.5-.5-.6-.3-.5-.5-.5-.5-.6-.3-.5-.4-.6-.7-.8-1-.5-.9.3-.4.7.2.9.5.7.3.5.7.8.5.8.4.6.4.5.3.6.4.4.5.5.2.9-.2.7-.4.5-.4.6-.4.5-.5.6-.2.6-.5.6-.3.6-.4.6-1.5 1-.2 1 .4.8.8.4 1.2-.6.5-.8.4-.5.3-.6.4-.5.4-.5.6-.9.5-.6.3-.5.7-.4.5.3.5.8.6.9.3.5.5.5.3.6.4.5.3.7.7.7 1.2.4.7-.2.3-.8-.2-.8v-.8zm-1.4-13.3h.3l.1.1.1-.1.2.2-.1.2v.1l-.1-.2h-.2l-.1.1-.3-.3.1-.1zm-.6.1l.3-.2.2.1-.2.3.1.3h-.2v-.1l-.1-.2-.1-.2zm-.4 1.4l.3-.2.1.1.1-.1h.2v.3l-.1.1h-.4l-.2-.1v-.1zm-.5-.1h.3l-.1.2-.1.1-.2-.1.1-.2zm-.8 1.9l.1-.2.1-.1-.1-.2h-.2l.1-.2v-.2l-.1-.1.2-.1.1.1.2.1.3.2v.3l-.3.3-.1-.1.1.1v.4l-.1.2v.2l-.2.1-.2-.2.1-.1v-.3l.1-.2h-.1zm-6.6-1.9l-.2-.3h-.1l-.1-.1-.1-.2-.1-.1h-.1v-.3l-.2.1-.2-.1v-.2h.3l.2-.1h.1l.1.2-.1.2.1.2.1-.1.3.1.2.2.2.1-.1.5-.3-.1zm.6 1.2v.2l-.2-.2.1-.1v-.1l.2.1v.1h-.1zm3.7 2.2l.1.1v.2l-.2.2-.1-.1.2-.4zm-.5 1.5l.2-.1h.2l-.1.2h-.1l-.3-.1h.1zm-.1-.1l-.2-.2v-.2h.3l.1.1v.1l-.2.2zm.4-.9l-.1.2-.2-.2-.1-.1.1-.1.3.2zm-2.2-2.3l.3.1-.1.3-.2-.1-.1-.2.1-.1zm.2 5.8v-.1l.2-.1.1.1.1.2-.1.1v.4l-.2-.2.1-.2-.2-.2zm-.3-4.7h.3l-.1.2h-.1l-.1-.2zm-.6-.9l-.1.1-.2-.1.1-.2.1-.2.3.1-.2.3zm.3.6l-.2-.1.1-.2.1-.1h.1l-.1.2v.2zm.1 1.2v-.4l.4-.1v.4l-.4.1zm-1.5 8.4l-.3.1h-.4v-.4l.4-.3.4.2-.1.4zm2.3-3l-.2.2h-.3l-.2.2-.1.3h.2v.2h-.3l.1-.1-.2-.1-.4-.2-.4-.3v-.3l.4-.2.2.1.2.1h.1l-.1.2.1-.1.2-.2.1-.1h-.4v-.4l.2-.2.1.1.1.3h.1l.3-.3.3.1.2.3-.3.4zm.5-6.4l-.3.2-.4-.3.1-.3.3-.1.2.1.2.2-.1.2zm.5.8l-.1.2v.1l-.1-.1v-.3l.2-.2v.1h.2l-.1-.1h.1l.1.1.1.1-.2.1h-.2zm.2 2.8h-.1l-.1-.3.2-.1.1.1h.1l-.2.3zm.4-.3l-.2-.1v-.1l.2-.1.1.1-.1.2zm.5.4l-.1.2v.1l.1.1-.2.2-.2-.2.1-.1v-.3l-.1-.1-.1-.1.1-.2h.1l.2.1.1.2v.1zm.1-1.1l-.1-.2-.1-.1-.3-.1v-.2l.1-.2.1-.3.4.1.2.1v.2l-.1.2-.1.1v.1l-.1.3zm.3 1.3l-.1-.1-.1-.1.1-.2v-.2h.2l.1.1v.4l-.2.1zm1-4l.1-.2.1.1v.4l-.1-.1h-.2l.1-.2zm.1 5.3l-.2-.1v-.1l-.1-.2.3-.2.1.1.1.2v.3h-.2zm.8.4h-.3v-.2l.1-.1h.1l.1.3zM365.8 123.3" class="st0"/></svg>