<?xml version="1.0" encoding="utf-8"?>
<!-- Generator: Adobe Illustrator 19.0.0, SVG Export Plug-In . SVG Version: 6.00 Build 0)  -->
<svg version="1.1" xmlns="http://www.w3.org/2000/svg" xmlns:xlink="http://www.w3.org/1999/xlink" x="0px" y="0px"
	 viewBox="170 -306.2 540 654" style="enable-background:new 170 -306.2 540 654;" xml:space="preserve">
<style type="text/css">
	.st0{fill:#FFFFFF;}
</style>
<g id="Layer_2">
	<g>
		<g>
			<path class="st0" d="M435.6-253.2c-115,0-208.6,93.6-208.6,208.6c0,142.7,186.7,352.3,194.6,361.1c7.5,8.3,20.5,8.3,27.9,0
				c7.9-8.9,194.6-218.4,194.6-361.1C644.2-159.6,550.6-253.2,435.6-253.2z"/>
		</g>
	</g>
</g>
<g id="Capa_1">
	<g>
		<path d="M405.3,202h60.7V80.7h30.3V-40.6c0-16.8-13.6-30.3-30.3-30.3h-60.7c-16.8,0-30.3,13.6-30.3,30.3V80.7h30.3V202z"/>
		<path d="M435.6-101.2c25.1,0,45.5-20.4,45.5-45.5c0-25.1-20.4-45.5-45.5-45.5c-25.1,0-45.5,20.4-45.5,45.5
			C390.1-121.6,410.5-101.2,435.6-101.2z"/>
	</g>
</g>
</svg>
