<?xml version="1.0" encoding="utf-8"?>
<!-- Generator: Adobe Illustrator 19.0.0, SVG Export Plug-In . SVG Version: 6.00 Build 0)  -->
<svg version="1.1" id="Layer_1" xmlns="http://www.w3.org/2000/svg" xmlns:xlink="http://www.w3.org/1999/xlink" x="0px" y="0px"
	 viewBox="-29 31 40 40" style="enable-background:new -29 31 40 40;" xml:space="preserve">
<style type="text/css">
	.st0{fill:#010202;}
</style>
<path id="XMLID_40_" class="st0" d="M8.5,58.3c-0.3,0-0.2,0.3-0.3,0.5c-2.7,5.7-7,9.3-13.1,10.8c-4.9,1.2-9.6,0.6-13.9-1.9
	c-5.6-3.3-8.9-8.2-9.7-14.6c-1-8.3,3.3-16,10.7-19.8c8.3-4.2,18.5-2,24.3,5.3c1.7,2.2,3.2,4.6,3.7,7.4c0.8,4.5,0.6,8.9-1.2,13.1
	c-1.8,4.1-4.6,7.2-8.4,9.4c-2.9,1.7-6,2.5-9.4,2.3c0.9,0,1.8,0,2.6-0.3c1.6-0.6,3.3-0.9,4.8-1.6c1.6-0.7,3-1.6,4.4-2.7
	c1.3-1.1,2.5-2.4,3.5-3.8C7.2,61.1,7.9,59.7,8.5,58.3c0.2-0.2,0.2-0.5,0.3-0.7c1.2-3.3,1.4-6.9,0.7-10.3c-1-4.7-3.4-8.6-7.4-11.4
	c-4.2-3-8.8-4.2-13.9-3.4c-7.1,1.1-12.1,5-14.7,11.7c-2.4,6.3-1.6,12.3,2.4,17.7c3.5,4.8,8.4,7.2,14.3,7.5c4.6,0.2,8.6-1.3,12.1-4.3
	c3.6-3,5.7-6.9,6.5-11.5C8.9,52.8,9,52,9,51.2h0.1c0,4.2-1.3,7.9-3.7,11.3c1.4-1.6,2.4-3.5,3.1-5.6C8.8,57.5,8.4,57.8,8.5,58.3
	L8.5,58.3z"/>
<path id="XMLID_42_" class="st0" d="M-15.6,51.7c-0.2-0.1-0.4-0.1-0.6-0.2c-0.2,0-0.4-0.1-0.5-0.3c-0.4-0.4-0.7-0.8-0.9-1.3
	s-0.4-1-0.5-1.5c0-0.3,0-0.6,0-0.9c0.1-0.4,0.2-0.7,0.3-1.1c0.1-0.3,0.3-0.7,0.4-1s0.3-0.5,0.5-0.8c0.2-0.4,0.6-0.7,0.9-0.8
	c0.3-0.1,0.7-0.2,1-0.2c0.4,0,0.7,0.2,1,0.4s0.7,0.4,1,0.7c0.1,0.1,0.3,0.3,0.4,0.4c0.1,0.1,0.3,0.3,0.3,0.5c0.2,0.5,0.4,1,0.4,1.6
	c0.1,0.6,0,1.2-0.1,1.8s-0.3,1.1-0.6,1.6s-0.7,0.8-1.2,1c-0.3,0.1-0.6,0.2-0.9,0.2C-15,51.8-15.3,51.8-15.6,51.7
	C-15.5,51.8-15.5,51.7-15.6,51.7L-15.6,51.7L-15.6,51.7z M-17.6,47.4c0,0.1,0,0.3,0,0.4l0.1-0.1l0.1-0.1l0.8-0.8
	c0-0.1,0-0.2,0.1-0.4c0-0.1,0-0.3,0.1-0.4c0-0.1,0.1-0.2,0.1-0.5c0.1-0.2,0.2-0.4,0.3-0.6c0.1-0.2,0.2-0.3,0.3-0.5
	c0.1-0.1,0.3-0.2,0.4-0.2c0.2,0,0.3,0.1,0.5,0.2c0.1,0.1,0.3,0.2,0.4,0.3h0.1c0,0,0.1,0,0.1-0.1c0,0,0.1,0,0.1-0.1l-0.1-0.1
	c0,0-0.1,0-0.1-0.1l-0.3-0.1l-0.3-0.1c-0.3-0.1-0.7,0-0.9,0.2c-0.3,0.3-0.6,0.6-0.8,0.9c-0.2,0.4-0.4,0.7-0.6,1.1
	C-17.4,46.7-17.5,47-17.6,47.4z M-17.3,49.8c0,0.1,0.1,0.2,0.2,0.2c0,0,0.1,0,0.2,0s0.1-0.1,0.2-0.1c0.1-0.1,0.1-0.1,0.2-0.2
	c0,0,0,0,0.1,0c0,0,0,0,0.1,0v-0.1v-0.1c-0.1-0.3-0.1-0.5-0.2-0.7c0-0.2-0.1-0.5-0.1-0.7c-0.5,0.2-0.8,0.5-0.9,0.7
	C-17.7,49-17.6,49.3-17.3,49.8L-17.3,49.8z M-17.5,48.3L-17.5,48.3c0,0.1,0,0.2,0,0.2C-17.5,48.4-17.4,48.4-17.5,48.3
	C-17.4,48.3-17.5,48.3-17.5,48.3z M-17,47.8L-17,47.8c-0.1,0-0.1,0.1-0.1,0.1l-0.1,0.1l0,0C-17.1,48-17,47.9-17,47.8z M-16.8,47.7
	L-16.8,47.7c0.1-0.1,0.2-0.2,0.1-0.2h-0.1C-16.8,47.6-16.8,47.6-16.8,47.7L-16.8,47.7z M-16.5,50.7c0.1,0,0.1-0.1,0.2-0.1
	s0.1-0.1,0.2-0.1l0,0l0,0v-0.1c0,0,0-0.1-0.1-0.1L-16.5,50.7L-16.5,50.7z M-15.2,50.5c0.1,0.1,0.3,0.1,0.4,0.1
	c0.1,0,0.2-0.1,0.3-0.2c0.1-0.1,0.1-0.2,0.2-0.3c0-0.1,0.1-0.3,0.1-0.4s0.1-0.2,0.1-0.3s0-0.2,0-0.2l0.2-2.5c0-0.3,0-0.5-0.1-0.8
	c-0.1-0.2-0.3-0.5-0.4-0.7c-0.2-0.3-0.5-0.4-0.7-0.3c-0.3,0.2-0.5,0.4-0.6,0.7c-0.2,0.4-0.3,0.8-0.4,1.3s-0.1,1-0.1,1.5
	s0.1,0.9,0.3,1.4C-15.7,50.2-15.5,50.4-15.2,50.5z M-15.4,51.2c0.1,0,0.2,0.1,0.3,0.1s0.2,0,0.3-0.1c-0.2,0-0.5-0.1-0.7-0.2
	s-0.4-0.3-0.6-0.5c0,0.1,0,0.2,0,0.3c0,0,0,0.1-0.1,0.1c0,0,0,0.1,0.1,0.1C-15.9,51-15.7,51.1-15.4,51.2z M-15.5,58.5L-15.5,58.5
	C-15.4,58.4-15.4,58.4-15.5,58.5c0.1-0.2,0.2-0.3,0.3-0.4l0.3-0.4c0.1-0.1,0.2-0.3,0.3-0.4l0.1-0.2l0.4-0.6c0.2-0.3,0.4-0.6,0.6-0.9
	c0.2-0.3,0.4-0.7,0.6-0.9c0.2-0.3,0.3-0.5,0.4-0.6l0.1-0.1c0-0.1,0.1-0.2,0.2-0.3s0.2-0.2,0.3-0.4c0.1-0.1,0.2-0.3,0.3-0.4
	s0.1-0.2,0.2-0.3l0.4-0.5l0.6-0.8c0.2-0.3,0.4-0.5,0.6-0.8c0.2-0.2,0.3-0.4,0.3-0.5c0.1-0.1,0.2-0.3,0.4-0.6l0.6-0.9
	c0.2-0.3,0.4-0.6,0.6-0.9c0.2-0.3,0.3-0.5,0.4-0.6h0.1l0,0c0,0,0.1-0.1,0.2-0.2c0.1-0.1,0.1-0.2,0.2-0.3l0.2-0.3
	c0-0.1,0.1-0.1,0.1-0.2c0,0,0.1-0.1,0.2-0.3s0.2-0.3,0.3-0.5s0.2-0.4,0.3-0.5c0.1-0.1,0.1-0.3,0.2-0.3l0.2-0.3
	c0.1-0.1,0.1-0.2,0.2-0.3h0.1l0,0c0.1,0,0.3,0,0.5,0c0.1,0,0.3,0,0.4,0.1c0.1,0,0.2,0.1,0.3,0.2c0.1,0.1,0.1,0.3,0.1,0.5
	s-0.1,0.5-0.3,0.7c-0.1,0.2-0.3,0.4-0.5,0.6c-0.2,0.2-0.3,0.4-0.5,0.6s-0.3,0.4-0.5,0.6c-0.5,0.8-0.9,1.5-1.4,2.3
	c-0.5,0.8-0.9,1.5-1.5,2.2c0,0.1-0.2,0.2-0.4,0.5s-0.4,0.6-0.7,0.9c-0.2,0.3-0.5,0.6-0.7,0.9c-0.2,0.3-0.3,0.4-0.4,0.5
	c-0.2,0.3-0.4,0.6-0.6,1c-0.1,0.3-0.3,0.7-0.5,1c0,0.1-0.1,0.2-0.2,0.3l-0.3,0.4c-0.1,0.1-0.2,0.3-0.2,0.4c0,0.1-0.1,0.1-0.1,0.2
	c0,0-0.1,0.1-0.2,0.3c-0.1,0.1-0.2,0.3-0.4,0.5l-0.4,0.4c-0.1,0.1-0.2,0.2-0.2,0.3c-0.1,0.1-0.2,0.3-0.3,0.4
	c-0.1,0.1-0.2,0.2-0.4,0.2c-0.1,0-0.2,0-0.2,0c-0.1,0-0.2,0-0.2,0h-0.4L-15.5,58.5L-15.5,58.5z M-14.9,58.5
	C-15,58.5-15,58.5-14.9,58.5c0,0.1,0,0.2,0,0.2S-14.9,58.6-14.9,58.5L-14.9,58.5z M-14.4,57.9c0,0-0.1,0.1-0.2,0.2
	c-0.1,0.1-0.1,0.1-0.2,0.2c0.3-0.2,0.5-0.5,0.8-0.7s0.5-0.5,0.7-0.8c0-0.1,0.1-0.1,0.1-0.2l0.2-0.4c0.1-0.1,0.2-0.3,0.3-0.4
	c0.1-0.1,0.2-0.3,0.2-0.3s0-0.1,0.1-0.1v-0.1c-0.2,0.2-0.4,0.4-0.6,0.6c-0.2,0.2-0.3,0.4-0.5,0.7l-0.5,0.7
	C-14,57.5-14.2,57.7-14.4,57.9L-14.4,57.9z M-13.5,46c0,0.1,0.1,0.2,0.1,0.3c0,0.2,0,0.3,0.1,0.4c0.2-0.2,0.4-0.3,0.5-0.5
	c0.1-0.1,0.2-0.2,0.2-0.4c0-0.1-0.1-0.3-0.2-0.4c-0.2-0.2-0.3-0.3-0.5-0.5l-0.4,0.4c0,0.1,0.1,0.2,0.1,0.3
	C-13.5,45.9-13.5,46-13.5,46z M-13.7,50c0.1,0,0.1-0.1,0.2-0.1c0.1,0,0.1-0.1,0.2-0.1l1-1c0-0.1,0-0.2,0.1-0.3c0-0.1,0-0.2,0-0.4
	h-0.1l-0.2,0.1h-0.3H-13c0,0-0.1,0.1-0.2,0.1c-0.1,0-0.1,0.1-0.2,0.2L-13.7,50z M-13.6,44.7C-13.6,44.7-13.6,44.8-13.6,44.7
	c0,0.1,0,0.2,0,0.2C-13.5,44.9-13.5,44.9-13.6,44.7C-13.5,44.8-13.5,44.7-13.6,44.7z M-12.9,50.1L-12.9,50.1c-0.1,0.1,0,0.2,0,0.2
	C-12.8,50.2-12.8,50.2-12.9,50.1C-12.8,50.1-12.8,50.1-12.9,50.1z M-12.6,49.9C-12.6,49.9-12.7,49.9-12.6,49.9
	C-12.7,50-12.7,50-12.6,49.9C-12.7,50-12.7,50-12.6,49.9C-12.6,50-12.6,49.9-12.6,49.9z M-12.5,47.5h0.1h0.1c0,0,0,0,0-0.1
	s0-0.1-0.1-0.1C-12.3,47.3-12.5,47.5-12.5,47.5z M-12.5,49.6L-12.5,49.6c0,0.1,0,0.2,0,0.2C-12.4,49.8-12.4,49.7-12.5,49.6
	C-12.4,49.6-12.4,49.6-12.5,49.6z M-10.8,52.5c0,0.1-0.1,0.2-0.2,0.3c-0.1,0.2-0.2,0.4-0.4,0.5l-0.3,0.5c-0.1,0.1-0.1,0.2-0.2,0.4
	c0.1-0.1,0.3-0.2,0.4-0.4c0.1-0.1,0.3-0.3,0.4-0.4c0.1-0.1,0.2-0.3,0.4-0.6s0.4-0.6,0.7-0.8l0.7-0.8l0.4-0.6c0,0,0.1-0.1,0.1-0.2
	l0.3-0.4c0.1-0.2,0.2-0.3,0.3-0.5S-8,49.2-8,49.1c0,0,0.1-0.1,0.1-0.2c0-0.1,0.1-0.2,0.2-0.3c0-0.1,0.1-0.2,0.1-0.3s0-0.1,0-0.2
	c-0.1,0.1-0.2,0.2-0.3,0.3s-0.2,0.2-0.3,0.3l-1.3,1.8C-9.9,51.2-10.3,51.8-10.8,52.5L-10.8,52.5z M-5.2,59.1
	c-0.5-0.1-0.9-0.3-1.3-0.5c-0.3-0.2-0.6-0.5-0.8-0.8c-0.2-0.3-0.3-0.7-0.4-1c-0.1-0.4-0.1-0.9-0.2-1.4c0-0.3,0-0.6,0-0.9
	c0-0.3,0.1-0.7,0.2-1s0.2-0.6,0.4-0.9c0.1-0.3,0.3-0.5,0.5-0.8c0.1-0.1,0.2-0.2,0.3-0.3c0.1-0.1,0.2-0.2,0.3-0.3
	c0.1-0.1,0.2-0.2,0.4-0.3c0.1-0.1,0.2-0.1,0.4-0.1c0.2,0,0.4,0,0.6,0l0.6,0.2c0.6,0.2,1.2,0.7,1.6,1.2c0.4,0.6,0.8,1.2,0.9,1.9
	c0.2,0.7,0.2,1.4,0.1,2.1C-1.7,56.9-2,57.5-2.4,58c-0.4,0.4-0.8,0.7-1.4,0.9C-4.1,59.2-4.7,59.2-5.2,59.1L-5.2,59.1z M-7.3,47.4
	L-7.3,47.4l-0.2,0.2c0.1-0.1,0.3-0.2,0.4-0.4c0.1-0.1,0.3-0.3,0.4-0.4l0.3-0.5c0.2-0.3,0.3-0.5,0.5-0.8s0.3-0.6,0.5-0.8l0.3-0.5
	c0,0,0,0,0-0.1c0,0,0,0,0-0.1c-0.1,0-0.2,0-0.3,0.1c0,0.1-0.1,0.1-0.1,0.2c-0.1,0.1-0.1,0.2-0.2,0.4c-0.1,0.1-0.2,0.3-0.2,0.4
	S-6,45.2-6,45.3c-0.1,0.1-0.1,0.2-0.2,0.3s-0.1,0.2-0.3,0.3c0,0-0.1,0.1-0.2,0.3s-0.2,0.3-0.3,0.4l-0.3,0.5
	C-7.2,47.3-7.3,47.4-7.3,47.4L-7.3,47.4z M-7.3,55.2C-7.3,55.3-7.3,55.3-7.3,55.2c0.1,0,0.1-0.1,0.2-0.1c0,0,0-0.1,0.1-0.1
	c0-0.1,0.1-0.1,0.1-0.2c0.1-0.1,0.1-0.1,0.2-0.2s0.2-0.2,0.2-0.2l0.1-0.1l0.1-0.4C-6.4,54-6.5,54-6.6,54c-0.1,0-0.2,0-0.3,0
	c-0.1-0.1-0.1-0.2,0-0.3c0,0,0.1-0.1,0-0.2c-0.2,0.1-0.3,0.3-0.4,0.5s-0.1,0.4-0.1,0.6L-7.3,55.2L-7.3,55.2z M-7.2,56.5
	C-7.2,56.6-7.1,56.6-7.2,56.5c0,0.1,0.1,0.1,0.1,0.2c0.2-0.2,0.3-0.3,0.5-0.4c0.1-0.1,0.2-0.2,0.2-0.4c0-0.1,0.1-0.3,0.1-0.4
	c0-0.2,0-0.4-0.1-0.6c-0.3,0.3-0.6,0.6-0.8,0.9c0,0.1,0,0.3,0,0.4C-7.2,56.3-7.2,56.4-7.2,56.5L-7.2,56.5z M-6.8,57.5
	C-6.7,57.5-6.7,57.5-6.8,57.5c0.1,0.1,0.1,0.1,0.2,0.1c0-0.1,0.1-0.2,0.1-0.3c0.1-0.1,0.1-0.2,0.2-0.3c0-0.1,0.1-0.2,0.1-0.3
	s0-0.2,0-0.3c-0.1,0-0.2,0.1-0.3,0.2c-0.1,0.1-0.2,0.1-0.2,0.2c-0.1,0.1-0.1,0.2-0.1,0.3C-6.9,57.3-6.8,57.4-6.8,57.5L-6.8,57.5z
	 M-6.8,52.8C-6.8,52.8-6.8,52.9-6.8,52.8C-6.9,52.9-6.9,52.9-6.8,52.8L-6.8,52.8c0.2-0.1,0.5-0.4,0.7-0.6c0.3-0.2,0.5-0.4,0.7-0.7
	c-0.1,0-0.2,0-0.3,0.1C-5.8,51.7-6,51.8-6.1,52c-0.1,0.1-0.3,0.3-0.4,0.4C-6.6,52.6-6.7,52.7-6.8,52.8L-6.8,52.8z M-6.5,53.3
	l0.2-0.2l0.2-0.2v-0.1L-6.3,53L-6.5,53.3L-6.5,53.3z M-6.4,57.8c0.1,0,0.2,0,0.3-0.1C-6,57.6-6,57.5-6,57.4h-0.1
	c0,0-0.1,0.1-0.2,0.1S-6.4,57.7-6.4,57.8L-6.4,57.8L-6.4,57.8z M-6,58.1c0.1,0.1,0.1,0.1,0.2,0.1s0.1-0.1,0.2-0.1
	c0-0.1-0.1-0.1-0.1-0.2h-0.1C-5.9,57.9-5.9,58-6,58.1C-6,58-6,58.1-6,58.1z M-4.7,57.7c0.2,0.1,0.4,0.1,0.6-0.1
	c0.2-0.2,0.3-0.5,0.3-0.8c0.1-0.4,0.1-0.8,0.1-1.2c0-0.5,0-0.9-0.1-1.4c0-0.4-0.1-0.8-0.2-1.2c-0.1-0.3-0.2-0.6-0.4-0.7
	c-0.1-0.1-0.2-0.1-0.3-0.1s-0.2,0-0.4,0c-0.2,0.2-0.4,0.4-0.5,0.7s-0.2,0.7-0.3,1C-6,54.3-6,54.7-5.9,55c0,0.4,0.1,0.8,0.2,1.1
	s0.2,0.6,0.4,0.9C-5.2,57.4-4.9,57.6-4.7,57.7L-4.7,57.7z M-5.5,58.1c0,0.1,0.1,0.2,0.1,0.2c0.1,0.1,0.2,0.1,0.3,0
	c0,0-0.1-0.1-0.2-0.1C-5.3,58.2-5.4,58.1-5.5,58.1L-5.5,58.1L-5.5,58.1z M-4.8,58.4L-4.8,58.4H-5l0,0H-4.8
	C-4.9,58.4-4.9,58.4-4.8,58.4z M-4.2,58.4c-0.1,0-0.2,0-0.2,0c-0.1,0-0.2,0-0.2,0c0.4,0.1,0.9,0,1.3-0.2c0.3-0.2,0.6-0.5,0.9-0.8
	s0.4-0.7,0.5-1.1c0.1-0.4,0.1-0.8,0.1-1.3c-0.1,0.1-0.3,0.3-0.5,0.4c-0.1,0.1-0.2,0.2-0.3,0.3s-0.2,0.2-0.2,0.3
	c-0.1,0.2-0.1,0.4-0.2,0.5c0,0,0,0.1-0.1,0.3c0,0.1-0.1,0.2-0.1,0.3s-0.1,0.2-0.2,0.3s-0.1,0.2-0.2,0.3s-0.2,0.2-0.2,0.3L-4.2,58.4
	L-4.2,58.4L-4.2,58.4z M-3.9,51.8L-3.9,51.8C-3.9,51.8-4,51.8-3.9,51.8C-4,51.8-3.9,51.9-3.9,51.8C-3.9,51.9-3.9,51.8-3.9,51.8z
	 M-3.8,52.4L-3.8,52.4C-3.7,52.4-3.7,52.3-3.8,52.4C-3.7,52.3-3.8,52.3-3.8,52.4L-3.8,52.4z M-3.2,54.5c0,0.1,0,0.2,0,0.3
	s0,0.2,0,0.4l0.9-0.9c0,0,0,0,0-0.1v-0.1c0,0,0-0.1-0.1-0.2l-0.1-0.1c0-0.1-0.1-0.1-0.1-0.2c0-0.1-0.1-0.1-0.1-0.2l-0.1-0.1
	c0-0.1-0.1-0.1-0.2,0c-0.2,0.1-0.3,0.3-0.5,0.5c0,0.2,0,0.3,0,0.5C-3.3,54.2-3.2,54.4-3.2,54.5L-3.2,54.5z M-3.3,52.2
	C-3.3,52.2-3.3,52.3-3.3,52.2c-0.1,0.1,0,0.2,0,0.2C-3.2,52.4-3.2,52.4-3.3,52.2C-3.2,52.3-3.2,52.2-3.3,52.2z M-3.3,52.8
	c0.1-0.1,0.2-0.1,0.2-0.2c0-0.1,0-0.1-0.1-0.2L-3.3,52.8L-3.3,52.8z M-3.1,55.7l0.3-0.2c0.1-0.1,0.2-0.2,0.3-0.3s0.2-0.2,0.3-0.3
	s0.1-0.2,0.1-0.3c-0.1,0.1-0.2,0.1-0.3,0.2c-0.1,0.1-0.2,0.2-0.3,0.3l-0.1,0.1l-0.1,0.1C-3,55.5-3,55.6-3.1,55.7L-3.1,55.7
	L-3.1,55.7z"/>
</svg>
