<?xml version="1.0" encoding="utf-8"?>
<!-- Generator: Adobe Illustrator 19.0.0, SVG Export Plug-In . SVG Version: 6.00 Build 0)  -->
<svg version="1.1" id="Layer_1" xmlns="http://www.w3.org/2000/svg" xmlns:xlink="http://www.w3.org/1999/xlink" x="0px" y="0px"
	 viewBox="0 0 76.8 67.5" style="enable-background:new 0 0 76.8 67.5;" xml:space="preserve">
<style type="text/css">
	.st0{clip-path:url(#SVGID_2_);}
	.st1{clip-path:url(#SVGID_4_);}
	.st2{clip-path:url(#SVGID_6_);}
</style>
<g>
	<defs>
		<rect id="SVGID_1_" x="-93" y="-145.5" width="368.5" height="368.5"/>
	</defs>
	<clipPath id="SVGID_2_">
		<use xlink:href="#SVGID_1_"  style="overflow:visible;"/>
	</clipPath>
	<g class="st0">
		<defs>
			<rect id="SVGID_3_" x="8.3" y="5.7" width="146.7" height="58.5"/>
		</defs>
		<clipPath id="SVGID_4_">
			<use xlink:href="#SVGID_3_"  style="overflow:visible;"/>
		</clipPath>
		<g class="st1">
			<defs>
				<rect id="SVGID_5_" x="8.3" y="5.7" width="146.7" height="58.5"/>
			</defs>
			<clipPath id="SVGID_6_">
				<use xlink:href="#SVGID_5_"  style="overflow:visible;"/>
			</clipPath>
			<path class="st2" d="M62.3,32.7c0,0.2,0.1,0.4,0,0.5c-1.5,1.9,0.2,3.5,0.5,5.1c0.5,2.4,1.4,4.6,1.7,7.1c0.1,0.9,0.1,1.7-0.4,2.6
				c-0.1,0.3-0.3,0.6-0.2,0.9c0.4,2.5-1.2,3.7-3.2,4.5c-1.8,0.7-3.6,1.1-5.5,1.5c-1,0.2-2.3,0.1-2.4,1.9c0,0.7-1,0.8-1.6,0.9
				c-5,0.7-10,1.3-15,2.1c-0.8,0.1-1.7,0.2-2.5,0.3c-0.7,0.1-1.1-0.2-1.2-0.9c-0.1-0.9-0.6-1.1-1.4-1.1c-1.7,0-3.4,0.2-5.1,0.5
				c-0.3,0.1-0.6,0.1-1,0.1c-2.4,0.2-2.9,0-3.6-2.3c-0.5-1.7-1.1-3.3-1.8-4.9c-1.2-3-2.1-6.1-3.5-9.1c-1.1-2.4-2.5-4.7-3.9-7
				c-0.9-1.6-1.4-3.1-0.6-4.9c0.5-1.1,0.5-1.9-0.7-2.6c-0.8-0.5-1.5-1.3-2.2-2c-0.5-0.5-0.7-0.8,0.1-1.4c3.1-2.3,6.6-4.2,9.9-6.2
				c0.9-0.6,0.8-1,0.2-1.6c-0.1-0.1-0.1-0.1-0.2-0.2c-1.4-1.5-1.4-1.6,0.4-2.6c3.5-1.8,7.2-3.1,10.9-4.4c2.1-0.8,4.3-1.3,6.5-2
				c1.9-0.6,2.2-0.3,2.7,1.3c0.4,1.4,1,2.7,1.5,4c0.3,0.7,0.6,0.8,1,0.2c0.4-0.6,0.8-1.1,1.1-1.7c0.8-1.1,1.1-1.1,1.9,0
				c0.7,0.9,1.4,1.8,2.2,2.6c1.2,1.4,2.8,1.7,4.4,2c1.9,0.3,3.6,1.1,4.6,3c0.8,1.6,2.5,2.8,3,4.6c0.1,0.4,0.3,0.8,0.4,1.2
				c0.2,0.5,0.2,1.1,1,1.3c0.6,0.1,0.9,0.7,0.9,1.3C61.8,29.2,62,30.9,62.3,32.7 M16.2,21c0.4,0.1,0.7-0.1,1-0.3
				c3.1-1.5,6.1-3.5,9.1-5.2c0.9-0.5,1.7-0.8,2.6-0.1c0.3,0.2,0.6,0.3,0.8-0.1c-0.4-0.1-0.6-0.3-0.9-0.6c-0.5-0.5-1-0.7-1.8-0.3
				c-3.6,1.9-7.2,3.9-10.7,6.1C16.4,20.7,16.2,20.8,16.2,21c-0.1,0-0.3,0-0.4,0c-1.9,1.2-3.8,2.5-5.7,3.8c-0.5,0.3-0.3,0.6,0,0.8
				c0.8,0.6,1.5,1.2,2.3,1.7c0.3,0.2,0.7,0.4,1-0.1c0.3-0.6-0.3-0.6-0.5-0.7c-2.2-1.4-1.3-1.5,0-2.5c0.5-0.3,1-0.6,1.5-0.9
				C15.2,22.6,16.1,22.1,16.2,21 M13.4,31.3v-2.2c-1.3,1.6-1.5,4.1-0.4,5.1C13.2,33.2,12.9,32.2,13.4,31.3c0,0.2,0,0.4,0,0.6
				c0,1.2,0,2.4,0,3.6c0,0.3,0.1,0.6,0.5,0.6c0.5,0,0.2-0.4,0.3-0.6c0.1-0.6-0.1-1.2,0.2-1.9c0.2,0.9,0.1,1.6,0.1,2.4
				c0,1.3-0.1,1.3,0.9,2.1v-3.9c0.3,1,0.2,2,0.3,3c0,2.2,0,2.2,0.7,2.5c0.3-1.2-0.2-2.4,0.3-3.5c0.2,2.2-0.6,4.7,1.2,6.9
				c0.1-1.7,0.2-3.2-0.1-4.7c-0.1-0.8-0.2-1.7-1.1-2.2c0.1-2.1-1.3-3.7-1.4-5.7c-0.1,0-0.2,0.1-0.4,0.1v2.2
				c-0.2-1.2-0.2-2.3,0.2-3.5c1.6,4,2.9,8.2,4.5,12.2c1.6,4,2.9,8.2,5.5,11.7c-0.1,0.1-0.2,0.1-0.3,0.2c-0.3-0.2-0.5-0.4-0.9-0.7
				c-0.1,0.8-0.1,1.4-0.1,2c-0.2-1.3,0-2.6-1.3-3.7c-0.3,2.1-0.1,4.2,0.4,6.3c0.1,0.5,0.7,0.7,1.1,0.7c1.3-0.1,2.7-0.3,4.1-0.8
				c-0.4-0.4-0.7-0.4-1-0.3C26,57.2,25.1,57,24.2,57c-0.9,0-0.9-0.3-0.5-1c0.8-1.2,2-1.8,3.3-1.8c2.8-0.1,5.6-0.3,8.3-0.8
				c3.5-0.6,6.9-1.1,10.4-1.7c2.2-0.4,4.5-0.8,6.7-1.3c3.2-0.6,6.5-1.3,9.6-2.4c1-0.4,1.5-1,1.5-2c0-0.6,0-1.3-0.2-1.9
				c-0.9-3-1.8-6-2.7-9c-0.3-0.9-1-1-1.6-0.3c-0.1,0.1,0,0.2-0.1,0.3c-0.2,0.2-0.2,0-0.2-0.1c-0.3-0.8-0.8-0.2-1.2-0.1
				c-1.1,0.3-3.2-0.3-3.9-1.3c-0.9-1.2-1-3-0.3-4.2c0.9-1.6,2-2.7,4.1-2.8c1.5-0.1,1.6-0.4,1-1.9c-0.9-2.3-2.7-4-4.1-6
				c-0.2-0.3-0.5-0.5-0.8-0.7c-1.9-1.1-4.1-1.5-6.2-1.4c-4.3,0.3-8.5,1.1-12.7,2.3c-2.9,0.8-5.9,1.7-8.7,2.8c-2.9,1.1-6,1.8-8.7,3.5
				c-1.3,0.9-2.9,1.6-3.5,3.4C13.5,29.6,13.9,30.5,13.4,31.3 M45.8,53.7c-0.4-0.5-0.5-1.2-1.4-1c-2.6,0.7-5.4,0.9-8.1,1.5
				c-0.5,0.1-1.5,0-1.5,0.8c0,0.8,1,1.1,1.7,1.3c0.1,0.1,0.3,0,0.5,0c3.6-0.2,7.1-0.7,10.7-0.8c1.3,0,2.3-1.6,2.1-2.8
				c-0.1-1.1-0.9-0.6-1.4-0.6c-0.7,0-0.8,0.3-0.5,0.9c0.1,0.2,0.2,0.5-0.1,0.6c-0.2,0.1-0.5,0-0.5-0.3c-0.1-0.4-0.1-0.9-0.8-0.8
				C45.7,52.6,45.7,53.1,45.8,53.7 M53.7,31.2c0,1.8,2.1,3.4,3.9,3c1.1-0.3,2.2-0.6,3.3-0.9c0.6-0.1,0.8-0.4,0.7-0.9
				c-0.3-1.5-0.6-3-0.9-4.6c-0.1-0.5-0.4-0.7-1-0.6c-1.1,0.2-2.2,0.4-3.3,0.6C54.7,28.2,53.7,29.4,53.7,31.2 M27.6,13.3
				c0.4,0.6,0.8,0.1,1.2,0.3c1.1,0.4,1.8,2.9,3.5,0.8c0,0.1,0.1,0.2,0.1,0.2c0.8,0.3,1,0.1,1.3-0.8c0.2,0.2,0.1,0.6,0.5,0.7
				c-0.1-0.4,0.6-0.6,0-1c-0.4-0.2-0.4-0.6-0.1-0.8c0.2-0.1,0.7,0.1,0.8,0.4c0.1,0.6,0.3,1,0.9,0.7c0.5-0.3-0.3-0.7-0.1-1.1
				c0-0.1,0-0.2-0.1-0.2c-0.4-0.1-0.4-0.5-0.1-0.7c0.4-0.3,0.4,0.2,0.6,0.3c0.2,0.3,0.4,0.7,0.5,1.1c0.1,0.2,0.3,0.6,0.7,0.4
				c0.4-0.2,1.1-0.3,1.2-0.8c0.2-0.9-1.1-2.4-2-2.4c-0.8,0-1.6,0-2.4,0.3c-1.4,0.5-2.9,0.8-4.2,1.4C29.1,12.6,28,12.3,27.6,13.3
				 M52.3,55.5c0-1.3-0.4-2.5-0.6-3.7c0-0.3-0.1-0.6-0.5-0.5c-0.4,0.1-0.4,0.4-0.4,0.6c0,0.9,0.3,1.6,0.5,2.5
				c0.5,1.8,0.3,2.2-1.6,2.2c-4.9,0-9.8,0.1-14.6,1.5c-1,0.3-1.6,0-1.8-1.1c-0.1-0.5-0.3-1.1-0.5-1.6c-0.1-0.3-0.1-0.5-0.5-0.5
				c-0.5,0.1-0.3,0.4-0.2,0.7c0.2,1,0.6,1.9,0.8,2.9c0.1,0.5,0.6,0.7,1.1,0.6c1.3-0.2,2.5-0.3,3.8-0.5c4.4-0.4,8.7-0.5,13.1-1.4
				C52,56.9,52.5,56.5,52.3,55.5 M18.9,23.5c-1.2-1.2-0.3-1.4,0.5-1.6c1.7-0.5,3.2-1.3,4.9-1.9c3.9-1.5,7.9-3.1,11.8-4.6
				c1.4-0.5,2-0.3,2.8,1c0.2,0.4,0.5,0.4,0.8,0.2c0.3-0.2,0.3-0.4,0.1-0.7c-0.3-0.5-0.6-1-0.9-1.5c-0.2-0.3-0.4-0.5-0.9-0.4
				c-1.8,0.6-3.7,1.1-5.6,1.7c-2.8,1-5.6,2.1-8.4,3.2c-2.3,1-4.7,1.7-7.1,3C17.6,22.5,17.9,23.2,18.9,23.5 M20.1,15.4
				c0.8-0.4,1.7-0.8,2.5-1.2c4.3-2.3,9-3.5,13.6-4.9c0.9-0.3,1.5-0.1,1.9,0.9c0.5,1.2,0.8,2.5,1.6,3.6c0.1,0.2,0.3,0.6,0.6,0.4
				c0.3-0.2,0.2-0.5,0.1-0.7c-0.6-1.7-1.2-3.4-1.8-5c-0.2-0.5-0.4-0.5-0.9-0.4c-1.3,0.3-2.5,0.8-3.7,1.2c-3,1-6,2.1-8.9,3.3
				c-1.8,0.8-3.6,1.7-5.4,2.5c-0.5,0.2-0.9,0.5-0.2,1c0.5,0.3,0.6,1.5,1.1,1.1C21.2,16.7,20.2,16,20.1,15.4 M37.5,16.8
				c-0.6-0.1-1.1-0.1-1.6,0.1c-1.1,0.4-2.3,0.8-3.5,1.2c-4.1,1.3-8.1,2.8-12.1,4.4c-0.3,0.1-0.5,0.3-0.4,0.5c0.1,0.3,0.4,0.1,0.6,0
				c4.9-1.9,9.8-3.9,14.9-5.3C36.1,17.5,37,17.8,37.5,16.8 M17.8,23.8c-0.5-0.4-0.7-1-1.3-0.8c-0.8,0.4-1.6,0.8-2.3,1.4
				c-0.3,0.2-0.6,0.8-0.1,1.3c0.4,0.4,0.8,0.4,1.2,0c0.6-0.5,1.2-1,1.8-1.5C17.3,24.1,17.5,24,17.8,23.8 M46.8,15.5
				c-0.3-0.3-0.4-0.7-0.8-1c-0.3-0.2-0.6-0.6-0.8-1c-0.5-0.6-0.6-1.9-1.4-1.8c-0.5,0.1-0.9,1.3-1.4,1.9c-0.1,0.1-0.2,0.2,0,0.3
				c1.5-0.8,1.5-0.8,2.8,0.8c0.2,0.2,0.4,0.5,0.7,0.7C46.1,15.7,46.4,15.8,46.8,15.5 M21.9,53.2c-0.1-1.8,0.7-3.7-1-5.5
				C20.8,49.8,20.9,51.6,21.9,53.2 M60.8,49.7c-2.8,1.1-2.8,1.1-4,2.6C58.8,52.1,60.8,50.9,60.8,49.7 M20.4,50.2
				c0.1-1.9,0.6-3.9-0.8-5.6C19.9,46.5,19.6,48.4,20.4,50.2 M21.8,16.6c0.5-0.1,0.9-0.4,1.2-0.6c0.8-0.5,1.7-0.7,2.3-1.4
				c0.2-0.2,0.3-0.4,0.1-0.6c-0.2-0.2-0.4-0.1-0.5,0.1c-0.4,0.3-0.9,0.4-1.3,0.6C22.9,15,21.7,15.1,21.8,16.6 M19.1,46.6
				c-0.1-2,0.2-3.8-0.9-5.3C18.8,43,17.7,44.9,19.1,46.6 M56.1,52.5c-0.6-0.3-1.1-0.3-1.7-0.5c-0.7-0.2-0.8,0.3-1.1,0.7
				C53,53.1,52.7,53.6,53,54c0.3,0.4,0.7,0,1.1,0c-0.4,0-0.6-0.3-0.5-0.7C54.2,52.3,55.4,53.2,56.1,52.5 M42,16
				c0.3-0.1,0.7,0,0.7-0.5c0-0.8-0.6-0.8-1.2-0.7c-0.3,0-0.8-0.1-0.7,0.4C40.8,15.8,41.3,16.1,42,16 M27.9,16.3
				c0-0.1-0.1-0.2-0.1-0.3c-1.1,0.1-2.1,0.7-2.9,1.5C25.9,17.1,26.9,16.7,27.9,16.3 M61,51.5c0.7-0.3,1.2-0.8,1.3-1.5
				c0-0.2,0.1-0.5-0.2-0.6c-0.4-0.1-0.5,0.2-0.5,0.5C61.7,50.6,61.3,51,61,51.5"/>
			<path class="st2" d="M17.7,26.8c1.9-2.9,27.1-9.4,30.9-8c-5.4,0.5-10.6,1.5-15.7,3C27.7,23.1,22.8,24.9,17.7,26.8"/>
			<path class="st2" d="M62,46.1c-1.1,1.4-2.6,1.9-4.1,2.2c-1.9,0.3-3.7,0.9-5.6,1.2c-2.8,0.5-5.7,0.8-8.5,1.4c-2,0.4-4,0.7-6,1.1
				c0-0.5,0.2-0.7,0.6-0.8c5-0.9,10-1.6,15-2.8c2.1-0.5,4.3-0.8,6.4-1.5C60.5,46.7,61,46,62,46.1"/>
			<path class="st2" d="M16.4,27.4c2.4,8.7,4.8,17.2,9.7,24.8c-1.3-0.9-1.9-2.3-2.5-3.6c-2.8-5.3-4.7-11-6.6-16.7
				c-0.3-0.8-0.6-1.5-0.9-2.3C15.8,28.8,15.7,28,16.4,27.4"/>
			<path class="st2" d="M56.4,26.3c-1.4-2.7-1.9-6-5.3-7.3C54.5,19.8,56.7,22.8,56.4,26.3"/>
			<path class="st2" d="M61.6,43.7c-0.7-2.3-1.5-4.5-2.2-6.8C60.7,39,61.9,41.1,61.6,43.7"/>
			<path class="st2" d="M33.8,52.1c-1.8,0.6-3.7,1.3-5.6,0.4C30.1,52.7,32,52.3,33.8,52.1"/>
			<path class="st2" d="M47.3,25.9c0.1-1.4,0.4-2.8,1.2-3.9C48.1,23.3,48.1,24.8,47.3,25.9"/>
			<path class="st2" d="M55.1,29.5c0.1,0.5,0,0.9-0.1,1.3c-0.3,0.7-0.1,1.3,0.4,1.8c0.5,0.5,1.2,0.5,1.9,0.2
				c1.2-0.4,2.4-0.7,3.6-1.1c0,0.5-0.1,0.7-0.4,0.7c-1.3,0-2.4,0.4-3.6,0.8c-1.1,0.4-1.9,0-2.4-0.9C53.9,31.6,54.2,30.3,55.1,29.5"
				/>
			<path class="st2" d="M57.3,31.9c-0.6,0.1-1-0.3-1-1c0-0.8,0.6-1.1,1.3-1.2c0.6-0.1,1,0.5,1,1C58.6,31.4,58.1,31.9,57.3,31.9"/>
		</g>
	</g>
</g>
</svg>
