<?xml version="1.0" encoding="utf-8"?>
<!-- Generator: Adobe Illustrator 19.0.0, SVG Export Plug-In . SVG Version: 6.00 Build 0)  -->
<svg version="1.1" id="Layer_1_copy" xmlns="http://www.w3.org/2000/svg" xmlns:xlink="http://www.w3.org/1999/xlink" x="0px"
	 y="0px" viewBox="0 0 76.8 67.5" style="enable-background:new 0 0 76.8 67.5;" xml:space="preserve">
<style type="text/css">
	.st0{clip-path:url(#SVGID_2_);}
	.st1{clip-path:url(#SVGID_4_);}
	.st2{clip-path:url(#SVGID_6_);}
</style>
<g>
	<defs>
		<rect id="SVGID_1_" x="-173" y="-145.5" width="368.5" height="368.5"/>
	</defs>
	<clipPath id="SVGID_2_">
		<use xlink:href="#SVGID_1_"  style="overflow:visible;"/>
	</clipPath>
	<g class="st0">
		<defs>
			<rect id="SVGID_3_" x="-71.7" y="5.7" width="146.7" height="58.5"/>
		</defs>
		<clipPath id="SVGID_4_">
			<use xlink:href="#SVGID_3_"  style="overflow:visible;"/>
		</clipPath>
		<g class="st1">
			<defs>
				<rect id="SVGID_5_" x="-71.7" y="5.7" width="146.7" height="58.5"/>
			</defs>
			<clipPath id="SVGID_6_">
				<use xlink:href="#SVGID_5_"  style="overflow:visible;"/>
			</clipPath>
			<path class="st2" d="M18.9,64.2c-3-0.1-3.6-1-4.7-3.9c-1.8-4.8-2.4-9.9-3.7-14.8c-0.2-0.9-0.7-1.8-1.4-2.4
				c-2.5-2.4-4.9-4.9-6.8-7.9c-0.8-1.3-1.4-2.8-1.7-4.3c-0.3-1.3,0.6-2.2,1.6-2.8c3.8-2.2,7.6-4.4,11.4-6.5
				c8.4-4.5,17.1-8.3,25.8-12.4c2.1-1,4.2-1.8,6.2-2.9c1.9-1,3.5-0.5,5.2,0.4c3.4,1.8,6.2,4.5,9,7.2c3.4,3.3,6.7,6.6,9.8,10.1
				c1.3,1.4,2.7,2.8,3.8,4.4c0.7,1.1,0.6,1.9-0.5,2.6c-1.4,0.9-2.8,1.7-4.3,2.5c-0.8,0.4-0.8,0.8-0.3,1.4c2.3,3.6,4.4,7.3,6,11.3
				c1,2.5,1,5-1.4,6.8c-1.2,0.9-2.6,1.2-3.9,1.6c-2.2,0.7-4.4,1.4-6.6,2c-2.3,0.6-4.7,0.8-7,1.2c-4.2,0.8-8.5,1.5-12.7,2.5
				c-4.7,1.1-9.5,2.1-14.3,2.9C25.4,63.7,22.2,64.2,18.9,64.2 M60.4,38.7c-1.6,0.6-1.7,0.8-1.3,2.3c0.2,0.7,0.1,1.4,0.1,2.1
				c0,0.3,0,0.6-0.4,0.7c-0.4,0.1-0.5-0.1-0.7-0.4c-0.4-0.6-0.8-1.1-0.7-1.8c0-0.2,0.1-0.5-0.2-0.6c-0.5-0.1-1.9,0.7-1.9,1.3
				c0,0.8-0.5,1.5-0.7,2.3c-0.1,0.6-0.5,0.6-1,0.2c-0.3-0.2-0.5-0.5-0.5-0.9c0-0.2-0.1-0.4-0.4-0.3c-0.2,0-0.4,0.2-0.3,0.4
				c0,0.5-0.2,0.9-0.3,1.4c-0.2,0.8-0.5,1-1.2,0.3c-0.3-0.3-1-0.8-1.5-0.2c-0.6,0.9-1.6,1-2.4,1.5c-0.7,0.5-1.3,0.8-1.2,1.8
				c-0.3-0.2-0.1-0.9-0.6-0.7c-0.8,0.2-1.3,0.9-1.4,1.8c-0.2-0.4,0-1.1-0.7-0.7c-0.4,0.3-0.9,0.5-0.9,1.2c0.1,0.8-0.2,1.4-0.6,2.1
				c-0.1-0.6,0-1,0.2-1.5c0.1-0.3,0.3-0.7,0-0.9c-0.3-0.2-0.6,0.2-0.9,0.4c-0.7,0.4-0.4,1.2-0.7,1.8c-0.3-0.5,0.1-0.9-0.2-1.3
				c-0.6-0.1-0.6,0.8-1.5,0.7c-0.7-0.1-1.6,0.7-2.3,1.1c-0.8,0.4-0.4,1.2-0.4,1.9c0,0.3,0.4,0.3,0.6,0.2c0.6-0.5,1.3,0,1.9-0.2
				c0.9-0.3,1.3,0.1,1.4,1c0.1,0.9,0.4,1.9-0.9,2c-2.5,0.1-4.8,1-7.3,1.3c-0.3,0-0.7,0.3-0.8-0.2c-0.1-0.5,0.4-0.7,0.7-0.7
				c2.3-0.1,4.4-0.8,6.5-1.3c0.5-0.1,1.2,0,1-0.9c-0.2-0.9-0.8-0.5-1.3-0.4c-1.5,0.2-3,0.5-4.6,0.8c-0.8,0.2-1.4,0.1-1.4,1.2
				c-0.4-0.3,0.1-1-0.5-0.9c-0.8,0-1,0.7-1.2,1.3c-0.4-0.3,0.3-1-0.4-1c-0.7,0-1.5,0.1-1.5,0.9c0.1-0.2-0.9-1.1,0.4-1.1
				c0.3,0,0.3-0.3,0.3-0.6c0-0.3-0.3-0.4-0.5-0.4c-0.9,0-1.6,0.3-1.9,1.1c-0.2,0.6-0.6,0.9-1.2,1c-1.5,0.2-3,0.6-4.6,0.8
				c-0.9,0.1-2.3-0.2-2.6,1.4c0-0.6-0.5-1.2,0.3-1.4c1.6-0.5,3.3-0.4,4.8-1.3c0.1-0.1,1,0.2,1.1-0.2c0.2-0.7-0.6-0.5-1-0.7
				c-0.1,0-0.1-0.1-0.2-0.2c-0.6-0.8-0.9-0.2-1.2,0.3c-0.1,0.2,0,0.6-0.3,0.8c-0.1-0.5,0-0.9,0.2-1.3c0.2-0.4-0.1-1-0.4-0.7
				c-0.7,0.6-0.6-0.1-0.7-0.3c-0.4-0.5-0.6-1.2-1.3-1.6c0,0.3-0.1,0.5,0,0.7c0.3,0.5,0.3,1.1-0.2,1.3c-0.5,0.2-1,0-1.4-0.7
				c-0.4-0.8-1.1-1.5-0.8-2.5c0.2-0.9-0.6-1.4-1-2c-0.4-0.6-0.6,0.1-0.8,0.4c-0.3-0.4,0.3-1.1-0.3-1.3c-0.3-0.1-0.1,0.5-0.5,0.6
				c0.4-2-1.5-2.4-2.3-3.6c-0.4,0.7,0.3,0.9,0.3,1.3c-0.1,1.5,0.6,2.8,0.9,4.3c0.6,2.6,1.3,5.2,1.9,7.8c0.6,2.6,1,3.4,4.1,3.9
				c2.3,0.3,4.4-0.3,6.6-0.7c3.2-0.5,6.3-1.3,9.5-1.9c4.2-0.8,8.4-1.6,12.7-2.5c3.1-0.6,6.2-1.2,9.3-1.8c4.9-1,9.7-2.1,14.4-3.8
				c2.7-1,3.3-2.9,2.3-5.4c-1.1-2.8-2.6-5.5-4-8.2c-0.7-1.5-1.5-2.9-2.5-4.2c-0.8,0.6-1.7,1-1.8,2.2c-0.3-0.3-0.1-1.3-0.6-0.8
				c-0.5,0.6-1.1,0.5-1.6,0.8C62.4,37.5,61.4,38.1,60.4,38.7L60.4,38.7z M47.7,6.7c-0.7-0.1-1.5,0.2-2.3,0.6c-3.2,1.6-6.5,3-9.8,4.5
				c-4.3,2-8.5,4.1-12.7,6.1c-6.3,3-12.3,6.2-18.4,9.5c-1.5,0.8-2.9,1.8-2.4,3.9c0.2,0.9,0.7,1.6,1.1,2.3c1.6,2.2,3.4,4.2,5.4,6.1
				c4.6,4.5,8.9,9.4,14.3,13c1.4,0.9,2.7,2.2,4.7,1.9c2.1-0.3,4-1.1,5.9-1.9c3.5-1.6,6.5-3.8,9.8-5.7c4-2.3,7.9-4.7,11.9-6.8
				c5.8-3.2,11.5-6.6,17.1-10.1c0.6-0.4,0.9-0.9,0.4-1.7c-0.4-0.7-0.9-1.2-1.4-1.8C65.8,21,60,15.6,54.4,10
				C52.6,8.3,50.6,6.8,47.7,6.7 M35.5,53.8c-0.1-0.2,0.2-0.7-0.3-0.6c-0.6,0.1-1.2,0.4-1.3,1.2c0,0.4,0,0.6,0.5,0.6
				C35.1,54.9,35.5,54.7,35.5,53.8 M23.5,54.6c0.1-0.1,0.1-0.2,0.2-0.2c-0.9-0.6-1.7-1.2-2.6-1.9C21.7,53.5,22.5,54.1,23.5,54.6
				 M58.3,41c-0.2,0.6-0.4,1.2,0.1,1.7c0.1,0.1,0.4,0.1,0.4-0.1C58.9,42.1,59,41.4,58.3,41"/>
			<path class="st2" d="M53.2,13.6c-1,0-1.6,0.3-1.6,1.4c0,0.7-0.8,0.9-1.3,1.3c-0.2,0.2-0.5,0.3-0.2,0.7c0.2,0.3,0.5,0.2,0.7,0
				c0.8-0.4,1.7-1.4,2.5-1.1c1.2,0.4,2.2,1.4,3.1,2.3c0.3,0.3,0.5,0.6,1.2,0.8c-0.8-1.9-2.6-2.9-3.4-4.6c1.2,1,2.4,2.1,3.4,3.3
				c0.8,0.9,0.7,1.8-0.4,2.3c-2.2,1-4.4,2.1-6.4,3.5c-1.2,0.8-2.2,0.5-3.3-0.8c-1-1.2-2-2.4-3-3.7c-0.6-0.8-0.5-1.3,0.3-1.9
				c2.2-1.7,4.7-2.7,7.1-4C52.5,12.8,52.6,12.8,53.2,13.6 M48.8,15.7c-0.9-0.2-1.4,0.6-2.1,0.9c-0.2,0.1-0.4,0.4,0.1,0.6
				C47.7,17.6,48.8,16.8,48.8,15.7c0.9,0.5,2-0.1,2.1-1.4C50.3,15,49.1,14.7,48.8,15.7 M53.1,20.8c0.7,0.4,1.5,0.2,1.8-0.4
				c0.2-0.4-0.5-0.8-0.8-1.2c-0.1-0.1-0.2-0.2-0.3-0.3c-0.5-0.4-0.9-0.3-1.4,0.1c-0.5,0.5,0,0.8,0.2,1.1
				C52.9,20.2,53.2,20.5,53.1,20.8c-0.4-0.1-0.7-0.5-0.9-0.8c-0.6-0.8-1-0.3-1.2,0.3c-0.2,0.7,0.1,1.4,0.8,1.5
				C52.3,21.9,53.2,21.8,53.1,20.8 M49.4,16.9c-1.2,0.8-2.3,1.4-3.6,0.3C45.5,17,45,17.7,44.7,18c-0.3,0.3,0.2,0.5,0.3,0.7
				c1.2,1.4,2.4,2.8,3.6,4.2c0.2,0.3,0.4,0.7,0.8,0.3c0.3-0.3,0.1-0.6-0.1-0.9c-0.3-0.4-0.6-0.9-0.9-1.3c-0.7-1-0.7-1.8,0.2-2.7
				C49,18,49.6,17.8,49.4,16.9 M51,19c0-0.5-0.2-0.8-0.5-1c-0.3-0.2-0.6-0.1-1,0.1c-1.2,0.8-1.3,1.3-0.6,2.6c0.3,0.5,0.6,1,1,1.5
				c0.2,0.3,0.5,0.6,1,0.3c0.5-0.3,0.3-0.7,0-1c-0.6-0.7-0.6-1.3-0.1-2C50.8,19.3,50.9,19.1,51,19 M56.7,19.4
				c-0.1-0.1-0.2-0.2-0.3-0.3c-1-0.7-1.8-1.5-2.7-2.4c-0.3-0.3-0.7-0.3-1.1-0.1c-0.5,0.2-0.9,0.5-1.3,0.8c-0.4,0.2-0.6,0.4-0.3,0.8
				c0.3,0.3,0.5,0.3,0.9,0c0.9-0.7,1.7-0.6,2.4,0.3c0.3,0.4,0.7,0.8,1.1,1.2c0.3,0.3,0.6,0.3,1,0.1C56.5,19.8,56.8,19.7,56.7,19.4"
				/>
			<path class="st2" d="M5.6,32.5c-0.7,0-1.1-0.3-1.4-0.8C4,31,4.4,30.5,4.8,30.2c1.1-0.7,2.2-1.3,3.4-1.9c2.2-1.1,4.4-2.2,6.5-3.4
				c0.9-0.5,1.2,0.1,1.5,0.6c0.5,0.7-0.3,0.8-0.6,1c-3,1.9-6,3.7-9.1,5.6C6.2,32.3,5.8,32.4,5.6,32.5 M15.6,25.7
				c-0.5-0.2-0.7,0.1-1,0.2c-3,1.6-5.9,3.1-8.9,4.8c-0.3,0.2-1.1,0.1-0.7,0.8c0.3,0.6,0.9,0.5,1.4,0.1c1.4-0.9,2.8-1.8,4.2-2.7
				C12.2,27.9,13.9,27,15.6,25.7"/>
			<path class="st2" d="M25.7,50.3c1.3-1.2,2.9-1.8,4.4-2.7c1.9-1.2,3.9-2.2,5.8-3.4c0.7-0.4,1-0.1,1.4,0.4c0.5,0.6,0.1,1-0.3,1.2
				c-3.2,2.1-6.4,4.2-9.8,6c-0.8,0.4-1.8-0.2-2-1C25.2,50.5,25.4,50.3,25.7,50.3c0.3,0.9,0.8,1.4,1.5,1c3.1-1.9,6.1-3.8,9.1-5.7
				c0.2-0.1,0.9-0.3,0.5-0.9c-0.3-0.5-0.7-0.1-1,0.1c-2.3,1.3-4.6,2.7-6.9,3.9C27.9,49.4,27,50.2,25.7,50.3"/>
			<path class="st2" d="M61.7,21.4c0,0.2,0,0.4,0.1,0.6c0.3,0.6,0.4,1.1-0.1,1.5c-0.6,0.5-1-0.3-1.4-0.5c0,0.1-0.1,0.1-0.1,0.2
				c0.2,0.7,0.2,1.6-0.5,1.7c-0.7,0.1-1.2-0.8-1.6-1.4c-0.4-0.7-0.2-1.7,0.3-1.7c1,0,1.5-0.5,2.1-1.1c0.2-0.2,0.7,0,1,0
				C61.6,21,61.6,21.2,61.7,21.4 M59.6,24.4c0-0.4,0.1-0.9,0-1.2c-0.1-0.4-0.4-1-0.9-0.8c-0.5,0.2-0.3,0.8,0,1.1
				C58.9,23.8,58.9,24.3,59.6,24.4 M61.1,22.9c0.4,0,0.4-0.3,0.3-0.5c-0.2-0.4-0.2-0.9-0.8-0.9c-0.5,0-0.3,0.4-0.3,0.6
				C60.4,22.6,60.7,22.8,61.1,22.9"/>
			<path class="st2" d="M58.2,33.7c0.1,0,0.2-0.1,0.2-0.1c1.2,1.2,2.2,0.3,3.2-0.4c1.8-1.2,3.6-2.4,5.4-3.6c0.7-0.4,0.9-0.8,0.3-1.4
				c-0.1-0.1-0.6-0.3-0.2-0.6c0.4-0.3,0.5,0.1,0.6,0.2c1.1,1,1,1.5-0.2,2.3c-2.3,1.4-4.6,2.9-6.9,4.3C59.4,35.1,59.1,35,58.2,33.7"
				/>
			<path class="st2" d="M22.1,45.3c0,0.1,0,0.2,0,0.4c0.1,0.6,0.7,1.3-0.1,1.7c-0.7,0.4-1.1-0.4-1.6-0.7c0,0-0.1,0-0.1-0.1
				c-0.8-0.7-1.3-2-0.8-2.4c1.1-0.8,1.5,0.4,2.1,0.8C21.8,45.1,22,45.2,22.1,45.3L22.1,45.3z M21.6,46.7C21.6,45.6,21,45,20,44.5
				C20.2,45.6,20.7,46.3,21.6,46.7"/>
			<path class="st2" d="M47.4,30.3c-0.1-0.5-0.2-1-0.3-1.5c0-0.3,0.1-0.6,0.4-0.8c0.3-0.1,0.7-0.1,0.9,0.2c0.4,0.7,0.9,1.3,1.1,2.1
				c0.1,0.3,0.1,0.6-0.2,0.8c-0.3,0.3-0.6-0.1-0.9-0.1C48.1,30.7,48,30,47.4,30.3L47.4,30.3z"/>
			<path class="st2" d="M35.8,39.1c-0.2,0.4-0.4,1-1,0.6c-0.8-0.5-1.6-1-2-2c-0.2-0.5-0.3-0.9,0.1-1.3c0.4-0.3,0.9-0.2,1.3,0
				C35.3,37.1,35.4,38.2,35.8,39.1 M35,39.3c0.2-1-0.4-1.6-0.8-2.2c-0.2-0.2-0.5-0.3-0.7-0.1c-0.2,0.2,0,0.4,0.1,0.6
				C34,38.3,34.4,38.8,35,39.3"/>
			<path class="st2" d="M18.2,25.1c-0.8-0.1-1.4-0.5-1.4-1.3c0-0.9,0.8-0.9,1.5-1c0.7,0,1.2,0.3,1.1,1
				C19.4,24.6,19.2,25.2,18.2,25.1"/>
			<path class="st2" d="M26.8,43.8c0,0.8-0.4,1.1-1.1,0.7c-1-0.6-1.7-1.6-2-2.7c-0.1-0.5,0.1-0.8,0.5-1c0.6-0.4,1.1,0,1.4,0.3
				C26.3,41.8,26.7,42.8,26.8,43.8 M26.2,44.1c-0.1-1.1-0.3-1.8-0.9-2.4c-0.2-0.2-0.4-0.6-0.8-0.4c-0.3,0.2-0.3,0.7-0.1,1
				C24.8,42.9,25.2,43.6,26.2,44.1"/>
			<path class="st2" d="M22.2,45.3c0-0.3,0-0.5-0.1-0.8c0.7,0,0.8,1.1,1.6,0.9c-0.3-1.4-0.6-1.8-1.7-2.3c0,0.5,0.1,0.9,0.1,1.4
				c-0.9-0.1-0.7-0.8-0.7-1.4c0-0.3-0.1-0.7,0.4-0.8c0.6-0.1,0.8,0.3,1.2,0.6c0.6,0.5,1,1.1,1.3,1.8c0.1,0.4,0.3,0.9-0.1,1.2
				c-0.4,0.3-0.9,0-1.3-0.3C22.7,45.5,22.5,45.2,22.2,45.3L22.2,45.3z"/>
			<path class="st2" d="M37.3,37.1c0,0.3,0.1,0.7-0.2,0.9c-0.3,0.2-0.6-0.1-0.8-0.3c-0.9-0.5-1.3-1.3-1.3-2.2c0-0.3,0-0.8,0.4-0.9
				c0.3-0.2,0.7,0,0.9,0.3C36.9,35.5,37.4,36.1,37.3,37.1 M35.6,35.1c0.1,1.1,0.2,1.8,1.2,2.4C36.8,36.4,36.5,35.7,35.6,35.1"/>
			<path class="st2" d="M27.3,41.7c-0.2-0.1-0.5-0.1-0.6-0.3c-0.4-0.6-1-1.3-0.4-1.9c0.5-0.5,1.2-0.1,1.7,0.5c0.5,0.5,0.8,1.2,1,1.8
				c0.2,0.5,0.1,0.9-0.3,1.1c-0.5,0.2-0.8-0.2-0.9-0.7c0.3-0.1,0.9,0.1,0.6-0.6c-0.2-0.3-0.3-0.6-0.5-0.9c-0.2-0.4-0.6-0.9-1.1-0.6
				c-0.5,0.3,0.2,0.6,0.3,0.9C27.2,41.4,27.3,41.6,27.3,41.7"/>
			<path class="st2" d="M39.8,33.1c0-0.5,0.1-0.9,0.5-1.1c0.5-0.3,0.9,0.2,1.1,0.5c0.4,0.6,0.8,1.3,0.9,2c0.1,0.4-0.1,0.7-0.4,0.9
				c-0.4,0.2-0.6,0-0.9-0.2C40.4,34.7,39.8,34.1,39.8,33.1 M40.6,32.5c-0.3,1.2,0,1.9,0.9,2.4C41.9,33.9,41.4,33.2,40.6,32.5"/>
			<path class="st2" d="M53.8,27.2c-0.7-1.2-0.7-1.2-1.4-1.5c-0.1,1,0.7,1.5,1.2,2.2c-1.4-0.1-2-0.8-2-2c0-0.6,0.3-0.9,0.8-1
				C53.2,24.9,53.8,26,53.8,27.2"/>
			<path class="st2" d="M47.4,30.2c0,0.1,0,0.2,0,0.4c0.2,0.6,0.8,1.3,0,1.7c-0.6,0.3-1.1-0.5-1.5-0.9c-0.3-0.3-0.7-0.7-0.7-1.2
				c0-0.4-0.2-0.8,0.3-1.1c0.5-0.3,0.8,0,1.1,0.3C46.9,29.6,47.1,29.9,47.4,30.2C47.4,30.3,47.4,30.2,47.4,30.2 M45.9,29.5
				c-0.2,0.9,0.3,1.4,0.7,1.9c0.2,0.2,0.3,0.3,0.5,0.2c0.3-0.1,0.1-0.3,0-0.5C46.9,30.5,46.6,29.9,45.9,29.5"/>
			<path class="st2" d="M61.7,21.4c-0.1-0.2-0.2-0.5-0.2-0.7c-0.2-1,0.3-1.1,1.1-0.8c0.8,0.3,0.9,1.1,0.9,1.8c0,0.3-0.2,0.5-0.5,0.6
				c-0.4,0.2-0.5-0.2-0.7-0.3C62.1,21.8,62.1,21.5,61.7,21.4"/>
			<path class="st2" d="M39.8,35.9c0,0.4,0,0.9-0.6,0.9c-0.5,0-1.9-1.7-1.9-2.4c0-0.5,0.2-0.9,0.7-0.9
				C38.8,33.4,39.7,34.7,39.8,35.9 M39.4,35.7c-0.2-0.5-0.3-1.3-1-1.5C37.9,34,38,34.4,38,34.7c0.1,0.7,0.4,1.2,1,1.5
				C39.3,36.3,39.4,36,39.4,35.7"/>
			<path class="st2" d="M51,29.5c-1-0.5-1.4-1.3-1.5-2.3c-0.1-0.5,0.3-0.7,0.6-0.9c0.4-0.3,0.8,0,1,0.3c0.5,0.7,0.9,1.4,0.8,2.3
				C51.9,29.6,51.7,29.7,51,29.5c1.1-0.8,0.3-1.6-0.1-2.4c-0.1-0.3-0.3-0.6-0.7-0.4c-0.2,0.1-0.3,0.5-0.3,0.8
				C50.2,28.3,50.8,28.9,51,29.5"/>
			<path class="st2" d="M58,24.8c-0.6-0.4-0.9-1.4-1.5-1.1c-0.6,0.3,0.3,1,0.3,1.5c0,0.1,0,0.2,0,0.4c-0.2,0.1-0.3-0.1-0.4-0.1
				c-0.6-0.6-0.8-1.3-0.7-2.1c0.1-0.3,0.3-0.5,0.6-0.4c0.8,0.1,1.1,0.8,1.5,1.4C58,24.5,58.1,24.6,58,24.8"/>
			<path class="st2" d="M38.1,42.9c1.1,1.6,2,0.3,2.9-0.1c0.6-0.3,1.1-0.8,2-0.7c-1.2,0.9-2.3,1.4-3.5,1.9
				C38.7,44.4,38.4,43.7,38.1,42.9"/>
			<path class="st2" d="M53.8,33.3c-0.3,0.7-1.3,0.5-1.5,1.4c0,0.3-0.2-0.1-0.3-0.1c-0.3-0.3-0.6-0.7-0.1-1c0.4-0.2,0.4-1.3,1.2-0.6
				C53.3,33,53.7,32.9,53.8,33.3"/>
			<path class="st2" d="M42.6,40.4c1.1-0.9,2.3-1.5,3.7-1.7C45.2,39.5,44,40.1,42.6,40.4"/>
			<path class="st2" d="M21.1,22.8c0,0.4-0.3,0.7-0.7,0.8c-0.4,0.1-0.5-0.4-0.5-0.6c0-0.3,0.1-0.7,0.6-0.7
				C20.8,22.2,21.1,22.3,21.1,22.8"/>
			<path class="st2" d="M61.1,28.5c0.6-0.4,1.1-0.8,1.7-1.2c0.2-0.1,0.4-0.1,0.5,0.1c0.1,0.1,0,0.4-0.1,0.4
				C62.5,28,62,28.8,61.1,28.5"/>
			<path class="st2" d="M66.5,26.8c-0.7-0.4-1.2-0.3-1.9-0.1c0.1-0.7,0.5-0.9,0.9-1C66,25.8,66.3,26.1,66.5,26.8"/>
			<path class="st2" d="M39.1,42.4c0.5-0.7,1.3-1,2.2-1.3C40.8,41.8,39.9,42,39.1,42.4"/>
			<path class="st2" d="M57.6,30.6c0.7-0.4,1.4-0.8,2.1-1.2c-0.4,0.9-1.2,1.3-2,1.5C57.6,30.8,57.6,30.7,57.6,30.6"/>
			<path class="st2" d="M59.5,52.6c-0.8-1.4-1.4-2.8-1.4-4.3c0-0.6,0.2-0.8,0.8-0.9c3-0.6,5.9-1.3,8.8-2c1.6-0.4,1.8-0.3,2.4,1.2
				c0.3,0.8,0.3,1.6,0.9,2.3c0.7,0.8,0.1,1.1-0.6,1.3c-2.7,0.8-5.3,1.6-8,2.1c-0.6,0.1-1.2,0.1-1.9,0c0.1-0.4,0.4-0.6,0.7-0.6
				c2.9-0.5,5.7-1.2,8.5-2.2c0.6-0.2,0.7-0.4,0.5-0.9c-0.3-0.7-0.6-1.4-0.7-2.1c-0.1-0.7-0.7-0.7-1.1-0.5c-3.1,1-6.3,1.5-9.5,2.1
				c-0.5,0.1-0.5,0.3-0.3,0.7c0.4,0.7,0.4,1.6,0.9,2.3C59.7,51.5,59.8,51.9,59.5,52.6"/>
			<path class="st2" d="M41,54.3c1.4-1,3-1,4.6-1.3c1.5-0.3,3-0.5,4.5-0.7c0.3,0,1-0.3,0.9,0.3c-0.1,0.6,0.9,1.6-0.4,1.9
				c-1.1,0.3-2.2,0.6-3.3,0.8c-1.7,0.3-3.4,0.8-5.2,0.9c-0.9,0-1.3-0.3-1.1-1.6c0.8,2,2.1,0.9,3.1,0.7c1.9-0.4,3.9-0.6,5.8-1.3
				c0.3-0.1,0.9,0.2,0.7-0.5c-0.1-0.5-0.4-0.8-1-0.7c-1.7,0.4-3.4,0.7-5.2,0.9C43.2,54,42.1,54.1,41,54.3"/>
			<path class="st2" d="M64.6,40.9c0.1,0.6-0.1,1.2-0.7,1.4c-0.6,0.1-0.7-0.5-1-0.9c-0.5-0.9-0.9-1.8-0.6-2.8
				c0.1-0.4,0.3-0.6,0.8-0.5c0.4,0.1,0.7-0.1,0.8,0.5C64.1,39.4,64.8,40,64.6,40.9 M63,38.8c0.2,1-0.1,1.9,0.8,2.4
				C64,40.4,64,39.6,63,38.8"/>
			<path class="st2" d="M60.4,38.7c1,0.7,1.7,1.5,1.7,2.8c0,0.6,0,1.3-0.7,1.4c-0.8,0.2-1.4-0.3-1.5-1c-0.2-0.9-0.6-1.9,0.4-2.6
				C60.3,39.2,60.3,38.9,60.4,38.7C60.4,38.7,60.4,38.7,60.4,38.7 M61.5,41.5c-0.2-0.5-0.1-1.3-0.8-1.5c-0.4-0.1-0.4,0.3-0.4,0.6
				c0.1,0.7,0.1,1.4,0.8,1.7C61.4,42.3,61.4,41.8,61.5,41.5"/>
			<path class="st2" d="M67.2,40c-0.1,0.5,0,1.3-0.8,1.4c-0.7,0.1-1-0.5-1.2-1.1c-0.3-0.8-0.4-1.6,0.2-2.4c0.2-0.2,0.5-0.4,0.7-0.2
				C66.9,38.3,67.2,39,67.2,40 M66.2,40.5c0.4-0.3,0.4-0.6,0.4-1c0-0.5-0.2-0.9-0.6-1.1c-0.1-0.1-0.3,0-0.4,0.1
				c-0.4,0.4,0,0.8,0.2,1.2C65.9,40,66.1,40.2,66.2,40.5"/>
			<path class="st2" d="M21.1,60.2c2.5-0.6,5.1-1.1,7.6-1.7c0.3-0.1,0.7-0.3,0.8,0.1c0.1,0.5-0.4,0.4-0.7,0.5
				C26.2,59.6,23.7,60.2,21.1,60.2"/>
			<path class="st2" d="M52.2,47.5c0.1,0.7,1.2,1.1,0.8,2c-0.2-0.1-0.1-0.6-0.4-0.5c-0.2,0-0.2,0.2-0.2,0.3c0,0.6,0,1.2-0.1,1.7
				C51.9,49.8,51.9,48.7,52.2,47.5"/>
			<path class="st2" d="M51,50.9c0-0.3,0-0.5,0-0.8c0-0.6-0.4-0.6-0.7-0.2c-0.2,0.2-0.2,0.6-0.6,0.3c-0.1-0.1-0.2-0.3-0.2-0.4
				c0.3-0.1,0.2-0.9,0.6-0.6c0.8,0.4,0.6-0.4,1-0.7C51.5,49.3,51.6,50.1,51,50.9"/>
			<path class="st2" d="M53.4,48.2c0.1-0.4,0.1-0.9,0.7-1c0.5,0,0.8,0.5,0.7,0.9c-0.1,0.5-0.6,0.7-1.1,0.8
				C53.4,49,53.5,48.5,53.4,48.2"/>
		</g>
	</g>
</g>
</svg>
