<?xml version="1.0" encoding="utf-8"?>
<!-- Generator: Adobe Illustrator 19.0.0, SVG Export Plug-In . SVG Version: 6.00 Build 0)  -->
<svg version="1.1" xmlns="http://www.w3.org/2000/svg" xmlns:xlink="http://www.w3.org/1999/xlink" x="0px" y="0px"
	 viewBox="0 0 72.1 75.2" style="enable-background:new 0 0 72.1 75.2;" xml:space="preserve">
<style type="text/css">
	.st0{display:none;}
	.st1{fill:#FFFFFF;}
</style>
<g id="Layer_1" class="st0">
</g>
<g id="Layer_4">
	<path id="XMLID_3_" class="st1" d="M56.4,29.6c-1,0.6-1.9,1.4-2.6,2.3c0-0.3,0-0.5,0-0.8c0-0.7,0.1-1.4-0.2-2
		c-0.4-1-1.4-1.4-2.3-0.9c-1.1,0.6-1.6,2-2.1,3c-0.4,0.8-0.8,1.6-1.2,2.5c-0.1-0.6-0.2-1.2-0.2-1.8c-0.1-1-0.2-3.4-1.6-3.5
		c-1.3-0.1-2.1,1.5-2.4,2.4c-0.1,0.3-0.3,0.8-0.4,1.3c-0.6-1-1.5-1.8-2.4-1c-0.7,0.6-1,2-1.1,2.9c-0.1,0.6-0.1,1.4-0.1,2.1
		c-0.8-0.4-2-0.4-2.8-0.3c-1.3,0.3-1.9,1.5-1.5,2.8c0.5,1.6,1.3,3.2,2.1,4.7c0.7,1.3,1.5,2.9,2.6,4c0,0.1-0.1,0.2-0.1,0.3
		c-0.3,0.6-0.6,1.4-0.9,2.1c-0.8-1.3-1.5-2.5-2.2-3.8c-2.1-3.7-3.9-7.4-5.5-11.3c0.6,0.2,1.2,0.2,1.7,0.3c1.3,0.2,2.9,0.2,4.1-0.4
		c1-0.6,1.7-1.7,1.4-2.9c-0.1-0.3-0.2-0.5-0.3-0.7c1.6-0.2,3.2-1.1,4-2c0.7-0.8,1.1-2.1,0.2-2.9c0.6-0.3,1.2-0.7,1.8-1.2
		C45,24,46,22.6,46,21.4c0-1.6-2.1-1.1-3.1-0.9c-0.4,0.1-0.9,0.3-1.4,0.5c0.4-1.8-0.3-4.2-2.3-3.4c-1.4,0.6-2.7,1.8-3.7,2.9
		c-0.5,0.6-1,1.2-1.3,1.8c-0.1-0.3-0.2-0.6-0.4-0.9c-0.7-1.1-1.6-0.4-2.2,0.3c-0.4,0.4-0.7,0.7-1.1,1.1c0.8-1.9,1.2-4,1.2-6
		c0-1-0.2-2.7-1.6-2.8c-0.6,0-1,0.3-1.5,0.7c0,0,0,0,0,0c0.2-0.8,0.3-1.7,0.3-2.5c0.1-1.6,0-3.7-0.8-5.1c-0.3-0.5-0.8-1.2-1.5-1.3
		c-0.7-0.1-1.2,0.5-1.5,1.1c-0.8,1.2-1.4,2.5-1.8,3.8c-0.2-0.5-0.4-0.9-0.6-1.3c-0.6-1.1-1.3-2.1-2-3.1c-0.8-1-3.1-4.1-4.4-2.1
		C15.9,5,15.9,6.1,15.8,7c0,1.1,0,2.2,0.2,3.2c0.2,1.1,0.5,2.3,0.9,3.4c-1.9-0.8-4.3-0.8-4,0.9c0.1,0.7,0.6,1.4,1,2.1
		c0.5,0.8,1,1.5,1.7,2.2c0.5,0.5,1.1,1.2,1.8,1.8c-0.5,0-1,0.1-1.3,0.3c-1.6,0.8-0.2,2.4,0.6,3.1c0.3,0.3,0.6,0.6,1,0.8
		c-0.4,0-0.9,0.1-1.2,0.3c-0.6,0.4-0.9,1.1-0.6,1.8c0.2,0.5,0.5,0.8,0.9,1.2c-0.1,0-0.3,0-0.4,0c-0.9-0.1-2.4,0-3.1,0.7
		c-0.8,0.7,0,1.7,0.6,2.2c0.2,0.2,0.4,0.3,0.7,0.5c-0.8,0.2-1.5,0.4-2.2,0.7c-1.1,0.4-3.2,1.5-3.1,2.9c0.2,1.4,2.3,2.1,3.5,2.3
		c0.9,0.1,2,0.3,3,0.2c-0.1,0.3-0.2,0.6-0.3,0.9c-0.2,0.9-0.4,2.8,0.7,3.2c1.2,0.6,2.7-1,3.5-1.7c0.3-0.2,0.7-0.6,1.1-1
		c0,0.4,0,0.8,0.2,1.2c0.5,1.6,1.9,0.7,2.9,0.1c1.4-0.9,2.9-1.9,4-3.2c0.6-0.7,1.3-1.5,1.6-2.4c0.1,0.3,0.2,0.6,0.4,0.9
		c2.1,5.5,4.8,10.8,7.8,15.9c-0.8,0.2-1.6,0.5-2.2,0.7c-0.4,0.1-0.7,0.3-1.1,0.4c-3.4-2.9-7.6-4.7-11.9-5.8
		c-0.9-0.2-1.9-0.6-2.8-0.2c-0.8,0.3-1,1.1-0.8,1.9c0.3,0.9,1.1,1.6,1.8,2.2c0.3,0.3,0.6,0.6,1,0.8c-0.5,0-1.1,0.1-1.6,0.2
		c-1,0.2-2.7,0.8-3.3,1.8c-0.7,1.1,0.6,2.2,1.5,2.5c0.3,0.1,0.7,0.2,1.2,0.3c-1.8,1.2-3.1,3.1-3.7,5.2c-0.2,0.9-0.5,2.7,0.5,3.2
		c0.4,0.2,1,0.2,1.6,0c-0.4,0.7-0.6,1.5-0.8,2.1c-0.5,1.6-0.6,3.3-0.4,5c0.2,1.4,1.3,2.6,2.7,1.8c0.7-0.4,1.4-1,2-1.7
		c0.1,0.5,0.4,1.1,0.7,1.4c1.1,1.1,2.7,0.6,3.8-0.3c1.4-1.3,2.1-3.3,2.6-5c0.3-0.9,0.6-1.8,0.8-2.8c0.5,1,1.3,2,2.1,2.4
		c0.9,0.5,1.8,0.3,2.5-0.4c0.4-0.4,0.6-0.9,0.8-1.4c0.1-0.1,0.1-0.3,0.2-0.4c0.7,1.6,2.1,3.4,3.7,3.2c1.9-0.2,2.5-2.2,2.3-3.9
		c-0.3-2.2-1.1-4.5-2-6.6c-0.6-1.3-1.4-3.2-2.6-4.2c0.8-0.2,1.7-0.4,2.4-0.7c0.3,0.5,0.5,0.9,0.8,1.3c2.2,3.6,4.4,7.4,7.6,10.2
		c0.4,0.4,1-0.2,0.8-0.6c-1.2-3.4-3.4-6.4-5.3-9.4c-0.6-1-1.2-2-1.9-3c0.6-1.1,0.9-2.4,1.4-3.4c0.1-0.2,0.2-0.3,0.2-0.5
		c0.4,0.3,0.8,0.6,1.2,0.9c0.7,0.5,1.3,1.1,1.9,1.7c1.1,1.1,2.2,2.2,3.6,3c1,0.6,2.3,0.8,3.1-0.2c0.7-0.7,0.7-1.7,0.6-2.6
		c0.8,0.2,1.6,0.7,2.3,1c1,0.4,2.2,0.6,3.1-0.1c1.4-1.1,0.7-2.8-0.5-4c0.2,0,0.4-0.1,0.6-0.2c1.1-0.4,2.5-1.7,1.8-3
		c-0.7-1.4-2.8-1.5-4.1-1.8c-0.5-0.1-1-0.1-1.4-0.2c0.4-0.1,0.8-0.2,1.2-0.3c1.7-0.5,3.9-1,5.3-2.2c1.1-1,1.3-2.8-0.1-3.7
		c-0.7-0.5-1.8-0.7-2.8-0.7c0.9-0.9,1.6-2.1,2.1-3.1c0.5-1,1.1-2.3,0.2-3.3C59.1,28.1,57.4,28.9,56.4,29.6z M32.1,23.2
		c0.2-0.2,0.8-1.1,1-1.1c-0.1,0,0.2,0.9,0.2,1.2c0.1,0.5,0,0.9-0.1,1.4c-0.1,0.6,0.8,0.8,1,0.3c0.9-2,2.3-3.8,4-5.2
		c0.4-0.3,0.8-0.7,1.3-0.9c0.6-0.2,0.7,0.2,0.8,0.8c0.1,0.8-0.2,1.5-0.2,2.3c-0.2,0.3-0.3,0.6-0.3,0.9c0,0.1,0.1,0.2,0.2,0.2
		c0.8,0.2,1.3-0.4,2-0.7c0.4-0.2,1.9-0.9,2.5-0.7c-0.2,0.9-1,1.9-1.5,2.5c-0.6,0.6-1.3,1-2,1.4c-0.6-0.1-1.1-0.1-1.2,0.5
		c0,0.2,0.1,0.4,0.3,0.6c0.2,0.2,0.4,0.3,0.6,0.4c0.4,0.2,0.6,0.2,0.4,0.6c-0.2,0.5-1.2,1-1.6,1.3c-1,0.5-2.1,0.5-3.2,0.6
		c-0.3-0.1-0.7-0.2-1-0.1c-0.3,0-0.6,0.4-0.4,0.7c0.4,0.8,1.7,1.2,1.8,2.1c0.2,1.1-1.4,1.3-2.2,1.4c-0.8,0.1-1.6,0-2.4-0.1
		c-0.5-0.1-1-0.2-1.4-0.2c-0.2-0.5-0.4-1.1-0.7-1.6c0.9-1,1.9-1.9,2.9-2.7c1.1-0.8,2.5-1.4,3.4-2.5c0.1-0.1,0-0.4-0.2-0.4
		c-1.5,0.1-3,1.3-4.1,2.3c-0.9,0.7-1.7,1.6-2.4,2.5c-0.3-0.7-0.5-1.3-0.8-2c0.4-0.6,0.6-1.3,0.8-1.9c0.4-0.9,0.9-1.8,1.5-2.6
		C31.5,23.9,31.8,23.5,32.1,23.2z M26.1,27.4c0.2,0,0.3-0.1,0.5-0.1c0.1,0.1,0.1,0.3,0.2,0.4C26.5,27.7,26.3,27.5,26.1,27.4z
		 M16.9,22.1c-0.2-0.2-0.1-0.3,0.3-0.3c0.1,0,0.2,0,0.3,0c0.4,0,0.7,0,1.1,0.1c0.5,0.1,0.8,0.1,1.3,0c0.1,0,0.1-0.1,0.1-0.2
		c0-0.1-0.1-0.2-0.2-0.2c0,0,0-0.1,0-0.1c-0.4-0.9-1.6-1.6-2.3-2.3c-0.9-0.9-1.7-1.9-2.4-3c-0.1-0.2-0.8-1.1-0.8-1.4
		c0.1-0.5,1.1-0.1,1.4,0c0.9,0.3,1.7,1.1,2.6,1.4c0,0.1,0.1,0.1,0.1,0.2c0.2,0.3,0.7,0.1,0.6-0.2c0,0,0-0.1,0-0.1
		c0-0.3-0.2-0.6-0.4-0.9c-0.5-1.3-1-2.5-1.2-3.9c-0.3-1.6-0.4-3.3-0.1-5c0-0.2,0.1-1,0.4-1.1c0.2,0,0.9,0.7,1,0.9
		c0.6,0.6,1.2,1.3,1.7,2c0.6,0.8,1.1,1.7,1.5,2.6c0.3,0.7,0.5,1.5,1.1,2c0.2,0.1,0.4,0.1,0.5,0c0.1,0,0.2,0,0.2-0.2
		c0.4-0.9,0.7-1.8,1.2-2.7c0.2-0.4,0.5-0.9,0.8-1.3C26,8,26.3,7.5,26.6,7.2c0.5,0.5,0.6,1.9,0.6,2.4c0.1,0.8,0.1,1.5,0,2.3
		c0,0.8-0.2,1.6-0.3,2.3c-0.2,0.8-0.3,1.8-0.6,2.6c-0.2,0.7,0.7,1.2,1.2,0.8c0.7-0.7,1.3-1.4,2.1-2c1.1-0.9,0.9,0.7,0.8,1.4
		c-0.2,1.7-0.7,3.3-1.3,4.8c-0.3,0.8-0.8,1.5-1.2,2.2c-0.1,0.2-0.3,0.5-0.5,0.7c-0.6-1.6-1.3-3.2-1.9-4.8c-0.7-1.8-1.4-3.8-2.5-5.4
		c-0.1-0.2-0.5-0.1-0.5,0.1c0.2,1.9,0.9,3.7,1.5,5.4c0.6,1.8,1.2,3.6,1.9,5.3c0.1,0.2,0.1,0.4,0.2,0.6c-0.7-0.3-1.5-0.5-2.3-0.7
		c-1.3-0.4-2.6-0.8-3.9-1.4c-0.5-0.3-1.1-0.5-1.6-0.8C18,22.9,17,22.5,16.9,22.1z M27.2,35.4c-0.7,0.9-1.5,1.7-2.4,2.4
		c-0.4,0.3-2.5,2.2-3,1.7c-0.3-0.2-0.2-1.4-0.1-2.2c0.1-0.3,0.1-0.5,0-0.8c0-0.1-0.1-0.2-0.2-0.2c-1-0.1-1.6,1.1-2.2,1.7
		c-0.6,0.6-1.6,1.9-2.6,2.1c-0.2-0.6,0.1-1.6,0.2-2c0.2-0.8,0.7-1.4,0.8-2.2c0-0.2-0.1-0.3-0.2-0.2c0,0-0.1,0-0.1,0
		c-0.1-0.1-0.3-0.2-0.5-0.2c-1,0.1-2,0.2-3,0.2c-0.6,0-1.2,0-1.8-0.2c-0.3-0.1-0.6-0.2-0.8-0.3c-0.2-0.1-0.3-0.2-0.4-0.3
		c-0.2-0.1-0.2-0.2,0-0.2c0.1-0.4,1.1-0.9,1.4-1c0.6-0.3,1.2-0.5,1.8-0.8c0.9-0.3,1.7-0.5,2.6-0.8c0.2,0,0.5,0,0.7,0
		c0.2,0,0.2-0.2,0.2-0.3c0,0,0,0,0,0c0.2-0.1,0.2-0.5-0.1-0.5c-0.2,0-0.3-0.1-0.5-0.1c-0.3-0.3-0.8-0.4-1.2-0.6
		c-0.5-0.2-1-0.5-1.3-0.9c0,0-0.1-0.1-0.1-0.1c0.2-0.1,0.4-0.1,0.4-0.2c0.8-0.2,1.6-0.2,2.5-0.1c0.6,0.1,1.1,0.2,1.7,0.3
		c0.4,0.2,0.9,0.3,1.3,0.2c0.1,0,0.2-0.2,0.2-0.3c-0.2-0.6-0.7-0.8-1.2-1.1c-0.6-0.4-1.2-0.8-1.6-1.4c-0.3-0.4-0.5-0.6,0.1-0.7
		c0.2,0,0.5,0,0.7,0.1c0.7,0.1,1.4,0.2,2.1,0.4c1.2,0.3,2.3,0.6,3.5,1.1c0.7,0.3,1.4,0.6,2.1,1c0.5,0.2,0.8,0.5,1.2,0.5
		c0.2,0.6,0.4,1.1,0.6,1.7c-1.1-0.3-2.1-0.3-3.2-0.1c-0.9,0.1-1.7,0.4-2.6,0.6c-0.7,0.2-1.6,0.3-2,0.9C20,32.8,20,32.9,20.2,33
		c0.5,0.3,1.1,0.2,1.7,0c0.9-0.2,1.8-0.6,2.7-0.8c1.2-0.3,2.5-0.5,3.7-0.3c0.1,0.4,0.3,0.8,0.4,1.1C28.1,33.8,27.8,34.7,27.2,35.4z
		 M36.7,57.9c0.9,1.5,1.6,3.1,2.2,4.8c0.4,1.2,1.2,3.6-0.1,4.5c-0.9,0.6-1.6-0.3-2.1-0.9c-0.6-0.7-1.1-1.4-1.7-2
		c0-0.1-0.1-0.2-0.2-0.2c-0.1-0.1-0.3-0.1-0.4,0c-0.6,0.2-0.8,0.7-1,1.3c-0.4,0.9-0.8,1.8-1.9,1.1c-1.2-0.9-1.4-2.2-1.9-3.5
		c0-0.2,0-0.4-0.1-0.6c-0.1-0.2-0.3-0.3-0.4-0.2C29.1,62,29,62,29,62c0,0,0,0,0,0c0,0,0,0,0,0c0,0,0,0-0.1,0.1
		c-0.5,0.5-0.5,1.1-0.7,1.8c-0.2,0.7-0.4,1.4-0.6,2.1c-0.4,1.4-0.8,2.8-1.4,4.2c-0.5,1-1.4,2.8-2.7,2.7c-1.6-0.1-1.1-2.4-1.3-3.5
		c0-0.1-0.2-0.2-0.3-0.1c-0.1,0.1-0.1,0.2-0.2,0.2c-0.1,0-0.1,0-0.2,0.1c-1,0.7-1.5,2.2-2.7,2.7c-0.8,0.3-0.9-0.6-0.9-1.2
		c0-0.5,0-1.1,0-1.6c0.1-1.1,0.4-2.2,0.7-3.3c0.3-0.7,0.8-1.6,0.9-2.4c0.1-0.1,0.1-0.2,0.2-0.2c0.1-0.2,0.1-0.5-0.2-0.5
		c-0.5,0-0.9,0-1.4,0.2c-0.2,0.1-0.5,0.2-0.7,0.3c-0.3,0.1-0.4,0.2-0.6,0c-0.2-0.3,0-1.2,0.1-1.5c0.1-0.5,0.3-1.1,0.6-1.6
		c0.8-1.6,2-2.9,3.4-4c0.4-0.1,0.8-0.2,1.1-0.5c0.2-0.2,0.1-0.5-0.1-0.6c-0.8-0.4-1.7-0.1-2.5-0.2c-0.3,0-1.5-0.1-1.6-0.6
		c-0.1-0.4,0.8-0.7,1-0.9c1.5-0.7,3-0.8,4.6-1c0.1,0,0.2,0,0.3,0.1c0.3,0.1,0.5-0.3,0.3-0.6c-1-1.2-2.4-2-3.3-3.3
		c0,0-0.5-0.6-0.4-0.7c0.1-0.1,1.2,0.2,1.4,0.3c0.8,0.2,1.5,0.4,2.3,0.6c3.2,1,6.3,2.5,9.3,4.1c-1,0.4-2,0.9-3,1.4
		c-3.2,1.8-5.9,4.2-8.2,7c-0.2,0.3,0.1,0.6,0.4,0.4c2.5-2.3,5.5-4.2,8.5-5.7c1.2-0.6,2.5-1.2,3.8-1.6C35.1,55.7,36.1,56.8,36.7,57.9
		z M58.1,33.2c-0.6,1-1.5,1.8-2.1,2.8c0,0.1,0,0.1,0,0.2c-0.1,0.2,0,0.4,0.2,0.5c1,0.4,2.2,0.1,3.2,0.7c1.7,1-1.4,2.2-2.1,2.5
		c-2.5,1.1-5.2,1.9-7.8,2.6c-0.4,0.1-0.3,0.8,0.2,0.7c0.2,0,0.3,0,0.5,0c0,0,0,0.1,0.1,0.1c0.8,0.6,1.9,0.4,2.8,0.5
		c1.3,0.1,2.6,0.3,3.9,0.6c0.4,0.1,1.6,0.3,1.7,0.8c0.1,0.4-0.6,0.8-0.9,1c-0.6,0.3-1.3,0.4-2,0.4c-0.4-0.2-0.8-0.3-1.1-0.3
		c-0.5,0-0.6,0.7-0.2,1c0.9,0.6,1.9,1,2.5,2.1c0.3,0.5,0.6,1.2-0.2,1.4c-0.3,0.1-0.8-0.1-1.1-0.2c-1.4-0.5-2.6-1.4-4.1-1.1
		c-0.4,0.1-0.7,0.5-0.6,0.9c0.3,1,0.5,3-1.2,2.1c-1-0.5-1.9-1.4-2.8-2.2c-1.1-1-2.6-2.7-4.2-3.1c0.7-1.2,1.5-2.4,2.3-3.6
		c1.1-1.5,2.4-2.9,3.7-4.1c0.7-0.6,1.4-1.2,2.2-1.8c0.7-0.5,1.5-1,2.1-1.6c0.1-0.1,0-0.4-0.2-0.3c-1.8,0.2-3.7,1.6-5.1,2.6
		c-1.7,1.3-3.2,2.6-4.5,4.3c-0.9,1.2-1.7,2.4-2.4,3.7c-0.4-0.7-0.8-1.4-1.2-2.1c-0.6-1.1-1.1-2.2-1.6-3.3c-0.2-0.5-0.5-1.1-0.7-1.6
		c-0.2-0.4-0.6-1.3-0.4-1.7c0.3-0.5,1.5-0.3,2-0.2c0.5,0.1,0.9,0.3,1.5,0.3c0.3,0,0.4-0.3,0.3-0.5c0,0,0,0,0,0
		c0.3-1.3,0.3-2.6,0.7-3.9c0.1-0.2,0.2-0.8,0.5-0.8c0.1,0,0.5,0.6,0.6,0.7c0.3,0.4,0.6,0.9,1,1.3c0.1,0.1,0.2,0.2,0.4,0.3
		c0.1,0.1,0.3,0,0.3-0.2c0-1,0.4-2.1,0.7-3.1c0.2-0.5,0.4-1,0.7-1.4c0.2-0.3,0.3-0.5,0.6-0.2c0.2,0.2,0.2,0.6,0.3,0.9
		c0.2,1,0.3,1.9,0.4,2.9c0.1,1-0.1,2,0.4,2.9c0.1,0.1,0.3,0.1,0.4,0c0,0,0,0,0,0c0.1,0,0.2,0,0.3-0.1c1.2-2,2-4.1,3.3-6
		c0.2-0.3,0.5-0.8,0.8-1c0.6-0.4,0.6,0.4,0.7,0.9c0,1.2-0.1,2.3-0.1,3.5c0,0.6,0.8,1,1.2,0.4c0.6-1,1.4-1.9,2.4-2.6
		c0.5-0.4,2.4-1.9,3.1-1.3C59.8,30.8,58.4,32.7,58.1,33.2z"/>
</g>
</svg>
