<?xml version="1.0" encoding="utf-8"?>
<!-- Generator: Adobe Illustrator 19.0.0, SVG Export Plug-In . SVG Version: 6.00 Build 0)  -->
<svg version="1.1" xmlns="http://www.w3.org/2000/svg" xmlns:xlink="http://www.w3.org/1999/xlink" x="0px" y="0px"
	 viewBox="0 0 72.1 75.2" style="enable-background:new 0 0 72.1 75.2;" xml:space="preserve">
<style type="text/css">
	.st0{display:none;}
	.st1{fill:#FFFFFF;}
</style>
<g id="Layer_1" class="st0">
</g>
<g id="Layer_2">
	<g id="XMLID_2_">
		<path id="XMLID_9_" class="st1" d="M70.3,7.1c-1.1-1-2.7-1.3-4.2-1.5c-1.5-0.3-3.1-0.4-4.6-0.3c-3.3,0.1-6.5,0.7-9.5,1.9
			c-5.5,2.2-10,6.3-12.8,11.5c-0.8,1.4-1.4,2.9-1.9,4.5c-0.3,1.1-0.7,2.3-0.7,3.5c0-0.1-0.1-0.1-0.1-0.2c-0.4-0.5-0.9-0.9-1.4-1.3
			c-0.3-1.7-1.3-3.2-2.2-4.6c-1.4-1.9-3.1-3.5-5.1-4.7c-2.3-1.3-4.7-1.9-7.3-2.4c-2.9-0.5-5.7-1.2-8.5-2.2c-1.5-0.6-2.9-1.2-4.3-1.9
			C6.3,8.7,5,7.7,3.6,7.2c0-0.1,0-0.1-0.1-0.2C3.4,6.7,3,6.9,3,7.2C2.9,8.8,3.2,10.4,3.4,12c0.2,1.6,0.5,3.2,0.7,4.8
			c0.5,3,1.2,5.9,2.3,8.7c1.9,4.5,5.3,8.3,9.6,10.6c1.2,0.6,2.4,1.1,3.7,1.5c0.4,0.1,0.9,0.2,1.4,0.3c-1,0.5-2.1,1.1-3,1.6
			c-2.4,1.5-4.7,3.5-6.4,5.7c-1.9,2.4-3.2,5.1-4,8c-1,3.6-1.3,7.4-1.8,11c-0.1,0.6,0.5,1,1.1,0.8c5.8-1.7,11.3-3.8,16.6-6.7
			c2.4-1.3,4.9-2.7,7.1-4.4c0.8-0.6,1.6-1.4,2.2-2.2c0.2,2.7,1,5.3,2.8,7.4c2,2.4,4.9,3.4,7.7,4.3c3.1,1,6.2,1.6,9.4,2.3
			c1.7,0.4,3.5,0.7,5.2,1.1c0.9,0.2,1.8,0.4,2.7,0.7c0.9,0.2,1.7,0.3,2.6,0.5c0.3,0.1,0.5-0.1,0.7-0.3c0.1-0.2,0.2-0.4,0-0.6
			c-0.5-0.6-1.1-1.2-1.5-1.8c-0.4-0.7-0.7-1.4-1-2.1c-0.6-1.7-1-3.5-1.3-5.4c-0.5-3.5-0.6-7-1.2-10.5c-0.5-3.2-1.7-6.1-4.3-8.2
			c-2.2-1.7-4.9-2.8-7.6-3.3c1.1-0.2,2.2-0.5,3.3-0.9c2.4-0.8,4.7-1.8,6.8-3.2c4.7-3.3,7.2-8.8,9.3-14c0.7-1.7,1.3-3.4,1.8-5.1
			c0.3-0.9,0.5-1.7,0.8-2.6c0.2-0.8,0.4-1.7,1-2.3C70.4,7.7,70.5,7.3,70.3,7.1z M36,29.1c0.4,0.7,0.5,1.4,0.8,2.1
			c0.1,0.1,0.1,0.2,0.2,0.3c-0.3,0.6-0.5,1.4-0.6,2.1c-0.6-1.4-2-2.4-3.2-3.3c-1.4-1-3-1.8-4.6-2.5c-0.1-0.1-0.3-0.1-0.4-0.2
			c0,0,0-0.1,0-0.1c-0.4-1.2-0.6-2.5-1-3.6c1,0.2,2,0.4,2.9,0.7c0.6,0.2,1.1,0.4,1.7,0.6c0.3,1.6,0.9,3.2,1.5,4.8
			c0.1,0.4,0.6,0.2,0.6-0.1c-0.3-1.5-0.6-3-1.3-4.3c0.8,0.4,1.5,0.9,2.2,1.5C35.2,27.7,35.6,28.4,36,29.1z M33.6,39.6
			c-0.1,0.9-0.4,1.7-0.6,2.6c0,0.1,0,0.1,0.1,0.2c-0.3,0.2-0.5,0.3-0.8,0.5c-1.6,1-3.5,1.6-5.4,2c1.2-1.3,2.4-2.6,3.6-3.8
			c-0.3,0.8-0.7,1.7-1,2.5c-0.1,0.2,0.2,0.3,0.3,0.1c0.8-0.9,1.1-2.1,1.3-3.2c0.4-0.4,0.8-0.8,1.1-1.1c0.5-0.5,1-1,1.6-1.5
			C33.7,38.4,33.7,39,33.6,39.6z M19,22.5c0.6,1.4,2,2.4,3.2,3.2c0.4,0.3,0.8,0.5,1.3,0.8c-1,0.3-2.1,0.5-3.1,0.8
			c-0.2,0-0.2,0.3,0,0.3c1.3,0.2,2.6-0.2,3.7-0.8c1,0.5,2,1,3.1,1.4c1.1,0.5,2.2,1,3.2,1.5c0,0,0,0,0,0c-1.4,0.6-2.8,1-4.3,1.3
			c-1.4,0.3-2.8,0.2-4.2,0.5c0,0-0.1,0-0.1,0.1c-1.7-2.8-2.2-6.1-2.8-9.3c1.8,0.3,3.5,0.7,5.2,1c0.7,0.1,1.5,0.3,2.2,0.4
			c0.1,1.3,0.7,2.5,1.3,3.7c-1.4-0.6-2.7-1.2-4.1-1.9c-0.8-0.4-1.7-0.9-2.4-1.5C20.5,23.5,19.9,22.9,19,22.5
			C19.1,22.4,19,22.4,19,22.5z M30.6,30.1c0.1,0,0.1-0.1,0.1-0.2c0.4,0.2,0.9,0.5,1.3,0.7c1,0.6,1.9,1.4,2.7,2.2
			c-0.9,0.4-1.8,0.8-2.6,1.3c-0.2,0.1-0.1,0.3,0.1,0.3c1.1-0.1,2-0.6,2.9-1.2c0.3,0.2,0.5,0.5,0.8,0.7c-2.7,0.2-4.9,1.5-6.7,3.4
			c-1.4-0.5-2.7-1-3.9-1.8c-1.3-0.9-2.4-2.2-3.2-3.5c0,0,0,0,0-0.1C24.8,32.7,28.2,31.5,30.6,30.1z M29.6,38.8c0,0,0.1,0.1,0.1,0.1
			c0.8-0.1,1.5-0.3,2.2-0.4c-0.1,0.1-0.2,0.2-0.3,0.3c-1.9,2-3.7,4.1-5.4,6.3c-0.1,0-0.2,0-0.3,0.1C27,42.8,28,40.6,29.6,38.8z
			 M32.5,37.9c-0.8-0.1-1.7-0.1-2.5,0.4c1.7-1.8,3.8-3.1,6.1-3.8c-0.5,0.4-0.9,0.8-1.4,1.2C34,36.5,33.2,37.2,32.5,37.9z M34.2,37.4
			c0.3-0.3,0.6-0.6,0.9-0.8c0.4-0.4,0.9-0.8,1.4-1.2c-0.2,1.2-0.2,2.4-0.2,3.6c-0.6,0.5-1,1.2-1.5,1.8c-0.4,0.4-0.7,0.8-1.2,1.1
			C34.5,40.7,34.6,38.8,34.2,37.4z M19.6,35.7c-1.3-0.5-2.6-1.1-3.8-1.9c-2.4-1.6-4.4-3.7-6-6.1c-0.3-0.4-0.5-0.9-0.8-1.3
			c1.2,0.1,2.4,0.1,3.5,0c1.8-0.1,3.6-0.4,5.3-0.8c0.3-0.1,0.2-0.6-0.1-0.5c-1.8,0.2-3.6,0.3-5.4,0.4c-1.3,0.1-2.6,0.1-3.8,0.2
			c-1.1-2.2-1.8-4.6-2.4-7c-0.1-0.2-0.1-0.5-0.2-0.7c1.8,0.3,3.8,0,5.4-0.3c0.2,0,0.2-0.4-0.1-0.4c-1.2,0.2-2.4,0.2-3.7,0.2
			c-0.6,0-1.2-0.1-1.9-0.2C5.5,16,5.3,14.7,5,13.4c-0.3-1.5-0.6-3.1-0.9-4.6c1.4,2.3,3.2,4.5,5.2,6.4c1.2,1.1,2.4,2.2,3.6,3.2
			c1.3,1,2.8,2.2,4.4,2.6c0.2,0,0.3-0.1,0.2-0.3c-0.2-0.2-0.4-0.4-0.5-0.5c0.1-1.8-0.2-3.8-1.2-5.2c-0.1-0.1-0.2,0-0.2,0.1
			c0.5,1.7,1,3.1,1.1,4.8c-0.8-0.7-1.8-1.3-2.7-1.9c-1.3-1-2.5-2-3.7-3.1c-1.7-1.6-3.3-3.4-4.9-5.2c0.6,0.4,1.1,0.7,1.7,1
			c1.5,0.9,3,1.6,4.6,2.2c3.3,1.3,6.8,1.9,10.3,2.6c0.6,0.1,1.2,0.3,1.7,0.5c0.5,1.9,1.8,4,0.9,6c-0.1,0.2,0.2,0.3,0.3,0.1
			c0.6-1,0.6-2.1,0.4-3.2c-0.1-0.8-0.3-1.7-0.7-2.6c1.9,0.8,3.7,1.9,5.2,3.4c1,1,1.9,2.2,2.6,3.5c0.1,0.3,0.3,0.5,0.4,0.8
			c-0.4-0.2-0.8-0.3-1.2-0.4c-4.3-1.4-8.9-1.4-13.3-2.5c-0.4-0.1-0.8,0.3-0.7,0.7c0.4,4,1.3,8.3,3.6,11.6c0.8,1.2,2.1,2.5,3.5,3.4
			c-0.4,0.1-0.7,0.2-1,0.3C22.3,36.4,20.9,36.2,19.6,35.7z M18.9,40.6c2.1-1.4,4.4-2.3,6.7-3.4c0.9,0.4,1.9,0.7,2.9,0.6
			c-1.1,1.3-2.1,2.8-2.8,4.4c-2.4-0.7-5.2-1.7-7.7-1C18.3,41,18.6,40.8,18.9,40.6z M9.1,54c0.3-1.5,0.9-3,1.5-4.4
			c0,0.1,0.1,0.1,0.2,0.1c2.8-0.2,5.6,0.2,8.4,0.3c0.2,0,0.2-0.3,0-0.3c-1.6-0.3-3.3-0.5-4.9-0.7c-1.2-0.1-2.5-0.2-3.5,0.4
			c0.6-1.1,1.2-2.2,2-3.2c1.3-1.7,2.8-3.2,4.5-4.5c0,0,0.1,0.1,0.1,0.1c1.4,0.1,2.8,0,4.2,0.2c1.3,0.2,2.5,0.4,3.8,0.7
			c-0.5,1-0.9,2.1-1.2,3.1c0,0.2,0,0.3,0,0.4c-1.6,0.9-3,2.2-4.4,3.3c-1.7,1.4-3.4,3-4.9,4.6c-1.5,1.6-3,3.2-4.4,4.9
			c-0.7,0.8-1.4,1.7-2,2.6c-0.3,0.4-0.6,0.8-0.9,1.2C8.2,59.8,8.5,56.9,9.1,54z M8.4,63.1c0.4-0.5,0.7-1,1.1-1.5
			c0.6-0.8,1.3-1.6,1.9-2.4c1.2-1.5,2.5-2.9,3.8-4.3c-0.1,1.8-0.2,3.9,0.2,5.7C13.1,61.6,10.8,62.5,8.4,63.1z M21.6,57.6
			c-1.9,1-3.9,2-5.9,2.8c0.3-1.9,0.1-4-0.1-5.9c0,0,0,0,0,0c0,0,0-0.1,0.1-0.1c1.4-1.5,3-2.9,4.5-4.3c0.9-0.8,1.8-1.5,2.7-2.2
			c0,0,0,0,0,0c0.3,1.5,0.5,2.9,0.6,4.4c0.1,1.4,0.1,2.7,0.1,4.1C23,56.9,22.3,57.3,21.6,57.6z M32.9,48.6c-0.2,0.3-0.5,0.6-0.7,1
			c-0.3,0.5-0.6,1-1,1.5c-0.8,0.9-1.7,1.7-2.6,2.4c-1.5,1.1-3.1,2.1-4.7,3c0.7-2.7,0.3-5.8-0.6-8.4c0-0.1-0.1-0.2-0.2-0.2
			c0.5-0.4,1-0.9,1.5-1.3c0.2,0.1,0.3,0.1,0.5,0c2.8-0.7,5.6-1.3,8.1-2.8c0.2-0.1,0.4-0.3,0.7-0.4C33.4,45,33.1,46.8,32.9,48.6z
			 M37.4,58.4c-1.1-1.1-1.9-2.5-2.4-3.9c-1.3-3.7-0.6-7.7-0.6-11.5c0.7-0.5,1.5-1.2,2.1-2c0.4,2.2,1.2,4.3,2.7,5.9
			c0.4,0.4,0.7,0.8,1.1,1.1c-0.8,2.5-1.2,5.1-1.1,7.7c0,1.3,0.2,2.8,0.6,4.2C38.9,59.5,38.1,59,37.4,58.4z M40.3,30.7
			c0,0.2,0.3,0.2,0.3,0c0.2-0.8,0.5-1.7,0.6-2.6c1.6-1.1,3.7-1.6,5.6-2.1c0,0,0,0.1,0,0.1c-0.6,0.4-1.1,0.8-1.6,1.2
			c-0.9,0.7-1.9,1.4-2.7,2.2c-1.6,1.3-3.1,2.7-4.5,4.2c0-0.1-0.1-0.1-0.2,0c-0.1,0-0.1,0.1-0.2,0.1c0.2-0.7,0.4-1.4,0.7-2.1
			c0.5-1,1.2-1.9,2-2.7C40.1,29.5,40.1,30.2,40.3,30.7z M40.3,37c0.4-0.1,0.8-0.2,1.3-0.2c0.3,0,0.7,0,1,0c0.1,0,0.1-0.2,0.1-0.2
			c0.1,0,0.1,0,0.2,0.1c1.8,0.8,3.5,1.8,5,3c0.5,0.4,0.8,0.8,1.2,1.3c-1.7-1.1-4.1-1-5.9-0.5c-0.1,0-0.1,0.1-0.1,0.1
			c-1.6-1.8-3.1-3.6-4.8-5.3c0.6,0.2,1.2,0.2,1.9,0.4c0.7,0.2,1.4,0.4,2.1,0.7c-0.6-0.1-1.3,0-1.9,0.1C39.9,36.6,40,37.1,40.3,37z
			 M45.3,48.6c-1.9-0.5-3.6-1.4-5-3c-0.2-0.3-0.4-0.5-0.6-0.8c0-2,0.1-3.9,0.6-5.9c1.2,1.4,2.5,2.8,3.7,4.1c0.1,0.1,0.2,0.2,0.3,0.3
			C44.1,45.1,44.3,47.2,45.3,48.6z M45,46.1c-0.2-0.8-0.3-1.6-0.3-2.4c1.1,1.1,2.2,2.1,3.4,3.1c0.7,0.6,1.5,1.2,2.3,1.7
			c0.4,0.3,0.8,0.6,1.3,0.9c-1.9-0.1-3.9-0.2-5.8-0.7C45.5,47.8,45.2,47,45,46.1z M50.8,47.8c-0.7-0.5-1.5-1.1-2.2-1.7
			c-0.3-0.2-0.5-0.4-0.8-0.6c0,0,0,0,0,0c1.2-0.3,2.3-0.1,3.5,0.2c0.5,1.1,0.9,2.2,1.2,3.4C52,48.6,51.3,48.2,50.8,47.8z M47.8,45.1
			c-0.1,0-0.2,0.2-0.1,0.2c-1.1-1-2.1-2-3.2-3c-0.5-0.5-0.9-1-1.4-1.4c2.3-0.4,4.2,0.2,6.3,0.8c0.5,0.9,1,1.8,1.4,2.8
			c0.1,0.3,0.2,0.5,0.4,0.8C50.2,44.7,49,44.7,47.8,45.1z M40.7,34.3C40.7,34.3,40.7,34.3,40.7,34.3c-0.8-0.2-1.7-0.5-2.5-0.5
			c1.3-1.2,2.6-2.3,3.9-3.4c0,0,0,0,0,0c0.7,0.4,1.8,0.8,2.5,0.4c-0.5,0.8-1.1,1.7-1.9,2.3C42.2,33.7,41.4,34,40.7,34.3z M43.8,30.3
			c-0.5,0-0.9-0.1-1.3-0.2c0,0,0.1-0.1,0.1-0.1c1-0.8,1.9-1.5,2.9-2.3c0.3-0.2,0.6-0.4,0.9-0.6c-0.4,1.1-0.9,2.2-1.5,3.3
			C44.6,30.3,44.2,30.3,43.8,30.3z M40,38.6c-0.6,1.6-1,3.4-0.9,5.1c-1.4-2.5-1.7-5.5-1.8-8.4C38.2,36.4,39.1,37.5,40,38.6z
			 M41.9,60.8c-0.4-0.1-0.8-0.3-1.2-0.5c-0.2-0.4-0.3-0.9-0.4-1.4c-0.3-1.2-0.4-2.4-0.4-3.6c0-2.4,0.4-4.8,0.8-7.1
			c2,1.6,4.5,2.3,7,2.6c0.5,0.8,1,1.5,1.6,2.3c0,0-0.1,0-0.1,0.1c-0.7,2-1,4-0.9,6.1c0,1.1,0.1,2.2,0.4,3.3
			C46.4,62.2,44.1,61.6,41.9,60.8z M58.3,65c-1.8-0.5-3.7-1-5.6-1.4c-1.1-0.2-2.2-0.5-3.3-0.7c-0.2-1.1-0.4-2.2-0.5-3.4
			c-0.1-2,0.1-4.1,0.5-6.1c1.5,2.1,3.1,4.2,4.7,6.2c1.1,1.4,2.3,2.8,3.6,4.1c0.5,0.5,1,1.1,1.6,1.6C59,65.2,58.6,65.1,58.3,65z
			 M58.8,60.3c0.3,1.4,0.6,2.8,1.2,4.1c-0.6-0.5-1.2-1.1-1.7-1.7c-1.2-1.3-2.4-2.6-3.5-4c-0.2-0.2-0.4-0.4-0.5-0.7
			c1.1,0,2.1,0.2,3.1,0.5c0.5,0.2,0.9,0.3,1.3,0.5C58.6,59.6,58.7,60,58.8,60.3z M57.3,48c0.1,0.7,0.2,1.4,0.3,2
			c0.3,2.8,0.4,5.6,0.8,8.4c-1.3-0.6-2.9-0.7-4.3-0.7c-0.1,0-0.1,0.1-0.2,0.1c-1.8-2.3-3.6-4.6-5.5-6.9c1.7,0.1,3.5,0.1,5.2,0
			c0.4,0,0.7-0.4,0.6-0.8c-0.3-1.1-0.6-2.2-1-3.3c1.4,0.1,2.6,0.6,3.9,1.1C57.3,48,57.3,48,57.3,48z M54,40.8c2,1.9,2.8,4.3,3.3,6.9
			c-1.1-1.1-2.7-1.4-4.1-1.1c-0.3-0.9-0.7-1.8-1.1-2.7c-0.8-1.9-1.6-3.7-3.1-5.2c-0.6-0.6-1.3-1.1-2.1-1.6C49.4,38,52,38.9,54,40.8z
			 M67.9,9.8c-0.5,1.4-1,2.9-1.6,4.3c-1.2,2.9-2.4,5.8-3.8,8.6c-1.2,2.5-2.7,4.9-4.7,6.7c-1.9,1.7-4.1,2.9-6.4,3.9
			c-1.4,0.6-2.8,1-4.2,1.3c-0.7,0.2-1.5,0.3-2.2,0.4c-0.5,0.1-1,0.1-1.4,0.3c-0.4-0.2-0.8-0.3-1.3-0.5c1.3-0.5,2.4-1.7,3.2-2.9
			c0.7-1,1.3-2,1.8-3.1c0,0.1,0.1,0.1,0.2,0.2c1.7,0.3,3.4,0.6,5.2,0.6c1.4,0,3.4,0,4.5-0.9c0.1-0.1,0-0.3-0.1-0.3
			c-0.8-0.1-1.6,0.2-2.4,0.3c-0.8,0.1-1.6,0.1-2.4,0.1c-1.6,0-3.2-0.1-4.8-0.3c0,0-0.1,0-0.1,0c0.5-1.1,0.9-2.3,1-3.5
			c0-0.3-0.1-0.6-0.3-0.7c3.3-2.8,6.5-5.8,10-8.5c1.8-1.4,3.6-2.7,5.5-4c0.9-0.6,1.9-1.2,2.8-1.9c0.6-0.4,1.3-0.7,1.9-1.2
			C68.1,9.2,68,9.4,67.9,9.8z M66,9.5c-1,0.6-2,1.3-3,1.9c-2,1.3-3.9,2.7-5.7,4.2c-3.4,2.6-6.8,5.4-9.6,8.7c-0.1,0-0.2,0-0.3,0
			c-2.8,0.9-5.7,1.7-7.9,3.8c-0.5,0.5-1,1.1-1.4,1.7c-0.1-0.9-0.5-1.7-1-2.4c0.4-0.9,0.6-1.9,0.9-2.9c0.4-1.4,1-2.7,1.7-4
			c1.3-2.4,2.9-4.7,4.8-6.6c3.8-3.8,8.9-6.2,14.3-6.8c-1.4,2.1-1.3,5.3-0.9,7.6c0,0.2,0.3,0.2,0.3,0c0-1.4,0.2-2.7,0.4-4.1
			c0.2-1.1,0.6-2.3,0.6-3.4c0,0,0-0.1,0-0.1c0.3,0,0.7-0.1,1-0.1c1.6-0.1,3.3,0,4.9,0.2c0.8,0.1,1.5,0.2,2.3,0.4
			c0.6,0.1,1,0.3,1.5,0.3C67.8,8.2,66.9,8.9,66,9.5z"/>
		<path id="XMLID_8_" class="st1" d="M49.1,10.5c-1.1,1.6-1.2,3.7-1.3,5.6c0,2.2,0,4.5,0.3,6.7c0,0.2,0.4,0.2,0.4,0
			c0.1-2.1,0-4.3,0.1-6.4c0.1-2,0.4-3.9,0.7-5.8C49.4,10.4,49.2,10.3,49.1,10.5z"/>
		<path id="XMLID_7_" class="st1" d="M42.2,19.2c-0.7,1.9-0.4,4.3-0.1,6.2c0,0.3,0.5,0.2,0.4,0c-0.1-2,0.2-4.1,0-6.2
			C42.5,19.1,42.2,19.1,42.2,19.2z"/>
		<path id="XMLID_6_" class="st1" d="M63.8,18c-1.5,0-3.1,0.7-4.6,0.8c-1.5,0.2-3.1,0.2-4.7,0.1c-0.3,0-0.3,0.4,0,0.4
			c1.7,0.3,3.4,0.3,5.1,0.1c1.4-0.2,3.2-0.3,4.3-1.2C64.1,18.3,64,18,63.8,18z"/>
		<path id="XMLID_5_" class="st1" d="M41.8,33.2C41,32.9,40.2,33,39.4,33c-0.2,0-0.2,0.3,0,0.3c0.8,0.1,1.6,0.3,2.5,0.1
			C41.9,33.4,41.9,33.3,41.8,33.2z"/>
		<path id="XMLID_4_" class="st1" d="M20.3,32.6c-1.2,0.3-2.7,0.5-3.8,1.2c-0.1,0.1-0.1,0.3,0.1,0.3c1.3,0,2.6-0.6,3.9-1
			C20.7,33,20.6,32.5,20.3,32.6z"/>
		<path id="XMLID_3_" class="st1" d="M30.6,45.4c0.1,1.6,0.1,3.3,0.4,4.9c0,0.2,0.3,0.2,0.3,0c0.4-1.6,0.1-3.5-0.4-5
			C30.8,45.1,30.6,45.2,30.6,45.4z"/>
	</g>
</g>
<g id="Layer_4" class="st0">
</g>
</svg>
