<?xml version="1.0" encoding="utf-8"?>
<!-- Generator: Adobe Illustrator 19.0.0, SVG Export Plug-In . SVG Version: 6.00 Build 0)  -->
<svg version="1.1" id="Layer_1" xmlns="http://www.w3.org/2000/svg" xmlns:xlink="http://www.w3.org/1999/xlink" x="0px" y="0px"
	 viewBox="13 33 125 35" style="enable-background:new 13 33 125 35;" xml:space="preserve">
<style type="text/css">
	.st0{fill:#791915;}
	.st1{fill:#A11D21;}
	.st2{fill:#B62325;}
	.st3{fill:#DD2A26;}
	.st4{fill:#65180C;}
	.st5{clip-path:url(#SVGID_2_);}
	.st6{clip-path:url(#SVGID_4_);fill:#791915;}
	.st7{fill:#ED2F24;}
	.st8{fill:#8D1A1C;}
	.st9{fill:#FFFFFF;}
</style>
<title>14</title>
<polygon id="_x31_4" class="st0" points="27.1,48.8 28.5,48.6 27.8,67.6 27.4,67.3 27.1,48.9 "/>
<polygon class="st0" points="20.2,34.9 20.1,34.9 20.1,34.9 20.1,34.9 20.2,34.9 "/>
<path class="st0" d="M20.2,34.9L20.2,34.9c0,0.1-0.8,2.5-0.8,2.5c0,0-1.6,3.7-1.6,3.7l-2,3.9l-0.8,0.3l2.8-6.8l2.3-3.4L20.2,34.9
	L20.2,34.9L20.2,34.9z"/>
<polygon class="st1" points="17.8,47.2 31.3,40.3 27.5,33.2 20.1,34.9 17.6,47.3 "/>
<polygon class="st0" points="27.7,48.7 27.7,67.7 21.6,62.5 17.7,47 17.8,47 24.9,48.1 "/>
<polygon class="st2" points="42.2,36.8 40.9,39.4 42.4,43.1 42.9,44.2 42.8,44.1 "/>
<polygon class="st3" points="34.9,33.2 35.1,48.2 38.6,44.5 42.2,36.9 "/>
<polygon class="st4" points="15.5,59.2 17.9,46.8 21.7,62.6 "/>
<polygon class="st0" points="27.7,67.7 35.1,47.5 35.2,47.4 38.7,61.8 38.6,61.8 "/>
<polyline id="_x35_" class="st4" points="17.8,47 17.6,48.2 17.4,49.5 15.5,59.2 15.5,59.2 15.5,59.2 15.5,59.2 15.6,58.9 17,52.1 
	17.8,47.1 17.8,47 "/>
<g>
	<g>
		<defs>
			<rect id="SVGID_1_" x="13.3" y="34.9" width="6.9" height="24.3"/>
		</defs>
		<clipPath id="SVGID_2_">
			<use xlink:href="#SVGID_1_"  style="overflow:visible;"/>
		</clipPath>
		<g class="st5">
			<defs>
				<rect id="SVGID_3_" x="13.3" y="34.9" width="6.9" height="24.3"/>
			</defs>
			<clipPath id="SVGID_4_">
				<use xlink:href="#SVGID_3_"  style="overflow:visible;"/>
			</clipPath>
			<polygon class="st6" points="20.1,34.9 15.5,59.2 13.3,49.3 			"/>
		</g>
	</g>
</g>
<polygon id="_x31_" class="st2" points="31.1,40.2 31.3,40.1 32.6,42.7 32.6,42.8 32.5,42.9 "/>
<polygon id="_x31_2" class="st2" points="34.8,33.2 31.5,35.3 35,37.2 34.9,33.3 "/>
<polygon class="st7" points="34.9,37 35.1,47.7 31.2,40.3 27.5,33.1 "/>
<polygon class="st2" points="34.9,33.1 34.9,37 31.6,35.2 "/>
<polygon class="st3" points="38.6,44.3 35.1,47.7 34.9,33.1 42.2,36.8 "/>
<polygon id="_x32_" class="st2" points="38.7,44.2 38.6,44.3 45.7,51.5 45.7,51.5 "/>
<polygon class="st8" points="32.6,42.8 35.1,47.7 27.7,67.7 27.7,48.7 "/>
<polygon class="st4" points="17.8,47.1 21.7,62.6 15.5,59.2 "/>
<polygon id="_x33_" class="st8" points="27.7,48.8 27.7,48.6 32.6,42.8 35.2,47.7 35.1,47.7 "/>
<polygon class="st2" points="17.8,47.1 31.2,40.2 32.6,42.8 27.7,48.7 "/>
<polygon id="_x31_3" class="st2" points="38.7,44.2 45.7,51.4 45.7,51.5 45.7,51.5 38.5,44.6 38.6,44.3 "/>
<polygon id="_x39_" class="st7" points="45.7,51.5 41,39.4 38.6,44.3 "/>
<polygon id="_x31_0" class="st2" points="38.6,44.3 38.6,44.3 38.5,44.4 35.1,47.7 38.6,61.9 45.7,51.5 "/>
<polygon id="_x31_1" class="st0" points="27.7,67.7 38.6,61.9 35.1,47.7 "/>
<polygon class="st2" points="42.2,36.8 42.9,44.2 41,39.4 "/>
<polygon class="st8" points="14.7,46.7 13.3,39.6 20.1,34.9 "/>
<polygon class="st0" points="17.8,47.1 27.7,48.7 27.7,67.7 21.7,62.6 "/>
<polygon class="st1" points="27.5,33.1 20.1,34.9 17.8,47.1 31.2,40.2 "/>
<g>
	<path class="st9" d="M60.5,61.4h-1.7v-7.5c0-1.6-1.3-3-3-3h-2.1v10.5h-1.7V38.8h3.9c2.6,0,4.7,2.1,4.7,4.7v2.8c0,1.6-0.8,3-2,3.8
		c1.2,0.9,2,2.2,2,3.8V61.4z M55.8,49.2c1.6,0,3-1.3,3-3v-2.8c0-1.6-1.3-3-3-3h-2.1v8.7H55.8z"/>
	<path class="st9" d="M65.2,40.5v8.7h4.1V51h-4.1v8.7h5.8v1.7h-7.5V38.8h7.2v1.7H65.2z"/>
	<path class="st9" d="M82,56.7c0,2.6-2.1,4.7-4.7,4.7h-4V38.8h4c2.6,0,4.7,2.1,4.7,4.7V56.7z M80.3,43.5c0-1.6-1.3-3-3-3h-2.3v19.1
		h2.3c1.6,0,3-1.3,3-3V43.5z"/>
	<path class="st9" d="M85.6,47.1c0,0-1-1.2-1-2.8v-1.5c0-2.4,1.9-4.4,4.4-4.4c2.4,0,4.4,1.9,4.4,4.4v2.8l-1.7,0.2v-3
		c0-1.4-1.2-2.6-2.6-2.6c-1.4,0-2.6,1.2-2.6,2.6v1.5c0,1,0.6,1.7,0.6,1.7l5.3,6.3c0,0,1,1.2,1,2.9v2.2c0,2.4-1.9,4.4-4.4,4.4
		c-2.4,0-4.4-1.9-4.4-4.4v-3.3l1.7-0.2v3.5c0,1.4,1.2,2.6,2.6,2.6c1.4,0,2.6-1.2,2.6-2.6v-2.2c0-1-0.6-1.7-0.6-1.7L85.6,47.1z"/>
	<path class="st9" d="M103.2,40.5H100v20.9h-1.8V40.5h-3.2v-1.7h8V40.5z"/>
	<path class="st9" d="M105.3,42.8c0-2.4,1.9-4.4,4.4-4.4c2.4,0,4.4,1.9,4.4,4.4v14.6c0,2.4-1.9,4.4-4.4,4.4c-2.4,0-4.4-1.9-4.4-4.4
		V42.8z M107.1,57.4c0,1.4,1.2,2.6,2.6,2.6c1.4,0,2.6-1.2,2.6-2.6V42.8c0-1.4-1.2-2.6-2.6-2.6c-1.4,0-2.6,1.2-2.6,2.6V57.4z"/>
	<path class="st9" d="M117.2,38.8h2.1l5.3,17.2h0.1V38.8h1.7v22.6h-1.7L119,43.3H119v18.1h-1.7V38.8z"/>
	<path class="st9" d="M131.6,40.5v8.7h4.1V51h-4.1v8.7h5.8v1.7h-7.5V38.8h7.2v1.7H131.6z"/>
</g>
<path class="st2" d="M31,40"/>
<path class="st0" d="M33.9,56.7"/>
</svg>
