<?xml version="1.0" encoding="utf-8"?>
<!-- Generator: Adobe Illustrator 19.0.0, SVG Export Plug-In . SVG Version: 6.00 Build 0)  -->
<svg version="1.1" xmlns="http://www.w3.org/2000/svg" xmlns:xlink="http://www.w3.org/1999/xlink" x="0px" y="0px"
	 viewBox="0 0 144.3 130" style="enable-background:new 0 0 144.3 130;" xml:space="preserve">
<style type="text/css">
	.st0{display:none;}
	.st1{fill:#FFFFFF;}
</style>
<g id="Layer_1" class="st0">
</g>
<g id="Layer_4">
	<path id="XMLID_182_" class="st1" d="M29.2,68.3c-0.9-1.1-2-1.8-3.2-2.3c-0.7-0.3-1.7-0.2-2.5-0.2c-2.1,0.1-4.3,0-6.4-0.3
		c-1.6-0.2-3.2-0.2-4.7-0.3c-0.4,0-0.6,0-0.3-0.5c0.1-0.2,0-0.2-0.1-0.3c-0.1-0.1-0.3-0.2-0.4-0.3c-0.6-0.3-0.7-0.7-0.8-1.3
		c-0.4-1.8-0.1-3.5,0.1-5.2c0.4-4.3,0.8-8.5,1.2-12.8c0.2-2.3,0.2-4.6,0.4-6.9c0-0.2,0-0.4,0.1-0.5c0.1-0.3,0-0.5-0.4-0.3
		c0-0.2,0-0.3,0.1-0.4c0.2-0.3,0.4-0.6,0.4-0.9c0.1-1.5,0.3-2.9,0.3-4.4c0-1.3,0.2-2.7,0.2-4c0-0.8,0.4-1.3,1.1-1.4
		c1.7-0.3,3.5-0.1,5.2,0c3,0.2,6,0.4,9,0.5c2,0,4.1,0.1,6.1,0.2c3.7,0,7.4,0.3,11.2,0.6c1.5,0.1,3,0.3,4.5,0.5
		c0.5,0,0.9,0.3,1.4,0.2c0.3,0,0.6,0.6,0.5,0.9C52,29.3,52,29.9,52,30.5c0.6-0.7,1.1-1.4,1.5-2c2-2.5,4-5.1,6.1-7.5
		c0.1-0.1,0.2-0.2,0.4-0.2c0.8-0.1,1.1-0.8,1.6-1.3c0.1-0.1,0.1-0.3,0-0.4c-0.7-1-1.4-2-1.9-3.2c0,0,0-0.1-0.1-0.1
		c-1.1-0.7-1-2-1.8-2.9c-0.3-0.3-0.5-0.7-1-0.8c-0.7-0.1-1.2-1.4-1-2c0.5-1.5,1.2-3,1.9-4.4c0.4-0.8,1.1-1.4,1.7-2.1
		c1-1.1,2-2.3,3.5-2.7c1.3-0.4,2.6-0.7,3.9-0.8c1.8-0.1,3.6-0.2,5.4,0.3c2,0.5,3.9,1.3,5.2,2.9c0.3,0.3,0.6,0.6,1,0.8
		c1.2,0.7,2,1.8,2.3,3.2c0.1,0.4,0.1,0.7,0.1,1.1c0,0.1-0.1,0.3,0.2,0.3c0.3,0,0.4,0.4,0.4,0.7c0.1,0.4,0.2,0.7,0.2,1.1
		c0.1,0.8,0.5,1.6,0.4,2.5c0,0.6-0.6,1.2-1.2,1.1c-0.5-0.1-1-0.1-1.5-0.4c-0.6-0.3-0.8-0.1-0.9,0.5c-0.1,1.8-0.2,3.6-0.8,5.3
		c-0.2,0.7-0.6,1.2-0.7,2c0,0.2-0.3,0.3-0.4,0.3c-0.4,0.1-0.9,0.2-1.4,0.2c-0.3,0-0.5,0.2-0.5,0.4c-0.1,1-0.8,1.2-1.6,1.4
		c-0.6,0.1-1.2,0.3-1.9,0.3c-0.3,0-0.4,0.1-0.2,0.4c0.5,0.8,0.9,1.7,1,2.6c0.1,0.5,0.4,0.9,0.7,1.4c0.9,1.7,1.1,3.6,1,5.5
		c-0.1,0.8-0.1,1.6-0.2,2.4c-0.2,1,0.4,1.8,0.9,2.6c0.7,1.3,1.3,2.6,1.9,4c0.2,0.5,0.4,0.5,0.8,0.4c0.9-0.2,1.9-0.2,2.8-0.1
		c0.3,0,0.6,0.2,0.7,0.5c0.1,0.8,0.6,0.8,1.3,0.9c1.1,0.1,2.1,0,3.1-0.4c0.6-0.2,1.2-0.5,1.8-0.7c0.8-0.3,1.7-0.4,2.5-0.3
		c0.3,0.1,0.6,0.1,0.9,0.1c0.3,0,0.4-0.1,0.2-0.4c-0.5-1-1-2-1.7-2.8c-0.5-0.5-0.9-1-1.4-1.6c-0.8-0.9-1.5-1.9-2.1-2.9
		c-0.2-0.4-0.5-0.5-0.9-0.4c-0.2,0.1-0.5,0.1-0.8,0.1c-0.3,0-0.7-0.1-0.7,0.5c0,0.3-0.3,0.1-0.4,0c-0.4-0.3-0.7-0.6-0.9-1
		c-0.6-0.9-0.8-1.9-1-2.9c-0.3-1.2-0.1-2.2,0.5-3.2c0.7-1.3,2.4-2,3.8-1.7c1.4,0.3,2,1.2,2.1,2.5c0.1,1-0.1,1.9-0.2,2.9
		c-0.1,0.5,0.1,0.9,0.3,1.3c0.6,1.1,1.5,2,2.2,3c0.5,0.7,1.1,1.3,1.7,2c0.8,1.1,1.8,2.1,2.4,3.4c0.1,0.2,0.2,0.5,0.2,0.8
		c-0.1,0.3,0.1,0.5,0.4,0.4c1.2,0,2.4,0,3.5,0.1c0.9,0.1,1.7,0.8,1.8,1.8c0,0.3-0.1,0.7,0.3,0.7c0.3,0,0.2-0.4,0.2-0.6
		c-0.1-1.1,0.1-2.2,0.1-3.3c0-0.9-0.1-1.8-0.8-2.6c-0.2-0.3-0.4-0.4-0.7,0c-0.2,0.3-0.4,0.5-0.6,0.8c-0.2,0.2-0.5,0.3-0.7,0.1
		c-1-0.4-1.7-1.1-1.9-2.1c-0.3-1.2,0.1-2.4,0.4-3.5c0.2-0.7,0.4-1.4,0.7-2.2c0.5-1.4,1.6-1.4,2.7-0.6c0.4,0.3,0.5,0.9,0.5,1.3
		c0,0.9,0.3,1.9,0,2.8c-0.1,0.2,0.1,0.3,0.2,0.4c0.9,0.9,1.7,1.9,2.3,3c0.3,0.4,0.3,0.9,0.3,1.4c0,1.5-0.1,2.9-0.1,4.4
		c0,0.4,0,0.6,0.4,0.7c0.4,0.1,0.5,0.4,0.7,0.6c0.5,0.9,1.1,1.7,1.7,2.5c0.5,0.7,0.8,1.5,1,2.3c0.1,0.5-0.2,1-0.4,1.5
		c-0.1,0.2-0.2,0.4,0.1,0.5c0.4,0.2,0.7,0.4,0.9,0.8c0.5,0.8,1.3,0.8,2.1,1c1.4,0.3,2.8,0.8,3.7,1.8c0.7,0.7,1.3,0.7,2.1,0.8
		c1,0.1,2.1,0.2,3.1,0.5c0.2,0,0.5-0.1,0.5,0.2c0,0.3,0.1,0.7-0.2,0.9c-0.3,0.2-0.5,0.4-0.8,0.7c-0.3,0.2-0.4,0.5-0.1,0.8
		c0.8,1.3,1.3,2.7,1.7,4.2c0.1,0.3,0.2,0.6,0.4,0.8c0.4,0.5,0.4,1.2,0.2,1.8c-0.1,0.3-0.1,0.6,0,0.8c1,2.1,1.8,4.4,2.8,6.6
		c0.7,1.5,1.2,3.1,1.6,4.7c0.3,1.3,0.6,2.7,0.3,4.1c0,0.2,0,0.4,0.2,0.5c2,0.7,3.7,1.8,5.5,2.9c0.7,0.4,1.3,0.8,1.9,1.2
		c0.6,0.3,1.1,0.9,1.7,1.3c1.4,1,2.8,2.1,4.1,3.2c1.1,0.9,2.1,1.8,2.8,3c0.4,0.6,0.6,1.3,0.9,2c0.1,0.4-0.2,0.5-0.5,0.6
		c-0.4,0.2-0.8,0.3-1.2,0.5c-0.2,0.1-0.4,0.2-0.1,0.5c1,0.8,1.6,2,2.4,3.1c1.2,1.5,1.6,3.3,2,5.1c0.3,1.3,0.2,2.5,0.1,3.8
		c-0.1,2.4-1.1,4.6-2,6.8c-0.2,0.4-0.4,0.7-0.6,1c-0.8,1.1-1.6,2.3-2.5,3.3c-1.5,1.7-3.3,2.9-5.4,3.9c-1,0.4-2,0.6-3.1,1
		c-1.4,0.4-2.7,1.1-4.1,1.4c-0.7,0.2-1.4,0.1-2.1,0.2c-2,0.1-4-0.1-5.9-1c-2.1-0.9-4-2.2-5.7-3.8c-1.5-1.5-2.8-3.3-3.9-5.1
		c-1-1.5-1.7-3.2-2.2-5c-0.1-0.4-0.1-0.8-0.2-1.1c0-0.1,0-0.2-0.1-0.3c-0.1-0.1-0.2,0.1-0.3,0.2c-0.5,0.6-1,1.2-1.6,1.7
		c-0.6,0.5-1.3,0.9-2,1.2c-0.3,0.2-0.6,0.2-1,0.1c-0.5-0.1-1,0-1.5,0.1c-1.8,0.3-3.7,0.3-5.5,0.2c-3.4-0.2-6.8-0.4-10.2-0.3
		c-2.4,0.1-4.9,0-7.3,0.5c-3.1,0.5-6.1,0.8-9.2,1.1c-2.1,0.2-4.1-0.4-5.3-2.5c-0.3-0.6-0.7-0.6-1.3-0.5c-2.9,0.7-5.8,1.4-8.8,1.9
		c-2.3,0.4-4.6,0.8-7,1c-0.6,0-1.2,0.2-1.8,0.2c-0.3,0-0.4,0.3-0.6,0.5c-0.8,1.1-1.5,2.2-2.2,3.3c-1.2,2-2.9,3.6-4.8,5
		c-1,0.8-2.1,1.5-3.4,1.8c-1.9,0.5-3.7,1.1-5.6,1.3c-1.5,0.2-3,0.1-4.5,0c-3.5-0.4-6.5-1.9-9.3-3.9c-1.7-1.2-2.9-2.7-4.2-4.2
		c-1.9-2.2-2.8-4.9-3.3-7.7c-0.3-1.9-0.4-3.7-0.1-5.6c0.1-0.8,0.4-1.6,0.8-2.3c0.6-1,0.9-2.1,1.4-3.2c0.3-0.5,0.7-1,1-1.6
		c0.1-0.1,0.3-0.2,0.2-0.4C9,100.9,8.8,101,8.7,101c-0.8,0-1.7,0-2.5-0.1c-1.4-0.3-2.8-0.5-4.1-0.7c-0.6-0.1-1-0.7-0.9-1.4
		c0.1-0.7,0.2-1.4,0.7-2c0.7-0.9,1.1-2.1,1.7-3.1c1.3-2.2,2.6-4.3,3.9-6.5c1-1.8,2.2-3.6,3.2-5.5c0.3-0.6,0.9-1,1.2-1.5
		c0.5-0.7,0.9-1.5,1.4-2.3c0.8-1.2,1.8-2.2,2.6-3.3c0.9-1.2,1.9-2.1,3-3c0.5-0.4,0.7-0.9,0.9-1.5c0.3-0.9,0.9-1.5,1.8-1.8
		c1.1-0.5,2.3-0.8,3.5-1c0.6-0.1,1.6,0.3,1.9,0.8c0.2,0.4,0.5,0.6,1,0.5c0.3-0.1,0.6,0,0.9-0.1C29,68.3,29.1,68.3,29.2,68.3z
		 M70.5,14.5c0.1-0.2,0.2-0.2,0.4-0.1c0.2,0.1,0.2-0.1,0.2-0.2c0-0.1,0-0.2-0.1-0.1c-0.2,0.2-0.4,0.1-0.6,0.2
		C70.2,14.5,70.5,14.4,70.5,14.5c-0.1,0.2-0.3,0.3-0.3,0.6c0,0.1,0,0.3,0.1,0.4c0,0.1,0.1,0.1,0.2,0c0.1-0.1,0.2-0.2,0.2-0.4
		C70.6,14.9,70.5,14.7,70.5,14.5z M17.2,63.3c-0.6-0.4-1.2-0.3-1.8-0.3c-0.1,0-0.2,0-0.3,0.1c0,0.1,0.1,0.2,0.2,0.2
		c0.2,0.1,0.4,0.3,0.5,0.5c0.2,0.3,0.4,0.4,0.8,0.4c1.4,0.2,2.8,0,4.2,0.2c1.4,0.1,2.8,0.1,4.2,0.2c0.3,0,0.7,0.1,1.1-0.2
		c-0.7-0.3-0.9-1.1-1.8-1.1c-0.7,0-1.4-0.3-2.1-0.1l1.1,1c-0.5,0-0.6,0-0.7-0.1c-0.7-0.9-1.8-1.2-2.9-1.1c-0.4,0-0.4,0.2-0.2,0.4
		c0.2,0.2,0.4,0.5,0.6,0.7c-0.5-0.1-0.5-0.1-0.8-0.4C18.6,63.2,17.6,62.7,17.2,63.3L17.2,63.3z M94.9,46.1L94.9,46.1
		c-0.2-0.2-0.6-0.2-0.6-0.7c-0.9,1.1-1.9,1.9-2.6,3.1c1.7-0.1,3.2-0.1,4.8-0.3c0.7-0.1,1.4-0.1,2.1-0.2c0.2,0,0.6,0,0.5-0.3
		c-0.1-0.4-0.1-0.8-0.3-1.2c-0.1-0.2-0.2-0.3-0.1-0.6c0.2-0.3-0.1-1.1-0.4-1.1c-0.6-0.1-1.1-0.6-1.8-0.2c-0.2,0.1-0.5,0.1-0.5,0.3
		c0,0.3,0.2,0.7,0.5,0.7c0.7,0,0.8,0.6,1.1,1c0.1,0.2,0,0.3-0.2,0.4c-0.2,0.1-0.3,0.1-0.3-0.1c-0.1-0.3-0.3-0.2-0.4-0.1
		c-0.2,0.2-0.4,0.4-0.4,0.7c-0.2-0.1-0.4-0.2-0.6-0.2c-0.6,0-0.5-0.4-0.3-0.8c0.1-0.2,0.4-0.4,0.2-0.6
		C95.4,45.8,95.2,46.1,94.9,46.1z M34.2,73c-0.9-0.7-1.2-1.8-1.8-2.7c-0.1-0.3-0.1-0.7-0.3-0.9c-0.2-0.2-0.6-0.1-1-0.1l-0.4,0
		c-1.1-0.1-2.2-0.1-3.3,0.1c-0.2,0-0.5,0.1-0.2,0.3c0.5,0.4,0.9,1,1.4,1.5c0.8,0.8,1.5,1.7,2.4,2.4c0.2,0.2,0.3,0.3,0.4,0.6
		c0.2,0.4,0.4,0.4,0.6,0.1c0.2-0.2,0.3-0.3,0.6-0.2c0.4,0.1,0.5-0.3,0.7-0.6C33.6,73.2,34.1,73.5,34.2,73l0.1,0.2
		c0.2,0.2,0.4,0.4,0.7,0.2s0-0.4,0-0.6c-0.4-0.9-0.9-1.9-1.8-2.5C33,70.2,33,69.9,32.9,70s-0.1,0.3-0.1,0.4c0.1,0.2,0.2,0.3,0.2,0.5
		C33.4,71.6,33.9,72.2,34.2,73z M50.6,111.2L50.6,111.2c-0.3-0.4-1-0.3-1.2,0.2c-0.3,0.5-0.4,1-0.7,1.5c-0.6,1-1.1,2.1-1.7,3.1
		c-0.2,0.3-0.1,0.4,0.2,0.3c0.4,0,0.7-0.1,1.1-0.2c3.3-0.4,6.6-1.2,9.9-1.9c1.4-0.3,2.7-0.8,4.2-0.8c0.2,0,0.3-0.1,0.2-0.4
		c-0.2-0.2-0.3-0.4-0.4-0.7c-0.4-1-1.2-1.8-1.8-2.8c-0.5-1-1.2-1.9-1.9-2.7c-0.4-0.4-0.5-0.9-1.3-0.9c-1.1,0-2.1-0.1-3.2-0.2
		c-2.3-0.1-4.6-0.4-6.9-0.6c-0.2,0-0.3,0-0.5,0c-0.3,0.2-0.7,0.2-1.1,0.2c-1,0-2,0-3,0c-0.7,0-1.4,0-2.1,0c0.1,0.2,0.3,0.3,0.5,0.4
		c2.1,1.5,4.3,2.9,6.2,4.7c0.6,0.6,0.6,0.6,1.3,0.1c0.1-0.1,0.2-0.2,0.4-0.2c0.3-0.1,0.2-0.3,0-0.4c-1.2-0.9-2.4-1.8-3.6-2.6
		c-0.7-0.5-1.5-0.9-2.3-1c-0.4,0-0.3-0.2-0.3-0.4c0-0.3,0.3-0.1,0.4-0.1c0.9,0.2,1.7,0.4,2.6,0.6c3.7,0.5,7.3,1.2,10.9,2.4
		c1.4,0.4,2.6,1.3,2.4,3.2c-0.1,0.6,0,1.1,0.8,1.2c0.1,0,0.1,0.1,0.2,0.1c-0.2,0.2-0.4,0.1-0.6,0.1c-0.6-0.1-1.3-0.2-1.9,0.2
		c-1,0.6-2,1.1-3.2,0.8c-0.4-0.1-1.4-0.7-1.3-1.1c0.1-0.6-0.4-0.5-0.6-0.7c-0.3-0.2-0.4-0.1-0.5,0.1c-0.4,0.7-0.7,1.5-1.1,2.2
		c-0.1,0.2-0.2,0.5-0.6,0.5c0-0.2,0.1-0.3,0.2-0.5c0.4-0.9,0.8-1.8,1.2-2.6c0.3-0.5,0.1-0.7-0.2-1C50.9,111.3,50.7,111.3,50.6,111.2
		z M68.5,20.9c0.1,0.4,0.2,0.8,0.5,1.1c0.1,0.1,0.2,0.2,0.3,0C69.4,21.7,68.8,20.9,68.5,20.9c0.1-0.3-0.1-0.5-0.1-0.8
		c0-0.1-0.1-0.3,0-0.4c0.2-0.1,0.2,0.1,0.3,0.2c0.3,0.7,0.8,1.4,1.1,2.2c0.1,0.4,0.5,0.7,0.9,0.8c0.5,0.1,1.1,0.2,1.6,0.3
		c0.7,0.1,1.2-0.4,1.7-0.7c0.4-0.2,0.1-0.6,0.2-0.9c0.1-0.2,0.1-0.3-0.2-0.4c-0.5-0.1-0.8-0.5-1-0.9c-0.2-0.4-0.5-0.9-0.8-1.2
		c-0.5-0.6-1-1.2-1.3-1.9c-0.2-0.4-0.3-0.9-0.8-1.1c-0.2-0.1-0.4-0.2-0.4-0.5c0-0.1,0-0.3-0.2-0.3c-0.2,0-0.2,0.2-0.3,0.3
		c0,0.1,0,0.2-0.2,0.3c0-0.4-0.1-0.7-0.5-0.7c-0.1,0-0.2-0.2-0.3-0.3c-0.9-0.8-1.7-1.8-2.9-2.3c-1-0.4-1.9-0.9-3-1.2
		c-1-0.3-2.1-0.6-3.2-0.4c-0.3,0.1-0.7,0.1-0.8,0.5s-0.3,1,0.4,1.1c0.1,0,0.1,0.2,0.2,0.3c0.4,0.9,0.6,1.8,1.2,2.6
		c0.5,0.7,1.2,1.3,1.7,2c0.3,0.4,0.8,0.7,0.9,1.2c0.1,0.3,0.2,0.4,0.5,0.4c1,0.3,1.9,0.8,2.6,1.5c0.5,0.5,1.2,0.8,1.7,1.2
		c0.1,0.1,0.2,0.1,0.4,0.1c0.1,0,0.1-0.1,0.1-0.2c0,0,0,0,0,0c-0.3-0.4,0.1-0.7,0-1.2C68.3,20.7,68.4,20.8,68.5,20.9z M119.6,104.4
		c-0.7,0-1.1,0.4-1.6,0.7c-1,0.5-2,1-3.1,1.5c-0.2,0.1-0.6-0.1-0.7,0c-0.3,0.4-0.8,0.6-1.2,0.8c-0.2,0.1-0.3,0.1-0.3,0.4
		c0.1,0.8,0,1.7,0.1,2.5c0.6,3.4,2.4,6.1,5.2,8.3c0.8,0.6,1.6,1.3,2.6,1.6c0.3,0.1,0.5,0.2,0.8,0.3c0.3,0.1,0.6,0.2,0.9,0.2
		c1.1-0.1,2.3-0.3,3.4-0.5c2.1-0.2,4-0.9,5.2-2.9c1.8-2.9,2.6-5.9,1.9-9.3c-0.3-1.6-1-3-1.9-4.3c-0.3-0.5-0.7-0.9-1-1.4
		c-0.4-0.7-0.6-1.5-1.7-1.3c-0.2,0-0.4,0-0.6-0.1c1.3-0.6,2.7-0.6,4-0.8c2.5-0.4,4.7-1.3,7-2.2c0.2-0.1,0.5-0.2,0.7-0.1
		c0.2,0,0.4,0,0.5-0.2c0.1-0.2,0-0.4-0.1-0.6c-0.8-1.1-1.7-2.2-2.7-3.1c-2-1.9-4.3-3.4-6.6-4.9c-2.1-1.4-4.3-2.6-6.7-3.3
		c-0.3-0.1-0.4-0.1-0.5,0.2c-0.2,0.6-0.5,1.1-0.8,1.7c-0.1,0.2-0.2,0.4-0.5,0.4c-0.4,0-0.5,0.2-0.6,0.5c-0.8,1.7-1.9,3.3-2.8,5
		c-0.4,0.9-1.1,1.6-1.5,2.4c-0.8,1.5-1.7,2.9-2.7,4.2c-0.4,0.5-0.6,1-0.9,1.6c0.4-0.3,0.9-0.4,1.4-0.4c1.4,0.1,2.8,0.1,4.1,0
		c2.4-0.2,4.7-0.4,7.1-0.5c0.1,0,0.4-0.3,0.4,0.1c0.1,0.3-0.2,0.4-0.4,0.4c-0.6,0-1.1,0.1-1.7,0.1c-0.4,0-0.5,0.2-0.3,0.5
		c0.5,1,0.9,1.9,1.4,2.9c0.5,1,1,2,1.5,3c0.6,1.2,0.9,2.5,1.9,3.5c0.1,0.1,0.1,0.3,0,0.4c-0.4,0.6-0.8,1.2-1.5,1.3
		c-1.1,0.2-2.2,0.5-3.2-0.3c-0.2-0.2-0.4-0.2-0.4,0.3c-0.6-1.2-1-2.3-1.4-3.4c-0.5-1.3-1.2-2.5-1.8-3.7c-0.1-0.2-0.5-0.1-0.4-0.3
		c0.1-0.7-0.2-0.7-0.8-0.6C119.3,104.8,119.6,104.7,119.6,104.4c0.4-0.2,0.8-0.2,1.2-0.6C120.2,103.8,119.8,104,119.6,104.4z
		 M102.9,102.3c0.1,0,0.2,0.2,0.2,0.3c0.6,1.4,1.2,2.8,1.7,4.2c0.1,0.2,0.1,0.3,0.4,0.3c0.9-0.1,1.1-0.9,1.6-1.4
		c0.2-0.3,0.1-0.4-0.2-0.5c0-0.1,0-0.1,0.1-0.2c1.3-2.2,2.5-4.5,3.8-6.6c1.2-2,2.5-4,3.7-6c0.8-1.3,1.6-2.6,2.5-3.8
		c0.6-0.8,1.1-1.6,1.4-2.5c0.2-0.6,0-1.7-0.4-1.9c-0.3-0.1-0.2-0.2-0.2-0.4c0.1-0.8-0.2-1.6-0.4-2.4c0-0.1-0.1-0.4-0.3-0.4
		s-0.2,0.3-0.2,0.5c0,0.6,0,1.3-0.1,1.9c0,0.4-0.1,0.8-0.1,1.2c-0.1,0.4-0.1,0.8-0.2,1.2c-0.1,0.4-0.1,0.8-0.4,1.2
		c0.3-1.8,0.5-3.6,0.6-5.4c0-0.2-0.1-0.5,0.1-0.7c0.4-0.5,0.1-0.9-0.1-1.4c-0.2-0.3-0.3-0.5-0.4-0.8c-0.1-0.3-0.2-0.6-0.4-0.6
		c-0.3,0-0.2,0.4-0.2,0.7c0,0,0,0-0.1,0.1c-0.1-0.3-0.1-0.6-0.1-0.8c0.1-0.9-0.3-1.7-0.6-2.4c-0.1-0.1-0.2-0.3-0.3-0.2
		c-0.4,0.2-0.4-0.1-0.3-0.3c0.1-0.6-0.1-1-0.4-1.5c-0.1-0.1-0.1-0.2-0.2-0.1s-0.1,0.1-0.1,0.2c0,0.3-0.1,0.6-0.1,0.9
		c-0.1-0.4-0.1-0.7-0.1-1.1c0.1-0.8-0.2-1.4-0.7-2c-0.1-0.1-0.1-0.2-0.3-0.2s-0.1,0.1-0.1,0.3c0,0.3,0,0.6,0,0.9
		c0,0.4-0.1,0.9-0.1,1.3c-0.1-0.5-0.2-1-0.1-1.4c0-0.4-0.1-0.8,0.1-1.1c0.2-0.4,0.1-0.6-0.1-0.9c-0.6-1-1.2-1.9-1.7-2.9
		c-0.1-0.1-0.2-0.4-0.4-0.3c-0.2,0.1-0.2,0.3-0.2,0.5c0,0.3,0,0.6,0,1l-0.2,0c0-0.5,0-1,0-1.5c0-0.4-0.1-0.7-0.3-1
		c-0.3-0.4-0.6-0.8-0.9-1.2c-0.2-0.3-0.3-0.2-0.5,0.1c-0.1,0.3-0.1,0.7-0.1,1c-0.1,1.8-0.4,3.7-0.6,5.5c-0.4,2.5-0.8,5.1-1.1,7.6
		c-0.2,1.6-0.6,3.2-0.7,4.7c-0.1,1-0.2,2-0.5,2.9c0.1-0.3,0-0.6,0.1-1c0.2-1.5,0.4-3,0.6-4.5c0.3-2.2,0.6-4.4,1-6.6
		c0.4-2.5,0.8-5,1.1-7.6c0.1-0.9-0.1-1.9,0.3-2.8c0,0,0-0.1-0.1-0.2c-0.1-0.1-1-0.3-1.1-0.2c-0.2,0.4-0.7,0.5-0.7,1.1
		c0,0.5-0.1,1-0.1,1.4c-0.1,2.1-0.4,4.1-0.9,6.1c0.2-1.7,0.5-3.4,0.6-5.1c0.1-1.2,0.1-2.4,0.3-3.5c0-0.2,0.1-0.4-0.1-0.5
		c-0.7-0.3-1.3-0.7-2.1-0.6c-0.6,0.1-1.2,0.1-1.8,0.1c-1.3,0.1-1.3,0.1-1.4,1.4c-0.2,2-0.3,4.1-0.9,6.1c0,0.1,0,0.2,0,0.4
		c0.7,1.4,1.4,2.7,2.1,4.1c0.3,0.7,0.9,1.1,1,1.9c0.3,2-0.2,3.8-0.6,5.7c-0.1,0.5-0.1,1-0.3,1.5c-0.4,0.9-0.3,1.8-0.6,2.8
		c0,0.1,0,0.2,0.1,0.2c0.8,1,1.1,2.2,1.7,3.2c0,0.1,0.1,0.1,0,0.2c-0.1,0.1-0.2,0.1-0.2,0c0,0,0,0,0,0c-0.2-0.2-0.4-0.4-0.5-0.7
		c-0.4-0.7-0.6-1.5-1.1-2.1c-0.5,0.6-0.5,0.9-0.1,1.5c1.2,1.8,2.2,3.6,3.1,5.5c0.2,0.4,0.4,0.8,0.6,1.3c-0.4-0.2-0.6-0.5-0.7-0.8
		c-0.8-1.7-1.8-3.4-2.9-4.9c-0.2-0.2-0.2-0.7-0.5-0.7c-0.4,0-0.2,0.5-0.3,0.7c-0.1,0.2-0.1,0.3-0.2,0.5c-0.1,0.3-0.1,0.6,0.1,0.7
		c0.6,0.6,0.8,1.3,1.2,2c0.5,0.8,0.9,1.7,1.3,2.6c0.7,1.6,1.3,3.2,1.9,4.8c0.1,0.3,0.4,0.6,0.4,1c-0.4-0.5-0.6-1.1-0.8-1.6
		c-0.9-2.3-1.9-4.5-3.1-6.7c-0.3-0.5-0.6-1-0.9-1.5c-0.1-0.3-0.3-0.2-0.4,0c-0.8,1.2-1.1,2.6-1.4,4c0,0.1,0,0.1,0.1,0.2
		c0.5,0.6,0.6,0.6,1.3,0.3c0,0,0.1,0,0.1,0.1c0,0.1-0.1,0.2-0.1,0.2c-0.2,0.4-0.4,0.8-0.1,1.3c0.3,0.5,0.5,1,0.8,1.5
		c0.7,1.5,1.4,3.1,1.9,4.7c0.1,0.2,0.4,0.5,0.1,0.6c-0.2,0.1-0.3-0.3-0.4-0.5c-0.8-2-1.6-4-2.6-5.9c-0.1-0.2-0.1-0.6-0.5-0.4
		c-0.4,0.2-0.7,0.6-0.5,0.9c0.8,1.4,1.2,2.9,1.7,4.5c0.3,1,0.7,1.7,1.9,1.7c0.9,0.1,1.7,0.4,2.6,0.8c0.1,0.1,0.3,0.1,0.4,0
		c-0.3-0.7-0.6-1.3-0.8-2C103.3,103.7,103,103,102.9,102.3L102.9,102.3z M29.7,108.3L29.7,108.3c-0.6-0.6-1.2-1-2.1-0.8
		c-0.5,0.1-1,0.2-1.5,0.2c-2.8,0.3-5.7,0.4-8.6,0.6c-0.4,0-0.6,0.2-0.6,0.6c-0.1,0.8-0.1,1.7,0,2.5c0.2,1.1,0.4,2.3,1.2,3.2
		c0.7,0.8,1.5,1.6,2.1,2.5c0.6,0.8,1.4,1.6,2.3,2.1l0,0c0.2,0.2,0.4,0.4,0.7,0.5c1.8,0.8,3.6,0.8,5.5,0.3c0.5-0.1,1.2-0.2,1.5-0.7
		c0.2-0.3,0.5-0.6,0.8-0.8c0.3-0.2,0.5-0.4,0.9-0.7c-1.6,0-3,0.3-4.4,0c0-0.1,0.1-0.1,0.1-0.1c1.5-0.1,3-0.2,4.5-0.3
		c0.4,0,0.8-0.2,1.1-0.4c0.1-0.1,0.2-0.3,0.2-0.4c-0.1-0.2-0.2-0.1-0.4-0.1c-1.4-0.3-2.9-0.2-4.3-0.7c-0.8-0.2-1.6-0.2-2.2-0.8
		c-0.2-0.1-0.3-0.3-0.1-0.4c0.3-0.2,0.2-0.4,0.2-0.7c0-0.6,0.3-1.2,0.5-1.9c-1.1-0.2-2.2,0-3.4,0.1c0.1-0.3,0.3-0.3,0.5-0.4
		c1.1-0.2,2.2-0.3,3.3-0.3c0.5,0,0.5,0.2,0.4,0.6c-0.4,0.7-0.4,1.5-0.7,2.2c-0.3,0.6,0.1,0.6,0.4,0.7c0.8,0.2,1.7,0.4,2.5,0.5
		c0.2,0,0.4,0.1,0.6,0c-0.2-0.9-0.1-1.8-0.1-2.7c0-0.6,0.2-1.2,0.8-1.5c0.1,0,0.2-0.2,0.3-0.1c0.1,0.1,0,0.2-0.1,0.3
		c-0.3,0.4-0.6,0.9-0.6,1.4c0,0.8,0.1,1.6,0,2.5c0,0.2,0.4,0.1,0.7,0.2c0.2,0,0.3-0.1,0.2-0.3c-0.2-0.8,0-1.6,0.2-2.4
		c0.2-0.7,0.6-1.2,1-1.8c0.1-0.1,0.2-0.2,0.2-0.1c0.1,0.5,0.2,0.1,0.4,0c1-0.8,2.2-0.8,3.4-0.8c0.2,0,0.6,0,0.6,0.3
		c0,0.3-0.4,0.4-0.7,0.2c-0.1,0-0.1,0-0.2,0c-1,0.1-1.9,0.7-2.9,1c-0.1,0-0.2,0.2-0.2,0.3c-0.1,0.4-0.3,0.8-0.4,1.2
		c-0.1,0.9-0.2,1.7,0.6,2.3c1,0.8,2.1,1.2,3.3,1.4c1.3,0.1,1.9-0.3,2.3-1.5c0.1-0.2,0.1-0.5,0.3-0.6c0.3-0.2,0.4-0.5,0.3-0.9
		c0-0.1,0-0.2,0-0.3c0-0.2,0-0.5,0.3-0.5c0.3,0,0.4,0.3,0.4,0.5c0,0.2,0,0.5,0,0.7c-0.1,1.8-1.6,3.5-3.7,3.3
		c-0.8-0.1-1.5-0.5-2.3-0.7c-0.4-0.1-0.9-0.7-1,0.3c0,0-0.1,0.1-0.1,0.1c-0.5,0.7-1.3,1-2,1.4c-0.1,0.1-0.3,0.1-0.2,0.3
		c0.1,0.3-0.1,0.5-0.3,0.7c-0.6,0.6-1.4,0.9-2.3,1.2c-2.5,0.7-5,0.4-7-1.2c-1.4-1.1-2.6-2.3-3.6-3.7c-0.6-0.9-1.3-1.7-1.5-2.9
		c-0.1-0.6-0.2-1.2-0.3-1.7c-0.2-1.2,0-2.5,0.4-3.7c0.1-0.4,0-0.5-0.2-0.5c-0.6-0.2-1.2-0.3-1.7-0.6c-1-0.5-2.2-0.8-3.1-1.5
		c-0.3-0.2-0.5-0.1-0.6,0.2c-0.1,0.3,0,0.4,0.3,0.5c1,0.4,2.1,0.9,3.1,1.4c0.4,0.2,0.7,0.4,1.1,0.6c-0.4,0.1-0.7,0-1-0.2
		c-1-0.5-2-0.9-3.1-1.2c-0.6-0.2-0.7-0.1-0.8,0.5c-0.1,0.8-0.2,1.6-0.2,2.4c0,0.2,0,0.4-0.2,0.6c-0.1-0.2-0.2-0.4-0.1-0.6
		c0-1,0-1.9,0.3-2.9c0-0.2,0.1-0.3-0.1-0.5c-0.5-0.3-0.8-0.3-1.1,0.3c-0.1,0.2-0.1,0.5-0.2,0.7c-0.6,1.9-0.6,3.8-0.3,5.7
		c0,0.1,0.1,0.3-0.1,0.4c-0.8-1.9-0.5-5.9,0.6-8c0.7-1.3,1.3-2.7,2.5-3.6c0.1-0.1,0.2-0.2,0.1-0.3c-0.1-0.1-0.2-0.1-0.3-0.1
		c-0.3,0.1-0.5,0.3-0.7,0.5c-0.9,1.2-1.7,2.4-2.4,3.8c-0.8,1.5-1.3,3.1-1.4,4.7c-0.1,1.8,0.1,3.7,0.6,5.4c0.6,2.2,1.4,4.3,3,6.1
		c1.4,1.6,2.9,3.1,4.7,4.3c1.2,0.8,2.5,1.5,3.8,2.1c0.3,0.1,0.5,0.2,0.4-0.3l0.5,0.3c0,0.1-0.2,0-0.2,0.2c2.4,0.1,4.3,1.3,10.3-0.8
		c-1.9,1-3.8,1.6-6,1.4c0.1,0.2,0.2,0.2,0.3,0.2c1.2-0.1,2.4,0,3.5-0.2c1.4-0.2,2.8-0.7,4.2-1.2c2.8-1,5.1-2.9,7-5.1
		c1.2-1.4,1.9-3.2,2.7-4.9c0.1-0.2,0.1-0.3,0.1-0.5c0-1,0.5-1.8,1.1-2.7c-0.2,0-0.5,0-0.5-0.3c0.1-0.3,0.3-0.2,0.6-0.2
		c0.8-0.1,1.6-0.1,2.4-0.2c0.2,0,0.5-0.1,0.6-0.3c0.2-0.3,0.4-0.5,0.7-0.8c0.6-0.5,0.6-0.6,0-1c-1.4-1.1-2.8-2.3-4.3-3.3
		c-1-0.7-2.1-1.2-3-2.1c-0.2-0.2-0.8-0.1-1,0.1c2.1,1.4,4.1,3.1,6.2,4.6c-0.3,0.1-0.5-0.1-0.6-0.2c-2.2-1.3-4-3.1-6.2-4.4
		c-0.3-0.2-0.6-0.3-0.9-0.1c0.7,0.7,1.6,1.1,2.4,1.8c-0.2,0.1-0.3,0-0.5-0.1c-1-0.5-1.8-1.2-2.8-1.7c-0.4-0.2-0.7-0.2-1.2,0l2,1.4
		c-0.5,0.1-0.9-0.2-1.3-0.4c-0.5-0.3-1-0.6-1.5-1c-0.2-0.1-0.4-0.1-0.6,0.1c-0.1,0.2,0.2,0.2,0.3,0.3c0.1,0.1,0.2,0.2,0.4,0.3l1.5,1
		c-0.1,0.1-0.3,0.1-0.4,0c-0.8-0.3-1.6-0.8-2.2-1.4c-0.3-0.3-0.6-0.2-1-0.3l0,0c0.1-0.1,0.1-0.2,0.2-0.2c0.7,0,1.3-0.8,2.1-0.3
		c0.1,0,0.2,0,0.3,0c0.5-0.3,1-0.3,1.5-0.1c0.1,0,0.1,0,0.2,0c0.6,0,1.1,0,1.7,0c2.3,0,4.7-0.1,7-0.1c0.2,0,0.3,0,0.4-0.2
		c-0.2-0.1-0.4-0.1-0.7-0.2c-2.8-0.6-5.5-1-8.4-1c-3.7,0-7.2,0.4-10.8,1c-0.6,0.1-1.1,0.5-1.7,0.5c-1,0.1-2.1,0.2-3.1,0.3
		c-0.6,0-1.3,0-1.9,0.1l0-0.2l4.7-0.6l0-0.2c-0.7-0.3-1.3-1-2.1-0.9c-0.6,0.1-1.4,0.2-2,0.7c0.3,0.1,0.7,0.2,1.1,0.1
		c0.5-0.1,0.9-0.2,1.4-0.3c0.2,0,0.3,0,0.4,0.2c0,0.1,0,0.2-0.1,0.2c-0.7-0.1-1.2,0.4-1.9,0.3c-1.2-0.1-2.2,0.6-2.5,1.8
		c1.1-0.1,2.1-0.1,3.2-0.3c1.5-0.1,3-0.3,4.5-0.5c0.3,0,0.7,0,1-0.1c0.4-0.1,0.6,0.2,0.9,0.5c0.6,0.5,1.3,0.7,1.9,1.3
		c0.4,0.3,0.8,0.7,1.4,0.7c0.2,0,0.3-0.1,0.4,0.1c0,0.1,0.1,0.3,0,0.4c-0.1,0.1-0.3,0.1-0.5,0C30.3,108.6,30,108.4,29.7,108.3z
		 M34.5,27.4c-0.2-0.2-0.5-0.4-0.8-0.4c-2.2,0.1-4.5,0-6.7,0c-1.8,0-3.6,0.1-5.4,0c-0.3,0-0.7,0-0.8,0.5c0.2,0.1,0.4,0,0.7,0
		c0.9,0,1.7-0.3,2.6-0.2c0.7,0.1,1.4,0,2.1,0.1c0.2,0,0.4,0,0.4,0.3c-0.2,0-0.3,0-0.5,0c-1.1,0-2.3-0.2-3.4,0.2l0,0
		c0,0-0.1-0.1-0.1-0.1c-1,0.1-2-0.2-2.8,0.7c-1.9,2.1-3.9,4.2-5.9,6.3c-0.2,0.2-0.4,0.4-0.5,0.7c-0.1,0.8-0.1,1.6-0.2,2.4
		c0,0.1,0,0.2,0.1,0.3c0.1,0.1,0.2,0,0.3-0.1c0.5-0.3,0.9-0.7,1.3-1c0.3-0.3,0.7-0.7,1.2-0.7c-0.8,0.7-1.6,1.4-2.4,2
		c-0.4,0.2-0.6,0.6-0.6,1.1c0,1,0.1,2-0.1,3.1c1.4-1.2,2.5-2.5,3.9-3.4c-1.1,1.2-2.3,2.3-3.4,3.4c-0.2,0.2-0.4,0.5-0.4,0.8
		c-0.1,0.9-0.2,1.7-0.3,2.6c0,0.1,0,0.2,0.1,0.2c0.1,0.1,0.2,0,0.3-0.1c0.8-0.8,1.6-1.6,2.4-2.4c0.2-0.1,0.3-0.4,0.6-0.4
		c-0.1,0.1-0.1,0.2-0.2,0.2c-0.9,1-1.8,1.9-2.7,2.9c-0.3,0.3-0.5,0.8-0.5,1.2c0,0.9,0,1.7-0.1,2.6c0,0.1,0,0.2,0.1,0.3
		c0.1,0.1,0.2-0.1,0.3-0.1c0.1-0.1,0.2-0.1,0.3-0.2c1.5-1.4,3-2.8,4.7-4.1c0.1-0.1,0.3-0.3,0.6-0.3c-1.9,1.7-3.7,3.3-5.4,4.9
		c-0.4,0.4-0.7,0.9-0.7,1.5c-0.1,2-0.3,3.9-0.5,5.8c-0.1,1.3-0.3,2.6-0.3,3.9c0,0.4,0.1,0.5,0.5,0.5c1.7,0,3.4,0.1,5,0.1
		c1.5,0,3,0.1,4.5,0.2c1.3,0.1,2.5,0.4,3.8,0c1-0.2,2,0,3,0.1c0.3,0,0.5,0.1,0.7,0.3c0.2,0.2,0.4,0.2,0.6,0.2c0.9,0,1.8-0.1,2.7,0.2
		c1.1,0.3,2.4,0.3,3.6,0.4c1.8,0.1,3.5,0.1,5.3,0.4c1.7,0.3,3.4,0.3,5.1,0.5c0.7,0.1,1.4,0.2,2.2,0.2c0.4,0,0.7-0.1,0.7-0.7
		c0-0.4,0-0.9,0.1-1.3c0-0.2,0.2-0.5-0.3-0.5c-0.1,0-0.1-0.1,0-0.2c0.7-0.6,0.4-1.4,0.5-2.1c0.1-1.2,0-2.3,0.1-3.5
		c0.3-2.2,0.5-4.3,0.7-6.5c0.2-2.5,0.5-4.9,0.5-7.4c0-0.4,0-0.9,0.1-1.3c0.2-1.1,0.2-2.3,0.3-3.4c0.1-0.9-0.1-1.9,0-2.8
		c0.1-0.4-0.1-0.9,0-1.3c0.2-0.9,0.1-1.5-0.4-2.2c-0.1-0.1-0.1-0.2,0-0.3c0.2-0.8,0.1-1.7,0.1-2.5c0-0.4-0.1-0.5-0.5-0.5
		c-2-0.1-3.9-0.2-5.9-0.3c-1.3-0.1-2.5-0.3-3.8-0.4C38.7,27.8,36.6,27.7,34.5,27.4L34.5,27.4z M67.5,49.5c-0.4-0.5-0.4-1-0.3-1.5
		c0-0.3-0.2-0.5-0.3-0.7c0-0.1-0.2-0.1-0.2,0c-0.2,0.1-0.1,0.3-0.1,0.5c-0.3-0.3,0-0.8-0.5-1c-0.2,0.1,0.1,0.3-0.1,0.5
		c-0.1,0-0.1-0.1-0.2-0.2c-0.2-0.4-0.2-0.8-0.3-1.2c-0.1-0.2-0.1-0.5-0.4-0.4c-0.2,0-0.3,0.3-0.2,0.6c0,0.4,0,0.4-0.1,0.7
		c-0.1-1.1,0.2-2.3-0.9-3.1c-0.2,0.4,0.1,0.8-0.1,1.3c-0.5-0.9-0.5-1.8-0.8-2.8c0.5,0.5,0.5,0.2,0.5-0.1s-0.1-0.7-0.2-1
		c-0.1-0.9-0.4-1.9-0.7-2.7c-0.1,0.1-0.1,0.1-0.1,0.2c0.1,1,0.2,2,0.5,2.9c0,0.1,0.2,0.3,0,0.4c-0.2,0.1-0.3-0.2-0.3-0.3
		c-0.1-0.5-0.2-1-0.3-1.5c-0.1-1.1,0.2-2.3-0.4-3.4c0,0,0-0.1,0-0.1c-0.3-1-0.2-1.9-0.2-2.9c0-1.8,0.2-3.6,0.8-5.3
		c0.1-0.2,0.2-0.4,0.4-0.3s0.3,0.3,0.1,0.6c-0.6,0.9-0.8,2-0.9,3.1c-0.1,1.1-0.2,2.2,0.1,3.3s0.4,2.2,0.7,3.3
		c0.3,1.1,0.5,2.3,0.8,3.4c0.2,0.8,0.4,1.7,0.8,2.4c0.6,1,1.5,1.8,2.3,2.7c0.3,0.3,0.6,0.5,0.8,0.8c0.5,0.6,1,1.3,1.7,1.8
		c0.5,0.4,1,0.7,1.3,1.3c0.6,1.1,1.6,1.7,2.8,2.1c2.1,0.7,4.4,1,6.6,1.7c1.2,0.4,2.5,0.6,3.7,0.9c1.2,0.4,2.6,0.6,3.9,0.6
		c0.4,0,0.6-0.1,0.7-0.5c0.1-0.8,0.3-1.6,0.7-2.4c0.5-0.8,0.8-1.7,1.2-2.6c0.1-0.3,0.1-0.5-0.2-0.7c-0.6-0.4-1.2-0.6-1.9-0.7
		c-1.4-0.3-2.7-0.6-4.1-0.9c-2.4-0.5-4.7-1.3-7.2-1.7c-0.3-0.1-0.6,0-0.8,0.2c-0.4,0.3-0.8,0.6-1.1,0.9c-0.1,0.1-0.1,0.1-0.2,0
		c-0.1-0.1-0.1-0.2,0-0.3c0.1-0.2,0.2-0.3,0.4-0.4c0.5-0.4,1-0.7,1.3-1.1c0.1-0.1,0.2-0.2,0.1-0.4c-0.4-0.9-0.7-1.9-1-2.8
		c-0.3-0.9-0.8-1.7-1.2-2.5c-0.4-0.9-0.8-1.7-1.3-2.5c-0.3-0.5-0.7-0.9-0.2-1.5c0.7-0.7,0.6-1.6,0.5-2.5c-0.1-1.5-0.7-2.8-1-4.3
		c-0.2-0.7-0.5-1.3-0.9-1.8c-0.7-1.1-1.8-1.5-3-1.7c-0.6-0.1-1.1-0.3-1.4-0.9c-0.5-1-1.2-1.7-2.1-2.4c-0.2-0.2-0.3-0.4-0.6-0.5
		c-0.7-0.2-1.4-0.5-2.2-0.6c-0.6-0.1-1.2-0.1-1.7,0.5c-1.3,1.4-2.4,2.9-3.7,4.2c-1.8,1.9-3.2,4.2-4.7,6.4c-0.1,0.1-0.1,0.1,0,0.2
		c0.1,0.1,0.2,0.1,0.3,0c0.1-0.1,0.2-0.3,0.3-0.5c0.3-0.4,0.6-0.7,1-0.9c0.1-0.1,0.3-0.1,0.4,0c0.1,0.1,0,0.2-0.1,0.4
		c-0.1,0.2-0.2,0.3-0.3,0.4c-0.4,0.5-0.9,1-1.4,1.5c-0.5,0.5-0.6,1-0.6,1.7c0,0.1,0,0.2,0.1,0.2c0.1,0,0.2,0,0.2-0.1c0,0,0,0,0,0
		c0.2-0.5,0.6-0.9,1-1.3c0.5-0.6,1-1.2,1.7-1.5c-0.4,0.6-1.1,0.9-1.4,1.6c0.2-0.1,0.4-0.2,0.5-0.4c0.1-0.1,0.3-0.2,0.4-0.1
		c0.1,0.1,0,0.3-0.1,0.4c-0.7,0.6-1.1,1.5-1.8,2.1c-0.5,0.4-0.7,0.9-0.7,1.5c0,0.1-0.1,0.3,0.1,0.4c0.2,0.1,0.3-0.1,0.4-0.2
		c0.6-0.8,1.2-1.6,1.9-2.3c0.4-0.5,1-0.9,1.6-1.1c-0.4,0.4-0.9,0.7-1.2,1.1c-0.1,0.1-0.3,0.2-0.1,0.3c0.3,0.4,0,0.6-0.2,0.7
		c-0.4,0.3-0.6,0.7-0.9,1c-0.4,0.5-0.6,1.2-1.1,1.7c-0.5,0.4-0.5,0.9-0.5,1.5c0,0.1-0.1,0.3,0.1,0.3c0.2,0.1,0.3-0.1,0.3-0.2
		c0.5-0.6,1-1.2,1.5-1.8c0.2-0.3,0.5-0.5,1-0.6c-0.3,0.3-0.7,0.5-0.6,0.7c0.3,0.4-0.1,0.4-0.2,0.5c-0.2,0.1-0.3,0.3-0.4,0.4
		c-0.4,0.6-0.8,1.2-1.3,1.8c-0.3,0.4-0.7,0.6-0.6,1.2c0.1,0.2-0.2,0.5,0.1,0.5c0.2,0.1,0.3-0.2,0.4-0.3c0.2-0.3,0.5-0.5,0.7-0.7
		c0.2-0.2,0.5-0.3,0.8-0.3c-0.5,0.3-0.9,0.7-1.2,1.2c-0.2,0.3-0.3,0.8-0.7,1c-0.2,0.2-0.3,0.4-0.3,0.6c0,0.1,0,0.3,0.1,0.4
		c0.2,0.1,0.3-0.1,0.3-0.2c0.1-0.2,0.3-0.4,0.5-0.5c0.4-0.4,0.7-0.8,1.4-0.9c-0.3,0.3-0.6,0.4-0.8,0.7c-0.5,0.6-0.8,1.4-1.6,1.8
		c-0.1,0.1-0.1,0.3-0.1,0.4c0,0.3,0,0.6,0,0.8c-0.1,0.1,0,0.3,0.1,0.3c0,0,0,0,0,0c0.1,0,0.2-0.1,0.2-0.2c0.3-0.4,0.6-0.9,1-1.3
		c0.3-0.4,0.7-0.7,1.2-0.7c-0.8,0.6-1.4,1.4-1.9,2.3c-0.1,0.2-0.2,0.3-0.4,0.3c-0.2,0-0.3,0.1-0.3,0.3c0,0.4-0.1,0.9-0.1,1.3
		c0,0.1,0,0.2,0.1,0.2c0.1,0.1,0.2,0,0.3-0.1c0.3-0.3,0.5-0.7,0.8-1c0.2-0.3,0.5-0.5,1.1-0.6c-0.6,0.5-1,0.8-1.2,1.4
		c-0.2,0.4-0.4,0.7-0.7,1c-0.3,0.2-0.4,0.6-0.4,0.9c0,0.7-0.1,1.5-0.2,2.2c-0.2,0.9-0.1,1,0.8,1.3c0.1,0,0.1,0,0.2,0
		c2.8,1.1,5.8,1.8,8.6,2.8c1.5,0.5,3.1,0.9,4.6,1.5c0.1,0.1,0.4,0.1,0.3,0.2c-0.1,0.2-0.3,0.1-0.4,0.1c-0.4-0.1-0.8-0.3-1.2-0.4
		c-2.1-0.5-4.1-1.3-6.2-1.9c-2.1-0.6-4.1-1.2-6.1-2c-0.2-0.1-0.5-0.2-0.6,0.2c-0.1,0.6-0.3,1.3-0.2,1.9c0.3,0,0.5-0.1,0.7-0.1
		c1,0.1,1.9,0.6,2.9,0.8c2.4,0.7,4.8,1.6,7.2,2.3c1.5,0.4,3,1,4.5,1.5c0.8,0.3,1.7,0.6,2.5,1.1c-1.2,1-2.6,1.7-4,2.4
		c0-0.1,0.1-0.2,0.2-0.3c0.8-0.7,1.8-1.2,2.7-1.8c0.1-0.1,0.3-0.1,0.3-0.3c0-0.2-0.2-0.2-0.3-0.2c-0.6-0.3-1.2-0.3-1.8-0.6
		c-0.6-0.3-1.3-0.4-1.9-0.6c-0.3-0.1-0.5,0-0.7,0.2c-1.6,1.2-3.3,2.1-5.1,3c-0.2,0.1-0.5,0.3-0.9,0.2c2-1.1,3.9-2.2,5.7-3.6
		c-0.1-0.1-0.2-0.1-0.3-0.1c-1-0.4-2.1-0.6-3.1-1.1c-1.1-0.6-1.9-0.1-2.6,0.5c-1.5,1.1-3,2.2-4.6,3.2c-0.6,0.4-1.1,0.7-1.7,1.1
		c-0.2,0.1-0.3,0.3-0.2,0.5c0.1,0.2,0.3,0.2,0.5,0.2c0.7,0.1,1.4,0.1,2.1,0.2c2.1,0.3,4.3,0.5,6.4,0.9c0.4,0.1,0.5,0.2,0.5,0.6
		c0,0.3-0.2,0.5-0.4,0.6c-0.8,0.4-1.6,0.9-2.4,1.3c-0.1,0.1-0.3,0.2-0.5,0.1c0.1-0.2,0.3-0.3,0.5-0.5c0.7-0.4,1.4-0.9,2.1-1.3
		c0.1-0.1,0.4-0.2,0.1-0.3c-0.2-0.2-0.5-0.5-0.9-0.2c-1,0.7-2.2,1-3.2,1.6c-0.3,0.2-0.6,0.3-1,0.3c1.1-0.8,2.4-1.4,3.6-2.2
		c-0.6,0.1-1.2-0.3-1.9,0c-1.2,0.6-2.3,1.3-3.5,1.9c-0.1,0-0.1,0.1-0.1,0.2c0,0,0,0,0,0c1.1,0.3,2.1,0.6,3.2,0.9
		c2.1,0.6,4.2,1.2,6.2,2.1c1.1,0.5,2.2,1,3.2,1.7c0.3,0.2,0.7,0.3,1,0.1c0.9-0.4,1.8-0.9,2.7-1.3c0.1-0.1,0.4-0.3,0.5-0.1
		c0.1,0.2-0.1,0.4-0.3,0.4c-0.8,0.4-1.6,0.8-2.4,1.2c-0.1,0.1-0.3,0.1-0.3,0.3c0,0.2,0.2,0.2,0.4,0.2c0.2,0,0.4-0.1,0.5-0.2
		c1.1-0.6,2.1-1.2,3.2-1.7c0.1-0.1,0.3-0.2,0.4,0c0.1,0.2-0.1,0.3-0.3,0.3c-1,0.5-1.9,1-2.9,1.5c-0.2,0.1-0.5,0.1-0.4,0.3
		c0.1,0.2,0.4,0.4,0.7,0.4c0.2,0,0.4-0.1,0.6-0.2c1.1-0.6,2.1-1.2,3.2-1.8c0.2-0.1,0.4-0.4,0.6-0.2c0.2,0.3-0.2,0.4-0.3,0.5
		c-0.1,0.1-0.2,0.1-0.3,0.2c-0.9,0.5-1.8,0.9-2.7,1.4c-0.2,0.1-0.4,0.2-0.5,0.4c0.3,0.2,0.5,0.2,0.9,0c1.3-0.7,2.5-1.3,3.9-1.9
		c0.2-0.1,0.5-0.2,0.4-0.4c-0.1-0.7,0.5-1,0.8-1.5c1.3-1.9,2.3-3.9,3.3-6c0.5-1.1,0.7-2.3,1.4-3.4c0.2-0.2-0.1-0.3-0.2-0.3
		c-0.5-0.2-1.1-0.4-1.6-0.6c-1.6-0.5-3.2-1.1-4.8-1.7c-0.7-0.3-0.9-0.7-0.7-1.4c0.2-1.3,0.5-2.6,0.2-3.9c-0.2-0.8-0.2-1.7,0.7-2.2
		c-0.7-0.4-1.1-1-1.7-1.6c-0.1-0.1-0.2-0.2-0.3-0.2c-0.2,0-0.2,0.2-0.2,0.3c-0.5,2.9-1.1,5.7-0.9,8.7c0.1,1.1,0.4,2.1,0.7,3.1
		c0,0.1,0.1,0.3,0.3,0.2c0.4-0.3,0.5-0.2,0.7,0.3c0.3,0.7,0.5,1.5,0.8,2.2c0.1,0.3,0.3,0.6,0.4,1c0,0.1,0.1,0.2,0,0.3
		c-0.1,0.1-0.2,0-0.3-0.1c-0.1-0.3-0.4-0.5-0.5-0.8c-0.2-0.6-0.6-1.2-0.8-1.9c0-0.1-0.1-0.3-0.3-0.3c-0.2,0.1-0.1,0.2-0.1,0.4
		c0,0.5,0.3,1,0.5,1.5c0.2,0.4,0.3,1,0.7,1.3c0.2,0.1,0.3,0.2,0.2,0.4c0,0.1-0.1,0.2-0.2,0.2c-0.2,0-0.3-0.1-0.4-0.3
		c-0.5-0.9-0.8-1.9-1.2-2.9c-1-2.8-1.3-5.9-0.8-8.8c0.2-1.6,0.6-3.2,0.3-4.8c0-0.1,0-0.3,0.1-0.4c0.4-0.2-0.1-0.4-0.1-0.5
		c0-0.1-0.1-0.2-0.3-0.2c0,0,0,0-0.1,0c-0.2,0.1-0.2,0.3-0.2,0.5c0.1,0.8,0,1.6-0.1,2.4c-0.1-0.1-0.1-0.2-0.1-0.3
		c-0.1-0.8-0.1-1.7-0.1-2.5c0-0.4-0.1-0.8-0.4-1.1c-0.1-0.1-0.2-0.1-0.3-0.1c-0.1,0-0.1,0.2-0.1,0.3C67.5,48.8,67.5,49.1,67.5,49.5z
		 M73.8,82.1c-0.3,0-0.4-0.2-0.6-0.3c-0.2-0.3-0.4-0.7-0.7-1.1c-0.9-1.6-1.8-3.1-3.7-3.5c-0.1,0-0.1,0-0.2-0.1
		c-0.1-0.4-0.5-0.4-0.8-0.5c-0.1,0-0.3,0-0.3-0.1c0-0.4-0.4-0.4-0.6-0.5c-0.1-0.1-0.3-0.1-0.4-0.2c-0.7-0.4-1.3-1-2.3-0.9
		c0.2-0.2,0.3-0.3,0-0.4c-1-0.5-2-1.1-3-1.6c-1.8-0.9-3.8-1.4-5.7-2c-2.5-0.7-4.9-1.6-7.4-1.9c-1.8-0.3-3.6-0.7-5.5-0.8
		c-2.5-0.2-4.9-0.3-7.4-0.2c-0.2,0-0.5,0-0.6,0.2c-0.1,0.2,0.2,0.3,0.4,0.4c0.8,0.4,1.4,1,2.1,1.5c0.2,0.2,0.5,0.2,0.8,0.2
		c1-0.1,1.9-0.5,2.9-0.5c0.5,0,0.7,0.2,1,0.6c0,0.1,0.1,0.1,0,0.2c-0.1,0.1-0.2,0.1-0.3,0c-0.2-0.2-0.4-0.2-0.6-0.3
		c-0.9,0-1.8,0.3-2.7,0.6c-0.4,0.1-0.7,0.4-1-0.1c-0.1-0.2-0.4-0.3-0.7-0.5c-1.2-0.9-2.5-1.6-3.7-2.6c-1.3-1-2.7-1.8-4-2.7
		c-0.2-0.1-0.4-0.3-0.3-0.5c0.1-0.2,0.4-0.1,0.6-0.1c0.1,0,0.1,0.1,0.2,0.1c0.6,0.1,1.3,0.2,2,0c-0.3-0.1-0.5-0.3-0.8-0.3
		c-0.3-0.1-0.7-0.4-0.9,0.1c-0.1,0.2-0.2,0-0.3-0.1c-0.3-0.5-0.8-0.8-1.4-0.8c-0.5,0-0.9,0-1.4,0c-0.5,0-1.1,0-1.6,0
		c0.3,0.6,1.2,0.7,1.3,1.5c0,0.1,0.2,0.1,0.3,0.2c0.2,0.1,0.3,0.1,0.4,0.2c1.6,1.3,3.5,2.1,5,3.4c1,0.9,2.2,1.4,3.1,2.4
		c0.1,0,0.1,0.1,0.2,0.1c0.2,0.1,0.4,0.3,0.4,0.5c0.2,0.8,0.8,1,1.5,0.6c0.1-0.1,0.3-0.2,0.4,0c0.1,0.2,0,0.3-0.1,0.4
		c-0.5,0.4-1,0.8-1.5,1.2c1.3-0.5,2.8-0.7,3.7-1.9c0.1-0.1,0.2-0.1,0.2-0.1c0.1,0.1,0.1,0.2,0.1,0.3c0,0.2-0.3,0.2-0.2,0.4
		c0.9,0,1.8-0.2,2.3-0.8c0.1-0.1,0.2-0.2,0.4-0.1c0.2,0.1,0.1,0.2,0,0.3c-0.1,0.2,0.1,0.2,0.2,0.2c0.7,0,1.5,0.3,2.1-0.4
		c0.1-0.1,0.2-0.1,0.3-0.1c0.1,0.1,0.2,0.2,0.1,0.3c-0.1,0.2,0.1,0.2,0.2,0.2c0.5-0.1,1,0.3,1.5-0.1c0.1,0,0.1,0,0.2,0
		c0.1,0.5,0.6,0.3,0.9,0.3c1.6,0.2,3.1,0.6,4.7,1c0.5,0.1,0.8,0.4,1.3,0.5c1.5,0.1,3,0.6,4.4,1.1c1.8,0.6,3.5,1.6,5.3,2.3
		c1.3,0.6,2.7,1.2,3.9,1.9c1.9,1.1,3.9,2,5.7,3.2c0.7,0.4,0.7,0.7,0,1.2c-1.1,0.9-2.4,1.4-3.5,2.3c-1.5,1.1-3.2,2-4.8,2.9
		c-2.9,1.6-5.8,3.1-8.9,4.2c-2.4,0.8-4.8,1.5-7.2,2c-0.4,0.1-0.8,0.1-1.2,0.3c0.7,0.5,1.3,1,1.9,1.5c1.8,1.5,3.7,2.9,5.2,4.7
		c0.9,1.1,1.8,2.1,2.7,3.2c0.3,0.4,0.6,0.8,1.4,1c-0.8,0.2-0.6,0.4-0.3,0.7c0.3,0.4,0.7,0.8,1,1.2c1.1,1.6,2.2,3.2,3.2,4.8
		c0.5,0.9,1.1,1.7,1.5,2.6c0.4,0.8,1.1,1,1.9,1.2c0.2,0,0.3,0,0.4-0.2c0.8-1,1.9-1.8,3-2.6c0.1-0.1,0.2-0.2,0.3-0.1
		c0.1,0.1,0.1,0.3,0,0.5c-0.1,0.1-0.2,0.2-0.2,0.2c-0.9,0.5-1.7,1.2-2.5,1.8c-0.1,0.1-0.3,0.2-0.4,0.4c0.6,0.1,0.7,0.1,0.9-0.1
		c1-1.2,2.3-2.1,3.6-2.9c0.1-0.1,0.3-0.1,0.3,0c0.1,0.1,0,0.2-0.1,0.3c-0.4,0.3-0.9,0.6-1.3,0.9c-0.8,0.5-1.6,1.1-2.3,1.8
		c0.6,0.2,2-0.1,2.4-0.6c1-1.1,2.1-2,3.3-2.8c0.1-0.1,0.3-0.2,0.4,0c0.1,0.2,0,0.3-0.1,0.4c-0.4,0.2-0.7,0.6-1.2,0.9
		c-0.8,0.5-1.5,1.1-2.1,1.8c0.7-0.1,1.3,0,1.9-0.4c0.6-0.4,1.1-0.9,1.6-1.3c0.6-0.5,1.3-0.9,1.9-1.4c0.1-0.1,0.3-0.2,0.5-0.1
		c0.2,0.2,0,0.3-0.2,0.4c-0.3,0.2-0.5,0.4-0.8,0.6c-0.9,0.6-1.8,1.2-2.7,1.8c0.9,0,1.8,0,2.7-0.1c0.1,0,0.2-0.1,0.3-0.2
		c0.9-1.1,2-1.9,3.1-2.7c0.1-0.1,0.2-0.2,0.3-0.1c0.1,0.1,0,0.2,0,0.3c-0.2,0.2-0.5,0.5-0.8,0.6c-0.8,0.6-1.7,1.1-2.4,2
		c1.7-0.1,3.3-0.2,4.8-0.2c0.1,0,0.2-0.1,0.2-0.1c0.4-0.9,1.3-1.3,2-1.9c0.1-0.1,0.2-0.2,0.3,0c0.1,0.1,0.2,0.3,0,0.4
		c-0.3,0.2-0.6,0.4-0.8,0.6c-0.4,0.3-0.9,0.5-1.2,1c0.7,0,1.3,0,1.8,0c2.4-0.1,4.8,0,7.2,0.1c1.9,0.1,3.8,0.4,5.8,0.6
		c2.1,0.2,4.1-0.2,6-1c0.8-0.3,1.5-0.8,2-1.6c-1,0.6-2,1.2-3.1,1.6c0.6-0.5,1.3-0.9,1.9-1.3c1.2-0.8,2.3-1.7,3-2.9
		c0.1-0.1,0.1-0.2,0.2-0.1c0.1,0,0.2,0.1,0.2,0.2c0,0.1-0.1,0.3,0.1,0.3c1.5-2.1,3.1-4,4.4-6.1c-0.1-0.2-0.3,0.1-0.4-0.1
		c0.5-0.4,1.1-0.7,1.3-1.4l-0.7,0.3c0.1-0.4,0.4-0.6,0.6-0.7c0.8-0.4,1.1-1,1.5-1.7c0.1-0.2,0.2-0.4,0.4-0.6c1.4-2,2.7-4.1,4-6.3
		c1.1-1.8,2-3.6,3.1-5.4c0.3-0.5,0.6-1,1.2-1c0.2,0,0.2-0.2,0.3-0.3c0.3-0.9,1-1.7,0.8-2.8c0-0.1,0-0.2,0.1-0.3
		c0.6-0.9,0.5-1.9,0.4-2.9c-0.1-1.1-0.5-2.1-0.9-3.1c-0.7-1.8-1.5-3.6-2.1-5.5c-0.9-2.7-2.3-5.1-3.5-7.6c-0.7-1.5-1.5-2.9-2.4-4.3
		c-0.9-1.4-1.9-2.8-3.3-3.7c-1-0.7-2.2-1-3.4-1.2c-0.3-0.1-0.7-0.1-1-0.2c-0.8-0.1-2,1.1-2,1.8c0,0.8,0.2,1.5,0.5,2.3
		c0.4,1.2,0.8,2.4,1.8,3.2c0.2,0.2,0.4,0.4,0.5,0.6c1,1.4,2.1,2.6,2.9,4c0.9,1.6,1.9,3.1,2.8,4.6c0.5,0.9,1.1,1.7,1.5,2.6
		c0.8,1.8,1.6,3.5,2.4,5.3c0.2,0.4,0.3,0.8,0.3,1.2c0.1,0.7,0.2,1.4,0.6,2c0.5,1,0.6,2,0.1,3c-0.2,0.4-0.4,0.7-0.6,1.1
		c-0.8,1.5-1.5,3-2.4,4.5c-1.2,2-2.3,4.2-3.5,6.2c-1.4,2.5-2.8,5-4.6,7.3c-0.5,0.7-1.1,1.3-2,1.7c-1,0.4-2,0.5-3,0.6
		c-2.2,0.2-4.4,0.1-6.6-0.1c-2.1-0.2-4.3-0.4-6.4-0.7c-1.6-0.2-3.3-0.7-4.9-1c-1-0.2-2-0.3-3-0.6c-1.7-0.4-3.4-0.6-5-1.3
		c0,0-0.1,0-0.1,0c-1.6-0.1-3.2-0.7-4.8-1.1c-2.5-0.6-5-1.2-7.4-2c-3-0.9-5.8-2.2-8.7-3.2c-0.9-0.3-1.9-0.7-2.8-1
		c-0.4-0.1-1.3,0.1-1.2-0.8c0-0.1-0.1-0.1-0.2-0.1c-0.1,0-0.3-0.1-0.4-0.1c-0.1-0.1-0.3-0.1-0.2-0.3c0.1-0.2,0.3-0.1,0.4-0.1
		c0.5,0.2,0.9,0.4,1.4,0.6c1.8,0.6,3.7,1.2,5.5,2c0.8,0.3,1.6,0.7,2.4,0.9c0.2,0.1,0.5,0,0.4-0.1c-0.2-0.3-0.8-0.6-0.9-0.5
		c-0.5,0.4-0.4,0-0.4-0.2c0-0.1-0.1-0.2-0.2-0.3c-0.7-0.6-1.2-1.3-1.7-2c-0.2-0.3-0.2-0.6,0.1-0.6c0.7-0.1,1.2-0.5,1.8-0.7
		c1-0.4,2-0.7,2.9-1.2c2-1.1,4-2,5.8-3.3c0.4-0.3,1.1-0.5,1.2-1c0.2-0.5,0.5-0.4,0.8-0.4c0.1,0,0.2-0.1,0.3,0s0,0.2-0.1,0.3
		c-0.2,0.2-0.2,0.4-0.2,0.6c0.1,0.4,0.2,0.8,0.3,1.2c0.3,0.7,0.3,1.4,0.7,2.1c0.3,0.5,0.4,0.3,0.6-0.1c0.3-0.6,0.5-1.2,0.8-1.7
		c0.6-1.1,0.6-2.2,0.3-3.3c-0.1-0.4-0.3-1,0.5-1.1c0.1,0,0.2-0.2,0.3-0.3c0.7-0.5,1-1.3,1.5-1.9c0.1-0.2,0.3-0.4,0.5-0.4
		c0.3,0,0.1,0.4,0.3,0.5c0.1,0,0.1-0.1,0.2-0.1c0.8-1.1,1.8-1.9,3-2.6c0.6-0.3,0.8-0.8,0.8-1.4c-0.4,0.1-0.8,0.3-1.2,0.7
		c-0.8,0.8-1.8,1.4-2.5,2.3c-0.2,0.2-0.4,0.2-0.6,0.1c-0.1-0.1,0-0.2,0.1-0.3c1.3-1,2.4-2.2,3.9-2.9c0.4-0.2,0.6-0.4,0.6-0.8
		c0.1-0.5,0.2-1,0.3-1.5c0.1-0.3,0.3-0.7,0.1-0.9c-0.3-0.2-0.5,0.2-0.8,0.4c-0.7,0.5-1.4,1-2.3,1.3c0.9-0.8,1.9-1.5,2.9-2.2
		c0.2-0.2,0.6-0.3,0.5-0.5c-0.1-0.3-0.5,0-0.7,0.1c-0.1,0-0.1,0.1-0.1,0.1c-0.6,0.3-1.3,0.7-1.9,1c-0.3,0.1-0.7,0.4-1.1,0.3
		c0.7-0.4,1.5-0.8,2.2-1.3c0.7-0.4,1.3-0.9,2-1.3c0.1-0.1,0.3-0.2,0.2-0.5c-0.1-0.2-0.3-0.1-0.4-0.1c-0.4,0-0.8,0.1-1.1,0.3
		c-1.2,0.7-2.4,1.5-3.8,2.1c-0.2,0.1-0.3,0.3-0.7,0.2c1.3-1,2.8-1.7,4.1-2.6c-0.9,0-1.9,0-2.8-0.1c-0.5-0.1-1,0.1-1.5,0.4
		c-1.3,0.9-2.7,1.6-4.1,2.2c-0.1,0.1-0.4,0.1-0.4,0.4c0.6-0.1,0.9,0.4,1.1,0.8C72.3,79.5,73.3,80.6,73.8,82.1z M21.2,80.7
		c0,0,0-0.1,0-0.1c0.6-0.7,1.5-1,2.3-1.4c0.3-0.1,0.5-0.2,0.4-0.6c-0.1-0.5,0-1,0.1-1.4c0.2-1.1,0.6-2.1,1.1-3
		c0.4-0.9,0.9-1.2,1.9-0.9c1,0.3,2,0.6,2.9,1.3c0.3,0.2,0.7,0.2,1,0c0.2-0.1,0.3-0.3,0.1-0.5c-1.2-1.1-2.3-2.3-3.5-3.4
		c-0.6-0.5-1.3-0.9-2.2-0.8c-1.2,0.1-2.3,0.4-3.5,0.7c-0.5,0.1-1.1,0-1.3,0.8c0,0-0.1,0.1-0.1,0.1c-1.5,1.1-2.5,2.7-3.7,4.1
		c-0.8,1-1.4,2.1-2.2,3.1c-1.8,2.6-3.6,5.1-5.2,7.9c-1.1,1.9-2.3,3.8-3.3,5.8c-1,2-2.2,3.8-3.3,5.7c-0.5,0.8-0.5,0.8,0.4,1
		c1.2,0.3,2.3,0.4,3.4-0.3c0.7-0.4,1.4-0.8,2.1-1.2c2.7-1.7,5.4-3.4,8.3-4.7c2.5-1.1,5.2-2,7.9-2.5c2.8-0.5,5.7-0.7,8.5-0.7
		c2.5,0.1,4.9,0.4,7.3,1c0.7,0.2,1.1,0.6,1.7,0.8c1.4,0.4,2.7,1,3.4,2.3c0.6,1.1,1.4,1.3,2.6,1c5-1,9.8-2.7,14.4-5.1
		c2.1-1.1,4.3-2.3,6.3-3.6c1.3-0.8,2.7-1.7,4-2.5c0.4-0.2,0.4-0.4,0-0.6c-1.4-0.9-2.9-1.8-4.4-2.6c-2-1-4-2.1-6.1-3
		c-1.7-0.8-3.4-1.7-5.3-2.2c-1.2-0.3-2.3-0.6-3.5-0.9c-1.9-0.5-3.8-1.1-5.7-1.3c-0.6-0.1-1.1-0.1-1.6,0.3c-0.1,0.1-0.3,0.1-0.4,0
		c0-0.2,0.3-0.2,0.2-0.5c-1.7,0-3.4-0.1-5.1,0.3c-0.9,0.2-1.8,0.4-2.7,0.7c-1.1,0.4-2.2,0.8-3.3,1.2c-1.7,0.6-3.3,1.3-4.9,2.1
		c-1.5,0.8-3.2,1.3-4.7,2.1c-0.6,0.3-1.2,0.7-1.9,0.9c-0.6,0.1-1.1,0.5-1.7,0.8C21.7,80.8,21.4,80.9,21.2,80.7z M89.1,71.9
		c-0.2,0.3-0.3,0.5-0.5,0.8c-0.3,0.5-0.8,0.8-1.2,1.1c-1.2,1.1-1.9,2.4-2.4,3.9c-0.8,2.2-1.5,4.4-2.3,6.5c-1.2,3.2-2.7,6.3-3.5,9.7
		c-0.5,2-1.7,3.6-3,5.1c-0.3,0.3-0.3,0.4,0.1,0.6c1.3,0.6,2.7,1,4,1.7c0.2,0.1,0.5,0.2,0.8,0.1c0.8-0.3,1.6-0.4,2.4-0.5
		c1.2-0.1,2.3-0.6,3.3-1.3c0.1-0.1,0.2-0.2,0.1-0.3c-0.3-0.2-0.2-0.5-0.4-0.7c-0.9-0.9-1.4-2.1-1.9-3.2c-0.2-0.5-0.2-1.1,0-1.6
		c0.8-2,2.1-3.7,3.1-5.6c0.9-1.8,2.1-3.4,3.1-5.1c2-3.4,4.2-6.7,5.9-10.2c0.6-1.2,1.7-2.3,1.7-3.8c0-0.6,0.4-1.3-0.5-1.6
		c0,0-0.1-0.2-0.1-0.2c0-0.2-0.1-0.3-0.2-0.4c-0.4-0.6-0.8-1.2-1.3-1.8c-0.3-0.4-0.6-0.9-1.1-1c-1.2-0.2-2.3-0.6-3.6-0.5
		c-0.5,0.1-1.1,0.1-1.6,0.1c-0.9,0-1.8,0-2.8,0c-1.6,0-3.1,0.2-4.6-0.4c-0.2-0.1-0.5,0-0.4,0.1c0.1,0.5-0.3,0.8-0.3,1.3
		c0,0.8-0.3,1.5-0.6,2.2c-0.4,0.8-0.9,1.6-1.4,2.3c-0.9,1.4-1.8,2.9-3.1,4c-0.2,0.2-0.5,0.4-0.8,0.7c1.3,0,2.5,0.1,3.6,0.1
		c2-0.1,4-0.3,6-0.6c0.7-0.1,1.4-0.4,2-0.9C88.2,72.3,88.5,72,89.1,71.9z M135.4,105.8C135.4,105.7,135.4,105.7,135.4,105.8
		c1.4-1.2,2.8-2.3,4.3-3.3c0.1-0.1,0.4-0.1,0.3-0.4c-0.1-0.6-0.6-0.8-1.2-0.4c-1.4,1-2.9,1.8-4.3,2.7c-0.7,0.5-0.8,0.4-0.4,1.2
		c0.4,0.7,0.6,1.5,0.8,2.3c0.4,1.2,1,2.3,1.2,3.6c0.1,0.9,0,1.7,0,2.6c-0.1,0.8-0.3,1.7-0.7,2.4c-0.2,0.5-0.2,1.3-1,1.4
		c-0.1,0-0.1,0.2,0,0.2c0.3,0.3,0.1,0.5-0.1,0.7c-0.4,0.6-1,1-1.6,1.4c-1.4,0.9-2.9,1.3-4.5,1.7c-1,0.2-2,0.4-3,0.2
		c-2.4-0.6-4.7-1.1-6.8-2.5c-2.1-1.5-3.8-3.4-5-5.7c-0.9-1.7-1.3-3.7-1.2-5.7c0-0.4-0.1-0.5-0.4-0.3c-0.2,0.1-0.5,0.1-0.8,0.1
		c2.2-1.8,4.7-3,6.7-4.9c-0.7,0.2-1.5,0.5-2.2,0.9c-1.3,0.7-2.7,1.2-4.1,1.9c-0.6,0.3-1.1,0.5-1.5,1.1c-0.6,1-1.4,2-2.1,3
		c-0.2,0.3-0.5,0.4-0.5,0.8c0.3,2.8,1.3,5.3,2.6,7.8c1.2,2.3,3,4.3,5.2,5.7c1.2,0.8,2.4,1.5,3.8,2c2.6,1,5.3,1,8.1,0.8
		c1.9-0.1,3.8-0.7,5.6-1.4c1.2-0.5,2.4-1.2,3.2-2.3c0.8-0.9,1.5-1.9,2.5-2.6c1.2-1,2.2-2.3,3-3.6c0.8-1.3,1.2-2.7,1.5-4.3
		c0.3-2,0.4-3.9-0.2-5.9c-0.5-1.4-1-2.8-2-4c-0.2-0.3-0.4-0.5-0.8-0.3c-0.9,0.6-1.7,1.2-2.6,1.8C136.6,105,136.1,105.5,135.4,105.8z
		 M6.2,99.6c0.7,0.1,1.3,0.1,1.8,0.1c2.3,0.2,4.6,0.4,7,0.5c0.8,0.1,1.7,0.2,2.5,0.1c0.3,0,0.4-0.1,0.5-0.4c0.2-0.6,0.5-1.1,1-1.4
		c0.8-0.6,1.6-1.2,2.3-2c0.5-0.6,1.1-1.1,1.8-1.5c0.4-0.2,0.8-0.5,1.4-0.5c0.4,0,0.8-0.2,1.3-0.2c3.1,0.3,6.3,0.8,9.3,1.6
		c2.1,0.6,4.2,1.1,6.1,2c2.7,1.2,5.1,2.9,7.1,5c0.5,0.5,0.4,1.1-0.2,1.4c-0.1,0.1-0.4,0.1-0.5,0.4c3.1,0.2,6.2,0.5,9.3,0.4
		c-0.3-0.3-0.5-0.6-0.7-0.9c-0.5-0.6-1.1-1.2-1.7-1.7c-1.4-1.2-2.8-2.3-4.1-3.7c-0.2-0.2-0.5-0.5-0.7-0.7c-1-0.8-2.1-1.6-2.9-2.7
		c-0.1-0.2-0.3-0.3-0.5-0.3c-0.4,0-0.5-0.3-0.7-0.5c-0.5-0.7-1.1-1.4-1.8-2c-0.4-0.3-0.8-0.3-1.2-0.5c-0.7-0.5-1.5-0.9-2.3-1.1
		c-2.3-0.7-4.6-1-6.9-1c-2.9-0.1-5.8,0.2-8.6,0.7c-2.3,0.4-4.4,1.2-6.6,1.9c-1.7,0.6-3.3,1.4-4.8,2.5c-0.5,0.3-1.1,0.5-1.6,0.8
		c-1.3,0.8-2.5,1.5-3.7,2.4C7.6,98.7,6.9,99,6.2,99.6L6.2,99.6z M74.1,6.5C74.1,6.5,74.1,6.4,74.1,6.5c0.2-0.1,0.3-0.1,0.4-0.1
		c0.6,0.1,0.7,0,0.6-0.6c0-0.2-0.1-0.5-0.2-0.7c-0.2-0.2,0-0.4,0.2-0.5c0.3-0.1,0.5-0.2,0.8-0.1c0.4,0,0.7,0,1.1-0.1
		c0.2,0,0.3-0.1,0.2-0.4c-0.3-0.5-0.7-0.9-1.2-1.3c-1.7-1.1-3.7-1.8-5.8-1.9c-0.5,0-1,0-1.4,0C66.8,0.7,65,1,63.4,1.8
		c-2.2,1.1-3.8,2.8-4.9,5c-0.4,0.8-0.9,1.7-1.3,2.6c-0.2,0.3-0.3,0.6-0.3,0.9c-0.1,0.4,0.2,0.7,0.4,0.9s0.4,0,0.6-0.1
		c0.8-0.5,1.7-0.7,2.6-0.5c1.1,0.1,2.2,0.5,3.2,0.9c1.3,0.6,2.8,1.1,3.8,2.3c0.2,0.3,0.6,0.5,0.8,0.7c0.3,0.3,0.5,0.3,0.7,0.1
		c0.5-0.4,1.2-0.5,1.7-1.1c0.2-0.2,0.4,0.1,0.6-0.1c0.1,0,0,0.3,0,0.4c0,0.6,0,1.1-0.1,1.7c0,0.4,0.1,0.5,0.4,0.5
		c0.4,0.1,0.9,0,1.4,0.2c-0.1,0.2-0.2,0.1-0.3,0.1c-0.5,0-1.1,0-1.6,0c-0.2,0-0.5,0-0.3,0.4c0.3,0.6,0.7,1.3,1.1,1.8
		c0.3,0.4,0.7,0.7,0.9,1.1c0.3,0.7,0.7,1.3,1.6,1.4c0.8,0.1,2.1,0,2.3-1.2c0.2-0.8,0.5-1.7,0.6-2.5c0.3-1.4,0.5-2.9,0-4.3
		c-0.1-0.2-0.1-0.4-0.3-0.3s-0.3,0.2-0.3,0.4c0,0.3,0,0.5,0,0.8c-0.2-0.4-0.1-0.8-0.2-1.2c-0.1-0.2-0.1-0.4-0.3-0.3
		c-0.4,0.1-0.6-0.2-0.8-0.5c-0.1-0.2-0.2-0.4-0.5-0.2c-0.2,0.2-0.2-0.2-0.2-0.2c0.5-0.4,0.1-0.7-0.1-1c-0.3-0.6-0.5-1.2-0.9-1.7
		C73,7.8,71.9,8.1,70.9,8c-0.2,0-0.4,0.1-0.4,0.4c0,0.1,0,0.3-0.1,0.5c-0.2-0.3,0.2-0.8-0.2-0.8c-0.6-0.1-0.5,0.6-0.6,1
		c-0.2-0.2-0.1-0.4,0-0.6c0-0.1,0-0.2-0.1-0.3c-0.1-0.1-0.2,0-0.3,0.1c-0.2,0.1-0.3,0.4-0.3,0.6c0,0.2,0,0.5-0.1,0.7l-0.1,0
		c0-0.2,0-0.4,0-0.7s0.3-0.6-0.1-0.6c-0.3-0.1-0.4,0.3-0.4,0.6C68,9.1,68,9.4,68,9.7c0,0.1,0,0.3-0.2,0.4c0-0.8-0.1-1.6,0.2-2.3
		c-0.7,0.1-0.8,0.2-0.9,0.9c-0.1,0.7,0.1,1.4-0.1,2.1c-0.1-0.1-0.1-0.2-0.1-0.4c-0.1-0.8,0-1.6-0.1-2.5c0-0.1,0.1-0.2,0.2-0.3
		c0.3-0.2,0.8-0.2,1.1-0.3c1.1-0.6,2.3-0.6,3.4-1c0.3-0.1,0.6-0.1,0.9-0.1c-0.8,0.8-1.9,0.7-2.9,1.1c0.2,0.1,0.4,0.2,0.6,0.1
		c0.7-0.2,1.4-0.1,2.1,0C73.2,7.7,74,8.1,74.4,9c0.3,0.7,0.7,1.4,1.1,2c0.2,0.4,0.6,0.7,1,0.9c1.3,0.5,2.7,0.6,4,1
		c0.3,0.1,0.5,0.1,0.7-0.1c0-0.1,0.1-0.1,0.2-0.1s0.1,0.1,0.1,0.2c0,0.1-0.2,0.1-0.1,0.3c0.3-0.3,0.5-1.2,0.3-1.5
		c0-0.1-0.1-0.1-0.2-0.1c-0.1,0-0.1,0.1-0.1,0.2c0,0.2,0.1,0.3-0.2,0.4c0-0.9-0.1-1.7-0.4-2.6c-0.5-1.3-1-2.6-1.8-3.7
		c-0.4-0.6-1-0.9-1.7-0.8c-0.3,0.1-0.7,0.1-1,0c-0.5-0.1-0.6,0.1-0.4,0.6c0.2,0.4,0.3,0.8,0.3,1.3c0,0.4-0.4,0.9-0.5,0.8
		c-0.3-0.2-0.8-0.2-1-0.5c0.1-0.2,0.3-0.1,0.4-0.1c0.2,0,0.5,0.1,0.5-0.2c0-0.2-0.3-0.2-0.5-0.1C74.6,7,74.3,6.8,74.1,6.5z
		 M101,79.7c0.1-0.7,0.1-1.4-0.1-2c-0.3-0.9-0.8-1.8-1.2-2.7c-0.3-0.5-0.6-1.1-0.9-1.7c-0.1-0.1,0.1-0.3-0.1-0.4
		c-0.2,0-0.2,0.2-0.3,0.3c-0.9,1.5-1.8,3.1-2.8,4.6c-0.5,0.7-1,1.4-1.3,2.1c-0.6,1.2-1.3,2.5-1.9,3.7C92.2,83.8,92.2,84,92,84
		c-0.4,0-0.5,0.3-0.7,0.6c-1.2,1.9-2.2,3.9-3.5,5.8c-0.5,0.7-1,1.5-1.3,2.3c-0.2,0.5-0.4,1-0.8,1.3c-0.3,0.3-0.3,0.5-0.1,0.8
		c0.3,0.3,0.4,0.8,0.7,1.1c0.5,0.6,1,1.2,1.5,1.8c0.3,0.3,0.6,0.6,1,0.7c0.4,0.1,0.5,0.4,0.6,0.7c0.1,0.3,0.2,0.7,0.2,1
		c0,0.3,0.2,0.5,0.4,0.7c0.8,0.4,1.5,0.9,2.4,1c0.6,0.1,1.2,0.2,1.8,0.4c0.3,0.1,0.3-0.1,0.4-0.2c0.2-0.6,0.4-1.3,0.6-1.9
		c0.4-1.1,0.5-2.4,1-3.5c0.7-1.6,1.2-3.3,1.6-5.1c0.2-0.8,0.7-1.5,0.9-2.2C99.8,86.3,100.5,83,101,79.7z M48,103.7
		c0-0.1,0-0.2-0.1-0.2c-0.3-0.3-0.6-0.7-1-1c-2.1-1.8-4.5-3.3-7.1-4.3c-2.2-0.9-4.5-1.4-6.7-1.9c-2.5-0.6-5-0.9-7.5-1.1
		c-0.5,0-1-0.2-1.4,0.1c-0.8,0.5-1.7,0.9-2.4,1.6c-0.9,0.8-1.8,1.6-2.6,2.6c-0.2,0.3-0.4,0.6-0.7,0.9c-0.2,0.2-0.3,0.4,0,0.7
		c0.5,0.4,1,0.7,1.6,1c1.2,0.7,2.6,1.1,3.9,1.9c0.4,0.3,0.9,0.4,1.4,0.2c2.1-0.6,4.3-0.7,6.5-1c0.5-0.1,0.9-0.1,1.4-0.1
		c1.7,0,3.4,0,5,0c2.5,0.1,5,0.6,7.4,1.2c0.7,0.2,1.3,0.4,2-0.1C47.8,104,48,103.9,48,103.7z M72.6,56.3c0,0.2,0,0.4,0,0.6
		c-0.1,0.4,0.1,0.6,0.5,0.7c0.6,0.1,1.2,0.1,1.8,0.5c0.7,0.4,1.5,0.3,2.2,0.5c1.2,0.3,2.5,0.7,3.7,1.1c0.3,0.1,0.7,0.2,1.1,0.3
		c2.4,0.1,4.8,0.6,7.2,0.9c1,0.1,2.1,0.4,2.7,1.3c0.1,0.1,0.2,0.2,0.3,0.2c0.6,0.1,1.1,0.2,1.7,0.3c0.2,0,0.4-0.1,0.3-0.4
		c-0.5-0.9-0.7-2-1.1-2.9c-0.5-1.3-1.1-2.5-1.4-3.9c-0.1-0.4-0.9-0.7-1.1-0.3c-0.3,0.6-0.8,0.9-1.2,1.3c-0.1,0.2-0.4,0.3-0.6,0.4
		c-0.5,0.1-1.1,0.1-1.6,0c-2.3-0.3-4.7-0.5-6.9-1c-1.4-0.3-2.7-0.7-4-1.3c-1-0.4-2.1-0.8-3.2-0.9c-0.4-0.1-0.6,0.1-0.6,0.6
		C72.4,54.8,72.7,55.5,72.6,56.3z M64,100.2c0.4-0.4,0.4-0.4,0.6-0.4c1.4,0.2,2.7,0.5,4,0.9c0.4,0.1,0.4,0,0.5-0.3
		c0.1-0.4-0.1-0.7,0-1.1c0.4-1.2,0.7-2.5,1.3-3.6c0.2-0.5,0.5-0.9,0.2-1.5c-0.5-1.3-0.9-2.6-1.3-4c-0.1-0.4-0.4-0.1-0.5,0
		c-1.1,0.7-2.1,1.3-3.2,2c-0.9,0.5-1.8,1-2.7,1.5c-0.1,0.1-0.3,0.1-0.2,0.3c0.2,0.9-0.1,1.8-0.3,2.7c-0.1,0.7-0.4,1.3-0.6,2
		c-0.1,0.4,0,0.6,0.4,0.7c0.4,0.1,0.4-0.1,0.4-0.4c0-0.1,0-0.2,0.1-0.3c0.4-1.6,0.8-3.2,1.2-4.8c0.1-0.3,0.2-0.5,0.5-0.6
		c0.1,0.6-0.1,1.1-0.3,1.6c-0.4,1.4-0.7,2.8-1.1,4.2c-0.1,0.3,0,0.4,0.3,0.4c0.2-0.1,0.4,0,0.4,0.2c0,0.2-0.1,0.4-0.3,0.4
		c-0.4,0-0.7,0.1-1.1-0.1c-0.4-0.2-0.8-0.3-1.1-0.5c-0.2-0.2-0.5,0-0.5,0.2c-0.1,0.3,0.2,0.2,0.3,0.2s0.2,0.1,0.4,0.1
		c2.5,1.1,5.2,1.8,7.8,2.3c1.5,0.3,3,0.6,4.4,1c0.4,0.1,0.8,0.3,0.6-0.4c0-0.1,0.1-0.3,0.1-0.4C70.9,101.9,67.5,100.7,64,100.2z
		 M91.6,103c0.4,0.3,0.8,0.6,1.2,0.8c1.1,0.4,1.9,1.1,2.2,2.2c0.1,0.2,0.1,0.4,0.2,0.7c0,0.2,0,0.4-0.2,0.5
		c-0.2,0.1-0.2-0.2-0.3-0.3c-0.1-0.2-0.4-0.3-0.4-0.1c-0.1,0.6-0.3,0.3-0.5,0.1c-0.2-0.2-0.6-0.2-0.4-0.6c0.2-0.3,0.4,0.2,0.6,0.2
		c0.1-0.2-0.1-0.4,0-0.6c0.4-0.4,0.1-0.6-0.2-0.7c-1.4-0.9-2.7-1.8-3.9-2.9c-0.3-0.3-0.7-0.5-1.1-0.8c-0.1-0.1-0.4-0.2-0.6-0.1
		c-0.7,0.5-1.5,0.4-2.3,0.8c-0.9,0.4-1.8,0.6-2.7,0.9c0,0.2,0.1,0.2,0.2,0.2c1.3,0.9,2.7,1.7,3.7,2.9c0.9,1,2.1,0.8,3.2,0.9
		c-0.2-0.2-0.5-0.5-0.7-0.6c-0.1-0.1-0.3-0.1-0.2-0.3c0.1-0.2,0.3-0.2,0.4-0.1c0,0,0,0,0,0c0.3,0.1,0.5,0.4,0.8,0.6
		c0.4,0.4,0.8,0.8,1.4,0.8c2.9,0.2,5.8,0.6,8.7,0.5c0.8,0,1.7-0.1,2.5-0.3c0.2,0,0.4-0.1,0.5-0.3c0-0.2-0.2-0.2-0.3-0.3
		c-0.4-0.3-0.9-0.2-1.3-0.4c-1-0.4-2-0.7-2.9-1.1c-0.2-0.1-0.6-0.4-0.7,0c-0.1,0.4,0.4,0.4,0.6,0.5c0.6,0.3,1.2,0.5,1.7,1
		c-0.2,0-0.4,0-0.5-0.1c-1.2-0.7-2.6-0.9-3.9-1.3c-0.3-0.1-0.5-0.2-0.6-0.6c0.7-0.1,1.2,0.2,1.8,0.4c0.2,0,0.4,0.2,0.5,0
		c0.1-0.2-0.1-0.4-0.3-0.5c-0.6-0.2-1.2-0.5-1.8-0.6c-1-0.2-2-0.6-3-1C92.8,103.1,92.3,102.8,91.6,103z M98.9,36.5
		c-0.1,0.1-0.1,0.2-0.2,0.3c-0.1,0.3-0.4,0.7-0.1,0.9c0.6,0.5,1.1,1.1,1.5,1.6c0.5,0.5,0.7,1.2,0.7,1.9c0,1.4-0.2,2.8-0.3,4.1
		c0,0.5-0.2,1-0.1,1.4c0.1,0.3,0.2,0.6-0.1,0.8c-0.1,0.1-0.2,0.2-0.1,0.3c0,0.1,0.2,0,0.3,0c0.9,0,1,0,1,0.9c0,0.2,0.1,0.4,0.3,0.6
		c0.4,0.3,0.6,0.7,0.6,1.2c0,1-0.2,2-0.5,3c-0.1,0.4-0.5,0.3-0.8,0.3c-0.3,0-0.3-0.2-0.3-0.4c-0.2-0.5,0-1-0.4-1.5
		c-0.5-0.5-1.3-0.8-1.8-0.5c-0.9,0.5-1.1,1.2-0.6,2.3c0.2,0.5,1.1,0.9,1.7,0.7c0.3-0.1,0.5-0.2,0.8-0.3c0.2-0.1,0.3-0.3,0.5-0.1
		s-0.1,0.3-0.2,0.5c-0.1,0.1-0.2,0.2-0.1,0.3c0.7,0.4,1,1.2,1.5,1.8c0.5,0.6,1.2,0.9,1.6,1.5c0.1,0.2,0.2,0.4,0.5,0.3
		c0.3-0.1,0.2-0.3,0.2-0.5c0.1-1,0.6-1.6,1.6-1.8c0.5-0.1,0.6-0.5,0.3-0.8c-0.6-0.5-1.1-1.1-1.8-1.6c-0.3-0.2-0.4-0.4-0.5-0.6
		c-0.1-0.1-0.1-0.2,0-0.2c0.6-0.1,0.5-0.6,0.7-1c0.1-0.1,0.2-0.4,0-0.5c-0.2-0.1-0.3,0.1-0.4,0.2c-0.4,0.7-1,1.3-1.6,1.9
		c-0.1,0.1-0.4,0.2-0.2,0.4c0.1,0.2,0.3,0,0.5,0c0.1,0,0.3-0.2,0.4,0.1c0.1,0.2,0,0.3-0.2,0.4c-0.3,0.1-0.6,0.1-0.9,0
		c-0.3-0.1-0.2-0.4-0.2-0.6c0-0.3,0.2-0.5,0.4-0.7c0.5-0.5,1-1,1.3-1.7c0.1-0.3,0.5-0.8-0.2-0.9c0,0-0.1-0.1-0.1-0.2
		c-0.2-0.3-0.3-0.5-0.6-0.7c-0.3-0.2-0.2-0.6,0.1-0.9c0.1-0.1,0.4-0.2,0.3-0.4c-0.2-0.4-0.5-0.8-0.8-1.1c-0.2-0.2-0.4-0.1-0.6-0.1
		c-0.3,0-0.5-0.1-0.6-0.4c-0.1-0.5,0.1-1,0.1-1.5c0.2-1.6,0.1-3.2,0-4.7c0-0.4-0.1-0.7-0.3-1.1C100.5,38.4,99.9,37.3,98.9,36.5
		L98.9,36.5z M89.2,53.2c0.2,0,0.4-0.1,0.7-0.1c2.2,0.1,4.4-0.1,6.6-0.7c0.4-0.1,0.8-0.3,1-0.7c0.4-0.9,1.1-1.1,2-0.9
		c0.3,0.1,0.6,0,0.7-0.3c0.1-0.1,0.1-0.2,0.3-0.2c0.2,0,0.2,0.2,0.2,0.3c0,0.4,0.1,0.7,0.3,1c0.2,0.3,0.4,0.6,0.5,1
		c0,0.1,0,0.2,0.2,0.2c0.2,0,0.2-0.2,0.2-0.3c0.2-0.6,0.2-1.2,0.3-1.7c0.1-0.5-0.1-1.1-0.6-1.4c-0.3-0.1-0.4-0.5-0.3-0.8
		c0.1-0.4,0-0.6-0.5-0.6c-1.6,0-3.1,0.2-4.7,0.3c-1.4,0.1-2.8,0.4-4.2,0.1c-0.2-0.1-0.5,0-0.7,0.2c-0.3,0.4-0.6,0.8-0.5,1.3
		c0.1,0.7-0.1,1.5-0.6,1.8S89.5,52.8,89.2,53.2z M101.7,57.3c-0.2,0-0.3,0-0.4-0.1c-1.1-0.8-2.3-1.6-3.5-2.2c-0.2-0.1-0.8,0-0.5-0.6
		c0,0-0.1-0.1-0.2-0.2c-0.8-0.4-1.6-0.5-2.3,0.2c-0.2,0.2-0.4,0.3-0.7,0.4c-0.8,0.4-0.9,1.2-1,2c0,0.3,0,0.9,0.6,1.1
		c0.2,0.1,0.4,0.3,0.5,0.5c0.1,0.1,0.1,0.2-0.1,0.2c-0.4-0.1-0.2,0.2-0.2,0.3c0.1,0.3,0.2,0.6,0.4,0.9c0.4,0.5,1,0.9,1.4,1.4
		c0.3,0.3,0.7,0.5,1.1,0.5c0.2,0,0.4-0.1,0.5-0.3c0.1-0.2-0.1-0.2-0.2-0.3c-0.8-0.6-1.6-1.3-2.4-1.9c-0.2-0.1-0.6-0.3-0.4-0.6
		c0.1-0.2,0.4,0.1,0.6,0.3c0.8,0.8,1.6,1.4,2.5,2.1c0.3,0.2,1,0,1.2-0.4c0.2-0.4-0.3-0.3-0.5-0.5c-0.2-0.1-0.3-0.2-0.5-0.3
		c-1.3-0.7-2.4-1.8-3.5-2.7c-0.1-0.1-0.2-0.2,0-0.3c0.1-0.1,0.1,0,0.2,0.1c0.9,0.7,1.9,1.5,2.8,2.2c0.6,0.4,1.3,0.6,1.8,1
		c0.2,0.1,0.5,0,0.6-0.2c0.1-0.2-0.1-0.2-0.3-0.3c-0.4-0.4-0.9-0.8-1.4-1.1c-1.3-0.8-2.4-2-3.8-2.6c-0.1,0-0.2-0.1-0.2-0.2
		c0-0.1,0.1-0.2,0.3-0.2c0.1,0,0.2-0.1,0.3,0c0.3,0.6,0.9,0.8,1.4,1.2c1.1,0.9,2.3,1.6,3.4,2.5c0.8,0.6,1,0.6,1.5,0.2
		c0.2-0.2,0.2-0.3,0-0.4c-0.3-0.2-0.7-0.5-1.1-0.7c-1.6-0.8-3-2-4.6-2.9c-0.1-0.1-0.3-0.1-0.3-0.3c0-0.1,0.2-0.3,0.3-0.3
		c0.3-0.1,0.2,0.2,0.2,0.3c0.1,0.1,0.2,0.2,0.3,0.3c1.5,1,3,2,4.6,2.9c0.4,0.2,0.7,0.5,1.1,0.7c0.1,0.1,0.3,0.1,0.4-0.1c0,0,0,0,0,0
		c0.1-0.2-0.1-0.2-0.2-0.3c-0.3-0.2-0.6-0.4-0.9-0.7c-0.9-0.7-1.8-1.3-2.8-2c-0.1-0.1-0.3-0.1-0.1-0.3c0.1-0.1,0.2-0.1,0.3,0
		c0.6,0.5,1.2,1,1.8,1.4c1,0.7,1.7,1.8,3,1.9c0.1,0,0.1,0.1,0.2,0.2c0.6,0.3,1.1,0.7,1.7,0.8c0-0.4-0.1-0.8-0.4-1
		c-0.6-0.5-1.2-0.9-1.7-1.4c-0.8-0.7-1.4-1.6-2-2.4c-0.1-0.2-0.2-0.2-0.4-0.2c-0.3,0.1-0.6,0.1-0.9,0.3C100,56,101,56.4,101.7,57.3
		L101.7,57.3z M81.8,63.7c0.1-0.5,0.1-0.6-0.4-0.8c-0.3-0.1-0.6-0.2-0.8-0.4c-0.6-0.4-1.8-0.1-2,0.6c-0.8,2.2-1.8,4.4-2.9,6.5
		c-0.6,1.1-1.2,2.2-2,3.1c-0.5,0.6-0.4,1,0.4,1.1c0.2,0,0.5,0.1,0.7,0.1c0.2,0.1,0.5,0,0.6-0.1c0.4-0.3,0.8-0.6,1.2-0.9
		c1.2-1,2.1-2.3,2.9-3.6C80.6,67.6,81.8,65.9,81.8,63.7L81.8,63.7z M122.6,120.9c0.5,0.3,0.8,0.3,1.1,0.4c1.1,0.4,2.3,0.6,3.5,0.3
		c0.9-0.2,1.7-0.3,2.5-0.5c0.8-0.2,1.5-0.6,2-1.3c0.2-0.3,0.4-0.6,0.7-0.7c0.1,0,0.2-0.3,0.4-0.1c0.1,0.1,0.1,0.3-0.1,0.4
		c-0.1,0.1-0.2,0.1-0.1,0.3c0.4-0.3,0.9-0.5,1.1-1.1c0.2-0.5,0.2-0.4-0.4-0.5c0.5-0.4,0.6-0.9,1-1.3c0.9-0.9,1-2.1,1-3.2
		c0-1-0.2-2-0.3-3c-0.2-1.7-1-3.3-1.6-4.9c-0.1-0.2-0.2-0.5-0.6-0.3c-0.3,0.2-0.4,0.4-0.2,0.7c0.6,1.4,0.9,2.9,0.8,4.4
		c0,1.7-0.3,3.3-0.9,4.9c-0.4,1.1-0.9,2.2-1.7,3.1c-1.6,1.9-3.7,2.6-6.1,2.5C124.1,120.8,123.3,120.8,122.6,120.9L122.6,120.9z
		 M120.2,102.1c0.6,0.3,0.6,0.9,0.9,1.1c0.6,0.2,0.4,0.7,0.5,1.1c0.3,0.9,0.7,1.8,1.1,2.7c0.4,0.8,0.8,1.6,1.2,2.4
		c0.6,1.1,1.2,2.2,1.9,3.2c0.1,0.1,0.2,0.2,0.4,0.2c0.7,0,1.2-0.3,1.7-0.7c0.2-0.2,0.2-0.5,0.1-0.8c-0.2-0.3-0.3-0.6-0.5-0.9
		c-0.8-1.7-1.5-3.4-2.4-5c-0.5-0.9-1.1-1.9-1.5-2.9c-0.2-0.5-0.4-0.7-0.9-0.7c-1,0.1-2,0.1-3,0.1c-0.4,0-0.8,0.2-0.8,0.7
		c0,0.1-0.1,0.2-0.2,0.3c-0.6,0.4-1,0.9-1.6,1.3c-0.5,0.4-1,0.8-1.5,1.2l0.1,0.1c0.4-0.2,0.7-0.5,1.1-0.7c0.9-0.6,1.8-1.1,2.8-1.6
		c0.1-0.1,0.3-0.2,0.4,0c0.1,0.1-0.1,0.2-0.2,0.3c-0.2,0.3-0.6,0.3-0.9,0.6c0.5-0.2,0.9-0.4,1.3-0.6c0.1,0,0.2-0.1,0.1-0.2
		c0,0,0-0.1,0-0.1C120.2,102.8,120.4,102.5,120.2,102.1z M88.5,63.3c0.9,0.1,1.8,0,2.6-0.1c0.1,0,0.3,0,0.3-0.2
		c0-0.1-0.1-0.2-0.2-0.3c-0.6-0.3-1.2-0.7-2-0.8c-1.2-0.2-2.5-0.3-3.7-0.4c-1.2-0.1-2.5-0.1-3.7-0.5c-1.8-0.6-3.7-1.1-5.5-1.5
		c-1.4-0.3-2.7-0.6-4.1-1c-0.3-0.1-0.5-0.3-0.7,0.1c-0.2,0.5-0.1,0.9,0.3,1.1c2,0.9,4.2,1.5,6.3,2.3c0.3,0.1,0.7,0.3,1.1,0.1
		c0.9-0.3,1.8-0.2,2.5,0.5c0.1,0.1,0.2,0.2,0.3,0.2c1.2,0.3,2.4,0.6,3.6,0.6C86.7,63.2,87.6,63.1,88.5,63.3z M85.5,75.1
		c-0.1,0-0.1,0-0.2,0c-1,0.3-2,0.7-3,0.9c-0.8,0.1-1.1,0.6-1.2,1.3c-0.3,1.6-0.8,3.1-1.1,4.7c-0.2,0.9-0.3,1.9-0.5,2.9
		c0.4,0.4-0.1,0.6-0.1,1c-0.1,1.1-0.3,2.2-0.5,3.4c0.7-0.5,1.4-0.8,1.8-1.4c0.5-0.9,0.8-1.9,1.2-2.9c-0.5,0.1-0.9,0.6-1.4,0.6
		c0.4-0.5,1-0.8,1.5-1.2c0.6-0.4,0.5-1.1,0.9-1.7c-0.7,0.1-1,0.7-1.7,0.9c0.4-0.6,0.8-1.1,1.2-1.1c0.8-0.1,0.7-0.7,0.9-1.2
		c-0.5,0.1-0.9,0.5-1.4,0.5c0.5-0.7,1.2-0.9,1.9-1.4c-0.7-0.1-1.1,0.4-1.6,0.3c0.1-0.2,0.3-0.3,0.4-0.3c0.4-0.2,0.8-0.4,1.2-0.7
		c0.1-0.1,0.3-0.1,0.2-0.3c-0.1-0.2-0.3-0.1-0.4,0c-0.3,0.1-0.5,0.3-0.9,0.3c0.2-0.3,0.5-0.4,0.8-0.6c0.3-0.1,0.5-0.3,0.8-0.4
		c0.1-0.1,0.2-0.3,0.1-0.4c-0.1-0.2-0.3,0-0.4,0.1c-0.4,0.2-0.7,0.4-1.2,0.5c0.6-0.7,1.4-0.9,2-1.4l-0.1-0.2L82,77.6
		c0.9-0.8,2.2-0.9,3.2-1.7c-0.9,0.1-1.7,0.5-2.5,0.6C83.5,76,84.6,75.8,85.5,75.1L85.5,75.1z M81.4,102.7c-0.2,0.2-0.3,0.1-0.5,0.1
		c-0.2,0-0.3,0-0.3,0.1c-0.1,0.2,0.1,0.2,0.2,0.3c0.1,0.1,0.3,0.2,0.4,0.3c1.1,0.8,2.5,1.2,3.4,2.3c0,0,0.1,0.1,0.2,0.1
		c0.3,0.1,0.7,0.2,1.1,0.3c0.5,0.1,1,0.3,1.6,0.2c-0.5-0.3-0.8-0.8-1.2-0.7c-0.5,0.1-0.8-0.1-1.1-0.3c-0.9-0.7-1.8-1.3-2.7-2
		c-0.3-0.2-0.3-0.4,0-0.6c1.1-0.5,2.3-0.8,3.5-1.1c0.8-0.2,1.5-0.5,2.3-0.8c0.3-0.1,0.5-0.4,0.4-0.7c-0.1-0.3-0.4-0.3-0.6-0.2
		c-0.4,0-0.8,0.2-1.1,0.4c-1.1,0.6-2.2,1-3.5,1.1c-0.7,0-1.4,0.1-1.9,0.4c-0.6,0.3-1.1,0.1-1.6-0.1c-0.3-0.1-0.5-0.2-0.8-0.3
		c-0.9-0.4-1.8-0.7-2.6-1.1c-0.4-0.2-0.8-0.5-1.1,0c-0.1,0.1-0.2,0.1-0.3,0.1c0,0,0,0-0.1-0.1c0.1-0.4,0.3-0.8,0.6-1.1
		c0.6-0.8,1.2-1.5,1.7-2.4c0.5-1,1.1-1.9,1.4-3c0-0.2,0.1-0.4,0-0.5c-0.2-0.1-0.3,0.1-0.4,0.2c-0.1,0-0.2,0.2-0.3,0.1
		c0-0.3,0.3-0.5,0.5-0.7c0.3-0.2,0.6-0.5,0.6-0.8c0.3-1.2,0.8-2.2,1.3-3.5c-0.6,0.3-1.1,0.6-1.7,1c-0.1,0-0.1,0.1-0.1,0.2
		c-0.2,1.1-0.8,2-1.2,3c-0.7,1.8-1.6,3.6-2.4,5.5c-0.3,0.7-0.6,1.5-0.4,2.3c0.1,0.3,0.1,0.4,0.4,0.1c0.2-0.2,0.4-0.2,0.6-0.1
		c0.3,0.1,0.5,0.3,0.8,0.4C78.1,101.6,79.8,102,81.4,102.7z M52.3,111.9c-0.1-0.6-0.2-1.1-0.1-1.7c0-0.3,0-0.6-0.1-0.9
		c0-0.2-0.4-0.3-0.1-0.5c0.3-0.2,0.3,0.2,0.5,0.3c0.3,0.1,0.1,0.3,0.1,0.5c0,0.8,0,1.6,0.4,2.3c0.1,0.3,0.4,0.5,0.7,0.6
		c1.1,0.2,2.3,0.1,3.3-0.3c1-0.4,1.1-1.5,0.2-2.2c-0.2-0.1-0.4-0.2-0.6-0.3c-1.9-0.9-4-1.1-6-1.7c-0.9-0.3-1.9-0.4-2.9-0.5
		c-0.8-0.1-1.6-0.4-2.5-0.3c0,0.1,0.1,0.2,0.2,0.3c1.3,0.7,2.4,1.6,3.5,2.6c0.2,0.3,0.6,0.4,1,0.3c0.6-0.1,1.1,0.2,1.5,0.6
		C51.7,111.1,52,111.5,52.3,111.9L52.3,111.9z M73.4,92L73.3,92c-0.2,0.3-0.4,0.6-0.6,1c-0.6,1.1-0.8,2.4-1.3,3.6
		c-0.4,1-0.9,2-1.1,3.2c-0.1,0.4,0,0.5,0.4,0.6c1,0.2,2.1,0.1,3,0.7c0.2,0.1,0.5,0.1,0.4-0.3c-0.2-0.5,0-1.1,0-1.6
		c0.1-1.4,0.6-2.7,0.6-4.1c0-0.9,0.1-1.9,0.2-2.8c-0.3-0.1-0.3,0.4-0.6,0.2c0.1-0.3,0.2-0.5,0.4-0.7c0.2-0.2,0.4-0.4,0.3-0.6
		c-0.2-0.5-0.1-1-0.2-1.4c0-0.1,0-0.2-0.1-0.2c-0.1,0-0.2,0-0.3,0.1c-0.4,0.6-0.8,1.2-0.7,2c0.1,0.8,0.2,1.6,0.3,2.5
		c0,0.7,0.1,1.3,0.2,2c0,0.1,0,0.2-0.1,0.3c-0.2,0-0.1-0.1-0.2-0.2c-0.1-0.3-0.1-0.5-0.2-0.8C73.6,94.2,73.4,93.1,73.4,92z
		 M17.2,27.7c-1.3-0.4-1.3-0.4-2.2,0.6c-0.1,0.1-0.2,0.2-0.3,0.3c-0.8,0.6-0.9,1.4-0.9,2.3c0,0.4,0.3,0.8,0.2,1.1
		c-0.3,0.7-0.5,1.5-0.5,2.3c0,0.2-0.1,0.4,0.1,0.5s0.3-0.1,0.4-0.2c0.8-0.8,1.5-1.7,2.3-2.5c1.1-1.2,2.2-2.5,3.5-3.7
		c0.1-0.1,0.1-0.1,0.1-0.2c-0.1-0.1-0.1-0.1-0.2-0.1c-0.5-0.1-1.1-0.1-1.6-0.2c-0.3,0-0.6,0.1-0.7,0.3c-0.6,0.7-1.2,1.4-1.8,2.1
		c-0.2,0.2-0.3,0.5-0.6,0.5C15.6,29.7,16.3,28.7,17.2,27.7z M84.9,46.4c0-0.3-0.1-0.6-0.1-0.8c0-0.2-0.1-0.3-0.2-0.2
		c-0.2,0.1-0.5,0.1-0.7,0.2c-0.5,0.2-0.4,0.6-0.5,1c-0.1,0.2,0.4,0.2,0.6,0.2c0.8,0.1,1.6,0.2,2.4,0.3c1.2,0.1,2.3,0.5,3.6,0.6
		c0.6,0,1.2,0,1.4-0.4c0.2-0.4,0-1.2-0.4-1.6c-0.2-0.2-0.4-0.2-0.6-0.1c-0.4,0.3-0.8,0.6-0.5,1.2c0.1,0.2,0,0.4-0.1,0.5
		c0,0-0.1,0-0.1,0c-0.3,0.1-0.3-0.2-0.3-0.4c0-0.8,0-1.6,0.9-1.9c0.1,0,0.3-0.1,0.2-0.3c-0.2-0.4-0.6-0.6-1-0.6
		c-0.4,0-0.4,0.4-0.4,0.7c0,0.4-0.1,0.7-0.3,1c0-0.4,0-0.8,0.1-1.1c0.1-0.6-0.1-0.7-0.7-0.7c-0.7,0.1-0.8,0.6-0.9,1.1
		c-0.1,0.5-0.3,1.1-0.4,1.6c-0.1-0.8,0.3-1.6,0.2-2.4c0-0.1,0.2-0.2,0-0.3c-0.2-0.1-0.3,0-0.5,0.2c-0.2,0.3-0.3,0.8-0.8,0.9
		c-0.3,0-0.6,0.3-0.6,0.6C85.1,45.9,85,46.1,84.9,46.4L84.9,46.4z M32.8,65.2c-0.5-0.1-1.1-0.1-1.6-0.1c-0.2,0-0.5-0.2-0.5,0.1
		c-0.1,0.2,0.1,0.4,0.3,0.5c0.6,0.4,1.2,0.8,1.8,1.3c0.3,0.3,0.7,0.4,1.2,0.4c2.9-0.2,5.9,0,8.8,0.3c0.8,0.1,1.5,0.2,2.3,0.3
		c0.2,0,0.4,0.1,0.5-0.1c0-0.2-0.3-0.2-0.4-0.2c-0.2,0-0.4-0.1-0.6-0.1c-2.3-0.5-4.6-1-7-1.3c-0.1,0-0.3,0-0.4-0.2
		c-0.1-0.4-0.4-0.4-0.7-0.4C35.3,65.5,34,65.2,32.8,65.2z M62.9,20.2c-0.4-0.4-0.7-0.5-0.8-0.1c-0.1,0.2-0.2,0.4-0.4,0.6
		c-0.2,0.2-0.1,0.4,0.2,0.4c1.2-0.1,2.3,0.3,3.2,1c0.3,0.3,0.8,0.4,1,0.9c0.2,0.5,0.6,1.1,1,1.6c0.2,0.2,0.3,0.5,0.7,0.5
		c1,0.1,2,0.5,2.9,1c0.1,0.1,0.2,0.1,0.4,0s0-0.2,0-0.4c-0.2-0.7-0.7-1.1-1-1.6c-0.3-0.4-0.7-0.6-1.1-0.8c-0.3-0.2-1.2,0-0.8-0.8
		c0,0,0-0.1-0.1-0.1c-0.3-0.2-0.5-0.5-0.8-0.4s-0.1,0.5-0.2,0.7c0,0.1,0.1,0.2,0,0.2c-0.1-0.1-0.1-0.2-0.1-0.3
		c0-0.4-0.1-0.8-0.3-1.2c-0.1-0.2-0.3-0.3-0.5-0.2c0,0,0,0,0,0c-0.2,0.1-0.2,0.2-0.2,0.4c0,0.1,0.1,0.3,0,0.4
		c-0.3-0.4-0.2-0.8-0.4-1.2c-0.1-0.2-0.2-0.5-0.5-0.4c-0.4,0.2-0.5,0-0.5-0.3c-0.1-0.2-0.2-0.4-0.4-0.4c-0.2,0-0.2,0.3-0.3,0.4
		c0,0.1-0.1,0.1-0.1,0.1c-0.1-0.3,0.1-0.8-0.4-0.9C62.9,19.5,62.9,19.8,62.9,20.2z M84.4,30.7c0.2-0.1,0.2-0.2,0.2-0.4
		c0.1-0.5,0-1.1,0.2-1.7c0.1-0.2-0.1-0.5-0.4-0.6c-0.4-0.1-1.5,0.4-1.7,0.8c-0.2,0.4-0.3,0.9-0.6,1.3c-0.8,1.2-0.2,2.5-0.1,3.8
		c0,0.1,0.1,0.2,0.2,0.2c0.5,0.5,2.1,0,2.3-0.7c0.2-0.8,0.3-1.5-0.1-2.3l-0.4,1.4c-0.1-0.8,0.1-1.4,0-2.1c0-0.1,0-0.2,0.1-0.2
		s0.1,0.1,0.1,0.2S84.3,30.6,84.4,30.7z M91.7,44.2c-0.1,0.6,0.1,0.7,0.6,0.6c0.3,0,0.4-0.1,0.4-0.4c0-0.2,0-0.5,0-0.7
		c0-0.7,0.1-1.3-0.2-2c-0.5-1.3-1.5-2.2-2.4-3.2c-0.7-0.8-1.5-1.4-2-2.3c-0.5-0.9-1.4-1.5-1.8-2.5c-0.1-0.1,0-0.3-0.2-0.3
		c-0.2,0-0.3,0.2-0.4,0.3c-0.1,0.3-0.1,0.6,0.1,0.8s0.5,0.5,0.8,0.8c2.2,2.4,4,5.1,5.3,8.1c0.1,0.2,0.1,0.3,0,0.5
		C91.7,44,91.7,44.1,91.7,44.2L91.7,44.2z M27.8,107c-0.3-0.2-0.5-0.4-0.8-0.6c-0.2-0.2-0.5-0.3-0.8-0.2c-2.6,0.4-5.2,0.5-7.8,0.6
		c-0.6,0-1,0.1-1.1,0.8c-0.1,0.6-0.2,0.6,0.4,0.5c2.2-0.2,4.4-0.4,6.7-0.6C25.4,107.4,26.6,107.3,27.8,107z M97.8,65
		c0.1,0.5,0,1,0.4,1.4c0.2,0.3,0.3,0.8,0.6,1.2c0.1,0.1,0,0.4,0.3,0.3c0.3-0.1,0.2-0.3,0.2-0.5c0.1-1.3,0.2-2.7,0.4-4
		c0-0.3-0.1-0.3-0.3-0.3c-0.7,0-1.4,0.2-2,0c-0.1,0-0.1,0-0.1,0.1c-0.1,0.1-0.2,0.3-0.3,0.2c-0.1-0.1-0.1-0.3-0.1-0.5
		c0-0.2,0.2-0.3,0-0.5c-0.2,0-0.3,0.3-0.5,0.2c-0.2-0.1-0.6-0.1-0.8-0.3c-0.1-0.2-0.3-0.1-0.5,0c-0.1,0.1-0.1,0.1-0.1,0.3
		c0.2,0.6,0.5,1.1,1,1.4c0.2,0.2,0.5,0.3,0.7,0.5c0.1,0.1,0.1,0.2,0.2,0.2s0.1-0.2,0.2-0.3c0.1-0.2-0.1-0.5,0.2-0.7
		c0,0.5,0,1-0.1,1.5c0,0.1-0.1,0.3,0.1,0.4c0.2,0,0.3-0.1,0.3-0.3C97.7,65.1,97.8,65.1,97.8,65z M112.4,103.5c0.6,0,1-0.3,1.4-0.5
		l2.1-0.8c0.1,0,0.3-0.1,0.3,0.1c0.1,0.2-0.1,0.2-0.2,0.3c-1,0.4-1.9,0.9-2.9,1.1c-1.3,0.3-1.7,1.3-2.2,2.2c2.6-1.5,5.3-2.5,8-3.9
		c-0.6-0.2-1.1,0-1.5,0c-1.2-0.1-2.3-0.1-3.5,0.3C113.3,102.6,112.6,102.8,112.4,103.5L112.4,103.5z M37,64.7c0.6,0.4,1.2,0.8,2,0.8
		c1,0,2-0.3,3,0.2c0.1,0,0.2,0,0.3,0c0.7,0,1.4,0.1,2.1,0.2c1.1,0.1,2.3,0.5,3.4,0c0.3-0.1,0.6-0.3,0.9,0c0.1,0.1,0.3,0,0.5-0.2
		l-4-0.5c0,0.3,0.4,0.2,0.4,0.5c-0.5,0-0.7-0.4-1.1-0.5c-1.3-0.1-2.6-0.6-3.9-0.3c-0.1,0-0.2,0-0.3,0C39.2,64.6,38.1,64.7,37,64.7z
		 M114,58.9c-0.2,0-0.4-0.1-0.5,0.1c-0.1,0.2,0.2,0.3,0.3,0.4c0.3,0.3,0.6,0.7,0.8,1c1.3,2.1,2.3,4.3,3.4,6.5
		c0.1,0.1,0.1,0.4,0.4,0.3c0.2-0.1,0.3-0.3,0.1-0.5c-0.3-0.7-0.5-1.4-0.8-2.1c-0.6-1.2-1.2-2.5-1.7-3.8
		C115.7,59.9,115.3,58.9,114,58.9L114,58.9z M139,100.9c-0.1-0.2-0.2-0.4-0.4-0.5c-0.2-0.1-0.4,0-0.6,0.1c-1.4,1.1-2.9,2.1-4.5,2.9
		c-0.5,0.3-0.2,0.5-0.1,0.7c0.1,0.3,0.3,0.4,0.6,0.2c1.6-1.1,3.2-2.1,4.8-3.1C138.9,101.1,138.9,101,139,100.9z M49.9,64.2
		c0,0.1-0.1,0.3,0.1,0.3c0.2,0.1,0.3-0.1,0.4-0.1c2.2-1.4,4.3-3.1,6.5-4.6c0.1-0.1,0.2-0.1,0.1-0.2c0-0.1-0.1-0.1-0.2-0.1
		c-0.2,0-0.4-0.1-0.5,0c-0.4,0.4-0.9,0.6-1.4,0.9c-1.5,1-2.9,2-4.4,2.9C50.1,63.5,49.9,63.8,49.9,64.2L49.9,64.2z M99,33.5
		c0.1-0.3,0-0.6-0.1-0.9c0-0.1-0.1-0.2-0.3-0.2c-0.1,0-0.2,0.1-0.2,0.3c0,0.2-0.1,0.5-0.1,0.7c-0.2,0.8-0.4,1.6-0.6,2.5
		c-0.3,1.1-0.3,2.2-0.9,3.2c-0.2,0.3,0,0.5,0.3,0.5c0.5,0,0.7-0.3,0.7-0.7c0.2-0.7,0.2-1.4,0.4-2C98.6,35.7,98.8,34.5,99,33.5
		L99,33.5z M81.7,104.6l0.1-0.2c-0.4-0.2-0.8-0.5-1.2-0.7c-0.1-0.1-0.3-0.1-0.3-0.3c0-0.4-0.3-0.5-0.6-0.7c-0.4-0.2-0.8-0.3-1.2-0.5
		c-0.9-0.3-1.9-0.5-2.7-1c-0.5-0.3-0.6-0.1-0.8,0.2c-0.1,0.1-0.2,0.3-0.1,0.4C77,102.9,79.4,103.6,81.7,104.6z M96.9,100
		c0,0.2,0,0.5,0.1,0.7c0.4,0.7,0.6,1.4,0.9,2.2c0.3,0.7,0.2,1.7,1.3,1.9c0.1,0,0.3,0.2,0.4,0.1c0.2-0.1,0-0.3,0-0.4
		c-0.5-1.6-1.1-3.2-1.8-4.7c-0.1-0.2-0.1-0.5-0.4-0.4C97,99.4,96.9,99.7,96.9,100L96.9,100z M48.6,66.4c-0.3-0.2-0.4-0.1-0.6,0
		c-0.6,0.2-1.3,0.3-1.9,0.2c-1.6-0.3-3.3-0.4-4.9-0.6c-0.7-0.1-1.3-0.1-2.1-0.1c0.1,0.2,0.3,0.3,0.6,0.3c2,0.2,4,0.8,5.9,1.2
		c0.3,0.1,0.6,0.1,1-0.1C47.2,67,47.8,66.7,48.6,66.4L48.6,66.4z M78.3,89.2c-0.9,0.4-1.6,1-2.2,1.8c0,0.1-0.1,0.1-0.1,0.2
		c0,0.1-0.1,0.3,0.1,0.4c0.1,0.1,0.2-0.1,0.3-0.1c0.3-0.2,0.6-0.6,1.1-0.7c-0.4,0.8-1.4,1-1.5,1.8c-0.1,0.8-0.3,1.5-0.1,2.4
		C76.9,93.1,77.7,91.3,78.3,89.2z M137.5,99.6c-0.3,0-0.7,0.1-0.9,0.4c-1.2,1-2.6,1.7-3.9,2.5c-0.3,0.2-0.4,0.3-0.2,0.6
		c0.2,0.2,0.3,0.4,0.7,0.2c1.6-1,3.1-2,4.5-3.1c0.1-0.1,0.3-0.1,0.2-0.3S137.7,99.6,137.5,99.6L137.5,99.6z M56,59.3
		c-0.4-0.1-0.7-0.4-1.1-0.1c-1.4,0.9-2.8,1.9-4.3,2.6c-0.3,0.2-0.6,0.5-0.6,0.9c0,0.2-0.1,0.4,0.1,0.6c0.2,0.1,0.3-0.1,0.5-0.2
		C52.3,61.8,54,60.4,56,59.3z M17.8,105.6c0-0.1-0.1-0.2-0.2-0.2c-0.2-0.1-0.5-0.1-0.7-0.2c-1.3-0.6-2.6-1.3-4-1.9
		c-0.2-0.1-0.4-0.3-0.6-0.3c-0.1,0-0.3,0-0.3,0.1c0,0.1,0.1,0.2,0.2,0.2c1.4,1.1,2.9,2.1,4.5,2.9C17.1,106.4,17.7,106,17.8,105.6z
		 M25.4,78.1c0.3,0.1,0.4-0.1,0.6-0.2c0.6-0.4,1.1-0.8,1.7-1.2c0.3-0.2,0.6-0.5,0.6-0.9c0-0.3,0.1-0.7,0.2-1c0-0.2,0.2-0.4-0.1-0.5
		c-0.3-0.1-0.4,0.1-0.5,0.4c-0.1,0.5-0.2,0.9-0.4,1.3c-0.1,0.1-0.1,0.3-0.3,0.3s-0.1-0.3-0.1-0.4c0.1-0.4,0.3-0.8,0.4-1.3
		c0.1-0.2,0.1-0.5-0.2-0.6c-0.3-0.1-0.3,0.2-0.3,0.5c-0.1,0.7-0.3,1.4-0.9,1.9c-0.2,0.1-0.3,0.3-0.4,0.5
		C25.6,77.3,25.5,77.7,25.4,78.1L25.4,78.1z M13.5,101.7c-0.4,0-0.7,0.1-0.8,0.4c-0.1,0.3,0.3,0.3,0.5,0.4c1.3,0.6,2.6,1.1,3.9,1.7
		c0.4,0.1,0.8,0.2,1.2,0.3c0.2,0.1,0.4,0,0.4-0.2c0,0,0,0,0,0c0-0.2-0.2-0.2-0.3-0.3c-1.2-0.6-2.5-1.2-3.7-1.8
		C14.2,102,13.8,101.9,13.5,101.7z M79.7,44.6c-0.9,0-1.8,0.1-2.6,0.1c-0.4,0-0.5,0.2-0.5,0.6c0,0.4,0.2,0.6,0.6,0.5
		c0.8-0.1,1.6,0.1,2.5,0.2c0.9,0.1,0.9,0.1,0.7-0.7C80.3,44.9,80,44.6,79.7,44.6L79.7,44.6z M25.4,68.4c-1.1-0.1-2.1,0.1-3.2,0.2
		c-0.6,0.1-1,0.3-1.2,0.9c0,0.1-0.2,0.3-0.1,0.4s0.4,0,0.5,0c1.3-0.4,2.6-0.7,4-0.9c0.2,0,0.5,0,0.4-0.3S25.6,68.5,25.4,68.4z
		 M83.5,34.8c0.9,0,1.6-0.4,1.9-1.2c0.6-1.7,0.7-3.4,0.6-5.1c0-0.1-0.1-0.3-0.2-0.4c-0.2-0.2-0.5-0.5-0.8-0.3s0.1,0.4,0.2,0.5
		c0.4,1.3,0.4,2.7,0,4c-0.1,0.6-0.4,1.2-0.7,1.8C84.3,34.4,83.8,34.5,83.5,34.8z M73.7,74.4c-0.8-0.5-0.8-0.5-1.5-0.1
		c-0.3,0.2-0.7,0.3-1,0.5c-0.8,0.4-1.5,0.7-2.3,1.1c-0.1,0.1-0.4,0.1-0.2,0.3c0.3,0.2,0.6,0.5,1,0.2c0.2-0.1,0.5-0.3,0.7-0.4
		C71.5,75.5,72.6,75,73.7,74.4L73.7,74.4z M55.1,66.7c-0.9-0.1-1.7-0.5-2.4,0.4c-0.1,0.1-0.1,0.1-0.2,0.1c-0.7,0.3-1.4,0.7-2.1,1
		c-0.1,0.1-0.3,0.1-0.3,0.3c0,0,0,0.1,0.1,0.1c0.4,0.3,1.3,0.2,1.7-0.1C52.8,67.9,53.9,67.3,55.1,66.7z M54.6,58.9
		c-0.8-0.4-1.5-0.1-2.1,0.3c-0.8,0.5-1.6,1-2.2,1.8c-0.1,0.1-0.3,0.4-0.1,0.5c0.2,0.2,0.4,0,0.5-0.1c1-0.6,1.9-1.2,2.9-1.8
		C53.8,59.3,54.2,59.1,54.6,58.9z M12.9,100.9c0.5,0,0.9,0.1,1.1,0.6c0,0.1,0.2,0.1,0.2,0.1c1,0.4,1.9,0.9,2.8,1.4
		c0.5,0.3,1.1,0.5,1.7,0.7c0.1,0.1,0.3,0,0.3-0.1c0,0,0,0,0,0c0.1-0.1-0.1-0.2-0.1-0.3c-0.1-0.1-0.2-0.1-0.3-0.2
		c-1.4-0.6-2.8-1.4-4.1-2.2C14,100.7,13.4,100.6,12.9,100.9z M79.4,82.4c-1,0.5-1.9,1.3-2.7,2.1c-0.3,0.4-0.6,0.7-0.9,1.2
		c-0.1,0.1-0.2,0.4,0,0.6s0.3-0.1,0.4-0.2c0.8-0.7,1.5-1.5,2.4-2C79.3,83.5,79.3,82.9,79.4,82.4z M76.1,89c0.2,0,0.4-0.2,0.5-0.3
		c0.4-0.3,0.7-0.8,1.2-1c0.9-0.4,0.9-1.2,1.1-2.1c-0.2,0.1-0.4,0.2-0.6,0.4c-0.5,0.4-0.9,0.9-1.5,1.2C76.2,87.7,75.9,88.3,76.1,89
		L76.1,89z M108,103.7c2.1-3.1,3.8-6.3,5.6-9.6C111.6,97.3,109.7,100.4,108,103.7L108,103.7z M62.5,95c0-0.2,0-0.3,0-0.5
		c0-0.1,0.2-0.4,0-0.4c-0.2-0.1-0.3,0.2-0.4,0.3c-0.3,0.4-0.3,0.9-0.4,1.4c-0.2,0.9-0.5,1.8-0.7,2.7c-0.1,0.2-0.1,0.4,0.2,0.5
		c0.3,0,0.4,0,0.5-0.3C61.9,97.4,62.3,96.2,62.5,95z M51,66.3c-1.7-0.4-2.8,0.9-4.2,1.3c1.6,0.6,1.3,0.8,2.5-0.1
		C49.8,67.1,50.4,66.9,51,66.3L51,66.3z M101.4,62.5c0.5,0,1,0,1.3-0.6c0.2-0.5,0.5-1,0.8-1.5c0.2-0.2,0.3-0.5-0.1-0.7
		c-0.4-0.1-0.6-0.1-0.7,0.3c-0.1,0.4-0.4,0.8-0.7,1.1c-0.3,0.3-0.5,0.7-0.7,1.1C101.2,62.4,101.2,62.5,101.4,62.5z M48.5,68.2
		c0.6,0.2,1.1,0.4,1.6,0c0.9-0.6,1.8-1.2,2.8-1.7c-0.4-0.2-0.9-0.3-1.3-0.3c-0.2,0-0.3,0.1-0.4,0.2c-0.1,0.4-0.5,0.5-0.8,0.7
		C49.9,67.5,49.3,67.9,48.5,68.2z M76.1,87.2c0.2-0.1,0.5-0.2,0.7-0.4c0.5-0.4,0.9-0.9,1.5-1.2c0.6-0.4,0.9-0.9,0.8-1.6
		c-0.2,0-0.4,0.1-0.6,0.3c-0.7,0.7-1.5,1.4-2.2,2.1C76.1,86.6,76,86.9,76.1,87.2z M99.9,62.5c0.5,0.1,0.9,0.2,1.2-0.2
		c0.5-0.7,0.8-1.6,1.4-2.2c0.1-0.1,0.3-0.5,0-0.6c-0.2-0.1-0.5-0.1-0.7,0.2c0,0,0,0,0,0.1C101.3,60.7,100.5,61.4,99.9,62.5
		L99.9,62.5z M101.2,60.1c0-0.2-0.1-0.3-0.2-0.2c-0.5,0.3-1.1,0.5-1.5,1s-0.6,1-0.9,1.5c-0.1,0.1-0.1,0.3,0.1,0.3c0.4,0,0.8,0,1-0.4
		c0.3-0.5,0.7-1,1-1.6C100.8,60.5,100.9,60.2,101.2,60.1z M45.7,116.4c0.4,0,0.8,0,0.9-0.5c0.1-0.3,0.3-0.6,0.4-0.9
		c0.4-0.9,0.9-1.7,1.3-2.6c0.1-0.2,0.2-0.3,0-0.4c-0.2-0.1-0.3,0-0.4,0.1c0,0,0,0,0,0c-0.1,0.2-0.2,0.5-0.3,0.7
		c-0.1,0.3-0.3,0.7-0.5,1C46.6,114.7,46.2,115.6,45.7,116.4L45.7,116.4z M16.4,106.5l0-0.1c-0.2-0.1-0.4-0.2-0.7-0.4
		c-1.2-0.6-2.4-1.5-3.6-2.2c-0.2-0.1-0.4-0.2-0.6,0c-0.2,0.3,0.1,0.4,0.3,0.5c0.9,0.5,1.8,1,2.7,1.4
		C15.1,106.1,15.8,106.3,16.4,106.5z M24.4,77.9c0,0.1,0,0.2,0,0.3c0,0.2-0.1,0.4,0.2,0.4c0.2,0,0.2-0.1,0.3-0.3
		c0.4-1.2,0.8-2.4,1-3.6c0-0.1,0.1-0.3-0.1-0.4c-0.2-0.1-0.3,0.1-0.4,0.3C24.8,75.6,24.6,76.8,24.4,77.9L24.4,77.9z M106.4,63.5
		c-0.6-0.7-0.9-1.6-1.2-2.5c0-0.1-0.1-0.2-0.2-0.2c-0.2,0-0.3,0.1-0.3,0.2c-0.1,0.4-0.2,0.8-0.5,1.1c-0.1,0.1-0.1,0.2,0,0.3
		C104.8,62.8,105.5,63.3,106.4,63.5L106.4,63.5z M97.7,104.2c0.3,0.1,0.3-0.1,0.2-0.4c-0.3-0.8-0.7-1.6-1-2.4
		c-0.1-0.1,0-0.4-0.2-0.4c-0.2,0-0.3,0.2-0.3,0.4c0,0.2,0,0.3,0,0.5c0.1,0.5,0.3,0.9,0.3,1.4C96.7,103.9,97.1,104,97.7,104.2
		L97.7,104.2z M96.7,37.2c0,0.1,0,0.2,0,0.3c0,0.1-0.1,0.4,0.1,0.4c0.2,0,0.2-0.2,0.2-0.4c0.4-1.6,0.7-3.2,1.1-4.8
		c0-0.1,0.1-0.3,0-0.4c-0.2-0.1-0.2,0.1-0.3,0.3C97.2,34.1,96.9,35.6,96.7,37.2L96.7,37.2z M53.3,113c0.2,0.9,1.4,1,2.1,0.8
		c0.9-0.3,1.7-0.9,2.7-1.1c0.2,0,0.1-0.3,0.2-0.5c0-0.1,0-0.1-0.1-0.2c0,0,0,0,0,0c-0.1,0-0.2,0.1-0.3,0.2c-0.1,0.2-0.3,0.3-0.5,0.4
		C56,113.1,54.7,113.3,53.3,113z M85.9,47.4c-2-0.2-3.9-0.7-5.9-0.9c0.4,0.4,0.9,0.4,1.2,0.5c1.2,0.3,2.4,0.6,3.6,0.8
		C85.2,47.8,85.6,47.8,85.9,47.4z M74.9,74.5c-0.5,0-0.9,0.1-1.3,0.4c-1.1,0.6-2.3,1.2-3.4,1.8c-0.1,0.1-0.3,0.1-0.3,0.3
		c0.1,0.2,0.3,0.2,0.5,0.2c0.3-0.1,0.6-0.3,0.9-0.4C72.6,76.1,73.7,75.2,74.9,74.5L74.9,74.5z M36.9,65.2c-0.8-0.5-1.6-0.9-2.6-0.7
		c-0.3,0.1-0.6,0-0.9-0.1c-0.6-0.2-1.2-0.2-1.8-0.2c0.3,0.3,0.7,0.5,1.1,0.5c0.5,0,1.1,0,1.6,0.1C35.2,65.1,36.1,65.2,36.9,65.2z
		 M136,99.8l-0.1-0.1c-0.6,0.2-1.1,0.4-1.7,0.5c0,0-0.1,0.1-0.1,0.1c0.1,0.4-0.2,0.4-0.4,0.4c-0.6,0.3-1.1,0.8-1.7,1.2
		c-0.1,0.1-0.3,0.2-0.2,0.4c0.1,0.2,0.3,0.1,0.5,0c0.3-0.2,0.7-0.4,1-0.7C134.2,101,135.1,100.4,136,99.8z M82.3,46.4
		c0.2,0,0.4,0,0.5,0.1c0.5,0.1,0.4-0.2,0.5-0.5c0.1-0.3,0-0.5-0.4-0.5c-0.6-0.1-1.2,0.1-1.8,0.2c-0.1,0-0.2,0.1-0.2,0.3
		c0,0.1,0,0.2,0.1,0.2C81.5,46.1,81.9,46.5,82.3,46.4z M78.6,87.8c-0.2,0-0.3,0-0.4,0.1c-0.6,0.5-1.2,1.1-1.8,1.6
		c-0.1,0.1-0.1,0.2-0.2,0.3c0,0.1-0.1,0.3,0,0.4c0.1,0.1,0.2,0,0.3-0.1c0.4-0.3,0.7-0.7,1.2-0.9C78.4,88.9,78.5,88.4,78.6,87.8
		L78.6,87.8z M94.8,53.7c-0.8,0.1-1.5,0.4-2.1,0.8c-0.5,0.3-0.5,0.9-0.2,1.4c0,0.1,0.2,0.2,0.3,0.1c0.1,0,0.2-0.1,0.2-0.2
		c0-0.1,0.1-0.3,0-0.4c-0.1-0.5,0.2-0.8,0.6-1C94,54.2,94.5,54.1,94.8,53.7z M86.3,74c-1,0.1-2,0.3-3,0.4c-0.3,0-0.7,0.1-1,0.1
		c-0.2,0-0.3,0.1-0.4,0.3c0,0,0,0.1,0,0.1c0,0.3,0.3,0.1,0.4,0.1c1-0.1,1.9-0.4,2.9-0.4C85.6,74.5,86.1,74.3,86.3,74z M61.5,94.6
		c-0.4,0.1-0.5,0.3-0.5,0.6c-0.1,0.4-0.2,0.8-0.3,1.2c-0.1,0.6-0.3,1.1-0.4,1.7c0,0.1-0.1,0.3,0.1,0.4c0.2,0.1,0.3-0.1,0.3-0.3
		c0.1-0.3,0.1-0.6,0.2-0.9C61,96.4,61.2,95.5,61.5,94.6z M15,64.3c0.1,0,0.2,0,0.3,0c0.1,0,0.4,0.1,0.4-0.1c0-0.2-0.2-0.3-0.3-0.4
		c-0.4-0.1-0.6-0.4-0.9-0.6C14.2,63,14,63,13.7,63c-0.3,0-0.4,0.1-0.2,0.4C13.9,63.8,14.3,64.3,15,64.3z M123.4,109.4
		c-0.1,0.3-0.7,0.3-0.6,0.7c0,0.4,0.2,0.7,0.4,1c0.2,0.2,0.4-0.2,0.6-0.2c0.5-0.1,0.4-0.4,0.2-0.7c-0.1-0.2-0.2-0.3-0.3-0.5
		C123.7,109.5,123.5,109.4,123.4,109.4z M85.9,47.9c1.1,0.6,2,0.6,2.7-0.1C87.7,47.8,86.9,47.1,85.9,47.9z M103.2,62.4
		c0.3,0,0.7-0.1,0.7-0.6c0-0.4,0.3-0.7,0.5-1c0.1-0.1,0.4-0.2,0.1-0.4c-0.2-0.1-0.4-0.2-0.6,0.1c-0.3,0.6-0.6,1.1-1,1.6
		C102.8,62.3,102.9,62.4,103.2,62.4L103.2,62.4z M46.9,113.2c-0.2,0-0.3,0.1-0.4,0.3c-0.6,0.8-1,1.8-1.5,2.7
		c-0.1,0.1-0.2,0.2-0.1,0.3c0.1,0.1,0.3,0,0.4-0.1c0,0,0,0,0,0C45.8,115.3,46.5,114.3,46.9,113.2z M18,27.4c0.5,0,1,0.1,1.5,0.1
		c0.2,0,0.5,0,0.7-0.1c0.2,0,0.3-0.2,0.3-0.4c0-0.2-0.2-0.2-0.4-0.2c-0.5-0.1-1-0.1-1.5,0C18.4,27,18.1,27.1,18,27.4z M16.3,101.6
		c0.9,0.5,1.8,1,2.8,1.5c0.2,0.1,0.4,0,0.4-0.2c0.1-0.2-0.1-0.2-0.2-0.3c-0.6-0.3-1.2-0.5-1.8-0.8C17.1,101.8,16.8,101.5,16.3,101.6
		L16.3,101.6z M14,28.3c0,0.1-0.1,0.3,0.1,0.4c0.1,0.1,0.2,0,0.3,0c0,0,0,0,0,0c0.4-0.4,0.8-0.9,1.1-1.4c0.1-0.1,0.1-0.2,0-0.4
		c-0.1-0.1-0.3-0.1-0.4,0C14.6,27.3,14.1,27.6,14,28.3z M76.8,103.4c0.7,1.3,1.9,1.5,3.2,1.4c-0.1-0.1-0.1-0.2-0.1-0.2
		c-0.4,0.1-0.9-0.1-1.2-0.5c-0.1-0.1-0.2-0.1-0.2,0c-0.2,0.6-0.4,0.1-0.5,0C77.6,103.9,77.3,103.5,76.8,103.4L76.8,103.4z
		 M10.2,105.1c0.4,0.1,0.5-0.2,0.5-0.5c0.1-0.5-0.3-0.6-0.6-0.7c-0.4-0.1-0.5,0.4-0.5,0.6C9.5,105.2,10,105,10.2,105.1z M31.7,75.5
		c0.1,0.1,0.3,0,0.4-0.1c0.8-0.4,1.5-1,2.2-1.6c0.1-0.1,0.2-0.2,0.1-0.3s-0.2,0-0.3,0.1c-0.6,0.5-1.2,0.9-1.8,1.4
		C32.1,75.2,31.8,75.2,31.7,75.5z M11.9,63.2c0.2,0.2,0.3,0.3,0.4,0.5c0.4,0.7,0.6,0.7,1.5,0.4C13.2,63.8,12.8,63,11.9,63.2z
		 M97.2,97.7c-0.2,0.4,0,0.5,0.3,0.6c0.4,0,0.6-0.2,0.7-0.5c0.1-0.2-0.4-1-0.5-0.9C97.2,97,97.4,97.5,97.2,97.7z M125.7,112.9
		c-0.5-0.4-0.6-0.8-0.8-1.2c-0.2-0.3-0.4-0.1-0.5,0c-0.1,0.1-0.5,0.4-0.3,0.5C124.6,112.5,125,112.9,125.7,112.9z M121.4,105.2
		c-0.2,0.1-0.6,0-0.7,0.4c-0.1,0.1,0.4,0.8,0.5,0.8c0.3-0.1,0.6-0.2,0.7-0.5C121.9,105.6,121.7,105.3,121.4,105.2L121.4,105.2z
		 M126.4,128.4c-1.3,0.2-2.6,0.2-3.9,0.2C123.8,128.8,125.1,128.9,126.4,128.4L126.4,128.4z M91,48.4c0.2,0,0.5,0,0.6-0.2
		c0.1-0.3,0.4-0.6,0.6-0.9c0.1-0.1,0.2-0.3,0.1-0.4c-0.1-0.1-0.3,0.1-0.4,0.2c-0.2,0.5-0.6,0.6-1,0.8c-0.1,0.1-0.3,0.1-0.2,0.3
		S90.8,48.4,91,48.4z M132.5,104.1c-0.2,0-0.4,0.2-0.4,0.4c0,0.3,0,0.7,0.4,0.7c0.2,0,0.5-0.2,0.6-0.4
		C133.1,104.7,132.7,104.1,132.5,104.1z M131.4,100.8c-0.5,0.1-1,0.1-1.4,0.2c-0.1,0-0.2,0.1-0.2,0.3c0.1,0.2,0.2,0.4,0.5,0.5
		c0.1,0,0.3,0,0.3-0.1c-0.1-0.6,0.3-0.4,0.6-0.5C131.2,101,131.3,101,131.4,100.8L131.4,100.8z M133,100.5c-0.4,0-1.4,0.5-1.6,0.9
		c-0.1,0.1,0,0.2,0,0.3c0.1,0.1,0.2,0,0.3,0C132.2,101.3,132.6,100.9,133,100.5L133,100.5z M52.3,58.4l-0.1-0.1
		c-0.7,0.4-1.4,0.8-2,1.2c-0.1,0-0.1,0.1-0.1,0.2c0,0,0,0,0,0c0.1,0.1,0.2,0.1,0.3,0C51,59.3,51.7,58.8,52.3,58.4L52.3,58.4z
		 M89.4,53.9c0-0.1,0.2-0.3,0-0.4c-0.1,0-0.3,0.1-0.4,0.2c-0.1,0.2-0.2,0.5-0.2,0.8c0,0.2,0.2,0.3,0.3,0.3c0.1,0.1,0.3,0,0.4-0.1
		c0.2-0.1,0-0.2-0.1-0.4C89.4,54.3,89.4,54.1,89.4,53.9L89.4,53.9z M45.5,114.4c-0.6,0.4-0.8,1.1-1.2,1.7c-0.1,0.1-0.2,0.2,0,0.3
		c0.1,0.1,0.2,0,0.3-0.2C44.9,115.7,45.2,115.1,45.5,114.4L45.5,114.4z M59.8,95.7c0-0.1,0.1-0.3-0.1-0.3c-0.2-0.1-0.2,0.1-0.3,0.2
		c-0.1,0.5-0.3,1.1-0.4,1.6c0,0.1,0,0.2,0.1,0.2c0.1,0,0.1-0.1,0.1-0.1C59.5,96.8,59.7,96.2,59.8,95.7L59.8,95.7z M16.7,27.3
		c0.3,0,0.5,0.1,0.8-0.1c0.1,0,0.2-0.1,0.2-0.2c0-0.1-0.2-0.1-0.3-0.1c-0.3,0-0.7,0-1,0c-0.1,0-0.3,0-0.3,0.2c0,0.2,0.2,0.2,0.3,0.2
		C16.6,27.3,16.6,27.3,16.7,27.3z M27.1,77.7c0.7-0.2,1.2-0.5,1.8-0.8c0.1-0.1,0.3-0.2,0.2-0.4c-0.1-0.1-0.2,0-0.3,0.1
		C28.2,77,27.5,77.2,27.1,77.7L27.1,77.7z M84.5,75c-0.9,0.1-1.9,0.2-2.8,0.7C82.7,75.6,83.5,75.2,84.5,75L84.5,75z M28.7,75.9
		c0.3-0.2,0.5-0.4,0.8-0.6c0.1-0.1,0.3-0.1,0.2-0.3c-0.1-0.1-0.2-0.2-0.3-0.3c-0.2-0.1-0.3,0-0.4,0.2c0,0,0,0,0,0
		C28.9,75.3,28.7,75.5,28.7,75.9L28.7,75.9z M10.9,103.8c0.1,0.1,0.3,0,0.4-0.1c0,0,0-0.1,0-0.1c0-0.4-0.3-0.5-0.6-0.6
		c-0.1-0.1-0.4,0.1-0.4,0.4C10.3,103.7,10.6,103.8,10.9,103.8z M122,106.4c-0.3,0.1-0.6,0.2-0.6,0.5c0,0.2,0.1,0.5,0.3,0.6
		c0.3,0,0.4-0.2,0.5-0.5C122.3,106.7,122.2,106.5,122,106.4z M123.5,109.2c-0.1-0.2-0.3-0.4-0.5-0.6c-0.2-0.2-0.4,0-0.5,0.1
		c-0.3,0.2-0.2,0.4-0.1,0.6c0.1,0.2,0.3,0.1,0.4,0C123,109.3,123.2,109.2,123.5,109.2z M130.9,102c-0.1,0-0.2,0-0.3,0.1
		c-0.1,0.1,0,0.2,0.1,0.3c0.1,0.2,0.3,0.4,0.4,0.6c0.1,0.1,0.2,0.2,0.3,0.1c0.1,0,0.2-0.1,0.2-0.2C131.5,102.7,131.1,102,130.9,102
		L130.9,102z M18.1,105l0-0.2l-1.8-0.5l0,0.2C16.9,104.6,17.4,105.2,18.1,105z M120.4,105.1c0.3,0,0.9-0.3,0.9-0.5
		c0-0.1,0-0.3-0.2-0.3c-0.3,0-0.7,0.1-0.8,0.5C120.2,104.9,120.2,105.1,120.4,105.1L120.4,105.1z M98.3,62.1c0-0.1-0.1-0.3-0.3-0.3
		c-0.4,0-0.5,0.4-0.6,0.7c-0.1,0.2,0.1,0.2,0.2,0.2C98.1,62.8,98.1,62.4,98.3,62.1L98.3,62.1z M12.8,101.4c-0.2-0.1-0.4-0.1-0.5-0.2
		c-0.3,0-0.4,0.1-0.5,0.3c-0.1,0.1-0.1,0.2,0,0.3c0.2,0.1,0.4,0.1,0.6,0C12.5,101.7,12.7,101.5,12.8,101.4z M96.4,103.4
		c-0.1-0.3,0-0.7-0.4-0.8c-0.3,0-0.3,0.4-0.4,0.7c-0.1,0.3,0.2,0.3,0.4,0.4C96.2,103.7,96.4,103.7,96.4,103.4z M51.2,98.8
		c0.5,0.7,1.2,1.1,1.8,1.7C52.5,99.9,51.9,99.3,51.2,98.8L51.2,98.8z M121.9,108c0,0.2,0,0.4,0.2,0.4c0.3,0,0.5-0.2,0.5-0.5
		c0-0.2-0.1-0.4-0.2-0.4c0,0-0.1,0-0.1,0C122.1,107.5,122,107.7,121.9,108z M51.4,57.8c-0.5-0.2-1,0-1.1,0.4c0,0.1,0,0.2,0,0.3
		c0.1,0.1,0.2,0,0.2,0C50.8,58.2,51.2,58.2,51.4,57.8z M36.4,73.1c-0.5,0.1-0.8,0.4-1.2,0.6c-0.1,0.1-0.3,0.2-0.2,0.3
		c0.1,0.2,0.3,0,0.4-0.1C35.7,73.7,36,73.3,36.4,73.1z M88.3,48.6c0.4,0.1,0.8,0.2,1.1-0.1c0.1-0.1,0.2-0.1,0.1-0.2
		c0-0.1-0.1-0.1-0.2-0.1C89,48.1,88.6,48.2,88.3,48.6z M132.3,103.7c-0.1-0.2-0.2-0.4-0.5-0.4c-0.1,0-0.3,0.1-0.3,0.2
		c0,0,0,0.1,0,0.1c0,0.2,0.1,0.5,0.4,0.5C132.1,104.1,132.2,103.9,132.3,103.7z M32.9,115.4l-0.5-1.5
		C32.3,115.1,32.4,115.4,32.9,115.4z M16.5,101c-0.4-0.1-0.7-0.1-0.9-0.2c-0.1,0-0.2,0-0.3,0.1c0,0.2,0.1,0.1,0.2,0.2
		C15.8,101.4,16.1,101.2,16.5,101z M74,87c-0.1,0.1-0.3,0.3-0.4,0.4c-0.1,0.1-0.2,0.3-0.1,0.5c0,0.1,0.1,0.1,0.2,0.1
		c0.2-0.3,0.3-0.5,0.5-0.8C74.2,87.1,74.1,87.1,74,87L74,87z M46,68c0.3,0.1,0.7,0.4,1.1,0.2C46.7,68,46.4,67.8,46,68L46,68z
		 M60.1,96.4c-0.1,0.4-0.3,0.8-0.5,1.2c0,0.1-0.1,0.2,0,0.3c0.2,0.1,0.2-0.1,0.2-0.2C60,97.3,60.2,96.8,60.1,96.4L60.1,96.4z
		 M92.5,53.9c0.5-0.1,0.8-0.1,1.1-0.4C93.3,53.6,92.9,53.4,92.5,53.9z M30.5,75.7c-0.4,0.1-0.5,0.4-0.7,0.8
		C30.3,76.2,30.4,76.2,30.5,75.7z M11.7,102.7c0-0.2-0.2-0.3-0.4-0.3c-0.1-0.1-0.2,0-0.3,0.1c0,0,0,0.1,0,0.1c0,0.2,0.3,0.2,0.4,0.3
		C11.5,102.9,11.6,102.9,11.7,102.7z M104,49.4c-0.1-0.2-0.1-0.5-0.5-0.4c-0.1,0-0.3,0.1-0.2,0.3C103.5,49.7,103.7,49.4,104,49.4z
		 M93.2,46c0.2,0,0.4-0.1,0.5-0.3c0-0.1-0.1-0.2-0.2-0.2c-0.2,0-0.4,0.1-0.4,0.3C93,45.9,93,46,93.2,46z M48.9,111.1
		c-0.4,0.1-0.6,0.2-0.6,0.5c0,0.1,0.1,0.2,0.2,0.1C48.8,111.7,48.8,111.4,48.9,111.1z M92.1,45.4c-0.2,0-0.3,0.1-0.3,0.3
		c0,0.1,0,0.3,0.2,0.2s0.2-0.2,0.3-0.3S92.3,45.4,92.1,45.4L92.1,45.4z M116.2,59.7c0.1-0.1,0.3-0.1,0.3-0.3c0-0.2-0.2-0.2-0.3-0.2
		c-0.1,0-0.3,0-0.3,0.2C115.9,59.5,116,59.7,116.2,59.7C116.2,59.7,116.2,59.7,116.2,59.7L116.2,59.7z M97.3,39.9
		c0.1,0.2,0.3,0.3,0.5,0.1c0.1-0.1,0.1-0.2,0.1-0.2C97.6,39.6,97.5,40,97.3,39.9z M89.7,54.3c0.3-0.2,0.4-0.4,0.3-0.6
		c0-0.1-0.2-0.1-0.2,0C89.6,53.8,89.8,54,89.7,54.3L89.7,54.3z M112.7,107.3c0.3-0.1,0.7-0.2,0.9-0.5
		C113.3,107,112.9,106.9,112.7,107.3z M81.7,105.3c-0.3-0.2-0.5-0.4-1-0.3L81.7,105.3z M51.7,28.9c0-0.1,0-0.2-0.1-0.3
		c-0.1,0-0.3,0-0.3,0.2c0,0.1,0.1,0.3,0.2,0.3c0,0,0,0,0,0C51.6,29.2,51.7,29,51.7,28.9z M79.4,5.6c0,0.1,0.1,0.3,0.2,0.3
		c0.1,0,0.2,0,0.2-0.1c0-0.1-0.1-0.3-0.2-0.4C79.5,5.4,79.4,5.5,79.4,5.6z M95.4,44.9c0.2-0.2,0.4-0.2,0.5-0.5
		c0-0.1-0.1-0.1-0.2-0.1C95.4,44.4,95.5,44.7,95.4,44.9z M95.8,46.7c0.2-0.2,0.3-0.3,0.3-0.5c0,0-0.1-0.1-0.1,0
		C95.8,46.3,95.7,46.5,95.8,46.7L95.8,46.7z"/>
</g>
</svg>
