<?xml version="1.0" encoding="utf-8"?>
<!-- Generator: Adobe Illustrator 19.0.0, SVG Export Plug-In . SVG Version: 6.00 Build 0)  -->
<svg version="1.1" xmlns="http://www.w3.org/2000/svg" xmlns:xlink="http://www.w3.org/1999/xlink" x="0px" y="0px"
	 viewBox="0 0 32.2 45.2" style="enable-background:new 0 0 32.2 45.2;" xml:space="preserve">
<style type="text/css">
	.st0{display:none;}
	.st1{fill:#010202;}
</style>
<g id="Layer_1" class="st0">
</g>
<g id="Layer_3">
	<g id="XMLID_15_">
		<g id="XMLID_42_">
			<path id="XMLID_46_" class="st1" d="M6.7,16.6c0.3-2.2,1-4.3,1.3-6.5c0.3-2.1,0.8-4,1.5-5.9C10.1,2.7,7.7,2,7.1,3.5
				c-0.9,2.2-1.3,4.4-1.7,6.7c-0.3,2.2-1,4.2-1.3,6.4C4,18.2,6.5,18.2,6.7,16.6L6.7,16.6z"/>
		</g>
	</g>
	<g id="XMLID_17_">
		<g id="XMLID_49_">
			<path id="XMLID_53_" class="st1" d="M12.2,21.4c1.7-0.9,2.4-2.9,3.4-4.4c1.4-2.3,2.9-4.6,4.4-6.8c0.9-1.3-1.3-2.6-2.2-1.3
				c-1.3,1.8-2.4,3.8-3.7,5.6c-0.9,1.4-1.7,3.9-3.2,4.7C9.5,20,10.8,22.2,12.2,21.4L12.2,21.4z"/>
		</g>
	</g>
	<g id="XMLID_18_">
		<g id="XMLID_94_">
			<path id="XMLID_98_" class="st1" d="M15.1,28.4c4.5-1,8.9-2.3,13.5-3.2c1.6-0.3,0.9-2.7-0.7-2.4c-4.5,0.9-8.9,2.2-13.5,3.2
				C12.9,26.3,13.6,28.7,15.1,28.4L15.1,28.4z"/>
		</g>
	</g>
	<g id="XMLID_19_">
		<g id="XMLID_99_">
			<path id="XMLID_103_" class="st1" d="M10.5,39.6c5.3,0.1,10.2,2.7,15.5,3.1c1.6,0.1,1.6-2.4,0-2.5c-5.3-0.4-10.2-3.1-15.5-3.1
				C8.9,37.1,8.9,39.6,10.5,39.6L10.5,39.6z"/>
		</g>
	</g>
</g>
</svg>
