<?xml version="1.0" encoding="utf-8"?>
<!-- Generator: Adobe Illustrator 19.0.0, SVG Export Plug-In . SVG Version: 6.00 Build 0)  -->
<svg version="1.1" xmlns="http://www.w3.org/2000/svg" xmlns:xlink="http://www.w3.org/1999/xlink" x="0px" y="0px"
	 viewBox="0 0 32.2 45.2" style="enable-background:new 0 0 32.2 45.2;" xml:space="preserve">
<style type="text/css">
	.st0{display:none;}
	.st1{fill:#010202;}
</style>
<g id="Layer_1" class="st0">
</g>
<g id="Layer_3">
	<g id="XMLID_15_">
		<g id="XMLID_28_">
			<path id="XMLID_32_" class="st1" d="M29.1,16.6c-0.3-2.2-1-4.2-1.3-6.4c-0.3-2.3-0.8-4.5-1.6-6.7c-0.6-1.5-3-0.8-2.4,0.7
				c0.8,1.9,1.2,3.8,1.5,5.9c0.3,2.2,1,4.4,1.3,6.5C26.8,18.2,29.3,18.2,29.1,16.6L29.1,16.6z"/>
		</g>
	</g>
	<g id="XMLID_17_">
		<g id="XMLID_35_">
			<path id="XMLID_39_" class="st1" d="M22.6,19.3c-1.4-0.8-2.2-3.3-3.1-4.7c-1.2-1.9-2.3-3.8-3.6-5.6c-0.9-1.3-3.1-0.1-2.2,1.3
				c1.5,2.2,2.9,4.5,4.3,6.8c0.9,1.6,1.7,3.5,3.3,4.4C22.7,22.2,24,20,22.6,19.3L22.6,19.3z"/>
		</g>
	</g>
	<g id="XMLID_18_">
		<g id="XMLID_42_">
			<path id="XMLID_46_" class="st1" d="M19.1,25.9c-4.4-1-8.7-2.3-13.1-3.2c-1.6-0.3-2.2,2.1-0.7,2.4c4.4,0.9,8.7,2.2,13.1,3.2
				C20,28.7,20.7,26.3,19.1,25.9L19.1,25.9z"/>
		</g>
	</g>
	<g id="XMLID_19_">
		<g id="XMLID_49_">
			<path id="XMLID_53_" class="st1" d="M22.9,37.1c-5.2,0.1-9.9,2.7-15.1,3.1c-1.6,0.1-1.6,2.6,0,2.5c5.2-0.4,10-3.1,15.1-3.1
				C24.5,39.6,24.5,37.1,22.9,37.1L22.9,37.1z"/>
		</g>
	</g>
</g>
</svg>
