<?xml version="1.0" encoding="iso-8859-1"?>
<!-- Generator: Adobe Illustrator 19.0.0, SVG Export Plug-In . SVG Version: 6.00 Build 0)  -->
<svg version="1.1" id="Capa_1" xmlns="http://www.w3.org/2000/svg" xmlns:xlink="http://www.w3.org/1999/xlink" x="0px" y="0px"
	 viewBox="0 0 512 512" style="enable-background:new 0 0 512 512;" xml:space="preserve">
<g>
	<g>
		<path d="M87.044,150.149L0,481.915h512l-87.045-331.766H301.012v-30.04h94.902c41.371,0,75.028-33.657,75.028-75.028V30.085
			H41.059v14.996c0,41.371,33.657,75.028,75.028,75.028h94.902v30.04H87.044z M116.086,90.118c-19.578,0-36.278-12.557-42.469-30.04
			h364.766c-6.19,17.483-22.891,30.04-42.469,30.04H116.086z M271.02,120.11v30.04H240.98v-30.04H271.02z M401.817,180.142
			l71.307,271.781H38.876l71.307-271.781H401.817z"/>
	</g>
</g>
<g>
	<g>
		<path d="M256,210.131c-58.394,0-105.901,47.506-105.901,105.899c0,58.393,47.507,105.9,105.901,105.9
			s105.901-47.507,105.901-105.9C361.901,257.638,314.394,210.131,256,210.131z M270.995,390.445v-74.413h-29.992v74.413
			c-34.699-6.981-60.913-37.691-60.913-74.414c0.001-41.856,34.053-75.907,75.909-75.907s75.909,34.052,75.909,75.907
			C331.909,352.754,305.694,383.463,270.995,390.445z"/>
	</g>
</g>
<g>
</g>
<g>
</g>
<g>
</g>
<g>
</g>
<g>
</g>
<g>
</g>
<g>
</g>
<g>
</g>
<g>
</g>
<g>
</g>
<g>
</g>
<g>
</g>
<g>
</g>
<g>
</g>
<g>
</g>
</svg>
